<svg xmlns="http://www.w3.org/2000/svg" xmlns:xlink="http://www.w3.org/1999/xlink" width="500" zoomAndPan="magnify" viewBox="0 0 375 374.999991" height="500" preserveAspectRatio="xMidYMid meet" version="1.0"><defs><clipPath id="b7fc798cdd"><path d="M 3.046875 111 L 362 111 L 362 170 L 3.046875 170 Z M 3.046875 111 " clip-rule="nonzero"/></clipPath></defs><path fill="#e81d20" d="M 235.519531 153.578125 C 234.023438 145.492188 233.5 132.914062 233.277344 129.46875 C 233.1875 128.042969 233.269531 126.894531 233.183594 125.851562 C 232.925781 125.851562 232.671875 125.851562 232.421875 125.855469 C 231.980469 125.867188 231.542969 125.871094 231.113281 125.871094 C 225.609375 125.796875 220.175781 125.136719 214.816406 123.886719 C 212.007812 123.238281 209.167969 122.785156 206.296875 122.535156 C 205.796875 122.503906 205.253906 122.488281 204.699219 122.488281 C 200.007812 122.488281 194.511719 123.59375 190.488281 124.402344 C 188.394531 124.820312 186.578125 125.183594 185.132812 125.367188 C 183.007812 125.574219 180.878906 125.664062 178.742188 125.632812 C 176.566406 125.632812 174.242188 125.582031 172.1875 125.535156 L 172.03125 125.53125 C 170.128906 125.488281 168.582031 125.457031 167.382812 125.457031 C 167.09375 125.457031 166.828125 125.457031 166.585938 125.460938 C 165.253906 125.488281 162.351562 126.957031 159.59375 128.621094 C 159.449219 129.613281 159.253906 130.59375 159.003906 131.5625 C 157.804688 136.203125 156.757812 147.140625 157.65625 153.875 C 158.558594 160.613281 160.351562 164.652344 158.851562 169.449219 C 157.828125 172.726562 159.605469 174.667969 162.746094 176.574219 C 160.25 183.875 160.25 188.070312 160.449219 193.65625 C 160.648438 199.242188 160.648438 206.832031 159.25 209.03125 C 158.191406 210.691406 158.28125 211.667969 160.644531 212.742188 C 160.648438 219.113281 160.550781 229.996094 161.347656 237.582031 C 162.144531 245.171875 163.644531 255.351562 164.640625 261.546875 C 165.636719 267.742188 166.636719 271.824219 166.941406 275.21875 C 167.246094 278.617188 170.136719 281.109375 173.925781 281.511719 C 174.820312 281.632812 175.707031 281.621094 176.597656 281.476562 L 176.621094 281.589844 C 176.820312 284.207031 177.21875 286.5 179.3125 287.898438 C 181.410156 289.296875 184.605469 290.59375 187.902344 288.296875 C 191.199219 286.003906 193.191406 279.910156 193.890625 276.519531 C 194.589844 273.128906 193.992188 270.128906 193.890625 267.335938 C 193.789062 264.542969 193.792969 265.140625 195.589844 261.839844 C 195.054688 266.242188 195.121094 270.636719 195.789062 275.019531 C 196.585938 279.507812 198.082031 283.203125 196.789062 286 C 194.734375 290.304688 193.101562 294.761719 191.894531 299.375 C 190.695312 304.464844 192.894531 310.855469 193.089844 316.347656 C 193.285156 321.835938 193.089844 333.617188 193.089844 333.617188 C 192.644531 333.921875 192.542969 334.414062 192.492188 336.460938 C 192.441406 338.507812 192.421875 340.921875 192.246094 342.601562 C 192.199219 343.046875 192.175781 343.570312 192.167969 344.09375 C 191.4375 345.3125 191.011719 346.625 190.894531 348.042969 C 190.746094 349.890625 189.300781 351.335938 189.097656 352.382812 C 188.894531 353.433594 189.050781 355.132812 188.699219 356.628906 C 188.347656 358.125 187.707031 358.226562 186.601562 360.121094 C 185.5 362.019531 185.507812 366.234375 185.28125 368.285156 C 184.710938 370.136719 186.464844 373.4375 190.894531 374.148438 C 195.886719 374.945312 199.582031 372.75 200.480469 369.753906 C 201.382812 366.757812 206.46875 364.964844 207.664062 363.464844 C 208.039062 362.929688 208.273438 362.335938 208.355469 361.683594 C 209.390625 360.355469 209.109375 357.675781 208.816406 355.578125 C 208.519531 353.480469 207.019531 351.484375 206.71875 350.339844 C 206.421875 349.191406 206.71875 347.640625 206.71875 346.292969 C 206.636719 345.273438 206.351562 344.308594 205.867188 343.40625 C 205.910156 342.347656 206.011719 341.296875 206.171875 340.25 C 206.46875 338.753906 207.421875 336.183594 207.164062 335.410156 C 207.164062 335.410156 209.757812 326.027344 211.554688 318.242188 C 213.351562 310.457031 215.148438 300.867188 215.722656 295.882812 C 216.5 288.902344 216.574219 281.914062 215.949219 274.917969 C 215.148438 267.929688 216.546875 265.53125 218.949219 260.742188 C 221.347656 255.949219 225.933594 242.171875 226.925781 233.589844 C 227.921875 225.007812 228.53125 214.425781 228.726562 208.839844 C 230.191406 208.765625 231.21875 208.316406 230.425781 205.9375 C 229.328125 202.644531 229.925781 194.65625 229.726562 191.5625 C 229.527344 188.464844 229.625 183.378906 228.53125 180.179688 C 228.164062 179.128906 227.730469 177.546875 227.300781 175.890625 C 228.503906 175.265625 229.65625 174.605469 230.726562 173.941406 C 235.074219 171.246094 237.019531 161.664062 235.519531 153.578125 Z M 192.394531 240.179688 C 191.972656 239.957031 191.527344 239.808594 191.054688 239.742188 C 191.195312 239.3125 191.359375 238.894531 191.542969 238.480469 C 192.210938 237.0625 192.75 235.59375 193.15625 234.078125 C 193.414062 236.457031 193.710938 238.984375 194.003906 241.273438 C 193.5 240.859375 192.964844 240.496094 192.394531 240.179688 Z M 352.324219 19.558594 C 350.902344 20.238281 350.078125 22.03125 348.503906 22.929688 C 346.929688 23.832031 345.621094 23.382812 346.261719 21.660156 C 346.898438 19.941406 350.972656 15.144531 352.324219 13.425781 C 353.675781 11.703125 354.757812 9.265625 353.257812 8.667969 C 351.761719 8.070312 348.878906 12.148438 347.796875 13.425781 C 346.96875 14.546875 346.03125 15.570312 344.984375 16.492188 C 344.011719 17.203125 344.460938 14.957031 345.960938 12.261719 C 347.460938 9.570312 349.289062 6.609375 349.925781 5.148438 C 350.5625 3.691406 349.480469 2.117188 348.015625 2.863281 C 346.554688 3.613281 344.429688 6.757812 343.601562 8.035156 C 342.773438 9.308594 341.132812 12 340.496094 13.050781 C 339.859375 14.097656 338.773438 14.246094 339.074219 12.410156 C 339.375 10.574219 341.09375 6.160156 341.660156 4.289062 C 342.222656 2.414062 341.882812 0.578125 340.71875 0.28125 C 339.558594 -0.0195312 337.539062 0.992188 336 6.15625 C 335.136719 9.390625 333.988281 12.523438 332.558594 15.550781 C 331.886719 16.789062 330.539062 19.074219 328.332031 18.808594 C 326.121094 18.542969 324.0625 16.152344 322.824219 14.765625 C 321.585938 13.382812 319.535156 11.769531 317.085938 12.570312 C 314.640625 13.371094 315.589844 14.566406 317.882812 16.359375 C 320.179688 18.152344 321.378906 21.054688 322.027344 24.402344 C 322.679688 27.75 322.925781 31.683594 321.980469 33.035156 C 321.039062 34.386719 312.992188 40.21875 308.492188 42.417969 C 303.996094 44.613281 297.511719 47.910156 293.71875 49.105469 C 289.925781 50.300781 285.140625 54 283.042969 56.496094 C 279.996094 59.828125 276.335938 62.222656 272.0625 63.683594 C 267.066406 65.480469 259.28125 68.472656 255.589844 70.871094 C 251.894531 73.269531 247.902344 73.566406 241.511719 73.367188 C 235.117188 73.164062 230.035156 76.960938 227.636719 77.757812 C 227.082031 77.941406 226.449219 78.191406 225.78125 78.453125 C 225.324219 77.570312 224.421875 77.1875 222.644531 77.410156 C 221.699219 77.5625 220.765625 77.53125 219.832031 77.324219 C 218.902344 77.117188 218.039062 76.746094 217.25 76.210938 C 216.585938 75.804688 215.894531 75.75 215.175781 76.039062 L 215.160156 76.019531 L 215.128906 75.976562 L 215.113281 75.960938 C 215.097656 75.941406 215.097656 75.9375 215.097656 75.9375 C 214.71875 75.402344 214.480469 75.039062 214.480469 75.039062 C 214.480469 75.039062 214.742188 68.945312 214.894531 66.078125 C 215.457031 64.808594 215.917969 63.503906 216.277344 62.164062 C 216.640625 62.492188 217.0625 62.699219 217.542969 62.792969 C 218.023438 62.886719 218.492188 62.847656 218.949219 62.683594 C 221.046875 61.886719 222.042969 58.390625 222.242188 56.195312 C 222.386719 54.597656 221.363281 53.152344 219.6875 53.226562 C 221.238281 46.476562 221.191406 41.9375 220.441406 37.925781 C 220.011719 35.761719 219.179688 33.761719 217.953125 31.929688 C 216.722656 30.097656 215.191406 28.570312 213.355469 27.347656 C 209.964844 25.246094 202.179688 26.050781 202.179688 26.050781 C 199.480469 26.050781 194.386719 28.246094 192.292969 29.941406 C 190.210938 31.816406 188.5625 34.011719 187.34375 36.53125 C 186.074219 38.871094 185.363281 41.367188 185.207031 44.019531 C 185.042969 45.878906 185.140625 47.726562 185.5 49.558594 C 185.089844 49.503906 184.703125 49.574219 184.335938 49.765625 C 183.972656 49.957031 183.695312 50.238281 183.507812 50.605469 C 182.210938 52.601562 183.109375 57.796875 184.707031 59.191406 C 185.773438 60.125 187.652344 59.8125 188.785156 59.496094 C 188.824219 64.195312 189.050781 72.25 188.785156 74.605469 C 188.726562 75.117188 188.691406 75.464844 188.671875 75.6875 C 188.183594 75.785156 186.109375 76.203125 183.691406 76.660156 C 183.464844 76.171875 183.195312 75.707031 182.890625 75.265625 C 181.308594 76.074219 179.636719 76.371094 177.871094 76.164062 C 175.101562 75.789062 175.324219 76.234375 174.925781 77.960938 C 172.230469 77.960938 168.132812 75.664062 164.441406 75.765625 C 160.75 75.871094 155.160156 77.160156 151.664062 77.960938 C 148.164062 78.765625 143.429688 78.40625 138.1875 77.511719 C 132.941406 76.617188 126.882812 77.359375 124.1875 76.238281 C 121.496094 75.113281 113.230469 69.078125 106.941406 67.378906 C 100.652344 65.683594 95.859375 65.582031 90.269531 63.785156 C 84.679688 61.988281 79.585938 60.6875 77.789062 58.09375 C 75.992188 55.503906 74.902344 52.800781 74.902344 50.207031 C 74.902344 47.613281 73.296875 44.117188 73.105469 42.519531 C 72.910156 40.207031 72.910156 37.890625 73.105469 35.574219 C 73.273438 33.707031 71.851562 33.632812 70.433594 34.457031 C 69.011719 35.28125 68.636719 38.648438 68.863281 41.195312 C 69.09375 43.738281 68.335938 45.386719 66.019531 45.460938 C 63.699219 45.539062 58.976562 42.617188 55.6875 39.472656 C 52.394531 36.328125 50.296875 34.457031 48.5 33.480469 C 46.699219 32.503906 43.929688 33.480469 45.355469 35.878906 C 46.777344 38.277344 51.71875 41.566406 53.8125 43.507812 C 55.910156 45.449219 56.207031 47.105469 54.710938 47.105469 C 53.210938 47.105469 49.917969 44.113281 47.296875 42.539062 C 44.675781 40.964844 43.257812 40.214844 41.835938 39.46875 C 40.414062 38.726562 38.242188 39.316406 38.839844 41.414062 C 39.4375 43.511719 44.003906 45.90625 46.175781 47.027344 C 48.347656 48.152344 50.296875 48.824219 50.515625 49.5 C 50.738281 50.171875 47.527344 50.027344 44.378906 48.902344 C 41.230469 47.777344 39.835938 47.328125 38.734375 47.402344 C 37.636719 47.480469 37.042969 48.902344 40.414062 50.621094 C 43.785156 52.34375 47.75 53.167969 49.46875 53.996094 C 51.191406 54.820312 52.46875 56.167969 49.996094 56.167969 C 47.527344 56.167969 44.683594 55.117188 42.957031 55.1875 C 41.230469 55.261719 39.511719 57.511719 46.847656 58.859375 C 54.183594 60.207031 56.5 62.382812 60.019531 63.433594 C 63.539062 64.480469 68.03125 66.128906 71.628906 68.824219 C 75.222656 71.515625 85.929688 78.703125 92.367188 81.554688 C 98.808594 84.402344 107.042969 88.4375 109.140625 89.785156 C 111.234375 91.132812 118.273438 91.285156 121.714844 91.886719 C 125.15625 92.488281 131.746094 93.378906 138.039062 95.03125 C 144.332031 96.683594 151.964844 95.925781 154.957031 97.273438 C 157.949219 98.621094 159.300781 103.117188 160.347656 106.558594 C 160.515625 107.097656 160.6875 107.714844 160.855469 108.378906 C 160.859375 109.542969 160.722656 110.691406 160.449219 111.820312 C 163.207031 111.152344 166.003906 110.804688 168.84375 110.78125 C 169.730469 110.78125 170.597656 110.820312 171.417969 110.902344 C 175.558594 111.289062 181.949219 111.546875 187.695312 111.546875 C 192.117188 111.605469 196.523438 111.394531 200.917969 110.910156 C 204.726562 110.390625 208.554688 110.125 212.402344 110.113281 C 216.015625 110.105469 219.613281 110.375 223.1875 110.917969 C 225.800781 111.324219 230.183594 111.886719 234.890625 112.386719 C 235.425781 110.824219 235.972656 109.242188 236.5625 107.457031 C 238.363281 102.066406 239.109375 97.273438 245.25 93.832031 C 251.390625 90.386719 261.871094 86.640625 268.609375 82.902344 C 275.347656 79.160156 281.488281 76.761719 285.832031 76.011719 C 290.175781 75.261719 296.761719 70.917969 301.402344 66.578125 C 306.042969 62.242188 318.777344 52.699219 324.765625 47.707031 C 330.753906 42.714844 332.402344 39.546875 337.34375 36.402344 C 341.386719 33.867188 345.152344 30.972656 348.648438 27.722656 C 350.96875 25.472656 353.066406 23.824219 354.117188 21.582031 C 355.164062 19.339844 353.746094 18.882812 352.324219 19.554688 Z M 352.324219 19.558594 " fill-opacity="1" fill-rule="nonzero"/><path fill="#ffcf1b" d="M 84.15625 129.871094 C 80.601562 127.632812 76.023438 128.089844 72.03125 127.585938 C 70.449219 127.421875 68.953125 126.96875 67.542969 126.234375 C 66.757812 125.800781 66.847656 126.007812 66.835938 125.058594 C 66.824219 124.304688 66.835938 123.550781 66.839844 122.792969 C 66.777344 121.886719 66.777344 120.980469 66.84375 120.070312 C 67.082031 119.296875 67.421875 118.574219 67.867188 117.894531 C 68.265625 117.066406 68.613281 116.214844 68.902344 115.339844 C 69.207031 114.421875 69.253906 112.503906 69.808594 111.828125 C 70.410156 111.09375 70.988281 111.144531 71.4375 110.074219 C 71.773438 109.261719 71.921875 108.375 72.257812 107.5625 C 72.964844 105.863281 74.367188 104.0625 74.199219 102.132812 C 74.183594 101.589844 73.980469 101.128906 73.597656 100.746094 C 73.390625 100.5625 72.726562 100.433594 72.605469 100.269531 C 72.183594 99.710938 72.5625 97.679688 72.519531 96.777344 C 72.449219 94.507812 71.9375 92.339844 70.984375 90.277344 C 70.558594 89.371094 70.035156 88.527344 69.417969 87.738281 C 68.800781 86.949219 68.105469 86.242188 67.328125 85.613281 C 66.550781 84.984375 65.710938 84.449219 64.8125 84.011719 C 63.914062 83.570312 62.976562 83.238281 62.003906 83.011719 C 57.234375 81.820312 52.320312 82.6875 48.875 86.34375 C 45.445312 89.980469 43.507812 95.128906 44.523438 100.109375 C 41.109375 99.960938 42.597656 104.820312 43.519531 106.414062 C 40.308594 107.523438 37.355469 108.898438 35.175781 111.59375 C 34.003906 113.042969 33.207031 115.246094 31.332031 115.941406 C 29.847656 116.503906 28.671875 115.820312 27.402344 115.136719 C 25.984375 114.375 26.1875 115.359375 27.117188 116.207031 C 29.984375 118.804688 32.855469 117.480469 35.757812 115.851562 C 34.046875 119.269531 33.917969 124.660156 29.164062 125.355469 C 28.757812 125.417969 27.851562 125.203125 27.964844 125.929688 C 28.09375 126.742188 30.226562 126.984375 30.855469 127.007812 C 31.902344 126.988281 32.882812 126.722656 33.796875 126.214844 C 34.710938 125.707031 35.457031 125.015625 36.027344 124.136719 C 35.988281 125.398438 36.121094 127.027344 35.621094 128.199219 C 35.613281 128.199219 34.941406 129.273438 34.925781 129.273438 C 35.109375 129.882812 35.824219 129.683594 36.300781 129.542969 C 38.324219 128.957031 38.867188 126.921875 39.492188 125.171875 C 39.664062 125.765625 40.386719 127.605469 40.09375 128.179688 C 39.929688 128.503906 38.847656 128.960938 38.515625 129.132812 C 36.308594 130.179688 34.292969 131.511719 32.464844 133.128906 C 27.964844 137.351562 27.105469 142.820312 26.554688 148.691406 C 26.269531 151.691406 26.132812 154.714844 25.71875 157.695312 C 25.652344 158.171875 25.582031 158.640625 25.5 159.109375 C 28.890625 160.34375 32.390625 160.941406 36 160.902344 C 39.617188 160.902344 46.375 160.292969 51 156.207031 C 57.625 150.363281 68.660156 149.683594 77.539062 149.136719 C 79.828125 148.996094 82.023438 148.863281 83.898438 148.652344 C 84.816406 146.191406 85.074219 143.480469 86.152344 141.054688 C 87.96875 136.921875 88.511719 132.621094 84.15625 129.871094 Z M 111.710938 182.375 C 111.59375 181.246094 110.699219 180.449219 110 179.636719 C 108.984375 178.449219 107.949219 177.285156 106.855469 176.167969 C 104.355469 173.640625 101.808594 171.15625 99.300781 168.644531 C 96.246094 165.589844 93.125 162.757812 90.324219 159.453125 C 89.957031 159.027344 89.609375 158.585938 89.261719 158.144531 C 88.039062 158.296875 86.792969 158.414062 85.523438 158.480469 C 83.308594 158.601562 80.867188 158.605469 78.28125 158.613281 C 71.902344 158.625 63.960938 158.644531 60.246094 160.800781 C 58.90625 161.574219 57.332031 162.597656 55.652344 163.683594 C 49.863281 167.4375 42.65625 172.113281 36.574219 172.324219 C 36.25 172.335938 35.90625 172.347656 35.527344 172.347656 C 31.523438 172.324219 27.675781 171.53125 23.988281 169.972656 C 23.617188 174.699219 23.832031 179.398438 24.632812 184.074219 C 25.15625 186.984375 26.28125 190.351562 29.445312 191.292969 C 32.503906 192.203125 34.605469 189.027344 37.203125 188.027344 C 37.40625 189.207031 37.632812 190.386719 37.8125 191.570312 C 38.234375 194.414062 37.65625 196.386719 36.394531 198.957031 C 34.171875 203.472656 31.828125 208.050781 30.300781 212.855469 C 28.699219 217.890625 28.574219 223.207031 28.371094 228.457031 C 28.183594 233.449219 29.074219 237.972656 30.238281 242.796875 C 31.644531 248.605469 33.0625 254.480469 35.316406 260.023438 C 36.296875 262.421875 37.300781 264.816406 38.082031 267.285156 C 38.492188 268.5625 38.789062 269.863281 38.96875 271.1875 C 39.039062 271.777344 39.101562 272.371094 39.199219 272.953125 C 39.316406 273.304688 39.335938 273.664062 39.265625 274.027344 C 39.191406 274.390625 39.035156 274.710938 38.789062 274.992188 C 36.042969 279.699219 40.21875 285.785156 42.910156 289.496094 C 43.460938 290.25 44.914062 291.683594 45.0625 292.59375 C 45.136719 293.03125 44.796875 293.644531 44.8125 294.121094 C 44.863281 294.632812 44.875 295.148438 44.851562 295.664062 C 44.726562 297.128906 44.671875 298.59375 44.621094 300.070312 C 44.425781 305.601562 44.457031 311.9375 47.261719 316.882812 C 48.65625 319.347656 51.492188 322.128906 54.59375 321.628906 C 57.585938 321.152344 58.960938 317.5625 59.445312 314.957031 C 60.179688 319.378906 61.058594 323.789062 61.496094 328.242188 C 61.730469 330.667969 61.75 333.097656 61.5625 335.527344 C 61.472656 336.742188 61.347656 337.953125 61.136719 339.15625 C 60.894531 340.589844 60.6875 340.117188 59.449219 340.710938 C 57.191406 341.785156 58.230469 343.933594 58.359375 345.910156 C 58.445312 347.609375 58.039062 349.183594 57.136719 350.628906 C 55.421875 353.914062 49.929688 357.253906 54.390625 361.050781 C 56.578125 362.90625 60.542969 363.304688 63.253906 363.722656 C 65.050781 364 67.832031 364.507812 69.113281 362.824219 C 70.265625 361.304688 70.167969 359.003906 70.152344 357.203125 C 70.132812 354.144531 69.871094 350.945312 70.335938 347.925781 C 70.554688 347.03125 70.644531 346.125 70.601562 345.207031 C 70.5 344.355469 70.125 343.582031 69.992188 342.761719 C 69.625 340.160156 69.738281 337.578125 70.328125 335.015625 C 71.945312 326.753906 74.515625 318.714844 76.089844 310.457031 C 76.933594 305.777344 77.078125 301.074219 76.515625 296.351562 C 75.953125 290.96875 74.636719 285.726562 73.96875 280.371094 C 73.292969 275.3125 73.691406 270.339844 75.171875 265.453125 C 76.847656 260.234375 79.394531 255.339844 81.101562 250.125 C 83.9375 241.480469 86.8125 232.058594 85.996094 222.875 C 85.503906 217.351562 83.949219 212.203125 82.285156 206.945312 C 81.582031 204.726562 80.394531 202.601562 79.796875 200.398438 C 79.011719 197.714844 78.589844 194.976562 78.53125 192.179688 C 78.542969 189.136719 79.042969 186.105469 79.226562 183.066406 C 79.300781 181.800781 79.121094 180.539062 79.167969 179.292969 C 79.21875 177.886719 79.625 176.46875 79.695312 175.042969 C 79.886719 172.359375 80.308594 169.714844 80.96875 167.105469 C 86 169.640625 90.84375 172.496094 95.5 175.671875 C 96.054688 175.953125 96.558594 176.3125 97.011719 176.738281 C 97.230469 177.046875 97.195312 177.789062 97.285156 178.152344 C 97.601562 179.355469 98.238281 180.355469 99.195312 181.148438 C 101.09375 182.929688 103.402344 183.785156 104.347656 186.300781 C 103.492188 185.757812 103.570312 186.082031 103.191406 185.171875 C 103.121094 184.867188 103.023438 184.574219 102.898438 184.289062 C 102.335938 183.425781 101.414062 183.339844 100.949219 184.265625 C 99.808594 186.535156 103.007812 190.03125 105.042969 190.496094 C 106.363281 190.792969 110.003906 191.007812 110.867188 189.914062 C 111.5625 189.027344 111.355469 187.496094 111.40625 186.46875 C 111.472656 185.125 111.855469 183.730469 111.710938 182.378906 Z M 56.261719 259.222656 C 56.339844 256.875 56.996094 254.5625 57.265625 252.234375 C 57.441406 250.769531 57.570312 249.292969 57.640625 247.816406 C 58.648438 254 57.578125 260.394531 57.113281 266.570312 C 56.734375 264.128906 56.164062 261.714844 56.261719 259.226562 Z M 59.152344 296.511719 C 58.847656 299.070312 58.523438 301.632812 58.445312 304.210938 C 57.933594 302.742188 57.226562 301.363281 56.628906 299.925781 C 55.867188 298.074219 56.140625 296.175781 56.394531 294.242188 C 56.738281 292.390625 56.902344 290.523438 56.890625 288.640625 C 56.734375 286.351562 55.464844 285.105469 53.65625 283.863281 C 55.734375 282.734375 56.757812 279.410156 57.128906 277.21875 C 57.644531 280.328125 58.738281 283.3125 59.210938 286.40625 C 59.65625 289.78125 59.636719 293.148438 59.152344 296.515625 Z M 59.152344 296.511719 " fill-opacity="1" fill-rule="nonzero"/><path fill="#04246e" d="M 339.554688 126.375 C 338.609375 126.546875 337.664062 126.53125 336.726562 126.335938 C 335.785156 126.136719 334.917969 125.769531 334.125 125.230469 C 334.457031 126.015625 334.777344 126.832031 335.171875 127.59375 C 333.875 127.726562 332.535156 127.824219 331.136719 127.898438 L 331.023438 127.785156 C 331.027344 127.824219 331.03125 127.867188 331.039062 127.90625 C 329.316406 127.988281 327.5 128.03125 325.558594 128.03125 C 322.824219 128.03125 320.191406 127.945312 317.644531 127.871094 L 317.613281 127.871094 C 315.222656 127.796875 312.964844 127.722656 310.789062 127.722656 C 307.355469 127.640625 303.953125 127.949219 300.589844 128.660156 C 300.691406 128.554688 300.78125 128.441406 300.859375 128.320312 C 301.59375 127.21875 300.769531 122.769531 300.722656 121.238281 C 300.050781 121.476562 296.167969 121.824219 295.929688 120.511719 C 295.75 119.53125 296.859375 119.894531 297.550781 119.628906 C 296.285156 119.40625 292.910156 117.976562 292.65625 116.453125 C 292.371094 114.78125 294.554688 116.566406 295.015625 116.734375 C 296.535156 117.289062 298.933594 117.378906 298.230469 115.410156 C 298.214844 115.371094 296.945312 113.859375 296.925781 113.859375 C 296.496094 112.964844 296.164062 112.03125 295.933594 111.066406 C 295.53125 110.019531 295.21875 108.945312 294.992188 107.847656 C 294.746094 105.96875 295.675781 106.09375 295.945312 104.871094 C 296.269531 103.421875 295.335938 100.992188 295.511719 99.359375 C 295.722656 97.097656 296.351562 94.957031 297.398438 92.941406 C 301.394531 85.679688 311.988281 84.039062 318.371094 88.882812 C 319.234375 89.5 320.019531 90.207031 320.722656 91 C 321.425781 91.796875 322.03125 92.664062 322.535156 93.597656 C 323.042969 94.53125 323.4375 95.511719 323.71875 96.535156 C 324 97.558594 324.164062 98.601562 324.207031 99.664062 C 324.253906 101.378906 323.46875 104.222656 324.003906 105.523438 C 324.320312 106.296875 325.082031 106.472656 325.167969 107.585938 C 325.144531 108.554688 324.886719 109.457031 324.40625 110.296875 C 328.046875 110.671875 330.230469 112.628906 333.292969 114.203125 C 335.265625 115.214844 337 114.90625 338.574219 113.21875 C 338.785156 112.996094 339.984375 110.683594 340.558594 112.039062 C 340.960938 112.976562 339.449219 114.835938 338.921875 115.386719 C 336.765625 117.648438 334.066406 117.238281 331.273438 116.839844 C 332.933594 118.398438 334.070312 120.464844 335.75 121.96875 C 336.710938 122.828125 337.820312 123.390625 339.085938 123.644531 C 339.6875 123.765625 342.125 123.222656 342.394531 123.378906 C 344.078125 124.347656 340.714844 126.097656 339.554688 126.375 Z M 339.554688 126.375 " fill-opacity="1" fill-rule="nonzero"/><path fill="#04246e" d="M 358.324219 209.585938 C 356.953125 212.984375 359.988281 216.390625 359.316406 220.054688 C 358.765625 223.0625 357.710938 224.328125 354.765625 225.074219 C 352.605469 225.617188 350.867188 225.902344 348.875 226.914062 C 345.429688 228.65625 344.699219 226.925781 344.441406 223.59375 C 344.300781 221.734375 344.507812 219.820312 344.394531 217.921875 C 344.253906 215.597656 344.433594 213.210938 346.011719 211.332031 C 347.121094 210.007812 348.1875 209.203125 349.097656 207.59375 C 350.460938 205.175781 351.757812 202.597656 352.90625 200.070312 C 355.296875 194.832031 355.5625 189.613281 356.875 184.167969 C 357.238281 182.652344 359.15625 179.265625 358.523438 177.640625 C 357.96875 176.207031 354.300781 174.628906 353.140625 173.496094 C 348.710938 169.0625 344.753906 164.238281 341.273438 159.023438 C 341.453125 167.789062 341.144531 176.628906 338.425781 185.042969 C 337.035156 189.34375 334.445312 193.34375 335.9375 197.890625 C 336.945312 200.972656 337.433594 204.042969 338.246094 207.148438 C 339.121094 210.5 341.128906 213.714844 341.375 217.191406 C 341.625 220.757812 342.128906 224.410156 341.449219 227.941406 C 340.953125 229.855469 340.765625 231.804688 340.890625 233.78125 C 341.039062 235.015625 341.667969 236.140625 341.734375 237.367188 C 341.800781 238.59375 341.277344 239.671875 341.390625 240.890625 C 341.546875 241.761719 341.75 242.617188 342 243.464844 C 342.449219 245.589844 341.996094 245.984375 341.695312 247.824219 C 341.414062 249.558594 341.824219 251.734375 341.824219 253.535156 C 341.824219 256.800781 341.714844 260.058594 341.527344 263.324219 C 341.324219 266.835938 340.679688 270.21875 340.308594 273.695312 C 339.910156 277.480469 340.765625 281.292969 340.398438 285.105469 C 340.082031 288.386719 337.667969 290.492188 337.171875 293.65625 C 336.679688 296.824219 335.769531 298.347656 332.441406 299.550781 C 328.132812 301.117188 324.367188 299.324219 322.589844 295.222656 C 321.464844 292.621094 319.828125 289.996094 318.9375 287.320312 C 318.183594 285.050781 318.429688 282.539062 318.121094 280.203125 C 317.859375 278.273438 317.28125 276.40625 316.960938 274.484375 C 316.4375 271.703125 316.664062 268.988281 317.636719 266.335938 C 319.601562 260.574219 316.671875 255.453125 315.210938 249.921875 C 315.007812 253.273438 313.878906 257.128906 314.226562 260.480469 C 314.648438 264.550781 316.332031 268.128906 316.390625 272.339844 C 316.449219 276.058594 317.230469 279.65625 317.253906 283.363281 C 317.28125 287.164062 316.140625 290.605469 315.632812 294.316406 C 314.699219 301.175781 318.441406 307.457031 317.921875 314.304688 C 317.539062 319.324219 316.164062 324.378906 315.503906 329.402344 C 314.816406 334.589844 314.171875 340.207031 315.75 345.292969 C 316.410156 347.148438 316.953125 349.042969 317.382812 350.96875 C 317.804688 353.347656 316.542969 354.636719 315.898438 356.746094 C 315.273438 358.808594 316.371094 361.402344 315.042969 363.242188 C 314.015625 364.675781 312.046875 365.054688 310.40625 365.28125 C 307.191406 365.734375 294.839844 365.703125 299.832031 359.171875 C 301.914062 356.445312 304.042969 356.15625 304.273438 352.414062 C 304.378906 350.765625 305.375 349.230469 305.507812 347.742188 C 305.597656 346.722656 305.082031 345.683594 305.125 344.625 C 305.191406 343.046875 305.789062 341.589844 305.699219 339.980469 C 305.550781 338.59375 305.273438 337.234375 304.867188 335.898438 C 304.273438 333.566406 303.582031 331.261719 302.90625 328.953125 C 299.949219 318.816406 296.402344 308.996094 298.570312 298.296875 C 299.101562 295.652344 300.066406 293.496094 300 290.796875 C 299.808594 287.433594 299.394531 284.097656 298.753906 280.792969 C 298.171875 277.101562 297.902344 273.820312 296.339844 270.378906 C 294.839844 267.285156 293.5 264.125 292.324219 260.894531 C 288.714844 250.046875 285.964844 237.289062 286.492188 225.816406 C 286.597656 223.515625 285.714844 221.910156 285.519531 219.738281 C 285.34375 217.683594 286.46875 215.003906 286.601562 212.832031 C 286.808594 209.421875 287.941406 206.347656 289.113281 203.179688 C 289.894531 201.074219 290.285156 198.796875 291.328125 196.773438 C 292.988281 193.550781 294.214844 190.953125 293.828125 187.199219 C 293.527344 184.082031 292.859375 181.046875 291.824219 178.09375 C 290.707031 174.996094 289.175781 172.195312 289.207031 168.785156 C 289.242188 165.421875 289.265625 162.964844 287.492188 159.894531 C 286.542969 163.773438 284.199219 167.09375 283.292969 171.046875 C 282.378906 174.933594 280.898438 178.589844 278.847656 182.015625 C 274.902344 189.007812 268.535156 194.59375 263.527344 200.871094 C 262.96875 201.574219 261.859375 202.507812 261.519531 203.367188 C 261.214844 204.136719 261.375 205.210938 261.054688 206.054688 C 260.160156 208.417969 258.539062 209.003906 256.816406 210.488281 C 255.964844 211.21875 255.734375 211.066406 255.457031 212.464844 C 255.300781 213.261719 255.609375 213.535156 255.183594 214.5625 C 254.8125 215.40625 254.257812 216.101562 253.515625 216.652344 C 252.8125 217.191406 251.984375 217.503906 251.261719 218 C 251.167969 218.058594 251.085938 218.121094 251 218.1875 C 250.714844 218.433594 250.40625 218.636719 250.070312 218.800781 C 249.640625 218.878906 249.253906 218.785156 248.914062 218.515625 C 247.636719 217.808594 245.558594 215.199219 244.9375 213.996094 C 243.890625 211.953125 245.003906 207.796875 246.46875 206.058594 C 247.96875 204.277344 250.871094 203.453125 252.929688 202.371094 C 256.484375 200.507812 257.703125 198.722656 258.824219 194.859375 C 259.882812 190.804688 261.214844 186.84375 262.820312 182.972656 C 264.511719 179.167969 266.980469 176.167969 269.242188 172.730469 C 271.4375 169.382812 272.882812 165.464844 274.230469 161.710938 C 276.394531 155.660156 274.898438 148.914062 278.226562 143.261719 C 278.484375 142.824219 278.761719 142.402344 279.046875 142 C 281.890625 142.6875 284.777344 143.015625 287.707031 142.992188 C 294.148438 142.871094 300.421875 141.785156 306.53125 139.734375 C 308.820312 138.957031 311.171875 138.582031 313.589844 138.613281 C 315.777344 138.613281 318.101562 138.855469 320.792969 139.132812 L 320.933594 139.144531 C 323.53125 139.40625 326.464844 139.699219 329.914062 139.847656 C 330.488281 139.871094 331.078125 139.886719 331.660156 139.886719 C 335.960938 139.84375 340.183594 139.253906 344.328125 138.109375 L 344.332031 138.109375 C 347.890625 141.207031 349.742188 144.738281 351.820312 149.402344 C 353.652344 153.511719 357.847656 156.238281 360.28125 160.019531 C 362.0625 162.789062 363.667969 165.671875 365.40625 168.472656 C 366.859375 170.832031 368.628906 173.144531 369.539062 175.789062 C 371.691406 181.894531 366.894531 191.042969 364.351562 196.457031 C 362.320312 200.792969 360.125 205.132812 358.324219 209.585938 Z M 358.324219 209.585938 " fill-opacity="1" fill-rule="nonzero"/><path fill="#436db6" d="M 146.433594 143.285156 L 146.445312 143.328125 L 146.636719 143.117188 C 146.570312 143.175781 146.503906 143.234375 146.433594 143.285156 Z M 146.433594 143.285156 " fill-opacity="1" fill-rule="nonzero"/><path fill="#436db6" d="M 146.667969 143.09375 C 146.800781 142.972656 146.921875 142.84375 147.035156 142.703125 Z M 146.667969 143.09375 " fill-opacity="1" fill-rule="nonzero"/><g clip-path="url(#b7fc798cdd)"><path fill="#436db6" d="M 356.730469 131.53125 C 355.621094 131.867188 354.332031 132.332031 352.84375 132.867188 C 346.984375 134.972656 338.96875 137.863281 330.019531 137.476562 C 326.578125 137.328125 323.636719 137.03125 321.039062 136.769531 C 315.167969 136.167969 310.925781 135.734375 305.769531 137.484375 C 299.910156 139.453125 293.890625 140.496094 287.710938 140.613281 C 282.671875 140.613281 277.4375 139.714844 273.179688 136.960938 C 269.699219 135.617188 266.617188 133.648438 263.929688 131.054688 L 263.566406 130.707031 C 258.730469 126.101562 243.535156 123.253906 232.371094 123.488281 C 225.410156 123.632812 220.03125 122.535156 215.292969 121.566406 C 212.378906 120.894531 209.429688 120.429688 206.445312 120.167969 C 201.1875 119.839844 194.734375 121.128906 190.027344 122.074219 C 187.964844 122.488281 186.191406 122.84375 184.84375 123.011719 C 181.824219 123.378906 176.425781 123.257812 172.082031 123.164062 C 169.820312 123.109375 167.863281 123.066406 166.539062 123.089844 C 162.660156 123.167969 152.554688 130.148438 151.488281 131.585938 C 151.167969 132 150.824219 132.390625 150.449219 132.753906 C 149.359375 133.875 148.238281 135.03125 148.503906 137.257812 C 148.644531 138.179688 148.601562 139.097656 148.375 140 C 148.152344 140.90625 147.761719 141.738281 147.207031 142.488281 L 147.054688 142.671875 C 147.050781 142.679688 147.042969 142.6875 147.03125 142.695312 L 146.660156 143.089844 C 146.652344 143.097656 146.640625 143.105469 146.632812 143.113281 C 146.566406 143.171875 146.5 143.226562 146.429688 143.28125 C 145.800781 143.730469 145.097656 143.941406 144.324219 143.910156 C 142.660156 143.910156 140.46875 143.121094 137.476562 142.046875 C 135.902344 141.484375 134.117188 140.839844 132.042969 140.179688 C 124.25 137.6875 115.902344 142.203125 114.96875 142.730469 C 113.59375 144.617188 109.832031 147.851562 106.132812 150.316406 C 102.335938 152.84375 93.992188 155.652344 85.386719 156.109375 C 83.238281 156.230469 80.824219 156.234375 78.273438 156.238281 C 71.261719 156.253906 63.316406 156.273438 59.042969 158.746094 C 57.65625 159.554688 56.054688 160.59375 54.359375 161.691406 C 48.808594 165.292969 41.90625 169.769531 36.460938 169.953125 C 36.140625 169.96875 35.828125 169.972656 35.519531 169.972656 C 31.484375 169.917969 27.632812 169.0625 23.953125 167.40625 C 23.242188 167.121094 22.625 166.878906 22.066406 166.691406 C 19.375 165.792969 14.910156 167.683594 12.613281 169.3125 C 9.941406 171.21875 4.191406 167.582031 3.945312 167.429688 L 3.320312 167.03125 L 3.957031 166.632812 C 4.523438 166.273438 5.113281 165.894531 5.710938 165.503906 C 10.898438 162.148438 17.355469 157.96875 23.6875 160.914062 C 30.527344 164.09375 44.753906 164.882812 52.574219 157.984375 C 58.589844 152.671875 69.179688 152.03125 77.6875 151.507812 C 80.777344 151.316406 83.691406 151.136719 86.003906 150.761719 C 94.1875 149.421875 105.15625 145.90625 109.34375 142.027344 C 112.3125 139.292969 115.125 138.410156 117.609375 137.632812 C 118.582031 137.355469 119.53125 137.015625 120.453125 136.605469 L 120.539062 136.558594 C 122.820312 135.253906 125.257812 134.402344 127.855469 134.003906 L 128.738281 133.878906 C 133.722656 133.152344 139.371094 132.332031 142.839844 133.722656 C 143.335938 133.941406 143.851562 134.089844 144.386719 134.167969 C 143.75 131.507812 143.460938 128.8125 143.519531 126.078125 C 143.652344 123.335938 145.667969 122.148438 147.792969 120.886719 C 149.03125 120.210938 150.183594 119.40625 151.25 118.480469 C 154.550781 115.433594 163.785156 112.550781 171.199219 113.257812 C 178.566406 113.957031 193.558594 114.292969 201.234375 113.257812 C 208.433594 112.21875 215.628906 112.21875 222.824219 113.261719 C 228.769531 114.183594 243.796875 115.898438 251.324219 115.898438 C 258.820312 115.898438 264.679688 119.59375 267.835938 126.292969 C 272.710938 130.589844 289.855469 134.800781 299.058594 131.574219 C 304.054688 129.824219 310.316406 130.019531 317.558594 130.242188 C 324.148438 130.445312 331.609375 130.679688 339.445312 129.425781 C 348.414062 127.996094 353.757812 126.699219 356.761719 125.242188 C 356.835938 125.207031 356.890625 125.179688 356.945312 125.152344 C 356.949219 125.152344 356.949219 125.148438 356.949219 125.148438 C 357.226562 124.953125 357.433594 124.699219 357.570312 124.390625 C 357.707031 124.082031 357.753906 123.761719 357.710938 123.425781 C 357.703125 122.933594 357.570312 122.480469 357.3125 122.058594 C 357.058594 121.640625 356.710938 121.3125 356.28125 121.078125 C 354.46875 120.285156 348.996094 119.582031 348.941406 119.574219 L 347.582031 119.398438 L 348.761719 118.699219 C 350.101562 117.886719 349.929688 114.828125 349.371094 112.453125 L 349.15625 111.558594 L 350.011719 111.90625 C 350.03125 111.917969 352.070312 112.757812 355.050781 114.167969 C 355.851562 114.578125 356.59375 115.078125 357.277344 115.664062 C 357.960938 116.253906 358.5625 116.914062 359.085938 117.644531 C 359.609375 118.378906 360.039062 119.164062 360.371094 120 C 360.707031 120.835938 360.9375 121.699219 361.0625 122.589844 C 361.074219 122.628906 361.082031 122.667969 361.085938 122.703125 L 361.09375 122.71875 L 361.105469 122.8125 L 361.121094 122.914062 C 361.320312 124.160156 361.925781 129.949219 356.730469 131.53125 Z M 356.730469 131.53125 " fill-opacity="1" fill-rule="nonzero"/></g></svg>