<svg xmlns="http://www.w3.org/2000/svg" xmlns:xlink="http://www.w3.org/1999/xlink" width="500" zoomAndPan="magnify" viewBox="0 0 375 374.999991" height="500" preserveAspectRatio="xMidYMid meet" version="1.0"><defs><clipPath id="4669b64b1c"><path d="M 182 3.28125 L 218 3.28125 L 218 39 L 182 39 Z M 182 3.28125 " clip-rule="nonzero"/></clipPath></defs><path fill="#ffcf1b" d="M 26.398438 358.015625 C 26.398438 358.015625 30.367188 363.53125 26.542969 367.132812 C 22.71875 370.734375 18.75 368.234375 12.425781 369.925781 C 6.175781 371.617188 0.734375 371.101562 0.957031 366.25 C 1.175781 361.398438 0 359.265625 6.03125 355.367188 C 12.058594 351.46875 9.851562 351.46875 12.5 348.308594 C 15.21875 345.21875 15.441406 346.910156 16.398438 345.292969 C 17.351562 343.601562 24.117188 329.265625 26.175781 325.292969 C 28.160156 321.324219 38.53125 300.148438 45.957031 291.839844 C 53.382812 283.53125 62.5 272.867188 63.96875 269.191406 C 65.441406 265.441406 64.191406 265.734375 64.042969 265.515625 C 63.824219 265.292969 61.46875 260.957031 61.839844 260.441406 C 62.207031 259.925781 61.542969 260.734375 62.425781 259.558594 C 63.308594 258.382812 70.21875 254.265625 70.957031 251.691406 C 71.691406 249.117188 72.058594 247.648438 72.71875 246.25 C 73.457031 244.851562 81.984375 232.425781 87.351562 229.558594 C 92.71875 226.691406 93.382812 229.851562 93.382812 225.589844 C 93.382812 221.324219 93.457031 219.042969 95.515625 216.984375 C 97.648438 214.925781 102.425781 214.925781 102.941406 213.53125 C 103.382812 212.207031 103.308594 210.074219 104.339844 207.792969 C 105.367188 205.515625 107.941406 198.75 108.015625 197.207031 C 108.089844 195.589844 106.910156 191.765625 106.542969 190.589844 C 106.175781 189.339844 103.160156 184.707031 103.160156 184.707031 C 103.160156 184.707031 97.425781 197.5 95.589844 202.28125 C 93.75 207.058594 93.308594 208.53125 86.765625 211.324219 C 80.21875 214.042969 69.707031 216.617188 69.339844 216.46875 C 68.96875 216.398438 60.515625 218.234375 60.515625 218.234375 L 34.484375 214.851562 C 34.484375 214.851562 33.824219 211.03125 35.292969 210.441406 C 36.765625 209.851562 37.132812 210.367188 38.601562 208.675781 C 40.074219 206.984375 41.25 204.78125 42.792969 204.707031 C 44.339844 204.632812 44.558594 205.074219 46.101562 203.675781 C 47.574219 202.28125 47.941406 205.21875 50.074219 205.074219 C 52.207031 204.925781 50.957031 203.824219 53.601562 204.78125 C 56.25 205.734375 58.382812 208.234375 59.707031 208.53125 C 61.03125 208.898438 61.910156 210.367188 65.074219 208.089844 C 68.234375 205.808594 79.707031 198.308594 83.015625 194.707031 C 86.398438 191.101562 82.867188 183.160156 89.265625 175.660156 C 89.265625 175.660156 89.339844 166.398438 91.691406 158.160156 C 94.042969 149.925781 101.910156 147.132812 105 146.25 C 108.089844 145.367188 107.792969 144.191406 107.792969 144.191406 C 107.792969 144.191406 111.03125 143.824219 111.617188 141.398438 C 112.28125 139.042969 111.46875 135.292969 111.46875 135.292969 C 111.46875 135.292969 108.96875 135.515625 108.601562 132.207031 C 108.234375 128.898438 108.457031 125.589844 109.925781 125.515625 C 111.398438 125.441406 111.691406 124.410156 111.691406 124.410156 C 111.691406 124.410156 110.148438 119.632812 113.234375 114.851562 C 116.324219 110.074219 124.042969 108.675781 130.148438 110.292969 C 136.324219 111.910156 139.339844 119.339844 138.898438 123.675781 C 138.53125 128.015625 136.984375 130.441406 136.984375 130.441406 C 136.984375 130.441406 138.382812 130.660156 137.867188 132.207031 C 137.351562 133.75 136.984375 135.367188 136.910156 136.542969 C 136.765625 137.71875 133.96875 139.265625 133.898438 140.292969 C 133.898438 141.324219 133.675781 142.058594 133.675781 142.058594 C 133.675781 142.058594 144.339844 147.207031 149.707031 150.957031 C 155.074219 154.707031 157.648438 157.207031 159.484375 165.441406 C 161.398438 173.675781 165.957031 185.441406 165.957031 189.265625 C 165.957031 193.089844 168.089844 201.542969 168.160156 203.898438 C 168.234375 206.324219 168.382812 210.589844 168.382812 212.648438 C 168.382812 214.78125 170.292969 216.910156 170.734375 218.96875 C 171.101562 221.03125 172.574219 229.042969 169.410156 231.46875 C 166.324219 233.96875 157.058594 234.925781 157.132812 241.175781 C 157.207031 247.425781 160 245 158.382812 252.5 C 156.765625 260 156.984375 258.601562 156.984375 258.601562 C 156.984375 258.601562 159.265625 258.308594 160.589844 260 C 161.910156 261.691406 167.28125 266.175781 166.910156 268.457031 C 166.542969 270.734375 161.03125 276.691406 161.03125 276.691406 C 161.03125 276.691406 161.765625 279.117188 160.957031 281.984375 C 160.148438 284.851562 153.089844 288.308594 151.03125 288.234375 C 148.898438 288.160156 148.160156 286.03125 147.207031 286.03125 C 146.324219 285.957031 141.839844 293.234375 138.53125 294.191406 C 135.21875 295.074219 135.292969 291.839844 134.632812 294.410156 C 133.898438 296.984375 133.75 298.675781 129.632812 301.765625 C 125.515625 304.851562 119.851562 310.808594 115.589844 313.089844 C 111.25 315.367188 98.457031 320.21875 97.867188 320.589844 C 97.28125 320.957031 92.425781 320.957031 90.367188 313.75 C 88.382812 306.542969 90.441406 306.765625 91.910156 303.089844 C 93.382812 299.484375 98.601562 287.351562 99.117188 285.515625 C 99.632812 283.675781 100.515625 272.792969 100.515625 272.792969 C 100.515625 272.792969 90.515625 276.46875 88.160156 279.410156 C 85.808594 282.351562 85.882812 278.308594 83.824219 280.589844 C 81.765625 282.867188 65.882812 295.148438 62.648438 297.648438 C 59.339844 300.148438 54.339844 314.707031 50.734375 317.867188 C 47.132812 320.957031 39.925781 328.96875 36.839844 333.015625 C 33.75 337.058594 27.867188 343.824219 27.867188 347.867188 C 27.941406 351.910156 29.484375 353.824219 26.398438 358.015625 Z M 26.398438 358.015625 " fill-opacity="1" fill-rule="evenodd"/><path fill="#ffcf1b" d="M 65.957031 229.707031 C 65.957031 230.421875 65.921875 231.132812 65.851562 231.847656 C 65.78125 232.558594 65.675781 233.265625 65.535156 233.964844 C 65.398438 234.667969 65.222656 235.359375 65.015625 236.046875 C 64.808594 236.730469 64.566406 237.402344 64.292969 238.0625 C 64.019531 238.722656 63.714844 239.371094 63.378906 240 C 63.039062 240.632812 62.671875 241.242188 62.277344 241.839844 C 61.878906 242.433594 61.453125 243.007812 61 243.558594 C 60.546875 244.113281 60.066406 244.640625 59.558594 245.148438 C 59.054688 245.652344 58.523438 246.132812 57.972656 246.585938 C 57.417969 247.039062 56.84375 247.464844 56.25 247.863281 C 55.65625 248.261719 55.042969 248.628906 54.414062 248.964844 C 53.78125 249.300781 53.136719 249.609375 52.476562 249.882812 C 51.8125 250.15625 51.140625 250.394531 50.457031 250.605469 C 49.773438 250.8125 49.078125 250.984375 48.378906 251.125 C 47.675781 251.265625 46.96875 251.367188 46.257812 251.4375 C 45.546875 251.507812 44.832031 251.542969 44.117188 251.542969 C 43.402344 251.542969 42.6875 251.507812 41.976562 251.4375 C 41.265625 251.367188 40.558594 251.265625 39.855469 251.125 C 39.15625 250.984375 38.460938 250.8125 37.777344 250.605469 C 37.09375 250.394531 36.421875 250.15625 35.761719 249.882812 C 35.101562 249.609375 34.453125 249.300781 33.824219 248.964844 C 33.191406 248.628906 32.578125 248.261719 31.984375 247.863281 C 31.390625 247.464844 30.816406 247.039062 30.261719 246.585938 C 29.710938 246.132812 29.179688 245.652344 28.675781 245.148438 C 28.171875 244.640625 27.691406 244.113281 27.238281 243.558594 C 26.78125 243.007812 26.355469 242.433594 25.960938 241.839844 C 25.5625 241.242188 25.195312 240.632812 24.859375 240 C 24.519531 239.371094 24.214844 238.722656 23.941406 238.0625 C 23.667969 237.402344 23.425781 236.730469 23.21875 236.046875 C 23.011719 235.359375 22.839844 234.667969 22.699219 233.964844 C 22.558594 233.265625 22.453125 232.558594 22.382812 231.847656 C 22.316406 231.132812 22.28125 230.421875 22.28125 229.707031 C 22.28125 228.992188 22.316406 228.277344 22.382812 227.566406 C 22.453125 226.855469 22.558594 226.148438 22.699219 225.445312 C 22.839844 224.742188 23.011719 224.050781 23.21875 223.367188 C 23.425781 222.683594 23.667969 222.007812 23.941406 221.347656 C 24.214844 220.6875 24.519531 220.042969 24.859375 219.410156 C 25.195312 218.78125 25.5625 218.167969 25.960938 217.574219 C 26.355469 216.976562 26.78125 216.40625 27.238281 215.851562 C 27.691406 215.300781 28.171875 214.769531 28.675781 214.265625 C 29.179688 213.757812 29.710938 213.277344 30.261719 212.824219 C 30.816406 212.371094 31.390625 211.945312 31.984375 211.546875 C 32.578125 211.152344 33.191406 210.785156 33.824219 210.445312 C 34.453125 210.109375 35.101562 209.804688 35.761719 209.53125 C 36.421875 209.257812 37.09375 209.015625 37.777344 208.808594 C 38.460938 208.601562 39.15625 208.425781 39.855469 208.289062 C 40.558594 208.148438 41.265625 208.042969 41.976562 207.972656 C 42.6875 207.902344 43.402344 207.867188 44.117188 207.867188 C 44.832031 207.867188 45.546875 207.902344 46.257812 207.972656 C 46.96875 208.042969 47.675781 208.148438 48.378906 208.289062 C 49.078125 208.425781 49.773438 208.601562 50.457031 208.808594 C 51.140625 209.015625 51.8125 209.257812 52.476562 209.53125 C 53.136719 209.804688 53.78125 210.109375 54.414062 210.445312 C 55.042969 210.785156 55.65625 211.152344 56.25 211.546875 C 56.84375 211.945312 57.417969 212.371094 57.972656 212.824219 C 58.523438 213.277344 59.054688 213.757812 59.558594 214.265625 C 60.066406 214.769531 60.546875 215.300781 61 215.851562 C 61.453125 216.40625 61.878906 216.976562 62.277344 217.574219 C 62.671875 218.167969 63.039062 218.78125 63.378906 219.410156 C 63.714844 220.042969 64.019531 220.6875 64.292969 221.347656 C 64.566406 222.007812 64.808594 222.683594 65.015625 223.367188 C 65.222656 224.050781 65.398438 224.742188 65.535156 225.445312 C 65.675781 226.148438 65.78125 226.855469 65.851562 227.566406 C 65.921875 228.277344 65.957031 228.992188 65.957031 229.707031 Z M 65.957031 229.707031 " fill-opacity="1" fill-rule="nonzero"/><path fill="#e81d20" d="M 184.925781 354.78125 C 184.925781 354.78125 182.058594 359.78125 183.160156 363.53125 C 184.265625 367.28125 192.574219 365.957031 198.382812 363.015625 C 204.265625 360.148438 201.03125 357.425781 203.015625 355.808594 C 205 354.117188 211.101562 353.234375 208.898438 347.132812 C 206.691406 341.03125 205.882812 336.691406 203.96875 333.96875 C 202.132812 331.25 200.515625 329.191406 200.734375 328.382812 C 200.957031 327.574219 204.707031 322.941406 205.660156 320.589844 C 206.691406 318.308594 204.78125 316.398438 204.78125 316.398438 C 204.78125 316.398438 204.632812 313.898438 206.46875 311.765625 C 208.308594 309.632812 208.160156 309.558594 212.648438 305.367188 C 217.132812 301.175781 220.292969 296.910156 224.117188 287.792969 C 227.941406 278.675781 229.707031 268.308594 230.367188 263.898438 C 231.03125 259.558594 231.46875 258.234375 231.46875 258.234375 C 231.46875 258.234375 233.457031 257.132812 233.457031 253.457031 C 233.53125 249.78125 233.53125 247.648438 233.53125 247.648438 C 233.53125 247.648438 234.265625 245.515625 235.808594 243.75 C 237.351562 241.984375 238.382812 240.441406 235.957031 239.117188 C 233.53125 237.792969 234.484375 233.824219 234.484375 232.425781 C 234.484375 231.03125 233.898438 199.339844 233.898438 197.574219 C 233.898438 195.808594 232.058594 192.941406 232.058594 192.941406 L 232.058594 185.882812 C 232.058594 185.882812 234.042969 184.042969 234.410156 182.574219 C 234.78125 181.101562 233.898438 179.339844 234.707031 178.53125 C 235.589844 177.792969 237.574219 175.515625 240.808594 168.308594 C 244.042969 161.101562 245.148438 162.058594 244.925781 156.398438 C 244.632812 150.734375 244.925781 149.925781 246.984375 147.941406 C 249.042969 145.882812 254.265625 139.191406 257.351562 141.984375 C 260.441406 144.78125 269.117188 150.660156 275.589844 152.71875 C 282.058594 154.78125 284.558594 157.207031 285.589844 158.601562 C 286.617188 159.925781 299.851562 164.707031 309.265625 166.03125 C 318.601562 167.28125 331.175781 167.792969 331.175781 167.792969 C 331.175781 167.792969 333.675781 170.148438 337.351562 171.101562 C 341.03125 172.058594 345.515625 172.207031 346.984375 175.292969 C 348.457031 178.382812 349.410156 182.648438 351.617188 181.839844 C 351.617188 181.839844 351.984375 181.691406 352.058594 181.46875 C 352.058594 181.46875 353.160156 181.765625 353.53125 181.03125 C 353.824219 180.292969 353.96875 175.148438 353.96875 175.148438 C 353.96875 175.148438 355.21875 175.882812 355.808594 175 C 356.398438 174.117188 353.015625 167.71875 350.21875 164.707031 C 347.425781 161.691406 346.839844 160.660156 343.675781 160.660156 C 340.515625 160.660156 337.867188 160.441406 331.691406 158.898438 C 325.441406 157.351562 315.734375 154.851562 309.78125 151.175781 C 303.75 147.574219 299.265625 145.660156 291.910156 144.265625 C 284.558594 142.867188 279.632812 137.5 274.558594 135.882812 C 274.558594 135.882812 269.117188 115.882812 247.574219 115.660156 C 247.574219 115.660156 245.148438 116.324219 243.089844 114.410156 C 240.957031 112.5 239.707031 112.207031 239.707031 111.398438 C 239.707031 110.589844 240.367188 107.28125 241.910156 106.765625 C 243.457031 106.25 244.042969 107.5 245.441406 104.707031 C 246.839844 101.839844 246.25 100.589844 245.21875 100.074219 C 245.21875 100.074219 245.734375 93.898438 242.574219 89.191406 C 239.410156 84.484375 233.234375 80.21875 227.058594 84.265625 C 227.058594 84.265625 223.96875 85.808594 222.867188 89.707031 C 221.765625 93.601562 219.558594 93.898438 219.042969 97.71875 C 218.53125 101.542969 218.382812 103.089844 219.191406 106.175781 C 220 109.265625 218.53125 110.589844 218.53125 110.589844 C 218.53125 110.589844 211.617188 109.410156 211.25 106.691406 C 210.882812 103.96875 203.601562 98.898438 198.675781 97.351562 C 193.75 95.808594 194.558594 90.660156 189.707031 84.410156 C 184.925781 78.089844 184.851562 78.675781 184.851562 78.675781 C 184.851562 78.675781 193.089844 58.601562 196.175781 54.265625 C 199.191406 49.925781 200.589844 48.308594 204.042969 46.765625 C 207.5 45.148438 215.660156 40.957031 217.648438 39.265625 C 219.632812 37.648438 216.765625 36.46875 215 37.132812 C 213.234375 37.792969 208.308594 40.589844 208.015625 39.707031 C 207.71875 38.824219 210.734375 35.292969 213.53125 30.882812 C 216.398438 26.542969 196.03125 27.5 192.71875 38.75 C 189.410156 50 190.882812 46.398438 185.074219 52.648438 C 179.265625 58.898438 176.398438 65 172.941406 69.707031 C 169.484375 74.410156 167.351562 72.867188 169.265625 80.292969 C 171.101562 87.71875 174.410156 95.808594 176.46875 100.367188 C 178.53125 104.925781 190.074219 115.21875 190.074219 115.21875 C 190.074219 115.21875 187.132812 122.71875 185.292969 139.191406 C 183.457031 155.660156 181.175781 167.867188 179.117188 172.5 C 177.058594 177.058594 180 177.132812 180.074219 179.707031 C 180.148438 182.28125 174.558594 184.484375 173.96875 193.308594 C 173.382812 202.132812 172.058594 225.808594 172.792969 230.957031 C 173.53125 236.101562 176.101562 244.042969 176.765625 251.398438 C 177.425781 258.75 175.589844 271.03125 176.765625 282.351562 C 177.941406 293.675781 182.867188 306.324219 182.867188 306.324219 C 182.867188 306.324219 186.324219 319.558594 187.058594 321.765625 C 187.792969 323.96875 187.941406 326.617188 186.910156 329.265625 C 185.882812 331.910156 183.898438 336.617188 184.632812 340.21875 C 185.367188 343.824219 187.648438 348.234375 185.074219 354.78125 Z M 197.941406 302.792969 C 197.941406 302.792969 196.398438 302.574219 196.25 301.46875 C 196.175781 300.367188 196.101562 295.957031 196.46875 292.5 C 196.839844 288.96875 196.03125 282.207031 194.632812 278.75 C 193.308594 275.292969 192.5 274.191406 193.234375 271.398438 C 193.96875 268.601562 197.574219 257.425781 197.574219 252.058594 C 197.648438 246.691406 198.53125 245.734375 198.75 249.191406 C 198.96875 252.648438 199.042969 254.042969 199.925781 255.074219 C 200.808594 256.101562 201.984375 256.25 201.984375 256.25 C 201.984375 256.25 202.941406 264.851562 205.441406 270.734375 C 207.941406 276.617188 207.867188 276.617188 206.542969 278.75 C 205.148438 280.882812 203.234375 281.46875 203.015625 288.015625 C 202.792969 294.558594 201.175781 293.457031 197.941406 302.867188 Z M 197.941406 302.792969 " fill-opacity="1" fill-rule="evenodd"/><g clip-path="url(#4669b64b1c)"><path fill="#e81d20" d="M 217.425781 20.882812 C 217.425781 21.457031 217.398438 22.027344 217.34375 22.597656 C 217.285156 23.167969 217.203125 23.734375 217.089844 24.296875 C 216.976562 24.859375 216.839844 25.414062 216.671875 25.960938 C 216.507812 26.511719 216.3125 27.050781 216.09375 27.578125 C 215.875 28.109375 215.628906 28.625 215.359375 29.132812 C 215.089844 29.636719 214.796875 30.128906 214.476562 30.605469 C 214.160156 31.082031 213.816406 31.542969 213.453125 31.984375 C 213.089844 32.425781 212.707031 32.851562 212.300781 33.257812 C 211.894531 33.660156 211.472656 34.046875 211.027344 34.410156 C 210.585938 34.773438 210.125 35.113281 209.648438 35.433594 C 209.171875 35.75 208.679688 36.046875 208.175781 36.316406 C 207.671875 36.585938 207.152344 36.832031 206.625 37.050781 C 206.09375 37.269531 205.554688 37.460938 205.007812 37.628906 C 204.457031 37.796875 203.902344 37.933594 203.339844 38.046875 C 202.777344 38.15625 202.210938 38.242188 201.640625 38.296875 C 201.070312 38.355469 200.5 38.382812 199.925781 38.382812 C 199.351562 38.382812 198.78125 38.355469 198.210938 38.296875 C 197.640625 38.242188 197.074219 38.15625 196.511719 38.046875 C 195.949219 37.933594 195.394531 37.796875 194.847656 37.628906 C 194.296875 37.460938 193.757812 37.269531 193.230469 37.050781 C 192.699219 36.832031 192.183594 36.585938 191.675781 36.316406 C 191.171875 36.046875 190.679688 35.75 190.203125 35.433594 C 189.726562 35.113281 189.269531 34.773438 188.824219 34.410156 C 188.382812 34.046875 187.957031 33.660156 187.550781 33.257812 C 187.148438 32.851562 186.761719 32.425781 186.398438 31.984375 C 186.035156 31.542969 185.695312 31.082031 185.375 30.605469 C 185.058594 30.128906 184.761719 29.636719 184.492188 29.132812 C 184.222656 28.625 183.976562 28.109375 183.757812 27.578125 C 183.539062 27.050781 183.347656 26.511719 183.179688 25.960938 C 183.011719 25.414062 182.875 24.859375 182.761719 24.296875 C 182.652344 23.734375 182.566406 23.167969 182.511719 22.597656 C 182.453125 22.027344 182.425781 21.457031 182.425781 20.882812 C 182.425781 20.308594 182.453125 19.738281 182.511719 19.167969 C 182.566406 18.597656 182.652344 18.03125 182.761719 17.46875 C 182.875 16.90625 183.011719 16.351562 183.179688 15.800781 C 183.347656 15.253906 183.539062 14.714844 183.757812 14.183594 C 183.976562 13.65625 184.222656 13.136719 184.492188 12.632812 C 184.761719 12.128906 185.058594 11.636719 185.375 11.160156 C 185.695312 10.683594 186.035156 10.222656 186.398438 9.78125 C 186.761719 9.335938 187.148438 8.914062 187.550781 8.507812 C 187.957031 8.101562 188.382812 7.71875 188.824219 7.355469 C 189.269531 6.992188 189.726562 6.648438 190.203125 6.332031 C 190.679688 6.011719 191.171875 5.71875 191.675781 5.449219 C 192.183594 5.179688 192.699219 4.933594 193.230469 4.714844 C 193.757812 4.496094 194.296875 4.300781 194.847656 4.136719 C 195.394531 3.96875 195.949219 3.832031 196.511719 3.71875 C 197.074219 3.605469 197.640625 3.523438 198.210938 3.464844 C 198.78125 3.410156 199.351562 3.382812 199.925781 3.382812 C 200.5 3.382812 201.070312 3.410156 201.640625 3.464844 C 202.210938 3.523438 202.777344 3.605469 203.339844 3.71875 C 203.902344 3.832031 204.457031 3.96875 205.007812 4.136719 C 205.554688 4.300781 206.09375 4.496094 206.625 4.714844 C 207.152344 4.933594 207.671875 5.179688 208.175781 5.449219 C 208.679688 5.71875 209.171875 6.011719 209.648438 6.332031 C 210.125 6.648438 210.585938 6.992188 211.027344 7.355469 C 211.472656 7.71875 211.894531 8.101562 212.300781 8.507812 C 212.707031 8.914062 213.089844 9.335938 213.453125 9.78125 C 213.816406 10.222656 214.160156 10.683594 214.476562 11.160156 C 214.796875 11.636719 215.089844 12.128906 215.359375 12.632812 C 215.628906 13.136719 215.875 13.65625 216.09375 14.183594 C 216.3125 14.714844 216.507812 15.253906 216.671875 15.800781 C 216.839844 16.351562 216.976562 16.90625 217.089844 17.46875 C 217.203125 18.03125 217.285156 18.597656 217.34375 19.167969 C 217.398438 19.738281 217.425781 20.308594 217.425781 20.882812 Z M 217.425781 20.882812 " fill-opacity="1" fill-rule="nonzero"/></g><path fill="#04246e" d="M 343.308594 365.734375 C 343.308594 365.734375 348.675781 361.398438 350.21875 360.367188 C 351.691406 359.339844 366.765625 355 361.25 342.351562 C 361.25 342.351562 359.410156 338.089844 355.292969 339.265625 C 351.101562 340.441406 344.265625 345.515625 342.28125 343.898438 C 340.367188 342.351562 338.457031 333.75 337.867188 331.984375 C 337.207031 330.21875 336.324219 327.351562 334.632812 327.351562 C 332.941406 327.425781 333.089844 307.792969 331.542969 301.101562 C 329.925781 294.410156 329.339844 291.46875 327.425781 283.234375 C 325.515625 275 322.792969 267.5 319.339844 261.839844 C 315.808594 256.175781 315.808594 252.792969 314.851562 249.484375 C 313.898438 246.175781 311.617188 241.984375 309.632812 240.074219 C 307.71875 238.160156 307.058594 235.589844 307.058594 234.707031 C 307.058594 233.824219 307.351562 232.351562 307.207031 231.617188 C 307.058594 230.882812 307.351562 229.265625 306.25 227.71875 C 305.074219 226.175781 302.5 224.707031 302.207031 223.75 C 301.984375 222.792969 303.53125 221.765625 302.792969 220.367188 C 302.058594 219.042969 297.792969 219.484375 296.25 217.28125 C 294.707031 215.074219 295 213.601562 294.191406 212.71875 C 293.382812 211.839844 293.898438 209.558594 294.339844 209.117188 C 294.78125 208.601562 296.101562 203.089844 295.957031 200.882812 C 295.808594 198.675781 296.617188 196.175781 296.839844 195.734375 C 297.132812 195.292969 300.734375 188.160156 301.25 187.425781 C 301.765625 186.691406 302.425781 187.207031 303.160156 188.457031 C 303.898438 189.707031 311.617188 206.101562 313.015625 208.160156 C 314.410156 210.21875 314.410156 210.660156 319.558594 213.457031 C 324.707031 216.25 340.441406 220.515625 340.441406 220.515625 L 350.734375 211.25 C 350.734375 211.25 343.089844 207.792969 337.941406 204.558594 C 332.792969 201.324219 325.367188 199.117188 323.96875 197.792969 C 322.648438 196.398438 323.601562 196.101562 322.132812 189.410156 C 320.660156 182.71875 318.308594 182.058594 317.792969 180.808594 C 317.28125 179.558594 317.28125 174.851562 316.542969 167.71875 C 315.808594 160.589844 312.648438 158.160156 310.589844 157.207031 C 308.53125 156.25 306.03125 155.734375 303.601562 153.53125 C 301.101562 151.324219 298.53125 148.015625 298.53125 148.015625 C 298.53125 148.015625 302.5 144.339844 302.792969 139.339844 C 303.089844 134.339844 304.117188 130.808594 303.75 125.515625 C 303.382812 120.21875 302.867188 114.042969 299.191406 110.515625 C 295.515625 106.984375 288.824219 105.515625 283.382812 108.382812 C 277.941406 111.25 276.101562 114.410156 276.101562 119.78125 L 276.46875 123.96875 C 276.46875 123.96875 275.148438 124.78125 276.25 128.234375 C 277.351562 131.691406 277.792969 132.207031 278.75 133.234375 C 279.707031 134.265625 279.707031 135.074219 280 136.324219 C 280.292969 137.5 280.367188 138.382812 279.484375 139.484375 C 278.601562 140.589844 278.675781 141.25 277.867188 141.617188 C 276.984375 141.984375 274.117188 142.574219 272.941406 144.042969 C 271.765625 145.515625 266.03125 147.648438 261.839844 149.78125 C 257.648438 151.910156 254.117188 156.691406 252.648438 163.675781 C 251.175781 170.660156 251.101562 169.042969 248.96875 175.292969 C 246.839844 181.542969 245.808594 187.574219 245.515625 191.25 C 245.21875 194.925781 243.308594 197.941406 244.265625 204.339844 C 245.148438 210.734375 244.484375 215.21875 243.898438 217.648438 C 243.308594 220.074219 240.882812 224.925781 240.660156 227.058594 C 240.441406 229.191406 239.632812 243.601562 242.574219 253.015625 C 245.515625 262.425781 248.382812 271.175781 247.941406 272.574219 C 247.5 273.96875 245.957031 275.734375 247.058594 276.324219 C 248.160156 276.910156 248.382812 276.175781 245.882812 277.792969 C 243.382812 279.410156 241.542969 282.574219 241.691406 286.46875 C 241.839844 290.367188 242.867188 297.941406 240.734375 301.175781 C 238.601562 304.484375 237.425781 311.175781 241.46875 319.117188 C 245.589844 327.058594 250.808594 325.515625 252.792969 323.53125 C 254.707031 321.542969 256.765625 308.308594 256.765625 308.308594 C 256.765625 308.308594 262.425781 312.28125 267.5 314.707031 C 272.5 317.058594 276.324219 317.425781 278.824219 313.234375 C 281.25 308.96875 281.839844 309.78125 281.839844 307.867188 C 281.839844 305.957031 279.925781 287.058594 279.925781 287.058594 C 279.925781 287.058594 279.042969 278.308594 279.191406 277.207031 C 279.339844 276.03125 281.542969 269.410156 281.542969 269.410156 C 281.542969 269.410156 281.324219 264.117188 281.25 263.601562 C 281.175781 263.089844 281.839844 262.425781 285.515625 266.03125 C 289.265625 269.707031 292.425781 270.660156 293.457031 271.839844 C 294.484375 273.089844 298.824219 276.175781 298.824219 276.175781 C 298.824219 276.175781 311.984375 289.117188 311.910156 292.941406 C 311.839844 296.765625 313.675781 306.03125 316.101562 312.71875 C 318.457031 319.410156 321.175781 324.117188 321.984375 326.542969 C 322.792969 328.898438 323.234375 331.46875 322.867188 332.574219 C 322.5 333.75 322.867188 338.308594 324.117188 340.808594 C 325.367188 343.234375 326.46875 343.457031 326.765625 346.03125 C 327.058594 348.601562 328.308594 352.28125 328.382812 355 C 328.457031 357.71875 328.234375 362.792969 328.601562 364.484375 C 328.898438 366.175781 336.175781 369.632812 343.53125 365.882812 Z M 343.308594 365.734375 " fill-opacity="1" fill-rule="evenodd"/><path fill="#04246e" d="M 372.941406 218.308594 C 372.941406 218.308594 375 221.765625 374.410156 222.425781 C 373.824219 223.089844 372.941406 223.089844 372.941406 223.089844 C 372.941406 223.089844 373.824219 225.808594 374.042969 227.28125 C 374.265625 228.75 372.058594 228.160156 372.058594 228.160156 L 370.367188 231.46875 C 370.367188 231.46875 371.542969 233.015625 370.441406 233.898438 C 369.339844 234.78125 368.015625 232.792969 368.015625 232.792969 L 372.941406 218.382812 Z M 372.941406 218.308594 " fill-opacity="1" fill-rule="evenodd"/><path fill="#04246e" d="M 374.339844 220 C 374.339844 220.644531 374.304688 221.289062 374.242188 221.929688 C 374.179688 222.574219 374.085938 223.210938 373.960938 223.84375 C 373.832031 224.476562 373.675781 225.101562 373.488281 225.71875 C 373.300781 226.339844 373.085938 226.945312 372.839844 227.542969 C 372.589844 228.136719 372.316406 228.71875 372.011719 229.289062 C 371.707031 229.859375 371.375 230.410156 371.015625 230.949219 C 370.660156 231.484375 370.273438 232.003906 369.863281 232.5 C 369.457031 233 369.023438 233.476562 368.566406 233.933594 C 368.109375 234.390625 367.632812 234.824219 367.132812 235.234375 C 366.632812 235.640625 366.117188 236.027344 365.582031 236.386719 C 365.042969 236.742188 364.492188 237.074219 363.921875 237.378906 C 363.351562 237.683594 362.769531 237.957031 362.171875 238.207031 C 361.578125 238.453125 360.96875 238.671875 360.351562 238.855469 C 359.734375 239.042969 359.109375 239.203125 358.476562 239.328125 C 357.84375 239.453125 357.207031 239.546875 356.5625 239.609375 C 355.921875 239.675781 355.277344 239.707031 354.632812 239.707031 C 353.988281 239.707031 353.34375 239.675781 352.699219 239.609375 C 352.058594 239.546875 351.421875 239.453125 350.789062 239.328125 C 350.15625 239.203125 349.53125 239.042969 348.910156 238.855469 C 348.292969 238.671875 347.6875 238.453125 347.089844 238.207031 C 346.496094 237.957031 345.914062 237.683594 345.34375 237.378906 C 344.773438 237.074219 344.222656 236.742188 343.683594 236.386719 C 343.148438 236.027344 342.628906 235.640625 342.132812 235.234375 C 341.632812 234.824219 341.15625 234.390625 340.699219 233.933594 C 340.242188 233.476562 339.808594 233 339.398438 232.5 C 338.988281 232.003906 338.605469 231.484375 338.246094 230.949219 C 337.890625 230.410156 337.558594 229.859375 337.253906 229.289062 C 336.949219 228.71875 336.671875 228.136719 336.425781 227.542969 C 336.179688 226.945312 335.960938 226.339844 335.773438 225.71875 C 335.585938 225.101562 335.429688 224.476562 335.304688 223.84375 C 335.179688 223.210938 335.085938 222.574219 335.019531 221.929688 C 334.957031 221.289062 334.925781 220.644531 334.925781 220 C 334.925781 219.355469 334.957031 218.710938 335.019531 218.070312 C 335.085938 217.425781 335.179688 216.789062 335.304688 216.15625 C 335.429688 215.523438 335.585938 214.898438 335.773438 214.28125 C 335.960938 213.660156 336.179688 213.054688 336.425781 212.457031 C 336.671875 211.863281 336.949219 211.28125 337.253906 210.710938 C 337.558594 210.140625 337.890625 209.589844 338.246094 209.050781 C 338.605469 208.515625 338.988281 207.996094 339.398438 207.5 C 339.808594 207 340.242188 206.523438 340.699219 206.066406 C 341.15625 205.609375 341.632812 205.175781 342.132812 204.765625 C 342.628906 204.359375 343.148438 203.972656 343.683594 203.613281 C 344.222656 203.257812 344.773438 202.925781 345.34375 202.621094 C 345.914062 202.316406 346.496094 202.042969 347.089844 201.792969 C 347.6875 201.546875 348.292969 201.328125 348.910156 201.144531 C 349.53125 200.957031 350.15625 200.796875 350.789062 200.671875 C 351.421875 200.546875 352.058594 200.453125 352.699219 200.390625 C 353.34375 200.324219 353.988281 200.292969 354.632812 200.292969 C 355.277344 200.292969 355.921875 200.324219 356.5625 200.390625 C 357.207031 200.453125 357.84375 200.546875 358.476562 200.671875 C 359.109375 200.796875 359.734375 200.957031 360.351562 201.144531 C 360.96875 201.328125 361.578125 201.546875 362.171875 201.792969 C 362.769531 202.042969 363.351562 202.316406 363.921875 202.621094 C 364.492188 202.925781 365.042969 203.257812 365.582031 203.613281 C 366.117188 203.972656 366.632812 204.359375 367.132812 204.765625 C 367.632812 205.175781 368.109375 205.609375 368.566406 206.066406 C 369.023438 206.523438 369.457031 207 369.863281 207.5 C 370.273438 207.996094 370.660156 208.515625 371.015625 209.050781 C 371.375 209.589844 371.707031 210.140625 372.011719 210.710938 C 372.316406 211.28125 372.589844 211.863281 372.839844 212.457031 C 373.085938 213.054688 373.300781 213.660156 373.488281 214.28125 C 373.675781 214.898438 373.832031 215.523438 373.960938 216.15625 C 374.085938 216.789062 374.179688 217.425781 374.242188 218.070312 C 374.304688 218.710938 374.339844 219.355469 374.339844 220 Z M 374.339844 220 " fill-opacity="1" fill-rule="nonzero"/></svg>