<svg xmlns="http://www.w3.org/2000/svg" xmlns:xlink="http://www.w3.org/1999/xlink" width="500" zoomAndPan="magnify" viewBox="0 0 375 374.999991" height="500" preserveAspectRatio="xMidYMid meet" version="1.0"><defs><clipPath id="964698617e"><path d="M 291 294 L 345.410156 294 L 345.410156 349 L 291 349 Z M 291 294 " clip-rule="nonzero"/></clipPath></defs><path fill="#ffcf1b" d="M 261.121094 136.625 C 260.792969 137.476562 261.121094 138.625 259.925781 138.65625 C 258.941406 138.65625 258.65625 137.757812 258.359375 137.015625 C 257.726562 135.503906 257.164062 133.964844 256.46875 132.492188 C 256.125 131.757812 255.570312 131.03125 254.558594 131.304688 C 253.550781 131.578125 253.972656 132.539062 253.980469 133.199219 C 253.980469 134.964844 254.128906 136.742188 254.230469 138.507812 C 254.300781 139.707031 253.800781 140.582031 252.605469 140.699219 C 251.40625 140.816406 251.171875 139.847656 251.039062 138.9375 C 250.726562 137.203125 250.492188 135.441406 250.125 133.707031 C 249.976562 133.003906 249.726562 132.039062 248.792969 132.140625 C 247.863281 132.242188 248.300781 133.246094 248.253906 133.847656 C 248.175781 134.800781 248.214844 135.753906 248.199219 136.710938 C 248.199219 137.335938 248.160156 137.984375 247.417969 138.210938 C 247.257812 138.28125 247.089844 138.316406 246.914062 138.316406 C 246.738281 138.316406 246.570312 138.285156 246.40625 138.214844 C 246.246094 138.148438 246.105469 138.054688 245.980469 137.929688 C 245.855469 137.804688 245.761719 137.664062 245.695312 137.5 C 245.242188 136.289062 244.320312 136.289062 243.265625 136.171875 C 240.472656 135.863281 238.234375 134.191406 235.855469 132.894531 C 234.839844 132.335938 234.972656 131.242188 235.152344 130.3125 C 235.683594 127.550781 234.683594 125.78125 232.023438 124.726562 C 230.296875 123.914062 228.507812 123.28125 226.65625 122.816406 C 225.28125 122.515625 223.992188 122 222.785156 121.269531 C 221.582031 120.542969 220.523438 119.640625 219.617188 118.5625 C 216.597656 115.207031 212.578125 113.320312 208.996094 110.738281 C 207.015625 109.308594 204.839844 108.144531 203.058594 106.429688 C 202.675781 106.054688 202.234375 105.40625 201.71875 105.648438 C 199.914062 106.640625 199.199219 105.25 198.277344 104.246094 C 195.929688 101.746094 192.660156 100.671875 190.035156 98.632812 C 185.910156 99.367188 181.242188 97.316406 177.675781 100.671875 C 176 102.238281 175.851562 104.710938 175.828125 106.929688 C 175.757812 113.828125 175.578125 120.738281 174.460938 127.527344 C 173.808594 131.476562 174.835938 135.230469 174.765625 139.082031 C 174.765625 140.417969 175.789062 141.425781 176.398438 142.5625 C 176.601562 142.859375 176.746094 143.179688 176.828125 143.53125 C 176.910156 143.882812 176.921875 144.234375 176.871094 144.59375 C 176.820312 144.949219 176.703125 145.28125 176.523438 145.59375 C 176.347656 145.90625 176.117188 146.175781 175.835938 146.402344 C 174.066406 148.167969 174.121094 148.460938 176.078125 149.851562 C 176.820312 150.375 177.039062 150.9375 176.53125 151.738281 C 175.679688 153.058594 175.953125 154.277344 176.742188 155.546875 C 177.535156 156.8125 178.308594 158.300781 177.296875 159.925781 C 177.15625 160.246094 177.105469 160.582031 177.148438 160.929688 C 177.191406 161.277344 177.324219 161.589844 177.542969 161.867188 C 178.230469 163.195312 178.957031 164.511719 179.675781 165.824219 C 179.902344 166.238281 180.394531 166.675781 180.347656 167.058594 C 180.027344 169.828125 182.304688 172.136719 181.914062 174.75 C 181.4375 177.800781 182.507812 180.507812 182.789062 183.355469 C 183.140625 186.859375 183.917969 190.394531 183.21875 194.148438 C 182.4375 198.152344 182.789062 202.371094 182.640625 206.492188 C 182.601562 207.703125 183.46875 208.308594 184.285156 208.917969 C 185.542969 209.855469 185.644531 210.519531 184.097656 211.375 C 181.5 212.8125 181.804688 212.9375 183.226562 215.488281 C 185.308594 219.257812 188.421875 221.597656 192.058594 223.648438 C 194.03125 224.757812 195.609375 226.597656 197.316406 228.160156 C 201.035156 231.476562 204.96875 234.515625 209.121094 237.273438 C 212.664062 239.597656 215.957031 242.242188 218.992188 245.203125 C 220.625 246.878906 222.839844 247.777344 224.875 248.875 C 228.902344 251.046875 231.695312 254.027344 231.914062 258.871094 C 231.957031 259.492188 232.144531 260.066406 232.476562 260.589844 C 233.722656 262.75 234.46875 265.066406 234.722656 267.546875 C 235.167969 270.222656 235.980469 272.785156 237.15625 275.234375 C 238.851562 279.003906 240.128906 283.058594 239.949219 287.398438 C 239.941406 288.230469 240.085938 289.035156 240.386719 289.808594 C 240.6875 290.585938 241.117188 291.277344 241.683594 291.886719 C 245.40625 296.199219 247.582031 301.351562 249.976562 306.398438 C 251.960938 310.582031 253.933594 314.777344 255.984375 318.914062 C 256.476562 319.789062 256.746094 320.730469 256.789062 321.734375 C 256.835938 322.742188 256.648438 323.699219 256.234375 324.617188 C 255.601562 325.953125 255.945312 327.011719 256.640625 328.222656 C 258.46875 331.40625 260.644531 334.191406 263.820312 336.164062 C 265.347656 337.125 266.648438 338.324219 267.730469 339.769531 C 268.695312 340.957031 269.816406 341.976562 271.089844 342.828125 C 272.363281 343.679688 273.734375 344.324219 275.203125 344.757812 C 275.613281 344.84375 276.003906 344.789062 276.375 344.59375 C 276.6875 344.5 277.234375 344.210938 277.296875 344.515625 C 277.949219 348.003906 279.511719 345.117188 280.617188 344.945312 C 280.914062 345.328125 280.566406 345.464844 280.488281 345.675781 C 280.292969 346.152344 279.488281 346.316406 279.707031 346.972656 C 279.855469 347.402344 280.371094 347.457031 280.773438 347.402344 C 281.554688 347.300781 281.84375 346.691406 282.132812 346.050781 C 282.28125 345.714844 281.28125 344.804688 282.515625 345.070312 C 283.21875 345.21875 283.109375 345.957031 282.710938 346.394531 C 281.507812 347.722656 282.78125 348.042969 283.546875 348.507812 C 287.375 350.796875 291.332031 352.714844 295.921875 352.894531 C 296.945312 352.996094 297.949219 353.183594 298.933594 353.457031 C 303.089844 354.363281 304.332031 355.84375 304.410156 359.964844 C 304.410156 360.652344 304.058594 361.234375 303.347656 361.21875 C 303.125 361.195312 302.90625 361.21875 302.691406 361.28125 C 302.476562 361.339844 302.28125 361.441406 302.105469 361.578125 C 301.929688 361.714844 301.785156 361.878906 301.671875 362.070312 C 301.554688 362.261719 301.480469 362.46875 301.445312 362.6875 C 301.371094 362.996094 301.222656 363.257812 301 363.480469 C 300.777344 363.703125 300.511719 363.847656 300.203125 363.914062 C 299.996094 363.945312 299.808594 364.015625 299.632812 364.125 C 299.457031 364.234375 299.3125 364.378906 299.199219 364.550781 C 299.085938 364.722656 299.011719 364.910156 298.980469 365.117188 C 298.945312 365.320312 298.957031 365.523438 299.011719 365.722656 C 299.214844 367.445312 298.144531 368.242188 296.667969 368.34375 C 295.445312 368.421875 294.773438 368.46875 294.96875 370.046875 C 295.164062 371.628906 293.953125 371.292969 293.042969 370.941406 C 291.167969 370.21875 290.269531 370.675781 290.027344 372.652344 C 289.957031 373.246094 289.90625 373.835938 289.304688 373.960938 C 287.460938 374.351562 285.582031 374.984375 283.707031 374.117188 C 281.484375 373.082031 279.371094 371.636719 277.039062 371.097656 C 275.28125 370.683594 272.925781 370.101562 271.566406 372.535156 C 271.171875 373.246094 270.375 372.972656 269.78125 372.480469 C 268.003906 370.976562 266.0625 369.730469 263.953125 368.742188 C 263.363281 368.445312 262.855469 368.050781 262.425781 367.550781 C 261.996094 367.050781 261.679688 366.488281 261.472656 365.863281 C 259.839844 361.75 257.328125 358.042969 255.617188 354.019531 C 252.164062 345.980469 246.378906 339.871094 240.480469 333.894531 C 236.191406 329.550781 231.632812 325.445312 227.265625 321.160156 L 225.390625 319.28125 C 218.351562 312.242188 214.4375 303.941406 214.226562 293.75 C 214.191406 289.933594 213.613281 286.203125 212.492188 282.554688 C 212.183594 281.652344 211.660156 280.894531 210.925781 280.28125 C 202.007812 271.917969 191.371094 266.480469 180.035156 262.289062 C 178.730469 261.894531 177.464844 261.394531 176.242188 260.792969 C 174.859375 260.011719 174.398438 260.589844 173.894531 261.789062 C 171.339844 267.867188 167.886719 273.523438 165.980469 279.9375 C 164.648438 284.410156 161.457031 287.625 157.671875 290.269531 C 155.902344 291.429688 153.960938 291.929688 151.851562 291.777344 C 148.933594 291.714844 145.953125 291.082031 143.109375 292.042969 C 137.234375 294.039062 130.984375 293.492188 125.015625 294.828125 C 124.605469 294.851562 124.207031 294.925781 123.816406 295.046875 C 117.792969 298.332031 110.988281 297.855469 104.535156 299.023438 C 100.726562 299.710938 96.714844 299.5625 92.988281 300.484375 C 89.507812 301.34375 85.863281 300.601562 82.4375 302.285156 C 79.207031 303.847656 75.882812 305.28125 72.746094 307.085938 C 70.535156 308.421875 68.230469 309.574219 65.839844 310.542969 C 64.179688 311.226562 62.789062 312.269531 61.667969 313.671875 C 59.125 316.484375 56.167969 318.757812 52.800781 320.496094 C 50.824219 321.53125 49.054688 322.839844 47.484375 324.429688 C 45.917969 326.015625 44.628906 327.800781 43.617188 329.789062 C 42.738281 331.488281 41.742188 333.117188 40.636719 334.675781 C 38.625 337.507812 36.722656 337.328125 34.277344 334.957031 C 32.539062 333.292969 33.023438 331.3125 32.53125 329.480469 C 32.421875 329.066406 32.445312 328.832031 31.984375 328.605469 C 30.496094 327.894531 30.679688 326.660156 31.390625 325.570312 C 32.953125 323.152344 32.953125 323.128906 30.9375 321.277344 C 29.941406 320.386719 30.050781 319.617188 31.25 318.929688 C 33.359375 317.664062 33.4375 316.433594 31.625 314.933594 C 31.484375 314.828125 31.363281 314.710938 31.253906 314.574219 C 31.148438 314.4375 31.058594 314.289062 30.992188 314.132812 C 30.921875 313.972656 30.875 313.808594 30.847656 313.636719 C 30.824219 313.464844 30.820312 313.292969 30.835938 313.121094 C 30.855469 312.949219 30.894531 312.785156 30.957031 312.621094 C 31.019531 312.460938 31.101562 312.308594 31.203125 312.167969 C 31.304688 312.03125 31.421875 311.90625 31.554688 311.792969 C 31.6875 311.683594 31.835938 311.59375 31.992188 311.523438 C 33.257812 310.945312 33.484375 310.222656 32.679688 309.175781 C 32.1875 308.519531 32.015625 307.894531 32.9375 307.570312 C 35.628906 306.632812 37.242188 304.503906 38.515625 302.222656 C 39.789062 299.9375 41.277344 297.527344 41.207031 294.6875 C 41.230469 294.160156 41.429688 293.707031 41.808594 293.335938 C 42.023438 293.113281 42.1875 292.855469 42.296875 292.566406 C 42.410156 292.277344 42.457031 291.976562 42.441406 291.667969 C 42.429688 291.359375 42.351562 291.066406 42.21875 290.785156 C 42.082031 290.507812 41.894531 290.265625 41.660156 290.066406 C 40.183594 288.5 40.347656 288.34375 42.503906 287.671875 C 44.441406 287.121094 46.164062 286.179688 47.675781 284.847656 C 48.316406 284.210938 49.074219 283.785156 49.949219 283.570312 C 50.828125 283.359375 51.695312 283.386719 52.558594 283.660156 C 54.039062 283.949219 55.441406 284.457031 56.765625 285.175781 C 58.710938 286.390625 60.824219 287.085938 63.109375 287.257812 C 64.222656 287.296875 65.242188 287.632812 66.167969 288.257812 C 67.402344 289.144531 68.851562 288.796875 70.078125 288.367188 C 74.691406 286.941406 78.863281 284.695312 82.59375 281.625 C 83.167969 281.136719 83.785156 280.714844 84.449219 280.359375 C 88.792969 278.097656 93.007812 275.621094 97.097656 272.925781 C 100.207031 270.855469 103.523438 269.199219 107.050781 267.960938 C 110.574219 266.71875 114.199219 265.929688 117.917969 265.597656 C 122.675781 265.0625 127.4375 265.03125 132.203125 265.503906 C 134.308594 265.738281 135.425781 265.144531 135.855469 262.859375 C 136.332031 260.308594 136.492188 257.738281 136.332031 255.148438 C 136.128906 251.621094 135.457031 248.160156 135.191406 244.648438 C 135.105469 243.957031 134.824219 243.351562 134.347656 242.84375 C 133.320312 241.566406 132.234375 240.332031 131.320312 238.984375 C 130.535156 237.859375 129.839844 237.015625 128.269531 237.046875 C 126.695312 237.078125 126.398438 235.777344 126.40625 234.566406 C 126.410156 233.707031 126.230469 232.890625 125.871094 232.109375 C 125.507812 231.332031 125 230.667969 124.34375 230.117188 C 123.515625 229.378906 122.875 228.507812 122.421875 227.496094 C 121.96875 226.484375 121.742188 225.425781 121.746094 224.320312 C 121.714844 222.078125 121.132812 219.992188 119.992188 218.0625 C 119.246094 216.859375 118.734375 215.566406 118.457031 214.179688 C 118.179688 212.792969 118.152344 211.402344 118.375 210.003906 C 118.628906 209.203125 118.628906 208.398438 118.375 207.59375 C 117.050781 205.25 117.214844 202.941406 117.949219 200.554688 C 118.066406 200.144531 118.039062 199.742188 117.871094 199.351562 C 115.972656 195.300781 116.089844 190.902344 115.621094 186.609375 C 115.539062 186.128906 115.339844 185.703125 115.027344 185.332031 C 112.679688 181.9375 111.976562 178.292969 114.015625 174.5625 C 115.582031 171.730469 115.222656 169.421875 113.539062 166.683594 C 111.496094 163.136719 109.804688 159.425781 108.46875 155.554688 C 108.261719 155.117188 108.132812 154.660156 108.078125 154.175781 C 107.90625 147.839844 106.34375 141.582031 105.734375 135.269531 C 105.734375 135.066406 105.804688 134.785156 105.734375 134.667969 C 102.863281 131.429688 104.894531 127.128906 103.332031 123.59375 C 101.765625 120.054688 100.203125 116.605469 98.957031 113.015625 C 98.804688 112.5625 98.605469 112.136719 98.355469 111.730469 C 98.101562 111.324219 97.808594 110.953125 97.472656 110.617188 C 97.132812 110.28125 96.761719 109.984375 96.355469 109.734375 C 95.953125 109.484375 95.523438 109.28125 95.070312 109.132812 C 94.617188 108.980469 94.15625 108.882812 93.679688 108.835938 C 93.207031 108.792969 92.730469 108.804688 92.261719 108.871094 C 91.789062 108.933594 91.328125 109.054688 90.882812 109.226562 C 90.441406 109.398438 90.019531 109.617188 89.625 109.886719 C 89.351562 110.074219 89.015625 110.183594 88.71875 110.347656 C 84.027344 112.835938 79.261719 115.003906 73.738281 115.167969 C 70.40625 115.261719 70.1875 115.871094 70.125 119.242188 C 69.984375 126.808594 69.671875 134.371094 69.023438 141.925781 C 68.429688 148.828125 69.664062 155.515625 71.148438 162.179688 C 71.285156 162.707031 71.378906 163.246094 71.433594 163.789062 C 71.753906 168.09375 73.480469 171.472656 77.496094 173.507812 C 79.519531 174.539062 80.867188 176.453125 82.609375 177.871094 C 82.921875 178.101562 83.132812 178.40625 83.242188 178.777344 C 83.351562 179.148438 83.339844 179.515625 83.203125 179.882812 C 82.359375 182.894531 82.203125 186.054688 80.960938 188.992188 C 80.269531 190.613281 80.625 192.492188 80.875 194.257812 C 80.929688 194.65625 81.109375 195.039062 81.140625 195.449219 C 81.195312 196.230469 81.414062 197.246094 80.464844 197.605469 C 79.519531 197.964844 78.777344 197.199219 78.339844 196.410156 C 77.121094 194.332031 76.3125 192.105469 75.914062 189.730469 C 75.835938 189.214844 76.023438 188.609375 75.367188 188.164062 C 74.585938 188.492188 74.585938 189.207031 74.585938 189.941406 C 74.65625 192.765625 75.03125 195.503906 76.492188 198.003906 C 77.039062 198.953125 77.457031 199.953125 77.746094 201.007812 C 77.84375 201.390625 77.804688 201.761719 77.632812 202.117188 C 77.460938 202.472656 77.195312 202.730469 76.835938 202.894531 C 76.054688 203.308594 75.53125 202.832031 75.085938 202.277344 C 74.605469 201.699219 74.171875 201.09375 73.777344 200.453125 C 73.199219 199.484375 72.738281 198.890625 71.269531 199.132812 C 69.398438 199.421875 68.515625 197.425781 67.222656 196.371094 C 63.164062 193.054688 62.234375 187.960938 59.996094 183.628906 C 58.5 180.726562 58.746094 177.535156 59.871094 174.460938 C 60.214844 173.636719 60.375 172.777344 60.34375 171.882812 C 60.316406 170.992188 60.101562 170.144531 59.707031 169.34375 C 58.625 167.121094 58.683594 164.566406 58.140625 162.179688 C 56.039062 153.292969 53.269531 144.570312 52.015625 135.480469 C 50.953125 127.722656 51.117188 119.96875 51.585938 112.203125 C 51.765625 109.253906 53.933594 107.210938 55.609375 105.015625 C 58.808594 100.671875 62.757812 96.996094 66.449219 93.085938 C 69.523438 89.886719 72.378906 86.289062 76.375 84.027344 C 76.949219 83.640625 77.40625 83.144531 77.753906 82.546875 C 77.996094 82.210938 78.191406 81.695312 78.535156 81.601562 C 81.234375 80.820312 82.398438 77.996094 84.792969 76.910156 C 87.195312 75.933594 89.484375 74.738281 91.660156 73.324219 C 92.707031 72.597656 93.875 72.769531 95.023438 72.855469 C 96.054688 72.933594 96.863281 72.855469 96.433594 71.480469 C 96.085938 70.378906 96.597656 69.679688 97.472656 69.078125 C 100.710938 66.832031 104.121094 65.378906 108.164062 66.488281 C 108.425781 66.566406 108.6875 66.566406 108.949219 66.488281 C 113.554688 64.660156 118.5625 64.144531 122.957031 61.367188 C 125.089844 60.101562 126.898438 58.476562 128.378906 56.484375 C 129.386719 55.101562 130.472656 53.753906 132.453125 53.777344 C 133.296875 53.777344 133.359375 53.058594 133.5 52.488281 C 134.089844 50.160156 134.347656 47.792969 134.285156 45.394531 C 134.324219 45.050781 134.273438 44.722656 134.132812 44.410156 C 133.992188 44.09375 133.78125 43.839844 133.5 43.640625 C 131.445312 42.382812 130.734375 40.394531 130.472656 38.164062 C 130.292969 36.539062 129.980469 34.925781 129.808594 33.300781 C 129.636719 31.671875 129.441406 30.226562 131.554688 29.773438 C 132.429688 29.582031 132.0625 28.777344 132.0625 28.207031 C 132.0625 25.546875 131.96875 22.894531 131.945312 20.234375 C 131.945312 17.414062 133.390625 15.105469 134.496094 12.640625 C 136.285156 8.621094 140.324219 6.71875 142.832031 3.402344 C 144.398438 4.183594 145.023438 1.910156 146.464844 2.222656 C 146.597656 2.269531 146.734375 2.261719 146.867188 2.207031 C 147 2.152344 147.097656 2.0625 147.160156 1.933594 C 147.941406 -0.0078125 149.261719 0.992188 150.5 1.226562 C 151.921875 1.5 153.300781 0.726562 154.855469 1.453125 C 157.578125 2.714844 160.464844 3.542969 163.21875 4.84375 C 166.347656 6.335938 167.027344 9.488281 169.085938 11.640625 C 169.726562 12.304688 170.09375 13.484375 170.835938 14.066406 C 171.609375 14.65625 172.199219 15.394531 172.613281 16.273438 C 173.027344 17.152344 173.21875 18.074219 173.183594 19.046875 C 173.105469 22.886719 173.699219 26.785156 172.503906 30.5625 C 171.851562 32.597656 171.5625 34.683594 171.636719 36.820312 C 171.761719 41.433594 170.742188 45.894531 169.421875 50.265625 C 169.132812 51.25 169.421875 51.476562 170.203125 51.894531 C 171.902344 52.6875 173.664062 52.882812 175.492188 52.472656 C 180.183594 51.785156 183.359375 53.792969 183.507812 58.730469 C 183.472656 59.132812 183.550781 59.511719 183.753906 59.863281 C 183.953125 60.210938 184.238281 60.472656 184.605469 60.644531 C 186.457031 61.664062 188.273438 62.757812 190.144531 63.726562 C 194.109375 65.84375 197.484375 68.667969 200.273438 72.191406 C 201.757812 74.03125 202.699219 76.117188 203.097656 78.449219 C 203.183594 79.089844 203.351562 79.707031 203.59375 80.304688 C 203.839844 80.902344 204.15625 81.457031 204.542969 81.972656 C 204.929688 82.488281 205.378906 82.949219 205.882812 83.351562 C 206.386719 83.753906 206.933594 84.085938 207.523438 84.347656 C 211.191406 86.132812 214.382812 88.671875 217.582031 91.269531 C 220.148438 93.351562 221.902344 96.121094 224.492188 98.097656 C 231.769531 103.792969 238.300781 110.242188 244.085938 117.453125 C 246.667969 120.582031 250.273438 122.144531 253.832031 123.820312 C 257.6875 125.664062 261.003906 128.261719 262.34375 132.648438 C 262.585938 133.433594 262.953125 134.214844 263.125 134.996094 C 263.296875 135.777344 264.0625 136.414062 263.429688 137.078125 C 262.632812 137.898438 262.007812 136.828125 261.121094 136.625 Z M 261.121094 136.625 " fill-opacity="1" fill-rule="nonzero"/><g clip-path="url(#964698617e)"><path fill="#ffcf1b" d="M 318.375 294.492188 C 319.25 294.496094 320.121094 294.539062 320.996094 294.628906 C 321.867188 294.714844 322.730469 294.847656 323.589844 295.019531 C 324.449219 295.191406 325.296875 295.40625 326.132812 295.660156 C 326.972656 295.917969 327.792969 296.214844 328.601562 296.550781 C 329.410156 296.886719 330.199219 297.261719 330.972656 297.679688 C 331.742188 298.09375 332.492188 298.542969 333.21875 299.03125 C 333.949219 299.519531 334.648438 300.042969 335.324219 300.597656 C 336 301.15625 336.648438 301.742188 337.265625 302.363281 C 337.882812 302.984375 338.46875 303.632812 339.023438 304.3125 C 339.578125 304.988281 340.097656 305.691406 340.585938 306.421875 C 341.070312 307.152344 341.519531 307.902344 341.929688 308.675781 C 342.34375 309.449219 342.714844 310.238281 343.050781 311.046875 C 343.382812 311.859375 343.675781 312.683594 343.929688 313.519531 C 344.183594 314.359375 344.394531 315.207031 344.5625 316.066406 C 344.734375 316.925781 344.859375 317.792969 344.945312 318.664062 C 345.03125 319.535156 345.070312 320.410156 345.070312 321.285156 C 345.070312 322.160156 345.027344 323.035156 344.9375 323.90625 C 344.851562 324.777344 344.722656 325.640625 344.550781 326.5 C 344.378906 327.359375 344.167969 328.207031 343.910156 329.046875 C 343.65625 329.882812 343.359375 330.707031 343.023438 331.515625 C 342.6875 332.324219 342.3125 333.113281 341.902344 333.886719 C 341.488281 334.660156 341.039062 335.410156 340.550781 336.136719 C 340.0625 336.863281 339.542969 337.566406 338.984375 338.242188 C 338.429688 338.917969 337.839844 339.566406 337.222656 340.1875 C 336.601562 340.804688 335.953125 341.390625 335.277344 341.949219 C 334.597656 342.503906 333.898438 343.023438 333.167969 343.507812 C 332.441406 343.996094 331.6875 344.445312 330.917969 344.859375 C 330.144531 345.269531 329.351562 345.644531 328.542969 345.980469 C 327.734375 346.3125 326.910156 346.609375 326.074219 346.863281 C 325.234375 347.117188 324.386719 347.328125 323.527344 347.5 C 322.667969 347.671875 321.804688 347.796875 320.933594 347.882812 C 320.058594 347.96875 319.1875 348.011719 318.3125 348.011719 C 317.433594 348.011719 316.5625 347.96875 315.691406 347.882812 C 314.816406 347.796875 313.953125 347.671875 313.09375 347.5 C 312.234375 347.328125 311.386719 347.117188 310.546875 346.863281 C 309.710938 346.609375 308.886719 346.3125 308.078125 345.980469 C 307.269531 345.644531 306.476562 345.269531 305.703125 344.859375 C 304.933594 344.445312 304.183594 343.996094 303.453125 343.507812 C 302.726562 343.023438 302.023438 342.503906 301.34375 341.949219 C 300.667969 341.390625 300.019531 340.804688 299.398438 340.1875 C 298.78125 339.566406 298.191406 338.917969 297.636719 338.242188 C 297.082031 337.566406 296.558594 336.863281 296.070312 336.136719 C 295.585938 335.410156 295.132812 334.660156 294.722656 333.886719 C 294.308594 333.113281 293.933594 332.324219 293.597656 331.515625 C 293.261719 330.707031 292.964844 329.882812 292.710938 329.046875 C 292.457031 328.207031 292.242188 327.359375 292.070312 326.5 C 291.898438 325.640625 291.769531 324.777344 291.683594 323.90625 C 291.597656 323.035156 291.550781 322.160156 291.550781 321.285156 C 291.550781 320.40625 291.589844 319.53125 291.675781 318.65625 C 291.761719 317.78125 291.890625 316.914062 292.058594 316.050781 C 292.230469 315.1875 292.441406 314.339844 292.699219 313.496094 C 292.953125 312.65625 293.246094 311.832031 293.582031 311.019531 C 293.917969 310.207031 294.292969 309.414062 294.707031 308.636719 C 295.121094 307.863281 295.574219 307.109375 296.058594 306.382812 C 296.546875 305.652344 297.070312 304.945312 297.628906 304.265625 C 298.1875 303.589844 298.777344 302.9375 299.398438 302.316406 C 300.019531 301.695312 300.667969 301.109375 301.347656 300.550781 C 302.027344 299.996094 302.734375 299.472656 303.464844 298.984375 C 304.195312 298.5 304.949219 298.046875 305.722656 297.636719 C 306.5 297.222656 307.292969 296.847656 308.105469 296.511719 C 308.917969 296.179688 309.742188 295.882812 310.585938 295.628906 C 311.425781 295.378906 312.277344 295.164062 313.140625 294.996094 C 314 294.828125 314.871094 294.699219 315.742188 294.617188 C 316.617188 294.53125 317.496094 294.492188 318.375 294.492188 Z M 318.375 294.492188 " fill-opacity="1" fill-rule="nonzero"/></g></svg>