<svg xmlns="http://www.w3.org/2000/svg" xmlns:xlink="http://www.w3.org/1999/xlink" width="500" zoomAndPan="magnify" viewBox="0 0 375 374.999991" height="500" preserveAspectRatio="xMidYMid meet" version="1.0"><defs><clipPath id="e7e308d6f9"><path d="M 0 16.171875 L 375 16.171875 L 375 358.921875 L 0 358.921875 Z M 0 16.171875 " clip-rule="nonzero"/></clipPath></defs><g clip-path="url(#e7e308d6f9)"><path fill="#04246e" d="M 194.238281 143.257812 C 194.140625 143.917969 194.058594 144.585938 193.957031 145.25 C 193.9375 145.363281 193.917969 145.476562 193.902344 145.597656 C 192.800781 149.25 189.378906 152.839844 187.234375 155.453125 C 183.355469 160.191406 179.421875 164.875 175.1875 169.3125 C 170.851562 173.855469 166.300781 178.195312 161.734375 182.511719 C 160.238281 183.925781 158.707031 185.457031 157.089844 186.890625 C 157.097656 186.929688 157.109375 186.964844 157.117188 187.007812 C 157.007812 187.054688 156.898438 187.109375 156.785156 187.160156 C 154.636719 189.027344 152.328125 190.691406 149.707031 191.664062 C 148.117188 193.007812 146.730469 194.667969 146.367188 196.746094 C 146.101562 198.273438 146.199219 199.917969 146.167969 201.464844 C 146.136719 202.855469 145.730469 204.808594 146.167969 206.15625 C 146.382812 206.84375 146.824219 207.277344 147.378906 207.542969 C 147.058594 207.933594 146.746094 208.320312 146.421875 208.699219 C 144.992188 210.339844 143.566406 211.972656 142.175781 213.644531 C 140.566406 215.574219 138.804688 217.578125 137.460938 219.777344 C 137.082031 218.5625 136.535156 217.421875 135.777344 216.585938 C 135.121094 215.855469 134.292969 215.511719 133.375 215.207031 C 132.726562 214.992188 132.058594 214.890625 131.453125 214.566406 C 131.101562 214.386719 130.808594 214.132812 130.554688 213.839844 C 130.191406 212.230469 129.953125 210.589844 129.703125 208.957031 C 128.988281 204.292969 128.152344 199.652344 127.160156 195.039062 C 126.175781 190.429688 125.039062 185.851562 123.746094 181.316406 C 122.828125 178.105469 122.09375 173.898438 120.335938 170.816406 C 119.835938 167.410156 118.820312 163.984375 118.054688 160.949219 C 116.769531 155.84375 115.609375 150.761719 114.664062 145.601562 C 114.777344 145.546875 114.878906 145.460938 114.953125 145.371094 C 115.664062 144.539062 115.832031 143.578125 116.199219 142.582031 C 116.265625 142.398438 116.34375 142.234375 116.425781 142.085938 C 116.746094 141.914062 117.054688 141.722656 117.371094 141.550781 C 117.464844 141.5 117.570312 141.457031 117.667969 141.410156 C 116.390625 139.640625 115.128906 137.855469 113.832031 136.117188 C 110.410156 131.519531 105.910156 127.828125 102.730469 123.0625 C 102.703125 123.027344 102.761719 122.976562 102.792969 123.011719 C 106.90625 127.742188 111.722656 131.640625 115.609375 136.609375 C 118.316406 140.070312 121.152344 143.46875 123.609375 147.113281 C 124.09375 147.554688 124.578125 147.984375 125.023438 148.394531 C 128.339844 151.449219 131.757812 154.386719 135.273438 157.199219 C 138.792969 160.007812 142.414062 162.695312 146.125 165.25 C 147.722656 166.347656 149.335938 167.429688 150.960938 168.480469 C 152.011719 169.15625 153.066406 170.007812 154.207031 170.582031 C 154.648438 175.726562 155.644531 180.890625 156.855469 185.917969 C 158.582031 184.449219 160.25 182.910156 161.9375 181.316406 C 166.027344 177.457031 170.09375 173.570312 174 169.523438 C 178.027344 165.355469 181.796875 160.96875 185.484375 156.496094 C 187.371094 154.210938 189.320312 151.953125 190.945312 149.46875 C 191.527344 148.570312 191.964844 147.621094 192.375 146.660156 C 192.324219 146.613281 192.273438 146.554688 192.238281 146.488281 C 187.753906 138.203125 183.707031 129.695312 180.152344 120.972656 C 178.753906 117.535156 177.160156 114.152344 177.238281 110.371094 C 177.292969 107.542969 177.246094 105.097656 176.097656 102.457031 C 175.136719 100.257812 173.734375 98.199219 172.464844 96.164062 C 172.375 96.023438 172.5625 95.894531 172.671875 96.015625 C 175.210938 98.839844 177.65625 101.988281 178.257812 105.855469 C 178.636719 108.246094 178.046875 110.671875 178.472656 113.054688 C 178.882812 115.339844 179.929688 117.539062 180.792969 119.675781 C 184.339844 128.480469 188.398438 137.070312 192.890625 145.4375 C 193.242188 144.605469 193.605469 143.777344 194.050781 142.980469 C 194.097656 142.898438 194.238281 142.910156 194.246094 143.019531 C 194.25 143.097656 194.238281 143.171875 194.238281 143.257812 Z M 138.824219 235.851562 C 136.132812 236.125 134.550781 233.484375 133.640625 231.394531 C 132.753906 229.339844 131.847656 227.648438 130.355469 225.9375 C 130.066406 225.601562 129.785156 225.265625 129.511719 224.929688 C 129.601562 224.855469 129.671875 224.761719 129.730469 224.65625 C 130.652344 225.671875 131.632812 226.636719 132.410156 227.792969 C 133.796875 229.859375 134.132812 232.621094 136.082031 234.289062 C 138.542969 236.40625 141.519531 234.054688 140.851562 231.1875 C 140.511719 229.707031 139.578125 228.425781 138.851562 227.125 C 138.402344 226.324219 138.054688 225.519531 137.792969 224.695312 C 137.988281 225.042969 138.195312 225.378906 138.398438 225.710938 C 138.746094 226.273438 139.089844 226.929688 139.597656 227.3125 C 139.757812 227.617188 139.925781 227.921875 140.101562 228.234375 C 140.722656 229.339844 141.363281 230.5 141.5 231.789062 C 141.699219 233.621094 140.859375 235.640625 138.824219 235.851562 Z M 371.777344 285.382812 C 371 283.144531 370.273438 280.546875 368.800781 278.648438 C 367.464844 276.914062 365.261719 276.65625 363.542969 275.4375 C 362.894531 273.890625 362.113281 272.375 362.011719 270.742188 C 361.917969 269.199219 362.894531 267.902344 363.027344 266.398438 C 363.125 265.273438 362.875 264.183594 362.484375 263.128906 C 361.433594 260.269531 359.636719 257.511719 358.023438 254.9375 C 356.882812 253.121094 355.644531 251.125 354.082031 249.574219 C 354.132812 249.179688 353.96875 248.785156 353.496094 248.660156 C 353.292969 248.609375 353.089844 248.566406 352.890625 248.53125 C 352.800781 248.46875 352.714844 248.460938 352.640625 248.488281 C 349.917969 248.078125 347.234375 249.011719 344.761719 250.175781 C 341.679688 251.628906 338.71875 253.03125 335.410156 253.894531 C 333.75 254.324219 325.074219 254.964844 324.773438 258.015625 C 317.480469 256.816406 310.117188 256.113281 302.765625 255.253906 C 298.339844 254.734375 293.941406 254.066406 289.535156 253.414062 C 287.425781 253.09375 284.070312 252.066406 281.472656 252.441406 C 276.042969 252.375 270.621094 252.5 265.203125 252.824219 C 263.085938 252.957031 258.6875 252.796875 256.871094 254.695312 C 256.09375 253.785156 255.289062 252.902344 254.625 252.011719 C 252.921875 249.730469 251.335938 247.359375 249.847656 244.929688 C 246.511719 239.480469 243.691406 233.734375 241.21875 227.84375 C 238.769531 222.011719 236.660156 216.050781 234.675781 210.046875 C 232.925781 204.753906 231.746094 198.738281 229.078125 193.792969 C 230.386719 192.304688 231.539062 190.582031 232.671875 189.210938 C 235.167969 186.195312 237.785156 183.53125 240.777344 181.015625 C 243.578125 178.660156 245.878906 175.855469 248.636719 173.488281 C 249.839844 172.457031 251.46875 170.65625 251.367188 168.929688 C 252.503906 164.792969 252.804688 160.414062 252.359375 156.15625 C 252.097656 153.660156 251.5 151.214844 251.179688 148.726562 C 250.925781 146.800781 251.0625 145.011719 251.210938 143.171875 C 252.046875 142.347656 252.632812 141.414062 252.535156 140.488281 C 252.417969 139.398438 251.128906 138.644531 250.617188 137.777344 C 249.738281 136.269531 249.578125 134.417969 249.109375 132.753906 C 248.164062 129.40625 245.792969 127.386719 243.859375 124.617188 C 241.902344 121.808594 240.449219 119.152344 237.601562 117.109375 C 231.703125 112.863281 224.148438 112.175781 218.015625 108.382812 C 214.816406 106.394531 212 103.785156 208.464844 102.375 C 206.308594 101.507812 204.011719 101.082031 201.761719 100.539062 C 203.292969 98.261719 204.730469 95.921875 206.136719 93.550781 C 207.078125 91.957031 206.996094 91.550781 205.675781 90.269531 C 203.484375 88.160156 201.230469 86.105469 199.011719 84.023438 C 194.894531 80.160156 190.96875 76.023438 186.246094 72.886719 C 182.738281 70.558594 178.367188 67.824219 174.09375 66.777344 C 171.882812 65.210938 168.101562 65.167969 165.539062 64.90625 C 161.953125 64.535156 158.328125 64.394531 154.71875 64.511719 C 153.164062 64.5625 151.410156 64.9375 149.859375 64.8125 C 148.152344 64.671875 146.992188 63.550781 145.371094 63.25 C 144.195312 63.027344 142.921875 63.195312 141.734375 63.601562 C 142.125 62.953125 142.429688 62.234375 142.644531 61.433594 C 143.300781 58.9375 143.785156 56.355469 144.226562 53.8125 C 144.550781 51.921875 144.328125 51.058594 143.417969 49.667969 C 143.679688 47.460938 143.753906 45.214844 143.800781 43.246094 C 143.890625 39.417969 143.539062 35.554688 142.28125 31.929688 C 140.511719 26.851562 136.140625 20.21875 130.273438 19.472656 C 130.265625 19.351562 130.273438 19.234375 130.304688 19.121094 C 124.347656 16.777344 117.5625 16.15625 111.414062 18.121094 C 105.921875 19.882812 100.882812 23.765625 98.097656 28.859375 C 96.707031 31.414062 95.976562 34.191406 95.644531 37.070312 C 95.191406 40.921875 94.984375 45.007812 95.367188 48.894531 C 94.476562 49.199219 94.054688 49.492188 93.808594 50.902344 C 93.359375 53.449219 93.613281 56.214844 94.183594 58.726562 C 94.289062 59.1875 94.417969 59.628906 94.558594 60.054688 C 94.578125 60.03125 94.617188 60.023438 94.648438 60.054688 C 96.296875 61.855469 98.269531 63.140625 100.660156 63.6875 C 100.824219 63.726562 100.992188 63.898438 100.980469 64.074219 C 100.617188 69.253906 103.097656 73.746094 106.171875 77.726562 C 107.664062 79.65625 109.257812 81.859375 111.160156 83.394531 C 113.445312 85.238281 116.503906 85.660156 119.363281 85.710938 C 124.816406 85.820312 129.4375 80.371094 132.480469 76.277344 C 134.199219 73.957031 135.335938 71.425781 135.753906 68.558594 C 135.808594 68.148438 135.851562 67.738281 135.878906 67.324219 C 136.335938 66.527344 136.726562 65.695312 137.046875 64.84375 C 137.242188 70.328125 134.652344 75.546875 130.945312 79.5625 C 128.898438 81.769531 126.621094 84.433594 123.871094 85.792969 C 121.144531 87.148438 117.777344 86.816406 114.886719 86.179688 C 111.757812 85.496094 109.824219 83.597656 107.800781 81.242188 C 105.582031 78.664062 103.421875 75.976562 101.882812 72.925781 C 101.148438 71.457031 100.542969 69.90625 100.238281 68.285156 C 100.074219 67.410156 100.441406 65.542969 100.070312 64.816406 C 99.605469 63.914062 97.882812 63.535156 97.039062 62.9375 C 95.96875 62.191406 95.3125 61.386719 94.640625 60.3125 C 94.863281 60.941406 95.117188 61.527344 95.429688 62.035156 C 93.535156 63.832031 91.890625 66.042969 91.070312 68.496094 C 89.613281 72.863281 90.558594 77.261719 87.445312 81.050781 C 85.464844 83.46875 84.355469 85.597656 84.183594 88.796875 C 83.960938 92.996094 84.980469 97.09375 83.1875 101.097656 C 83.066406 101.367188 83.457031 101.574219 83.652344 101.398438 C 84.339844 100.769531 84.949219 100.121094 85.4375 99.394531 C 85.335938 100.484375 85.21875 101.570312 84.929688 102.632812 C 84.597656 103.835938 84.015625 104.960938 83.777344 106.1875 C 83.507812 107.578125 83.742188 108.847656 84.785156 109.839844 C 84.941406 109.988281 85.257812 109.960938 85.308594 109.714844 C 85.917969 106.746094 87.609375 105.046875 90.007812 103.652344 C 91.472656 103.335938 92.832031 102.746094 93.816406 101.542969 C 94.390625 100.839844 94.910156 100.074219 95.390625 99.277344 C 95.613281 99.011719 95.828125 98.746094 96.0625 98.484375 C 98.113281 96.160156 100.183594 93.851562 102.238281 91.53125 C 103.257812 90.382812 104.324219 89.257812 105.292969 88.066406 C 105.652344 87.628906 105.957031 87.15625 106.261719 86.691406 L 106.335938 86.617188 C 105.808594 87.269531 105.011719 89.253906 104.644531 89.796875 C 104.191406 90.472656 103.714844 91.140625 103.226562 91.816406 C 101.917969 93.273438 100.597656 94.726562 99.28125 96.183594 C 95.636719 100.226562 92.628906 104.070312 90.59375 109 C 90.730469 109.371094 90.925781 109.726562 91.21875 110.058594 C 90.792969 110.042969 90.390625 110.207031 90.03125 110.480469 C 89.976562 110.625 89.921875 110.761719 89.871094 110.914062 C 89.84375 110.996094 89.71875 110.976562 89.734375 110.882812 C 89.738281 110.820312 89.753906 110.761719 89.765625 110.699219 C 88.949219 111.46875 88.378906 112.769531 88.304688 113.746094 C 88.125 116.015625 88.535156 118.40625 88.726562 120.660156 C 88.957031 123.421875 89.226562 126.1875 89.605469 128.9375 C 90.335938 134.285156 91.660156 139.460938 93.195312 144.632812 C 93.613281 146.058594 94.714844 148.703125 96.191406 148.398438 C 96.324219 151.308594 97.070312 154.371094 97.660156 156.933594 C 98.636719 161.175781 100.570312 165.222656 101.214844 169.527344 C 101.863281 173.820312 100.867188 178.183594 101.898438 182.445312 C 102.085938 183.207031 102.328125 183.9375 102.601562 184.644531 C 103.253906 187.84375 104.847656 191.132812 105.992188 194.019531 C 107.492188 197.789062 109.136719 201.5 110.949219 205.136719 C 112.863281 208.96875 114.925781 212.726562 117.144531 216.394531 C 118.4375 218.53125 119.804688 221.277344 121.496094 223.511719 C 120.816406 225.503906 120.203125 227.519531 119.65625 229.546875 C 119.238281 230.136719 118.820312 230.738281 118.472656 231.378906 C 117.722656 232.066406 117.410156 233.171875 117.21875 234.210938 C 116.761719 236.789062 116.78125 239.507812 116.773438 242.113281 C 116.769531 242.300781 116.882812 242.421875 117.023438 242.492188 C 117.089844 242.59375 117.183594 242.683594 117.289062 242.765625 C 120.601562 238.976562 124.058594 235.3125 127.523438 231.660156 C 126.644531 232.742188 125.945312 234.144531 125.253906 235.144531 C 122.046875 238.523438 118.804688 241.863281 115.429688 245.074219 C 115.414062 245.085938 115.398438 245.089844 115.382812 245.089844 C 113.386719 247.511719 111.535156 250.113281 109.617188 252.484375 C 106.476562 256.359375 103.296875 260.207031 100.203125 264.121094 C 97.25 267.851562 94.273438 271.617188 91.488281 275.472656 C 90.183594 277.269531 88.957031 279.160156 87.863281 281.097656 C 87.332031 282.046875 86.824219 283.03125 86.421875 284.054688 C 86.136719 283.289062 85.871094 282.515625 85.726562 281.683594 C 85.355469 279.519531 85.480469 277.320312 85.402344 275.132812 C 85.296875 272.21875 83.792969 270.289062 81.472656 268.550781 C 81.316406 268.433594 81.058594 268.386719 80.898438 268.519531 C 80.316406 269.015625 80.339844 268.949219 80.121094 269.28125 C 77.1875 269.324219 76.648438 273.324219 76.289062 275.664062 C 75.507812 280.757812 75.007812 286.066406 76.328125 291.121094 C 77.257812 294.695312 79.050781 298.125 81.890625 300.546875 C 84.265625 302.574219 87.804688 303.894531 90.332031 301.664062 C 90.570312 301.742188 90.839844 301.683594 91.019531 301.398438 C 97.039062 292.105469 102.367188 282.40625 108.554688 273.214844 C 114.945312 263.742188 121.898438 254.667969 128.847656 245.597656 C 129.011719 245.582031 129.175781 245.5 129.316406 245.324219 C 129.59375 244.980469 129.855469 244.617188 130.097656 244.25 C 131.914062 244.257812 134.125 242.9375 135.492188 242.113281 C 136.289062 241.636719 137.246094 241.113281 137.824219 240.359375 C 138.320312 239.710938 138.148438 238.625 138.328125 237.878906 C 140.195312 236.4375 142.429688 234.273438 143.210938 232.257812 C 143.941406 230.359375 143.21875 228.144531 143.011719 226.085938 C 144.53125 224.394531 145.839844 222.40625 147.191406 220.707031 C 148.738281 218.753906 150.308594 216.824219 151.898438 214.90625 C 152.351562 215.636719 153.027344 216.171875 153.957031 216.265625 C 154.664062 216.339844 155.371094 216.101562 156.019531 215.886719 C 156.757812 215.636719 158.207031 215.335938 158.800781 214.859375 C 159.109375 214.609375 159.3125 214.191406 159.464844 213.710938 C 159.957031 213.214844 160.40625 212.476562 160.703125 212.109375 C 161.082031 211.636719 161.4375 211.140625 161.792969 210.648438 C 162.621094 210.984375 163.210938 211.652344 164.15625 211.765625 C 164.972656 211.867188 165.847656 211.601562 166.628906 211.414062 C 168.453125 210.976562 170.921875 210.578125 172.261719 209.105469 C 173.289062 207.972656 173.511719 206.480469 173.460938 205.003906 C 173.398438 203.039062 173.183594 200.964844 172.9375 198.976562 C 173.023438 199.015625 173.117188 199.039062 173.210938 199.070312 C 172.847656 194.765625 177.472656 190.4375 180.507812 187.746094 C 186.3125 182.597656 192.292969 177.648438 197.867188 172.238281 C 203.257812 167.003906 209.085938 161.011719 212.4375 154.191406 C 214.570312 149.851562 212.46875 144.308594 211.125 139.957031 C 209.898438 135.96875 208.40625 132.066406 206.925781 128.171875 C 203.816406 120.015625 200.710938 111.863281 197.601562 103.714844 C 197.398438 103.183594 198.234375 102.917969 198.4375 103.441406 C 201.886719 112.496094 205.375 121.539062 208.785156 130.601562 C 210.203125 134.355469 211.566406 138.132812 212.640625 141.996094 C 213.511719 145.117188 214.820312 148.949219 214.113281 152.21875 C 213.464844 155.214844 211.222656 158.007812 209.457031 160.445312 C 207.332031 163.375 204.988281 166.144531 202.503906 168.78125 C 197.480469 174.105469 191.929688 178.894531 186.398438 183.679688 C 182.679688 186.894531 173.230469 193.199219 173.695312 199.242188 C 174.652344 199.554688 175.640625 199.792969 176.621094 200 C 176.863281 200.089844 177.101562 200.15625 177.335938 200.222656 C 177.824219 200.683594 178.523438 200.90625 179.171875 201.078125 C 179.394531 201.140625 179.65625 200.960938 179.738281 200.761719 C 179.847656 200.503906 179.96875 200.238281 180.074219 199.96875 C 180.320312 199.410156 180.566406 198.855469 180.824219 198.320312 C 183.210938 193.265625 186.382812 188.648438 189.726562 184.171875 C 189.792969 184.109375 189.859375 184.039062 189.929688 183.972656 C 190.347656 183.578125 190.769531 183.195312 191.1875 182.804688 C 187.996094 187.546875 184.910156 192.363281 182.359375 197.484375 C 180.71875 200.777344 179.320312 204.1875 178.378906 207.75 C 178.113281 208.761719 177.910156 209.78125 177.734375 210.800781 C 177.71875 210.972656 177.699219 211.148438 177.679688 211.320312 C 177.398438 213.882812 177.382812 216.457031 177.507812 219.03125 C 177.582031 220.65625 177.503906 222.417969 177.964844 223.996094 C 177.011719 224.582031 176.484375 225.789062 176.328125 227.09375 C 176.144531 228.703125 176.339844 230.371094 176.242188 231.992188 C 176.117188 234.117188 175.6875 236.230469 175.230469 238.308594 C 173.496094 246.167969 171.648438 253.832031 170.675781 261.84375 C 168.894531 276.46875 167.675781 292.59375 159.617188 305.414062 C 157.347656 305.890625 156.148438 310.265625 155.449219 311.867188 C 154.511719 314.015625 153.664062 316.25 152.492188 318.28125 C 151.117188 320.65625 148.992188 322.042969 146.96875 323.785156 C 145.480469 325.070312 144.339844 326.65625 142.953125 328.03125 C 140.53125 330.429688 137.242188 330.738281 134.109375 331.488281 C 131.09375 332.214844 128.253906 333.539062 126.796875 336.402344 C 126.734375 336.527344 126.734375 336.648438 126.773438 336.75 C 125.796875 338.75 124.941406 341.449219 125.644531 343.199219 C 126.601562 345.566406 131.515625 345.324219 133.457031 345.542969 C 137.832031 346.054688 142.253906 346.234375 146.652344 346.140625 C 149.929688 346.066406 153.546875 346.121094 156.894531 345.621094 C 158.414062 346.160156 159.71875 345.957031 161.226562 345.371094 C 162.464844 344.890625 163.574219 344.140625 164.925781 343.980469 C 166.382812 343.804688 167.992188 344.246094 169.417969 344.515625 C 173.410156 345.265625 177.476562 346.175781 181.226562 344.207031 C 182.0625 344.238281 182.898438 344.28125 183.738281 344.339844 C 184.433594 344.0625 185.0625 343.660156 185.507812 343.019531 C 186.277344 341.90625 186.582031 340.71875 186.640625 339.492188 C 187.375 336.371094 185.476562 331.429688 185.285156 329.121094 C 184.976562 325.449219 185.675781 321.070312 184.257812 317.542969 C 184.445312 317.464844 184.574219 317.253906 184.511719 317.042969 C 184.507812 317.035156 184.507812 317.03125 184.5 317.019531 C 184.335938 316.941406 184.179688 316.816406 184.050781 316.640625 C 183.621094 316.039062 183.324219 315.375 183.164062 314.664062 C 183.125 314.613281 183.089844 314.5625 183.050781 314.507812 C 183.007812 314.542969 182.960938 314.574219 182.917969 314.613281 C 182.695312 314.328125 182.484375 314.019531 182.300781 313.660156 C 181.417969 311.925781 182.550781 310.054688 183.175781 308.277344 C 184.324219 305.039062 185.367188 301.765625 186.550781 298.539062 C 188.925781 292.027344 191.71875 285.707031 195.136719 279.675781 C 198.375 273.960938 200.136719 268.058594 201.886719 261.765625 C 203.070312 257.5 204.507812 252.867188 205.289062 248.261719 C 205.316406 248.304688 205.347656 248.355469 205.378906 248.40625 C 205.695312 245.960938 205.949219 243.511719 206.070312 241.023438 C 206.203125 238.292969 206.246094 235.554688 206.269531 232.820312 C 206.285156 231.253906 207.003906 225.773438 204.269531 225.78125 C 204.035156 225.78125 203.742188 225.609375 203.757812 225.339844 C 203.984375 219.714844 207.753906 214.652344 211.152344 210.40625 C 215.132812 205.4375 219.804688 200.949219 224.71875 196.90625 C 224.765625 196.867188 224.832031 196.945312 224.792969 196.992188 C 220.5625 201.550781 216.019531 205.800781 212.105469 210.652344 C 209.914062 213.375 207.839844 216.285156 206.292969 219.433594 C 205.8125 220.414062 204.046875 223.777344 204.710938 224.824219 C 204.804688 224.96875 205.679688 225.171875 205.890625 225.355469 C 207.132812 226.386719 207.238281 228.398438 207.246094 229.859375 C 207.265625 233.074219 207.195312 236.300781 207.070312 239.511719 C 206.929688 242.925781 206.757812 246.433594 206.265625 249.867188 C 207.441406 251.757812 208.730469 253.582031 209.914062 255.398438 C 212.253906 258.996094 214.59375 262.730469 217.46875 265.925781 C 219.417969 268.09375 221.605469 270.015625 223.875 271.832031 C 225.050781 273.59375 226.664062 275.132812 228.101562 276.597656 C 229.875 278.402344 231.597656 280.339844 233.496094 282.035156 C 233.503906 282.035156 233.507812 282.035156 233.507812 282.035156 C 233.792969 282.117188 234.074219 282.210938 234.359375 282.300781 C 239.480469 287.035156 246.761719 286.835938 253.484375 285.082031 C 256.195312 284.371094 258.121094 284.464844 260.859375 284.859375 C 262.847656 285.144531 264.789062 285.152344 266.78125 285.042969 C 271.378906 284.804688 275.984375 284.308594 280.550781 283.730469 C 289.734375 282.574219 298.871094 280.957031 308.109375 280.3125 C 312.730469 279.992188 317.300781 280.324219 321.910156 280.183594 C 323.148438 280.148438 324.835938 279.867188 325.925781 279.0625 C 327.855469 279.738281 329.863281 280.167969 331.871094 280.550781 C 331.753906 281.28125 331.628906 282.019531 331.507812 282.75 C 331.421875 283.265625 331.84375 283.832031 332.40625 283.757812 C 335.699219 283.332031 337.21875 285.96875 339.125 287.992188 C 340.40625 289.355469 341.660156 290.023438 343.34375 290.804688 C 347.316406 292.640625 349.078125 296.308594 351.457031 299.804688 C 353.832031 303.300781 356.3125 306.742188 358.699219 310.238281 C 360.234375 312.484375 361.988281 314.589844 364.449219 314.664062 C 366.765625 315.78125 370.90625 314.96875 372.355469 313.40625 C 373.523438 312.152344 373.910156 309.648438 374.242188 308.0625 C 374.71875 305.753906 374.921875 303.394531 374.886719 301.042969 C 374.808594 295.699219 373.523438 290.410156 371.777344 285.382812 Z M 11.777344 335.464844 C 5.328125 335.464844 0.101562 340.691406 0.101562 347.140625 C 0.101562 353.589844 5.328125 358.8125 11.777344 358.8125 C 18.226562 358.8125 23.449219 353.589844 23.449219 347.140625 C 23.449219 340.691406 18.226562 335.464844 11.777344 335.464844 " fill-opacity="1" fill-rule="nonzero"/></g></svg>