<svg xmlns="http://www.w3.org/2000/svg" xmlns:xlink="http://www.w3.org/1999/xlink" width="500" zoomAndPan="magnify" viewBox="0 0 375 374.999991" height="500" preserveAspectRatio="xMidYMid meet" version="1.0"><defs><clipPath id="4fcd217cb9"><path d="M 9 84.84375 L 373 84.84375 L 373 290 L 9 290 Z M 9 84.84375 " clip-rule="nonzero"/></clipPath></defs><g clip-path="url(#4fcd217cb9)"><path fill="#e81d20" d="M 370.019531 115.929688 C 368.242188 115.730469 355.046875 118.167969 346.160156 123.792969 C 337.273438 129.421875 332.734375 131.792969 328.089844 132.976562 C 323.449219 134.160156 315.550781 139.492188 315.75 143.144531 C 315.945312 146.800781 323.417969 153.84375 324.40625 155.289062 C 325.390625 156.738281 326.839844 158.976562 326.839844 158.976562 C 326.839844 158.976562 316.636719 187.527344 313.972656 198.335938 C 311.304688 209.148438 309.972656 216.703125 309.972656 216.703125 C 309.972656 216.703125 297.679688 207.816406 286.425781 200.113281 C 275.171875 192.414062 264.507812 182.933594 258.582031 177.898438 C 252.660156 172.863281 251.472656 172.863281 251.472656 172.863281 C 251.472656 172.863281 271.171875 159.535156 274.578125 153.90625 C 277.984375 148.277344 281.09375 142.355469 284.945312 140.429688 C 288.796875 138.503906 297.1875 127.445312 300.25 121.917969 C 303.308594 116.386719 308.34375 114.808594 308.34375 114.808594 C 308.34375 114.808594 309.167969 116.488281 310.847656 116.222656 C 312.523438 115.960938 314.105469 112.734375 316.769531 112.242188 C 319.4375 111.746094 324.585938 111.15625 328.289062 111.453125 C 331.992188 111.746094 335.003906 111.058594 335.992188 110.316406 C 336.976562 109.574219 337.769531 107.996094 334.90625 102.8125 C 332.039062 97.628906 329.128906 96.542969 327.351562 92.988281 C 325.574219 89.433594 321.871094 84.84375 320.441406 84.894531 C 319.007812 84.941406 317.578125 86.917969 316.636719 87.410156 C 315.699219 87.90625 311.308594 90.71875 310.46875 91.507812 C 309.628906 92.296875 309.53125 93.777344 309.53125 93.777344 C 309.53125 93.777344 305.085938 96.742188 303.605469 98.519531 C 302.125 100.296875 301.386719 101.824219 301.386719 101.824219 C 301.386719 101.824219 285.441406 108.886719 279.023438 113.328125 C 272.605469 117.773438 266.878906 124.386719 263.027344 129.621094 C 259.175781 134.851562 254.339844 140.183594 244.664062 143.34375 C 234.988281 146.503906 230.742188 146.996094 223.335938 151.242188 C 215.929688 155.488281 207.441406 159.535156 207.441406 159.535156 C 207.441406 159.535156 199.640625 152.425781 193.914062 154.597656 C 188.1875 156.769531 178.808594 161.214844 171.796875 163.683594 C 164.789062 166.152344 161.925781 166.546875 158.171875 166.050781 C 154.421875 165.558594 144.84375 165.753906 141.683594 167.039062 C 138.523438 168.320312 136.945312 170.199219 136.945312 170.199219 C 136.945312 170.199219 143.363281 156.574219 130.03125 146.105469 C 130.03125 146.105469 130.871094 146.105469 130.871094 144.675781 C 130.871094 144.675781 138.03125 140.675781 141.191406 147.09375 C 144.351562 153.511719 147.214844 156.277344 152.546875 156.277344 C 157.878906 156.277344 162.914062 151.832031 162.914062 151.832031 C 162.914062 151.832031 153.828125 154.101562 150.570312 146.699219 C 147.3125 139.292969 139.019531 135.738281 129.9375 140.972656 C 129.9375 140.972656 126.347656 139.425781 125.886719 141.53125 C 125.886719 141.53125 116.855469 138.652344 106.78125 142.503906 C 96.710938 146.355469 96.5625 154.5 96.5625 154.5 C 96.5625 154.5 95.871094 158.511719 94.226562 160.160156 C 92.582031 161.804688 93.898438 163.777344 94.226562 165.621094 C 94.554688 167.464844 94.753906 174.375 94.753906 174.375 C 94.753906 174.375 88.5 181.089844 88.234375 182.011719 C 87.972656 182.933594 88.367188 184.050781 88.367188 184.050781 C 88.367188 184.050781 83.824219 192.015625 79.679688 196.855469 C 75.53125 201.691406 68.523438 209.789062 62.300781 213.9375 C 56.082031 218.082031 45.320312 232.300781 39.691406 238.324219 C 34.0625 244.347656 22.019531 257.871094 19.453125 260.441406 C 16.882812 263.007812 13.527344 265.96875 11.554688 267.84375 C 9.578125 269.722656 9.382812 270.90625 9.480469 273.867188 C 9.578125 276.828125 10.863281 280.1875 10.863281 281.175781 C 10.863281 282.160156 11.453125 283.347656 11.75 284.136719 C 12.046875 284.925781 14.710938 286.703125 14.710938 286.703125 C 14.710938 286.703125 14.21875 289.664062 15.007812 289.863281 C 15.796875 290.058594 17.675781 287.195312 17.675781 287.195312 C 17.675781 287.195312 21.523438 286.210938 22.117188 286.210938 C 22.710938 286.210938 24.09375 288.085938 25.375 287.394531 C 26.660156 286.703125 28.238281 285.617188 28.730469 285.617188 C 29.226562 285.617188 30.609375 284.726562 31.496094 283.542969 C 32.386719 282.359375 33.175781 280.1875 33.964844 276.535156 C 34.753906 272.878906 34.65625 271.894531 34.65625 271.894531 C 34.65625 271.894531 47.195312 262.511719 57.957031 256.886719 C 68.71875 251.257812 80.074219 244.839844 80.765625 244.347656 C 81.457031 243.851562 94.785156 234.867188 97.847656 233.089844 C 100.90625 231.3125 119.863281 222.820312 122.332031 221.636719 C 124.800781 220.453125 125.589844 219.664062 125.589844 219.664062 C 125.589844 219.664062 134.574219 220.453125 135.265625 220.648438 C 135.957031 220.847656 138.03125 218.773438 138.03125 218.773438 C 138.03125 218.773438 147.804688 221.441406 152.445312 220.550781 C 157.085938 219.664062 172.785156 217.195312 177.523438 216.304688 C 182.261719 215.417969 208.625 215.320312 214.945312 215.714844 C 221.265625 216.109375 232.421875 216.996094 235.578125 217.984375 C 238.738281 218.972656 251.277344 225.488281 259.078125 230.128906 C 266.878906 234.769531 286.824219 246.914062 304.101562 250.46875 C 321.378906 254.023438 330.660156 251.058594 334.410156 241.382812 C 338.164062 231.707031 339.152344 210.777344 339.742188 193.792969 C 340.335938 176.8125 341.371094 164.273438 343.59375 157.460938 C 343.59375 157.460938 347.394531 158.695312 348.234375 157.015625 C 349.074219 155.339844 351.492188 145.21875 353.765625 140.628906 C 356.035156 136.035156 365.347656 128.300781 370.152344 124.8125 C 374.957031 121.324219 371.800781 116.125 370.023438 115.925781 Z M 113.707031 201.5625 C 113.050781 202.550781 109.429688 206.433594 107.585938 207.75 C 105.746094 209.066406 100.875 212.292969 95.738281 214.664062 C 90.605469 217.03125 78.496094 222.957031 78.496094 222.957031 C 78.496094 222.957031 85.472656 215.253906 87.25 212.558594 C 89.023438 209.859375 94.816406 203.40625 97.910156 200.117188 C 101.003906 196.824219 105.546875 193.074219 106.007812 193.007812 C 106.46875 192.941406 107.058594 193.207031 107.652344 194.128906 C 108.246094 195.050781 113.773438 197.484375 113.773438 197.484375 L 114.496094 199.457031 C 114.496094 199.457031 114.367188 200.578125 113.707031 201.566406 Z M 113.707031 201.5625 " fill-opacity="1" fill-rule="nonzero"/></g><path fill="#e81d20" d="M 45.023438 218.925781 C 45.023438 219.664062 44.984375 220.398438 44.914062 221.132812 C 44.839844 221.867188 44.734375 222.59375 44.589844 223.316406 C 44.445312 224.039062 44.265625 224.753906 44.054688 225.460938 C 43.839844 226.164062 43.589844 226.859375 43.308594 227.539062 C 43.027344 228.222656 42.710938 228.886719 42.363281 229.535156 C 42.015625 230.1875 41.636719 230.820312 41.226562 231.429688 C 40.820312 232.042969 40.378906 232.636719 39.914062 233.207031 C 39.445312 233.777344 38.949219 234.320312 38.429688 234.84375 C 37.90625 235.363281 37.363281 235.859375 36.792969 236.328125 C 36.222656 236.792969 35.628906 237.234375 35.015625 237.640625 C 34.40625 238.050781 33.773438 238.429688 33.121094 238.777344 C 32.472656 239.125 31.808594 239.441406 31.125 239.722656 C 30.445312 240.003906 29.75 240.253906 29.046875 240.46875 C 28.339844 240.679688 27.625 240.859375 26.902344 241.003906 C 26.179688 241.148438 25.453125 241.253906 24.71875 241.328125 C 23.984375 241.398438 23.25 241.4375 22.511719 241.4375 C 21.773438 241.4375 21.039062 241.398438 20.304688 241.328125 C 19.570312 241.253906 18.84375 241.148438 18.121094 241.003906 C 17.394531 240.859375 16.683594 240.679688 15.976562 240.46875 C 15.269531 240.253906 14.578125 240.003906 13.894531 239.722656 C 13.214844 239.441406 12.550781 239.125 11.898438 238.777344 C 11.25 238.429688 10.617188 238.050781 10.003906 237.640625 C 9.390625 237.234375 8.800781 236.792969 8.230469 236.328125 C 7.660156 235.859375 7.113281 235.363281 6.59375 234.84375 C 6.070312 234.320312 5.578125 233.777344 5.109375 233.207031 C 4.640625 232.636719 4.203125 232.042969 3.792969 231.429688 C 3.382812 230.820312 3.003906 230.1875 2.65625 229.535156 C 2.308594 228.886719 1.996094 228.222656 1.714844 227.539062 C 1.429688 226.859375 1.183594 226.164062 0.96875 225.460938 C 0.753906 224.753906 0.578125 224.039062 0.433594 223.316406 C 0.289062 222.59375 0.179688 221.867188 0.109375 221.132812 C 0.0351562 220.398438 0 219.664062 0 218.925781 C 0 218.1875 0.0351562 217.453125 0.109375 216.71875 C 0.179688 215.984375 0.289062 215.257812 0.433594 214.535156 C 0.578125 213.808594 0.753906 213.097656 0.96875 212.390625 C 1.183594 211.683594 1.429688 210.992188 1.714844 210.308594 C 1.996094 209.628906 2.308594 208.964844 2.65625 208.3125 C 3.003906 207.664062 3.382812 207.03125 3.792969 206.417969 C 4.203125 205.804688 4.640625 205.214844 5.109375 204.644531 C 5.578125 204.074219 6.070312 203.527344 6.59375 203.007812 C 7.113281 202.484375 7.660156 201.992188 8.230469 201.523438 C 8.800781 201.054688 9.390625 200.617188 10.003906 200.207031 C 10.617188 199.796875 11.25 199.417969 11.898438 199.070312 C 12.550781 198.722656 13.214844 198.410156 13.894531 198.128906 C 14.578125 197.84375 15.269531 197.597656 15.976562 197.382812 C 16.683594 197.167969 17.394531 196.992188 18.121094 196.847656 C 18.84375 196.703125 19.570312 196.59375 20.304688 196.523438 C 21.039062 196.449219 21.773438 196.414062 22.511719 196.414062 C 23.25 196.414062 23.984375 196.449219 24.71875 196.523438 C 25.453125 196.59375 26.179688 196.703125 26.902344 196.847656 C 27.625 196.992188 28.339844 197.167969 29.046875 197.382812 C 29.75 197.597656 30.445312 197.84375 31.125 198.128906 C 31.808594 198.410156 32.472656 198.722656 33.121094 199.070312 C 33.773438 199.417969 34.40625 199.796875 35.015625 200.207031 C 35.628906 200.617188 36.222656 201.054688 36.792969 201.523438 C 37.363281 201.992188 37.90625 202.484375 38.429688 203.007812 C 38.949219 203.527344 39.445312 204.074219 39.914062 204.644531 C 40.378906 205.214844 40.820312 205.804688 41.226562 206.417969 C 41.636719 207.03125 42.015625 207.664062 42.363281 208.3125 C 42.710938 208.964844 43.027344 209.628906 43.308594 210.308594 C 43.589844 210.992188 43.839844 211.683594 44.054688 212.390625 C 44.265625 213.097656 44.445312 213.808594 44.589844 214.535156 C 44.734375 215.257812 44.839844 215.984375 44.914062 216.71875 C 44.984375 217.453125 45.023438 218.1875 45.023438 218.925781 Z M 45.023438 218.925781 " fill-opacity="1" fill-rule="nonzero"/></svg>