<svg xmlns="http://www.w3.org/2000/svg" width="500" viewBox="0 0 375 375" height="500" version="1.0">
  <defs>
    <clipPath id="a">
      <path d="M229 85h145.78v213H229Zm0 0"/>
    </clipPath>
  </defs>
  <path d="M47.59 107.2c.42.8.91 1.58 1.4 2.07.6.57 2.51 1.15 2.84 1.52.62.7.94 2.94 1.36 3.86a26.6 26.6 0 0 0 2.74 4.62 101.15 101.15 0 0 0-7.25 8.37 78.47 78.47 0 0 1-2.18-18.58 6 6 0 0 0 1.09-1.87Zm151.2-4.22c-3.26.53-5.6 3.4-8.66 4.47-5.38 1.9-13.18 1.93-18.82.9-8.68-1.6-16.58-6.28-25.76-5.17-4.82.58-9.5 2.3-14.3 3.12-6.54 1.09-13.46-2.55-19.84-3.96a50.96 50.96 0 0 0-17.02-.98c-1 .11-10.85 1.66-14.09 2.84.98-2.08 1.15-4.83 1.3-6.88.23-2.84-.53-4.41-2.75-4.94-.93-7.28-3.4-15.18-11.65-16.18-5.88-.72-14.4 1.3-17.65 6.69-1.7 2.83-1.65 6.19-1.74 9.47-1.56-3.28-5.57-6.2-8.4-7.2a1.78 1.78 0 0 0-2.21.78c-3.75 1.77-7.38 3.78-9.54 7.47a1.9 1.9 0 0 0 .29 2.42c.92 2.6 1.95 5.17 3.05 7.69-.05.18-.1.36-.13.57-1.2 9.57-1.5 19.19-1.39 28.83.08 7.23-.28 15.28 3 21.95 4.98 10.14 15.96 11.99 23.06 4.58a23.39 23.39 0 0 0 2.84 7.04c.87 1.4 1.92 2.74 3.07 3.95 1.17 1.22 4.09 2.96 5.07 4.74a7.12 7.12 0 0 0-3.67 5.1c-9.35 3.67-17 9.82-25 15.75-6.79 5.04-17.32 8.43-21.98 15.76-4.78 7.54-2.58 16.97.65 24.58a128.96 128.96 0 0 1 6.4 18.4c.77 3.03 2.01 6.28 2.16 9.44.24 5.06-1.26 4.63-4.47 6.85-3.25 2.25-5.78 4.13-9.5 5.82-3.04 1.39-6.66 3.33-8.04 6.64-2.6 6.19 2.43 11.36 8.17 12.46 10.02 1.93 22.15-1.03 31.9-3.33 6.86-1.61 9.2-5.08 7.25-11.9-.7-2.47-1.62-4.59-1.87-7.2-.23-2.15.12-3.85-.96-5.88a7.8 7.8 0 0 0-2.54-2.81c-1.7-1.12-1.9-.76-2.17-1.72.02 0 .43-2.64.44-2.99.07-2.04-.56-4.16-.63-6.2-.12-3.41.26-6.83.22-10.23a47.97 47.97 0 0 0-2.94-16.06c1.36-.63 2.9-1.2 4.22-1.43 4.43-.75 5.2.43 8.25 2.73 4 3.03 7.86 6.2 11.98 9.06.88.59 2.46.23 2.9-.76 3.15-7.25 13.15-12.76 19.4-16.96a33.58 33.58 0 0 1 11.77-5.18c5.11-1.07 8.51 1.85 13.1 4.08 4.06 2 6.88 3.24 10.25 6.21 2.14 1.9 4.55 3.35 6.92 4.94 2.95 1.97 5.06 5.24 8.52 3.72 4.7-2.05 10.5-7.64 15.78-6.07 3.16.94 6.14 2.02 9.4 2.64 4.03.76 4.25.86 3.25 4.71-1.88 7.22 1.27 13.7 1.53 20.74.1 2.56.38 6.77-.86 9.04-.78 1.43-2.13 2.3-3.2 3.97-1.04 1.6-1.26 3.14-1.43 4.91-.2 2.12.4.85-.01 3.41-.09.6-.76 1.2-.94 1.8-1.24 3.96-1.78 9.8 2.5 11.73 1.7.78 4 .79 5.82 1.03 4.36.56 7.89 1.56 11.98 3.13 5.08 1.94 11.66 4.64 17.05 2.65 7.7-2.88 15.17-9.13 6.86-16.08a54.67 54.67 0 0 0-6.77-4.88c-2.48-1.47-5.5-1.86-7.92-3.28-7.65-4.45-4.33-9.76-3.31-16 .57-3.5.36-6.95.66-10.44.71-8.33 5.14-17.46 3.18-25.92-1.52-6.54-8.47-10.62-13.04-14.76-2.45-2.24-4.4-5.03-7.08-6.97-3.39-2.46-7.32-4.03-10.74-6.52-6.04-4.43-13.13-9.57-20.21-12.5.37-3.12.24-6.44-2.92-8.13-1.56-.82-2.8-.12-4.3-.43-4.83-1.06-5.77-4.72-6.85-8.94-1.9-7.38-5.07-13.8-6.27-21.36a43 43 0 0 0-3.34-10.7c-.56-1.24-1.6-2.68-2.47-4.07 3.66.14 7.34.4 10.94-.27 6.8-1.3 12.35-3.12 19.48-1.87 8.55 1.5 18.37 2.97 26.97.98 7.14-1.64 11.37-4.28 18.94-2.24a30.13 30.13 0 0 0 10.64 1.1c3.62-.22 9.6-.3 12.34-3.07 3.34-3.39-.7-5.8-2.22-8.77-2.36-4.55-5.73-10.64-11.9-9.66"/>
  <path d="M41.5 268.02c-.07-.07-.13-.14-.22-.2-1.36-1.48-1.85-1.44-2.22-3.75-.39-2.36-.58-4.7-.7-7.02-3.2 1-6.47 1.57-9.81 1.7.54 2.66.87 5.34.79 7.96 2.97-.55 5.88 1.58 7.63 4.17.69-.46 1.5-.8 2.3-1.13a6.33 6.33 0 0 0 2.22-1.73Zm-11.56 13.09c1.15-.56 14.28-6.14 13.83-7.68-.16-.6.03-1.04.35-1.36a3.98 3.98 0 0 0-.67-1.89c-.57.65-1.1 1.32-1.9 1.76-1.18.66-2.88.8-3.54 2.1-.42.87-1.3.91-1.92.53-.32-.08-.62-.31-.81-.72-1.14-2.36-3.55-5.26-6.26-3.87-.1.57-.23 1.12-.37 1.66-.17.65-.77 1.37-1.47 1.48-4.23.66-8.92 5.1-13.05 7.02-1.79.82-4.3 1.6-5.7 3.09 2.54.76 4.57 2.52 8.05 2.16 4.02-.43 10.02-2.61 13.46-4.28Zm15.54 4.6c1.62-2.9.87-3.65-.08-6.59-.29-.88-.5-1.64-.65-2.42l-.96.62c-3.35 2.22-4.78 4.15-8.27 5.37-2.35.83-4.78 2.35-7.25 3.24-2.73 1-5.95.77-8.78 1.5-2.7.7-4.49 1.53-7.3 1.04-1.78-.33-3.56-1.96-5.41-2.43-2.26 6.2 7.93 6.04 10.67 6.01 6.76-.09 13.14-1.36 19.76-2.64 3.72-.72 6.34-.2 8.27-3.7Zm10.45-166.44a26.6 26.6 0 0 1-2.74-4.62c-.42-.92-.74-3.16-1.36-3.86-.33-.37-2.24-.95-2.84-1.52-.49-.5-.98-1.27-1.4-2.08a6 6 0 0 1-1.09 1.87c-.01 6.3.72 12.49 2.18 18.58 2.27-2.93 4.68-5.71 7.25-8.37Zm-8.65 102.08 8.24-2.55c-1.63-1.86-3.29-3.59-4.72-5.1a50.26 50.26 0 0 0-14.89-11.12c-2 1.37-4.03 2.69-6.14 3.88-4.4 2.51-8.75 4.34-11.03 9.18-4.88 10.4 3.39 21.12 6.36 30.84.9 2.99 1.95 6.14 2.78 9.34 3.55-.1 6.99-.7 10.39-1.81-.18-9.01.49-17.76-2.97-26.83-.32-.84.22-1.95.97-2.37 2.84-1.62 7.4-3.67 11-3.46Zm10.06-67.45a18.5 18.5 0 0 0-7.86-19.94c.06.25.13.5.18.77.22 1.01.38 1.72.7 2.14.32.45.86.8 1.38 1.07 1.07.52 1.9.86 1.85 1.2-.06.3-.88.58-2.34.4-.36-.06-.8-.15-1.25-.35.56 3.06.45 5.96-.17 8-.67 2.41-1.75 3.56-2 3.42-.31-.17.16-1.52.36-3.72.22-2.2.04-5.26-.8-8.58-.48-1.86-1.02-3.6-1.52-5.2a1.9 1.9 0 0 1-.23-.53 81.93 81.93 0 0 1-3.35-23.62c-.14.03-.26.06-.4.06-.43.04-.87-.03-1.3-.16a4.25 4.25 0 0 1-2.3 2.04c-1.13.37-1.82.04-1.82-.2 0-.3.55-.52 1.14-1.07.59-.51 1.26-1.51 1.2-2.56l-.11-2.82 2.16 2.15c.14.15.45.28.85.26.54-.03 1.02-.4 1.38-.98.37-.56.55-1.2.68-1.82l.03-.2c-.03-.28-.09-.56-.13-.83-.34-1.76-.82-3.38-.87-5.18-.03-.72.25-1.25.69-1.6.04-.04.07-.09.13-.13 2.14-2-2.16-5.1-4.43-6.27-2.67 1.24-5.42 2.58-7.23 4.93.94 2.69 2 5.33 3.16 7.93.34.74.24 1.46-.1 2.04-1.25 10.3-1.48 20.63-1.29 31 .1 5.17-.03 10.63 1.74 15.57 2.14 5.98 7.32 9.37 12.19 8.3 1.4-1.03 3.17-2.49 4.61-4.6 3.03-4.3 3.05-8.9 3.73-8.9.3-.03.74 1.12.69 3.07a13.4 13.4 0 0 1-1.09 4.64c.42-.03.8.05 1.17.2.2 0 .38.03.57.07Zm6.07 78.03c-.87-3.7-3.17-7.36-5.84-10.67l-5.53 1.7c3.89 2.18 7.87 6 11.37 8.97ZM74.36 90.66l.01-.07c-.64-3.63-1.94-7.43-4.92-9.17-3-1.76-6.99-1.16-10.22-.17a9.14 9.14 0 0 0-5.05 3.4c.44-.03.82.06 1.12.13a13.37 13.37 0 0 0 8.6-.16c.6-.2 1.18-.5 1.9-.75a5.3 5.3 0 0 1 2.48-.3c1.7.24 3 1.24 3.83 2.32a12.4 12.4 0 0 1 1.73 3.22c.21.53.38 1.05.52 1.55Zm2.26 12.11c.1-.04.63-6.4.35-6.4-.3 0-.58-.07-.81-.17-.32 1.85-.76 3.1-1.21 3.08-.43-.01-.76-1.27-.86-3.08-.21-.95-.49-2.2-.98-3.7-.28-.8-.63-1.7-1.07-2.6-.45-.92-.95-1.86-1.61-2.61A3.93 3.93 0 0 0 68 85.87c-.83-.14-1.82.42-3.27.99a14.49 14.49 0 0 1-9.98-.08c-.48-.14-.52-.14-.75-.04-.46.25-1.04 1.27-1.47 1.96a33.73 33.73 0 0 0-.59 4.2c.07.68.14 1.44.19 2.24.16 3.17.05 5.8-.6 5.9-.18.03-.38-.15-.58-.49-.33 1.88-.46 3.77.93 5.29.93 1.01 2.3.8 3.19 1.73.62.64.62 1.55.95 2.3.86 1.93 1.55 3.67 2.46 5.39 3.5 3.85 9.4 5.2 13.28.94 2.67-2.93 3.02-7.18 3.28-10.98 0-.13 0-.27.02-.4.11-1.05.6-1.64 1.56-2.05Zm-2.4 18.74c3.24-3.26 4.21-7.6 3.27-11.87-.76 4.59-2.45 9.02-6.95 11.14a10.82 10.82 0 0 1-9.04.14c1.34 1.84 3.37 3.26 5.4 3.48 2.87.31 5.29-.85 7.32-2.89Zm53.64 53.92c-.25-.2-.5-.46-.88-.88-.25-.04-.5-.1-.78-.16-1.9-.44-4.49-1.12-7.23-.99-2.73.14-5.2 1.15-7.03 1.82-1.83.7-3.04 1.08-3.2.78-.15-.28.74-1.16 2.44-2.27a15.82 15.82 0 0 1 7.67-2.7c2.3-.1 4.32.38 5.97.97-2.48-3.46-2.58-6.34-3.97-11.14-.94-3.24-2.69-6.1-3.83-9.24a28.37 28.37 0 0 1-1.3 3.57 27.1 27.1 0 0 1-3.43 5.48 22.04 22.04 0 0 1-3.76 3.69c-2.39 1.8-4.17 2.4-4.3 2.14-.2-.3 1.24-1.4 3.2-3.41.98-.99 2.05-2.26 3.13-3.74a34.81 34.81 0 0 0 3-5.16c.88-1.92 1.5-3.85 1.96-5.62.16-.63.27-1.23.38-1.82-.24-1.79-.4-3.6-.73-5.42-.63-3.27-2.08-6-3.55-8.7-12.6-2.74-18.76-14.43-21.96-25.96-1.03.25-2.65.67-4.43 1.04.5 1.72.88 3.62 1.09 5.63.48 4.54.13 8.6-.25 11.5-.4 2.9-.84 4.66-1.17 4.63-.33-.02-.46-1.83-.5-4.73-.04-2.9.01-6.86-.43-11.14-.2-1.97-.53-3.82-.93-5.5-.96.14-1.92.24-2.81.26.82 3.1.73 6.3-.24 9.23.04 3.06-.14 6.61-.79 10.39a41.29 41.29 0 0 1-4.92 13.95c-1.96 3.28-3.69 4.91-3.92 4.73-.29-.21.94-2.16 2.43-5.5a56.66 56.66 0 0 0 4.08-13.6c.33-1.86.55-3.69.72-5.44a14.94 14.94 0 0 1-4.27 3.77 10.54 10.54 0 0 1-14.54-3.5l-.67.7c.09.36.18.7.33 1.03 1.33 3.04 4.07 4.9 6.04 6.2 2 1.27 3.3 2.14 3.16 2.44-.15.28-1.64-.01-3.95-.97a16.86 16.86 0 0 1-3.87-2.24 11.71 11.71 0 0 1-3.55-4.47 91.79 91.79 0 0 0-5.2 6.4 21.46 21.46 0 0 1 9.77 18.27 13.1 13.1 0 0 0 1.49-4.21c.31-1.91.2-3.2.55-3.29.28-.09 1.02 1.14 1.12 3.4.04 1.11-.1 2.47-.63 3.9-.48 1.45-1.38 2.8-2.15 4.11a10.55 10.55 0 0 0-1.64 4.7 19.84 19.84 0 0 0 6.21 10.42c.97.84 1.92 1.58 2.75 2.35a25.5 25.5 0 0 0-.59-3.71c-.46-2.01-1.02-3.96-1.37-5.83a19.23 19.23 0 0 1-.35-5.09c.25-2.98 1.47-4.53 1.71-4.38.34.15-.24 1.77-.02 4.4.08 1.31.36 2.87.8 4.6.43 1.71 1.07 3.64 1.54 5.77.49 2.13.74 4.29.47 6.3-.03.29-.1.55-.16.8.11.31.23.62.3.98l.53.03c2.94.2 7.17-.13 10.93-2.46 3.75-2.31 5.78-6.1 7.18-8.77 1.37-2.73 2.26-4.48 2.58-4.36.28.11-.02 2.04-1.05 5.03a24.03 24.03 0 0 1-2.43 5.08 16.2 16.2 0 0 1-5.03 5.03A16.79 16.79 0 0 1 74.3 177c.74.15 1.52.31 2.35.45 2.45.43 5.18.79 8.04.96 5.74.36 10.92-.21 14.6-1.04 3.7-.77 5.9-1.66 6.05-1.31.14.24-1.87 1.69-5.61 2.92a38.5 38.5 0 0 1-12.1 1.87c4.5.81 9.05 1.26 13.62 1.14 5.54-.14 9.72-1.88 14.82-3.62 3.87-1.31 7.9-1.8 11.79-2.94Zm15.67 50.27c1.17-.4 2.16-.89 3.1-1.35a52.43 52.43 0 0 0-5.2-1.03l-3.36 4.85c1.7-1.14 3.4-1.78 5.46-2.47ZM163 199.85a69.2 69.2 0 0 1-6.1-4.02c-4.97-3.68-11.01-8.02-16.92-10.78a60.3 60.3 0 0 1-7.9 4.68 57.96 57.96 0 0 1-16 5.2c-4.26.7-6.94.59-6.97.3-.1-.7 10.45-1.91 21.93-7.62a92.34 92.34 0 0 0 6.48-3.58l-.64-.27a2.15 2.15 0 0 1-1.28-1.11c-.5.17-1.04.41-1.56.62-.64.5-1.39.93-2.16 1.24a61.83 61.83 0 0 1-7.26 2.11c-10.34 2.48-18.97 2.73-19.02 2.12-.08-.69 8.34-2 18.48-4.42 2.5-.61 5-1.2 7.02-1.85a6.34 6.34 0 0 0 3.88-3.38c.15-.28.26-.54.36-.82-.44-1.23-1.64-1.25-3.03-1.34-5 2.1-10.34 2.56-15.48 4.28-4.43 1.5-8.2 3.38-12.98 3.68-11.71.7-23.7-2-34.52-6.32a2.94 2.94 0 0 0-2.12 1.67c.66.36 1.36.7 2.12.96 8.6 2.55 16.62 4.67 22.43 5.55 5.84.95 9.53.86 9.54 1.24.03.27-3.7.96-9.74.42-3.02-.25-6.58-.8-10.46-1.69a162 162 0 0 1-6.07-1.46c-2.09-.57-4.2-1.06-6.48-1.82l-.13-.05 1.13.88a31.33 31.33 0 0 0 4.56 2.7 40.54 40.54 0 0 0 8.52 2.93c5.03 1.14 8.23 1.32 8.23 1.67 0 .26-3.23.65-8.52-.11a35.77 35.77 0 0 1-9.1-2.57 30.27 30.27 0 0 1-5-2.78c-.8-.6-1.66-1.15-2.46-2.03l-.13-.15c-.26.12-.54.17-.8.17-.09 0-.17-.02-.26-.03-8.91 3.36-16.17 9.3-23.72 14.94l-2.27 1.66c6.9 3.55 12.54 8.64 17.53 14.64 3.92 4.7 8.53 9.77 10.06 15.76 3.3-3.96 8.2-7 12.12-9.84 6.77-4.91 12.89-8.93 21.2-10.75 6.34-1.4 13.33 4.6 18.98 7.38 2.7 1.31 4.15 2.62 6.29 4.58 2.76 2.52 6.62 3.76 9.33 6.24 5-7.12 9.66-14.73 15.18-21.45 3.83-4.67 8.66-5.48 13.7-7.38Zm18.12 63.55-9.86-.75c-.18 1.6-.57 3.18-1.24 4.7 2.53.3 4.79 1.45 6.52 3.4 1.29-1.3 2.73-2.4 4.37-3.3-.04-1.32.03-2.7.2-4.05Zm5.5-34.48c1.05-10.59-5.95-13.99-12.66-20.31-2.66-2.52-4.71-4.97-7.77-6.9-6.01 2.7-11.62 3.33-16.04 9.26a363.97 363.97 0 0 0-6.9 9.68c3.35.55 6.57 1.4 9.75 2.55 3.46.73 6.92 2.68 10.53 3.38 1.78.34 4.36.35 5.93 1.38 4.19 2.72.32 7.36-.07 11.07-.71 6.73 1.9 13.88 2 20.68l10.2.76c.68-3.66 1.61-7.35 1.71-10.75.22-7.1 2.62-13.77 3.31-20.8Zm10.19 56.98c1.7-.7 2.45-1.99 3.69-2.66-3.58-2.76-9.25-4.83-11.33-5.64-3.8-1.47-6.78-3.09-7.83-6.98-1.45.94-2.7 2.07-3.86 3.44-.64.76-1.84.45-2.31-.29a7.39 7.39 0 0 0-6.69-3.57c-1.6 2.1-1.53-1.14-1.88 4.55-.02.19.1.4.2.6 2.53-.02 4.19.58 6.31 2.79.6.61.25 1.88.72 2.46 1.85 2.3 5.42 3.1 8.02 4.16 4.55 1.84 5.67 2.23 11 1.64l3.96-.5Zm5.04 5.25c2.12-1.9 2.14-3.77 1.03-5.48-.1.03-.2.05-.31.05-1.06-.03-2.56 2.36-3.5 2.82-.72.36-1.53.07-2.26.3-3.83 1.23-6.41 2.16-10.17 1.02-3.58-1.08-10.72-3.22-13.7-5.57-2.6-2.03-3.86-5.3-7.02-5.78-.95 2-2.06 4.04-1.47 6.18.49 1.81-.19 1.78 1.81 2.72.88.43 4.14.48 5.25.65 3.03.47 5.79 1.06 8.65 2.14 6.45 2.42 15.56 6.48 21.7.95Zm6.1-172.3c0-.03 0-.03-.02-.01-.08-.07-.35-.36-.83-.55a7.66 7.66 0 0 0-4.98-.61c-.34.03-.72.22-1.45-.08a1.31 1.31 0 0 1-.72-.91c-.05-.34 0-.55.03-.72.74-1.92 1.35-2.97 1.66-2.85.26.1.26 1.12.07 2.62a8.58 8.58 0 0 1 5.25-.05c-.97-1.64-1.11-3.94-2.84-5.3-6.32-5-7.45-.61-11.32 1.2-4.25 1.98-10.41 1.43-14.98 1.47-5.92.08-10.3-1.5-15.81-3.33-5.24-1.73-12.57-3.25-18.02-2.06-2.86.63-5.73 1.5-8.65 2.17.97.22 1.86.47 2.62.72 2.44.8 3.82 1.64 3.72 1.92-.23.67-6.16-1.06-13.65-1.12-7.46-.15-13.46 1.39-13.66.73-.1-.3 1.3-1.08 3.77-1.8.92-.29 2-.56 3.2-.77-2.55-.79-5.07-1.76-7.7-2.41a51.61 51.61 0 0 0-21.08-.99c1.73 6.17 4.3 12.36 8.45 16.96l.03-.12c.98-3.95 3.5-6.85 5.61-8.31 2.14-1.49 3.76-1.74 3.86-1.47.16.32-1.14 1.1-2.77 2.77a16.56 16.56 0 0 0-4.41 7.6c-.1.37-.13.71-.1.86.04.15 0 .12.21.29.2.14.57.28 1.03.5.45.23.86.5 1.23.78 1.03.8 1.77 1.67 2.38 2.37.52.24 1.06.45 1.6.65a24.26 24.26 0 0 1-1.52-3.82 1.88 1.88 0 0 1-.06-.7c-1.94-.62-3.09-1.37-2.97-1.7.15-.39 1.73-.23 4.09-.01.28-.15.61-.25.97-.25 3.52-.07 7.12.44 10.63.2 3.4-.2 6.4-1.43 9.7-2.14 5.53-1.2 10.37-.62 15.84.28 6.73 1.11 14.17 1.82 20.99 1.1 5.96-.62 11.3-4.14 17.4-4.15 1.9 0 3.53.33 5.32.96a23.26 23.26 0 0 0 10.49 1.5c2.19-.16 4.62-.22 6.75-.89l.23-.1a.78.78 0 0 0 .4-.42Zm2.73-6.2c1.53 2.95 5.56 5.37 2.22 8.76-2.74 2.77-8.72 2.85-12.34 3.07-3.97.25-6.87-.08-10.64-1.1-7.57-2.04-11.8.6-18.94 2.24-8.6 1.99-18.42.52-26.97-.98-7.13-1.25-12.67.58-19.48 1.87-3.6.68-7.28.4-10.94.27.86 1.4 1.9 2.83 2.47 4.07a43 43 0 0 1 3.34 10.7c1.2 7.56 4.38 13.98 6.27 21.36 1.09 4.22 2.02 7.88 6.85 8.94 1.5.31 2.74-.39 4.3.43 3.16 1.69 3.3 5 2.92 8.12 7.08 2.94 14.17 8.08 20.21 12.5 3.42 2.5 7.35 4.07 10.74 6.53 2.69 1.94 4.63 4.73 7.09 6.97 4.56 4.14 11.51 8.22 13.03 14.76 1.96 8.46-2.47 17.59-3.18 25.92-.3 3.49-.09 6.94-.66 10.43-1.02 6.25-4.34 11.56 3.3 16.01 2.43 1.42 5.45 1.8 7.93 3.28a54.67 54.67 0 0 1 6.77 4.88c8.3 6.95.84 13.2-6.87 16.08-5.38 2-11.96-.7-17.04-2.65a49.26 49.26 0 0 0-11.98-3.13c-1.82-.24-4.11-.25-5.82-1.03-4.28-1.93-3.74-7.77-2.5-11.74.18-.6.85-1.18.94-1.79.4-2.56-.18-1.29.01-3.4.17-1.78.39-3.32 1.42-4.92 1.08-1.67 2.43-2.54 3.21-3.97 1.24-2.27.96-6.48.86-9.04-.26-7.04-3.41-13.52-1.53-20.74 1-3.85.78-3.95-3.26-4.7-3.25-.63-6.23-1.71-9.4-2.65-5.28-1.57-11.06 4.02-15.77 6.07-3.46 1.52-5.57-1.75-8.52-3.72-2.37-1.6-4.78-3.04-6.92-4.94-3.37-2.97-6.19-4.21-10.26-6.21-4.58-2.23-7.98-5.15-13.09-4.07-4.24.89-8.2 2.77-11.76 5.17-6.26 4.2-16.26 9.7-19.42 16.96-.43 1-2.01 1.35-2.89.76-4.12-2.86-7.98-6.03-11.98-9.06-3.04-2.3-3.82-3.48-8.25-2.73-1.32.22-2.86.8-4.22 1.43a47.97 47.97 0 0 1 2.94 16.06c.04 3.4-.34 6.82-.22 10.24.07 2.03.7 4.15.63 6.2-.01.34-.42 2.98-.44 2.98.27.96.48.6 2.17 1.72a7.8 7.8 0 0 1 2.54 2.8c1.08 2.04.73 3.74.96 5.9.25 2.6 1.17 4.72 1.87 7.19 1.94 6.82-.39 10.29-7.24 11.9-9.76 2.3-21.89 5.26-31.91 3.33-5.74-1.1-10.77-6.27-8.17-12.46 1.38-3.3 5-5.25 8.05-6.64 3.71-1.69 6.24-3.58 9.49-5.82 3.21-2.22 4.71-1.79 4.47-6.85-.15-3.16-1.39-6.4-2.16-9.44a129.3 129.3 0 0 0-6.4-18.4c-3.23-7.61-5.43-17.04-.64-24.58 4.65-7.33 15.18-10.72 21.98-15.76 8-5.93 15.64-12.08 24.99-15.76a7.12 7.12 0 0 1 3.67-5.1c-.98-1.77-3.9-3.51-5.07-4.73a24.74 24.74 0 0 1-3.07-3.95 23.39 23.39 0 0 1-2.84-7.04c-7.1 7.4-18.08 5.56-23.06-4.58-3.28-6.67-2.92-14.72-3-21.95-.12-9.64.2-19.26 1.39-28.83.02-.2.08-.39.13-.57-1.1-2.52-2.13-5.09-3.05-7.69a1.9 1.9 0 0 1-.3-2.42c2.17-3.69 5.8-5.7 9.55-7.47a1.78 1.78 0 0 1 2.22-.77c2.82 1 6.83 3.9 8.4 7.2.08-3.3.04-6.65 1.73-9.48 3.26-5.4 11.77-7.41 17.65-6.7 8.25 1 10.72 8.9 11.65 16.19 2.22.53 2.98 2.1 2.75 4.94-.15 2.05-.32 4.8-1.3 6.88 3.24-1.18 13.1-2.73 14.1-2.84 5.7-.7 11.42-.24 17 .98 6.4 1.4 13.31 5.05 19.86 3.96 4.79-.81 9.47-2.54 14.3-3.12 9.17-1.1 17.07 3.57 25.75 5.18 5.64 1.02 13.44 1 18.81-.9 3.08-1.08 5.4-3.95 8.67-4.48 6.17-.98 9.54 5.11 11.9 9.66"/>
  <path fill="#333" d="M207.94 118.84c.01-.02.01-.02.01.02l-.01-.02"/>
  <path fill="#895543" d="m207.94 118.84.01.02a.78.78 0 0 1-.4.41c-.08.05-.16.09-.23.11-2.13.67-4.56.73-6.75.9-4.02.27-6.73-.19-10.49-1.51-1.8-.63-3.41-.96-5.32-.96-6.1.01-11.44 3.53-17.4 4.15-6.82.72-14.26.01-20.99-1.1-5.47-.9-10.3-1.48-15.84-.28-3.3.7-6.3 1.94-9.7 2.15-3.51.23-7.1-.28-10.63-.21-.36 0-.69.1-.97.25-2.36-.22-3.94-.38-4.09.02-.12.32 1.03 1.07 2.97 1.68-.02.24-.02.46.06.7.39 1.34.92 2.6 1.52 3.83-.54-.2-1.08-.41-1.6-.65-.61-.7-1.35-1.56-2.38-2.37a7.49 7.49 0 0 0-1.23-.78c-.46-.22-.84-.36-1.03-.5-.22-.17-.17-.14-.22-.29-.02-.15 0-.49.1-.86a16.56 16.56 0 0 1 4.42-7.6c1.63-1.66 2.93-2.45 2.77-2.77-.1-.27-1.72-.02-3.86 1.47a14.67 14.67 0 0 0-5.6 8.31c-.02.05-.04.08-.04.12-4.16-4.6-6.72-10.8-8.45-16.96a51.61 51.61 0 0 1 21.07.99c2.64.65 5.16 1.62 7.72 2.41-1.2.21-2.29.48-3.21.76-2.46.73-3.86 1.52-3.77 1.81.2.66 6.2-.88 13.66-.73 7.49.06 13.42 1.79 13.65 1.12.1-.28-1.28-1.12-3.72-1.92a30.4 30.4 0 0 0-2.62-.72c2.92-.67 5.8-1.54 8.65-2.17 5.45-1.19 12.78.33 18.02 2.06 5.5 1.82 9.9 3.4 15.8 3.33 4.58-.04 10.74.51 14.99-1.47 3.87-1.81 5-6.2 11.32-1.2 1.73 1.36 1.87 3.66 2.84 5.3a8.58 8.58 0 0 0-5.25.05c.2-1.5.2-2.53-.07-2.62-.31-.12-.92.93-1.66 2.85-.03.17-.08.38-.03.72.06.33.34.74.72.91.73.3 1.1.11 1.45.08a7.66 7.66 0 0 1 4.98.61c.48.2.75.48.83.55"/>
  <path fill="#333" d="M202.9 285.67c1.1 1.71 1.08 3.57-1.04 5.48-6.13 5.53-15.24 1.47-21.69-.95a42.05 42.05 0 0 0-8.65-2.14c-1.11-.17-4.37-.22-5.25-.65-2-.94-1.32-.91-1.8-2.72-.6-2.14.5-4.18 1.46-6.18 3.16.48 4.41 3.75 7.01 5.78 2.99 2.35 10.13 4.49 13.71 5.57 3.76 1.14 6.34.2 10.17-1.02.73-.23 1.54.06 2.26-.3.94-.46 2.44-2.85 3.5-2.82.12 0 .2-.02.31-.05"/>
  <path fill="#4d4d4d" d="M200.5 283.24c-1.23.67-1.97 1.96-3.68 2.66l-3.96.5c-5.33.6-6.45.2-11-1.64-2.6-1.06-6.17-1.86-8.02-4.16-.47-.58-.11-1.85-.72-2.46-2.12-2.21-3.78-2.81-6.32-2.78-.1-.21-.21-.42-.2-.61.36-5.7.29-2.46 1.9-4.55a7.39 7.39 0 0 1 6.68 3.57c.47.74 1.67 1.05 2.3.3a17.47 17.47 0 0 1 3.87-3.45c1.05 3.9 4.03 5.51 7.83 6.98 2.08.8 7.75 2.88 11.33 5.64"/>
  <path fill="#895543" d="M178.2 227.23c0-2.15.8-3.87.32-4.32-.26-.2-.86.02-1.48.76a5.8 5.8 0 0 0-1.2 3.5c-.05 1.5.46 2.8 1.05 3.56.58.77 1.17 1 1.42.82.52-.43-.2-2.17-.12-4.32Zm-4.23-18.62c6.71 6.32 13.71 9.72 12.66 20.31-.7 7.03-3.1 13.7-3.32 20.8-.1 3.4-1.03 7.09-1.7 10.75l-10.21-.76c-.1-6.8-2.71-13.95-2-20.68.4-3.7 4.26-8.35.07-11.07-1.57-1.03-4.15-1.04-5.93-1.38-3.61-.7-7.07-2.65-10.53-3.38-3.18-1.15-6.4-2-9.74-2.55 2.25-3.26 4.54-6.5 6.9-9.68 4.4-5.93 10.02-6.57 16.03-9.25 3.06 1.92 5.11 4.37 7.77 6.89"/>
  <path fill="#333" d="M171.27 262.65c3.28.26 6.57.5 9.85.75a25.79 25.79 0 0 0-.2 4.05c-1.64.9-3.08 2-4.37 3.3a10.17 10.17 0 0 0-6.52-3.4c.67-1.52 1.06-3.1 1.24-4.7"/>
  <path d="M178.52 222.91c.48.45-.32 2.17-.33 4.32-.09 2.15.64 3.89.12 4.32-.25.19-.84-.05-1.42-.82a5.72 5.72 0 0 1-1.06-3.56 5.8 5.8 0 0 1 1.2-3.5c.63-.74 1.23-.96 1.49-.76"/>
  <path fill="#333" d="M96.2 207.44c-.02-.7-10.29-.21-22.5-2.78-6.08-1.24-11.49-3.1-15.61-3.93-4.11-.88-6.77-.78-6.79-.47 0 .33 2.5.84 6.36 2.1 3.9 1.19 9.26 3.34 15.56 4.61a69.23 69.23 0 0 0 16.27 1.45c4.15-.13 6.71-.67 6.71-.98Zm32.8-3.22c13.04-2.2 23.53-4.5 23.43-5.14-.12-.65-10.79.62-23.82 2.81-13.04 2.2-23.53 4.5-23.42 5.14.1.65 10.77-.6 23.8-2.8Zm27.9-8.39c2.01 1.5 4.02 2.78 6.1 4.02-5.04 1.9-9.87 2.71-13.7 7.38-5.52 6.72-10.18 14.33-15.18 21.45-2.71-2.48-6.57-3.72-9.33-6.24-2.14-1.96-3.58-3.27-6.3-4.58-5.64-2.79-12.63-8.77-18.97-7.38-8.31 1.82-14.43 5.84-21.2 10.75-3.92 2.84-8.82 5.88-12.12 9.84-1.53-6-6.14-11.07-10.06-15.76-4.99-6-10.64-11.09-17.53-14.64l2.27-1.66c7.55-5.64 14.8-11.58 23.72-14.94l.25.03c.27 0 .55-.05.8-.17.06.04.1.12.14.15.8.88 1.67 1.44 2.46 2.03a30.27 30.27 0 0 0 5 2.78 35.77 35.77 0 0 0 9.1 2.57c5.3.76 8.52.37 8.52.11 0-.35-3.2-.53-8.23-1.67a40.54 40.54 0 0 1-8.52-2.92 31.33 31.33 0 0 1-4.56-2.71l-1.13-.88.13.05c2.29.76 4.4 1.25 6.48 1.82a162 162 0 0 0 6.07 1.46c3.88.88 7.44 1.44 10.46 1.69 6.04.54 9.77-.15 9.74-.42-.01-.38-3.7-.3-9.54-1.24-5.81-.88-13.84-3-22.43-5.55a13.2 13.2 0 0 1-2.12-.96 2.94 2.94 0 0 1 2.12-1.67c10.82 4.32 22.8 7.02 34.52 6.32 4.78-.3 8.55-2.17 12.98-3.68 5.14-1.72 10.47-2.18 15.48-4.28 1.4.09 2.59.11 3.03 1.34-.1.28-.21.54-.36.82a6.34 6.34 0 0 1-3.88 3.38c-2.01.64-4.52 1.24-7.02 1.85-10.14 2.42-18.56 3.73-18.48 4.42.05.61 8.68.36 19.02-2.12a61.83 61.83 0 0 0 7.26-2.11c.77-.31 1.52-.73 2.16-1.24.52-.2 1.06-.45 1.56-.62.24.5.65.89 1.28 1.11l.64.27a92.34 92.34 0 0 1-6.48 3.58c-11.48 5.71-22.03 6.92-21.93 7.62.03.29 2.7.4 6.97-.3a57.96 57.96 0 0 0 16-5.2 60.3 60.3 0 0 0 7.9-4.68c5.9 2.76 11.95 7.1 16.92 10.78"/>
  <path d="M152.43 199.08c.1.65-10.4 2.95-23.43 5.14-13.04 2.21-23.71 3.46-23.81 2.81-.11-.64 10.38-2.94 23.42-5.14 13.03-2.2 23.7-3.46 23.82-2.8"/>
  <path fill="#333" d="M146.63 224.35c-.94.46-1.93.95-3.1 1.35-2.07.7-3.76 1.33-5.46 2.47l3.35-4.85c1.77.25 3.5.6 5.2 1.03"/>
  <path fill="#58a0dd" d="M126.98 174.55c.38.42.63.68.88.88-3.9 1.14-7.92 1.63-11.79 2.94-5.1 1.74-9.28 3.48-14.82 3.62-4.57.12-9.12-.33-13.63-1.14a38.5 38.5 0 0 0 12.1-1.87c3.75-1.23 5.76-2.68 5.62-2.92-.15-.35-2.35.54-6.05 1.31-3.68.83-8.86 1.4-14.6 1.04a70.01 70.01 0 0 1-8.04-.96c-.83-.14-1.6-.3-2.35-.45a16.79 16.79 0 0 0 9.28-2.45 16.2 16.2 0 0 0 5.03-5.03 24.03 24.03 0 0 0 2.43-5.08c1.03-3 1.33-4.92 1.05-5.03-.32-.12-1.2 1.63-2.58 4.36-1.4 2.68-3.43 6.46-7.18 8.77-3.76 2.33-7.99 2.67-10.93 2.46l-.54-.03c-.06-.36-.18-.67-.3-.97.06-.26.14-.52.17-.8.27-2.02.02-4.18-.47-6.3-.47-2.14-1.11-4.07-1.55-5.78-.43-1.73-.71-3.29-.8-4.6-.2-2.63.37-4.25.03-4.4-.24-.15-1.46 1.4-1.71 4.38-.13 1.48 0 3.21.35 5.09.35 1.87.91 3.82 1.37 5.83.3 1.3.5 2.54.59 3.7-.83-.76-1.78-1.5-2.75-2.34a19.84 19.84 0 0 1-6.21-10.43c.15-1.47.62-3.1 1.64-4.69.77-1.3 1.67-2.66 2.16-4.12.51-1.41.66-2.78.62-3.9-.1-2.25-.84-3.48-1.12-3.39-.34.08-.24 1.38-.55 3.29a13.1 13.1 0 0 1-1.49 4.21 21.46 21.46 0 0 0-9.77-18.28 91.79 91.79 0 0 1 5.2-6.4c.85 1.93 2.18 3.4 3.55 4.48a16.86 16.86 0 0 0 3.87 2.24c2.31.96 3.8 1.25 3.95.97.13-.3-1.16-1.17-3.16-2.44-1.97-1.3-4.7-3.16-6.04-6.2-.15-.33-.24-.67-.33-1.02l.67-.7a10.54 10.54 0 0 0 14.54 3.5c1.7-1 3.13-2.3 4.27-3.78-.17 1.75-.4 3.58-.72 5.44a56.66 56.66 0 0 1-4.08 13.6c-1.5 3.34-2.72 5.29-2.43 5.5.23.18 1.96-1.45 3.92-4.73a41.29 41.29 0 0 0 4.92-13.95c.65-3.78.83-7.33.79-10.4.97-2.92 1.06-6.12.24-9.22.9-.02 1.85-.12 2.8-.26.4 1.68.74 3.53.94 5.5.44 4.28.39 8.24.42 11.14.05 2.9.18 4.7.5 4.73.34.03.79-1.73 1.18-4.63.38-2.9.73-6.96.25-11.5-.21-2-.59-3.9-1.1-5.63 1.8-.37 3.4-.79 4.44-1.04 3.2 11.53 9.35 23.22 21.96 25.97 1.47 2.68 2.92 5.42 3.55 8.7.34 1.8.49 3.62.73 5.4-.11.6-.22 1.2-.38 1.83a34.26 34.26 0 0 1-1.97 5.62 34.81 34.81 0 0 1-2.99 5.16 32.29 32.29 0 0 1-3.14 3.74c-1.95 2.01-3.38 3.1-3.19 3.41.13.26 1.91-.34 4.3-2.14 1.2-.9 2.5-2.16 3.76-3.7a27.1 27.1 0 0 0 3.43-5.47c.53-1.2.95-2.4 1.3-3.57 1.14 3.13 2.89 6 3.83 9.24 1.4 4.8 1.5 7.68 3.97 11.14a15.48 15.48 0 0 0-5.97-.97 15.82 15.82 0 0 0-7.67 2.7c-1.7 1.1-2.6 1.99-2.44 2.27.16.3 1.37-.08 3.2-.78 1.83-.67 4.3-1.68 7.03-1.82 2.74-.13 5.32.55 7.23.99.27.06.53.12.78.16"/>
  <path d="M73.7 204.66c12.21 2.57 22.48 2.07 22.5 2.78 0 .3-2.56.85-6.7.98-4.18.16-10-.13-16.28-1.45-6.3-1.27-11.67-3.42-15.56-4.61-3.87-1.26-6.36-1.77-6.36-2.1.02-.31 2.68-.41 6.79.47 4.12.82 9.53 2.69 15.6 3.93"/>
  <path fill="#895543" d="M77.49 109.64c.94 4.26-.03 8.6-3.27 11.87-2.03 2.04-4.45 3.2-7.31 2.89-2.04-.22-4.07-1.64-5.41-3.48a10.82 10.82 0 0 0 9.04-.14c4.5-2.12 6.2-6.55 6.95-11.14"/>
  <path fill="#895543" d="M63.6 107.66c1.4-.32 2.01-.99 1.89-1.26-.13-.32-.91-.27-1.98-.42a7.43 7.43 0 0 1-1.8-.44 1.23 1.23 0 0 1-.35-.2h-.02l.02-.02v-.02l-.02-.1.03-.49c.47-3.86-.33-7-.98-6.92-.66.07-.93 3.05-1.36 6.67-.04.5-.17 1.22.33 2.06.58.85 1.34.99 1.75 1.1.94.22 1.8.18 2.5.04Zm13.37-11.3c.28 0-.25 6.37-.35 6.41-.96.41-1.45 1-1.56 2.05-.02.13-.02.27-.02.4-.26 3.8-.61 8.05-3.28 10.98-3.88 4.25-9.79 2.9-13.28-.94-.91-1.72-1.6-3.46-2.46-5.39-.33-.75-.33-1.66-.95-2.3-.89-.93-2.26-.72-3.19-1.73-1.4-1.52-1.26-3.41-.93-5.29.2.34.4.52.58.5.65-.11.76-2.74.6-5.9a58.5 58.5 0 0 0-.19-2.26 33.73 33.73 0 0 1 .59-4.2c.43-.68 1-1.7 1.47-1.95.23-.1.27-.1.75.04a14.49 14.49 0 0 0 9.98.07c1.45-.56 2.44-1.12 3.27-.98.9.1 1.79.66 2.43 1.42.66.75 1.16 1.69 1.61 2.6.44.91.79 1.8 1.07 2.61.5 1.5.77 2.75.98 3.7.1 1.81.43 3.07.86 3.08.45.02.9-1.23 1.2-3.08.24.1.51.17.82.17"/>
  <path fill="#333" d="m74.37 90.59-.01.07c-.14-.5-.3-1.02-.52-1.55a12.4 12.4 0 0 0-1.73-3.22 5.97 5.97 0 0 0-3.83-2.32 5.3 5.3 0 0 0-2.47.3c-.73.25-1.32.55-1.9.75a13.37 13.37 0 0 1-8.6.16c-.31-.07-.7-.16-1.13-.13a9.14 9.14 0 0 1 5.05-3.4c3.23-.99 7.22-1.59 10.22.17 2.98 1.74 4.28 5.54 4.92 9.17"/>
  <path d="M65.49 106.4c.12.27-.5.94-1.89 1.26-.69.14-1.55.18-2.5-.03-.4-.12-1.16-.26-1.74-1.1-.5-.85-.37-1.58-.33-2.07.43-3.62.7-6.6 1.36-6.67.65-.08 1.45 3.06.98 6.92l-.03.5.02.1-.02.02.02.01c.07.06.2.14.36.2.62.24 1.24.37 1.79.44 1.07.15 1.85.1 1.98.42"/>
  <path fill="#333" d="M57.57 221.26c2.67 3.31 4.97 6.96 5.84 10.67-3.5-2.97-7.48-6.79-11.37-8.97l5.53-1.7"/>
  <path fill="#895543" d="M49.48 133.96a18.5 18.5 0 0 1 7.86 19.94c-.2-.04-.38-.07-.57-.07a2.48 2.48 0 0 0-1.17-.2A13.4 13.4 0 0 0 56.7 149c.05-1.95-.39-3.1-.69-3.08-.68 0-.7 4.62-3.73 8.92a19.34 19.34 0 0 1-4.61 4.6c-4.87 1.06-10.05-2.33-12.2-8.3-1.76-4.95-1.64-10.41-1.73-15.58-.2-10.37.04-20.7 1.29-31 .34-.58.44-1.3.1-2.04a99.7 99.7 0 0 1-3.16-7.93c1.81-2.35 4.56-3.7 7.23-4.93 2.27 1.18 6.57 4.27 4.43 6.27-.06.04-.09.1-.13.14-.44.34-.72.87-.69 1.59.05 1.8.53 3.42.87 5.18.04.27.1.55.13.83l-.03.2a5.25 5.25 0 0 1-.68 1.82c-.36.58-.84.94-1.38.98-.4.02-.71-.1-.85-.26l-2.16-2.15.1 2.82c.07 1.05-.6 2.05-1.2 2.56-.58.55-1.13.78-1.13 1.07 0 .24.69.57 1.83.2.73-.24 1.7-.92 2.3-2.04.42.13.86.2 1.3.16.13 0 .25-.03.4-.06a81.93 81.93 0 0 0 3.34 23.62c.06.2.13.37.23.52.5 1.6 1.04 3.35 1.52 5.21a25.6 25.6 0 0 1 .8 8.58c-.2 2.2-.67 3.55-.36 3.72.25.14 1.33-1 2-3.41.62-2.05.73-4.95.17-8 .45.19.89.28 1.25.34 1.46.18 2.28-.1 2.34-.4.05-.34-.78-.68-1.85-1.2a3.76 3.76 0 0 1-1.37-1.07 5.59 5.59 0 0 1-.7-2.14l-.19-.77M27.66 223.53a7.54 7.54 0 0 0 1.46-4.44c-.04-1.22-.44-1.9-.76-1.87-.65.08-.88 2.59-2.62 4.92-1.66 2.39-3.97 3.37-3.84 4.03.06.31.84.48 2 .13a7.41 7.41 0 0 0 3.76-2.77Zm27.86-4.73-8.24 2.55c-3.61-.2-8.17 1.84-11.01 3.46-.75.42-1.29 1.53-.97 2.37 3.46 9.07 2.79 17.82 2.97 26.83a36.18 36.18 0 0 1-10.4 1.81c-.82-3.2-1.86-6.35-2.77-9.34-2.98-9.72-11.24-20.44-6.36-30.84 2.28-4.84 6.64-6.67 11.03-9.18 2.1-1.2 4.14-2.5 6.14-3.88a50.26 50.26 0 0 1 14.9 11.11c1.42 1.52 3.08 3.25 4.71 5.1"/>
  <path fill="#333" d="M45.4 279.12c.95 2.94 1.7 3.68.08 6.6-1.93 3.5-4.55 2.97-8.27 3.69-6.62 1.28-13 2.55-19.76 2.64-2.74.03-12.93.2-10.67-6.01 1.85.47 3.63 2.1 5.42 2.43 2.8.5 4.59-.34 7.3-1.04 2.82-.73 6.04-.5 8.77-1.5 2.47-.9 4.9-2.4 7.25-3.24 3.5-1.22 4.92-3.15 8.27-5.37l.96-.62c.16.78.36 1.54.65 2.42"/>
  <path fill="#4d4d4d" d="M43.77 273.43c.45 1.54-12.68 7.12-13.83 7.68-3.44 1.67-9.44 3.85-13.46 4.28-3.48.36-5.5-1.4-8.05-2.16 1.4-1.5 3.91-2.27 5.7-3.1 4.13-1.9 8.82-6.35 13.05-7 .7-.12 1.3-.84 1.47-1.49.14-.54.26-1.09.37-1.66 2.71-1.39 5.12 1.51 6.26 3.87.19.4.49.64.81.72.63.38 1.5.34 1.92-.52.66-1.3 2.36-1.45 3.54-2.1.8-.45 1.33-1.12 1.9-1.77.35.5.55 1.03.67 1.89-.32.32-.51.77-.35 1.36"/>
  <path fill="#333" d="M41.28 267.81c.09.07.15.14.21.21a6.33 6.33 0 0 1-2.22 1.73c-.8.34-1.61.67-2.3 1.13-1.75-2.59-4.66-4.72-7.63-4.17a34.1 34.1 0 0 0-.8-7.95c3.35-.14 6.62-.7 9.82-1.7.12 2.32.31 4.65.7 7.01.37 2.3.86 2.27 2.22 3.74"/>
  <path d="M29.13 219.09a7.54 7.54 0 0 1-1.47 4.44 7.41 7.41 0 0 1-3.76 2.77c-1.16.35-1.94.18-2-.13-.13-.66 2.18-1.64 3.84-4.03 1.74-2.33 1.97-4.84 2.62-4.92.32-.02.72.65.77 1.87"/>
  <g clip-path="url(#a)">
    <path d="m343.52 141.79-.1-.02c-.02-.16-.04-.32-.08-.47-.83-3.18-4.03-5.6-5.96-8.38.98.7 2.12 1.14 3.33 1.3a4.37 4.37 0 0 0 2.81 3.64c.03.07.05.13.09.18.8 1.32 1.2 2.9 1.4 4.67a8.16 8.16 0 0 0-1.5-.92Zm-12.07 61.64c-.3-.1-.61-.18-.91-.26-.77-.28-1.54-.52-2.33-.72.22-.36.42-.74.57-1.15.2-.37.4-.72.5-1.01l.08-.26c.64 1.02 1.27 2.06 1.9 3.1l.19.3Zm-99.61 73.96c-.17.16-.32.35-.43.61-2.26 5.33-3.65 12.01.72 16.77 3.19 3.5 8.4 4.23 12.16 1.27 6-4.74 3.93-12.9 5.28-19.4 1.98-9.48 11.03-15.51 17.1-22.31l.3-.15c6.94-4.14 13.78-8.37 19.4-14.27 6.26-6.55 11.37-14.37 20.06-17.83 6.56 3.08 12.13 7.62 19.07 9.97 4.7 1.6 9.36 2.8 13.84 5.02.55.28 2.05 1.13 3.03 1.58-1.03 2.2-2.37 5.74-.41 6.95a21.3 21.3 0 0 0-.75 5.67c.08 3.6 1.64 7 1.56 10.6-.07 3.48-1.13 7.25-2.01 10.7a4 4 0 0 0-3.06 1.95c-.94 1.46-.6 2.71-.86 4.28-.44 2.58-1.52 3.74-2.38 5.98-1.98 5.09 3.42 6.8 7.55 7.84 7.37 1.83 14 4.43 21.7 4.46 4.63.03 11.07-.31 10.8-6.64-.31-6.69-10.44-7.8-13.66-12.63-.87-1.3-2.9-4.52-3.37-6.07-1.09-3.65 2.21-9.97 3.33-13.4 1.36-4.22 1.58-8.78 2.57-13.11.93-4.2 2.73-8.68 3.1-12.91.32-3.62-1.84-7.59-4.96-9.62.1-3.91-3.27-4.52-6.38-6.6-6.8-4.54-8.4-16.84-10.51-24.2-.8-2.81-1.4-6.12-3.05-8.6-1.51-2.28-3.24-2.13-2.01-5.08.86-2.05 2.72-3.74 3.9-5.61a21.16 21.16 0 0 0 2.8-6.93c.11-.13.2-.27.24-.44 5.88 2.53 11.76 4.3 13.38-4.4.86-4.56 1.38-9.11-.55-13.46-1.2-2.7-2.79-5.12-3.86-7.9-.62-1.57-1.04-3.22-1.72-4.75 2.12-2.77 1.7-7.73-1.37-9.39-.16-4.93-3.05-9.84-8.01-8.9a4.64 4.64 0 0 0-2.99-2.48c.13-1.6.18-3.38-.67-4.49 2.83-7.08.18-16-5.91-20.44-5.4-3.94-17.33-5.48-22.05.6-.96 1.23-1.22 2.74-2.05 4.03-.95 1.51-2.2 2.63-2.87 4.38-.77 1.96-.82 4-.79 6.07.08 3.71-.39 1.38-1.5 4.12-1.3 3.25-.03 5.95 1.5 8.83 1.1 2.07 1.6 4.83 3.56 6.1-.27 4.25-2.78 6.15-6.39 8.28-2.27 1.34-3.83 3.23-5.28 5.43-3.59 5.46-3.95 9.79-3.42 16.18.33 4.06.06 8.04 0 12.1-.05 4.1.6 8.13-1.48 11.86-3.22 5.67-8.5 9.81-11.93 15.28-1.86 2.98-2.7 6.4-4.32 9.5-1.38 2.6-3.13 5-4.63 7.54-3.39 5.74-5.29 12.24-8.73 17.97-3.92 6.52-10.42 10.96-15.27 16.75a80.3 80.3 0 0 0-10.93 17.3 1.84 1.84 0 0 0-.04 1.48l-.27.87c-5.9 1.59-5.1 8.54-6.08 13.69"/>
    <path d="M238.4 270.84c-.14-1.21-.11-2.4.06-3.57-2.92 1.18-2.8 6.4-3.09 9.94.2-.1.42-.23.63-.38 2.25-1.59.61-3.02 1.64-4.97.23-.43.49-.75.76-1.02Zm6.83 15.02c-.66-.15-1.25-.56-2.05-1-1.57-.88-2.64.43-4.37.26-2.6-.24-3.99-2.16-4.65-4.4-1.62 4.45-2.75 12.21 3.6 13.48 5.45 1.1 6.95-4.2 7.47-8.34Zm.23-2.12c.3-3.69.23-7.06 1.38-10.54-1.22-.27-2.32-.78-3.58-1.08-1.73-.42-3.75.42-3.97 2.52-.05.42.17.89.12 1.34-.29 2.31-3.14 1.77-3.8 3.24.23 1.46.76 2.92 2.05 3.69 1.62.96 2.56-.28 3.94-.7.67-.2 1-.21 1.6.08.33.15.37.33.66.51.35.22.98.7 1.6.99v-.05Zm2.03-12.23.46-1.04a8.04 8.04 0 0 1-7.12-4.42c-.1.2-.23.38-.42.53a12.3 12.3 0 0 0-.27 3.4c2.28-.36 5.23 1.22 7.35 1.53Zm79.6-74.1c.02-.27.13-.47.26-.64-.9-1.45-1.76-2.9-2.64-4.35a43.5 43.5 0 0 1-11.7 2.44c-3.14.2-5.05-.07-5.05-.3 0-.56 7.03-.74 15.5-3.82-.21-.42-.42-.85-.66-1.3l-.99-1.95a151.6 151.6 0 0 1-2.73-4.96c-5.56 2.52-9.74 2.86-9.78 2.53-.09-.4 3.8-1.38 8.98-4.09l-1.03-2.03c-.02-.07-.02-.13-.05-.2a42.44 42.44 0 0 1-11.04-15.8 10.1 10.1 0 0 1-6.85-2.73c-.07 2.57-.22 5.13-.19 7.7.04 2.72.2 5.43-.63 8.04-.13.35-.24.7-.39 1.05.55-.25 1.1-.48 1.6-.65 3.27-1.08 5.43-.8 5.42-.56.03.32-2 .56-4.87 1.89-1.1.5-2.32 1.2-3.52 2.09-.53.87-1.12 1.75-1.74 2.6a29.92 29.92 0 0 1 5.68-1.79c3.1-.62 5.02-.49 5.04-.24 0 .28-1.84.66-4.67 1.59-2.52.8-5.81 2.16-9.14 4.28-.7.8-1.39 1.58-2.07 2.32a26.75 26.75 0 0 0 13.5 12.12c3.56 1.47 7.3 2.3 11.15 2.54 1.29.1 2.75.24 4.02.08 2.22-.28 8.31-3.54 8.6-5.86Zm4.36 6.02-.18-.3-1.9-3.1-.1.26c-.09.29-.29.64-.5 1-.14.42-.34.8-.56 1.16.8.2 1.56.44 2.33.72l.9.26Zm.23-53.78c1.43 1.78 2.41 1.1 2.98-1.97a13.59 13.59 0 0 1-2.77-1.93c-3.5-3.35-4.22-7.96-3.57-12.49-5.95 1.96-10.9-2.5-14.2-7.38-.27 2.28-1 4.11-2.78 5.65a31.9 31.9 0 0 1 9.08 6.5c2.17 2.14 4.11 4.48 6.18 6.71a53.44 53.44 0 0 0 3.26 3.33c.56.57 1.18 1.1 1.82 1.58Zm4.23-33.72c.28-2.09.42-4.18.34-6.3-.19-4.43-1.86-16.76-10.1-12.12-.2.1-.37.12-.54.1a.8.8 0 0 1-.93-.2c-2.98-3.1-6.98-.7-9.07 2.1a18 18 0 0 0-3.35 10.2.84.84 0 0 1-.5.77c-.32.24-.76.29-1.1-.1-.1-.15-.34-.42-.61-.69-.57 1.91-.99 3.07.1 5.55.32.78 1.67 3.8 2.43 4.74-.01-.02-.01-.05-.03-.07-.57-3.07.03-5.59.57-5.55.57.03.9 2.38 1.43 5.18.23 1.19.44 2.28.58 3.18 3.76 6 11.5 13.21 16.75 4.33 1.95-3.28 3.16-7.2 4.03-11.12Zm1.94-9.07c2-7.02-2.56-15.23-9.65-17.04-2.87-.74-7.27-.93-9.98.45-2.25 1.14-2.84 3.12-4.2 5.05-2.41 3.38-3.38 5.23-3.35 9.63 0 1.07 0 1.9-.14 2.8l.08.05c.5-4.33 2.23-8.76 5.61-11.6 2.73-2.3 6.62-2.84 9.35-.4 4.88-2.63 7.89-1.38 10.24 3.66a24.04 24.04 0 0 1 2.04 7.4Zm2.48 10.45c-.36-.2-.8-.25-1.31-.2a1.4 1.4 0 0 1-.45-.17l-.27.2c-.1.56-.24 1.11-.37 1.67a4.93 4.93 0 0 1 2.4-1.5Zm-.55 30.15c3.09-4.33-.37-8.02-3.27-12.01.45 1.1.88 2.16 1.19 3.12.9 2.79.58 4.7.33 4.66-.32 0-.5-1.68-1.68-4.14-.56-1.25-1.35-2.7-2.18-4.38-.42-.9-.85-1.89-1.2-2.96-.4 2.15-.2 4.23.23 5.75.64 2.43 1.64 3.74 1.4 3.95-.15.15-1.61-.88-2.72-3.49a12.5 12.5 0 0 1-.93-4.83c0-.19.03-.37.04-.57-1.05 5.39.22 10.43 5.45 13.1 1.26.64 2.32 1 3.34 1.8Zm1.31-15.74.43-1.1a2.77 2.77 0 0 1-1-1h-.05a3.54 3.54 0 0 1-1.26-.55 3.9 3.9 0 0 1-1.55-4.21.85.85 0 0 1-.5-.04c-.44.06-.82.31-.91.75.49 1.32.65 2.8 1.38 4.01a4.52 4.52 0 0 0 3.46 2.14Zm3.84 73.98c-1.86-5.34-2.76-10.97-4.76-16.25-1.03-2.74-3.31-4.57-4.39-6.81-6.55-7.83-9.67-16.49-11.75-26.63-1.16-5.7-4.21-15.18-10.6-17.1-3.7-1.12-7.77.35-9.55 3.55a23.8 23.8 0 0 0-1.95 5.05c-.9 3.2-1.13 6.52-1.4 9.82.04.07.06.14.09.22.04.16.04.3.03.45a7.86 7.86 0 0 0 5.74 2.4c-2.07-3.84-2.76-7.17-2.3-7.32.55-.19 2.23 3.33 4.67 7.4a15.25 15.25 0 0 0 3.64 4.42c1.15.9 2.08 1.2 2.03 1.51-.01.25-1.15.45-2.76-.28a7.53 7.53 0 0 1-1.9-1.24 39.96 39.96 0 0 0 9.41 12.25c.28.24.4.53.4.82 3.8 7.71 8.03 14.9 12.72 22.1 2.22 3.44 4 6.9 5.87 10.3 2.7-.86 4.97-2.46 6.76-4.66Zm-1.74-43.1c.04-.39.17-.71.33-.97-.73-3.67-1.9-7.45-4-10.33a8.74 8.74 0 0 0-2.4-2.18c.3 2.76-1.66 4.84-5.18 3.02-3.83-1.96-6.89-6.47-9.73-9.6-3.68-4.03-7.55-7.73-12.62-9.81l-.52.29c-4.22 2.18-7.25 4.82-9.14 9.37-1.24 3.01-1.23 5.79-1 8.64 1.89-9.61 6.73-20.7 17.45-13.21 5.89 4.1 8.66 10.72 10.07 17.52 1.8 8.6 4.21 16.1 9.12 22.94 1.92-5.88 6.84-8.94 7.62-15.68Zm.33-20.81c.52.25 1.02.57 1.48.92-.18-1.76-.59-3.35-1.4-4.67l-.08-.18a4.37 4.37 0 0 1-2.81-3.65 7.24 7.24 0 0 1-3.33-1.29c1.93 2.79 5.13 5.2 5.96 8.38.04.15.06.3.09.47.03 0 .06 0 .09.02Zm1.62 4.4a.97.97 0 0 1-.48-.3 7.21 7.21 0 0 0-1.12-1.12 9.93 9.93 0 0 1-2.05 4.58 24.48 24.48 0 0 1 3.36 7.22c-.16-3.3.24-6.98.3-10.39Zm5.27 70.12a39.37 39.37 0 0 1-4.39-7.76c-.13-.31-.24-.63-.36-.94-1.8 2-4.05 3.47-6.6 4.34a54.65 54.65 0 0 0 5.66 8.34c2.23-.8 4.19-2.14 5.7-3.98Zm-1.17-88.52c-2.93-1.18-5.35 1.77-6.44 4.57 0 0 .02 0 .02.02.16.15.27.35.34.6.15-.54.38-1.05.65-1.5a7.99 7.99 0 0 1 5.43-3.7Zm-4.42-1.12a5.92 5.92 0 0 1 3.97-.84c-.18-2.7-1.96-6.76-5.13-5.42-.83.36-2.04-.39-2.2-1.25l-.05-.23c-2.07.05-3.17 2.36-3.02 4.36a4.14 4.14 0 0 1 1.68-1.36c1.25-.52 2.07-.27 2.09-.01.04.3-.6.57-1.34 1.24-.35.32-.72.73-.96 1.24a3.2 3.2 0 0 0-.29 1.73c.06.46.26.86.53 1.2.07-.44.22-.81.4-1.13a4.9 4.9 0 0 1 1.7-1.77c1.13-.65 1.89-.73 2.04-.52.15.24-.4.83-1.14 1.63-.72.78-1.43 2.1-.87 3.01l.26-.27a6.7 6.7 0 0 1 1.62-1.12c.23-.18.45-.35.7-.5ZM351 278.78c-.16-.96.04-1.89.5-2.67-2.61.42-5.26.08-7.75-1.02l-.07.15c.32.35.65.7.95 1.1 1.7 2.13 2.8 3.6 5.9 2.57.15-.06.3-.1.47-.13Zm.41-148.39a4.1 4.1 0 0 0-.21-.97 6.36 6.36 0 0 0-6.23 3.65c-.3.68-.56 1.93-.14 2.66 1.45.24 3.5-.64 4.48-1.59a6.65 6.65 0 0 0 2.1-3.75Zm1.28 151.03c.04-.22.2-.43.4-.56-1.33-1.15-2.54.38-3.99.51-.8.07-1.57-.14-2.28-.49-2.12-1.02-3.13-3.2-4.78-4.75-1.73.16-1.68 5.01-2.16 6.35-.07.2-.2.4-.34.64a20.12 20.12 0 0 0 8.93 2.93c.8.08 1.34.1 1.77.13.42-1.83 1.23-3.4 2.45-4.76Zm-.9-47.8c2.24-1.23 2.6-4.65 1.05-6.9a4.94 4.94 0 0 0-7.4-.95c-1.6 1.95-.79 5.13 1.1 6.75.95.82 3.41 1.42 5.26 1.1Zm4.48-72.66c1.52-1.9 1.06-8.59.34-10.83-.83-2.6-2.71-4.9-3.77-7.44-.83-1.97-1.33-4.3-2.26-6.28a9.9 9.9 0 0 1-1.75 1.18c-.7.37-1.48.59-2.27.67 1.29 2.76 1.54 5.6 1.32 8.78-.34 5-2.3 12.87 2.44 15.94 1.8.24 4.66-.37 5.95-2.02Zm-.75 67.72c1.92-.46 2.25-3.77 2.17-5.94-.94-1.2-4.88-3.76-6.15-5.01a14.88 14.88 0 0 1-5.55 4l.75.79c.14.13.22.26.28.4a6.93 6.93 0 0 1 7.7 3.42c.41.75.68 1.54.8 2.34Zm3.64 55.38c.52-.08.82-.53 1.03-1a11.45 11.45 0 0 1-3.92-4.67c-.34-.81-.76-1.63-1.15-2.48a2.24 2.24 0 0 0-2.31 2.75c.88.2 1.6.8 2.37 1.88.22.32.15.87-.14 1.1a.27.27 0 0 1-.09.08c.68.74 1.5 1.36 2.41 1.79.4.2 1.28.63 1.8.55Zm1.95-45.44c1.1-4.4 3.17-9.58-1.18-12.66-.4 2.2-1.42 4.18-3.42 4.97.41 5.15-6.74 6.49-10.51 4.3-4.1-2.38-5.38-8.57-1.81-11.75-4.8-5.1-7.45-10.66-10.7-16.48-.24.04-.5 0-.76-.13-1.38-.3-2.73-.7-4.05-1.24-.58-.24-1.38-.49-2.05-.88-.2-.06-.42-.1-.64-.14l-.29.13a24.94 24.94 0 0 1-4 4.22 23.23 23.23 0 0 1-7.81 4.27c-2.2.65-3.61.69-3.67.44-.15-.58 4.87-1.98 9.79-5.95-1.49.57-2.89.9-4.02 1-1.8.2-2.93-.06-2.95-.3-.03-.49 2.78-.88 6.14-2.44a50.7 50.7 0 0 1-8.05-.62c-9.63-1.38-18.21-6.38-23.07-14.8-4.69 5.57-6.91 12.82-10.82 18.97-3.77 5.92-5.77 12.7-9.24 18.78a31.55 31.55 0 0 1-2.03 3.05c-.04.35-.07.73-.09 1.1-.21 3.39-.04 6.18-.6 6.3-.35.1-.97-1.15-1.26-3.1-.65 3.38-1.01 5.97-1.5 5.97-.44.02-.86-2.4-.52-5.67-2.5 2.56-5.17 4.96-7.65 7.62a75 75 0 0 0-12.47 18.47c.08.3.09.61 0 .92l-.15.5a6.54 6.54 0 0 0 7.23 5.16c3.84-6.49 10.21-11.3 15.17-16.85.22-.26.47-.42.74-.5.08-.07.17-.14.27-.2 8.58-5.13 16.08-10.58 22.66-18.16 5.33-6.15 10.56-11.77 18.38-14.6.29-.1.57-.12.8-.09 3.48-1.22 6.37-1.56 6.5-1.06.13.44-1.66 1.3-4.2 2.32 3.5 1.8 6.73 4.2 10.18 6.07 4.74 2.57 9.84 3.74 14.88 5.51 2.94 1.02 7.08 2.34 9.87 4.18l1.36.5c6 2.2 11.09 3.5 10.97 4.07-.04.4-3.4.24-7.82-.95 1.83 1.64 2.79 3.08 2.52 3.31-.3.32-1.98-.91-4.41-2.5-.33 1-1.06 1.77-1.07 1.84 0 .38.73.83.62 1.38-.53 2.81-1.65 5.33-1.59 8.37.1 4.29 1.8 8.06 1.39 12.4-.31 3.23-1.13 6.5-1.94 9.67a11.91 11.91 0 0 0 9.92.18 7.14 7.14 0 0 1-.3-1.8c-.19-5.84 2.86-11.14 4.04-16.62 1.18-5.46 1.87-11.03 3.21-16.48Zm-4.84 50.14c1.92.99 13.74 5.33 12.63-.94-.71-.57-2.26-1-2.84-1.3-1.42-.76-2.95-1.54-4.4-2.44-.77 1.37-1.9 2.06-3.65 1.6a9.4 9.4 0 0 1-4.3-2.69 8.95 8.95 0 0 0-1.71 3.57c.22.08.45.16.73.28 1.3.47 2.35 1.3 3.54 1.92Zm12.7 4.45c.01-.44.02-.9.05-1.34-1.87 1.2-4.92 1.3-7.71.8-4.7-.88-7.96-4.22-12.84-4.81a23.18 23.18 0 0 1-9.96-3.28c-.28.42-.5.84-.51 1.2-.13 1.99 2.9 2.72 4.95 3.37 2.46.75 5.01.68 7.48 1.26 2.8.65 4.88 2.59 7.9 2.95 2.6.3 5.5.29 8.13.14l2.5-.3Zm5.53-2.77c.27 6.33-6.17 6.67-10.8 6.64-7.7-.03-14.33-2.63-21.7-4.46-4.13-1.05-9.53-2.75-7.55-7.84.86-2.24 1.94-3.4 2.38-5.98.27-1.57-.08-2.82.86-4.28a4 4 0 0 1 3.06-1.96c.88-3.44 1.94-7.2 2.01-10.69.08-3.6-1.48-7-1.56-10.6-.03-2.14.3-3.84.75-5.67-1.96-1.2-.62-4.74.41-6.95-.98-.45-2.48-1.3-3.03-1.58-4.48-2.22-9.14-3.42-13.84-5.02-6.94-2.35-12.51-6.9-19.07-9.97-8.69 3.46-13.8 11.28-20.06 17.83-5.62 5.9-12.46 10.13-19.4 14.27a2 2 0 0 1-.3.14c-6.07 6.8-15.12 12.84-17.1 22.31-1.35 6.5.72 14.67-5.28 19.4-3.75 2.97-8.97 2.24-12.16-1.26-4.37-4.76-2.98-11.44-.72-16.77.1-.26.26-.45.43-.61.99-5.15.17-12.1 6.08-13.7l.27-.86c-.19-.44-.2-.96.04-1.49a80.3 80.3 0 0 1 10.93-17.29c4.85-5.79 11.35-10.23 15.27-16.75 3.44-5.73 5.34-12.23 8.73-17.97 1.5-2.54 3.25-4.94 4.63-7.54 1.63-3.1 2.46-6.52 4.32-9.5 3.43-5.47 8.71-9.6 11.93-15.28 2.09-3.73 1.43-7.77 1.48-11.86.06-4.06.33-8.04 0-12.1-.53-6.39-.17-10.72 3.42-16.18 1.45-2.2 3-4.1 5.28-5.43 3.61-2.13 6.12-4.03 6.39-8.28-1.96-1.27-2.47-4.03-3.57-6.1-1.52-2.88-2.8-5.58-1.5-8.83 1.12-2.74 1.58-.41 1.51-4.12-.03-2.07.02-4.11.79-6.07.68-1.75 1.92-2.87 2.87-4.38.83-1.3 1.1-2.8 2.05-4.03 4.72-6.08 16.64-4.54 22.05-.6 6.1 4.43 8.74 13.36 5.91 20.44.85 1.1.8 2.9.67 4.5a4.64 4.64 0 0 1 2.99 2.48c4.96-.95 7.85 3.96 8.01 8.89 3.08 1.66 3.49 6.62 1.37 9.4.68 1.52 1.1 3.17 1.72 4.75 1.07 2.77 2.66 5.19 3.86 7.89 1.93 4.35 1.4 8.9.55 13.46-1.62 8.7-7.5 6.93-13.38 4.4-.05.17-.13.31-.23.44-.54 2.43-1.4 4.7-2.8 6.93-1.19 1.87-3.05 3.56-3.91 5.6-1.23 2.96.5 2.81 2.01 5.1 1.65 2.47 2.24 5.78 3.05 8.59 2.1 7.36 3.7 19.66 10.51 24.2 3.1 2.08 6.49 2.69 6.38 6.6 3.12 2.03 5.28 6 4.96 9.62-.37 4.23-2.17 8.72-3.1 12.9-.99 4.34-1.21 8.9-2.58 13.11-1.1 3.44-4.4 9.76-3.32 13.4.47 1.56 2.5 4.79 3.37 6.08 3.22 4.82 13.35 5.94 13.66 12.63"/>
  </g>
  <path fill="#333" d="m369.03 291.87-.06 1.34c-.84.1-1.67.18-2.5.29-2.63.15-5.53.17-8.13-.14-3.02-.36-5.1-2.3-7.9-2.95-2.47-.58-5.02-.5-7.48-1.26-2.06-.65-5.08-1.38-4.95-3.36.02-.37.23-.8.51-1.2a23.18 23.18 0 0 0 9.96 3.27c4.88.59 8.14 3.93 12.84 4.8 2.8.5 5.84.41 7.7-.79"/>
  <path fill="#333" d="M368.91 287.82c1.11 6.27-10.71 1.93-12.63.94-1.19-.62-2.24-1.45-3.54-1.92-.28-.12-.51-.2-.73-.28a8.95 8.95 0 0 1 1.7-3.57 9.4 9.4 0 0 0 4.31 2.69c1.74.46 2.88-.23 3.64-1.6 1.46.9 2.99 1.68 4.41 2.44.58.3 2.13.73 2.84 1.3M359.94 225.96c4.35 3.08 2.27 8.26 1.19 12.66-1.35 5.45-2.04 11.02-3.22 16.48-1.18 5.48-4.23 10.78-4.04 16.61.02.62.13 1.2.3 1.8a11.91 11.91 0 0 1-9.92-.17c.8-3.18 1.63-6.44 1.94-9.67.41-4.34-1.3-8.11-1.39-12.4-.06-3.04 1.06-5.56 1.6-8.37.1-.55-.64-1-.63-1.38.01-.07.74-.84 1.07-1.84 2.43 1.59 4.1 2.82 4.41 2.5.27-.23-.7-1.67-2.52-3.31 4.43 1.19 7.78 1.35 7.82.95.12-.58-4.96-1.86-10.97-4.07l-1.36-.5c-2.79-1.84-6.93-3.16-9.87-4.18-5.04-1.77-10.14-2.94-14.88-5.5-3.45-1.88-6.68-4.28-10.17-6.08 2.53-1.03 4.32-1.88 4.2-2.32-.14-.5-3.03-.16-6.5 1.06a1.56 1.56 0 0 0-.8.1c-7.82 2.82-13.06 8.44-18.4 14.59-6.57 7.58-14.07 13.03-22.65 18.15l-.27.2c-.27.1-.52.25-.74.5-4.96 5.57-11.33 10.37-15.17 16.86a6.54 6.54 0 0 1-7.23-5.17l.15-.5c.09-.3.08-.6 0-.9a75 75 0 0 1 12.47-18.48c2.48-2.66 5.15-5.06 7.65-7.62-.34 3.27.08 5.7.52 5.67.49 0 .85-2.6 1.5-5.96.29 1.94.9 3.19 1.26 3.1.56-.13.39-2.92.6-6.3.02-.38.05-.76.09-1.11.72-.97 1.41-1.97 2.03-3.05 3.47-6.07 5.47-12.86 9.24-18.78 3.9-6.15 6.13-13.4 10.82-18.97 4.86 8.42 13.44 13.42 23.07 14.8 2.45.34 5.28.68 8.05.62-3.36 1.56-6.17 1.95-6.14 2.44.02.24 1.14.5 2.95.3a15.6 15.6 0 0 0 4.02-1c-4.92 3.97-9.94 5.37-9.8 5.95.07.25 1.49.21 3.68-.44 2.2-.65 5.1-2.04 7.82-4.27a24.94 24.94 0 0 0 4-4.22c.08-.05.2-.08.28-.13.22.05.43.08.64.14.67.4 1.47.64 2.05.88 1.32.54 2.67.93 4.05 1.24.26.13.52.17.76.13 3.25 5.82 5.9 11.38 10.7 16.48-3.57 3.18-2.29 9.37 1.8 11.75 3.78 2.19 10.93.85 10.52-4.3 2-.79 3.02-2.77 3.42-4.97"/>
  <path fill="#333" d="M360.2 283.07c-.21.46-.5.91-1.03 1-.52.07-1.4-.36-1.8-.56a7.67 7.67 0 0 1-2.4-1.8.27.27 0 0 0 .08-.07c.29-.23.36-.78.14-1.1-.78-1.09-1.5-1.69-2.37-1.88-.3-1.49.75-2.76 2.3-2.75.4.85.82 1.67 1.16 2.48a11.45 11.45 0 0 0 3.92 4.68"/>
  <path fill="#eaa37d" d="M357.7 222.74c.08 2.17-.25 5.48-2.17 5.94a6.93 6.93 0 0 0-8.5-5.76 1.26 1.26 0 0 0-.28-.4l-.75-.8a14.88 14.88 0 0 0 5.55-4c1.27 1.26 5.21 3.82 6.15 5.02M356.62 150.13c.72 2.24 1.18 8.92-.34 10.83-1.29 1.65-4.14 2.26-5.95 2.02-4.75-3.07-2.78-10.94-2.44-15.94.22-3.18-.03-6.02-1.32-8.78.79-.08 1.56-.3 2.27-.67a9.9 9.9 0 0 0 1.75-1.18c.93 1.98 1.43 4.3 2.26 6.28 1.06 2.53 2.94 4.84 3.77 7.44"/>
  <path fill="#00a99d" d="M352.85 226.73c1.56 2.24 1.19 5.66-1.04 6.9-1.85.31-4.3-.29-5.26-1.1-1.89-1.63-2.7-4.81-1.1-6.76a4.94 4.94 0 0 1 7.4.96"/>
  <path fill="#333" d="M353.1 280.86a.85.85 0 0 0-.4.56 10.46 10.46 0 0 0-2.45 4.76c-.43-.03-.96-.05-1.77-.13a20.12 20.12 0 0 1-8.93-2.93c.15-.23.27-.44.34-.64.48-1.34.43-6.2 2.16-6.35 1.65 1.55 2.66 3.73 4.78 4.75.7.35 1.48.56 2.28.5 1.45-.14 2.66-1.67 4-.52"/>
  <path fill="#00a99d" d="M351.2 129.42c.12.3.19.63.22.97a6.65 6.65 0 0 1-2.1 3.75c-.99.95-3.03 1.83-4.48 1.59-.42-.73-.15-1.98.14-2.66a6.36 6.36 0 0 1 6.23-3.66"/>
  <path fill="#eaa37d" d="M351.5 276.11c-.45.78-.65 1.71-.5 2.67-.15.04-.3.07-.46.13-3.1 1.03-4.2-.44-5.9-2.56-.3-.4-.63-.76-.95-1.1l.07-.16a13.65 13.65 0 0 0 7.74 1.02M348.79 125.83a5.92 5.92 0 0 0-4.68 1.33 6.7 6.7 0 0 0-1.88 1.4c-.56-.92.15-2.24.87-3.02.74-.8 1.3-1.39 1.14-1.63-.15-.21-.91-.13-2.04.52a4.9 4.9 0 0 0-1.7 1.77c-.18.32-.33.7-.4 1.13a2.48 2.48 0 0 1-.53-1.2 3.2 3.2 0 0 1 .29-1.73c.24-.5.6-.92.96-1.24.73-.67 1.38-.95 1.34-1.24-.02-.26-.84-.5-2.09.01-.55.24-1.18.68-1.68 1.36-.15-2 .95-4.31 3.02-4.36 0 .07.03.14.05.23.16.86 1.37 1.6 2.2 1.25 3.17-1.34 4.95 2.72 5.13 5.42"/>
  <path fill="#00a99d" d="M342.8 132.36c1.1-2.8 3.51-5.75 6.44-4.57a7.99 7.99 0 0 0-5.43 3.7c-.27.44-.5.95-.65 1.5a1.1 1.1 0 0 0-.34-.6c0-.02-.02-.02-.02-.03"/>
  <path fill="#ed1c24" d="M346.02 208.55a39.37 39.37 0 0 0 4.4 7.76 12.87 12.87 0 0 1-5.7 3.98 54.65 54.65 0 0 1-5.65-8.34c2.54-.87 4.79-2.34 6.6-4.34.11.3.22.63.35.94"/>
  <path fill="#cc8f67" d="M344.66 145.88c.13.16.3.25.48.3-.05 3.41-.45 7.1-.29 10.4-.8-2.65-1.89-5.2-3.36-7.23a9.93 9.93 0 0 0 2.05-4.58c.4.32.78.7 1.12 1.11"/>
  <path fill="#fbb03b" d="M343.52 161.63c-.16.26-.29.58-.33.97-.78 6.74-5.7 9.8-7.62 15.68-4.9-6.84-7.32-14.34-9.12-22.94-1.41-6.8-4.18-13.42-10.07-17.52-10.72-7.49-15.56 3.6-17.45 13.21-.23-2.85-.24-5.63 1-8.64 1.9-4.55 4.92-7.19 9.14-9.37l.52-.3c5.07 2.09 8.94 5.8 12.62 9.82 2.84 3.13 5.9 7.64 9.73 9.6 3.52 1.82 5.48-.26 5.18-3.02.9.6 1.74 1.26 2.4 2.18 2.1 2.88 3.27 6.66 4 10.32"/>
  <path fill="#eaa37d" d="M332.5 188.06c.1-.56-1.32-1.27-2.78-2.36-1.5-1.07-2.6-2.2-3.1-1.94-.25.15-.26.65.05 1.35.3.7.94 1.55 1.86 2.22a5.77 5.77 0 0 0 2.68 1.1c.75.06 1.24-.1 1.29-.37Zm7.67 1.39c2 5.28 2.9 10.91 4.76 16.25-1.79 2.2-4.06 3.8-6.76 4.66-1.87-3.4-3.65-6.86-5.87-10.3-4.7-7.2-8.92-14.39-12.73-22.1 0-.3-.11-.58-.39-.82a39.96 39.96 0 0 1-9.41-12.25c.64.55 1.3.97 1.9 1.24 1.61.73 2.75.53 2.76.28.05-.3-.88-.62-2.03-1.5a15.25 15.25 0 0 1-3.64-4.44c-2.44-4.06-4.12-7.58-4.66-7.39-.47.15.22 3.48 2.29 7.32a7.86 7.86 0 0 1-5.74-2.4c.01-.14.01-.29-.03-.45l-.08-.22c.26-3.3.5-6.62 1.4-9.82a23.8 23.8 0 0 1 1.94-5.05c1.78-3.2 5.86-4.67 9.55-3.55 6.39 1.92 9.44 11.4 10.6 17.1 2.08 10.14 5.2 18.8 11.75 26.63 1.08 2.24 3.36 4.07 4.4 6.8M341.52 130.63c-.15.36-.3.72-.43 1.09a4.52 4.52 0 0 1-3.46-2.14c-.73-1.2-.9-2.69-1.38-4.01.1-.44.47-.69.91-.75.15.06.33.07.5.04a3.9 3.9 0 0 0 1.55 4.22c.39.26.83.46 1.26.54h.05a2.77 2.77 0 0 0 1 1"/>
  <path fill="#754c24" d="M336.51 135.45c2.9 4 6.36 7.68 3.27 12.01-1.02-.8-2.08-1.16-3.34-1.8-5.23-2.67-6.5-7.71-5.45-13.1-.01.2-.04.38-.04.57 0 1.9.39 3.55.93 4.83 1.1 2.6 2.57 3.64 2.71 3.49.25-.21-.75-1.52-1.4-3.95-.43-1.52-.62-3.6-.22-5.75.35 1.07.78 2.06 1.2 2.96.83 1.69 1.62 3.13 2.18 4.38 1.18 2.46 1.36 4.14 1.68 4.14.25.04.56-1.87-.33-4.66-.3-.96-.74-2.01-1.19-3.12"/>
  <path fill="#00a99d" d="M339.02 117.1c.52-.04.95.02 1.3.2-.9.27-1.74.76-2.39 1.5.13-.55.27-1.1.37-1.66l.27-.2c.14.08.3.14.45.17"/>
  <path fill="#754c24" d="M328.2 89.82c7.09 1.81 11.66 10.02 9.65 17.04-.3-2.53-.93-5.02-2.04-7.4-2.35-5.04-5.36-6.3-10.24-3.67-2.73-2.43-6.62-1.9-9.35.41-3.38 2.84-5.11 7.27-5.61 11.6l-.08-.04c.14-.9.14-1.74.14-2.8-.03-4.4.94-6.26 3.34-9.64 1.37-1.93 1.96-3.91 4.21-5.05 2.7-1.38 7.1-1.19 9.98-.45"/>
  <path fill="#eaa37d" d="M330.48 117.02c.01-.6-.18-1.11-.42-1.5-.24-.4-.49-.66-.67-.89a3.89 3.89 0 0 1-.87-2.6c-.02-.88.1-1.65.14-2.2.05-.54.02-.87-.11-.91-.13-.05-.36.2-.64.68-.27.5-.63 1.24-.82 2.31-.1.54-.13 1.15-.02 1.81.08.66.4 1.44.83 2.04.2.28.39.52.48.72.11.18.14.35.12.45v.03l-.04.02c-.09.05-.39.13-.83.25a2.7 2.7 0 0 0-.76.36c-.29.16-.58.52-.69.76l-.15.31c-.07.03-.14.05-.28 0a1.75 1.75 0 0 1-.5-.33c-.2-.19-.44-.47-.8-.72a1.78 1.78 0 0 0-1.58-.31c-.5.19-.7.4-.76.4-.02.01.01.05.03.07h-.01c-.15-.07-.31-.36-.33-.65-.05-.29-.01-.57.05-.78.1-.45.29-.72.2-.84-.09-.1-.46-.05-.9.45-.2.25-.4.63-.47 1.1-.08.47-.09 1.15.48 1.77a1.4 1.4 0 0 0 1.43.38c.41-.13.64-.28.7-.28v.02l.09.08c.13.11.29.32.54.6.26.3.61.6 1.08.82.47.22 1.13.3 1.73.08.3-.1.61-.3.85-.6.24-.31.32-.55.38-.63l.02-.02v-.02c.03 0 .11-.05.24-.1.27-.08.7-.13 1.24-.42a2 2 0 0 0 1.02-1.71Zm5.77-7.4c.08 2.13-.06 4.22-.34 6.3-.87 3.93-2.08 7.85-4.03 11.13-5.25 8.88-12.99 1.67-16.75-4.33-.14-.9-.35-1.99-.58-3.18-.53-2.8-.86-5.15-1.43-5.18-.54-.04-1.14 2.48-.57 5.55.02.02.02.05.03.07-.76-.94-2.1-3.96-2.44-4.74-1.08-2.48-.66-3.64-.1-5.55.28.27.52.54.63.68.33.4.77.35 1.09.11a.84.84 0 0 0 .5-.77 18 18 0 0 1 3.35-10.2c2.09-2.8 6.1-5.2 9.07-2.1a.8.8 0 0 0 .93.2c.17.02.35 0 .53-.1 8.25-4.64 9.92 7.69 10.11 12.12"/>
  <path fill="#eaa37d" d="M334.66 147.68c-.57 3.07-1.55 3.75-2.98 1.97-.64-.48-1.26-1-1.82-1.58a53.44 53.44 0 0 1-3.26-3.33c-2.07-2.23-4.01-4.57-6.18-6.7a31.9 31.9 0 0 0-9.08-6.51c1.78-1.54 2.51-3.37 2.77-5.65 3.3 4.88 8.26 9.34 14.21 7.38-.65 4.53.08 9.14 3.57 12.49.84.8 1.8 1.38 2.77 1.93"/>
  <path d="M329.72 185.7c1.46 1.09 2.89 1.8 2.78 2.36-.05.26-.54.43-1.29.36a5.77 5.77 0 0 1-2.68-1.1 5.62 5.62 0 0 1-1.86-2.21c-.31-.7-.3-1.2-.06-1.35.5-.26 1.61.87 3.1 1.94M322.14 117.77c-.01-.02-.05-.06-.03-.07.06 0 .26-.21.76-.4.56-.2 1.26.03 1.58.3.36.26.6.54.8.73.18.17.37.28.5.33.14.05.21.03.28 0l.15-.3c.1-.25.4-.61.69-.77.28-.2.54-.3.76-.36.44-.12.74-.2.83-.25l.03-.02.01-.03c.02-.1 0-.27-.12-.45-.1-.2-.27-.44-.48-.72a4.65 4.65 0 0 1-.83-2.04c-.11-.66-.08-1.27.02-1.81.2-1.07.55-1.8.82-2.3.28-.5.5-.73.64-.7.13.05.16.38.11.92-.04.55-.16 1.32-.14 2.2.02.88.19 1.85.87 2.6.18.23.43.5.67.88.24.4.43.92.42 1.51a2 2 0 0 1-1.02 1.7c-.54.3-.97.35-1.24.44-.13.04-.2.09-.24.09v.02l-.02.02c-.06.08-.14.32-.38.62s-.55.5-.85.61c-.6.22-1.26.14-1.73-.08a3.37 3.37 0 0 1-1.08-.81c-.25-.29-.41-.5-.54-.6l-.08-.09v-.02c-.07 0-.3.15-.71.28a1.4 1.4 0 0 1-1.42-.37 2.01 2.01 0 0 1-.5-1.77c.08-.48.28-.86.48-1.1.44-.51.81-.56.9-.46.09.12-.1.39-.2.84-.06.21-.1.5-.05.78.02.29.18.58.32.65h.02"/>
  <path fill="#fbb03b" d="M327.35 196.77c-.13.17-.24.37-.26.64-.28 2.32-6.37 5.58-8.59 5.86-1.27.16-2.73.01-4.02-.08a34.82 34.82 0 0 1-11.15-2.54 26.75 26.75 0 0 1-13.5-12.12c.68-.74 1.38-1.53 2.07-2.32a39.46 39.46 0 0 1 9.14-4.28c2.83-.93 4.67-1.31 4.67-1.6-.02-.24-1.95-.37-5.04.25-1.62.33-3.6.9-5.68 1.8.62-.86 1.2-1.74 1.74-2.61 1.2-.9 2.43-1.6 3.52-2.09 2.87-1.33 4.9-1.57 4.87-1.9.01-.22-2.15-.51-5.41.57-.5.17-1.06.4-1.6.65.14-.35.25-.7.38-1.05.83-2.61.67-5.32.63-8.05-.03-2.56.12-5.12.19-7.7a10.1 10.1 0 0 0 6.85 2.75 42.44 42.44 0 0 0 11.04 15.79c.03.07.03.13.05.2l1.03 2.03c-5.17 2.71-9.07 3.69-8.98 4.1.04.32 4.22-.02 9.78-2.54.88 1.68 1.8 3.32 2.73 4.96l1 1.96.65 1.29c-8.47 3.08-15.5 3.26-15.5 3.81 0 .24 1.9.5 5.05.31a43.5 43.5 0 0 0 11.7-2.44c.88 1.45 1.74 2.9 2.64 4.35"/>
  <path fill="#eaa37d" d="m247.95 270.47-.46 1.04c-2.12-.31-5.07-1.88-7.35-1.53a12.3 12.3 0 0 1 .27-3.4c.19-.15.32-.33.42-.53a8.04 8.04 0 0 0 7.12 4.42"/>
  <path fill="#333" d="M246.84 273.2c-1.15 3.48-1.09 6.85-1.38 10.54v.05c-.62-.3-1.25-.77-1.6-.99-.29-.18-.33-.36-.66-.51-.6-.3-.93-.28-1.6-.07-1.38.41-2.32 1.65-3.94.69-1.29-.77-1.82-2.23-2.05-3.69.66-1.47 3.51-.93 3.8-3.24.05-.45-.17-.92-.12-1.34.22-2.1 2.24-2.94 3.97-2.52 1.26.3 2.36.81 3.58 1.08"/>
  <path fill="#333" d="M243.18 284.85c.8.45 1.39.86 2.05 1-.52 4.15-2.02 9.44-7.48 8.35-6.34-1.27-5.21-9.03-3.59-13.49.66 2.25 2.04 4.17 4.65 4.42 1.73.16 2.8-1.15 4.37-.28M238.46 267.27c-.17 1.17-.2 2.36-.06 3.57-.27.27-.53.6-.76 1.02-1.03 1.95.6 3.38-1.64 4.97-.21.15-.44.27-.63.38.28-3.54.17-8.76 3.09-9.94"/>
</svg>
