<svg xmlns="http://www.w3.org/2000/svg" width="500" viewBox="0 0 375 375" height="500" version="1.0">
  <path d="M195.48 310.24c4.56 1.26 22.04 3.99 21.57-4.33 3.34-1.3 9.45-2.8 9.73-6.95.13-2.02-1.42-3.8-2.2-5.51-1.58-3.52-1.8-7.63-1.65-11.46.25-6.28 3.13-11.89 4.41-18 1.12-5.35 1.2-10.9.39-16.27 2.1-1.51 3.7-3.75 5.8-5.33a59.14 59.14 0 0 1 7.47-4.9c3.1-1.73 5.9-3.86 8.98-5.62 3.33-1.9 4.87-1.5 8.54-1.58 4.37-.08 6.94-.77 11.18 1.13 3.07 1.37 2.83 2.03 2.77 5.33-.14 7.35.28 14.5.72 21.8.44 7.2.97 14.24 1.04 21.47.06 4.47.41 8.53-1.25 12.75-1.1 2.8-1.3 5.16-1.2 8.2.1 3.24.84 5.33 1.68 8.4.45 1.67.65 3.4 2.27 4.43 2.57 1.61 3.96-.28 5.18-2.2 1.92 2.18 3.05 4.63 6.28 5.69 1.93.63 6.56 1.97 8.49.52 1.95-1.47.71-3.45-.35-5-2.95-4.36-6.1-8.6-8.72-13.18-1.74-3.07-1.54-6.08-1.13-9.77.3-2.68 1.6-5.25 2.3-7.85a73.36 73.36 0 0 0 1.57-8.17c.8-5.24 1.1-10.25.43-15.54-.58-4.44-1.35-9.47-.39-14.03.15-.16.26-.35.34-.6.19-.58.34-1.18.5-1.78 7.39 3.77 14.34 7.87 20.64 13.44.99.87 2.03 1.73 2.97 2.63 1.93 1.83 2.61 3.6 3.84 5.83 1.68 3.02 4.2 6.3 6.94 8.42 3.56 2.76 7.5 5.1 11.18 7.72 2.52 1.8 5.7 3.6 7.54 6.16 1.61 2.25 1.33 4.76 1.76 7.33a8.6 8.6 0 0 0 3.8 5.97c1.31.98 2.58 1.09 3.34 2.6.44.85.15 1.82.79 2.68 2.94 3.94 14.46 2.92 17.92.36 4.16-3.05-1.68-10.96-3.77-13.69-2.48-3.22-6-5.48-8.96-8.22a46.63 46.63 0 0 1-9.2-11.64c-2.32-4.21-4.73-8.37-7.01-12.6-2-3.71-3.6-7.4-6.65-10.4-3.43-3.38-7.8-5.48-11.43-8.6-4-3.43-7.61-7.67-10.67-11.96-2.32-3.27-4.13-6.63-7.4-9.12a70.18 70.18 0 0 0-13.68-7.94l-.17-.04a34.7 34.7 0 0 0-.8-5.12c-.66-2.77-2.23-5.15-3.38-7.73-.92-2.06-1.74-4.07-3.22-5.8-.41-.46-.84-.9-1.3-1.32 1.4-3.44 1.67-7.13.28-10.7-2.05-5.29-8.2-7.22-9.98-12.46-.11-.3-.28-.52-.48-.68.13-6.68-2.22-13.12-8.18-15.46 0-.09-.01-.17-.03-.26-1.02-4.48-4.73-8.24-9.6-7.62a6.76 6.76 0 0 0-5.8 8.1 12.96 12.96 0 0 0-5.82 3.29c-3.71 3.89-3.7 9.54-3.38 14.57-1.62 1.39-1.41 4.09-.86 6.4-7.42-.99-17.18.92-19.71 8.77a9.87 9.87 0 0 0 .04 5.9c-1.07 2.92-1.1 6.01.21 8.85 1.71 3.75 5.57 5.35 5.82 9.8-2.82 3.06-4.33 7.54-7.02 10.85-4.65 5.74-9.16 12.35-11.36 19.49-2.12 6.86-3.27 14.26-2.72 21.42.3 3.78.74 7.56 1.31 11.3.62 4.02 1.95 8.14 1.95 12.22-1.54.5-2.98 1.26-3.92 2.63-1.1 1.6-1 3.47-.63 5.27-2.3 2.46-5.65 3.7-7.7 6.4-2.18 2.87-1.84 6.33-1.26 9.68-.12.67.17 1.39 1.01 1.63"/>
  <path d="M211.82 297.18c.92-.86 2.02-1.75 2.98-2.74-1.19-.08-2.42-.6-3.6-.74a16.24 16.24 0 0 0-5.1.3 1.1 1.1 0 0 1-.24.2c-.06.1-.11.18-.2.27-1.44 1.6-3.22 2.7-4.95 3.94.65.02 1.3.13 2 .31.97.27 2.2 1.16 3.2 1.17 2.3.07 4.35-1.25 5.91-2.7Zm-14.54 10.43c4.3.84 17.83 2.45 16.72-2.22a57.32 57.32 0 0 1-16.9.78c.04.46.1.94.18 1.44Zm19.36-16.28a.7.7 0 0 1-.12-.39c0-2.92-4.5-3.62-7.23-3.64-.99.28-2.02.64-2.66 1.45-.84 1.06-.5 2.46-.2 3.68 1.34-.24 2.69-.36 4.06-.28 1.87.12 5.19 1.44 6.15-.82Zm3.59-2.3.02-.08a36.2 36.2 0 0 1-.28-4.73c-2.71 1.55-5.89 1.5-9.04 1.16l-.01.22c0 .1-.02.2-.04.3 3.08.3 6.62 1.49 7.06 4.42.1.03.19.08.27.13.9.05 1.72-.45 2.02-1.43Zm1.9 6.02c-.39-.74-.78-1.44-1-2.12-.2-.63-.36-1.26-.5-1.9-.65.6-1.48.92-2.36.9-1.25 3.46-5.28 6.84-8.1 8.75-3.76 2.57-8.17-2.5-11.7-.25a6.85 6.85 0 0 0-1.43 4.25c5.7.59 11.3.34 16.93-.79-.1-1.18.9-2.2 1.96-3 2.3-1.7 5.23-2.94 6.2-5.84Zm.09 5.4c1.25-1.16 1.2-2.4.75-3.66a8.71 8.71 0 0 1-2.23 2.58c-.77.61-4.35 2.43-5.09 3.95 2.1-.77 5.09-1.5 6.57-2.87Zm7.3-93.73c-.4-3.08-.13-5.23-2.79-7.64-1.61-1.46-3.33-2.48-4.71-4.17.08 2.8 1.75 5 3.96 7.44a10.32 10.32 0 0 1 2.53 4.85c.32-.18.66-.34 1.01-.48Zm7.6-28c-3.14-.2-6.28.24-9.17 1.67-5.8 2.81-7.41 8.7-2.79 13.63 1.51 1.61 3.9 2.58 5.48 4.18a129.8 129.8 0 0 1 6.47-19.48Zm7.15 1.33c0-.23-.03-.43-.05-.65a58.55 58.55 0 0 1-.43-3.2c-.31-1.5-.75-3-1.34-4.45l-.06.03c-.67.37-.21 2.42-.12 3 .13.89.4 1.74.68 2.57.2.42.4.84.62 1.26.09.2.37.98.7 1.44Zm-.52-9.03c.39-3.5 2.05-6.73 1.84-10.3-.5-.42-.88-.93-1.1-1.56-1.75 3.27-1.44 7.27-1.18 10.87.15.33.3.65.44.99Zm6.76 56.73c-.33-.13-.66-.23-1-.38-8.26-3.52-15.3-9.8-18.35-18.1-4.06 1.33-5.23 5.66-7.28 9.04-1.7 2.76-4 5.05-5.91 7.64a54.46 54.46 0 0 0-8.93 19.69c-1.56 6.53-1.68 13.04-.97 19.7.64 6.07 2.8 12.43 2.88 18.56 3.13.37 6.46.52 9.06-1.46.04-.96.1-1.9.17-2.84.33-4.51 2.24-8.46 3.44-12.82a44.81 44.81 0 0 0 1.3-17.84c-.34.73-.7 1.37-1.07 1.87-.78 1.12-1.47 1.64-1.64 1.51-.4-.3 1.33-3 2.1-6.76.83-3.74.36-6.92.83-7.02.22-.05.63.7.9 2.05.24 1.2.3 2.86 0 4.66 1.28-1.01 2.32-2.65 3.5-3.71.93-.86 2.3-1.68 3.28-2.42a54.37 54.37 0 0 1 6.7-4.2c2.57-1.43 4.98-3.04 7.44-4.69 1.12-.74 2.3-1.76 3.55-2.48Zm8.95-77.14c.77-.01 1.5.03 2.18.12-.76-2-2.17-3.68-4.41-4.1-2.86-.54-5.37 1.7-4.83 4.48 2.42-.39 4.89-.48 7.06-.5Zm5.8 50.9c.74-3.4 1.41-6.83 1.99-10.27-2.07 3.48-5.24 6.25-9.3 6.67-8.14.86-11.55-9.16-13.36-15.5-.32-.01-.61-.09-.89-.21a52.34 52.34 0 0 0-1.61 21.28 37.24 37.24 0 0 0 21.3 6.05c.54-2.12 1.06-4.25 1.53-6.39-.3.02-.62.02-.95.03-3.44 0-6.23-.37-6.23-.82 0-.47 2.8-.85 6.23-.85h1.29Zm2.42-17.14c.12-5.76.93-10.85-.63-16.75a33.7 33.7 0 0 1-1.24-6.71c-2.34 1.41-6.19 1.52-8.6 1.52-2.48 0-7.11.4-10.12-.82-.05 2.44-.84 4.5-1.43 6.95-.6 2.6-.62 5.15-.36 7.72.18.94.3 1.9.38 2.88l.22 1.37c.21.1.4.3.47.58 1.38 4.92 3.4 13.24 9.3 14.63 6.32 1.48 10.96-5.95 12.01-11.37Zm1.92-12.5c.89-3.78 1.11-7.83-.15-11.54a10.6 10.6 0 0 0-1.66-3.13 3.9 3.9 0 0 1-.51 2.3c-.1 4.17 1.62 8.07 2.29 12.3l.01.1.02-.03Zm.45 8.3c.17-.84.8-4.3-.23-4.76-.01 2.07-.24 4.15-.42 6.23l.23-.13c.02 0 .03-.02.05-.03.15-.43.28-.87.37-1.31Zm3.18 49.57c.15-2.46.29-4.92.42-7.4a44.64 44.64 0 0 1-7.2 4.49c1 .32 2 .79 3.05 1.24 1.43.62 2.71 1.08 3.73 1.67Zm-1.87-18.44c2.36-7.62 3.23-15.06 2.2-22.97v-.01c-1.22-.5-2.42-.95-3.58-1.37-.67 4.63-1.48 9.21-2.44 13.78 0 .22-.02.44-.04.69-.02.15-.02.37-.1.62-.04.14-.11.3-.23.47-.6 2.77-1.24 5.53-1.94 8.28-.45 2.49-1 4.3-1.4 4.24-.32-.05-.42-1.43-.28-3.42a39.58 39.58 0 0 1-23.17-6.75c-.5-.35-.55-.9-.36-1.33-1-7.85-.34-15.47 2.02-23.03 0-.04.04-.1.06-.14-.15-.29-.32-.58-.45-.88-.3 0-.58-.08-.83-.24a23.4 23.4 0 0 0-1.58-.3 126.23 126.23 0 0 0-5.6 16.02l.08-.18c.76-1.46 1.46-2.23 1.64-2.13.43.24-1.27 3.8-1.84 8.48-.25 1.87-.27 3.6-.25 5.02.33 1.64.92 3.37 2.02 4.96 1.95 2.8 4.75 4.53 6.72 5.75 2.03 1.21 3.3 1.99 3.19 2.2-.1.2-1.52-.19-3.73-1.17a21.53 21.53 0 0 1-4.95-3.02 32.24 32.24 0 0 0 11.1 9.31c4.56 2.39 9.34 3.92 14.47 2.42 3.2-.93 6.04-2.71 8.72-4.66-2.87.75-4.97 1.08-5.08.75-.15-.4 2.8-1.69 6.74-2.94a7.1 7.1 0 0 1-1.98-3.4 5.03 5.03 0 0 1-.15-1.4l-.07-.18c-.69-2.1-.84-4.13-.7-5.55.14-1.44.49-2.27.7-2.25.37.05.34 2.14.93 4.87l.16-.54Zm9.55-22.37c1.63-4.8-.16-9.12-3.77-12.56a17.5 17.5 0 0 1 1.93 3.73c.48 1.35.59 2.53.52 3.33-.08.78-.27 1.19-.38 1.19-.25-.03-.07-1.73-1.23-4.08a23.96 23.96 0 0 0-2.49-3.89c-.68-.95-1.47-2-2.18-3.19.06.53.14 1.03.27 1.5.34 1.5 1.06 2.67 1.58 3.87.52 1.17.6 2.35.38 3.06-.2.74-.56 1-.65.94-.1-.06.05-.4.05-1.03a5 5 0 0 0-.8-2.49c-.26-.45-.56-.94-.9-1.48l-.01.62c-.12 2.1-.66 4.12-1.57 5.98 3.18 1.16 6.44 2.54 9.25 4.5Zm12.18 125.86v-.1c.03-.42-1.4-1.9-1.64-2.24a134.42 134.42 0 0 1-4.2-6.3c-1.65-2.63-5.12-6.5-5.14-9.8 0-2.11.3-4.28.4-6.49.2-3.76 2.22-7.36 3-11.07 1.04-4.97 1.95-10.25 1.78-15.34-.24-7.8-2.81-15.87.35-23.36 2.24-9.32 1.67-19.9 1.23-29.23-.24-5.15-2.67-10.8-5.38-15.22-1.76-2.85-4.64-4.83-7.76-6.34a50.5 50.5 0 0 1-.17 13.75 49.81 49.81 0 0 1-1.92 7.93c-.7 2.16-.8 3.97-.17 5.62.59.52 1.35 1.26 2.16 2.02.82.75 1.6 1.35 2.2 1.78.58.42 1 .7.95.94-.05.22-.6.34-1.44.13-.45-.1-.99-.33-1.53-.65l-.62 10.93c.29.66.42 1.46.34 2.51-1.03 13.82 1.56 27.45 1.61 41.23.02 5.7 1.08 12.06-1.01 17.48-1.97 5.11-1.47 8.62-.24 13.9.29 1.24.25 2.64 1.41 3.31 1.35.8 1.27-.45 2.02-1.56a11.05 11.05 0 0 0-.3-2.12 4.61 4.61 0 0 1-.37-1.7c-.08-.43-.1-.72.06-.84.18-.12.63.15 1.1.8.35.45.67 1.12.9 1.92.39.55.82 1.17 1.3 1.82l.06.09c.98.97 1.6 2.13 2.5 3.2.8.95 3.65 2.94 6.02 3.53a16.72 16.72 0 0 1-2.34-2.03 25.35 25.35 0 0 1-3.52-4.57c-.78-1.26-1.13-2.11-.96-2.25.2-.13.9.48 1.89 1.54 1 1.06 2.28 2.58 3.79 4.12.73.76 1.51 1.52 2.16 2.05.54.43 1.05.6 1.48.6Zm51.62-31.73a8.83 8.83 0 0 0 5.33-4.58c-3.77-5.09-6.54-10.93-9.64-16.43-2.23-3.96-3.86-8.22-7.13-11.48-2.79-2.78-6.27-4.59-9.38-6.94-5.3-4-9.86-9.41-13.62-14.86-3-4.34-5.63-7.28-10.1-10.18a65.5 65.5 0 0 0-8-4.47c.1 3.92-.12 7.89-.19 11.55-.08 4.27-.3 8.88-1.1 13.24 7.03 3.54 13.83 7.3 19.88 12.45 2.24 1.91 5.01 3.77 6.88 6.05 2.63 3.18 3.81 7.32 6.7 10.48 5.67 6.2 14.68 8.94 20.37 15.17Zm8.4-.87-.52-.54c-.55-.61-1.07-1.25-1.57-1.88a10.33 10.33 0 0 1-5.3 4.5 15.33 15.33 0 0 1 2.27 4.32c.56-.43 1.2-.72 1.9-.9a3.46 3.46 0 0 1 .23-3.02 6.35 6.35 0 0 1 3-2.48Zm.33 15.95-.01-.15c-.22-2.86-3.07-3.85-5.57-4.37.17.67.68 1.49 1.9 2.72.91.94 2.6 1.06 3.68 1.8Zm2.86-12.82c-.71-.65-1.41-1.32-2.1-2-1.65.78-4.1 2.31-2.79 4.14 1.04-1.08 3.2-1.76 4.89-2.14Zm8.05 7.27a31.94 31.94 0 0 0-3.15-3.02c-1.18-1-2.37-2-3.52-3.03-1.1.17-3.1.5-3.86 1.12l-.82.43.85 2.41c.64.96 2.82 2.41 3.92 2.99 2.4 1.28 4.35-.47 6.58-.9Zm-2.06 6.05c2.5-.13 5.04-.93 4.35-3.2-.32-.5-.7-.98-1.07-1.45-2.8-.45-4.64 2.7-7.52 1.43-1.46-.64-2.8-2-4.06-2.96-.8-.62-1.89-1.23-2.54-2.03a2.6 2.6 0 0 1-.65-1.42 3.8 3.8 0 0 0-2.43 1.22 3.8 3.8 0 0 1-.3 1.73c2.55.26 4.47 1.38 6.42 3.26 2.27 2.2 4.51 3.61 7.8 3.42Zm2.39 5.06c2.34-.36 4.14-1.07 3.94-3.6a6.94 6.94 0 0 0-.47-1.92c-.59.85-1.78 1.42-3.61 1.73-2.45.41-5.79.68-8.1-.5a5 5 0 0 1-1.52-1.28c-.02.57-.14 1.19-.19 1.78.56 1.39.68 2.9 2.45 3.73 2.07.98 5.44.38 7.5.06Zm2.5-12.36c2.09 2.73 7.93 10.64 3.77 13.7-3.46 2.55-14.98 3.57-17.92-.37-.64-.86-.36-1.83-.8-2.69-.75-1.5-2.01-1.6-3.34-2.59a8.6 8.6 0 0 1-3.79-5.97c-.43-2.57-.15-5.08-1.76-7.33-1.84-2.56-5.02-4.37-7.54-6.16-3.68-2.62-7.62-4.96-11.18-7.72-2.73-2.12-5.26-5.4-6.94-8.42-1.23-2.23-1.91-4-3.84-5.83-.95-.9-1.98-1.76-2.96-2.63-6.3-5.57-13.26-9.67-20.65-13.44-.16.6-.31 1.2-.5 1.79-.08.24-.2.43-.34.59-.96 4.56-.2 9.6.39 14.03.68 5.29.36 10.3-.43 15.54-.41 2.74-.85 5.49-1.57 8.17-.7 2.6-2 5.17-2.3 7.85-.41 3.69-.6 6.7 1.13 9.77 2.62 4.57 5.77 8.82 8.72 13.17 1.06 1.56 2.3 3.54.35 5.01-1.93 1.45-6.56.1-8.5-.52-3.22-1.06-4.35-3.51-6.27-5.7-1.22 1.93-2.6 3.82-5.18 2.21-1.62-1.03-1.82-2.76-2.27-4.43-.84-3.07-1.59-5.16-1.69-8.4-.1-3.04.1-5.4 1.21-8.2 1.66-4.22 1.3-8.28 1.25-12.75-.07-7.23-.6-14.27-1.04-21.47-.44-7.3-.86-14.45-.72-21.8.06-3.3.3-3.96-2.77-5.33-4.24-1.9-6.81-1.21-11.18-1.13-3.66.07-5.21-.33-8.54 1.59-3.07 1.75-5.87 3.88-8.98 5.6a59.14 59.14 0 0 0-7.48 4.91c-2.09 1.58-3.7 3.82-5.79 5.33.8 5.37.73 10.92-.39 16.26-1.28 6.12-4.16 11.73-4.41 18-.15 3.84.07 7.95 1.65 11.47.78 1.7 2.33 3.49 2.2 5.51-.28 4.14-6.39 5.66-9.73 6.95.47 8.32-17.01 5.59-21.57 4.33-.84-.24-1.13-.96-1.01-1.63-.58-3.35-.92-6.8 1.26-9.67 2.05-2.7 5.4-3.95 7.7-6.4-.37-1.81-.47-3.68.63-5.28.94-1.37 2.38-2.12 3.92-2.63 0-4.08-1.33-8.2-1.95-12.21-.57-3.75-1.02-7.53-1.3-11.31-.57-7.16.59-14.56 2.71-21.42 2.2-7.15 6.7-13.75 11.36-19.5 2.69-3.3 4.2-7.78 7.02-10.83-.25-4.46-4.1-6.06-5.82-9.8a11.43 11.43 0 0 1-.2-8.85 9.87 9.87 0 0 1-.05-5.91c2.53-7.85 12.3-9.76 19.7-8.77-.54-2.31-.75-5.01.87-6.4-.32-5.03-.33-10.68 3.38-14.57a12.96 12.96 0 0 1 5.82-3.3 6.76 6.76 0 0 1 5.8-8.09c4.87-.62 8.58 3.14 9.6 7.62.02.09.03.17.03.26 5.96 2.34 8.3 8.78 8.18 15.46.2.16.37.38.48.68 1.78 5.24 7.93 7.17 9.98 12.45a14.21 14.21 0 0 1-.27 10.7c.45.43.88.87 1.29 1.33 1.48 1.73 2.3 3.74 3.22 5.8 1.15 2.58 2.72 4.96 3.39 7.73.4 1.63.64 3.36.79 5.12l.17.04a70.18 70.18 0 0 1 13.69 7.94c3.26 2.49 5.07 5.85 7.4 9.12a67.28 67.28 0 0 0 10.66 11.96c3.64 3.12 8 5.22 11.43 8.6 3.06 3 4.64 6.69 6.65 10.4 2.28 4.23 4.69 8.39 7.01 12.6 2.45 4.42 5.5 8.2 9.2 11.64 2.95 2.74 6.48 5 8.96 8.22ZM248.4 155.43c-1 .48-1.9 1.12-2.66 1.94-.07 4.21 6.65 3.5 9.21 3.54 1.9.04 8.94.6 10.85-2.06.05-.78.17-1.57.37-2.37l-.06-.23a.65.65 0 0 1 .1-.6c-1.33-1-2.9-1.58-4.65-1.86l.4.33c.6.58.97 1.24 1.14 1.83.34 1.24-.12 1.97-.32 1.9-.24-.04-.27-.68-.77-1.44a4.59 4.59 0 0 0-2.8-1.93 13.3 13.3 0 0 0-2.22-.42c.4.28.79.6 1.11.9.66.63 1.14 1.3 1.44 1.92.59 1.28.41 2.18.2 2.18-.24.03-.48-.69-1.2-1.56-.7-.9-1.93-1.83-3.55-2.75l-.6-.34-.02-.01-.3.42c-.39.62-.65 1.25-.84 1.79-.36 1.1-.44 1.86-.7 1.88-.2.04-.56-.75-.46-2.11.06-.67.25-1.45.65-2.26-.53.09-1.04.2-1.54.33-.14.1-.28.19-.4.3a3.28 3.28 0 0 0-1.23 2.4c-.04.72.2 1.22.02 1.39-.13.17-.84-.13-1.18-1.2a3.4 3.4 0 0 1 .01-1.91"/>
  <path fill="#f2f2f2" d="M368.62 300.1c.2 2.52-1.6 3.24-3.94 3.6-2.06.32-5.43.92-7.5-.06-1.77-.84-1.89-2.34-2.45-3.73.05-.6.17-1.2.19-1.78a5 5 0 0 0 1.53 1.27c2.3 1.19 5.64.92 8.09.5 1.83-.3 3.02-.87 3.6-1.72.25.65.43 1.3.48 1.91"/>
  <path fill="#f2f2f2" d="M366.64 295.44c.7 2.27-1.85 3.07-4.35 3.2-3.29.2-5.53-1.22-7.8-3.42-1.95-1.88-3.87-3-6.42-3.26.18-.49.36-1 .3-1.73a3.8 3.8 0 0 1 2.43-1.22c.04.43.23.9.65 1.42.65.8 1.74 1.41 2.54 2.03 1.26.97 2.6 2.32 4.06 2.96 2.88 1.26 4.73-1.88 7.52-1.43.38.47.75.96 1.07 1.45"/>
  <path fill="#f2f2f2" d="M361.2 289.57c.92.76 2.05 1.82 3.15 3.02-2.23.43-4.18 2.18-6.58.9-1.1-.58-3.28-2.03-3.92-2.99-.3-.8-.56-1.6-.85-2.4.27-.16.55-.3.82-.44.77-.62 2.76-.95 3.86-1.12 1.15 1.03 2.34 2.02 3.52 3.03M354.2 283.31c.69.69 1.39 1.36 2.1 2.01-1.69.38-3.85 1.06-4.89 2.14-1.31-1.83 1.14-3.36 2.79-4.15M353.43 298l.01.14c-1.08-.74-2.77-.86-3.69-1.8-1.21-1.23-1.72-2.05-1.89-2.72 2.5.52 5.35 1.51 5.57 4.37"/>
  <path fill="#eaa37d" d="m352.6 281.65.52.54a6.35 6.35 0 0 0-3 2.48c-.55.98-.6 2.05-.23 3.02-.7.18-1.34.47-1.9.9a15.33 15.33 0 0 0-2.27-4.31 10.33 10.33 0 0 0 5.3-4.51c.5.63 1.02 1.27 1.57 1.88"/>
  <path fill="#607b84" d="M350.04 278.48a8.83 8.83 0 0 1-5.33 4.58c-5.69-6.23-14.7-8.97-20.37-15.17-2.89-3.16-4.07-7.3-6.7-10.48-1.87-2.28-4.64-4.14-6.88-6.05-6.05-5.15-12.85-8.91-19.88-12.45.8-4.36 1.02-8.97 1.1-13.24.07-3.66.3-7.63.2-11.54a65.5 65.5 0 0 1 8 4.46c4.46 2.9 7.1 5.84 10.1 10.18 3.75 5.45 8.3 10.86 13.6 14.86 3.12 2.35 6.6 4.16 9.39 6.94 3.27 3.26 4.9 7.52 7.13 11.48 3.1 5.5 5.87 11.34 9.64 16.43"/>
  <path fill="#eaa37d" d="M282.86 252.04c1.21-1.95 2.28-3.53 1.96-3.86-.32-.32-2.04.84-3.37 2.98-1.35 2.12-1.65 4.19-1.23 4.33.44.14 1.4-1.51 2.64-3.45Zm10.23 62.66v.09c-.43 0-.94-.18-1.48-.6a28.06 28.06 0 0 1-2.16-2.06c-1.51-1.54-2.8-3.06-3.79-4.12-1-1.06-1.7-1.67-1.89-1.54-.17.14.18.99.96 2.25a25.35 25.35 0 0 0 3.52 4.57c.77.78 1.5 1.44 2.34 2.03a14.56 14.56 0 0 1-6.02-3.52c-.9-1.08-1.52-2.24-2.5-3.21l-.05-.09c-.5-.65-.92-1.27-1.32-1.82a5.72 5.72 0 0 0-.89-1.92c-.47-.65-.92-.92-1.1-.8-.15.12-.14.42-.06.84-.02.33.09.93.37 1.7a15.31 15.31 0 0 1 .3 2.13c-.75 1.1-.67 2.34-2.02 1.55-1.16-.67-1.12-2.07-1.4-3.3-1.24-5.29-1.74-8.8.23-13.9 2.09-5.43 1.03-11.78 1.01-17.49-.05-13.78-2.64-27.4-1.61-41.23a5.26 5.26 0 0 0-.34-2.51l.62-10.93c.54.32 1.08.54 1.53.65.84.21 1.39.09 1.44-.13.05-.23-.37-.52-.96-.94-.6-.43-1.37-1.03-2.2-1.78-.8-.76-1.56-1.5-2.15-2.02-.63-1.65-.54-3.46.17-5.62.84-2.6 1.5-5.22 1.92-7.93.72-4.57.7-9.16.17-13.75 3.12 1.5 6 3.5 7.76 6.34 2.71 4.43 5.14 10.07 5.38 15.22.44 9.34 1 19.91-1.23 29.23-3.16 7.49-.59 15.55-.35 23.36.17 5.09-.74 10.37-1.78 15.34-.78 3.7-2.8 7.31-3 11.07-.1 2.2-.4 4.38-.4 6.49.02 3.3 3.49 7.17 5.13 9.8 1.33 2.14 2.76 4.23 4.2 6.3.26.34 1.68 1.82 1.65 2.25"/>
  <path d="M284.82 248.18c.32.33-.75 1.91-1.96 3.86-1.24 1.94-2.2 3.6-2.64 3.45-.42-.14-.12-2.2 1.23-4.33 1.33-2.14 3.05-3.3 3.37-2.98"/>
  <path fill="#a07222" d="M277.14 176.38c3.61 3.43 5.4 7.75 3.77 12.55-2.8-1.96-6.07-3.34-9.25-4.5a15.54 15.54 0 0 0 1.59-6.6l.9 1.48a5 5 0 0 1 .79 2.5c0 .61-.14.96-.05 1.02.09.06.44-.2.65-.94.22-.71.14-1.89-.38-3.06-.52-1.2-1.24-2.37-1.58-3.87a9.03 9.03 0 0 1-.27-1.5c.71 1.19 1.5 2.24 2.18 3.2a23.96 23.96 0 0 1 2.49 3.88c1.16 2.35.98 4.05 1.23 4.08.11 0 .3-.4.38-1.2.07-.8-.04-1.97-.52-3.32a17.5 17.5 0 0 0-1.93-3.72"/>
  <path fill="#f2f2f2" d="M273.55 188.33c1.04 7.91.17 15.35-2.2 22.97l-.15.54c-.6-2.73-.56-4.82-.94-4.87-.2-.02-.55.8-.69 2.25-.14 1.42.01 3.45.7 5.55l.07.18c-.02.37.02.84.15 1.4.22 1 .86 2.31 1.98 3.4-3.93 1.25-6.89 2.53-6.74 2.94.1.33 2.21 0 5.08-.75-2.69 1.95-5.52 3.73-8.72 4.66-5.13 1.5-9.91-.03-14.46-2.42a32.24 32.24 0 0 1-11.11-9.31 21.53 21.53 0 0 0 4.95 3.02c2.21.98 3.63 1.38 3.73 1.18.1-.22-1.16-1-3.19-2.21-1.97-1.22-4.77-2.95-6.72-5.75a13.13 13.13 0 0 1-2.02-4.96c-.02-1.42 0-3.15.25-5.02.57-4.69 2.27-8.24 1.84-8.48-.18-.1-.88.67-1.64 2.13l-.08.18c1.5-5.45 3.36-10.78 5.6-16.01.53.08 1.05.18 1.58.3.25.15.53.23.83.23.13.3.3.6.45.88l-.06.14a53.37 53.37 0 0 0-2.02 23.03c-.2.43-.14.98.36 1.33a39.58 39.58 0 0 0 23.17 6.75c-.14 1.99-.04 3.37.29 3.42.38.05.94-1.75 1.39-4.24.7-2.75 1.33-5.5 1.94-8.28.12-.16.2-.33.22-.47.09-.25.09-.47.11-.62l.04-.7c.96-4.56 1.77-9.14 2.44-13.77 1.16.42 2.36.87 3.57 1.37"/>
  <path fill="#607b84" d="M273.65 222.34a1432 1432 0 0 1-.42 7.4c-1.02-.6-2.3-1.05-3.73-1.67-1.05-.45-2.05-.92-3.06-1.24a44.64 44.64 0 0 0 7.21-4.5"/>
  <path fill="#eaa37d" d="M269.82 175.41c1.02.45.4 3.92.23 4.76-.09.44-.22.88-.37 1.31l-.05.03-.23.13c.18-2.08.4-4.16.42-6.23"/>
  <path fill="#a07222" d="M269.45 160.33c1.26 3.7 1.04 7.76.15 11.54l-.02.02-.01-.08c-.67-4.24-2.39-8.14-2.3-12.31a3.9 3.9 0 0 0 .52-2.3c.67.86 1.24 1.89 1.66 3.13"/>
  <path fill="#eaa37d" d="M261.36 182.07c.08-.6-.08-1.07-.28-1.43-.19-.35-.41-.59-.6-.76-.38-.34-.64-.45-.71-.38-.1.07 0 .35.2.76.18.41.44 1.03.24 1.56-.1.23-.26.38-.6.54a6.1 6.1 0 0 1-1.36.35 4.5 4.5 0 0 1-2.96-.36 1.6 1.6 0 0 1-.45-.39.53.53 0 0 1-.1-.34c0-.27.3-.76.58-1.32a5.2 5.2 0 0 0 .38-3.32c-.37-1.78-.95-2.67-1.15-2.63-.25.05-.06 1.15-.01 2.74 0 .8-.1 1.71-.57 2.5-.23.42-.7.91-.85 1.86a2.1 2.1 0 0 0 .34 1.43c.27.4.62.69.97.9 1.43.82 2.96.7 4.13.43.6-.16 1.12-.32 1.69-.63.54-.28 1.04-.9 1.1-1.51Zm5.7-14.45c1.55 5.9.74 10.99.62 16.75-1.05 5.42-5.69 12.85-12 11.37-5.9-1.39-7.93-9.71-9.31-14.63a.88.88 0 0 0-.47-.58l-.22-1.37c-.07-.97-.2-1.94-.38-2.88-.26-2.57-.25-5.12.36-7.72.59-2.45 1.38-4.5 1.43-6.95 3 1.22 7.64.82 10.11.82 2.43 0 6.27-.1 8.6-1.52.13 2.2.65 4.4 1.25 6.71"/>
  <path fill="#a07222" d="m266.12 156.25.06.23c-.2.8-.32 1.6-.37 2.37-1.9 2.66-8.95 2.1-10.85 2.06-2.56-.03-9.28.67-9.21-3.54a8.64 8.64 0 0 1 2.66-1.94 3.4 3.4 0 0 0-.01 1.9c.34 1.08 1.05 1.38 1.18 1.2.18-.16-.06-.66-.02-1.38.02-.75.35-1.65 1.22-2.4.13-.11.27-.2.4-.3.51-.13 1.02-.24 1.55-.33-.4.81-.59 1.6-.65 2.26-.1 1.36.26 2.15.47 2.11.25-.02.33-.79.69-1.88a8.77 8.77 0 0 1 1.14-2.21l.02.01c.2.1.4.23.6.34 1.62.92 2.84 1.86 3.54 2.75.73.87.97 1.59 1.2 1.56.22 0 .4-.9-.19-2.18-.3-.62-.78-1.29-1.44-1.91a9.55 9.55 0 0 0-1.1-.9c.7.08 1.47.19 2.21.41a4.59 4.59 0 0 1 2.8 1.93c.5.76.53 1.4.77 1.45.2.06.66-.67.32-1.9a4.21 4.21 0 0 0-1.15-1.84c-.12-.12-.25-.22-.39-.33 1.74.28 3.32.86 4.65 1.87a.65.65 0 0 0-.1.59"/>
  <path fill="#eaa37d" d="M250.03 200.96c.31-.33-.8-1.86-2.64-3.2-1.84-1.35-3.64-1.94-3.85-1.55-.24.4 1.1 1.6 2.87 2.9 1.75 1.27 3.3 2.2 3.62 1.85Zm17.22-9.72c-.58 3.44-1.25 6.87-1.99 10.26h-1.29c-3.44 0-6.23.38-6.23.85 0 .45 2.8.82 6.23.82.33-.01.64-.01.95-.03-.47 2.14-.99 4.27-1.53 6.4a37.24 37.24 0 0 1-21.3-6.06 52.34 52.34 0 0 1 1.61-21.28c.28.12.57.2.89.21 1.8 6.34 5.22 16.36 13.36 15.5 4.06-.42 7.23-3.19 9.3-6.67"/>
  <path d="M261.08 180.64c.2.36.36.83.28 1.43-.07.6-.57 1.23-1.11 1.51-.57.31-1.09.47-1.69.63-1.17.28-2.7.39-4.13-.43-.35-.21-.7-.5-.97-.9a2.1 2.1 0 0 1-.34-1.43c.15-.95.62-1.44.85-1.87.47-.78.56-1.7.57-2.49-.05-1.6-.24-2.7.01-2.74.2-.04.78.85 1.15 2.63.16.88.23 2.1-.38 3.32-.29.56-.59 1.05-.59 1.32 0 .14.03.2.11.34.09.12.25.27.45.4.84.5 1.97.51 2.96.35a6.1 6.1 0 0 0 1.36-.35c.34-.16.5-.3.6-.54.2-.53-.06-1.15-.25-1.56-.18-.41-.3-.69-.2-.76.08-.07.34.04.72.38.19.17.41.4.6.76"/>
  <path fill="#a07222" d="M261.64 150.73c-.68-.09-1.41-.13-2.18-.12-2.17.02-4.64.11-7.06.5-.54-2.77 1.97-5.02 4.83-4.48 2.24.42 3.65 2.1 4.41 4.1"/>
  <path d="M247.4 197.76c1.83 1.34 2.94 2.87 2.63 3.2-.31.35-1.87-.58-3.62-1.86-1.76-1.29-3.1-2.5-2.87-2.89.21-.39 2.01.2 3.85 1.55"/>
  <path fill="#607b84" d="M249.52 227.37c.33.15.66.25.99.38-1.25.72-2.43 1.74-3.55 2.48-2.46 1.65-4.87 3.26-7.45 4.7a54.37 54.37 0 0 0-6.7 4.2c-.96.73-2.34 1.55-3.27 2.4-1.18 1.07-2.22 2.7-3.5 3.72.3-1.8.24-3.47 0-4.66-.27-1.35-.68-2.1-.9-2.05-.47.1 0 3.28-.83 7.02-.77 3.77-2.5 6.47-2.1 6.76.16.13.86-.39 1.64-1.5.36-.5.73-1.15 1.08-1.88.8 5.95.27 12.04-1.31 17.84-1.2 4.36-3.1 8.31-3.44 12.82a82.8 82.8 0 0 0-.17 2.84c-2.6 1.98-5.93 1.83-9.06 1.46-.08-6.13-2.24-12.5-2.88-18.56-.7-6.66-.59-13.17.97-19.7a54.46 54.46 0 0 1 8.93-19.7c1.91-2.58 4.22-4.87 5.9-7.63 2.06-3.38 3.23-7.7 7.29-9.03 3.06 8.3 10.1 14.57 18.36 18.09"/>
  <path fill="#a07222" d="M245.59 160.73c.21 3.56-1.45 6.79-1.84 10.29-.14-.34-.3-.66-.44-.99-.26-3.6-.57-7.6 1.18-10.87.22.63.6 1.14 1.1 1.57"/>
  <path fill="#eaa37d" d="m244.22 179.4.05.65c-.33-.46-.61-1.24-.7-1.44l-.62-1.26c-.29-.83-.55-1.68-.68-2.56-.09-.59-.55-2.64.12-3l.06-.04a25.56 25.56 0 0 1 1.34 4.45c.1 1.07.26 2.14.43 3.2M227.95 180.39a17.85 17.85 0 0 1 9.16-1.67 129.8 129.8 0 0 0-6.47 19.48c-1.58-1.6-3.97-2.57-5.48-4.18-4.62-4.93-3.01-10.82 2.79-13.63M226.73 199.08c2.66 2.4 2.39 4.56 2.8 7.64-.36.14-.7.3-1.02.48a10.32 10.32 0 0 0-2.53-4.85c-2.2-2.43-3.88-4.63-3.96-7.44 1.38 1.69 3.1 2.71 4.71 4.17"/>
  <path fill="#f2f2f2" d="M222.97 296.79c.45 1.25.5 2.5-.75 3.66-1.48 1.37-4.47 2.1-6.57 2.87.74-1.52 4.32-3.34 5.09-3.95a8.71 8.71 0 0 0 2.23-2.58M221.13 292.93c.22.68.61 1.38 1 2.12-.97 2.9-3.9 4.14-6.2 5.85-1.06.8-2.06 1.8-1.96 3a55.83 55.83 0 0 1-16.93.78 6.85 6.85 0 0 1 1.42-4.25c3.54-2.24 7.95 2.82 11.7.25 2.83-1.9 6.86-5.3 8.1-8.74.9 0 1.72-.31 2.36-.9.15.63.3 1.26.51 1.89"/>
  <path fill="#eaa37d" d="m220.25 288.95-.02.07a1.94 1.94 0 0 1-2.02 1.43.9.9 0 0 0-.27-.13c-.44-2.93-3.98-4.12-7.06-4.42.02-.1.04-.2.04-.3l.01-.22c3.15.34 6.33.39 9.04-1.16 0 1.57.08 3.17.28 4.73"/>
  <path fill="#f2f2f2" d="M216.52 290.94c0 .16.05.28.12.39-.96 2.26-4.28.94-6.15.82-1.37-.08-2.72.04-4.06.28-.3-1.22-.64-2.62.2-3.68.64-.8 1.67-1.17 2.66-1.45 2.73.02 7.23.72 7.23 3.64M214 305.4c1.1 4.66-12.43 3.05-16.72 2.21-.08-.5-.14-.98-.18-1.44 5.7.58 11.3.31 16.9-.78M214.8 294.44c-.96.99-2.06 1.88-2.98 2.74-1.56 1.46-3.6 2.78-5.9 2.71-1.01-.01-2.24-.9-3.21-1.17a8.4 8.4 0 0 0-2-.31c1.73-1.25 3.51-2.33 4.95-3.94.09-.09.14-.17.2-.27.1-.06.17-.13.24-.2 1.7-.36 3.37-.48 5.1-.3 1.18.13 2.41.66 3.6.74"/>
  <path d="M.14 117.22c.8 12.54 3.31 24.72 7.6 36.6-.99 3.4-1.51 7.33 1.4 10.03 2.88 2.63 6.96 2.5 10.62 2.06.53-.06.95-.28 1.27-.59a5.22 5.22 0 0 0 3.34-4.2c2.15-2.4 2.05-5.53 1.17-8.51-.73-2.43-1.86-4.82-4.22-5.38a73.33 73.33 0 0 1-1.73-22.28c3.14-1.02 6.31-1.95 9.5-2.78.4 4.3 1.29 8.49 1.96 12.77 1.28 7.84.34 13.81-2.85 21.08-3.62 8.2-4.52 14.62-.3 22.92 3.13 6.16 8.38 14.02 16.3 14.72 6.29 9.14 6.86 20.07 9.35 30.47 1.2 5.06 3.65 10.12 4.59 15.17.44 2.47-.92 4.5-1.52 7.47-.91 4.62-.45 9.24-.37 13.91.05 4.48-.46 8.78.52 13.21.8 3.55 2.99 9.6.78 12.56-1.66 2.21-3.34 2.88-4.39 5.75-1.5 4.14-4.37 11.91 1.45 14.16 4.04 1.56 7.18.26 11.06 3 3.38 2.35 6.55 3.54 10.52 4.68 5.43 1.56 13.52 4.52 17.28-1.71 2.97-4.9-5.98-12.1-8.2-16.3-1.52-2.84-3.2-5.33-6.09-7.02-2.6-1.51-2.48-.18-2.44-3.4.02-2.8-.15-5.64-.02-8.44.44-9.58 4.29-18.65 4.85-28.23 6.13 1.4 12.7-1.48 13.01-8.23.2-4.16-2.2-8.1-3.92-11.76-3.18-6.79-5.55-12.53-5.14-20.06.66-12.38 6.52-23.25 9.12-35.21.75-3.51 1.14-6.83 2.26-10.22 1.56-4.74 2.97-7.73 1.13-12.59-2.17-5.7-7.02-7.03-12.42-7.22a43.2 43.2 0 0 0 7.68-12.42c7.81 8.6 22 19.4 31.75 7.73 4.83-5.75.62-13.06-2.08-18.8-3.58-7.6-7.48-16.46-13.26-22.87l.01-.42c-.4-4.64-2.27-12.6-8.53-12.5-4.25.06-10.47 3.14-9.9 7.72-1.97 2.14-2.15 5.17-1.4 7.9.35 1.2.88 2.39 1.84 3.24.26.2.72.4 1.2.6a5.68 5.68 0 0 1-4.16-1.48c-.9-.8-1.6-1.69-2.44-2.43a23.1 23.1 0 0 0 4.33-17.9c.13-.2.26-.4.34-.64a15.58 15.58 0 0 0-.4-11.24c1.44-4.11-.02-8.3-4.31-10.63-5.48-2.97-11.76-.83-17.05 1.28-5.33 2.1-12.1 3.77-14.05 9.65-.98 2.99-.63 6.47-.36 9.53.19 2.03 2.61 8.12 2.16 10.44-3.94.61-7.62 2.6-11.66 2.5-3.59-.07-6.77-1.12-10.4-.7-5.56.67-10.26 3.44-13.9 7.4-9.42.37-15.22 8.62-19.6 15.77-.76.24-1.35.83-1.28 1.84"/>
  <path d="M33.32 122.1c13.48.27 13.13-16.14 12.02-25.3-.68 0-1.37-.03-2.08-.1-7.44-.7-13.18-.27-18.44 4.9-1 1.22-1.72 2.47-2.11 3.52-.6 1.52-.69 2.63-1.04 2.67-.28.05-.85-1.1-.58-3.05.04-.35.12-.72.23-1.1-8 .29-12.74 8-16.39 13.96a1.9 1.9 0 0 1-.51.56 128.44 128.44 0 0 0 7.44 34.87c.13.32.16.63.12.9a2 2 0 0 1-.09.56c-.66 2.2-1.7 5.35.75 6.89 1.24.78 2.79.9 4.3.8a4 4 0 0 1-.56-.29 6.2 6.2 0 0 1-1.98-2.1c-.8-1.43-.69-2.43-.4-2.51.33-.1.8.67 1.75 1.55.46.45 1.07.94 1.75 1.28.33.16.7.27.98.28a.8.8 0 0 0 .6-.18c.18-.16.35-.47.4-.8a2 2 0 0 0-.12-1.02c-.27-.7-.81-1.38-1.23-1.93l-.63-.82.66-.28c.7-.3.87-1.06 1.14-1.09.15 0 .34.15.4.55.06.22.04.54-.09.89.56.4 1.18.94 1.69 1.82.09.16.16.34.23.51.6-.98.52-2.13.25-3.3-.12-.54-.82-3.8-1.53-3.66-.5.08-.95.02-1.32-.16a1.74 1.74 0 0 1-1.38-1.37 77.75 77.75 0 0 1-2.34-20.97c-.22-1.26-.32-2.81-.57-4.36a8.38 8.38 0 0 0-1.75-4.11c-.75-.9-1.47-1.3-1.39-1.63.05-.27 1.12-.43 2.5.42a6.34 6.34 0 0 1 1.88 1.96c.19.3.33.64.46.98.16-.11.35-.2.56-.27 3.29-1.11 6.63-2.1 10-3a17.5 17.5 0 0 1-1.78-.94c-1.24-.8-1.88-1.42-1.74-1.7.15-.29 1.08-.15 2.44.25 1.37.37 3.16 1 5.14 1.4 1.96.37 3.75.33 5.04.13 1.3-.17 2.13-.47 2.34-.2.18.22-.38 1.06-1.82 1.73a9.4 9.4 0 0 1-3.37.72c.04.7.09 1.42.17 2.13Zm22.5 176.7c2.1.15 4.17-.01 6.18-.57a11.32 11.32 0 0 1-4.57-4.62c-.32.5-.6 1.07-.82 1.7a11.46 11.46 0 0 0-.79 3.48Zm7.16-96.46c3.06-4.61 2.43-11.32 1.64-17.12-2.42 1.7-5.16 2.97-7.86 4.35-2.53 1.29-5.14 2.82-7.93 3.61 3.63 5.94 5.19 12.42 6.51 19.06l.05-.14c1.64-4.35 5.14-6.1 7.59-9.76Zm1.65-22.52c.1-.12.21-.22.32-.3-1.15-8.62-4.71-16.62-6.22-25.26-.82.42-1.66.8-2.52 1.13-3.61 1.42-7.04 2.7-10.46 4.26-.8.51-1.63 1.06-2.43 1.68a20.76 20.76 0 0 0-5.5 6.35c-1.03 1.89-1.39 3.25-1.75 3.21-.28-.02-.53-1.51.2-3.82.37-1.21 1.09-2.6 2.11-3.98-3.95 1.46-8.67 2.97-8.8 6.41-.02.31-.09.6-.22.84.83 5.91 4.2 11.87 8.42 15.75 6.95 6.36 21.16-.14 26.85-6.27Zm1.48 40.22c.29-1.25.89-2.4 1.8-3.35a9.99 9.99 0 0 1-2.8-2.77 5.78 5.78 0 0 1-.81-1.98c-.05-.25-.03-3.15-.19-3.62-1.62 1.27-3.32 2.22-4.38 4.28-.16.34-.34.69-.5 1.07.88 3.2 3.48 5.56 6.88 6.37Zm.78 78.05c.2-1.28.6-2.48 1.22-3.62-3.11-.7-5.98-1.87-8.65-3.5-.2.22-.4.46-.6.72a9.37 9.37 0 0 0 6.22 5.68c.2.06.37.17.49.33.45.1.9.22 1.32.39Zm9.3-67.4a12.42 12.42 0 0 1-2.02-5.57c-.18-1.12-.33-2.03-1.04-2.97-.34-.45-.93-.8-1.3-1.25a7.89 7.89 0 0 1-1.53-3.05c-.14-.04-.32-.08-.49-.15a5.23 5.23 0 0 0-1.81 3.54l-.06.15c1.31 3.91 3.08 8.35 5.54 12.15a5.14 5.14 0 0 1 2.72-2.84Zm-3.56 44.35c.83-9.4 4.61-18.2 4.79-27.68a27.23 27.23 0 0 1-7.57-6.11c-3.01-3.46-4.03-7.96-6.89-11.42-1.16-1.4-2.76-2.25-4.32-3.15 1.02 3.52 2.17 6.97 3.22 10.5.6-1.1 1.27-1.6 1.51-1.46.58.31-.82 3.3.09 6.83.84 3.52 3.54 5.58 3.17 6.1-.17.25-1.11.1-2.33-.8a8.38 8.38 0 0 1-2.5-3.1c-.87 3.21-1.65 6.17-1.64 9.77 0 2.47.33 4.93.33 7.38-.03 5.96 1.06 11.19 1.81 17.04.36 2.76.27 6.51-.9 9.19l-.28.51a26 26 0 0 0 7.13 2.95 6.83 6.83 0 0 1 4.12-3.16c-.75-4.06-.09-9.52.25-13.4Zm6.33 30.9a8.71 8.71 0 0 1 2.23-3.71 15.9 15.9 0 0 1-11.24-6.8 9.14 9.14 0 0 0-1.1 3.65c1.16.72 2.22 1.62 3.35 2.63a21.02 21.02 0 0 0 6.76 4.23Zm3.81-5.62c-2.5-4.11-2.64-4.44-7.2-8.08-1.01-.8-1.68-.71-2.2-1.17-1.1.26-1.94.86-2.5 1.8a13.79 13.79 0 0 0 11.9 7.45Zm3.5-231.44c-.25-4.86-2.47-7.15-6.7-6.82-1.44.07-2.83.32-4.2.77-2 .54-3.89 1.4-5.81 2.16-5.56 2.23-9.87 3.48-10.77 10.08-.18 1.32-.13 2.63.06 3.9a6 6 0 0 1 7 1.37c.15-.75.38-1.47.73-2.24 1.18-2.54 3.37-5.22 1.73-8.03a.94.94 0 0 1-.1-.78c-.16-.4-.09-.88.46-1.11a19.6 19.6 0 0 1 17.6.7Zm-8.01 161.13c2.55-.56 5.62-.4 8.2-.27-2.24-4.92-4-9.54-4.8-14.43-.1 0-.2.03-.34 0-3.66-.71-5.16 1.15-8.09 2.32-.23.11-.48.18-.7.23.55 1.39 1.46 2.16 2.65 3.26.55.52.8.86 1.01 1.54.35 1.23-.04 2.56.25 3.84a8.5 8.5 0 0 0 1.82 3.5Zm11-99.92c-3.1-1.85-3.65-5.02-3.81-8.5-.24-5.25.3-10.48 1.3-15.66-1.4-1.22-2.45-2.77-4.15-3.64.3 1-4.66 7.5-5.46 8.05a12.43 12.43 0 0 1-9.35 1.7c-8.48-1.9-10.27-10.36-10.82-17.54-3.07.56-5.81 1.51-8.74 2 1.34 10.63.4 28.6-14.57 28.43.38 2.66.9 5.32 1.36 7.95a47.3 47.3 0 0 0 2 4.05c3.84 7.1 8.82 11.7 8.34 12.2-.21.22-1.74-.67-3.8-2.55a33.96 33.96 0 0 1-5.64-6.93 41 41 0 0 1 .11 4.65c-.32 6.43-3.62 11.46-5.74 17.35 2.69-1.09 5.64-1.47 8.35-2.9 2.56-1.35 4.9-3.02 7.57-4.17 2.26-.96 4.49-1.89 6.72-2.81l-.08-.09-1.31-1.57-2.47-2.95c-1.54-1.91-2.91-3.64-4.05-5.13-2.25-2.95-3.5-4.86-3.27-5.07.26-.2 1.98 1.37 4.56 4.06a206.5 206.5 0 0 1 7.02 7.7l1.33 1.53.5.58c1.51-.65 3.02-1.3 4.53-1.98-4.75-5.05-7.27-9.11-6.9-9.35.4-.28 3.71 3.5 8.92 8.43 1.05-.48 2.08-.95 3.12-1.46 1.17-.58 2.3-1 3.47-1.36-.39-.18-.77-.37-1.14-.58a33 33 0 0 1-7.59-6.03c-1.66-1.78-2.53-3.01-2.3-3.23.22-.23 1.52.6 3.45 2.06 1.94 1.43 4.52 3.48 7.62 5.24 1.26.7 2.51 1.26 3.73 1.71 2.52-.37 5.1-.47 7.82-.56.05-.07.09-.14.16-.2a41.7 41.7 0 0 0 2.96-3.18c-.26-.13-.5-.27-.76-.42-6.7-3.7-12.44-6.26-12.2-6.86.22-.56 6.48 1.1 13.38 4.9l1 .59a38.5 38.5 0 0 0 4.83-8.46Zm-2.3-49.82c.92-2.75.9-5.42-.05-8.11a2.24 2.24 0 0 1-.72-.94 17.25 17.25 0 0 0-15.8-1.59c1.6 3.49-.88 6.38-2.08 9.54 0 .78-.12 1.83-.22 2.94l-.16 1.6c-.06.47-.14.97-.19 1.2-.14.41 0 .73.05 1.03.1.53-.93.17-1.08.06-.57-.36-.31-.65-.47-1.12-.39-1.06-.9-1.8-1.6-2.77a3.94 3.94 0 0 0-3.1-1.72c-2.79-.05-3.25 2.29-2.56 4.39.6 1.86 1.81 3.67 4.1 3.54.44-.02.77-.16 1.06-.41.59-.47.68-1.07.98-1.18.15-.05.38.07.53.43.17.36.2.97-.1 1.61a3.02 3.02 0 0 1-2.03 1.6c-.65.15-1.34.13-2.02-.05-.08.86-.4 1.7-1.1 2.72-.16.23-.35.4-.56.54.27 4.28.53 8.92 3.45 12.4 3.5 4.2 10.03 4.74 13.82.53.9-1 1.33-2.47 1.85-3.82l-.5.24c-1.9.91-3.48 1.77-4.49 2.57-1.02.74-1.56 1.41-1.9 1.28-.27-.1-.24-1.1.67-2.38.89-1.27 2.65-2.54 4.64-3.48l.94-.44a17.5 17.5 0 0 1-3.6-1c-2.02-.8-3.78-2-5.09-3.36a11.47 11.47 0 0 1-2.56-4.18c-.88-2.68-.25-4.42.02-4.37.36 0 .4 1.63 1.53 3.78.56 1.06 1.4 2.25 2.58 3.32a14.84 14.84 0 0 0 4.44 2.73c1.75.69 3.58 1.09 5.24 1.3.44.05.82.05 1.12 0h.04a18.97 18.97 0 0 0 4.37-16.61c-.17-.77.1-1.4.55-1.82Zm.4 226.26-.74-.92c-.8-1.04-1.62-2.07-2.4-3.13a6.86 6.86 0 0 0-3.24 4.04c1.98.41 4.1.44 6.37.01Zm.58-62.04c-12.21.16-18.51-12.23-21.96-22.4a11.18 11.18 0 0 1-7.67-5.4c-.38 2.15-.17 4.39 1.4 6 .9.9 2.85 1.2 3.94 1.98a13.66 13.66 0 0 1 3.82 4.36c2.58 4.4 4.01 8.67 8.17 12.16 1.06.89 2.5 1.97 4.05 2.82.58.04 1.13.28 1.5.72 1.16.47 2.31.75 3.36.66a8.9 8.9 0 0 0 3.4-.9Zm1.43 64.62c-.23-.27-.44-.55-.65-.82-3.86.94-7.81.83-11.54-.68-4.62-1.87-7.69-7.38-12.7-8.07-2.6.98-5.31 1.43-8.1 1.32a5.35 5.35 0 0 0 2.65 1.98c1.1.43 3-.09 4.24.27 4.36 1.28 7.37 5.04 11.85 6.5 1.9.6 4.29 1.55 6.28 1.8 2.86 1.26 5.5.5 7.97-2.3Zm.59-66.78c1.26-3.13-1.22-7.9-2.54-10.55-4.21-.29-11.77-1-12.21 3.3-.03.23-.13.39-.24.53 3.54 4.56 8.37 7.66 14.99 6.72Zm1.75-76.56c1.5-5.52 6.28-14.09-1.58-17.55-4.17-1.83-11.73-.66-16.3-.2-4.55.44-8.43 2.71-12.37 4.83 1.01 7.02 3.5 13.5 5.17 20.2a17.57 17.57 0 0 1 2.62-5.08 12.1 12.1 0 0 1 3.88-4.28c.8-.51 1.51-.87 2.16-1.13.52-.28 1.03-.53 1.5-.74 3.18-1.37 5.4-1.25 5.4-.98.08.36-1.92.8-4.61 2.39a20.63 20.63 0 0 0-6.68 6.38 25.2 25.2 0 0 0-1.24 5.06c-.5 3.24-.93 6.22-1.1 8.7 1.03 7.28 2.44 16.94-2.3 22.86 1.53 1.49.65 3.47 1.15 5.26.63 2.24 2.71 4.03 5.43 3.1 1.02-.36 1.92-1.3 3.02-1.69 1.8-.65 3.6-.69 5.46-.42a36 36 0 0 1 .15-7.44c1.2-9.75 5.27-18.81 7.94-28.2 1.04-3.66 1.3-7.5 2.3-11.07Zm25.91-26.66c8.1-3.22 5.27-8.64 3.46-12.98-3.65-8.82-8.47-20.09-15.34-27.1a1.86 1.86 0 0 1-.27-2.37c-.2-2.29-.82-6.25-2.8-7.71-1.17-.88-5-.16-6.53 1.32-.11.19-.23.37-.34.58-.13.21-.23.46-.31.72 0 .16.01.34.06.5.15.43.15.79.06 1.11-.02.12-.06.24-.1.35 0 .04.02.08.04.12.08.13.2.24.33.35.28.21.7.32.91.25.23-.02.55-.32.9-.98.34-.59.72-1.46 1.6-2.06l2.27-1.53-.6 2.48c-.61 2.68.35 4.64-.08 4.86-.2.09-.7-.25-1.2-1.13a7.18 7.18 0 0 1-.4-.85c-.1.14-.18.29-.32.45-.38.43-.98.86-1.69.97a3.52 3.52 0 0 1-2.88-.76c-.12-.1-.23-.23-.35-.34-.54 1.05-.45 2.33-.1 3.57.37 1.3 1.04 1.36 2.22 1.72a4.1 4.1 0 0 1 3.1 3.85l.45.4c1.24 1.08 2.92 2.28 4.38 4.27.7.99 1.3 2.26 1.44 3.62.17 1.33.03 2.64-.07 3.86a23.5 23.5 0 0 0 2.33 11.97c1.38 2.9 2.72 4.5 2.43 4.73-.19.2-2.01-1.06-3.92-3.98a21.04 21.04 0 0 1-3.19-12.89c.1-1.27.22-2.43.13-3.44a5.8 5.8 0 0 0-.46-1.74c-.23-.23-.5-.53-.86-.87-.72-.72-1.8-1.56-3.22-2.2-.72-.32-1.43-.6-2.1-.84-2.4.47-4.85.74-7.19.02-.73 3.65-1.93 10.02-1.26 14.83l.13-.23c.38-.65.85-1.17 1.3-1.6.92-.84 1.77-1.39 2.42-1.89 1.32-.93 1.78-1.77 2.14-1.7.13.02.23.34.12.86-.1.53-.47 1.25-1.05 1.95-1.04 1.33-2.9 2.65-3.17 4.29.51.3 1.18.63 1.99.86 1.82.45 3.87.63 3.88 1.3.02.3-.36.57-1.01.79 3.38 4.23 7.1 8.78 12.2 11.15 2.99 1.4 7.24 2.39 10.52 1.09Zm5.34-18.95c2.7 5.74 6.9 13.05 2.08 18.8-9.75 11.66-23.94.87-31.75-7.73a43.2 43.2 0 0 1-7.68 12.42c5.4.19 10.25 1.51 12.42 7.22 1.84 4.86.43 7.85-1.13 12.6-1.12 3.38-1.51 6.7-2.26 10.21-2.6 11.96-8.46 22.83-9.12 35.2-.41 7.54 1.96 13.28 5.14 20.07 1.71 3.66 4.13 7.6 3.92 11.76-.32 6.75-6.87 9.63-13.01 8.23-.56 9.58-4.4 18.65-4.85 28.23-.13 2.8.04 5.65.02 8.44-.04 3.22-.16 1.89 2.44 3.4 2.9 1.69 4.57 4.18 6.09 7.01 2.23 4.21 11.17 11.41 8.2 16.3-3.76 6.24-11.85 3.28-17.28 1.72-3.97-1.14-7.14-2.33-10.52-4.68-3.88-2.74-7.02-1.44-11.06-3-5.82-2.25-2.95-10.02-1.45-14.16 1.05-2.87 2.73-3.54 4.39-5.75 2.2-2.96.02-9.01-.78-12.56-.98-4.43-.47-8.73-.52-13.21-.08-4.67-.54-9.29.37-13.91.6-2.98 1.96-5 1.52-7.47-.94-5.05-3.38-10.1-4.59-15.17-2.5-10.4-3.06-21.33-9.35-30.47-7.92-.7-13.17-8.56-16.3-14.72-4.22-8.3-3.32-14.71.3-22.92 3.2-7.27 4.13-13.24 2.85-21.08-.68-4.28-1.56-8.48-1.96-12.77-3.19.83-6.36 1.76-9.5 2.78-.55 7.52 0 14.92 1.73 22.28 2.36.56 3.49 2.95 4.22 5.38.88 2.98.98 6.1-1.17 8.51a5.22 5.22 0 0 1-3.34 4.2c-.32.3-.74.53-1.27.6-3.66.43-7.74.56-10.61-2.07-2.92-2.7-2.4-6.63-1.41-10.03a131.87 131.87 0 0 1-7.6-36.6c-.07-1 .52-1.6 1.28-1.84 4.38-7.15 10.18-15.4 19.6-15.77 3.64-3.96 8.34-6.73 13.9-7.4 3.63-.42 6.81.63 10.4.7 4.04.1 7.72-1.89 11.66-2.5.45-2.32-1.97-8.41-2.16-10.44-.27-3.06-.62-6.54.36-9.53 1.95-5.88 8.72-7.55 14.05-9.65 5.29-2.1 11.57-4.25 17.05-1.28 4.29 2.33 5.75 6.52 4.31 10.63l.15.3a15.58 15.58 0 0 1 .25 10.94c-.08.24-.2.44-.34.64a23.1 23.1 0 0 1-4.33 17.9c.84.74 1.54 1.63 2.44 2.43a5.68 5.68 0 0 0 4.17 1.47c-.5-.2-.95-.38-1.2-.6a6.64 6.64 0 0 1-1.85-3.23c-.75-2.73-.57-5.76 1.4-7.9-.57-4.58 5.65-7.66 9.9-7.72 6.26-.1 8.14 7.86 8.53 12.5l-.01.42c5.78 6.4 9.67 15.27 13.26 22.87"/>
  <path fill="#eaa37d" d="M121.08 126.13c1.81 4.34 4.63 9.76-3.46 12.98-3.28 1.3-7.53.3-10.51-1.09-5.1-2.37-8.83-6.92-12.21-11.15.65-.22 1.03-.5 1.01-.78 0-.68-2.06-.86-3.88-1.31a8.35 8.35 0 0 1-1.99-.86c.26-1.64 2.13-2.96 3.17-4.29.58-.7.95-1.42 1.05-1.95.11-.52.01-.84-.12-.87-.36-.06-.82.78-2.14 1.71-.65.5-1.5 1.05-2.42 1.9a7.11 7.11 0 0 0-1.43 1.82c-.67-4.81.53-11.18 1.26-14.83 2.34.72 4.8.45 7.19-.02.67.25 1.38.52 2.1.84 1.41.64 2.5 1.48 3.22 2.2l.86.87c.23.55.4 1.13.46 1.74.1 1.01-.04 2.17-.13 3.44a21.04 21.04 0 0 0 3.2 12.9c1.9 2.9 3.72 4.17 3.91 3.97.29-.23-1.05-1.83-2.43-4.72a23.5 23.5 0 0 1-2.33-11.98c.1-1.22.24-2.53.07-3.86a7.85 7.85 0 0 0-1.44-3.62c-1.46-1.99-3.14-3.19-4.38-4.28l-.46-.4a4.1 4.1 0 0 0-3.09-3.84c-1.18-.36-1.85-.42-2.21-1.72-.36-1.24-.45-2.52.1-3.57.11.11.22.24.34.34.74.58 1.73.98 2.88.76a2.97 2.97 0 0 0 1.7-.97c.13-.16.22-.31.32-.45.12.32.25.6.39.85.5.88 1 1.22 1.2 1.13.43-.22-.53-2.18.09-4.86l.59-2.48-2.26 1.53c-.89.6-1.27 1.47-1.6 2.06-.36.66-.68.96-.9.98-.23.07-.64-.04-.92-.25a1.5 1.5 0 0 1-.33-.35l-.05-.12c.05-.1.09-.23.1-.35.1-.32.1-.68-.05-1.1a1.75 1.75 0 0 1-.06-.5c.08-.27.18-.52.31-.73l.34-.58c1.54-1.48 5.36-2.2 6.54-1.32 1.97 1.46 2.59 5.42 2.8 7.7-.43.7-.48 1.61.26 2.38 6.87 7.01 11.7 18.28 15.34 27.1M87.42 167.9c.17-.27-.22-.8-.57-1.57a7.23 7.23 0 0 1-.66-3.15c.11-2.55 1.37-4.8.77-5.16-.26-.18-.9.17-1.6 1.02a6.9 6.9 0 0 0-1.52 4.07 5.38 5.38 0 0 0 1.68 4.18c.93.82 1.77.86 1.9.6Zm2.71-19.68c7.86 3.46 3.09 12.03 1.58 17.55-1 3.57-1.26 7.41-2.3 11.07-2.67 9.39-6.75 18.45-7.94 28.2a36 36 0 0 0-.15 7.44 11.06 11.06 0 0 0-5.46.42c-1.1.39-2 1.33-3.02 1.69-2.72.93-4.8-.86-5.43-3.1-.5-1.8.38-3.77-1.16-5.26 4.75-5.92 3.34-15.58 2.3-22.86.18-2.48.6-5.46 1.11-8.7.3-1.87.67-3.58 1.24-5.06a20.63 20.63 0 0 1 6.68-6.38c2.69-1.59 4.69-2.03 4.62-2.39-.02-.27-2.23-.39-5.41.98-.47.2-.98.46-1.5.74a12.1 12.1 0 0 0-6 5.34 17.57 17.57 0 0 0-2.65 5.15c-1.69-6.7-4.17-13.18-5.18-20.2 3.94-2.12 7.82-4.39 12.38-4.84 4.56-.45 12.12-1.62 16.3.21"/>
  <path fill="#30308c" d="M87.42 231.78c1.32 2.65 3.8 7.42 2.54 10.55-6.62.94-11.45-2.16-14.99-6.72.11-.14.21-.3.24-.53.44-4.3 8-3.59 12.2-3.3"/>
  <path fill="#f2f2f2" d="M88.72 308.29c.21.27.42.55.65.82-2.46 2.8-5.11 3.56-7.97 2.3-1.99-.25-4.38-1.2-6.28-1.8-4.48-1.46-7.49-5.22-11.85-6.5-1.24-.36-3.15.16-4.24-.27a5.35 5.35 0 0 1-2.66-1.98c2.8.11 5.5-.34 8.1-1.32 5.02.69 8.09 6.2 12.71 8.07a18.58 18.58 0 0 0 11.54.68M65.98 222.1c3.45 10.16 9.75 22.55 21.96 22.4a8.9 8.9 0 0 1-3.39.9 7.45 7.45 0 0 1-3.35-.67 2.14 2.14 0 0 0-1.51-.72 26.1 26.1 0 0 1-4.05-2.82c-4.16-3.49-5.59-7.76-8.17-12.16a13.66 13.66 0 0 0-3.82-4.36c-1.1-.79-3.03-1.08-3.94-1.98-1.57-1.61-1.78-3.85-1.4-6a11.18 11.18 0 0 0 7.67 5.4"/>
  <path d="M86.85 166.33c.35.78.74 1.3.57 1.57-.13.25-.97.2-1.9-.6a5.38 5.38 0 0 1-1.68-4.2 6.9 6.9 0 0 1 1.52-4.06c.7-.85 1.34-1.2 1.6-1.02.6.36-.66 2.61-.77 5.16-.03 1.25.3 2.37.66 3.15"/>
  <path fill="#30308c" d="m86.62 305.6.73.93c-2.27.43-4.39.4-6.37 0a6.86 6.86 0 0 1 3.24-4.05c.78 1.06 1.6 2.1 2.4 3.13"/>
  <path fill="#eaa37d" d="M86.26 86.5c.14-.44.13-.84.08-1.15-.1-.62-.2-.95-.32-1.4-.11-.4-.24-.8-.33-1.19-.24-.76-.48-1.44-.72-2-.47-1.1-.92-1.78-1.25-1.71-.3.07-.43.84-.38 2.05a21.67 21.67 0 0 0 .41 3.33c.09.38.16.78.24 1.2l.02.2c-.08.07-.29.17-.53.2-.56.08-1.24 0-1.74-.1-1.07-.2-1.77-.56-2.01-.31-.22.18.12 1.05 1.36 1.78.63.36 1.41.67 2.5.7.55 0 1.2-.05 1.89-.55.33-.24.64-.63.78-1.06Zm.65-14.34c.95 2.69.97 5.36.05 8.1a1.9 1.9 0 0 0-.55 1.83 18.97 18.97 0 0 1-4.37 16.6l-.04.02c-.3.04-.68.04-1.12-.02-1.66-.2-3.49-.6-5.24-1.3a14.84 14.84 0 0 1-4.44-2.72 12.28 12.28 0 0 1-2.58-3.32c-1.13-2.15-1.17-3.78-1.53-3.78-.27-.05-.9 1.69-.02 4.37.44 1.3 1.26 2.81 2.56 4.18a14.38 14.38 0 0 0 5.1 3.36c1.2.49 2.41.8 3.59 1l-.94.44c-1.99.94-3.75 2.21-4.64 3.48-.91 1.28-.94 2.29-.66 2.38.33.13.87-.54 1.9-1.28 1-.8 2.57-1.66 4.48-2.57l.5-.24c-.52 1.35-.96 2.81-1.85 3.82-3.8 4.2-10.32 3.67-13.82-.54-2.92-3.47-3.18-8.11-3.45-12.39.21-.13.4-.3.57-.54.7-1.01 1.01-1.86 1.09-2.72.68.18 1.38.2 2.02.04 1-.22 1.75-.95 2.04-1.59.3-.64.26-1.25.09-1.6-.15-.37-.38-.5-.53-.44-.3.1-.4.71-.98 1.18-.29.25-.62.39-1.05.41-2.3.13-3.52-1.68-4.11-3.54-.7-2.1-.23-4.44 2.56-4.39 1.31.04 2.36.73 3.1 1.72.7.96 1.21 1.71 1.6 2.77.16.47-.1.76.47 1.12.15.11 1.18.47 1.08-.06-.05-.3-.19-.62-.05-1.04.05-.22.13-.72.19-1.2l.16-1.59c.1-1.11.21-2.16.22-2.94 1.2-3.16 3.69-6.05 2.09-9.54a17.25 17.25 0 0 1 15.8 1.59c.14.38.4.7.71.94"/>
  <path fill="#30308c" d="M85.45 121.59c.16 3.48.71 6.65 3.81 8.5a38.5 38.5 0 0 1-4.82 8.46l-1.01-.59c-6.9-3.8-13.16-5.46-13.38-4.9-.24.6 5.5 3.17 12.2 6.86.25.15.5.29.76.42a41.7 41.7 0 0 1-2.96 3.17c-.07.07-.11.14-.16.2-2.73.1-5.3.2-7.82.57-1.22-.45-2.47-1-3.73-1.71-3.1-1.76-5.68-3.8-7.62-5.24-1.93-1.46-3.23-2.29-3.46-2.06-.22.22.65 1.45 2.31 3.23a33 33 0 0 0 7.59 6.03c.37.2.75.4 1.14.58-1.16.36-2.3.78-3.47 1.36-1.04.51-2.07.98-3.12 1.46-5.2-4.93-8.53-8.71-8.93-8.43-.36.24 2.16 4.3 6.91 9.35a408.9 408.9 0 0 1-4.53 1.98l-.5-.58-1.33-1.54-2.56-2.88a206.5 206.5 0 0 0-4.46-4.8c-2.58-2.7-4.3-4.26-4.56-4.07-.24.2 1.02 2.12 3.27 5.07 1.14 1.49 2.5 3.22 4.05 5.13l2.47 2.95 1.3 1.57.09.09c-2.23.92-4.46 1.85-6.72 2.81-2.67 1.15-5.01 2.82-7.57 4.16-2.71 1.44-5.66 1.82-8.35 2.9 2.12-5.88 5.42-10.9 5.74-17.34a41 41 0 0 0-.1-4.65 33.96 33.96 0 0 0 5.63 6.93c2.06 1.88 3.59 2.77 3.8 2.54.48-.5-4.5-5.09-8.34-12.19a47.3 47.3 0 0 1-2-4.05c-.46-2.63-.98-5.29-1.36-7.95 14.98.16 15.91-17.8 14.57-28.43 2.93-.49 5.67-1.44 8.74-2 .55 7.18 2.34 15.64 10.82 17.53 3.2.7 6.68.07 9.35-1.7.8-.53 5.76-7.04 5.46-8.04 1.7.87 2.75 2.42 4.15 3.64-1 5.18-1.54 10.41-1.3 15.66"/>
  <path d="m84 85.84-.01-.2c-.08-.43-.15-.83-.24-1.21l-.2-1.22c-.1-.78-.2-1.5-.21-2.11-.05-1.2.08-1.98.38-2.05.33-.07.78.6 1.25 1.71.24.56.48 1.24.72 2l.33 1.2c.11.44.22.77.32 1.39a2.2 2.2 0 0 1-.87 2.2c-.68.5-1.33.55-1.88.55a5.08 5.08 0 0 1-2.5-.7c-1.24-.73-1.58-1.6-1.36-1.78.24-.25.94.1 2 .31.51.1 1.2.18 1.75.1.24-.03.45-.13.53-.2"/>
  <path fill="#30308c" d="M86.45 229.74c-2.57-.13-5.64-.3-8.2.27a8.5 8.5 0 0 1-1.8-3.51c-.3-1.28.09-2.6-.26-3.84a3.04 3.04 0 0 0-1.01-1.54c-1.2-1.1-2.1-1.87-2.64-3.26.21-.05.46-.12.69-.23 2.93-1.17 4.43-3.03 8.1-2.32.12.03.22 0 .33 0 .8 4.9 2.56 9.51 4.8 14.43"/>
  <path fill="#333" d="M79.58 62.06c4.22-.33 6.44 1.96 6.7 6.82a19.6 19.6 0 0 0-17.61-.7c-.55.23-.62.7-.46 1.1-.07.23-.07.5.1.79 1.64 2.81-.55 5.5-1.73 8.03-.35.77-.58 1.5-.73 2.24a6 6 0 0 0-7-1.38 13.55 13.55 0 0 1-.06-3.9C59.7 68.48 64 67.23 69.56 65c1.92-.77 3.81-1.62 5.81-2.16 1.37-.45 2.76-.7 4.2-.77"/>
  <path fill="#30308c" d="M75.57 292.24c4.56 3.64 4.7 3.97 7.2 8.08a13.79 13.79 0 0 1-11.9-7.44 3.74 3.74 0 0 1 2.5-1.8c.52.45 1.19.35 2.2 1.16"/>
  <path fill="#30308c" d="M81.2 302.23a8.71 8.71 0 0 0-2.24 3.7 21.02 21.02 0 0 1-6.76-4.22c-1.13-1-2.19-1.9-3.34-2.63.12-1.3.46-2.52 1.09-3.65a15.9 15.9 0 0 0 11.24 6.8"/>
  <path fill="#eaa37d" d="M77.42 247.36c-.18 9.48-3.96 18.28-4.8 27.68-.34 3.87-1 9.33-.25 13.39a6.83 6.83 0 0 0-4.12 3.16 26 26 0 0 1-7.13-2.95c.1-.17.2-.33.28-.51 1.17-2.68 1.26-6.43.9-9.19-.75-5.85-1.84-11.08-1.81-17.04 0-2.45-.33-4.9-.33-7.38 0-3.6.77-6.56 1.63-9.76a8.38 8.38 0 0 0 2.51 3.08c1.22.9 2.16 1.06 2.33.8.37-.51-2.33-2.57-3.17-6.09-.91-3.53.49-6.52-.09-6.83-.24-.14-.91.36-1.51 1.45-1.05-3.52-2.2-6.97-3.22-10.49 1.56.9 3.16 1.76 4.32 3.15 2.86 3.46 3.88 7.96 6.9 11.42a27.23 27.23 0 0 0 7.56 6.11"/>
  <path fill="#30308c" d="M74.17 225.12c.34 2.16.84 3.88 2.03 5.58-1.25.6-2.2 1.5-2.72 2.84-2.46-3.8-4.23-8.24-5.54-12.15l.06-.15c.09-1.4.78-2.6 1.81-3.54.17.07.35.1.5.15a7.89 7.89 0 0 0 1.52 3.05c.37.44.96.8 1.3 1.25.71.94.86 1.85 1.04 2.97M68.1 294.47a11.24 11.24 0 0 0-1.21 3.62c-.43-.17-.87-.3-1.32-.4a.97.97 0 0 0-.5-.32 9.37 9.37 0 0 1-6.22-5.68c.2-.26.4-.5.61-.73a28.16 28.16 0 0 0 8.65 3.5"/>
  <path fill="#333" d="M67.91 216.7a7.13 7.13 0 0 0-1.8 3.34c-3.4-.81-6-3.17-6.87-6.37.15-.38.33-.73.5-1.07 1.05-2.06 2.75-3.01 4.37-4.28.16.47.14 3.37.19 3.62.12.7.43 1.36.8 1.98a9.99 9.99 0 0 0 2.81 2.77M64.95 179.52c-.1.08-.22.18-.32.3-5.69 6.13-19.9 12.63-26.85 6.27-4.23-3.88-7.6-9.84-8.42-15.75.13-.24.2-.53.21-.84.14-3.44 4.86-4.95 8.81-6.4a13.66 13.66 0 0 0-2.11 3.97c-.73 2.3-.48 3.8-.2 3.82.36.04.72-1.32 1.75-3.21 1-1.9 2.86-4.3 5.5-6.35.8-.62 1.62-1.17 2.43-1.68 3.42-1.56 6.85-2.84 10.46-4.26.86-.34 1.7-.71 2.52-1.13 1.5 8.64 5.07 16.64 6.22 25.26M64.62 185.22c.8 5.8 1.42 12.51-1.64 17.12-2.45 3.66-5.95 5.41-7.6 9.76 0 .04-.02.09-.04.14-1.32-6.64-2.88-13.12-6.5-19.06 2.78-.79 5.39-2.32 7.92-3.61 2.7-1.38 5.44-2.64 7.86-4.35M62 298.23c-2 .56-4.07.72-6.18.56a11.46 11.46 0 0 1 1.61-5.18 11.32 11.32 0 0 0 4.57 4.62"/>
  <path fill="#eaa37d" d="M45.34 96.8c1.11 9.16 1.46 25.57-12.02 25.3a39.5 39.5 0 0 1-.17-2.14 9.4 9.4 0 0 0 3.37-.72c1.44-.67 2-1.5 1.82-1.73-.2-.27-1.04.03-2.34.2-1.29.2-3.08.24-5.04-.14-1.98-.39-3.77-1.02-5.14-1.39-1.36-.4-2.29-.54-2.44-.26-.14.29.5.92 1.74 1.7.49.3 1.1.64 1.77.95-3.36.9-6.7 1.89-10 3-.2.06-.39.16-.55.27a6.22 6.22 0 0 0-.46-.98A6.34 6.34 0 0 0 14 118.9c-1.38-.85-2.45-.7-2.5-.42-.08.32.64.73 1.4 1.63.76.9 1.44 2.28 1.74 4.11.25 1.55.35 3.1.57 4.36-.17 7.07.6 14.04 2.34 20.97.2.8.74 1.24 1.38 1.37.37.18.83.24 1.32.16.71-.13 1.4 3.12 1.53 3.65.27 1.18.34 2.33-.25 3.31a3.8 3.8 0 0 0-.23-.5 5.71 5.71 0 0 0-1.69-1.83c.13-.35.15-.67.1-.89-.07-.4-.26-.56-.4-.55-.28.03-.44.78-1.15 1.1l-.66.27.63.82c.42.55.96 1.22 1.23 1.93a2 2 0 0 1 .11 1.02c-.04.33-.2.64-.38.8a.8.8 0 0 1-.61.18c-.28-.01-.65-.12-.98-.28a7.36 7.36 0 0 1-1.75-1.28c-.94-.88-1.42-1.65-1.74-1.55-.3.08-.4 1.08.4 2.5.4.7.98 1.45 1.97 2.11.17.11.36.2.56.3-1.51.09-3.06-.03-4.3-.81-2.46-1.54-1.4-4.69-.75-6.9a2 2 0 0 0 .1-.55c.03-.27 0-.58-.13-.9-4.1-11.33-6.6-22.9-7.44-34.87.19-.13.36-.32.51-.56 3.65-5.96 8.4-13.67 16.39-13.96-.1.38-.2.75-.23 1.1-.27 1.96.3 3.1.58 3.05.35-.04.43-1.15 1.04-2.67.4-1.05 1.11-2.3 2.11-3.51 5.26-5.18 11-5.62 18.44-4.9.71.06 1.4.1 2.08.08"/>
</svg>
