<svg xmlns="http://www.w3.org/2000/svg" width="500" viewBox="0 0 375 375" height="500" version="1.0">
  <defs>
    <clipPath id="a">
      <path d="M0 88.18h195v180.75H0Zm0 0"/>
    </clipPath>
    <clipPath id="b">
      <path d="M292.7 197.54H375v82.76h-82.3Zm0 0"/>
    </clipPath>
    <clipPath id="c">
      <path d="M292.7 197.54H365V266h-72.3Zm0 0"/>
    </clipPath>
    <clipPath id="d">
      <path d="M338 197.54h1v.46h-1Zm0 0"/>
    </clipPath>
    <clipPath id="e">
      <path d="M321 197.54h18V210h-18Zm0 0"/>
    </clipPath>
    <clipPath id="f">
      <path d="M292.7 214H368v28h-75.3Zm0 0"/>
    </clipPath>
    <clipPath id="g">
      <path d="M292.7 218H365v27h-72.3Zm0 0"/>
    </clipPath>
    <clipPath id="h">
      <path d="M226 100h149v187.2H226Zm0 0"/>
    </clipPath>
  </defs>
  <g clip-path="url(#a)">
    <path d="M76.95 236.69c-1.35.2-2.65.49-3.93.83.58-10.7.02-21.34-1.65-31.95a24.59 24.59 0 0 0 1.86-11.95l-.02-.16c1.34-3.14 3-6.12 4.93-8.93A41.73 41.73 0 0 1 95.6 195c-4.2 5.36-6.48 11.52-8.6 17.96-2.7 8.25-6.17 16-10.06 23.74Zm107.4 11.2c-7.4-6.72-15.9-12.1-22.94-19.25-7.41-7.52-14.45-14.64-22.74-21.22-4.12-3.26-7.75-6.72-10.48-11.24-1.25-2.1-2.42-4.34-4.03-6.18-1.35-1.52-3.04-2.53-4.52-3.93 1.25-2.21 2.44-4.44 2.95-7.25.64-3.59 1.06-7.97.14-11.48l-.06-.15c3.43-7.1 3.87-17.1-2.26-22.8-.14-.13-.3-.22-.44-.28.95-8.78-.2-17.77-10.97-19.5-5.73-.91-12.29 1.37-16.8 4.85-2.44 1.88-3.53 3.8-4.05 5.9-8.92-1.5-17.83-3.13-26.02-7.15-7.45-3.66-14.31-8.57-21.28-13.04-7.27-4.7-14.87-9.11-21.31-14.95-4.95-4.49-9.46-9.05-15.78-11.55-.58-.22-1.06-.08-1.38.24A3.84 3.84 0 0 0 0 92.3c-.02.46.21.89.57 1.18.02.04.02.08.06.12A38 38 0 0 0 4 98.03c-1.33 1.18-2.54 2.76-2 4.68.65 2.35 3.62 2.42 5.03 4.07 1.41 1.67 2.44 3.36 4.35 4.58 2 1.3 4.25 1.9 6.6 2 8.42 4.06 13.47 12.11 20.03 18.45 6.41 6.18 13.74 11.27 21.07 16.28-4.64 4.52-9.26 9.34-11.25 15.67-2.34 7.37.7 14.79 1.9 22.1 1.27 7.67 2.08 15.5 1.78 23.26-.3 6.9 2.2 12.79 3.94 19.34 1.75 6.58 5.95 14.01 3.58 20.68-1.5 4.2-5.48 10.89-2.86 15.39 2.12 3.63 8.77 3.9 12.45 3.87 3.52-.03 7.58-.76 8.68-4.15 7.9-2.86 9.55-14.05 12.5-20.9 2.05-4.78 4.31-9.48 6.74-14.08 2.2-4.18 5.08-8.17 6.9-12.52 1.05-2.45 1.53-4.83 3.21-6.98.56-.7 1.14-1.37 1.73-2.04 3.79 3.32 7.97 6.04 12 9.04 4.96 3.7 9.18 8.22 14.05 12.01 9.2 7.15 19.36 13.2 29.11 19.58-2.14 6.67-.08 10.3 6.19 13.62 7.1 3.77 14.34 6.72 22.48 5.17.4-.07.67-.26.85-.5.18-.14.35-.32.46-.6 3.02-7.14-4.39-13.8-9.18-18.16"/>
    <path d="m64.35 132.59-.38-.16c-7.6-3.22-14.4-7.99-21.31-12.43-7.07-4.57-14.48-8.86-21.14-14.06-6.05-4.72-10.94-11.08-18.15-14.11-.05.06-.11.11-.13.11 0 .02-.02.03-.02.03l.07.07a33.03 33.03 0 0 0 2.8 3.7c.42.39.85.8 1.28 1.27a13.99 13.99 0 0 1 2.58 3.92c.72.69 1.3 1.4 1.59 2.1.46 1.03.33 1.77.11 1.8-.25.06-.55-.49-1.15-1.15-.59-.66-1.57-1.5-2.73-2.36a5.4 5.4 0 0 0-1.57-.85l-.21-.05c-1.36 1.5.67 1.88 1.77 2.65.8.58 1.37 1.37 1.94 2.14 2.27 3.1 4.82 5.04 8.81 5.08.45 0 .78.15 1.03.38 7.58 3.66 12.4 10.35 18.05 16.33 5.92 6.23 12.82 11.34 19.84 16.2 2.45-3.45 4.75-6.99 6.92-10.61Zm1.25 125.23v-.05c-1.8-.14-4.17-.02-4.48-2.11-.23-1.48.49-3.2.86-4.6.2-.76.33-1.51.43-2.26-1.24 3.6-3.28 7-3.59 10.82a5 5 0 0 0 3.12 2.4c.65-1.38 2-2.14 3.51-1.99-.1-.7-.06-1.46.15-2.21Zm2.65-5.32c.75-1.6 1.28-3.27 1.68-4.99-1.7.38-3.47.3-5.1-.33-.24-.09-.48-.21-.7-.36-.04 1.43-.2 2.86-.56 4.26-.23.94-1.16 2.83-.9 3.77.4 1.47 2.31 1.27 3.44 1.42l.06.03c.62-1.3 1.47-2.52 2.08-3.8Zm2.6-61.23a54.04 54.04 0 0 1 5.1-9A34.66 34.66 0 0 1 64 176.34a23.89 23.89 0 0 1-4.98-5.28c-.22-.16-.45-.33-.69-.48-2.98-2.08-5.79-3.2-5.65-3.68.06-.35 2.08-.16 4.53 1.02a19.28 19.28 0 0 1-1.76-11.5c-2.18 2.66-3.99 5.6-4.9 8.97-1.89 6.9 1.43 14.64 2.47 21.5.55 3.69 1.08 7.45 1.48 11.2.13-.45.28-.84.46-1.18.6-1.23 1.25-1.8 1.45-1.7.44.25-1.05 3.13-.56 6.77.44 3.66 2.61 6.06 2.26 6.4-.16.16-.93-.22-1.84-1.25a8.76 8.76 0 0 1-1.4-2.26c-.08 4.62-.7 9.1.88 13.71 1.77 5.13 2.91 10.4 4.44 15.61.76 2.53 2.24 5.26 2.85 7.98a34.8 34.8 0 0 1 6.84-3.6c.66-10.68.2-21.3-1.43-31.88-.45.47-.9.85-1.34 1.12-1.29.83-2.28.86-2.33.65-.1-.25.66-.68 1.56-1.6.92-.92 1.95-2.4 2.63-4.27.66-1.88.96-3.73 1.24-5.1.08-1.15.08-2.31-.02-3.48l-.03-.12a1.26 1.26 0 0 1-.12-.51 11.4 11.4 0 0 0-.83-2.3c-.52-1.06-1.03-1.67-.87-1.87.12-.18.98.12 1.9 1.18.2.25.42.54.62.88Zm2.25 73.39c-2.16.34-4.57.16-4.98-1.43a3.5 3.5 0 0 1-2.08-1.53c-.08 0-.13.01-.2-.02-1.3-.38-2.33.16-2.69 1.46-.11.45-.53.61-.94.55a6.75 6.75 0 0 1-3.19-1.44c.68 1.95 2.65 2.28 5.38 2.69 1.4.22 6.27.91 8.7-.28Zm13.91-51.7c2.12-6.45 4.4-12.61 8.6-17.97a41.73 41.73 0 0 0-17.47-10.46 52.24 52.24 0 0 0-4.93 8.93l.02.16a24.6 24.6 0 0 1-1.86 11.95 152.18 152.18 0 0 1 1.65 31.95c1.28-.34 2.58-.63 3.93-.83 3.9-7.74 7.35-15.49 10.06-23.74Zm8.31-71.46a.73.73 0 0 1 .11-.34 8.59 8.59 0 0 1-.79-2.28c-.46-2.39-.43-5.36.45-7.86a10.86 10.86 0 0 0-3.77 3.82c-1.66 3.21-.46 7.42-.96 10.88l-.07.39.25-.19c1.73-1.17 4.51-1.97 4.78-4.42Zm6 41.77a6.18 6.18 0 0 0-.2-1.24 49.67 49.67 0 0 1-16.3 1.74 44.9 44.9 0 0 1 12.56 8.64 73.79 73.79 0 0 0 3.22-6.31l.08-.12c.03-.21.13-.42.27-.59l.1-.36.27-1.76Zm10.3-26.88c0-2.66-1.58-5.4-.98-8.14-2.27.66-4.73.07-7.23-.91-2.53-1-5.13-2.45-6.86-4.54a5.62 5.62 0 0 1-1.99 2.5c-1.6 1.17-3.87 1.83-4.83 3.62-.66 2.83-1.42 5.57-1.12 8.62.56 5.3 3.78 13.4 11.02 10.46 3.9-1.6 7.29-5.5 9.78-8.79.69-.9 1.45-1.85 2.22-2.82Zm1.54 36.65c.41-1.33.94-2.54 1.53-3.7-4.13.36-8.42 1.1-11.92-1.06-1.4 2.53-2.78 5.06-4.17 7.6-.05.23-.15.48-.34.69l-.17.23c-.1.16-.19.31-.27.48-.12.22-.28.36-.46.44-4.6 6.18-6.47 13.65-8.97 20.86-2.43 7.02-5.74 13.67-9.09 20.3-.31.6-.84.82-1.35.75-4.69.68-9.08 2.3-12.98 4.92 0 0 0 .03-.03.05-.38.58 2.49.97 2.65.99 1.09.05 2.1-.17 3.1-.56h.06c.68-.38 1.82.2 1.64 1.23a29.4 29.4 0 0 1-1.8 6.24c-.41.97-3.32 5.54-2.72 7.7.17.16.33.25.36.2.1 0 .35-.12.56-.45.21-.34.48-.91.76-1.42 2.2-4.14 4.33-7.3 4.75-7.08.36.2-.63 2.78-2.3 6.1-.34.85-.76 1.86-1.17 2.98-.2.54-.33 1.08-.24 1.42.03.14.14.3.22.38.13.07.12.06.18.05.04 0 .15-.1.27-.22 2.85-4.89 5.26-8.43 5.62-8.21.16.1-.06.84-.58 2.03l-.57 1.44a43.5 43.5 0 0 1-2.39 4.7l-.2.36c.06 0 .11 0 .18-.02 1.13-.15 1.88-1.52 2.57-2.79.71-1.25 1.37-2.39 1.94-3.32 1.15-1.87 1.96-2.97 2.18-2.85.21.1-.23 1.4-1.09 3.43-.44 1-.99 2.2-1.61 3.48-.1.23-.22.44-.33.66 5.06-2.34 6.32-9.96 8.24-14.68.33-.84.7-1.7 1.07-2.53-.2.05-.36.08-.53.1-1.04.02-1.51-.51-1.4-.71.1-.23.59-.23 1.16-.5a2.69 2.69 0 0 0 1.43-1.73c.28-.91.16-1.87.05-2.61-.11-.74-.19-1.28.03-1.39.2-.11.65.2 1.12.95.13.21.25.48.36.78l1.27-2.8c3.57-7.6 8.55-14.68 11.54-22.48a22.23 22.23 0 0 1 4.36-7.18c3.52-4.15 5.93-8.07 7.48-13.25Zm-7.77-46.63c7.92 2.35 11.48-5.98 11.36-12.66a9.14 9.14 0 0 0-3.08-3.94 6.37 6.37 0 0 1-.1 6.38c-.64 1-1.3 1.36-1.46 1.2-.2-.14.08-.75.33-1.7a8.1 8.1 0 0 0 .22-3.65 8.26 8.26 0 0 0-1.53-3.31c-.12-.16-.22-.3-.34-.43a13.55 13.55 0 0 0-5.78-.73c-.47.36-.94.78-1.35 1.29a8.53 8.53 0 0 0-1.63 4c-.18 1.14-.12 1.93-.37 1.98-.2.08-.7-.63-.85-2a7 7 0 0 1 .63-3.64 8.43 8.43 0 0 0-2.47 5.13c-.15 1.29-.04 2.15-.29 2.22-.2.09-.77-.7-.93-2.22a7.57 7.57 0 0 1 1.61-5.43c-.6.23-1.18.47-1.75.73-2.1 3-2.28 8.39-.65 11.22 1.6 2.8 5.47 4.69 8.43 5.56Zm10.75 2.61c.43-2.32 1.05-5.67 1.27-8.78a14.66 14.66 0 0 1-3.87 6.3c-.34.34-.7.61-1.06.85 0 .1-.02.2-.06.31-1 2.39-.06 4.76.4 7.16 1.4-1.88 2.7-3.85 3.32-5.84Zm2.14 33.57c1.74-3.98 2.61-10.13 1.47-14.43-.04-.16-.05-.3-.05-.44-.06-.08-.08-.17-.13-.27l-.27.3a5.75 5.75 0 0 0-1.63 2.95 9.25 9.25 0 0 0 .3 3.83l.68 2.67-2.43-1.34-.3-.2a7.27 7.27 0 0 0 .88 4.18l.56.97-.9.62c-.98.67-2.18.84-3.16.63a5.33 5.33 0 0 1-3.6-2.57c-.58-.33-1.2-.8-1.82-1.4a9.41 9.41 0 0 1-2.58-5.13 10.4 10.4 0 0 1 .05-3.48c.13-.71.36-1.45.68-2.14-.48.43-.98.84-1.5 1.25-.76.8-1.6 1.68-2.6 2.59-1.8 1.65-3.88 2.77-5.55 3.03-1.66.29-2.68-.13-2.64-.34.02-.26.98-.3 2.31-.84.66-.26 1.4-.65 2.18-1.16a8.7 8.7 0 0 1-2.68.18c-5.09-.53-8.22-6.46-9.42-10.86-.17-.62-.29-1.23-.38-1.83-.99 2.93-1.93 4.81-2.22 4.71-.47-.16.69-4.65 1.97-10.2.57-2.44 1.07-4.69 1.5-6.44.22-1.2.41-2.43.5-3.7.14-1.94.13-3.7.23-5.32-7.21-1.21-14.47-2.48-21.34-5.02a163.98 163.98 0 0 1-7.2 11.04c.92.62 1.82 1.24 2.7 1.86.35.22.54.5.63.82 1.83 1.15 4.04 2.6 6.49 4.05 1.53.93 2.95 1.73 4.32 2.18 1.37.46 2.63.53 3.68.3 2.14-.4 2.95-1.72 3.16-1.57.1.05.04.47-.37 1.06a5.04 5.04 0 0 1-2.47 1.71 7.57 7.57 0 0 1-4.45.03 19.2 19.2 0 0 1-4.76-2.21c-.35-.21-.7-.42-1.03-.64.66.8 1.24 1.55 1.68 2.24 1.06 1.59 1.5 2.7 1.32 2.83-.44.27-3.16-3.44-7.42-7.07l-.62-.52v.01c-1.04 1.01-2.1 2.04-3.14 3.09-4.64 9.43 1.44 19.65 10.11 24.48 1.2.66 2.41 1.24 3.67 1.75a17.78 17.78 0 0 1-4.54-3.9 22.98 22.98 0 0 1-2.78-4.22c-1.32-2.55-1.79-4.23-1.6-4.33.25-.11 1.12 1.4 2.65 3.7 1.54 2.27 3.84 5.38 7.37 7.4 1.75 1.02 3.6 1.6 5.32 1.77 1.72.16 3.31-.09 4.63-.38 2.65-.63 4.26-1.34 4.37-1.1.1.19-1.3 1.3-4.04 2.28-1.3.45-2.94.84-4.82.79 4.7.98 9.59 1.1 14.4.5-.93-.3-1.7-.72-2.26-1.16-1.03-.77-1.4-1.5-1.25-1.66.31-.36 2.66 1.46 6.02 1.52.82.02 1.62-.05 2.32-.18.72-.15 1.45-.34 2.11-.39.45-.03.83.02 1.16.1.31-3.01.44-5.26.84-5.3.45-.04 1.15 3.24.67 7.36l.1.39a7.97 7.97 0 0 1 1.98-2.61c1.06-.84 1.94-.9 2.01-.68.1.23-.5.66-1.14 1.55-.66.87-1.32 2.26-1.92 3.93-.24.68-.49 1.34-.76 1.97 3.46 2.47 8.22 1.25 12.38.94.82-1.46 1.66-2.91 2.37-4.53Zm3.15-20.91c1.2-4.7.91-9.99-1.99-13.75a55.59 55.59 0 0 1-.33 1.92 25.2 25.2 0 0 1-2.5 5.3 8.4 8.4 0 0 1-.75 2.92 16.94 16.94 0 0 1-3.14 4.5c-1.33 1.49-2.88 2.97-3.94 4.72a8.48 8.48 0 0 0 .06 9.17v-.4c-.02-1.56.34-2.92.77-4.12.43-1.22 1-2.26 1.58-3.17 1.2-1.78 2.5-2.93 3.47-3.58.96-.65 1.58-.87 1.64-.74.1.14-.34.58-1.08 1.39-.74.82-1.76 2.04-2.65 3.76a15.5 15.5 0 0 0-1.17 2.92c-.3 1.09-.51 2.28-.45 3.47.06 1.17.47 2.4 1.27 3.05.53.46 1.25.73 1.9.71a9.32 9.32 0 0 1-.05-6.78l.76-2.02.46.61c.03-.44.09-.87.17-1.3.17-.8.5-1.6.93-2.26.44-.66.93-1.2 1.4-1.67.96-.94 1.74-1.66 2.36-2.52.53-.7.94-1.43 1.28-2.13Zm39.78 81.5a13 13 0 0 0 4.8-6.29 163 163 0 0 1-12.26-11.87c-5.15-5.51-10.87-10-16.56-14.73.3.88.4 1.73.33 2.4-.09 1.22-.51 1.87-.73 1.82-.24-.05-.27-.74-.49-1.74a8.65 8.65 0 0 0-1.56-3.47 8.69 8.69 0 0 0-3.03-2.32c-.9-.43-1.58-.62-1.56-.88-.02-.21.7-.48 1.9-.3a38.36 38.36 0 0 1-6.12-7.37c-1.14-1.84-2.07-3.9-3.45-5.59-1.27-1.56-2.86-2.67-4.35-3.95-.02.04-.07.06-.1.08a25.22 25.22 0 0 0-1.41 3.21c-1.57 4.55-2.67 8.44-5.58 12.39-.2.28-.43.54-.66.82 4.17 3.68 8.89 6.58 13.26 10 .23.17.44.35.65.53l-.13-.26c-.4-.98-.36-1.66-.14-1.73.46-.16 1.48 1.96 3.72 3.37 2.23 1.45 4.57 1.5 4.63 1.97.02.23-.57.55-1.63.6a6.82 6.82 0 0 1-2.28-.35c2.23 2.02 4.42 4.08 6.76 5.97 8.1 6.56 17.18 12.05 26 17.69Zm6.7 10.9c.02-.97.23-1.91.7-2.77a6.82 6.82 0 0 1-2.3-1.56c-.49 1.53-.79 2.9-.55 4.18.77-.1 1.47-.02 2.15.15Zm4.11-5.47c-.34-.55-.79-1.08-1.21-1.59-.05 0-.08.03-.13.03a5.45 5.45 0 0 0-3.7 1.14 5.24 5.24 0 0 0 2.48 1.83l.06.03c.35-.36.75-.72 1.19-.97.21-.14.9-.31 1.31-.47Zm-.04-6.81-.37-.28c-1.32-1.03-2.61-2.08-3.87-3.14a15.26 15.26 0 0 1-4.6 6.04c.97.6 1.9 1.23 2.85 1.85a7.48 7.48 0 0 1 3.94-1.38 6.27 6.27 0 0 1 2.05-3.1Zm6 10.75c1.84 1.35 6.42 3.5 8.28.86-3.84-4-9.04-7.76-12.44-10.25a4.14 4.14 0 0 0-1.9 2.79c.5.56 1.37 1.44 1.7 2.26 1.35 1.56 2.7 3.11 4.36 4.34Zm9.25 6.5a6.7 6.7 0 0 1 3.4.51 18.72 18.72 0 0 0-3.33-5.02c-1.55 1.78-4.26 1.82-6.43 1.2-3.28-.92-5.66-3.4-7.85-5.88-.69.38-1.59.48-2.22 1.07a4.5 4.5 0 0 0-1.36 3.74c2.68 1.37 4.9 4.12 8.1 4.94 3.76.97 6.1-.13 9.7-.56Zm3.72 5.2c.33-.92.4-1.88.23-2.88-.1 0-.2-.02-.32-.06-2.04-.88-5.16.34-7.46.42a25.2 25.2 0 0 1-4.78-.36 13.98 13.98 0 0 1-5.14-1.72c-.93-.55-.96-.8-2.05-1.52-1.2-.8-3.29-2.29-5.05-2.57.46.76 1.15 1.5 2.16 2.26 1.69 1.25 3.94 2.16 5.82 3.08 5.3 2.56 10.7 4.32 16.6 3.35Zm-6.6-16.36c4.8 4.36 12.2 11.02 9.18 18.16-.11.28-.28.46-.46.6a1.3 1.3 0 0 1-.85.5c-8.14 1.55-15.38-1.4-22.48-5.17-6.27-3.32-8.33-6.95-6.19-13.62-9.75-6.38-19.9-12.43-29.1-19.58-4.88-3.79-9.1-8.32-14.05-12.01-4.04-3-8.22-5.72-12-9.04-.6.67-1.18 1.34-1.74 2.04-1.68 2.15-2.16 4.53-3.2 6.98-1.83 4.35-4.72 8.34-6.91 12.52-2.43 4.6-4.69 9.3-6.74 14.09-2.95 6.84-4.6 18.03-12.5 20.9-1.1 3.38-5.16 4.1-8.69 4.14-3.67.03-10.32-.24-12.44-3.87-2.62-4.5 1.35-11.2 2.86-15.4 2.37-6.66-1.83-14.1-3.58-20.67-1.75-6.55-4.23-12.45-3.94-19.34.3-7.76-.5-15.59-1.77-23.27-1.2-7.3-4.25-14.72-1.91-22.09 1.99-6.33 6.6-11.15 11.25-15.67-7.33-5-14.66-10.1-21.07-16.28-6.56-6.34-11.61-14.4-20.03-18.45-2.35-.1-4.6-.7-6.6-2-1.9-1.22-2.94-2.9-4.35-4.58-1.4-1.65-4.38-1.72-5.04-4.07-.53-1.92.68-3.5 2-4.68A38 38 0 0 1 .63 93.6c-.03-.04-.03-.08-.05-.12A1.47 1.47 0 0 1 0 92.32a3.84 3.84 0 0 1 2.38-3.41c.32-.32.8-.46 1.38-.24 6.32 2.5 10.83 7.06 15.78 11.55 6.44 5.84 14.04 10.25 21.31 14.95 6.97 4.47 13.83 9.38 21.28 13.04 8.19 4.02 17.1 5.66 26.02 7.15.52-2.1 1.6-4.02 4.04-5.9 4.52-3.48 11.08-5.76 16.8-4.84 10.78 1.72 11.93 10.71 10.98 19.49.15.06.3.15.44.27 6.13 5.7 5.7 15.72 2.26 22.8l.06.16c.92 3.51.5 7.9-.14 11.48-.51 2.8-1.7 5.04-2.95 7.25 1.48 1.4 3.17 2.4 4.52 3.93 1.61 1.84 2.78 4.09 4.03 6.18 2.73 4.52 6.36 7.98 10.48 11.24 8.29 6.58 15.33 13.7 22.74 21.22 7.05 7.15 15.53 12.53 22.94 19.25"/>
  </g>
  <path fill="#333" d="M191.18 261.38c.18 1 .1 1.95-.23 2.87-5.9.97-11.3-.79-16.6-3.35-1.87-.92-4.12-1.83-5.81-3.08-1-.76-1.7-1.5-2.16-2.26 1.76.28 3.85 1.76 5.05 2.57 1.09.72 1.12.97 2.05 1.52 1.57.95 3.32 1.44 5.14 1.73 1.54.24 3.22.41 4.78.35 2.3-.08 5.42-1.3 7.46-.42.11.04.22.06.32.06"/>
  <path fill="#f2f2f2" d="M190.64 259.56a6.7 6.7 0 0 0-3.4-.5c-3.6.42-5.94 1.52-9.7.55-3.2-.82-5.42-3.57-8.1-4.94a4.5 4.5 0 0 1 1.36-3.74c.63-.6 1.53-.7 2.22-1.07 2.19 2.48 4.57 4.96 7.85 5.88 2.17.62 4.88.58 6.43-1.2a18.72 18.72 0 0 1 3.34 5.02"/>
  <path fill="#aaf72f" d="M186.26 253.41c-1.86 2.64-6.44.49-8.28-.86-1.66-1.23-3.01-2.78-4.36-4.34-.33-.82-1.2-1.7-1.7-2.26a4.14 4.14 0 0 1 1.9-2.79c3.4 2.49 8.6 6.25 12.44 10.25"/>
  <path fill="#cc8f67" d="m171.6 241.52.38.28c-.98.8-1.7 1.88-2.05 3.1a7.48 7.48 0 0 0-3.94 1.37c-.94-.62-1.88-1.24-2.85-1.85a15.26 15.26 0 0 0 4.6-6.04c1.26 1.06 2.55 2.11 3.87 3.14"/>
  <path fill="#aaf72f" d="M170.8 247.02c.43.51.88 1.04 1.22 1.59-.41.16-1.1.33-1.31.47-.44.25-.84.6-1.19.97-.03 0-.03-.01-.06-.03-1-.34-1.84-1-2.47-1.83a5.45 5.45 0 0 1 3.69-1.14c.05 0 .08-.02.13-.03"/>
  <path fill="#f2f2f2" d="M168.6 251.3c-.46.87-.67 1.8-.7 2.78a5.73 5.73 0 0 0-2.14-.15c-.24-1.29.06-2.65.55-4.18.65.67 1.42 1.2 2.3 1.56"/>
  <path fill="#333" d="M166 236.9a13 13 0 0 1-4.79 6.28c-8.81-5.64-17.89-11.13-26-17.69-2.33-1.9-4.52-3.95-6.75-5.97.84.27 1.65.38 2.28.35 1.06-.05 1.65-.37 1.63-.6-.06-.48-2.4-.52-4.63-1.97-2.24-1.4-3.26-3.53-3.72-3.37-.22.07-.27.75.14 1.73.02.08.09.18.13.26l-.65-.54c-4.37-3.4-9.09-6.31-13.26-9.99.23-.28.45-.54.66-.82 2.91-3.95 4-7.84 5.58-12.39.4-1.14.89-2.2 1.41-3.21.03-.02.08-.04.1-.08 1.5 1.28 3.08 2.39 4.35 3.95 1.38 1.7 2.3 3.75 3.45 5.6a38.36 38.36 0 0 0 6.12 7.36c-1.2-.18-1.92.09-1.9.3-.02.26.65.45 1.56.88.93.43 2.11 1.18 3.03 2.32a8.65 8.65 0 0 1 1.56 3.47c.22 1 .25 1.69.5 1.74.2.05.63-.6.72-1.81a6.05 6.05 0 0 0-.33-2.41c5.69 4.73 11.41 9.22 16.56 14.73A163 163 0 0 0 166 236.9M119.44 147.93c2.9 3.76 3.19 9.05 2 13.75-.35.7-.76 1.42-1.29 2.13-.62.86-1.4 1.58-2.35 2.52-.48.47-.97 1-1.41 1.67a6.74 6.74 0 0 0-.93 2.26c-.08.43-.14.87-.17 1.3l-.46-.61-.77 2.03a9.32 9.32 0 0 0 .05 6.77 2.92 2.92 0 0 1-1.89-.7c-.8-.67-1.21-1.89-1.27-3.06-.06-1.19.15-2.38.45-3.47a15.5 15.5 0 0 1 1.17-2.92c.9-1.72 1.91-2.94 2.65-3.76.74-.81 1.18-1.25 1.08-1.4-.06-.12-.68.1-1.64.75-.97.65-2.27 1.8-3.47 3.58-.58.9-1.15 1.95-1.58 3.17-.43 1.2-.79 2.56-.78 4.12l.01.4a8.49 8.49 0 0 1-.06-9.17c1.06-1.75 2.6-3.23 3.94-4.72a16.94 16.94 0 0 0 3.14-4.5c.5-1.09.7-2.1.76-2.93a25.2 25.2 0 0 0 2.5-5.3 55.59 55.59 0 0 0 .33-1.91"/>
  <path fill="#aaf72f" d="M119.75 168.16c1.14 4.3.27 10.45-1.47 14.43-.71 1.62-1.55 3.07-2.37 4.53-4.16.31-8.92 1.53-12.38-.94.27-.63.52-1.29.76-1.97.6-1.67 1.26-3.06 1.92-3.93.65-.89 1.24-1.32 1.14-1.55-.07-.21-.95-.16-2.01.68a7.97 7.97 0 0 0-1.98 2.6 14 14 0 0 1-.1-.38c.48-4.12-.22-7.4-.67-7.35-.4.03-.53 2.28-.84 5.3a3.67 3.67 0 0 0-1.16-.1c-.66.04-1.4.23-2.11.38-.7.13-1.5.2-2.32.18-3.36-.06-5.7-1.88-6.02-1.52-.16.16.22.89 1.25 1.66.56.44 1.33.85 2.25 1.16-4.8.6-9.69.48-14.39-.5 1.88.05 3.52-.34 4.82-.79 2.74-.99 4.13-2.1 4.04-2.28-.11-.24-1.72.47-4.37 1.1-1.32.3-2.91.54-4.63.38a13.32 13.32 0 0 1-5.32-1.76c-3.53-2.03-5.83-5.14-7.37-7.4-1.53-2.3-2.4-3.82-2.64-3.71-.2.1.27 1.78 1.6 4.33a22.98 22.98 0 0 0 2.77 4.21 17.78 17.78 0 0 0 4.54 3.91 34.58 34.58 0 0 1-3.67-1.75c-8.67-4.83-14.75-15.05-10.11-24.48 1.04-1.05 2.1-2.08 3.13-3.09l.01-.01.62.52c4.26 3.63 6.98 7.34 7.42 7.07.18-.14-.26-1.24-1.32-2.83a23.34 23.34 0 0 0-1.68-2.24l1.03.64a19.2 19.2 0 0 0 4.76 2.22c1.6.44 3.23.4 4.45-.04a5.04 5.04 0 0 0 2.47-1.72c.41-.58.47-1 .37-1.05-.21-.15-1.02 1.17-3.16 1.58a7.06 7.06 0 0 1-3.68-.31 22.08 22.08 0 0 1-4.32-2.18c-2.45-1.45-4.66-2.9-6.49-4.05-.09-.31-.28-.6-.62-.82l-2.7-1.86c2.55-3.58 4.94-7.27 7.19-11.04 6.87 2.54 14.13 3.8 21.34 5.02-.1 1.63-.09 3.38-.22 5.31-.1 1.28-.29 2.5-.51 3.7-.43 1.76-.93 4-1.5 6.45-1.28 5.55-2.44 10.04-1.97 10.2.29.1 1.23-1.78 2.22-4.71.1.6.2 1.21.38 1.83 1.2 4.4 4.33 10.33 9.42 10.86.9.08 1.8.02 2.68-.18-.78.5-1.52.9-2.18 1.16-1.33.54-2.3.58-2.3.84-.05.2.97.63 2.63.34 1.67-.26 3.75-1.38 5.55-3.03 1-.91 1.84-1.8 2.6-2.59.52-.41 1.02-.82 1.5-1.25-.32.7-.55 1.43-.68 2.14a10.4 10.4 0 0 0-.05 3.48 9.41 9.41 0 0 0 2.58 5.13 8.99 8.99 0 0 0 1.81 1.4 5.33 5.33 0 0 0 3.6 2.57c1 .21 2.2.04 3.16-.63l.9-.62-.55-.96a7.27 7.27 0 0 1-.88-4.19l.3.2 2.43 1.34-.69-2.67a9.25 9.25 0 0 1-.29-3.83c.2-1.14.79-2.02 1.63-2.95l.27-.3c.05.1.07.2.13.27 0 .15 0 .28.05.44"/>
  <path fill="#333" d="M117.4 140.24c-.2 3.1-.83 6.46-1.26 8.78-.62 2-1.91 3.96-3.32 5.84-.46-2.4-1.4-4.77-.4-7.16.04-.1.06-.21.06-.31.36-.24.72-.51 1.06-.85a14.66 14.66 0 0 0 3.87-6.3"/>
  <path fill="#333" d="M116.75 133.75c.13 6.68-3.44 15-11.36 12.66-2.96-.87-6.83-2.77-8.43-5.56-1.63-2.83-1.44-8.22.65-11.22.57-.26 1.16-.5 1.75-.73a7.57 7.57 0 0 0-1.61 5.43c.16 1.52.74 2.3.93 2.22.25-.07.14-.93.29-2.22a8.43 8.43 0 0 1 1.84-4.47c.2-.24.4-.45.63-.66a7 7 0 0 0-.63 3.65c.14 1.36.64 2.07.85 2 .25-.06.2-.85.37-2 .16-1.13.6-2.67 1.63-4 .41-.5.88-.92 1.35-1.28a13.55 13.55 0 0 1 5.79.73l.33.43a8.26 8.26 0 0 1 1.53 3.31 8.1 8.1 0 0 1-.22 3.65c-.25.95-.53 1.56-.33 1.7.16.16.82-.2 1.46-1.2a6.37 6.37 0 0 0 .1-6.38 9.14 9.14 0 0 1 3.08 3.94"/>
  <path fill="#cc8f67" d="M96.77 210.44c1.92-1.2 3.7-1.9 3.6-2.4-.07-.45-2.27-.46-4.5.93-2.25 1.37-3.24 3.36-2.85 3.61.39.3 1.82-.97 3.75-2.14Zm17.92-21.1a22.84 22.84 0 0 0-1.53 3.7c-1.55 5.18-3.96 9.1-7.48 13.25a22.23 22.23 0 0 0-4.36 7.18c-2.99 7.8-7.97 14.87-11.54 22.48l-1.27 2.8c-.11-.3-.23-.57-.36-.78-.47-.76-.93-1.06-1.12-.95-.22.1-.14.65-.03 1.39.11.74.23 1.7-.05 2.6a2.69 2.69 0 0 1-1.43 1.74c-.57.27-1.07.27-1.16.5-.11.2.36.73 1.4.7.17-.01.34-.04.53-.1-.36.85-.74 1.7-1.07 2.54-1.92 4.72-3.18 12.34-8.24 14.68.11-.22.23-.43.33-.66.62-1.29 1.17-2.49 1.61-3.48.86-2.02 1.3-3.33 1.09-3.43-.22-.12-1.03.98-2.18 2.85-.57.93-1.23 2.07-1.94 3.32-.69 1.27-1.44 2.64-2.57 2.8l-.18.01.2-.36a43.5 43.5 0 0 0 2.4-4.7l.56-1.44c.52-1.2.74-1.94.58-2.03-.36-.22-2.77 3.32-5.62 8.2-.12.13-.23.22-.27.23-.06.01-.05.02-.18-.05a.85.85 0 0 1-.22-.38c-.09-.34.04-.88.24-1.42.4-1.12.83-2.13 1.17-2.99 1.67-3.31 2.66-5.9 2.3-6.1-.42-.22-2.55 2.95-4.75 7.1-.28.5-.55 1.07-.76 1.4-.21.34-.45.45-.56.47-.03.04-.2-.05-.36-.22-.6-2.15 2.3-6.72 2.72-7.7a29.4 29.4 0 0 0 1.8-6.23c.18-1.02-.96-1.61-1.64-1.24h-.05c-1.02.4-2.02.62-3.11.57-.16-.02-3.03-.41-2.65-1l.03-.04a30.99 30.99 0 0 1 12.98-4.92c.51.07 1.04-.14 1.35-.75 3.35-6.63 6.66-13.28 9.1-20.3 2.5-7.2 4.35-14.68 8.96-20.86.18-.08.34-.22.46-.44.08-.17.18-.32.27-.48l.17-.23c.19-.21.29-.46.34-.7l4.17-7.6c3.5 2.17 7.79 1.43 11.92 1.08M102.2 162.01c.25-.63.21-1.22.14-1.66l-.22-1.13c-.12-.68-.19-1.31-.24-1.84-.08-1.06-.11-1.78-.36-1.83-.23-.05-.63.6-.86 1.76-.1.58-.17 1.3-.12 2.08.05.83.24 1.63.05 1.97-.13.39-.68.78-1.21.93-.53.15-1.1.14-1.56.06-.94-.16-1.51-.57-1.7-.39-.17.12.1.95 1.3 1.55.58.3 1.38.49 2.3.35a3.23 3.23 0 0 0 2.49-1.85Zm8.44-13.76c-.6 2.74.97 5.48.99 8.14l-2.22 2.82c-2.5 3.28-5.87 7.19-9.78 8.79-7.24 2.94-10.46-5.16-11.02-10.46-.3-3.05.46-5.79 1.12-8.62.96-1.8 3.24-2.45 4.83-3.62.92-.68 1.6-1.5 1.99-2.5 1.73 2.1 4.33 3.54 6.86 4.54 2.5.98 4.96 1.57 7.23.91"/>
  <path d="M102.34 160.35a3.1 3.1 0 0 1-.13 1.66 3.23 3.23 0 0 1-2.49 1.85 3.82 3.82 0 0 1-2.3-.35c-1.2-.6-1.47-1.43-1.3-1.55.19-.18.75.23 1.7.39.46.08 1.03.1 1.56-.06.53-.15 1.08-.54 1.21-.93.19-.34 0-1.14-.05-1.97-.05-.78.01-1.5.12-2.08.23-1.17.63-1.81.86-1.76.25.05.28.77.36 1.83.05.53.12 1.16.25 1.84l.21 1.13"/>
  <path fill="#333" d="M101.13 182.03c.1.41.17.82.19 1.24l-.28 1.76-.09.36a1.1 1.1 0 0 0-.27.6l-.08.1a73.79 73.79 0 0 1-3.22 6.32 44.9 44.9 0 0 0-12.56-8.64c5.51.35 11.11-.3 16.3-1.74"/>
  <path d="M100.37 208.05c.1.49-1.68 1.18-3.6 2.39-1.93 1.17-3.36 2.44-3.75 2.14-.39-.25.6-2.24 2.84-3.61 2.24-1.4 4.44-1.38 4.5-.92"/>
  <path fill="#333" d="M95.43 141.16c-.06.09-.1.2-.11.34-.27 2.45-3.05 3.25-4.78 4.42l-.25.19.07-.4c.5-3.45-.7-7.66.96-10.87a10.86 10.86 0 0 1 3.77-3.82c-.88 2.5-.9 5.47-.45 7.86.16.81.43 1.58.8 2.28M68.12 263.23c.41 1.6 2.82 1.77 4.98 1.43-2.43 1.2-7.3.5-8.7.28-2.73-.41-4.7-.74-5.38-2.69a6.75 6.75 0 0 0 3.2 1.44c.4.06.82-.1.93-.55.36-1.3 1.4-1.84 2.68-1.46.08.03.13.02.2.02a3.5 3.5 0 0 0 2.1 1.53M75.95 182.27c-2 2.84-3.67 5.84-5.1 9-.19-.34-.4-.63-.62-.88-.91-1.06-1.77-1.36-1.9-1.18-.15.2.36.81.88 1.87.31.6.61 1.4.83 2.3 0 .19.05.35.12.51l.03.12c.1 1.17.1 2.33.02 3.49-.28 1.36-.58 3.2-1.24 5.09a12.02 12.02 0 0 1-2.63 4.27c-.9.92-1.66 1.35-1.56 1.6.05.21 1.04.18 2.33-.65.44-.27.89-.65 1.34-1.12a148.1 148.1 0 0 1 1.43 31.88 34.8 34.8 0 0 0-6.84 3.6c-.61-2.72-2.1-5.45-2.85-7.98-1.53-5.2-2.67-10.48-4.44-15.6-1.58-4.62-.96-9.1-.88-13.72.42.93.9 1.7 1.4 2.25.9 1.04 1.68 1.42 1.84 1.26.35-.34-1.82-2.74-2.26-6.4-.5-3.64 1-6.52.56-6.76-.2-.11-.85.46-1.45 1.69-.18.34-.33.73-.46 1.18-.4-3.75-.93-7.51-1.48-11.2-1.04-6.86-4.36-14.6-2.47-21.5.91-3.38 2.72-6.3 4.9-8.97-.66 3.91.04 7.9 1.76 11.5-2.45-1.18-4.47-1.37-4.53-1.02-.14.49 2.67 1.6 5.65 3.68.24.15.47.32.7.48a23.89 23.89 0 0 0 4.97 5.28 34.66 34.66 0 0 0 11.95 5.93"/>
  <path fill="#aaf72f" d="M69.93 247.51c-.4 1.72-.93 3.38-1.68 4.99-.6 1.28-1.46 2.5-2.08 3.8l-.06-.03c-1.13-.15-3.04.05-3.44-1.42-.26-.94.67-2.83.9-3.77.35-1.4.52-2.83.55-4.26.23.15.47.27.7.36 1.64.63 3.41.71 5.11.33"/>
  <path fill="#f2f2f2" d="M65.6 257.77v.05c-.2.75-.25 1.5-.15 2.21a3.42 3.42 0 0 0-3.51 2 5 5 0 0 1-3.12-2.4c.3-3.84 2.35-7.22 3.59-10.83-.1.75-.23 1.5-.43 2.26-.37 1.4-1.09 3.12-.86 4.6.3 2.09 2.69 1.97 4.49 2.11"/>
  <path fill="#cc8f67" d="M46.06 130.3c.1-.3.07-.75-.16-1.23a3.8 3.8 0 0 0-1.1-1.25c-.43-.34-.9-.68-1.44-1.02a10.6 10.6 0 0 0-2.97-1.37c-.83-.2-1.4-.14-1.47.08-.11.46 1.5 1.42 3.51 2.75.5.33 1.02.63 1.48.9.44.23.76.42.99.62.46.38.57.81.8.88.11.03.26-.08.36-.37Zm17.9 2.13.39.16a164.73 164.73 0 0 1-6.92 10.61c-7.02-4.86-13.92-9.97-19.84-16.2-5.65-5.98-10.47-12.67-18.05-16.33a1.44 1.44 0 0 0-1.03-.38c-4-.04-6.54-1.97-8.81-5.08-.57-.77-1.13-1.56-1.94-2.14-1.1-.77-3.13-1.15-1.77-2.65l.2.05c.49.14 1.01.44 1.58.85 1.16.86 2.14 1.7 2.73 2.36.6.66.9 1.2 1.15 1.16.22-.04.35-.78-.11-1.82-.3-.69-.87-1.4-1.59-2.1a13.99 13.99 0 0 0-2.58-3.9c-.43-.48-.86-.9-1.28-1.27a33.03 33.03 0 0 1-2.8-3.7l-.07-.08s.02-.01.02-.03c.02 0 .08-.05.13-.11 7.2 3.03 12.1 9.4 18.15 14.1 6.66 5.21 14.07 9.5 21.14 14.07 6.9 4.44 13.72 9.21 21.3 12.43"/>
  <path d="M45.9 129.07c.23.48.26.94.16 1.22-.1.3-.25.4-.36.37-.23-.07-.34-.5-.8-.88-.23-.2-.55-.4-1-.63-.45-.26-.96-.56-1.47-.89-2-1.33-3.62-2.3-3.5-2.75.06-.22.63-.28 1.46-.08.83.21 1.91.7 2.97 1.37.53.34 1 .68 1.44 1.02.44.34.87.77 1.1 1.25"/>
  <g clip-path="url(#b)">
    <path fill="#60d8f4" d="M292.7 238.92a41.16 41.16 0 0 0 12.09 29.23 41.24 41.24 0 0 0 29.3 12.15 41.34 41.34 0 0 0 41.37-41.38 41.2 41.2 0 0 0-10.54-27.59 41.62 41.62 0 0 0-18.2-11.83 41.4 41.4 0 0 0-46.36 15.43 41.25 41.25 0 0 0-7.65 23.99"/>
  </g>
  <g clip-path="url(#c)">
    <path fill="#71e4f7" d="M295.56 254.05a41.4 41.4 0 0 0 6.64 11.24 55.2 55.2 0 0 0 39.04-9.3 72.23 72.23 0 0 1-27.72 2.6 64.38 64.38 0 0 1-17.96-4.54m68.69-34.7a57.92 57.92 0 0 1-4.38 5.06 62.7 62.7 0 0 1-10.1 8.37 67.58 67.58 0 0 1-12.13 6.37 71.34 71.34 0 0 1-29.87 5.08 66.62 66.62 0 0 1-14.96-2.4 41.1 41.1 0 0 0 2.6 11.81l.11-.29a64.5 64.5 0 0 0 25.2 5.01 71.2 71.2 0 0 0 22.15-3.55 55.44 55.44 0 0 0 12.16-12.58 54.79 54.79 0 0 0 9.22-22.87m-58-5.05-1.23.24c-1.53.28-3.09.51-4.62.7l-.04-.32a41.2 41.2 0 0 0-6.36 13.7 67.77 67.77 0 0 0 13.58.1 11.66 11.66 0 0 1-1.32-14.41m48.87-11.03.25.18a58.2 58.2 0 0 1-7.76 8.66 63.69 63.69 0 0 1-9.64 7.26 67.7 67.7 0 0 1-8.03 4.22c-1.4 5.33-6.51 9.29-12.6 9.29-3.6 0-6.85-1.38-9.2-3.6a69.54 69.54 0 0 1-14.26-.05l.03-.31a40.92 40.92 0 0 0-1.13 12.55l.08-.3a66.37 66.37 0 0 0 18.16 2.49c4.22 0 8.47-.39 12.68-1.16 16.93-3.09 31.52-11.9 40.73-24.44.3-2.2.46-4.46.48-6.75a41.62 41.62 0 0 0-9.79-8.04m-16.53-5.5.21.22a64.45 64.45 0 0 1-16.89 11.22c4.9 1.74 8.4 6.2 8.4 11.44 0 .74-.07 1.45-.2 2.15 10.02-4.52 18.63-11.3 24.74-19.7a41.26 41.26 0 0 0-16.26-5.34m-4.52-.24a41.32 41.32 0 0 0-33.47 17.05 70.31 70.31 0 0 0 6.18-1.02c2.35-3.1 6.2-5.12 10.55-5.12 1.29 0 2.53.18 3.7.5a64.13 64.13 0 0 0 17.14-11.21c-1.34-.13-2.72-.2-4.1-.2"/>
  </g>
  <path fill="#60d8f4" d="m293.95 228.63-.03.3.08-.3h-.05m60.93-25.53-.02.03.27.16-.25-.19"/>
  <path fill="#2bc1ec" d="m294 228.63-.08.3-.03.32a68.74 68.74 0 0 0 14.26.05c-.2-.19-.39-.38-.57-.58a69.04 69.04 0 0 1-13.58-.1m60.86-25.5c-6.1 8.4-14.72 15.18-24.74 19.7-.05.27-.1.53-.17.79a67.7 67.7 0 0 0 8.03-4.22 63.69 63.69 0 0 0 9.64-7.26 58.2 58.2 0 0 0 7.76-8.66l-.25-.18-.27-.16"/>
  <g clip-path="url(#d)">
    <path fill="#60d8f4" d="m338.39 197.55-.2.19.41.04-.21-.23"/>
  </g>
  <g clip-path="url(#e)">
    <path fill="#2bc1ec" d="M338.18 197.74a64.13 64.13 0 0 1-17.14 11.21c.3.09.6.18.88.28l1.72-.82a64.45 64.45 0 0 0 15.17-10.4l-.2-.23-.43-.04"/>
  </g>
  <path fill="#60d8f4" d="m300.61 214.59-.28.03.03.31.25-.34"/>
  <path fill="#2bc1ec" d="M306.79 213.57a75.97 75.97 0 0 1-6.18 1.02l-.25.34.04.31a72.35 72.35 0 0 0 5.86-.93c.17-.25.34-.5.53-.74"/>
  <g clip-path="url(#f)">
    <path fill="#60d8f4" d="m292.79 241.5-.1.3.12.02-.02-.33m74.56-27.19.2.28.06-.11-.26-.17"/>
  </g>
  <path fill="#24b7e9" d="M367.08 214.14a54.06 54.06 0 0 1-2.64 3.94l-.19 1.28c1.2-1.55 2.3-3.15 3.3-4.78l-.2-.28-.27-.16"/>
  <g clip-path="url(#g)">
    <path fill="#2bc1ec" d="M364.44 218.08c-9.21 12.54-23.8 21.35-40.73 24.44a70.7 70.7 0 0 1-12.68 1.16c-6.21 0-12.35-.84-18.16-2.5l-.08.31.02.33a66.62 66.62 0 0 0 18.2 2.49 71.47 71.47 0 0 0 26.63-5.16 67.58 67.58 0 0 0 12.12-6.37 62.7 62.7 0 0 0 10.1-8.37 57.92 57.92 0 0 0 4.39-5.05l.19-1.28"/>
  </g>
  <path fill="#60d8f4" d="m295.4 253.64-.12.29.28.12-.16-.4m79.53-21.35.07.44c.06-.09.13-.17.18-.26l-.25-.18"/>
  <path fill="#24b7e9" d="M374.68 232.11c-7.46 10.42-18.75 18.4-31.8 22.7-.54.4-1.09.8-1.64 1.18a68.24 68.24 0 0 0 16.48-7.38 63.6 63.6 0 0 0 9.7-7.35 58.25 58.25 0 0 0 7.58-8.52l-.07-.44-.25-.19"/>
  <path fill="#2bc1ec" d="m295.52 253.35-.12.3.16.4a64.38 64.38 0 0 0 17.96 4.55 69.4 69.4 0 0 0 20.09-.8c2.6-.46 5.14-1.07 7.63-1.81.55-.38 1.1-.78 1.63-1.18a70.66 70.66 0 0 1-22.16 3.55 64.5 64.5 0 0 1-25.19-5"/>
  <path fill="#60d8f4" d="m304.8 268.14-.13.3.74.3-.62-.6m63.23-5.55c-.15.22-.31.45-.48.67l.65-.4-.17-.27"/>
  <path fill="#24b7e9" d="M367.86 262.32a68.42 68.42 0 0 1-24.59 9.54 71.04 71.04 0 0 1-12.79 1.18c-8.93 0-17.6-1.75-25.56-5.18l-.13.28.62.6a64.04 64.04 0 0 0 17.67 4.5 71.16 71.16 0 0 0 33.46-4.49 67.75 67.75 0 0 0 11-5.5c.17-.21.33-.44.48-.66l-.16-.27"/>
  <path fill="#b8f2fb" d="M329.95 223.6a70.55 70.55 0 0 1-21.8 5.7c2.35 2.22 5.6 3.6 9.2 3.6 6.09 0 11.2-3.96 12.6-9.3m-8.03-14.37a70.52 70.52 0 0 1-15.66 5.08 11.66 11.66 0 0 0 1.32 14.41 70.92 70.92 0 0 0 22.54-5.9c.13-.7.2-1.41.2-2.15 0-5.23-3.5-9.7-8.4-11.44m-4.58-.78c-4.35 0-8.2 2.02-10.55 5.12a70.02 70.02 0 0 0 14.25-4.62c-1.17-.32-2.41-.5-3.7-.5"/>
  <path fill="#95e0f6" d="M330.12 222.82a69.9 69.9 0 0 1-22.54 5.9c.18.2.37.4.57.58a70.55 70.55 0 0 0 21.8-5.7l.17-.78M321.04 208.95a70.02 70.02 0 0 1-14.25 4.62c-.19.24-.36.49-.53.74a70.52 70.52 0 0 0 15.66-5.08c-.29-.1-.58-.2-.88-.28"/>
  <g clip-path="url(#h)">
    <path d="M261.39 120.52c-2.34 4.2 3.43 9.11 7.05 10.96 3.24 1.64 6.3.4 8.43 3.61 2.65 4 5.24 7.52 8.54 11.05 2.57 2.76 5.48 4.79 8.1 7.4 2.76 2.77 4.94 6.01 7.65 8.8 3.5 3.57 8.09 6.79 12.03 9.89 3.2 2.52 6.3 4.03 10.01 5.35.12 1.82.14 2.23-1.72 3.55-1.1.79-2 1.4-3.03 2.3-2.2 1.9-4.03 3.95-5 6.7-1.16 3.21-1.95 7.6.72 10.01-3.67 5.25-12.12 10.94-16.93 4.95-2.1-2.63-2.65-6.28-4.52-9.09-1.98-3-4.04-5.9-5.93-8.96-1.93-3.11-3.59-6.56-5.79-9.49-2.17-2.88-5.37-4.58-7.88-7.11-2.51-2.54-4.28-5.58-6.24-8.53-1.7-2.57-3.85-4.46-5.43-7.16-1.78-3-3.94-5.75-5.47-8.93-1.2-2.53-3.27-5.73-3.7-8.46-.18-1.16-.5-2.76-.38-3.91.06-.55-.36-.43-.21-.92.04-.15.56-.22.6-.4.5-1.75.75-3.36 1.02-5.25.56-3.76 1.11-7.4 3.03-10.73l.98-1.68c1.4 2 2.75 4.01 4.07 6.05Zm113.44 79.49c.45-1.5.68-3.09.6-4.7-.07-1.6-.37-3.15-.75-4.71-.77-3.08-1.93-6.12-2.35-9.27-.22-1.58-.18-3.1.12-4.78.28-1.66.75-3.42 1.09-5.35.35-1.92.39-4.13.02-6.15-.34-2.06-.94-4.02-1.49-5.96a30.87 30.87 0 0 1-1.21-5.82c-.22-2.05-.3-4.3-.99-6.68a12.26 12.26 0 0 0-1.6-3.43 8.21 8.21 0 0 0-3.05-2.75 6.98 6.98 0 0 0-4.33-.6c-1.12.2-2.3.77-3.18 1.7-.2-.04-.42-.03-.66.04-2.93.82-5.93-.55-8.93-.37-2.34.13-4.65.82-6.7 1.95-4.34 2.41-6.95 6.66-7.76 11.46-.03.16-.03.3 0 .46-.68 1.45-2.82 2.06-3.89 3.15-.6.62-1.07 1.4-1.29 2.21-3.38-1.02-7.1-1.4-9.82-3.45-2.66-1.97-6.49-4.24-8.1-7.08-1.43-2.52-1.69-5.15-3.74-7.35-2.17-2.33-5.18-3.67-7.79-5.42-6.78-4.57-12.5-10.43-18.79-15.5-6.2-5-13.53-8.52-19.43-13.9-.1-.08-.2-.16-.31-.21.63-3.2-.18-6.72-4.06-7.37-2.06-.34-4.01.98-5.71 1.93a66.35 66.35 0 0 0-9.52 6.38c-5.48 4.4-10.38 9.98-13.44 16.33-2.59 5.32-2.34 7.59 2.93 10.64 2.45 1.39 4.73 3.42 6.75 5.4 3.09 3.03 2.81 6.87 3.55 10.8a62.03 62.03 0 0 0 8.76 21.6 52.74 52.74 0 0 0 6.19 7.96 36.14 36.14 0 0 0 3.7 3.39c.97.78 3.04 1.6 3.74 2.58.77 1.06 1.01 2.82 1.15 4.66-6.93-1.94-14.26-4.87-20.47.14-6.27 5.05-5.18 10.2-3.04 17.23 2.9 9.5 7.13 19.38 7.63 29.3.08 1.58.65 4.36.29 5.8-.36 1.42-.1.3-.95 1.21-3.03 3.29-4.32 6.54-9.68 6.82-4.32.23-10.91 1.08-9.94 7.35.83 5.32 9.48 5.56 13.46 5.71 4.77.2 9.51.05 14.27.42 3.14.24 6.92 1.1 9.94-.12 1.35-.55 4.47-2.23 4.92-3.8.5-1.8-1.63-3.78-2.45-5.09-1.04-1.63-.64-1.63-.61-3.5a6.8 6.8 0 0 0-.87-3.47c-.48-.8-1.73-1.41-2.09-2.16-.42-.9.05-2.56.12-3.87.36-6.97-.78-14.04-2.17-20.91a26.21 26.21 0 0 0 10.5 6.5c.25.09.5.1.71.06l.53 2.47c1.44 6.5 5.17 13.6 11.64 16.3a25.16 25.16 0 0 0 19.86-.09c7.7-3.25 15.48-7.59 20.98-13.97 5.66-6.6 12.76-11.18 19.7-16.22.38 4.27.9 8.52 1.7 12.73 1.02 5.34 2.91 10.36 4.2 15.61 1.05 4.25.62 8.27 2.3 12.4a35.36 35.36 0 0 1 2.53 14.36c-1.7-.2-3.4-.65-5.05-.14-1.9.58-3.41 2.17-4.94 3.36-2.47 1.94-6.74 3-7.02 6.59-.05.47.3 1.1.73 1.28.25.12.51.23.76.33.45.2.87.17 1.24.02.88.4 1.69.34 2.27.1.22.28.5.47.76.54.57.19.95.13 1.25.13.63-.02 1.3-.06 1.95-.2.43-.1.86-.28 1.24-.5.1.5.4.98.78 1.25.6.46 1.21.57 1.76.64a7.37 7.37 0 0 0 3.1-.45l.09.08c.13.1.26.16.39.22.52.54 1.26.78 1.78.8.41.01.78-.04 1.1-.1l.12-.04c.1-.02.17-.05.26-.06l.12-.05c.25 0 .5-.06.75-.17a8.04 8.04 0 0 0 2.8-2.03c4.66-.04 7.26-3.38 7.4-7.9.26-8.16-1.06-16.69-1.59-24.84-.2-3.01-.46-6.06-1.34-8.97-1.09-3.57-3.13-6.4-3.28-10.25-.13-3.57.2-7.26.23-10.84.02-3.17-.93-7.06-.82-10.27.08.14.18.27.32.4.2.2.47.4.79.5.23.09.47.1.7.08a5.02 5.02 0 0 0 2.5 2.07l2.21.86-.72-2.28c-.54-1.73-.06-3.87.97-5.94 1-2.12 2.68-4.27 3.67-7.22"/>
    <path d="m249.5 130.34.05-.04c-.34-.8-1.07-1.17-2.22-1.1-.26.25-.55.5-.85.72-.63.26-1.15.74-1.81 1-2.67 1.05-5.04-.45-6.74 2.8a5.35 5.35 0 0 1-1.45 1.97c.72.61 1.43 1.26 2.09 1.9.9-4.67 5.83-6.22 10.23-6.26.08-.4.33-.8.7-.99Zm1.98-9.9c.43-1.55.98-2.88 1.6-4.16-2.1-.8-4.11-.6-5.13 1.86-.24.58-.34 1.23-.5 1.83-.43 1.6-.82 3.2-1.4 4.76a16.35 16.35 0 0 1-2.78 4.88c1-.24 1.92-.69 3.01-1.47 1.01-.74 1.56-1.34 2.82-.7.53.29.94.76 1.24 1.31.64-2.41.71-6.79 1.14-8.32Zm1.94 134.35c-.29-.19-.57-.4-.81-.62-1.48-1.45-1.63-4.34-3.61-5.33-.57.62-.9 1.5-1.52 2.27-.95 1.2-2.16 2.1-3.5 2.78a7.14 7.14 0 0 0 9.44.9Zm3.69-146.34.05-.14-.25.02c-2.6.09-4.72-.22-7.18 1.31-3.3 2.07-4.46 4.48-6.25 7.66-1.07 1.9-.98 1.5-2.73 2.06-.23-.1-.45-.23-.65-.41l-1.74 1.86c-.65.9-1.14 2.05-1.67 3.04a113.7 113.7 0 0 0-4.19 8.99c.29.2.6.4.93.6.44.26.89.58 1.35.9l.06.01c1.99.86 1.5-2.07 1.82-2.8.29-.67.8-1.1 1.45-1.4.75-.38 1.58-.3 2.39-.3h.44c2.3-2.07 3.49-4.68 4.36-7.61.55-1.88.79-4.03 1.74-5.75 1.48-2.66 4.25-2.51 6.7-1.54l1.96-3.62c.46-.88.95-1.77 1.32-2.7v-.1c0-.03.03-.06.09-.08Zm.73-2c.21-.86-.28-1.03-2.4-1.6-2.76-.73-3.26-.26-5.48 1.1a58.04 58.04 0 0 0-14.86 12.8c-1.81 2.15-3.76 4.85-4.76 7.51-.98 2.62-.44 4.26.95 5.61 1.7-4.27 3.58-10.16 6.65-13.3 1.45-1.48 2.56-.87 3.77-1.94 1.42-1.27 1.95-3.45 3.16-4.93.99-1.19 2.18-2.13 3.48-2.96 1.53-1 3.54-2.33 5.43-2.44.73-.05 3.1.78 4.06.16Zm6.73 146.85c-.2-2-.74-1.93-1.66-2.96-1.25 1.36-3.41.91-5.15.5a18.84 18.84 0 0 1-6.67-3.09c-.15.11-.3.21-.5.24-.03 0-.05.01-.08.03.62.5 1.08 1.18 1.55 2.05 1.47 2.65 2.28 3.9 5.23 4.53 2.65.55 5.16.34 7.28-1.3Zm.57 4.37c-.2-.24-.38-.47-.46-.7-.25-.7-.07-1.27-.03-1.93-2.32 1.39-4.97 1.59-7.75.99-.65-.14-1.32-.32-1.98-.55a8.65 8.65 0 0 1-12.35-.96c-1.42.53-2.73.73-4.25.75-1.44.02-4.25.43-5.77 1.55 2.75 1.66 5.8 2.9 9.08 2.82 2.3-.06 4.5-.9 6.78-1.04 2.1-.14 15.15 1.85 16.73-.93Zm2.43 3.49c.25-.81-.44-1.6-1.23-2.34-2.06 3.2-10.64 1.64-13.38 1.45-4.39-.31-8.51 1.14-12.83.8-3.11-.23-5.9-1.46-8.53-3.07-.81 2.12 1.98 3.04 3.43 3.5 5.48 1.7 11.85.82 17.52 1.07 2.72.13 13.87 2.34 15.02-1.41Zm5.86-34.96c-1.25-5.92-2.5-11.69-4.65-17.56-1.41-3.89-2.86-7.8-3.77-11.84-.13-.54-.2-1.18-.26-1.87-6.78-1.8-14.9-5.38-20.4.75-4.83 5.39.25 15 2.1 21.06 1.1 3.6 2.68 7.48 3.8 11.34.28.58.57 1.17.85 1.78 2.83 5.8 5.38 10.4 4.98 10.66-.29.2-2.33-2.38-4.58-6.33l.01.06c.22 2.54.1 5.2.24 7.78.09 1.48.4 2.96.04 4.38a16.76 16.76 0 0 0 4.52 2.47c1.32.46 4.71 1.74 5.7.17a3.4 3.4 0 0 1-.37-1.47c-.23-2.18.53-4.64.38-6.9-.16-2.36-.4-4.7-.63-7.06-.06-.58-.12-1.15-.16-1.73-.63 1.22-1.22 1.83-1.4 1.74-.37-.2.62-2.53 1.08-5.78l-.16-1.62c-.29-2.5-1-4.65-1.6-6.94a40.58 40.58 0 0 0-1.88-2.93c-1.27-1.88-2.6-3.43-3.55-4.59l-.49-.33a16.22 16.22 0 0 1-2.99-2.52c-1.54-1.72-1.74-3.26-1.46-3.33.3-.11.94 1 2.52 2.22a27.1 27.1 0 0 0 3.01 1.94c1.18.7 2.6 1.5 3.92 2.62a17.5 17.5 0 0 1 4.5 5.79 23.22 23.22 0 0 0 10.7 8.04Zm24.45-12.79c-.43-1.03-.9-2.11-1.42-3.23l-.64-1.33c-1.27-1.46-2.13-3.48-2.9-5.47-.42-.79-.62-1.33-.6-1.56-.43-1.1-.84-2.14-1.33-3-2.9-5.28-6.85-10.1-9.87-15.35a25.71 25.71 0 0 0-6.85-8.13 33.93 33.93 0 0 1-5.86-5.83c-1.5-1.94-2.65-4.13-4.1-6.1-1.52-2.05-3.17-3.18-4.47-5.39-4.8-8.16-10.59-15.62-11.04-25.2-3.83.02-8.54 1.18-8.86 5.73a.77.77 0 0 1-.09.31c.1.1.22.21.31.32 2.04 2.07 2.65 4.6 3.11 7.4.72 4.5 1.53 8.77 3.1 13.07 3.62 9.87 9.42 18.47 18.02 24.62 2.41 1.73 2.35 2.7 2.6 5.65a57.54 57.54 0 0 0 3.26 14.01c1.54 4.44 3.33 8.82 4.61 13.36 1.28 4.54 1.64 9.21 2.66 13.8.33 1.5.78 2.91 1.34 4.23 5.07-.9 9.27-5.13 12.61-8.82 3.09-3.42 6.2-8.23 6.4-13.09Zm4.06 33.11c7.55-2.06 14.55-6.57 20.32-11.94-8.78-4.65-12.36-17.03-12.31-26.61-.7.46-1.4.9-2.1 1.31a14.57 14.57 0 0 1-7.59 1.72l.23.36c1.88 3.01 2.92 6.2 3.08 8.57.19 2.38-.33 3.8-.57 3.76-.3-.03-.32-1.43-.84-3.53a21.62 21.62 0 0 0-1.42-4.05c.25 1 .44 1.96.52 2.8.3 2.6-.03 4.2-.3 4.2-.3 0-.46-1.55-1.1-3.93-.23-.88-.53-1.89-.91-2.97a24.28 24.28 0 0 1-4.64 9.25c-3.6 4.62-8.77 9.98-14.8 11.24 4.1 8.17 12.59 12.5 22.43 9.82Zm19.54-65.39c1.86-1.32 1.84-1.73 1.72-3.55a33.37 33.37 0 0 1-10-5.35c-3.95-3.1-8.55-6.32-12.04-9.9-2.71-2.78-4.89-6.02-7.66-8.79-2.6-2.61-5.52-4.64-8.09-7.4a81.26 81.26 0 0 1-8.54-11.05c-2.14-3.22-5.19-1.97-8.43-3.61-3.62-1.85-9.39-6.77-7.05-10.96a199.37 199.37 0 0 0-4.07-6.05l-.98 1.68c-1.92 3.33-2.47 6.97-3.03 10.73-.27 1.89-.52 3.5-1.01 5.25-.05.18-.57.25-.61.4-.15.5.27.37.21.92-.12 1.15.2 2.75.38 3.9.43 2.74 2.5 5.94 3.7 8.47 1.52 3.18 3.7 5.92 5.47 8.93 1.58 2.7 3.72 4.6 5.43 7.16 1.96 2.95 3.73 5.99 6.24 8.53 2.5 2.53 5.7 4.23 7.88 7.11 2.2 2.93 3.86 6.38 5.79 9.49 1.89 3.07 3.95 5.96 5.93 8.96 1.87 2.81 2.41 6.46 4.52 9.09 4.82 5.99 13.26.3 16.93-4.95-2.67-2.42-1.88-6.8-.73-10 .98-2.76 2.81-4.8 5.01-6.72 1.03-.9 1.93-1.5 3.03-2.29Zm5 49.16a51.46 51.46 0 0 1 6.04-5.66c-10.04-2.2-15-11.48-17.64-20.73a28.68 28.68 0 0 1-3.42 3c-.3 9.3 3.1 22.24 11.93 26.61a66.36 66.36 0 0 0 3.1-3.22Zm10.54-55.16c-1.13-.38-2.98-.18-3.81-.43a3.57 3.57 0 0 1-2.06-1.4c-.73-1.09-.52-2.4-.43-3.64l.41-5.07c-.27-.22-.5-.45-.72-.7-.34.11-.73.11-1.12-.07-3.72-1.68-8.18-1.43-11.52-3.7a67 67 0 0 1-7.38-5.84c-2.51-2.32-2.8-4.86-4.32-7.74-2.03-3.8-6.64-5.44-9.97-7.87-3.55-2.6-6.88-5.49-10.39-8.13-2.77-2.09-4.9-4.67-7.58-6.82-3.52-2.83-7.38-5.19-11.15-7.68l.52.76c.77 1.18 1.23 1.95 1.06 2.11-.16.16-.95-.34-1.98-1.36-1.05-1.01-2.3-2.55-3.72-4.12l-.88-.92c-.86-.65-1.7-1.33-2.5-2.04l-.55 1.13c1.43 2 2.82 4.04 4.16 6.1l1.81 1.8c1.24 1.22 2.37 2.3 3.14 3.12.64.41 1.21.8 1.66 1.13.8.63 1.34.88 1.33 1.11 0 .23-.82.36-1.89-.05a30.75 30.75 0 0 1-3.74-1.84l-1-.57c-.1-.06-.2-.1-.27-.13-.06 2.18 4.1 5.7 5.23 6.36 1.68 1 3.57.72 5.34 1.13l.83.19c.66.1 1.4.22 2.14.41 2.97.79 5.04 2.25 4.83 2.65-.17.34-1.66-.06-3.66-.6 2.3 3.06 3.94 6.58 6.57 9.49 2.24 2.45 4.5 5 7.16 6.93 5.05 3.67 8.16 9.42 13 13.32 6.24 5 11.61 10.24 19.29 12.87a5.32 5.32 0 0 0-.22-2.67c-.26-.7-.67-1.05-.58-1.27.05-.2.83-.22 1.58.62.36.4.66.98.8 1.68.15.68.14 1.43.05 2.14-.08.63-.18 1.2-.33 1.77.04.83.08 1.53.05 2.16a39.4 39.4 0 0 1 7.36-3.2 31.6 31.6 0 0 1 3.45-1.12Zm17.88 7.4c-.8-3.23-1.2-7.2-.36-9.8-.6-.34-1.1-.82-1.48-1.4a71.9 71.9 0 0 1-1.9 3.08c-2.12 3.27-4.04 5.8-4.43 5.58-.4-.23.88-3.18 3.02-6.49l1.04-1.52c-1.06.44-2.1.47-2.94-.2a12.99 12.99 0 0 1-8.14 3.1l.11.16c.22.38.39.92.38 1.52a3.95 3.95 0 0 1-.54 1.83 5.05 5.05 0 0 1-2.38 2.06c-.73.3-1.22.34-1.34.14-.12-.2.17-.61.66-1.11.5-.53 1.15-1.15 1.61-1.94l.08-.15c-4.25.43-8.04 2.15-11.68 4.2-.88.71-1.73 1.44-2.5 2.27-1.04 1.08-2.8 2.64-3.2 4.17-.39 1.49-.36 4.58.4 6.79.14.18.3.36.47.52.26.24.55.46.62.46.03-.02.1-.09.18-.2.15-.22.34-.62.51-.92.32-.64.57-1.23.78-1.74.43-1.01.7-1.68.93-1.65.22.02.37.77.22 1.96-.08.59-.25 1.29-.52 2.03l-.1.25c.2-.16.37-.3.56-.43a9.4 9.4 0 0 1 2.81-1.35c1.72-.48 2.82-.27 2.84-.06.02.25-1 .48-2.41 1.17a11.53 11.53 0 0 0-3.45 2.57c-.09.07-.17.18-.28.3 3.03.47 7.14-1.7 9.22-2.9 7.21-4.19 12.85-10.62 21.2-12.3Zm-.89-15.32c.36-.69.46-1.42.36-2.1-.04-.09-.08-.19-.14-.28-.19-.38-.47-.77-.86-1-.4-.24-.9-.33-1.27-.17-.4.16-.87.68-1.39 1.17-.52.5-1.08.88-1.58 1.1-1 .47-1.7.46-1.77.25-.09-.22.43-.6 1.12-1.23.35-.32.74-.7 1.12-1.16l.33-.42c-.41.25-.88.06-1.1-.27a.69.69 0 0 1-.37-.6c-.1-2.4-1.57-2.45-2.78-3.79a1.9 1.9 0 0 1-.56-1.05c-.13-.7.17-1.48.5-2.1.46-.85 2.86-3.03 2.07-4.27a.64.64 0 0 1-.25-.21c-.06-.08-.14-.12-.21-.19l-.09-.05a.66.66 0 0 1-.18-.14c-1.08-.56-2.97.08-4.03-.79-.36-.3-.55-.65-.7-1.08-.28-.8.07-1.4-1.25-1.72a13.65 13.65 0 0 0-4.33 7.65c.08.26.1.55-.02.87a6.15 6.15 0 0 1-2.5 3.12c-.9.62-2.75 1.35-2.75 2.6a3 3 0 0 0 1.13 1.68c.44.08.8.38.76.96-.15 1.9-.32 3.78-.46 5.67-.1 1.24-.1 2.44 1.24 3.12.64.33 1.8.06 2.53.15.5.07.96.18 1.38.36 3.4.44 6.71-.59 9.27-2.91a.93.93 0 0 1 .27-.16.32.32 0 0 1 .08-.06c-.08-.58.06-1.1.27-1.44.38-.6.85-.66.98-.5.17.17.1.5.14.88.03.37.15.84.4 1.14.14.15.31.3.5.4 1.64-.43 3.76-2.71 4.14-3.43Zm1.49 17.4-.2-.64c-8.54 1.56-14.15 8.52-21.53 12.54-3.3 1.8-8.09 3.91-11.45 1.9a3.51 3.51 0 0 1-1.77-1.52 5.32 5.32 0 0 1-.44-.78c-2.28-3.54-1.85-6.96.04-10-1.1.9-2.11 1.91-2.94 3.32-1.03 1.76-2.85 6.04-1.25 8.18.06.05.1.09.15.11 1.84 1.25 3.87 1.14 3.98 1.6.04.2-.45.56-1.39.67-.3.05-.66.05-1.04.02-.04.16-.09.33-.18.47-.4.71-.9 1.4-1.44 2.07 2.55 9.38 7.3 19.11 17.87 20.87.03 0 .05.02.08.03 2.05-1.6 4.18-3.1 6.32-4.6-5.05-4.64-9.9-11.34-6.55-18.38 1.64-3.44 4.85-5.68 7.99-7.67 4.5-2.82 9.16-5.47 13.75-8.19Zm8.82-23.17c1.06-3.86-.04-6.45-2.01-9 .18.94.28 1.83.4 2.66.21 1.81.26 3.55-.03 4.98a7.15 7.15 0 0 1-1.39 3.12c-.51.62-.93.83-1 .75-.2-.16 1-1.44 1.21-4.04.13-1.28-.03-2.84-.32-4.59-.16-.88-.3-1.83-.5-2.73a8.8 8.8 0 0 0-1.03-2.6c-.3-.53-.62-1.1-.92-1.69-.09.5-.16 1-.22 1.49a19.4 19.4 0 0 1-.6 3.42c-.55 1.97-1.6 2.77-1.72 2.63-.16-.13.5-1.04.74-2.85.14-.9.16-2 .21-3.31l.07-1.13a14.5 14.5 0 0 1-1.68 1.9c-1.38 1.32-2.45 1.84-2.59 1.68-.15-.2.63-1.04 1.7-2.47a24.62 24.62 0 0 0 2.58-4.22c.1-.18.18-.37.25-.54a18.67 18.67 0 0 1-4.95 1.96c-1.73.39-2.85.35-2.87.14-.08-.34 2.03-.9 4.77-2.27-2.47-.14-4.92-.8-7.47-.39-1.71.3-3.24.9-4.57 1.73.5.31.88.8 1.12 1.56.67 1.98 1.8 1.14 3.43 1.5.5.1.86.3 1.18.55 2.01 1.2 1.16 3.45.02 5.04-.76 1.06-1.91 1.66-.91 3.2.33.5 1.3.9 1.72 1.44a5 5 0 0 1 .93 2.34c3.03-1.5 6.7.78 6.04 4.52-.16.9-.86 2.11-1.84 3.23-.04.1-.08.2-.14.3l.05.06c.2.67.63 1.23 1.21 1.6.56-.77 1.32-1.14 2.19-1.66 3.63-2.14 5.8-4.05 6.94-8.3Zm11.11 33.87c.08 1.61-.15 3.2-.6 4.7-.99 2.95-2.67 5.1-3.67 7.22-1.04 2.07-1.51 4.21-.97 5.94l.72 2.28-2.22-.86a5.02 5.02 0 0 1-2.49-2.07c-.23.02-.47 0-.7-.07a2.1 2.1 0 0 1-1.11-.91c-.11 3.2.84 7.1.82 10.27-.03 3.58-.36 7.27-.23 10.84.15 3.86 2.2 6.68 3.28 10.25.88 2.91 1.13 5.96 1.34 8.97.53 8.15 1.85 16.68 1.6 24.83-.15 4.53-2.75 7.87-7.41 7.91a8.04 8.04 0 0 1-2.8 2.03c-.25.11-.5.16-.75.17l-.12.05c-.09.01-.17.04-.26.06l-.13.03c-.31.07-.67.12-1.09.1-.52 0-1.26-.25-1.78-.8-.13-.05-.26-.1-.4-.21l-.08-.08a7.37 7.37 0 0 1-3.1.45 3.47 3.47 0 0 1-1.76-.64 2.13 2.13 0 0 1-.78-1.26c-.38.23-.8.4-1.24.5-.65.15-1.32.19-1.95.2-.3 0-.68.07-1.25-.12a1.66 1.66 0 0 1-.76-.53c-.58.23-1.39.3-2.27-.11-.37.15-.8.18-1.24-.02l-.76-.33c-.43-.18-.77-.81-.73-1.28.28-3.6 4.55-4.65 7.02-6.6 1.53-1.18 3.05-2.77 4.94-3.35 1.64-.5 3.34-.07 5.05.14.1-4.96-.62-9.68-2.53-14.36-1.68-4.13-1.25-8.15-2.3-12.4-1.29-5.25-3.18-10.27-4.2-15.6-.8-4.22-1.33-8.47-1.7-12.74-6.94 5.04-14.04 9.63-19.7 16.22-5.5 6.38-13.28 10.72-20.98 13.97a25.16 25.16 0 0 1-19.86.1c-6.47-2.7-10.19-9.82-11.64-16.31l-.53-2.47a1.4 1.4 0 0 1-.72-.06 26.21 26.21 0 0 1-10.5-6.5c1.4 6.87 2.54 13.94 2.18 20.91-.07 1.3-.54 2.98-.12 3.87.36.75 1.61 1.36 2.09 2.16.6 1.03.9 2.3.87 3.47-.03 1.87-.43 1.87.61 3.5.82 1.31 2.96 3.28 2.45 5.1-.45 1.56-3.57 3.24-4.92 3.79-3.02 1.22-6.8.36-9.94.12-4.76-.37-9.5-.23-14.27-.42-3.98-.15-12.63-.39-13.46-5.7-.97-6.28 5.62-7.13 9.94-7.36 5.36-.28 6.65-3.53 9.68-6.82.85-.91.59.21.95-1.2.36-1.45-.2-4.23-.29-5.82-.5-9.91-4.73-19.79-7.63-29.29-2.14-7.02-3.23-12.18 3.04-17.23 6.21-5 13.54-2.08 20.47-.14-.14-1.84-.38-3.6-1.15-4.66-.7-.99-2.77-1.8-3.75-2.58a36.14 36.14 0 0 1-3.7-3.4 52.74 52.74 0 0 1-6.18-7.95 62.03 62.03 0 0 1-8.76-21.6c-.74-3.93-.46-7.77-3.55-10.8-2.02-1.98-4.3-4.01-6.75-5.4-5.27-3.05-5.52-5.32-2.93-10.64 3.06-6.35 7.96-11.92 13.44-16.33a66.35 66.35 0 0 1 9.52-6.38c1.7-.95 3.65-2.27 5.7-1.93 3.9.65 4.7 4.18 4.07 7.37.1.05.21.13.31.22 5.9 5.37 13.23 8.9 19.43 13.9 6.28 5.06 12.01 10.92 18.8 15.49 2.6 1.75 5.61 3.09 7.78 5.42 2.05 2.2 2.3 4.83 3.74 7.35 1.61 2.84 5.44 5.11 8.1 7.08 2.73 2.05 6.44 2.43 9.82 3.45.22-.82.68-1.59 1.3-2.2 1.06-1.1 3.2-1.71 3.87-3.16-.02-.15-.02-.3.01-.46.8-4.8 3.42-9.05 7.76-11.46a15.83 15.83 0 0 1 6.7-1.95c3-.18 6 1.2 8.93.37.24-.07.46-.08.66-.04a5.81 5.81 0 0 1 3.18-1.7 6.98 6.98 0 0 1 4.33.6 8.21 8.21 0 0 1 3.06 2.75 12.26 12.26 0 0 1 1.6 3.43c.68 2.37.76 4.63.98 6.68.19 2.03.64 3.87 1.21 5.82.55 1.94 1.15 3.9 1.5 5.96.36 2.02.32 4.23-.03 6.15-.34 1.93-.81 3.69-1.1 5.35-.3 1.68-.33 3.2-.11 4.78.42 3.15 1.58 6.19 2.35 9.27.38 1.56.68 3.12.75 4.71Zm-4.95 7.94c.73-1.32 1.46-2.62 1.88-4.02.33-1.2.5-2.44.43-3.78a21.15 21.15 0 0 0-.74-4.18c-.4-1.62-.97-3.28-1.49-5.06a34.29 34.29 0 0 1-2.35-7.7c-1.23-6.43-.34-11.74.09-11.67.45.03.39 4.32 1.27 9.76l.07-.51c.3-1.85.77-3.63 1.05-5.37.3-1.74.32-3.4 0-5.2-.3-1.8-.88-3.65-1.45-5.61a33.52 33.52 0 0 1-1.32-6.34c-.23-2.14-.34-4.25-.9-6.12-.54-1.87-1.61-3.62-3.13-4.38a3.93 3.93 0 0 0-2.44-.32c-.44.08-.83.24-1.16.45.14.17.24.35.3.55.27.23.45.58.48 1.03.1 1.92 1.38 3.24 2.74 4.54-.69-2.57-1.5-4.5-1.14-4.73.36-.26 2.18 1.84 2.95 5.09.18.66.27 1.3.33 1.91.25.33.47.69.66 1.05 1.22 2.5 1.41 5.4.93 8.11-.16.92-.4 1.86-.72 2.8.87-1.37 1.18-2.33 1.4-2.28.22 0 .26 1.4-.67 3.32a25.2 25.2 0 0 1-1.85 3.14c-.72 1.13-1.52 2.32-2.09 3.65a13.16 13.16 0 0 0-.82 7.3c.32 1.92.86 3.07.63 3.2-.17.1-1.11-.88-1.78-2.92-.66-2-.9-5.16.43-8.25l.22-.44-1.12.65c-1.03 1.28-1.88 2.76-1.9 4.52-.04 1.78.52 3.53 1.1 5.1.6 1.55 1.22 3 1.57 4.3.77 2.6.38 4.35.17 4.3-.25-.01-.29-1.6-1.29-3.91-.47-1.18-1.17-2.52-1.88-4.13a13.91 13.91 0 0 1-1.34-5.7c0-.26.03-.51.06-.76-1.18 3.6.41 8.88 1.85 11.54 1.36 2.5 2.3 4.25 2.68 7.1.33 2.44 1.28 4.5 2.02 6.74.8-3.13 1.5-5.56 1.73-7.52.52-4.16-.55-5.87-.23-5.97.1-.05.35.34.8 1.29.33.96.77 2.55.66 4.78-.09 2.22-.7 5-1.39 8.35-.3 1.62-.6 3.4-.55 5.29l2.07 3.41c0-.3.02-.6.06-.9.18-1.85.98-3.85 1.65-5.98.72-2.11.94-4.46.56-7a41.62 41.62 0 0 0-1.88-7.05 56.65 56.65 0 0 1-1.74-5.9c-.78-3.48-.4-5.72-.2-5.7.27 0 .3 2.15 1.34 5.4.5 1.64 1.25 3.53 2.06 5.7.8 2.14 1.67 4.58 2.08 7.31.19 1.37.25 2.74.11 4.06a15.85 15.85 0 0 1-.86 3.66Zm-25.87 4.26c-.02-.03-.14-.07-.31-.08l-1.6-.1c-2-.15-3.23-.4-3.24-.7 0-.29 1.24-.59 3.2-.84.51-.06 1.03-.12 1.64-.16.33-.01.85-.04 1.44.34.58.4.75 1.01.85 1.37.1.41.14.63.25.92.08.3.2.6.32.88.2.42.39.85.58 1.3l.05-.45c.17-1.03.45-1.63.68-1.6.23.02.37.65.5 1.62.14.97.3 2.28.71 3.6.43 1.33 1.07 2.4 1.63 3.14.56.73 1.02 1.16.9 1.38-.1.2-.8.12-1.71-.53-.26-.18-.53-.4-.79-.69.5 5.91 1.3 11.78 2.68 17.56.74 3.14 1.93 6.22 2.8 9.34a7.73 7.73 0 0 1 1.5-3.43c.73-.87 1.38-1.2 1.52-1.04.36.32-1.21 2.36-1.46 5.27-.3 2.9.83 5.22.42 5.46-.13.1-.52-.17-.94-.77.24 2.5.29 4.9 1.2 7.4.67 1.86 1.43 3.46 1.89 5.39.75 3.09 1.2 6.23 1.23 9.4 0 .68.02 1.33-.15 1.99-.12.45.04 1.49-.22 1.82-.3.37-1.92.28-2.42.32-.83.07-1.67.12-2.5.2l-1.2.14c-.98.14-2.07.24-2.99.6-.4.17-.78.49-1.15.73-.47.32-.99.58-1.44.94a32.2 32.2 0 0 1-3.5 2.52c-.5.3-1.57.95-1.54 1.61.03.91 1.76.7 2.12.17.28-.4.44-.76.82-1.12.5-.46 1.05-.9 1.61-1.29 1-.67 1.94-1.16 2.75-1.51 1.62-.72 2.67-.98 2.8-.76.1.23-.76.92-2.16 1.88a41.1 41.1 0 0 0-2.37 1.75c-.42.35-.86.71-1.26 1.12-.2.2-.45.43-.59.6l-.13.2.5.02c.6 0 1.15 0 1.63-.08.47-.07.86-.2 1.2-.41.35-.2.68-.5 1-.79a9.27 9.27 0 0 1 1.48-1.2l.14-.12a26.19 26.19 0 0 1 2.94-2.32c1.81-1.21 3.15-1.55 3.25-1.34.1.25-.96.96-2.44 2.36-.76.68-1.61 1.54-2.58 2.53-.44.47-1.07 1.04-1.39 1.47a.97.97 0 0 0-.22.55c0 .14 0 .15.12.26.3.27 1.2.34 1.94.26.4-.04.79-.12 1.15-.24.03-.28.13-.55.21-.75.33-.64.63-.98.93-1.4.31-.4.63-.76.95-1.1.62-.68 1.26-1.23 1.81-1.64 1.12-.83 1.94-1.15 2.09-.96.17.2-.35.88-1.19 1.9-.4.5-.9 1.11-1.4 1.8-.27.33-.54.7-.8 1.07 0 .02-.01.03-.03.04l-.43 1.44c.1.02.23.03.39.03.2 0 .4-.03.6-.06.12-.27.32-.51.6-.65a5.9 5.9 0 0 0 2.35-1.73c.12-.14.27-.23.43-.3.24-.26.58-.42 1.05-.4 6.63.25 4.67-8.84 4.4-12.95-.25-3.4-.48-6.83-.7-10.24-.22-3.24-.28-6.52-.65-9.74-.47-4.16-2.15-7.1-3.63-10.9-1.83-4.72-.53-11-.5-16 0-1.58.22-3.26.04-4.82-.15-1.28-.8-2.51-1-3.77-.34.67-.72 1.26-1.07 1.72-.81 1.04-1.5 1.52-1.67 1.4-.38-.31 1.37-2.88 2.23-6.47.92-3.58.58-6.66 1.06-6.75h.09c-.66-2.73-2.4-4.9-2.99-7.62l-.38.2c-.17.07-.36.1-.53.15a4.2 4.2 0 0 1-.78 3.4c-.73.9-1.47 1.03-1.55.87-.12-.19.3-.61.62-1.42.34-.77.52-2.08-.1-3.13l-.65-1.16 1.4-.05a3.13 3.13 0 0 0 1.82-.76c0-1.13.09-2.25-.38-3.4-.59-1.45-1.64-2.62-2.3-4.05 0-.04-.03-.1-.05-.14-5.83 3.38-12.74 6.49-17.67 11-7.55 6.92-3.04 15.25 3.19 20.97 1.8-1.25 3.58-2.5 5.33-3.8-.24-.7-.51-1.45-.84-2.19-.28-.66-.6-1.34-.87-2.06a11.7 11.7 0 0 1-.35-1.1c-.1-.36-.16-.8-.2-1.04-.04-.27-.09-.32-.03-.28"/>
  </g>
  <path fill="#966539" d="M372.79 195.45c.07 1.34-.1 2.59-.43 3.78-.42 1.4-1.15 2.7-1.88 4.02.39-1.1.73-2.34.86-3.66.14-1.32.08-2.69-.11-4.06a35.94 35.94 0 0 0-2.08-7.32c-.81-2.16-1.56-4.05-2.06-5.69-1.04-3.25-1.07-5.4-1.34-5.4-.2-.02-.58 2.22.2 5.7a56.65 56.65 0 0 0 1.74 5.9c.73 2.16 1.5 4.54 1.88 7.05.38 2.54.16 4.89-.56 7-.67 2.13-1.47 4.13-1.65 5.98-.04.3-.05.6-.06.9l-2.07-3.41c-.05-1.88.25-3.67.55-5.3.68-3.33 1.3-6.12 1.39-8.34a12.3 12.3 0 0 0-.66-4.78c-.45-.95-.7-1.34-.8-1.29-.32.1.75 1.81.23 5.97-.24 1.96-.93 4.4-1.73 7.52-.74-2.25-1.7-4.3-2.02-6.73-.39-2.86-1.32-4.62-2.68-7.11-1.44-2.66-3.03-7.93-1.85-11.54-.03.25-.06.5-.06.75-.04 2.2.66 4.1 1.34 5.71.71 1.6 1.4 2.95 1.88 4.13 1 2.32 1.04 3.9 1.3 3.91.2.05.6-1.7-.18-4.3-.35-1.3-.96-2.75-1.57-4.3a14.04 14.04 0 0 1-1.1-5.1c.02-1.76.87-3.24 1.9-4.52.37-.2.74-.42 1.12-.65l-.22.44a11.98 11.98 0 0 0-.43 8.25c.67 2.04 1.61 3.02 1.78 2.91.23-.12-.3-1.27-.63-3.19-.33-1.9-.33-4.64.82-7.3.57-1.33 1.37-2.52 2.1-3.65a25.2 25.2 0 0 0 1.84-3.14c.93-1.92.89-3.31.68-3.32-.23-.05-.54.91-1.4 2.27.3-.93.55-1.87.7-2.79.49-2.71.3-5.6-.92-8.1-.2-.37-.4-.73-.66-1.06-.06-.6-.15-1.25-.32-1.91-.78-3.25-2.6-5.35-2.96-5.09-.37.23.45 2.16 1.14 4.73-1.36-1.3-2.64-2.62-2.74-4.54-.03-.45-.2-.8-.48-1.03-.06-.2-.16-.38-.3-.55.33-.21.72-.37 1.16-.45a3.93 3.93 0 0 1 2.44.32c1.52.76 2.59 2.51 3.14 4.38.55 1.87.66 3.98.89 6.12.2 2.2.75 4.4 1.32 6.34.57 1.96 1.14 3.82 1.45 5.61.32 1.8.3 3.46 0 5.2-.28 1.74-.75 3.52-1.05 5.37l-.07.5c-.88-5.43-.82-9.72-1.27-9.75-.43-.07-1.32 5.24-.09 11.68.56 3.1 1.5 5.77 2.35 7.69.52 1.78 1.08 3.44 1.5 5.06.37 1.44.65 2.84.73 4.18"/>
  <path fill="#eaa37d" d="M367.7 268.7c.28 4.1 2.24 13.2-4.39 12.94-.47-.02-.81.14-1.05.4a1.1 1.1 0 0 0-.43.3 5.9 5.9 0 0 1-2.35 1.73c-.28.14-.48.38-.6.65a4.3 4.3 0 0 1-1 .03l.44-1.44c.02 0 .02-.02.04-.04.25-.37.52-.74.78-1.08.51-.68 1-1.28 1.41-1.8.84-1.01 1.36-1.69 1.19-1.89-.15-.2-.97.13-2.09.96-.55.41-1.19.96-1.81 1.64-.32.34-.64.7-.95 1.1-.3.42-.6.76-.93 1.4-.08.2-.18.47-.21.75-.36.12-.75.2-1.15.24-.73.08-1.63.01-1.94-.26-.12-.11-.12-.12-.12-.26 0-.15.07-.34.22-.55.32-.43.95-1 1.4-1.47.96-1 1.8-1.85 2.57-2.53 1.48-1.4 2.55-2.11 2.44-2.36-.1-.2-1.44.13-3.25 1.34-.9.6-1.9 1.4-2.94 2.32l-.14.13c-.45.26-.96.7-1.48 1.2-.32.28-.65.57-1 .78-.34.22-.73.34-1.2.41a11.6 11.6 0 0 1-2.13.06l.13-.2c.14-.17.39-.4.59-.6.4-.4.84-.77 1.26-1.12a41.1 41.1 0 0 1 2.37-1.75c1.4-.96 2.27-1.65 2.15-1.88-.12-.22-1.17.04-2.8.76-.8.35-1.74.84-2.74 1.51-.56.39-1.1.83-1.61 1.29-.38.36-.54.71-.82 1.12-.36.53-2.1.74-2.12-.17-.03-.66 1.05-1.3 1.54-1.6a32.2 32.2 0 0 0 3.5-2.53c.45-.36.97-.62 1.44-.94.37-.24.75-.56 1.15-.73.92-.36 2-.46 2.98-.6l1.2-.14c.84-.08 1.68-.13 2.5-.2.5-.04 2.13.05 2.43-.32.26-.33.1-1.37.22-1.82.17-.66.15-1.3.15-2-.03-3.16-.48-6.3-1.23-9.39-.46-1.93-1.22-3.53-1.9-5.4-.9-2.48-.95-4.89-1.19-7.39.42.6.8.86.94.77.41-.24-.73-2.55-.42-5.46.25-2.91 1.82-4.95 1.46-5.27-.14-.16-.79.17-1.51 1.04a7.73 7.73 0 0 0-1.5 3.43c-.88-3.12-2.07-6.2-2.81-9.34a117.52 117.52 0 0 1-2.68-17.56c.26.29.53.5.79.7.9.64 1.62.72 1.71.51.12-.21-.34-.64-.9-1.37-.56-.74-1.2-1.81-1.63-3.13-.41-1.33-.57-2.64-.71-3.61-.13-.97-.27-1.6-.5-1.63-.23-.02-.51.58-.68 1.61l-.05.44c-.2-.44-.38-.87-.58-1.29a8.62 8.62 0 0 1-.32-.88c-.11-.3-.16-.51-.25-.92-.1-.36-.27-.96-.85-1.37-.59-.38-1.11-.35-1.44-.34-.61.04-1.13.1-1.64.16-1.96.25-3.2.55-3.2.84.01.3 1.25.55 3.24.7l1.6.1c.17 0 .29.05.3.08-.06-.04-.01 0 .03.28.04.23.1.68.2 1.03.1.38.22.75.35 1.1.27.73.59 1.4.87 2.07.33.74.6 1.49.84 2.2a260.4 260.4 0 0 1-5.33 3.8c-6.23-5.73-10.74-14.06-3.19-20.98 4.93-4.51 11.84-7.62 17.67-11l.06.14c.65 1.43 1.7 2.6 2.29 4.05.47 1.15.39 2.27.38 3.4-.26.22-.54.42-.87.54-.32.15-.65.2-.95.22l-1.4.05.66 1.16c.6 1.05.43 2.36.1 3.13-.32.8-.75 1.23-.63 1.42.08.16.82.03 1.55-.87a4.15 4.15 0 0 0 .78-3.4c.17-.05.36-.08.53-.16.13-.05.25-.13.38-.2.6 2.72 2.33 4.9 2.99 7.64-.03-.01-.06-.02-.09-.01-.48.09-.14 3.17-1.06 6.75-.86 3.59-2.6 6.16-2.23 6.46.17.13.86-.35 1.67-1.4.35-.45.73-1.04 1.08-1.71.18 1.26.84 2.5.99 3.77.18 1.56-.04 3.24-.04 4.82-.03 5-1.33 11.28.5 16 1.48 3.8 3.16 6.74 3.63 10.9.37 3.22.43 6.5.64 9.74l.7 10.24"/>
  <path fill="#966539" d="M362.3 152.44c1.98 2.55 3.07 5.14 2.02 9-1.14 4.26-3.31 6.17-6.94 8.31-.87.52-1.63.9-2.19 1.66a2.84 2.84 0 0 1-1.21-1.6l-.05-.06c.06-.1.1-.2.14-.3a7.64 7.64 0 0 0 1.84-3.23c.66-3.74-3-6.01-6.04-4.52a5 5 0 0 0-.93-2.34c-.42-.54-1.4-.94-1.72-1.45-1-1.53.15-2.13.91-3.19 1.14-1.59 2-3.83-.02-5.04a2.77 2.77 0 0 0-1.18-.55c-1.64-.36-2.76.48-3.43-1.5a2.77 2.77 0 0 0-1.12-1.56 12.48 12.48 0 0 1 4.57-1.73c2.55-.41 5 .25 7.47.39-2.74 1.38-4.85 1.93-4.77 2.27.02.2 1.14.25 2.87-.14 1.38-.3 3.14-.94 4.95-1.96l-.25.54a23.36 23.36 0 0 1-2.57 4.22c-1.08 1.43-1.86 2.27-1.7 2.47.13.16 1.2-.36 2.58-1.68a14.5 14.5 0 0 0 1.68-1.9l-.07 1.13c-.05 1.3-.07 2.4-.2 3.3-.24 1.82-.9 2.73-.75 2.86.11.14 1.17-.66 1.72-2.63.3-.96.46-2.16.6-3.42.06-.49.13-.98.22-1.49.3.6.63 1.16.92 1.69.5.87.82 1.68 1.02 2.6.2.9.35 1.85.51 2.73.3 1.75.44 3.3.32 4.59-.2 2.6-1.4 3.88-1.2 4.04.06.08.48-.13 1-.75a7.15 7.15 0 0 0 1.38-3.12c.3-1.43.24-3.17.02-4.98-.1-.83-.21-1.72-.4-2.66"/>
  <path fill="#4d4d4d" d="M328.56 217.93c.1-.23-.93-.8-2.3-1.98a15.82 15.82 0 0 1-4.22-5.44 15.79 15.79 0 0 1-1.38-6.74c0-1.8.23-2.94-.02-3.02-.19-.07-.84.98-1.17 2.92a13.16 13.16 0 0 0 6.1 13.24c1.7 1.02 2.91 1.22 2.99 1.02Zm26.73-33.96c.08.21.14.43.21.64-4.59 2.72-9.24 5.37-13.75 8.2-3.14 1.98-6.35 4.22-7.99 7.66-3.35 7.04 1.5 13.74 6.55 18.38-2.14 1.5-4.27 3-6.32 4.6-.03-.01-.05-.03-.08-.03-10.58-1.76-15.32-11.49-17.87-20.87.54-.66 1.03-1.36 1.44-2.07.1-.14.14-.3.18-.47.38.03.74.03 1.04-.02.94-.11 1.43-.47 1.39-.68-.1-.45-2.14-.34-3.98-1.59-.05-.02-.1-.06-.15-.1-1.6-2.15.22-6.43 1.25-8.19.83-1.4 1.84-2.42 2.94-3.32-1.9 3.04-2.32 6.46-.04 10 .12.27.26.52.44.78.36.54.84 1.2 1.77 1.52 3.36 2.01 8.15-.1 11.45-1.9 7.38-4.02 12.99-10.98 21.52-12.54"/>
  <path fill="#eaa37d" d="M354.37 165.12c.1.67 0 1.4-.36 2.09-.38.72-2.5 3-4.14 3.43-.19-.1-.36-.25-.5-.4-.25-.3-.37-.77-.4-1.14-.04-.38.03-.7-.14-.89-.13-.15-.6-.09-.98.51-.2.33-.35.86-.27 1.44a.32.32 0 0 0-.08.06.93.93 0 0 0-.27.16 11.43 11.43 0 0 1-9.27 2.9 5.33 5.33 0 0 0-1.38-.35c-.73-.09-1.9.18-2.53-.15-1.34-.68-1.34-1.88-1.24-3.12.14-1.9.31-3.77.46-5.67.04-.58-.32-.88-.76-.96a3 3 0 0 1-1.13-1.67c0-1.26 1.85-1.99 2.74-2.61a6.15 6.15 0 0 0 2.51-3.13c.11-.31.1-.6.02-.86a13.65 13.65 0 0 1 4.33-7.65c1.32.32.97.91 1.25 1.72.15.43.34.79.7 1.08 1.06.87 2.95.23 4.03.79.05.05.1.1.18.14l.09.05c.07.07.15.11.2.19.08.1.16.16.26.2.79 1.25-1.61 3.43-2.07 4.28-.33.62-.63 1.4-.5 2.1.08.45.26.73.56 1.05 1.21 1.34 2.68 1.4 2.78 3.79 0 .3.17.48.37.6.22.33.69.52 1.1.27-.12.15-.22.3-.33.42-.38.46-.77.84-1.12 1.16-.7.64-1.2 1.01-1.12 1.23.07.21.77.22 1.77-.25.5-.22 1.06-.6 1.58-1.1.52-.49.98-1.01 1.39-1.17.36-.16.86-.07 1.27.18.39.22.67.6.86.99.06.1.1.19.14.29M354.54 172.73c-.84 2.6-.45 6.57.36 9.8-8.36 1.68-14 8.11-21.2 12.3-2.09 1.2-6.2 3.37-9.23 2.9.11-.12.19-.23.28-.3a11.53 11.53 0 0 1 3.45-2.56c1.41-.7 2.43-.93 2.4-1.18 0-.21-1.1-.42-2.83.06a9.4 9.4 0 0 0-2.8 1.35c-.2.13-.38.28-.56.43.03-.08.05-.16.1-.25.26-.74.43-1.44.5-2.03.16-1.2.01-1.94-.2-1.96-.25-.03-.51.64-.94 1.65-.21.5-.46 1.1-.78 1.74-.17.3-.36.7-.5.93a.74.74 0 0 1-.2.2c-.06 0-.35-.23-.6-.47-.18-.16-.34-.34-.49-.52-.75-2.21-.78-5.3-.39-6.8.4-1.52 2.16-3.08 3.2-4.16.77-.83 1.62-1.56 2.5-2.27 3.64-2.05 7.43-3.77 11.68-4.2l-.08.15c-.46.79-1.11 1.4-1.6 1.94-.5.5-.8.91-.67 1.1.12.2.61.16 1.34-.13.7-.3 1.7-.9 2.38-2.06.33-.58.53-1.21.54-1.83 0-.6-.16-1.14-.38-1.52l-.1-.16c2.96-.07 5.78-1.13 8.13-3.1.84.67 1.88.64 2.94.2l-1.04 1.52c-2.14 3.31-3.42 6.26-3.02 6.49.4.23 2.3-2.31 4.43-5.58a71.9 71.9 0 0 0 1.9-3.08c.38.58.89 1.06 1.48 1.4"/>
  <path fill="#eaa37d" d="M301.45 155.63c.32-.35-.7-1.8-1.47-3.75-.8-1.93-1.07-3.69-1.55-3.71-.22-.01-.47.47-.52 1.27-.07.79.05 1.92.51 3.06a7.05 7.05 0 0 0 1.76 2.58c.62.53 1.11.7 1.27.54Zm31.76 19.07c.83.25 2.68.05 3.81.43a31.6 31.6 0 0 0-3.45 1.13 39.4 39.4 0 0 0-7.36 3.19c.03-.63 0-1.33-.05-2.16.15-.57.25-1.14.33-1.77.1-.71.1-1.46-.05-2.14a3.58 3.58 0 0 0-.8-1.68c-.75-.84-1.53-.83-1.58-.62-.09.22.31.58.58 1.27.29.63.34 1.53.22 2.67-7.68-2.63-13.05-7.87-19.29-12.87-4.84-3.9-7.95-9.65-13-13.32-2.66-1.93-4.92-4.48-7.16-6.93-2.63-2.91-4.28-6.43-6.57-9.49 2 .54 3.5.94 3.66.6.21-.4-1.86-1.86-4.83-2.65-.75-.19-1.48-.32-2.14-.41l-.83-.19c-1.77-.41-3.66-.14-5.34-1.13-1.12-.67-5.3-4.18-5.23-6.36l.27.13 1 .57c1.42.8 2.71 1.44 3.74 1.84 1.07.41 1.9.28 1.9.05 0-.23-.54-.48-1.34-1.1a35.1 35.1 0 0 0-1.66-1.14c-.77-.82-1.9-1.9-3.14-3.12a715.4 715.4 0 0 0-1.8-1.8c-1.35-2.06-2.74-4.1-4.17-6.1.2-.37.37-.76.55-1.13.8.7 1.64 1.4 2.5 2.04.29.3.59.6.88.92 1.42 1.57 2.67 3.1 3.72 4.12 1.03 1.02 1.82 1.52 1.98 1.36.17-.16-.29-.93-1.06-2.11l-.52-.76c3.77 2.5 7.63 4.85 11.15 7.68 2.67 2.15 4.8 4.73 7.58 6.82 3.51 2.64 6.84 5.53 10.39 8.13 3.33 2.43 7.94 4.07 9.97 7.87 1.53 2.88 1.8 5.42 4.32 7.74a67 67 0 0 0 7.38 5.84c3.34 2.27 7.8 2.02 11.52 3.7.39.18.78.18 1.12.06.21.26.45.5.72.71-.14 1.7-.28 3.38-.4 5.07-.1 1.24-.31 2.55.42 3.64.5.74 1.22 1.16 2.06 1.4"/>
  <path d="M326.27 215.95c1.36 1.17 2.39 1.75 2.29 1.98-.08.2-1.3 0-2.99-1.02a13.17 13.17 0 0 1-6.1-13.24c.33-1.94.98-2.99 1.17-2.92.25.08.02 1.21.02 3.02-.03 1.8.25 4.3 1.38 6.74a15.82 15.82 0 0 0 4.23 5.44"/>
  <path fill="#eaa37d" d="M332.52 224.63a51.46 51.46 0 0 0-6.04 5.66 66.36 66.36 0 0 1-3.1 3.22c-8.83-4.37-12.22-17.31-11.92-26.62a28.68 28.68 0 0 0 3.42-2.99c2.65 9.25 7.6 18.53 17.64 20.72"/>
  <path fill="#333" d="M307.47 232.32c.69-2.76.66-5.36.34-7.16-.32-1.83-.82-2.86-1.04-2.8-.48.09.4 4.44-.93 9.55-1.23 5.15-4.06 8.57-3.68 8.9.16.14 1.1-.54 2.23-2a17.99 17.99 0 0 0 3.08-6.49Zm14.79 2.26c-5.77 5.37-12.77 9.88-20.32 11.94-9.84 2.67-18.34-1.65-22.44-9.82 6.04-1.26 11.2-6.62 14.8-11.24a24.28 24.28 0 0 0 4.65-9.25c.38 1.08.68 2.09.92 2.97.63 2.38.8 3.93 1.1 3.93.26 0 .6-1.6.3-4.2-.1-.84-.28-1.8-.53-2.8a21.62 21.62 0 0 1 1.42 4.05c.52 2.1.54 3.5.84 3.53.24.04.76-1.38.57-3.76-.16-2.37-1.2-5.56-3.08-8.57l-.23-.36c2.64.2 5.74-.65 7.6-1.72.68-.4 1.39-.85 2.09-1.31-.05 9.58 3.53 21.96 12.3 26.61"/>
  <path d="M307.81 225.16c.32 1.8.35 4.4-.34 7.16a17.99 17.99 0 0 1-3.08 6.5c-1.13 1.45-2.07 2.13-2.23 1.99-.38-.33 2.45-3.75 3.68-8.9 1.34-5.1.45-9.46.93-9.56.22-.05.72.98 1.04 2.8M299.98 151.88c.77 1.95 1.79 3.4 1.47 3.75-.16.15-.65-.02-1.27-.55a7.05 7.05 0 0 1-1.76-2.58 6.95 6.95 0 0 1-.51-3.06c.05-.8.3-1.28.52-1.27.48.02.75 1.78 1.55 3.7"/>
  <path fill="#eaa37d" d="m276.07 183.75.42-.73-.74-.4-.39-.22a11.5 11.5 0 0 1-2.16-1.43c-.56-.5-.89-1.04-1.09-1.57-.4-1.04-.08-1.79-.29-1.92-.09-.05-.31.06-.54.42-.23.35-.42 1-.33 1.75a4.3 4.3 0 0 0 1.15 2.4c.6.66 1.37 1.2 2.17 1.65-.66 1.7-.5 3.39-.08 4.46.47 1.27 1.14 1.8 1.3 1.68.2-.13-.07-.82-.19-1.95a7 7 0 0 1 .77-4.14Zm20.39 26.43c.52 1.12.99 2.2 1.42 3.23-.2 4.86-3.32 9.67-6.4 13.09-3.35 3.69-7.55 7.93-12.62 8.82a25.4 25.4 0 0 1-1.34-4.23c-1.02-4.59-1.38-9.26-2.66-13.8-1.28-4.54-3.07-8.92-4.61-13.36a57.54 57.54 0 0 1-3.25-14c-.26-2.97-.2-3.93-2.61-5.66-8.6-6.15-14.4-14.75-18.01-24.62-1.58-4.3-2.39-8.57-3.1-13.08-.47-2.79-1.08-5.32-3.12-7.39l-.3-.32c.04-.08.07-.2.08-.31.32-4.55 5.03-5.7 8.86-5.73.45 9.58 6.24 17.04 11.04 25.2 1.3 2.21 2.95 3.34 4.46 5.4 1.46 1.96 2.61 4.15 4.11 6.1a33.93 33.93 0 0 0 5.86 5.82c3.13 2.5 4.87 4.7 6.85 8.13 3.02 5.25 6.96 10.07 9.87 15.34.49.87.9 1.9 1.34 3.01-.03.23.17.77.58 1.56.78 1.99 1.64 4.01 2.91 5.47l.64 1.33"/>
  <path d="m276.5 183.02-.43.73a7 7 0 0 0-.77 4.14c.12 1.13.4 1.82.2 1.95-.17.12-.84-.41-1.3-1.68a6.35 6.35 0 0 1 .07-4.46 8.72 8.72 0 0 1-2.17-1.65 4.3 4.3 0 0 1-1.15-2.4c-.09-.76.1-1.4.33-1.75.23-.36.45-.47.54-.42.21.13-.1.88.3 1.92.2.53.52 1.08 1.08 1.57.55.51 1.3.95 2.16 1.43l.39.22.74.4"/>
  <path fill="#eaa37d" d="M246.18 201.45c.23-.4-.3-1.19-.52-2.21-.27-1.02-.14-1.95-.54-2.2-.2-.12-.55.04-.84.51a2.84 2.84 0 0 0-.24 2.08c.2.8.69 1.45 1.16 1.73.47.3.86.28.98.1Zm22.6 7.19c2.15 5.87 3.4 11.64 4.65 17.56a23.22 23.22 0 0 1-10.7-8.04 17.5 17.5 0 0 0-4.5-5.8c-1.32-1.11-2.74-1.9-3.92-2.61a27.1 27.1 0 0 1-3-1.94c-1.6-1.21-2.23-2.33-2.53-2.22-.28.07-.08 1.6 1.46 3.33.75.86 1.82 1.71 2.99 2.52l.49.33c.95 1.16 2.28 2.71 3.55 4.59a40.58 40.58 0 0 1 1.87 2.93c.62 2.3 1.32 4.44 1.61 6.94l.16 1.62c-.46 3.25-1.45 5.58-1.08 5.78.18.09.77-.52 1.4-1.74.04.58.1 1.15.16 1.73.23 2.35.47 4.7.63 7.06.15 2.26-.6 4.72-.38 6.9.07.72.13 1.04.37 1.47-.99 1.57-4.38.3-5.7-.18a16.76 16.76 0 0 1-4.52-2.46c.35-1.42.05-2.9-.04-4.38-.15-2.57-.02-5.24-.24-7.78v-.06c2.24 3.95 4.28 6.53 4.57 6.33.4-.26-2.15-4.86-4.98-10.66-.28-.61-.57-1.2-.85-1.78-1.12-3.86-2.7-7.73-3.8-11.34-1.85-6.05-6.93-15.67-2.1-21.06 5.5-6.13 13.62-2.55 20.4-.75.06.7.13 1.33.26 1.87.9 4.05 2.36 7.95 3.77 11.84"/>
  <path fill="#f2f2f2" d="M266.34 258.82c.79.74 1.48 1.53 1.23 2.34-1.15 3.75-12.3 1.54-15.02 1.41-5.67-.25-12.04.64-17.52-1.07-1.45-.46-4.24-1.38-3.43-3.5 2.62 1.6 5.42 2.84 8.53 3.08 4.32.33 8.44-1.12 12.83-.8 2.74.18 11.32 1.74 13.38-1.46"/>
  <path fill="#f2f2f2" d="M264.68 256.96c.08.24.25.47.46.7-1.58 2.79-14.63.8-16.73.94-2.29.15-4.48.98-6.78 1.04-3.29.08-6.33-1.16-9.08-2.82 1.52-1.12 4.33-1.53 5.77-1.55 1.52-.02 2.83-.22 4.25-.75a8.65 8.65 0 0 0 12.35.96c.66.23 1.33.4 1.98.55 2.78.6 5.43.4 7.75-1-.04.67-.22 1.23.03 1.93"/>
  <path fill="#f2f2f2" d="M262.91 250.34c.92 1.03 1.46.96 1.66 2.96-2.12 1.64-4.63 1.85-7.28 1.3-2.95-.64-3.76-1.88-5.23-4.53a6.72 6.72 0 0 0-1.55-2.05c.03-.02.05-.03.08-.03.2-.03.35-.13.5-.24a18.84 18.84 0 0 0 6.67 3.1c1.74.4 3.9.85 5.15-.51M255.45 104.85c2.11.57 2.6.74 2.4 1.6-.97.63-3.34-.2-4.07-.15-1.89.11-3.9 1.45-5.43 2.44-1.3.83-2.5 1.77-3.48 2.96-1.21 1.48-1.74 3.66-3.16 4.93-1.21 1.07-2.32.46-3.77 1.93-3.07 3.15-4.95 9.04-6.65 13.31-1.4-1.35-1.93-3-.95-5.6 1-2.67 2.95-5.37 4.77-7.53a58.04 58.04 0 0 1 14.85-12.8c2.22-1.35 2.72-1.82 5.49-1.09"/>
  <path fill="#f2f2f2" d="m257.16 108.3-.05.15c-.06.02-.09.05-.09.08v.1c-.37.93-.86 1.82-1.32 2.7l-1.96 3.62c-2.45-.97-5.22-1.12-6.7 1.54-.95 1.72-1.19 3.87-1.74 5.75-.87 2.93-2.06 5.54-4.36 7.62h-.44c-.8 0-1.64-.09-2.39.28-.64.3-1.16.74-1.45 1.4-.32.74.17 3.67-1.82 2.81l-.06-.01c-.46-.32-.9-.64-1.35-.9-.33-.2-.64-.4-.93-.6a113.7 113.7 0 0 1 4.2-9c.52-.98 1.01-2.13 1.66-3.03l1.74-1.86c.2.17.42.3.65.4 1.75-.55 1.66-.15 2.73-2.05 1.79-3.18 2.96-5.59 6.25-7.66 2.46-1.53 4.58-1.22 7.18-1.3.1-.02.16-.03.25-.03M252.6 254.17c.25.22.53.43.82.62a7.14 7.14 0 0 1-9.45-.9 10.45 10.45 0 0 0 3.51-2.78c.63-.77.95-1.65 1.52-2.27 1.98 1 2.13 3.88 3.6 5.33"/>
  <path fill="#f2f2f2" d="M253.07 116.28a23.98 23.98 0 0 0-1.59 4.15c-.43 1.53-.5 5.9-1.14 8.32-.3-.55-.7-1.02-1.24-1.3-1.26-.65-1.8-.05-2.82.69-1.1.78-2 1.23-3 1.47a16.35 16.35 0 0 0 2.76-4.88c.59-1.56.98-3.17 1.4-4.76.17-.6.27-1.25.5-1.83 1.03-2.46 3.04-2.66 5.13-1.86M249.55 130.3l-.05.04c-.37.2-.62.59-.7.99-4.4.04-9.33 1.6-10.23 6.26a46.37 46.37 0 0 0-2.09-1.9c.58-.39.99-1.1 1.45-1.97 1.7-3.25 4.07-1.75 6.74-2.8.66-.26 1.18-.74 1.81-1 .3-.22.59-.47.85-.73 1.15-.06 1.88.3 2.22 1.1"/>
  <path d="M245.66 199.24c.22 1.02.75 1.8.52 2.21-.12.19-.51.21-.98-.09a2.9 2.9 0 0 1-1.16-1.73c-.2-.82-.05-1.6.24-2.08.29-.47.64-.63.84-.52.4.26.27 1.2.54 2.2"/>
</svg>
