<svg xmlns="http://www.w3.org/2000/svg" width="500" viewBox="0 0 375 375" height="500" version="1.0">
  <defs>
    <clipPath id="a">
      <path d="M0 129h132v135.57H0Zm0 0"/>
    </clipPath>
    <clipPath id="b">
      <path d="M144 110.48h230.78v153.75H144Zm0 0"/>
    </clipPath>
  </defs>
  <g clip-path="url(#a)">
    <path d="M108.7 171.4c.84.49 1.75.76 2.6.97a5.1 5.1 0 0 0-.13 3.85c.2.62.47 1.2.72 1.75.24.52.47 1.01.63 1.51a7.93 7.93 0 0 1-.1 4.8 13.4 13.4 0 0 1-2.55 4.46c-.23.29-.47.56-.71.84-.73.85-1.48 1.71-2.05 2.76-.99 1.78-1.15 3.67-.44 5.16a5.3 5.3 0 0 0 3.58 2.78c1 .25 2.12.38 3.16.36.18 5-1 10.06-2.12 14.97l-.63 2.7c-1.16 5.19-2.09 11.23-.58 17.34a178.66 178.66 0 0 0-20.01-4.3c-1.18-.17-2.5-.37-3.28-1.1-.58-.55-.9-1.41-1.24-2.31-.12-.31-.23-.62-.36-.92-1.43-3.4-4.5-6.31-8.6-8.16a37.5 37.5 0 0 0-9.12-2.56c-.8-.1-1.61-.21-1.96-.62a5.35 5.35 0 0 1-1.15-2.62c-.03-.17-.04-.35-.06-.54.03-.52.01-1-.03-1.41.03-.75.12-1.49.23-2.2l.1-.6c.38-1.25.59-2.41.67-3.4l.24-1.08c.43-1.73 1.07-2.9 1.94-3.57 1-.76 2.05-1.5 3.07-2.22 1.23-.86 2.5-1.74 3.7-2.7 4.85-3.9 8.53-8.84 12.5-14.45.75-1.06 1.6-2.27 2.22-3.62.17-.38.3-.74.4-1.12 1.95-.2 4.11-.53 6.16-1.38 2.1-.87 3.8-2.2 4.91-3.81.18.17.37.33.6.45.45.23.96.34 1.56.34h.26a6.37 6.37 0 0 0 4.03-1.8c.05-.06.1-.13.16-.18.4.64.96 1.2 1.69 1.62Zm-19.97 87.73c3.13.15 6.23-.2 8.6-.52l3.36-.5c3-.47 6.1-.95 9.15-1.02 1.12-.03 2.28 0 3.4.03a103.63 103.63 0 0 0 9.16-.12c2.31-.15 4.7-.5 6.44-2.09 1.66-1.52 2.23-3.71 2.55-5.46.63-3.42.64-6.83.5-10.91-.04-.73-.15-1.39-.26-2.04-.11-.64-.22-1.25-.23-1.86 0-1.7-.08-3.5-.22-5.34-.46-5.73-1.5-11.44-2.5-16.97-.54-2.95-1.1-6-1.56-9a144.6 144.6 0 0 1-.45-3.21c-.05-.37-.05-.73-.07-1.09-.02-.5-.04-1.02-.12-1.57a153.4 153.4 0 0 0-4.48-19.1 32.72 32.72 0 0 0 1.21-12.09 11.19 11.19 0 0 0-.96-3.97c-.5-1.03-1.35-1.89-2.09-2.64-.33-.33-.65-.67-.93-1-2.09-2.48-3.61-5.3-5.23-8.3-.63-1.15-1.25-2.28-1.9-3.41-1.94-3.36-5.1-8.1-10-10.4-2-.93-3.81-1.2-5.41-.76-.24.06-.46.15-.7.24-1.71-2-3.72-3.71-5.94-5.12-1.42-.9-3.57-2.07-5.93-1.83-1.82.19-3.37 1.13-4.77 2.12a44.21 44.21 0 0 0-11.68 12.37 5.27 5.27 0 0 0-2.9 2.74 4.84 4.84 0 0 0 0 3.4l-.16.22a43.12 43.12 0 0 0-2.7 5.9c-.34.9-.6 1.81-.87 2.69-.32 1.1-.63 2.12-1.04 3.14-.46 1.1-.87 1.6-1.54 2.46-.03.02-.05.07-.09.11-1.77.24-3.5.57-5.3 1.22a32.24 32.24 0 0 0-7.05 3.62c-3.16 2.1-5.93 4.08-7.84 7-1.92 2.97-3.15 7.39-1.65 10.62-3.78 5-4.8 11-4.98 15.2-.24 5.62.8 11.23 1.98 16.45.57 2.5 1.22 5.2 2.13 7.87A104.26 104.26 0 0 0 6 231.01c-1.82.56-3.85 1.33-5 3.14-.85 1.35-.96 2.92-.96 4.42 0 1.61.1 3.5.88 5.22.86 1.89 2.39 3.28 3.46 4.15 1.2.99 2.5 1.87 3.88 2.62 3.45 1.89 7.27 2.85 10.96 3.79l.56.14c4.52 1.14 8.72 2.16 12.84 3.12a573.89 573.89 0 0 0 22.68 4.8c.27.05.58.14.9.22.8.21 1.71.45 2.56.4.83-.07 1.7.3 2.64.68l.92.37c.87.32 1.7.48 2.48.48a4.1 4.1 0 0 0 2.8-1 4.3 4.3 0 0 0 1.24-3.54c-.09-1.12-.5-2.13-.85-3.01a31.76 31.76 0 0 0-1.78-3.9c2.1.62 4.17 1.34 6.2 2.05 5.23 1.81 10.64 3.69 16.32 3.97"/>
    <path d="M48.36 244.12c.13-.16.29-.35.46-.52-2.57-2.07-4.8-4-6.7-6.1-4.15-2.63-7.96-3.63-7.86-4.03.03-.18 1.2-.15 3.02.33.77.22 1.65.51 2.6.92l-.47-.66a31.38 31.38 0 0 1-2.83-5.41 101.47 101.47 0 0 0-29.85 4.7c-1.46.45-2.95.99-3.65 2.11-.53.83-.6 1.98-.6 3.11 0 1.35.08 2.91.67 4.2a9.3 9.3 0 0 0 2.78 3.27c1.09.9 2.27 1.69 3.51 2.37 3.17 1.74 6.83 2.66 10.38 3.55l.57.14a618.56 618.56 0 0 0 18.57 4.44c.08-3.9 1.88-7.8 4.8-10.38a.26.26 0 0 1-.04-.03c-.9-.46-1.8-.94-2.7-1.42-3.38-1.8-6.88-3.65-10.45-5.1-5.14-2.07-9.7-2.99-13.93-2.8l-.08-.02-1.1.26c-2.78.66-4.96 1.62-5.17 1.25-.21-.33 1.8-1.95 4.82-2.7l.25-.05a21.56 21.56 0 0 0-3.52-.1c-1.27.08-2.07.23-2.14.03-.08-.18.63-.7 1.98-1.05a12.7 12.7 0 0 1 5.33-.14c.51.1 1 .2 1.46.32 4 .12 8.24 1.09 12.91 2.97 3.69 1.49 7.23 3.38 10.66 5.2l2.7 1.42c.92.48 2.24 1.06 3 .56.2-.13.39-.37.62-.64Zm15.31-27.25c-.13-.17-.27-.34-.39-.52-.2.36-.39.7-.58.96-.54.74-1.01 1.07-1.17.96-.3-.22.42-1.7.95-3.71a9.48 9.48 0 0 1-.28-1.14v-.07c-.52.75-1.04 1.38-1.53 1.89-1.06 1.11-1.88 1.62-2.01 1.47-.29-.27 1.79-2.55 3.45-6.05.02-.28.03-.55.06-.82-6.43-.77-11.46-2.07-15.78-4.06-3.56-1.65-8.3-4.6-11.6-9.5-.5 2.08-.73 4.05-.8 5.71-.22 5.34.8 10.75 1.94 15.8.93 4.19 2.12 8.9 4.37 13.01 5.43-.26 10.16-1.5 14.07-3.65 4.36-2.42 7.72-6.14 9.3-10.28Zm-.28-13.57c.53-2.12 1.36-3.63 2.54-4.62-2.48-1.04-4.98-2.17-7.14-3.9-2.85-2.26-4.58-5.27-4.75-8.26-.13-2.21.58-4.62 2.01-6.78a21.61 21.61 0 0 1 4.8-4.92c2.3-1.83 4.8-3.45 7.41-4.8-6.73 1.77-13.05 5.27-19.41 9.02-.59.35-1.25.74-2.02.91-.26.06-.5.08-.74.08-.72 0-1.4-.24-1.87-.68a2.59 2.59 0 0 1-.88-1.96c0-1.85 1.74-3.56 2.1-3.87 2.88-2.67 6.29-4.78 9.95-6.22-.5.13-1 .27-1.5.46a30.32 30.32 0 0 0-6.52 3.35c-2.93 1.95-5.48 3.77-7.14 6.31-1.7 2.59-2.65 6.33-1.3 8.58.25-1.13.79-1.68.91-1.59.2.1-.1.93.03 2.24.13 1.3.83 3.07 2.02 4.74 1.2 1.7 2.67 2.9 3.8 3.67 1.13.78 1.94 1.17 1.86 1.39-.05.17-1 .14-2.36-.48a11.1 11.1 0 0 1-4.5-3.72 9.74 9.74 0 0 1-1.83-4.56 20.73 20.73 0 0 0-3.43 6.34c3.07 5.33 8.03 8.46 11.7 10.16 4.14 1.92 9.03 3.16 15.3 3.92.25-1.61.56-3.23.96-4.81Zm2.55 58.46c.34-.31.5-.9.45-1.55a4.87 4.87 0 0 0-.24-1.1 2.07 2.07 0 0 1-1.7 1.32c-.54.03-1-.11-1.38-.29a3.1 3.1 0 0 1-.93-.68c-.23-.25-.4-.5-.56-.71-.54-.88-.81-1.37-.7-1.54.1-.18.77.16 1.5.85.37.34.76.69 1.23.83.24.08.48.12.66.08.2-.03.3-.11.43-.27.26-.33.35-1.04.4-1.67.03-.2.02-.38.02-.57a13.72 13.72 0 0 0-2.62-4.3 8.86 8.86 0 0 1-4.16-2.82c-.4-.45-.77-.9-1.15-1.37-.85-1.04-1.65-2.03-2.65-2.73-1.21-.85-3.06-1.16-4.04-.24-.17.16-.32.33-.46.52-.24.29-.52.62-.87.9.08.03.17.04.24.08a2.9 2.9 0 0 1 1.72 1.9c.18.61.1 1.02-.08 1.08-.4.18-1.08-1.18-2.18-1.6a1.57 1.57 0 0 0-1.36.04c-.37.17-.56.44-.77.43-.18 0-.41-.5.02-1.16l.04-.06c-.42-.02-.84-.1-1.22-.21v.01a12.6 12.6 0 0 0-4.88 9.99A430.8 430.8 0 0 0 55.75 260c.33.07.7.16 1.05.26.63.17 1.35.35 1.8.32a8.41 8.41 0 0 1 3.73.86l.84.33c.46.18 2.02.68 2.77-.01Zm1-103.35c.41-.92.85-1.87.81-2.69-.06-1.1-.79-2.18-1.5-3.24l-.12-.18a41.05 41.05 0 0 0-1.93 4.39c-.3.82-.56 1.64-.8 2.53-.34 1.1-.67 2.26-1.15 3.39-.18.43-.36.79-.54 1.11a7.06 7.06 0 0 0 4.7-4.11c.16-.4.34-.8.52-1.2Zm6.65-18.05c.08-.32.18-.66.35-1.02-.88.99-1.73 2.01-2.51 3.08l.09-.03c.57-.22 1.58-.7 1.91-1.54.07-.17.1-.33.16-.5Zm18.36.92c-.08-.03-.15-.03-.2-.08a6.41 6.41 0 0 0-5.95-.55c-.25.1-.48.23-.71.34-.77.39-1.64.81-2.68.86a6.05 6.05 0 0 1-3.1-.9l-.29-.15a6.25 6.25 0 0 0-1.73-.75c-.47-.09-.95.04-1.11.28-.09.13-.16.39-.23.66-.08.26-.15.52-.24.77-.65 1.63-2.17 2.49-3.33 2.93-.63.22-1.25.4-1.84.54-.51.14-1 .26-1.47.43-.1.06-.22.1-.34.13-.57.25-1.39.7-1.7 1.44v.03c.01.13.02.28.06.42a16.88 16.88 0 0 0 1.57 3.7c.12.08.2.17.27.3l.2.51c.23.37.45.75.71 1.11a16.75 16.75 0 0 0 2.23 2.63c.76.7 1.54 1.2 2.25 1.5 1.43.6 2.48.41 2.52.64.03.09-.2.26-.7.4-.48.12-1.24.17-2.14-.05-.9-.2-1.9-.7-2.82-1.46-.34-.28-.66-.6-1-.92a9.3 9.3 0 0 1-1.02 3.4c-.16.35-.32.7-.45 1.04a9.21 9.21 0 0 1-2.76 3.74c-.38.45-.76.89-1.17 1.3l-.23.26c-.63.74-1.13 1.26-1.72 1.35-5.99.83-11.75 3.55-16.2 7.67-.77.7-1.54 1.81-1.54 2.59 0 .27.1.48.3.67.23.2.64.28 1.06.18.5-.1 1.01-.41 1.51-.7 8-4.72 15.9-9.04 24.8-10.2h.07a6.35 6.35 0 0 0 1.62-1.9 113.75 113.75 0 0 1 16.32-22.85c.42-.44.81-.88 1.18-1.3Zm.52-2.49c.42-.47.89-.97 1.42-1.43a24.34 24.34 0 0 0-5.14-4.37c-1.77-1.13-3.17-1.6-4.4-1.47-1.25.12-2.46.88-3.58 1.68a40.97 40.97 0 0 0-5.64 4.86 3.8 3.8 0 0 1 2.6-.42c.93.17 1.75.61 2.45 1l.29.15c.62.34 1.26.63 1.84.6a4.3 4.3 0 0 0 1.68-.6l.84-.4a8.76 8.76 0 0 1 7.64.4Zm9.23 21.17c.53-1 1.04-1.96 1.01-2.92-.93-.58-1.88-1.1-2.88-1.53-1.33 2.4-3.02 4.7-4.65 6.92l-.5.66c-.2.29-.43.59-.65.88a26.49 26.49 0 0 0-2.52 3.8 18.38 18.38 0 0 0-1.53 4.53c-.12.52-.18 1.05-.25 1.61 1.63-.2 3.36-.5 4.94-1.16a9.4 9.4 0 0 0 3.19-2.1 8.83 8.83 0 0 1-4.4.88c-.77-.07-1.2-.22-1.2-.32.01-.12.45-.16 1.19-.27.73-.12 1.8-.31 2.98-.84a7.32 7.32 0 0 0 3.15-2.6l.11-.43a8.58 8.58 0 0 1-2.94 1.49c-1.26.35-2.29.44-3 .47-.7.03-1.1-.02-1.1-.11 0-.1.36-.24 1.01-.43.67-.2 1.64-.44 2.75-.89a7.94 7.94 0 0 0 3.32-2.36c.13-.16.25-.34.37-.52.07-.42.15-.83.24-1.24-.85.47-1.67.78-2.35 1-1.5.45-2.47.53-2.53.35-.06-.2.8-.64 2.13-1.33 1.01-.51 2.3-1.2 3.46-2.22.2-.45.42-.9.65-1.32Zm5.14 5.72c.32-1.31.17-2.6-.4-3.53-.59-.93-1.73-1.5-2.66-1.3l-.08.2c0 .06-.01.13-.03.18l-.01.02a29 29 0 0 0-.43 1.14c-.34.97-.65 1.97-1.01 2.93l-.06.34c-.16.98-.32 1.98-.63 2.97.19.18.33.43.34.7a.3.3 0 0 0 .15.13c.15.08.39.11.7.1a4.12 4.12 0 0 0 2.62-1.19 5.5 5.5 0 0 0 1.5-2.7Zm4.45 49.93c1.13-4.91 2.3-9.97 2.12-14.97-1.04.02-2.16-.11-3.16-.36a5.3 5.3 0 0 1-3.58-2.78c-.7-1.49-.55-3.38.44-5.16.57-1.05 1.32-1.91 2.05-2.76.24-.28.48-.55.7-.84a13.4 13.4 0 0 0 2.56-4.45 7.93 7.93 0 0 0-.53-6.32c-.25-.56-.52-1.13-.72-1.75a5.1 5.1 0 0 1 .12-3.85 9.43 9.43 0 0 1-2.58-.98 4.85 4.85 0 0 1-1.69-1.62c-.06.05-.1.12-.16.18a6.37 6.37 0 0 1-4.03 1.8h-.26c-.6 0-1.1-.1-1.56-.34a2.71 2.71 0 0 1-.6-.45 10.93 10.93 0 0 1-4.91 3.8 21.83 21.83 0 0 1-6.17 1.4c-.1.37-.22.73-.4 1.11-.6 1.35-1.46 2.56-2.21 3.62-3.97 5.6-7.65 10.56-12.5 14.45-1.2.96-2.47 1.84-3.7 2.7-1.02.72-2.08 1.46-3.07 2.22-.87.67-1.5 1.84-1.94 3.57-.1.36-.16.72-.24 1.08-.08.99-.3 2.15-.67 3.4l-.1.6c-.1.71-.2 1.45-.23 2.2.04.42.06.9.03 1.41.02.19.03.37.06.54.12.73.41 1.78 1.15 2.62.35.4 1.17.51 1.96.62l.96.14a37.5 37.5 0 0 1 8.16 2.42c4.1 1.85 7.17 4.76 8.6 8.16.13.3.24.6.36.92.34.9.66 1.76 1.24 2.3.78.74 2.1.94 3.28 1.12a178.66 178.66 0 0 1 20 4.3c-1.5-6.12-.57-12.16.6-17.35.2-.9.4-1.8.62-2.7Zm8.8-39.6c.73-3.1.97-6.36.68-9.51a8.9 8.9 0 0 0-.71-3.1c-.34-.69-1-1.37-1.65-2.03-.36-.36-.72-.74-1.05-1.14-2.25-2.66-3.9-5.72-5.52-8.7a111.1 111.1 0 0 0-1.85-3.35c-1.78-3.07-4.65-7.4-8.94-9.4a5.98 5.98 0 0 0-3.3-.68c-.63.17-1.26.5-1.83 1-.69.59-1.2 1.32-1.74 2.11l-.52.72c-.48.68-1.07 1.28-1.64 1.87-.31.33-.62.65-.9.97a112.5 112.5 0 0 0-15.13 21.5c-.13.27-.3.5-.45.72a99.4 99.4 0 0 1-.85 1.77c-1.92 3.87-3.78 6.86-4.14 6.68-.32-.15.58-2.64 2.08-5.81-.9.57-1.84 1.05-2.74 1.5l-.7.36a44.9 44.9 0 0 0-7.26 4.7 20.18 20.18 0 0 0-4.43 4.52 9.5 9.5 0 0 0-1.72 5.7c.15 2.5 1.64 5.04 4.1 7 2.26 1.8 5 2.95 7.67 4.05l1.72-1.22c1.2-.83 2.44-1.7 3.59-2.62 4.63-3.7 8.22-8.53 12.08-14 .73-1.03 1.49-2.1 2.01-3.25.17-.37.28-.77.37-1.16 0-.18.03-.34.1-.48l.15-1.09c.07-.58.14-1.19.27-1.82.46-2.03 1-3.64 1.72-5.05.76-1.5 1.76-2.83 2.72-4.12l.65-.86.49-.67a56.96 56.96 0 0 0 4.94-7.5c.26-.5.84-.73 1.37-.52a25.83 25.83 0 0 1 11.08 8.39c.12-.13.24-.24.35-.33.5-.41.91-.52 1.05-.37.27.32-.54 1.44-1.13 2.96-.13.31-.24.62-.34.92a6.13 6.13 0 0 0 1.88 4.58c.29.32.58.64.84 1a4.6 4.6 0 0 1 1.04 3.56c0 .1-.03.24-.04.35l.12-.04c.8-.4 1.33-1.37 1.23-2.26-.04-.42.15-.81.5-1.04-.1-.16-.21-.3-.33-.41-.34-.4-.68-.58-.68-.78 0-.2.51-.42 1.25-.1.75.29 1.44 1.17 1.87 2.04.04.06.06.13.1.18a6.07 6.07 0 0 1 1.45 3.08l.08.78.03.4Zm4.05 22.78c-.02-.32-.03-.64-.07-.93a151.53 151.53 0 0 0-4.42-18.77 2.92 2.92 0 0 1-1.53-1.8c-.18-.52-.21-1.05-.25-1.51-.02-.22-.03-.42-.07-.63a3.1 3.1 0 0 0-.3-1 4.36 4.36 0 0 1-1.97 1.93c-.71.35-1.42.4-2.01.18.1.26.23.52.36.8.25.55.51 1.12.72 1.74.6 1.87.57 4.05-.1 6.16a16 16 0 0 1-2.93 5.17l-.76.89c-.68.78-1.33 1.53-1.79 2.38-.63 1.15-.77 2.33-.38 3.18a3.16 3.16 0 0 0 2.15 1.57c.81.22 1.73.31 2.6.3h.03c1.53-.33 2.67-1.02 2.97-.72.13.14 0 .54-.46 1-.13.13-.3.27-.48.4.03.09.07.17.07.26l.01.14c2.9.21 5.8-.03 8.61-.74Zm5.23 47.24c.19-2.28.17-4.68.07-7.4-.03-.56-.12-1.12-.22-1.7-.13-.73-.26-1.46-.26-2.28-.01-1.64-.09-3.38-.23-5.15-.44-5.6-1.47-11.26-2.46-16.72-.55-2.98-1.1-6.04-1.57-9.08-.16-1.04-.3-2.1-.43-3.14a29.32 29.32 0 0 1-8.67.72c.07 5.03-1.07 10-2.19 14.81l-.61 2.7c-.8 3.6-1.5 7.61-1.27 11.72.27 1.74.6 4 1.4 6.33.27.73.57 1.43.9 2.07.57.43 1.24.87 1.98 1.3 3.65 2.15 6.83 3.58 6.7 3.97-.11.36-3.14-.34-6.62-2.23.18.2.36.39.53.55 1.24 1.21 2.23 1.71 2.14 1.92-.04.17-1.26.01-2.81-1.12-1.06-.74-2.19-2-3.1-3.57l-.16-.15c-.42-.4-.76-.84-1.04-1.27-.02 0-.05 0-.08-.02a176.41 176.41 0 0 0-21.64-4.76c-1.37-.21-3.07-.49-4.33-1.62-.02.36-.04.7-.1.98-.15.95-.44 1.5-.62 1.47-.43-.07-.36-2.28-.97-4.85l-.17-.72a15.18 15.18 0 0 0-.36-.92c-1.22-2.9-3.88-5.39-7.49-7.02a34.52 34.52 0 0 0-8.5-2.38c-.65-.1-1.4-.18-2.1-.47a22.04 22.04 0 0 1-9.88 10.68c-3.92 2.18-8.59 3.44-13.89 3.81l.12.2c2.26 3.37 5.3 6.1 9.16 9.2.17.13.27.3.35.49a6.28 6.28 0 0 1 4.84 1.06c1.25.88 2.19 2.03 3.1 3.15.34.44.7.86 1.07 1.28.22.25.47.5.74.75.62.24 1.28.45 2 .6 2.12.43 4.15.37 5.63.36 1.48-.02 2.44 0 2.46.21.03.2-.85.53-2.36.83-.39.08-.85.14-1.34.2 2.08.63 4.12 1.33 6.12 2.02 5.3 1.84 10.31 3.57 15.64 3.84 2.93.15 5.89-.2 8.15-.5l3.32-.5a73.7 73.7 0 0 1 9.46-1.04c1.18-.03 2.37 0 3.52.03a102.82 102.82 0 0 0 8.95-.13c2.16-.12 3.82-.42 4.94-1.45.2-.19.4-.41.55-.63a4.5 4.5 0 0 1-1.72.62c-1.11.15-1.75-.2-1.73-.37.03-.22.64-.29 1.46-.64a4.92 4.92 0 0 0 2.44-2.15 4.9 4.9 0 0 0 .37-3.23c-.18-.87-.47-1.42-.31-1.56.12-.11.64.14 1.12.9Zm2.51-7.5c.15 4.09.14 7.5-.49 10.92-.32 1.75-.9 3.94-2.55 5.46-1.74 1.59-4.13 1.94-6.44 2.09a103.63 103.63 0 0 1-9.17.12c-1.11-.02-2.27-.06-3.4-.03-3.04.07-6.13.55-9.14 1.01-1.12.18-2.24.35-3.36.5-2.37.33-5.47.68-8.6.53-5.68-.28-11.09-2.16-16.32-3.97-2.03-.71-4.1-1.43-6.2-2.05A31.76 31.76 0 0 1 68 257c.35.88.76 1.9.85 3.01a4.3 4.3 0 0 1-1.24 3.54c-.72.65-1.7 1-2.8 1-.77 0-1.6-.16-2.48-.48l-.92-.37c-.94-.38-1.8-.75-2.64-.68a8.65 8.65 0 0 1-2.56-.4c-.32-.08-.63-.17-.9-.21-1.1-.2-2.2-.42-3.28-.63a573.89 573.89 0 0 1-19.4-4.17c-4.12-.97-8.32-2-12.84-3.13l-.56-.14c-3.7-.94-7.5-1.9-10.96-3.79a25.43 25.43 0 0 1-3.88-2.62 11.98 11.98 0 0 1-3.46-4.15c-.78-1.72-.88-3.6-.88-5.22 0-1.5.11-3.07.96-4.42 1.15-1.81 3.18-2.58 5-3.15 9.62-3.03 19.59-4.63 29.66-4.79a77.09 77.09 0 0 1-2.13-7.87c-1.17-5.22-2.22-10.83-1.98-16.45.18-4.2 1.2-10.2 4.98-15.2-1.5-3.23-.27-7.65 1.65-10.62 1.91-2.92 4.68-4.9 7.84-7a32.24 32.24 0 0 1 7.05-3.62c1.8-.65 3.53-.98 5.3-1.22.04-.04.06-.09.1-.11.66-.85 1.07-1.36 1.53-2.46.41-1.02.72-2.05 1.04-3.14.26-.88.53-1.79.87-2.7a43.12 43.12 0 0 1 2.7-5.9l.16-.2a4.84 4.84 0 0 1 0-3.41 5.29 5.29 0 0 1 2.9-2.74 44.21 44.21 0 0 1 11.68-12.37c1.4-1 2.95-1.93 4.77-2.12 2.36-.24 4.51.94 5.93 1.83a26.85 26.85 0 0 1 5.95 5.12c.23-.1.45-.18.69-.24 1.6-.43 3.41-.17 5.4.76 4.9 2.3 8.07 7.04 10.02 10.4.64 1.13 1.27 2.26 1.89 3.41 1.62 3 3.14 5.82 5.23 8.3.28.33.6.67.93 1 .74.75 1.58 1.6 2.09 2.64.64 1.32.85 2.74.96 3.97.36 4.03-.06 8.2-1.21 12.08a153.4 153.4 0 0 1 4.48 19.1c.08.56.1 1.07.12 1.58.02.36.03.72.07 1.09.14 1.07.29 2.15.45 3.21.46 3 1.02 6.05 1.55 9 1.01 5.53 2.05 11.24 2.5 16.97.15 1.84.22 3.64.23 5.34.01.61.12 1.22.23 1.86.1.65.22 1.3.25 2.04Zm-21.78-68.89a7.82 7.82 0 0 1-1.3-2.9c-.1.28-.2.56-.33.83.08.14.14.28.17.43.07.56.52 1.12 1.18 1.51.08.06.18.1.28.13"/>
  </g>
  <path fill="#4d4d4d" d="M129.44 238.63c.1 2.72.12 5.12-.07 7.4-.48-.76-1-1.01-1.12-.9-.16.14.13.69.3 1.56.2.86.22 2.11-.36 3.23a4.92 4.92 0 0 1-2.44 2.15c-.82.35-1.43.42-1.46.64-.02.17.62.52 1.73.37a4.5 4.5 0 0 0 1.72-.62c-.16.22-.35.44-.55.63-1.12 1.03-2.78 1.33-4.94 1.46a102.82 102.82 0 0 1-8.95.12c-1.15-.03-2.34-.06-3.52-.03-3.2.07-6.39.56-9.46 1.04l-3.32.5c-2.26.3-5.22.65-8.15.5-5.33-.27-10.33-2-15.64-3.84-2-.7-4.04-1.4-6.12-2.02.5-.06.95-.12 1.34-.2 1.5-.3 2.39-.64 2.36-.83-.02-.21-.98-.23-2.46-.21-1.48.01-3.51.07-5.63-.36-.72-.15-1.38-.36-2-.6-.27-.25-.52-.5-.74-.75-.37-.42-.73-.84-1.07-1.28-.91-1.12-1.85-2.27-3.1-3.15a6.28 6.28 0 0 0-4.84-1.06c-.08-.2-.18-.36-.35-.5-3.87-3.08-6.9-5.82-9.16-9.18l-.12-.2c5.3-.38 9.97-1.64 13.9-3.82A22.04 22.04 0 0 0 65.1 218c.69.29 1.44.38 2.1.47a34.52 34.52 0 0 1 8.5 2.38c3.6 1.63 6.26 4.13 7.48 7.03a15.18 15.18 0 0 1 .36.91l.17.72c.6 2.57.54 4.78.97 4.85.18.02.47-.52.62-1.47.06-.28.08-.62.1-.98 1.26 1.13 2.96 1.4 4.33 1.62a176.41 176.41 0 0 1 21.64 4.76l.08.02c.28.43.62.86 1.04 1.27l.16.15a11.37 11.37 0 0 0 3.1 3.57c1.55 1.13 2.77 1.29 2.81 1.12.09-.2-.9-.7-2.14-1.92-.17-.16-.35-.36-.53-.55 3.48 1.9 6.5 2.59 6.61 2.23.14-.39-3.04-1.82-6.69-3.98a18.6 18.6 0 0 1-1.98-1.3c-.33-.63-.63-1.33-.9-2.06-.8-2.32-1.13-4.6-1.4-6.33-.23-4.1.46-8.13 1.27-11.72l.61-2.7c1.12-4.81 2.26-9.78 2.2-14.8.66.03 1.31.07 1.96.07 2.26 0 4.5-.28 6.7-.8.13 1.05.27 2.1.43 3.14.46 3.04 1.02 6.1 1.57 9.08 1 5.46 2.02 11.11 2.46 16.72.14 1.77.22 3.5.23 5.15 0 .82.13 1.55.26 2.28.1.58.2 1.14.22 1.7"/>
  <path fill="#f7b39f" d="M117.25 194.55c.27-1.05 1.02-2.05.72-2.36-.14-.14-.49-.09-.93.22-.44.3-.99.88-1.22 1.79-.23.93.08 1.81.52 2.26.44.45.87.44.97.28.1-.18-.02-.46-.09-.83-.06-.36-.1-.86.03-1.36Zm6.82 3.3c.04.3.06.62.07.94-2.82.7-5.71.95-8.6.74 0-.05 0-.1-.02-.14 0-.1-.04-.17-.07-.26.19-.13.35-.27.48-.4.46-.46.59-.86.46-1-.3-.3-1.44.39-2.97.72h-.04c-.86.01-1.78-.08-2.6-.3-.99-.25-1.8-.83-2.14-1.57-.39-.85-.25-2.03.38-3.18.46-.85 1.11-1.6 1.8-2.38l.75-.9a16 16 0 0 0 2.93-5.16 10.14 10.14 0 0 0-.62-7.9l-.36-.8c.59.22 1.3.17 2.01-.18a4.36 4.36 0 0 0 1.97-1.94c.16.33.26.66.3 1.01.04.2.05.41.07.63.04.46.07.99.25 1.52.23.74.77 1.45 1.53 1.79a147.31 147.31 0 0 1 4.42 18.77"/>
  <path fill="#f7b39f" d="M120.77 166.5c.29 3.15.05 6.4-.69 9.5l-.03-.4-.08-.77a6.07 6.07 0 0 0-1.45-3.08c-.04-.05-.06-.12-.1-.18-.43-.87-1.12-1.75-1.87-2.04-.74-.32-1.25-.1-1.25.1s.34.38.68.78c.12.1.22.25.33.4-.35.24-.54.63-.5 1.05.1.9-.43 1.86-1.23 2.26l-.12.04.04-.35c.03-.18.04-.36.05-.54.06-1-.31-2-1.09-3.02-.26-.36-.55-.68-.84-1-.28-.32-.55-.62-.78-.92a6.13 6.13 0 0 1-1.1-3.66c.1-.3.21-.6.34-.92.6-1.52 1.4-2.64 1.13-2.96-.14-.15-.55-.04-1.05.37-.11.1-.23.2-.35.33a25.83 25.83 0 0 0-11.08-8.4c-.53-.2-1.11.03-1.37.53a56.96 56.96 0 0 1-4.94 7.5l-.49.67-.65.86c-.96 1.3-1.96 2.62-2.72 4.12a21.16 21.16 0 0 0-2 6.87l-.14 1.09a6.28 6.28 0 0 1-.46 1.64c-.53 1.15-1.29 2.22-2.02 3.25-3.86 5.47-7.45 10.3-12.08 14a65.42 65.42 0 0 1-3.6 2.62l-1.7 1.22c-2.67-1.1-5.42-2.25-7.68-4.04-2.46-1.97-3.95-4.52-4.1-7a9.5 9.5 0 0 1 1.72-5.7c1-1.5 2.37-2.9 4.43-4.52a44.9 44.9 0 0 1 7.27-4.7l.7-.37c.9-.45 1.84-.93 2.73-1.5-1.5 3.17-2.4 5.66-2.08 5.81.36.18 2.22-2.81 4.14-6.68l.85-1.77c.16-.23.32-.45.45-.71a112.5 112.5 0 0 1 16.03-22.48c.57-.59 1.16-1.19 1.64-1.87l.52-.72c.54-.8 1.05-1.52 1.74-2.1.57-.5 1.2-.84 1.82-1.01.95-.13 2.05.08 3.31.67 4.29 2.01 7.16 6.34 8.94 9.41.64 1.1 1.25 2.23 1.85 3.36 1.61 2.97 3.27 6.03 5.52 8.7.33.4.7.77 1.05 1.13a8.91 8.91 0 0 1 1.65 2.02c.47.96.63 2.1.71 3.11"/>
  <path d="M117.97 192.2c.3.3-.45 1.3-.72 2.35-.13.5-.1 1-.03 1.36.07.37.2.65.1.83-.1.16-.54.17-.98-.28a2.48 2.48 0 0 1-.52-2.26c.23-.9.78-1.5 1.22-1.79.44-.3.79-.36.93-.22"/>
  <path fill="#f7b39f" d="M110.1 169.64c-.1-.04-.2-.07-.28-.13-.66-.39-1.1-.95-1.18-1.5a1.2 1.2 0 0 0-.17-.44c.12-.27.23-.55.32-.83a7.82 7.82 0 0 0 1.3 2.9"/>
  <path fill="#534741" d="M106.44 162.15c.57.94.72 2.22.4 3.53a5.5 5.5 0 0 1-1.5 2.7 4.12 4.12 0 0 1-2.62 1.17c-.31.02-.55-.01-.7-.1a.3.3 0 0 1-.14-.11 1.09 1.09 0 0 0-.35-.72c.31-.98.47-1.98.63-2.96l.06-.34c.36-.96.67-1.96 1.01-2.93a29 29 0 0 1 .43-1.14v-.02a.78.78 0 0 0 .04-.19l.08-.2c.93-.19 2.07.38 2.66 1.31M102.71 157.04c.03.96-.48 1.92-1 2.92-.24.43-.46.87-.66 1.32a15.98 15.98 0 0 1-3.46 2.22c-1.33.69-2.19 1.13-2.13 1.33.06.18 1.02.1 2.53-.36.68-.21 1.5-.52 2.35-.99-.09.41-.17.82-.24 1.24-.12.18-.24.36-.37.52a7.94 7.94 0 0 1-3.32 2.36c-1.1.45-2.08.7-2.75.89-.65.19-1.02.33-1.02.43.02.1.4.14 1.11.11.71-.03 1.74-.12 3-.47.9-.26 1.96-.73 2.94-1.5l-.11.44a7.32 7.32 0 0 1-3.15 2.6c-1.18.53-2.25.72-2.98.84-.74.11-1.18.15-1.18.27 0 .1.42.25 1.2.31a8.83 8.83 0 0 0 4.39-.88 9.4 9.4 0 0 1-3.2 2.1c-1.57.66-3.3.97-4.93 1.17.07-.56.13-1.09.25-1.61.4-1.86.9-3.3 1.53-4.53a26.49 26.49 0 0 1 2.52-3.8l.65-.88.5-.66c1.63-2.22 3.32-4.52 4.65-6.92 1 .43 1.95.95 2.88 1.53"/>
  <path fill="#f7b39f" d="M93.9 137.36c-.54.46-1 .96-1.43 1.43a8.76 8.76 0 0 0-7.64-.4l-.84.4c-.6.31-1.17.59-1.68.6a3.81 3.81 0 0 1-1.84-.6l-.29-.16a8.3 8.3 0 0 0-2.45-.99 3.8 3.8 0 0 0-2.6.42 40.97 40.97 0 0 1 5.64-4.86c1.12-.8 2.33-1.56 3.58-1.68 1.23-.12 2.63.34 4.4 1.47a24.34 24.34 0 0 1 5.14 4.37M91.74 141.2c.06.05.14.05.2.08-.36.43-.75.87-1.17 1.3a113.75 113.75 0 0 0-16.31 22.86c-.4.75-.97 1.35-1.63 1.9h-.07c-8.9 1.16-16.8 5.48-24.8 10.2-.5.29-1 .6-1.5.7-.43.1-.84.02-1.06-.18a.86.86 0 0 1-.31-.67c0-.78.77-1.89 1.53-2.59a30.28 30.28 0 0 1 16.21-7.67c.59-.09 1.09-.61 1.72-1.35l.23-.26c.4-.41.79-.85 1.17-1.3 1.21-1 2.2-2.29 2.76-3.74.13-.34.29-.7.45-1.05a9.3 9.3 0 0 0 1.03-3.4c.33.34.65.65.99.93a7.22 7.22 0 0 0 2.82 1.46c.9.22 1.66.17 2.15.04s.72-.3.7-.4c-.05-.22-1.1-.03-2.53-.63-.71-.3-1.5-.8-2.25-1.5-.76-.7-1.52-1.61-2.23-2.63-.26-.36-.48-.74-.7-1.1l-.21-.51a.84.84 0 0 0-.27-.32 16.88 16.88 0 0 1-1.57-3.69c-.04-.14-.05-.29-.07-.42.02 0 .02-.03.02-.03.3-.74 1.12-1.2 1.69-1.44.12-.02.23-.07.34-.13.46-.17.96-.29 1.47-.43.6-.15 1.21-.32 1.83-.54 1.17-.44 2.7-1.3 3.34-2.93.1-.25.17-.51.24-.77.07-.27.14-.53.23-.66.16-.24.64-.37 1.11-.28.55.11 1.13.41 1.73.75l.3.16c.93.49 1.93.93 3.09.89a6.45 6.45 0 0 0 2.68-.86c.23-.11.46-.24.71-.34 1.9-.81 4.22-.6 5.94.55M73.94 139.34c-.17.36-.27.7-.35 1.02-.05.16-.09.32-.16.5-.33.83-1.34 1.31-1.91 1.53l-.09.03a44.04 44.04 0 0 1 2.5-3.08"/>
  <path fill="#f7b39f" d="M67.75 155.72c.04.82-.4 1.77-.82 2.69-.18.4-.36.8-.52 1.2a7.06 7.06 0 0 1-4.7 4.11c.18-.32.36-.68.54-1.11.48-1.13.81-2.29 1.14-3.4.25-.88.5-1.7.8-2.52.56-1.5 1.21-2.97 1.94-4.39l.12.18c.71 1.06 1.44 2.15 1.5 3.24M66.4 260.21c.05.65-.12 1.24-.46 1.55-.75.7-2.31.19-2.77.01l-.84-.33a8.41 8.41 0 0 0-3.72-.86 6.73 6.73 0 0 1-1.8-.32c-.37-.1-.73-.2-1.06-.26a421.84 421.84 0 0 1-15.05-3.09 12.6 12.6 0 0 1 4.88-9.98v-.01c.38.12.8.19 1.22.2l-.04.07c-.43.66-.2 1.16-.02 1.16.2.01.4-.26.77-.43.38-.2.81-.26 1.36-.05 1.1.43 1.79 1.79 2.18 1.6.18-.05.26-.46.08-1.06a2.9 2.9 0 0 0-1.72-1.91c-.07-.04-.16-.05-.24-.08.35-.28.63-.61.87-.9.14-.19.3-.36.46-.52.98-.92 2.83-.6 4.04.24 1 .7 1.8 1.69 2.65 2.73.38.46.75.92 1.15 1.37a8.86 8.86 0 0 0 4.16 2.82 13.72 13.72 0 0 1 2.62 4.3c0 .2 0 .37-.02.57-.05.63-.14 1.34-.4 1.67a.67.67 0 0 1-.43.27c-.18.04-.42 0-.66-.08a3.46 3.46 0 0 1-1.23-.83c-.73-.69-1.4-1.03-1.5-.85-.11.17.16.66.7 1.54.15.21.33.46.56.71.24.25.56.5.93.68.38.18.84.32 1.38.28a2.07 2.07 0 0 0 1.7-1.32c.13.38.21.75.24 1.11"/>
  <path fill="#83828a" d="M65.93 198.68c-1.18 1-2.01 2.5-2.54 4.62-.4 1.58-.71 3.2-.97 4.8-6.26-.75-11.15-2-15.3-3.91-3.66-1.7-8.62-4.83-11.7-10.16a20.73 20.73 0 0 1 3.44-6.34 9.74 9.74 0 0 0 1.84 4.56 11.1 11.1 0 0 0 4.49 3.72c1.37.62 2.31.65 2.36.48.08-.22-.73-.6-1.87-1.39a15.05 15.05 0 0 1-3.79-3.67 10.54 10.54 0 0 1-2.02-4.74c-.14-1.31.17-2.14-.03-2.24-.12-.1-.66.46-.9 1.6-1.36-2.26-.4-6 1.29-8.59 1.66-2.54 4.21-4.36 7.14-6.31a30.32 30.32 0 0 1 6.53-3.35c.5-.19 1-.33 1.5-.46a32.04 32.04 0 0 0-9.97 6.22c-.35.31-2.09 2.02-2.09 3.87 0 .76.3 1.44.88 1.96.48.44 1.15.68 1.87.68.24 0 .48-.02.74-.08a6.98 6.98 0 0 0 2.02-.9c6.36-3.76 12.68-7.26 19.41-9.04a45.99 45.99 0 0 0-7.42 4.81 21.61 21.61 0 0 0-4.79 4.92 11.27 11.27 0 0 0-2.01 6.78c.17 2.99 1.9 6 4.75 8.27 2.16 1.72 4.66 2.85 7.14 3.89"/>
  <path fill="#f7b39f" d="M63.28 216.35c.12.18.26.35.4.53-1.6 4.13-4.95 7.85-9.31 10.27-3.91 2.16-8.64 3.39-14.07 3.65-2.25-4.12-3.44-8.82-4.37-13-1.14-5.06-2.16-10.47-1.93-15.8.06-1.67.29-3.64.78-5.71 3.31 4.89 8.05 7.84 11.61 9.49 4.32 2 9.35 3.29 15.78 4.06-.03.27-.05.54-.06.82-1.66 3.5-3.74 5.78-3.45 6.05.13.15.95-.36 2-1.47.5-.5 1.02-1.14 1.54-1.9v.08c.07.4.16.77.28 1.14-.53 2.01-1.25 3.49-.95 3.71.16.1.63-.22 1.17-.96.2-.26.39-.6.58-.96"/>
  <path fill="#4d4d4d" d="M48.82 243.6c-.17.17-.33.36-.46.52-.23.27-.42.51-.62.64-.76.5-2.08-.08-3-.56l-2.7-1.42c-3.43-1.82-6.97-3.71-10.66-5.2-4.67-1.88-8.9-2.85-12.9-2.97a16.5 16.5 0 0 0-1.47-.32c-2.06-.35-4-.24-5.33.14-1.35.36-2.06.87-1.98 1.05.07.2.87.05 2.14-.03.95-.06 2.17-.04 3.52.1l-.25.06c-3.03.74-5.03 2.36-4.82 2.7.21.36 2.39-.6 5.18-1.26.37-.1.73-.18 1.09-.26l.08.02c4.23-.19 8.8.73 13.93 2.8 3.57 1.45 7.07 3.3 10.45 5.1.9.48 1.8.96 2.7 1.42l.05.03a14.46 14.46 0 0 0-4.81 10.38 618.56 618.56 0 0 1-18.57-4.43l-.57-.15c-3.55-.89-7.21-1.81-10.38-3.55a22.96 22.96 0 0 1-3.51-2.37 9.3 9.3 0 0 1-2.78-3.26c-.59-1.3-.67-2.86-.67-4.21 0-1.13.07-2.28.6-3.1.7-1.13 2.19-1.67 3.65-2.13a101.47 101.47 0 0 1 29.85-4.7c.77 1.87 1.69 3.7 2.83 5.42.15.22.3.44.47.66-.95-.4-1.83-.7-2.6-.92-1.82-.48-2.99-.51-3.02-.33-.1.4 3.7 1.4 7.87 4.03 1.9 2.1 4.12 4.03 6.69 6.1"/>
  <g clip-path="url(#b)">
    <path d="m349.21 237.77-5.19.7c-.77.12-1.65.24-2.56.07a3.6 3.6 0 0 1-2.01-1.07c-1.81.49-3.66 1-4.95 2.12.22 1.18.57 2.24 1.36 2.63.49.24 1.15.21 1.85.19.32-.02.63-.03.95-.03 2.43.07 4.5 1.26 6.5 2.42l.73.42a42.3 42.3 0 0 0 10.83 4.23 59.52 59.52 0 0 0-7.5-11.68Zm22.4 24.55c-6.76.34-13.75.68-20.6-.55-1.6-.3-3.2-.67-4.74-1.03-2.6-.62-5.28-1.25-7.95-1.43-4.7-.35-9.51.69-14.15 1.67-.69.16-1.36.3-2.03.43-5.27 1.1-11.21 2.34-16.67 1.16a3.96 3.96 0 0 1-1.92 1.29c-.9.28-1.84.28-2.66.3l-14.85.03h-.54c-1.35 0-2.73-.03-4.1-.27a10.35 10.35 0 0 1-4.35-1.56c-3.33.13-6.4.05-9.66-.03l-.45-.01c-13.02.5-26.48 1.04-39.7-.5-.97-.1-1.96-.23-2.94-.36-5.17-.66-10.49-1.33-15.58-.26-5.07 1.07-10.62 1.19-15.44 1.21-5.47.03-10.91-.36-16.28-1.17-1.25-.19-2.48-.4-3.73-.6a90.1 90.1 0 0 0-8.4-1.15c-3.7-.27-7.6.28-11.04 1.56a3.14 3.14 0 0 1-1.25 2.06c-.73.56-1.66.84-2.78.8-1.94-.04-4.17-1.22-4.67-3.4-.2-.82-.08-1.61 0-2.31.08-.56.15-1.07.06-1.51a7.17 7.17 0 0 0-.28-.87c-.33-.83-.72-1.87-.21-2.97.34-.75.98-1.17 1.5-1.5.25-.17.5-.31.64-.48.21-.24.34-.67.47-1.1a5 5 0 0 1 .96-1.97c1.15-1.27 2.93-1.22 4.16-1.09 1.3.15 2.59.4 3.83.63.7.14 1.41.28 2.13.4l.62.1c4.97.74 10.28.63 14.9-.31 5.02-1.03 10.4-1.97 15.97-1.97h.08c1.6 0 3.22.08 4.79.16 2.14.1 4.36.2 6.52.12 2.94-.13 5.9-.63 8.78-1.12l23.45-3.95 1.18-.16c.85-.11 1.72-.22 2.44-.48 1.3-.5 2.64-.87 3.94-1.23 2.84-.8 5.52-1.54 7.74-3.35a11.74 11.74 0 0 0 4.11-7.64c.36-2.96-.34-5.8-1.06-8.8l-.37-1.52c-1.36-5.81-.96-11.61-.59-17.21.37-5.42.75-11.02-.5-16.5-.5-2.17-1.4-4.32-2.27-6.4-1.1-2.65-2.23-5.4-2.66-8.34-.44-3.08-.09-6.14.26-9.1.1-.93.23-1.9.38-2.88.7-4.95 1.4-10.06-.72-14.3a18.2 18.2 0 0 0-1.38-2.25c-.95-1.42-1.93-2.9-2.27-4.7a7.2 7.2 0 0 1 1.32-5.63c.27-.35.56-.67.84-.97.42-.46.83-.9 1.05-1.37.35-.78.29-1.77.21-2.83l-.01-.23c-.15-2.36-.09-4.73.2-7.07.17-1.51.46-3.1 1.4-4.44a4.95 4.95 0 0 1 4.3-2.12 3.2 3.2 0 0 1 1.86-.73c1-.08 1.91.28 2.54.96.86.96.96 2.22 1.03 3.14.49 5.8 1.12 11.66 1.91 17.42 1 7.26 2.26 14.62 3.5 21.74.6 3.46 1.2 6.93 1.76 10.4.57 3.4 1.15 6.91 1.86 10.34.14.66.24 1.32.35 1.96l.22 1.41c.11.56.33 1.13.58 1.75.22.54.44 1.1.6 1.68.52 1.99.8 4 1.06 5.98l.24 1.72c.47 3.23 1.82 6.37 3.12 9.39l.99 2.3c1.67 4.08 3.57 8.69 4.2 13.56l.13 1.24c.1.98.2 1.92.42 2.8.2.8.57 1.85 1.3 2.61.68-.2 1.33-.4 1.97-.65 6.2-2.32 12.75-3.72 19.07-5.06a119 119 0 0 1 10.12-1.87c2.31-.28 4.72-.38 6.74.9 1.49.93 2.35 2.36 3.2 3.75l.55.87c1.34 2.07 3.5 3.67 5.6 5 1.49-4.12 4.72-7.36 7.4-10.02 2.16-2.16 4.85-4.86 8.32-5.93a12 12 0 0 1 10.45 1.84 12.93 12.93 0 0 1 4.35 5.8l.13-.03a3.98 3.98 0 0 1 3.3 1.17 6.74 6.74 0 0 1 1.59 2.65c.96 2.64.9 5.33-.2 7.37a6.22 6.22 0 0 1-5.18 3.3 461.12 461.12 0 0 1 16.98 24.33c.69 1.04 1.61 2.45 1.63 4.12a4.38 4.38 0 0 1-1.25 3.2c-.53.48-1.18.7-1.86.66"/>
    <path d="M359.35 225.67c-.73 1.35-2.46 2.43-4.01 2.04a14.64 14.64 0 0 0 1.78-10c.4.01.87.2 1.24.58.43.4.75.97 1.05 1.8.75 2.05.73 4.09-.06 5.58ZM341.5 211.4c-.8 0-1.61.1-2.4.29 1-.72 2.08-1.31 3.23-1.66a9.71 9.71 0 0 1 8.48 1.5 10.97 10.97 0 0 1 4.3 7.65c.28 2.83-.54 5.8-2.24 8.25a7.85 7.85 0 0 1-5.09 2.79l-.51.05c-.45.03-.93.08-1.41.2.12-.2.26-.38.4-.55.4-.48.97-1.15.8-1.98-.05-.37-.25-.66-.41-.9-.12-.18-.24-.35-.24-.47 0-.2.24-.47.45-.7a8.84 8.84 0 0 0 2.16-4.2c.39-1.8.07-3.48-.88-4.56a5.93 5.93 0 0 0-3.68-1.71c-.13 0-.37-.03-.44-.07-.09-.13-.04-.69-.01-.98l.02-.5c0-.83-.23-1.47-.68-1.89-.55-.49-1.28-.56-1.85-.56Zm-5.64 30.8c-.79-.38-1.14-1.44-1.36-2.62 1.29-1.13 3.14-1.63 4.95-2.12.49.54 1.2.92 2.01 1.07.9.17 1.79.05 2.56-.06l5.2-.71a59.52 59.52 0 0 1 7.5 11.68 42.3 42.3 0 0 1-10.83-4.23l-.73-.42c-2-1.16-4.07-2.35-6.5-2.42-.32 0-.63.01-.95.03-.7.02-1.36.05-1.85-.2Zm-9.11-12.34a7 7 0 0 1 .5-2.48l1.24-3.87c1.48-3.18 4.18-5.87 6.43-8.11l1.13-1.12a9.53 9.53 0 0 1 5.4-1.7h.04c.37 0 .81.04 1.05.26.26.22.3.67.3 1.02 0 .12 0 .25-.02.4-.04.58-.1 1.29.28 1.8.32.43.86.48 1.24.53.1 0 .2.02.27.03.93.21 1.98.53 2.63 1.27 1 1.14.76 2.85.62 3.53a7.7 7.7 0 0 1-1.84 3.6c-.37.42-.84.93-.79 1.62.02.44.25.79.44 1.06.1.16.21.32.23.45.05.28-.26.67-.55 1.02-.37.43-.66.9-.94 1.37-.27.42-.52.83-.81 1.18-.36.45-.66.9-.95 1.34-.22.34-.43.68-.68 1-.23.32-.47.56-.72.79-.68.2-1.43.26-2.21.31-.14.03-.28.06-.4.12h-.74c-1.36 0-2.77 0-4.13-.16-2.44-.29-4.32-1.08-5.61-2.34a4.49 4.49 0 0 1-1.41-2.92Zm-8.7 30.1.32-.45.5-.68c1.1-1.47 2.43-2.78 3.74-4.05l.88-.89a83.94 83.94 0 0 0 7.38-8.45c.94-.9 1.77-1.99 2.42-3.2.37.7.9 1.36 1.7 1.75.94.46 1.93.42 2.8.38l.82-.02c1.92.05 3.76 1.12 5.56 2.15l.76.44a44.44 44.44 0 0 0 13.53 4.88.9.9 0 0 0 .25-.03 13.45 13.45 0 0 0 4.59 4c1.18.6 2 .75 2.07.59.17-.35-2.65-1.8-5.06-4.7-.33-.4-.64-.8-.92-1.18l-.01-.07a60.8 60.8 0 0 0-9-14.35.97.97 0 0 0-.9-.36l-5.73.79a7.7 7.7 0 0 1-1.56.11c1.07-.4 1.44-1.04 1.84-1.77.6-1.1 1.17-2.03 2.02-2.37.39-.15.87-.2 1.38-.24l.58-.05a9.87 9.87 0 0 0 5.23-2.31c5.36 7 11.25 15.4 18.01 25.67.68 1.05 1.25 2 1.26 2.92 0 .6-.22 1.26-.52 1.54-.11.1-.17.09-.22.07h-.18c-6.67.34-13.56.68-20.2-.52a78.4 78.4 0 0 1-4.6-1c-2.7-.62-5.47-1.28-8.32-1.48-5.01-.36-9.98.7-14.77 1.73l-2.01.42c-1.19.25-2.4.5-3.65.74Zm-3.75-24.06c-.29-.77-.51-1.46-.31-2.04.2-.62.88-1.05 1.62-1.46l7.56-4.3c.98-.34 1.85-.8 2.62-1.37l-.05.17c-.28.9-.62 1.92-.58 3a6.02 6.02 0 0 0 1.88 4c1.53 1.52 3.74 2.46 6.54 2.8.54.06 1.07.09 1.62.11-.81.38-1.56.86-2.22 1.48l-.52.21c-2.69 1.1-4.75 2.25-4.62 2.6.14.32 2.2-.2 4.7-1.19.05.24.1.5.17.77-.07.19-.16.37-.25.55a78.1 78.1 0 0 1-2.46 3.4 9.78 9.78 0 0 1-3.76 2.3c-3.14.98-6.67-.05-8.42-2.48-.71-.97-1.15-2.14-1.57-3.28ZM284.97 255a67.67 67.67 0 0 1 1.68-23.13h.06c3.28-.44 6.97-.93 10.2-2.1-.14.3-.27.63-.33.98a6.03 6.03 0 0 0 .31 3.26c.38 1.08.95 2 1.49 2.76.54.76 1.06 1.4 1.47 1.94.85 1.07 1.3 1.77 1.48 1.7.17-.05 0-.95-.68-2.21-.64-1.27-1.84-2.8-2.5-4.63a5.9 5.9 0 0 1-.36-2.6 4.1 4.1 0 0 1 .72-1.85c.56-.25 1.1-.52 1.64-.78 1-.5 1.92-.95 2.9-1.3 1.26-.46 3.1-.88 4.72-.27.3.1.6.05.84-.09 2.42 1 5.13 1.89 7.98 2.11 1.04.08 2.02.09 2.94.03l-4.51 2.56c-.71.4-1.79 1-2.16 2.1-.35 1.04.04 2.07.32 2.84l1.96 5.27c.45 1.21.91 2.47 1.71 3.57a8.6 8.6 0 0 0 6.97 3.34 9.31 9.31 0 0 0 3.74-.8 80.82 80.82 0 0 1-4.9 5.36l-.89.87c-1.33 1.31-2.7 2.66-3.85 4.2a17 17 0 0 0-.51.7 18.7 18.7 0 0 1-1.13 1.45c-2.98.48-6.03.74-8.9.37a.98.98 0 0 0-.47-.44c-2.68-1.09-5.56-1.15-8.34-1.21-2.05-.05-3.99-.1-5.86-.52-2.78-.62-5.3-2.05-7.74-3.48Zm-4.95 5.96c-2.27-6.21-3.33-13.25-3.3-22.16 0-3.02.11-6.13.36-9.48l.03-.45c.09-1.37.24-3.64 1.23-4.35a30.67 30.67 0 0 1 4.85-2.79c5.54-1.9 11.36-3.15 17.01-4.36 3.26-.7 6.6-1.4 9.94-1.82 1.9-.25 3.86-.34 5.28.56 1.05.66 1.76 1.8 2.5 3.03l.58.92c1.58 2.46 4.02 4.26 6.37 5.72l-2.19 1.24c-1.67.57-3.68.75-6 .58-2.2-.16-4.34-.78-6.33-1.51 1.85-.07 3.16-.11 3.2-.4.06-.33-2.02-.96-4.73-.85a7.48 7.48 0 0 0 1.88-1.63c.58-.73.75-1.3.61-1.4-.3-.23-1.73 1.37-4.04 2.34-.3.14-.6.25-.9.35-1.23-.06-2.58.17-4 .67-1.08.39-2.1.9-3.1 1.4-.64.31-1.3.64-1.97.93-3.25 1.4-7.3 1.94-10.85 2.4l-.73.1c-.04 0-.07.02-.1.03-.14-1.44-.61-2.43-.89-2.35-.37.07-.32 1.65-.42 3.55-.04.96-.11 1.84-.12 2.48a69.93 69.93 0 0 0-1.14 21.99 1 1 0 0 0 .48.75c2.58 1.52 5.5 3.23 8.74 3.97 2.06.46 4.2.51 6.25.56 1.77.04 3.45.07 5.07.36-.18.17-.43.31-.71.4-.6.19-1.3.19-2 .2l-14.84.04c-1.42 0-2.9 0-4.26-.25a8.65 8.65 0 0 1-.74-.14c-.2-.29-.57-.44-.9-.41-.05-.06-.09-.14-.12-.22Zm-13.1-.87-1.47.07c.98-9.96 3.3-19.75 6.88-29.1.94-2.45 2.09-5.12 3.95-7.16-.91 1.4-1.05 3.4-1.15 4.84l-.03.44c-.25 3.4-.38 6.55-.38 9.62-.01 8.47.93 15.3 2.94 21.37-.1-.02-.2-.05-.29-.04-3.42.14-6.57.06-9.92-.02ZM243.9 135.5a5 5 0 0 1 .92-3.88c.2-.27.44-.53.7-.8a7.5 7.5 0 0 0 1.43-1.95c.6-1.28.5-2.69.43-3.9l-.02-.24c-.15-2.21-.09-4.46.18-6.66.12-1.03.31-2.07.75-2.94.27.24.43.76.46 1.2.05.51.09.92.29.96.17.03.43-.24.65-.84.1-.3.18-.71.09-1.2-.06-.38-.27-.85-.67-1.18.1-.08.2-.14.3-.2.13.07.24.16.35.24 1.09.85 1.3 2.1 1.67 2.14.17.02.4-.35.36-1a2.91 2.91 0 0 0-.63-1.59l.14.03a2.4 2.4 0 0 1 1.47 1.19c.24.44.25.84.42.9.15.08.56-.31.5-1.14a2.42 2.42 0 0 0-1.09-1.77 1 1 0 0 1 .45-.14c.3-.01.58.08.73.24.34.37.42 1.05.48 1.83.48 5.84 1.13 11.74 1.93 17.54a472 472 0 0 0 2.18 14.04c-.24.14-.57.24-.96.32-1.23.3-2.55.64-3.91.74a6.81 6.81 0 0 1-3.64-.61 5.5 5.5 0 0 1-1.16-.81 14.83 14.83 0 0 0-1.32-4.14c-.44-.9-1-1.72-1.52-2.5-.88-1.3-1.7-2.52-1.96-3.88Zm-75.48 117.04a5.84 5.84 0 0 0-.75-2.05c2.31-.1 4.57-.35 6.7-.8 4.9-1 10.15-1.9 15.5-1.9h.09c1.55 0 3.14.07 4.68.14 2.2.1 4.47.21 6.73.12l.29-.02a4.8 4.8 0 0 0-.6.67c-.37.54-.47.96-.32 1.07.3.22 1.35-.77 2.87-1.48.5-.24.99-.41 1.42-.57 1.82-.22 3.62-.51 5.4-.81l23.45-3.95c.35-.06.71-.1 1.08-.15.98-.13 2-.25 2.94-.6 1.2-.46 2.5-.82 3.77-1.17 2.35-.66 4.76-1.35 6.96-2.68.33-.11.68-.24 1.03-.4 2.71-1.19 4.33-3.03 4.08-3.28-.13-.15-.7.12-1.56.56 1.58-2 2.63-4.47 2.93-7.06.41-3.36-.36-6.53-1.1-9.6l-.37-1.49c-1.28-5.5-.9-11.12-.53-16.56.38-5.58.78-11.35-.57-17.14-.54-2.36-1.47-4.6-2.36-6.76-1.1-2.64-2.14-5.13-2.52-7.8-.41-2.8-.07-5.71.27-8.53.1-.92.23-1.86.36-2.83.44-3.12.9-6.5.63-9.79.12.09.23.17.35.23 1.23.72 2.78.98 4.32.86 1.55-.12 2.93-.52 4.13-.88.26-.08.56-.17.85-.3l1.12 6.55c.6 3.47 1.2 6.93 1.76 10.4.57 3.42 1.15 6.96 1.88 10.44.13.6.22 1.22.31 1.83l.25 1.5c.15.75.43 1.46.7 2.15.2.5.39.97.5 1.42.5 1.86.77 3.82 1.03 5.71l.23 1.76c.52 3.51 1.93 6.78 3.28 9.93.33.76.66 1.52.97 2.28 1.63 3.94 3.46 8.4 4.05 13l.13 1.17c.1 1.02.21 2.08.47 3.12.07.28.15.54.24.8a16.97 16.97 0 0 1-.9 3.8c-1.65 2.03-2.78 4.53-3.74 7.03a114.21 114.21 0 0 0-6.94 28.98.78.78 0 0 0-.17.63l.03.12c-12 .47-24.28.8-36.27-.58l-2.93-.37c-5.34-.69-10.86-1.39-16.3-.23-4.86 1.04-10.3 1.14-15 1.16-5.34.03-10.69-.35-15.93-1.14l-3.7-.6c-1.8-.3-3.64-.6-5.49-.85.15-.3.23-.6.28-.87.27-1.49.23-2.92 0-4.2Zm-21.44 2.48c-.2-.5-.39-1-.27-1.24.08-.17.37-.36.68-.56.36-.23.76-.49 1.1-.87.54-.61.75-1.31.95-1.94.14-.45.27-.88.49-1.13.34-.37 1.07-.5 2.25-.36a49 49 0 0 1 3.66.6c.72.14 1.45.28 2.18.4l.65.11c2.55.38 5.17.55 7.77.5.87 1.2 1.06 3.63.68 5.95-.06.3-.14.54-.25.66-.08.11-.21.18-.46.22l-.26.02c-.37-.03-.74-.08-1.12-.1-4.04-.3-8.28.32-12.04 1.74a1.4 1.4 0 0 0-.1-1.06c.32-.11.65-.3.94-.6.33-.31.56-.84.58-1.32 0-1.02-.46-1.7-.94-2.23a3.7 3.7 0 0 0-1.56-.99c-1.02-.3-1.65-.03-1.64.13 0 .2.57.32 1.26.74a4 4 0 0 1 1 .92c.31.4.56.94.53 1.36 0 .39-.29.69-.7.87-.41.18-.86.17-1.27.12-.82-.14-1.41-.31-1.5-.12-.07.15.3.6 1.24 1.02.17.08.37.14.6.2.08.03.17.08.25.14.17.14.18.26.14.36-.03.14-.2.35-.36.39-.22.08-.53.05-.83-.05-.3-.09-.6-.25-.86-.4-.54-.29-.97-.41-1.07-.26-.1.15.06.49.47 1 .21.25.5.55.96.8.32.15.73.3 1.2.27.01.05.01.1 0 .14-.04.05-.04.03-.04.03-.02 0-.09.04-.2.06-.45.1-.99-.09-1.35-.3-.36-.2-.58-.44-.77-.38-.17.03-.26.46.08 1.02.18.3.51.6.95.8a1 1 0 0 1-.14.01c-1.08-.02-2.33-.66-2.57-1.67-.09-.43-.03-.97.05-1.54.09-.67.2-1.43.03-2.23-.1-.44-.25-.86-.4-1.23Zm-2.29-2.17c-.5 1.1-.11 2.14.22 2.97.12.32.22.61.28.87.1.44.02.95-.06 1.5-.08.7-.2 1.5 0 2.33.5 2.17 2.73 3.35 4.67 3.39a4.24 4.24 0 0 0 2.78-.8c.7-.5 1.13-1.27 1.25-2.06a26.7 26.7 0 0 1 11.04-1.56c2.8.2 5.65.68 8.4 1.14 1.25.21 2.48.42 3.73.61 5.37.81 10.8 1.2 16.28 1.17 4.82-.02 10.38-.14 15.44-1.21 5.1-1.07 10.41-.4 15.58.26l2.94.36c13.22 1.54 26.68 1 39.7.5h.45c3.25.09 6.33.17 9.66.04 1.3.93 2.91 1.32 4.34 1.56 1.38.24 2.76.27 4.1.27h.55l14.85-.04c.82 0 1.75 0 2.66-.3.8-.25 1.47-.7 1.92-1.28 5.45 1.18 11.4-.05 16.67-1.16.67-.13 1.34-.27 2.03-.43 4.64-.98 9.44-2.02 14.15-1.67 2.67.18 5.35.81 7.95 1.43 1.54.36 3.14.73 4.73 1.03 6.86 1.23 13.85.89 20.62.55.68.04 1.33-.18 1.86-.65a4.38 4.38 0 0 0 1.25-3.2c-.02-1.68-.94-3.1-1.63-4.13A461.12 461.12 0 0 0 356.12 230a6.22 6.22 0 0 0 5.18-3.3c1.1-2.04 1.16-4.73.2-7.37-.42-1.17-.93-2-1.58-2.65a4 4 0 0 0-3.31-1.17l-.13.04c-.9-2.32-2.4-4.38-4.35-5.81a12 12 0 0 0-10.45-1.84c-3.47 1.07-6.16 3.77-8.33 5.93-2.67 2.66-5.9 5.9-7.39 10.01-2.1-1.32-4.26-2.92-5.6-5l-.55-.86c-.85-1.39-1.71-2.82-3.2-3.75-2.02-1.28-4.43-1.18-6.74-.9a119 119 0 0 0-10.12 1.87c-6.32 1.34-12.87 2.74-19.07 5.06-.64.24-1.29.46-1.98.65a5.93 5.93 0 0 1-1.3-2.6c-.22-.9-.31-1.83-.41-2.81l-.14-1.24c-.62-4.87-2.52-9.48-4.2-13.55-.31-.77-.65-1.54-.98-2.31-1.3-3.02-2.65-6.16-3.12-9.39l-.24-1.72a48.15 48.15 0 0 0-1.06-5.98c-.16-.58-.38-1.14-.6-1.68a9.56 9.56 0 0 1-.8-3.16c-.1-.64-.2-1.3-.35-1.96-.71-3.43-1.3-6.94-1.86-10.34-.57-3.47-1.16-6.94-1.76-10.4a613.74 613.74 0 0 1-3.5-21.74 333.29 333.29 0 0 1-1.9-17.42c-.08-.92-.18-2.18-1.04-3.14a3.07 3.07 0 0 0-2.54-.96 3.2 3.2 0 0 0-1.86.73 4.95 4.95 0 0 0-4.3 2.12c-.94 1.34-1.23 2.93-1.4 4.44a39.15 39.15 0 0 0-.2 7.06l.01.24c.08 1.06.14 2.05-.2 2.83-.23.47-.64.91-1.06 1.37a7.2 7.2 0 0 0-2.16 6.6c.34 1.8 1.32 3.28 2.27 4.7.52.77 1.02 1.5 1.38 2.26 2.12 4.23 1.4 9.34.72 14.3a68.8 68.8 0 0 0-.38 2.88c-.35 2.95-.7 6.01-.26 9.09.43 2.95 1.56 5.69 2.66 8.34.86 2.08 1.76 4.23 2.26 6.4 1.26 5.48.88 11.08.51 16.5-.37 5.6-.77 11.4.6 17.21.12.5.23 1.01.36 1.51.72 3.01 1.42 5.85 1.06 8.81-.35 3-1.87 5.79-4.11 7.64-2.22 1.8-4.9 2.56-7.74 3.35-1.3.36-2.64.74-3.94 1.23-.72.26-1.6.37-2.44.48l-1.18.16-23.45 3.95c-2.87.49-5.84 1-8.78 1.12-2.16.09-4.38-.02-6.52-.12-1.57-.08-3.19-.16-4.8-.16h-.07c-5.57 0-10.95.94-15.95 1.97a44.12 44.12 0 0 1-14.92.3l-.62-.1c-.72-.11-1.42-.25-2.13-.39a51.01 51.01 0 0 0-3.83-.63c-1.23-.13-3-.18-4.16 1.1a5 5 0 0 0-.96 1.95 3.1 3.1 0 0 1-.47 1.1c-.15.18-.4.32-.65.5-.51.32-1.15.74-1.5 1.5"/>
  </g>
  <path fill="#f7b39f" d="M146.7 253.78c-.1.25.08.74.28 1.24.14.37.3.8.4 1.23.15.8.05 1.56-.04 2.23-.08.57-.14 1.1-.05 1.54.24 1.01 1.49 1.65 2.57 1.67h.14c-.44-.21-.77-.52-.95-.8-.34-.57-.25-1-.08-1.03.19-.06.41.18.77.38.36.21.9.4 1.36.3.1-.02.17-.06.19-.06 0 0 0 .02.03-.03a.28.28 0 0 0 .01-.14c-.47.03-.88-.12-1.2-.27a3.29 3.29 0 0 1-.96-.8c-.4-.51-.57-.85-.47-1 .1-.15.53-.03 1.07.27.27.14.56.3.86.4.3.09.61.12.83.04.16-.04.33-.25.36-.4.04-.09.03-.2-.14-.35-.08-.06-.17-.11-.25-.15a3.32 3.32 0 0 1-.6-.19c-.94-.41-1.3-.87-1.24-1.02.09-.2.68-.02 1.5.12.41.05.86.06 1.26-.12.42-.18.71-.48.71-.87.03-.42-.22-.97-.52-1.36a4 4 0 0 0-1.01-.92c-.7-.42-1.26-.54-1.26-.74 0-.16.62-.43 1.64-.13.5.16 1.07.48 1.56 1 .48.52.94 1.2.94 2.22a2.02 2.02 0 0 1-.58 1.33c-.29.3-.62.48-.95.6.1.19.17.42.17.64 0 .14-.02.27-.06.4 3.76-1.4 8-2.03 12.04-1.73.38.02.75.07 1.12.1l.26-.02c.25-.04.38-.11.46-.22.1-.12.19-.36.25-.66.38-2.32.2-4.74-.68-5.95-2.6.05-5.22-.12-7.77-.5l-.65-.1-2.18-.41a49 49 0 0 0-3.66-.6c-1.18-.13-1.91-.01-2.25.36-.22.25-.35.68-.49 1.13-.2.63-.4 1.33-.95 1.94-.34.38-.74.64-1.1.87-.3.2-.6.39-.68.56"/>
  <path fill="#83828a" d="M259.9 183.33c-.1-.77-.04-1.27.13-1.3.18-.05.45.36.77 1.04.32.67.68 1.59 1.26 2.42.56.81 1.3 1.37 1.9 1.65.57.3 1.03.36 1.06.55.04.17-.45.48-1.33.36a4.15 4.15 0 0 1-2.73-1.8 6.7 6.7 0 0 1-1.07-2.92Zm-54.91 73.75c-.88-.5-1.28-1.01-1.18-1.16.2-.32 2.26.85 4.98.72 2.71-.1 4.66-1.46 4.9-1.16.11.14-.24.68-1.08 1.26a7.34 7.34 0 0 1-7.63.34Zm-37.32-6.6c.37.6.63 1.32.75 2.06.24 1.27.28 2.7.01 4.19-.05.27-.13.57-.28.87 1.85.25 3.68.55 5.5.85l3.69.6c5.24.79 10.6 1.17 15.93 1.14 4.7-.02 10.14-.12 15-1.16 5.44-1.16 10.96-.46 16.3.23l2.93.37c12 1.39 24.26 1.05 36.27.58l-.03-.12a.78.78 0 0 1 .17-.63 114.21 114.21 0 0 1 6.94-28.98c.96-2.5 2.1-5 3.73-7.03l.28-.83c.34-1.08.51-2.1.63-2.97-.1-.26-.17-.53-.24-.8-.26-1.04-.37-2.1-.47-3.12l-.13-1.18c-.59-4.59-2.42-9.05-4.05-12.99-.31-.76-.64-1.52-.97-2.28-1.35-3.15-2.76-6.42-3.28-9.93l-.23-1.76c-.26-1.9-.53-3.85-1.02-5.7-.12-.46-.3-.93-.51-1.43-.27-.69-.55-1.4-.7-2.16l-.25-1.5c-.09-.6-.18-1.21-.31-1.82-.73-3.48-1.31-7.02-1.88-10.44-.56-3.47-1.16-6.93-1.76-10.4l-1.12-6.55c-.3.13-.59.22-.85.3-1.2.36-2.58.76-4.13.88a7.55 7.55 0 0 1-4.32-.86 3.77 3.77 0 0 1-.35-.23c.28 3.28-.19 6.67-.63 9.8-.13.96-.27 1.9-.36 2.82-.34 2.82-.68 5.73-.27 8.52.38 2.68 1.42 5.17 2.52 7.81.89 2.17 1.82 4.4 2.36 6.76 1.35 5.79.95 11.56.57 17.14-.36 5.44-.75 11.07.53 16.56l.36 1.49c.75 3.07 1.52 6.24 1.11 9.6a14.16 14.16 0 0 1-2.93 7.06c.86-.44 1.43-.71 1.56-.56.25.25-1.37 2.09-4.08 3.28-.35.16-.7.29-1.03.4-2.2 1.33-4.61 2.02-6.96 2.68-1.26.35-2.56.7-3.77 1.16-.95.36-1.96.48-2.94.61l-1.08.15-23.46 3.95c-1.77.3-3.57.59-5.4.81-.42.16-.91.33-1.41.57-1.52.7-2.56 1.7-2.87 1.48-.15-.1-.05-.53.32-1.07.15-.21.36-.45.6-.67l-.3.02c-2.25.1-4.52-.01-6.72-.12-1.54-.07-3.13-.14-4.68-.14h-.09c-5.35 0-10.6.9-15.5 1.9-2.13.45-4.39.7-6.7.8"/>
  <path d="M203.81 255.92c-.1.15.3.65 1.18 1.16a7.34 7.34 0 0 0 7.62-.34c.84-.58 1.2-1.12 1.08-1.26-.24-.3-2.19 1.05-4.9 1.16-2.72.13-4.77-1.04-4.98-.72"/>
  <path fill="#f7b39f" d="M246.96 138.2c-.04-.95.32-1.78.7-2.24.38-.47.75-.6.89-.5.27.25-.32 1.34-.25 2.68.04 1.34.71 2.38.46 2.65-.12.12-.5.01-.92-.43a3.35 3.35 0 0 1-.88-2.16Zm-2.14-6.58a5 5 0 0 0-.92 3.88c.26 1.36 1.08 2.58 1.96 3.88.52.78 1.08 1.6 1.52 2.5a14.83 14.83 0 0 1 1.32 4.14c.34.3.73.59 1.16.8 1 .53 2.28.72 3.64.62 1.36-.1 2.68-.44 3.9-.74.4-.08.73-.18.97-.32a472 472 0 0 1-2.18-14.04c-.8-5.8-1.45-11.7-1.93-17.54-.06-.78-.14-1.46-.48-1.83-.15-.16-.44-.25-.73-.24a1 1 0 0 0-.45.14c.2.14.38.3.54.5.34.42.51.88.54 1.27.07.83-.34 1.22-.5 1.15-.16-.07-.17-.47-.41-.92a2.4 2.4 0 0 0-1.47-1.18l-.14-.03c.41.54.61 1.13.63 1.6.04.64-.2 1.01-.36 1-.37-.05-.58-1.3-1.67-2.15-.11-.08-.22-.17-.35-.24-.1.06-.2.12-.3.2.4.33.6.8.67 1.19.09.48 0 .89-.1 1.19-.21.6-.47.87-.64.84-.2-.04-.24-.45-.29-.96-.03-.44-.19-.96-.46-1.2a9.08 9.08 0 0 0-.75 2.94c-.27 2.2-.33 4.45-.18 6.66l.02.23c.07 1.22.17 2.63-.43 3.91a7.5 7.5 0 0 1-1.44 1.95c-.25.27-.5.53-.7.8"/>
  <path d="M247.66 135.96a3.36 3.36 0 0 0-.7 2.24c.04.95.45 1.73.88 2.16.41.44.8.55.92.43.25-.27-.42-1.31-.46-2.65-.07-1.34.52-2.43.25-2.67-.14-.12-.51.02-.89.5M260.03 182.03c-.17.03-.24.53-.14 1.3.1.76.34 1.86 1.07 2.93a4.15 4.15 0 0 0 2.73 1.79c.88.12 1.37-.2 1.33-.36-.03-.19-.49-.26-1.07-.55a5.09 5.09 0 0 1-1.89-1.65c-.58-.83-.94-1.75-1.26-2.42-.32-.68-.59-1.09-.77-1.04"/>
  <path fill="#f7b39f" d="m265.45 260.16 1.47-.07.53.02c3.35.08 6.5.16 9.92.02.1 0 .2.02.3.04-2.02-6.06-2.96-12.9-2.95-21.37 0-3.07.13-6.23.38-9.62l.03-.44c.1-1.43.24-3.44 1.15-4.84-1.86 2.04-3.01 4.7-3.95 7.15a112.39 112.39 0 0 0-6.88 29.1"/>
  <path fill="#f7b39f" d="M276.71 238.8c-.02 8.91 1.04 15.95 3.3 22.16.04.08.08.16.13.22.33-.03.7.12.9.41.25.06.5.1.74.14 1.37.25 2.84.25 4.26.25l14.84-.04c.7-.01 1.4-.01 2-.2.28-.09.53-.23.71-.4-1.62-.29-3.3-.32-5.07-.36-2.06-.05-4.19-.1-6.25-.56-3.23-.74-6.16-2.45-8.74-3.97a1 1 0 0 1-.48-.75 69.93 69.93 0 0 1 1.14-21.99c0-.64.08-1.52.12-2.48.1-1.9.05-3.48.42-3.55.28-.08.75.91.89 2.35l.1-.04.73-.09c3.56-.46 7.6-1 10.85-2.4.66-.29 1.33-.62 1.97-.93 1-.5 2.02-1.01 3.1-1.4 1.42-.5 2.77-.73 4-.67.3-.1.6-.21.9-.35 2.31-.97 3.73-2.57 4.04-2.34.14.1-.03.67-.6 1.4a7.48 7.48 0 0 1-1.89 1.63c2.71-.1 4.8.52 4.73.85-.04.29-1.35.33-3.2.4 1.99.73 4.13 1.35 6.32 1.51 2.33.17 4.34-.01 6.01-.58l2.2-1.24c-2.36-1.46-4.8-3.26-6.38-5.72-.2-.3-.4-.61-.58-.92-.74-1.22-1.45-2.37-2.5-3.03-1.42-.9-3.37-.8-5.28-.56-3.33.41-6.68 1.13-9.94 1.82-5.65 1.2-11.47 2.46-17.01 4.36-1.68.77-3.4 1.75-4.85 2.8-1 .7-1.14 2.97-1.23 4.34l-.03.45c-.25 3.35-.37 6.46-.37 9.48"/>
  <path fill="#ff7bac" d="M302.28 243.93c-.78-1.23-1.46-1.9-1.32-2.06.1-.14 1.01.29 2.08 1.5.53.61 1.08 1.4 1.52 2.38.43 1 .72 2.14.9 3.31.18 1.17.27 2.28.44 3.24.16.97.36 1.81.6 2.5.48 1.36 1.1 2.07.95 2.22-.1.13-1.02-.4-1.8-1.84a10 10 0 0 1-.96-2.64c-.24-1.02-.38-2.13-.55-3.27-.18-1.13-.4-2.17-.72-3.05-.34-.9-.75-1.66-1.14-2.29Zm-15.63-12.06a67.67 67.67 0 0 0-1.68 23.13c2.44 1.43 4.96 2.86 7.74 3.48 1.87.42 3.8.47 5.86.52 2.78.06 5.66.12 8.34 1.21.21.1.37.25.47.44 2.87.37 5.92.11 8.9-.37.4-.44.75-.93 1.13-1.45a17 17 0 0 1 .51-.7c1.15-1.54 2.52-2.89 3.85-4.2a80.82 80.82 0 0 0 5.8-6.24 9.31 9.31 0 0 1-3.75.8 8.6 8.6 0 0 1-6.97-3.33c-.8-1.1-1.26-2.36-1.71-3.57l-1.96-5.27c-.28-.77-.67-1.8-.32-2.83.37-1.1 1.45-1.7 2.16-2.12l4.5-2.55c-.91.06-1.9.05-2.93-.03a26.81 26.81 0 0 1-7.98-2.11.96.96 0 0 1-.84.09c-1.61-.61-3.46-.19-4.72.26-.98.36-1.9.82-2.9 1.31-.53.26-1.08.53-1.64.78a4.1 4.1 0 0 0-.72 1.84c-.1.78.04 1.69.36 2.61.66 1.84 1.86 3.36 2.5 4.63.68 1.26.85 2.16.68 2.21-.17.07-.63-.63-1.48-1.7-.41-.54-.93-1.18-1.48-1.94-.53-.76-1.1-1.68-1.48-2.76a6.03 6.03 0 0 1-.3-3.26c.05-.35.18-.68.32-.98-3.23 1.17-6.92 1.66-10.2 2.1h-.06"/>
  <path d="M300.96 241.87c-.14.16.54.83 1.32 2.06.39.63.8 1.39 1.14 2.29.32.88.54 1.92.72 3.05.17 1.14.31 2.25.55 3.27a10 10 0 0 0 .95 2.64c.79 1.44 1.72 1.97 1.81 1.84.14-.14-.47-.86-.95-2.23-.24-.68-.44-1.52-.6-2.49-.17-.96-.26-2.07-.44-3.24a13.37 13.37 0 0 0-.9-3.3 9.56 9.56 0 0 0-1.52-2.39c-1.07-1.21-1.99-1.64-2.08-1.5"/>
  <path fill="#f7b39f" d="M313.99 233.87c-.2.58.02 1.27.3 2.04l1.96 5.27c.42 1.14.86 2.31 1.57 3.28 1.75 2.43 5.28 3.46 8.42 2.48a9.78 9.78 0 0 0 3.76-2.3 78.1 78.1 0 0 0 2.46-3.4c.09-.18.18-.36.25-.55-.07-.27-.12-.53-.17-.77-2.5.98-4.56 1.5-4.7 1.2-.13-.36 1.93-1.51 4.62-2.6l.52-.22c.66-.62 1.4-1.1 2.22-1.48-.55-.02-1.08-.05-1.62-.11-2.8-.34-5-1.28-6.54-2.8a6.02 6.02 0 0 1-1.88-4c-.04-1.08.3-2.1.58-3l.05-.17a9.93 9.93 0 0 1-2.62 1.37l-7.56 4.3c-.74.41-1.42.84-1.62 1.46M331.64 255.6c-1.1-.06-1.78-.3-1.75-.48.03-.39 2.65-.36 5.55-1.49 2.94-1.08 4.87-2.84 5.16-2.57.13.12-.2.74-1 1.53a10.98 10.98 0 0 1-7.96 3.01Zm-13.26 3.92-.34.46a206.68 206.68 0 0 0 5.66-1.16c4.8-1.02 9.76-2.09 14.77-1.73 2.85.2 5.62.86 8.32 1.48 1.5.36 3.07.73 4.6 1 6.64 1.2 13.53.86 20.2.52h.18c.05.02.1.03.22-.07.3-.28.53-.93.52-1.54 0-.93-.58-1.87-1.26-2.92a446.17 446.17 0 0 0-18.01-25.67 9.87 9.87 0 0 1-5.23 2.3l-.58.06c-.51.04-1 .09-1.38.24-.85.34-1.42 1.28-2.02 2.37-.4.73-.77 1.37-1.84 1.77a7.7 7.7 0 0 0 1.56-.11l5.74-.79c.34-.04.68.09.9.36a60.8 60.8 0 0 1 8.99 14.35l.01.07c.28.39.59.78.92 1.17 2.4 2.91 5.23 4.36 5.06 4.7-.07.17-.89.01-2.07-.58a13.45 13.45 0 0 1-4.59-4 .9.9 0 0 1-.25.03c-.06 0-.12 0-.19-.02a44.44 44.44 0 0 1-13.34-4.86l-.76-.44c-1.8-1.03-3.64-2.1-5.56-2.15l-.81.02c-.88.04-1.87.08-2.82-.38a3.88 3.88 0 0 1-1.7-1.75 13.12 13.12 0 0 1-2.4 3.2 83.94 83.94 0 0 1-7.39 8.45l-.88.89c-1.3 1.27-2.65 2.58-3.74 4.05l-.5.68"/>
  <path fill="#f7b39f" d="M330.28 225.01c-.08-.67.33-1.38.92-1.8.61-.46 1.35-.64 1.98-.81 2.47-.67 4-2.3 4.3-2.05.14.1-.07.69-.72 1.4a7 7 0 0 1-3.22 1.93c-.7.2-1.27.31-1.65.54-.39.22-.62.53-.67.78a1 1 0 0 0 .14.71c.09.18.21.27.2.37 0 .08-.19.18-.5.06-.32-.1-.72-.5-.78-1.13Zm-3.02 2.38a7 7 0 0 0-.51 2.48c.03 1 .54 2.06 1.4 2.92 1.3 1.26 3.18 2.05 5.62 2.34 1.36.16 2.77.16 4.13.16h.74c.12-.06.26-.1.4-.12.78-.05 1.53-.1 2.21-.31.25-.23.49-.47.72-.78.25-.33.46-.67.68-1.01.29-.44.59-.9.95-1.34.3-.35.54-.76.8-1.18.3-.47.58-.94.95-1.37.29-.35.6-.74.55-1.02-.02-.13-.12-.29-.23-.45a2.03 2.03 0 0 1-.44-1.06c-.05-.69.42-1.2.79-1.61a7.7 7.7 0 0 0 1.84-3.61c.14-.68.38-2.39-.62-3.53-.65-.74-1.7-1.06-2.63-1.27a2.15 2.15 0 0 0-.27-.03c-.38-.05-.92-.1-1.24-.52-.39-.52-.32-1.23-.28-1.8l.02-.41c0-.35-.04-.8-.3-1.02-.24-.22-.68-.26-1.05-.26h-.04c-1.93 0-3.82.61-5.4 1.7l-1.13 1.12c-2.25 2.24-4.95 4.93-6.43 8.11l-1.23 3.87"/>
  <path d="M329.89 255.12c-.03.17.64.42 1.75.48 1.1.06 2.68-.11 4.28-.72 1.6-.6 2.9-1.52 3.68-2.29.8-.79 1.13-1.4 1-1.53-.29-.27-2.22 1.49-5.16 2.57-2.9 1.13-5.52 1.1-5.55 1.5M331.2 223.2c-.6.43-1 1.14-.92 1.81.06.64.46 1.02.77 1.13.32.12.5.02.5-.06.02-.1-.1-.19-.2-.37a1 1 0 0 1-.13-.7c.05-.26.28-.57.67-.8.38-.22.95-.34 1.65-.53a7 7 0 0 0 3.22-1.93c.65-.71.86-1.3.71-1.4-.29-.24-1.82 1.38-4.29 2.05-.63.17-1.37.35-1.98.8"/>
  <path fill="#534741" d="M339.1 211.7c.79-.2 1.6-.28 2.4-.29.57 0 1.3.07 1.85.56.45.42.68 1.06.68 1.9 0 .14 0 .31-.02.5-.03.28-.08.84.01.97.07.04.31.06.44.07.15.02.29.03.41.06 1.06.23 2.37.64 3.27 1.66.95 1.07 1.27 2.75.88 4.55a8.84 8.84 0 0 1-2.16 4.2c-.21.23-.46.5-.45.7 0 .12.12.29.24.47.16.24.36.53.42.9.16.83-.4 1.5-.81 1.98-.14.17-.28.36-.4.55.48-.12.96-.17 1.41-.2l.51-.05a7.85 7.85 0 0 0 5.1-2.8 12.47 12.47 0 0 0 2.23-8.24 10.97 10.97 0 0 0-4.3-7.65 9.71 9.71 0 0 0-8.48-1.5c-1.15.35-2.22.94-3.23 1.66M355.34 227.7c1.55.4 3.29-.68 4-2.03.8-1.49.82-3.53.07-5.57-.3-.84-.62-1.4-1.05-1.81a1.84 1.84 0 0 0-1.24-.57 14.64 14.64 0 0 1-1.79 9.99"/>
</svg>
