<svg xmlns="http://www.w3.org/2000/svg" width="500" viewBox="0 0 375 375" height="500" version="1.0">
  <defs>
    <clipPath id="a">
      <path d="M166.05 87H216v49h-49.95Zm0 0"/>
    </clipPath>
    <clipPath id="b">
      <path d="M196 125h33v44.7h-33Zm0 0"/>
    </clipPath>
    <clipPath id="c">
      <path d="M221 80.23h26.94V112H221Zm0 0"/>
    </clipPath>
  </defs>
  <path d="M153.98 246.9c.57-6.57-1.86-11.54-5.14-17.18a113.56 113.56 0 0 0-13.8-19.04c-5.52-6.07-11.65-9.74-14.49-17.93-.81-2.36-1.63-4.37-.89-6.84.66-2.21 2.35-3.6 3.82-5.27a23.41 23.41 0 0 0 3.75-5.58c3.4.84 4.92 3.87 8.93 1.14 3.15-2.14 4.72-6.17 6-9.6.69-1.83 1.45-3.74 1.97-5.63.65-2.4.19-4.24.19-6.66.03-6.16 2.86-11.49 1.76-17.8-.7-4.05-2.35-6.31-6.37-7.22-5.51-1.23-7.79-2.1-8.65-7.84-.43-2.83-.2-5.68-.44-8.52-.2-2.37-.87-4.5-1.6-6.77-.63-1.95-2.14-3.25-2.77-4.9-.4-1.03.43-2.16-.42-3.46a3.1 3.1 0 0 0-1.96-1.4c-2.38-7.37-21.28-5.68-21 3.47-.12.14-.23.3-.33.44-1.2 1.1-1.7 2.8-.84 4.06-.51.92-1.08 1.81-1.4 2.85-.78 2.6-.23 5.3-1.11 7.91-.83 2.49-2.68 3.82-3.75 6.12-.65 1.4-.72 2.95-.74 4.46-3.42 1.44-6.72 6-7.5 9.27-1.4 5.78.2 13.36.8 19.19.4 3.83 2.8 6.99.2 10.85-1.5 2.25-5.67 4-7.79 5.75-4.93 4.08-6.67 10.53-11.07 14.9-2.16 2.13-4.7 3.17-6.63 5.71-1.84 2.41-3.25 5.17-4.95 7.69-4.36 6.43-7.34 12.7-10.5 19.75-3.13 6.98-9.26 11.84-14.93 16.72-4.63 3.99-7.7 7.36-9.92 12.57a.73.73 0 0 0-.05.07C17.01 261.2.27 271.76.03 286.82c-.08 5.3 5.22 4.61 9.22 4.47 4.05-.15 9.71-.08 11.17-4.29 3.85-.76 4.04-3.68 3.14-7.24-1.38-5.45 1.18-8.2 4.81-11.59 2.34-2.16 4.99-4 7.32-6.2 2.44-2.31 4.99-4.82 7-7.53 2.67-3.57 3.33-8.25 6.62-11.32 5.47-5.1 12.12-9.17 17.76-14.17 5.7-5.08 11.21-10.28 17.02-15.22 4.49-3.8 9.75-1.3 13.52 2.22 2.54 2.39 5.21 4.22 8 6.33 6.41 4.86 13 9.02 19.71 13.44 2.47 1.62 7.17 3.64 8.74 6.27 2.08 3.5.03 8.5.6 12.3.65 4.39 3.6 7.87 4.8 12.04.55 1.95 1.15 4.12 1.18 6.12.06 2.3-.96 4.2-1.49 6.44-1.13 4.87 1.1 7.23 5.55 7.72 1.05 3.51 4.28 5 8.04 5.43 3.47.4 10.38 1.98 11.39-2.83 1.05-5.1-4.24-10.78-6.83-14.49-5.4-7.7-4.08-18.87-3.32-27.81"/>
  <path d="M17.63 285.65c0-.08.02-.13.04-.2-2.06-.1-4.06-.95-6.14-1.05-2.87-.13-5.56.47-8.17 1.63.3 3 3.36 2.23 5.9 2.14 1.94-.08 8.06.2 8.37-2.52Zm2.3-11.94c.12-.3.25-.6.4-.9-3-1.13-6.04-2.06-9.15-2.79l-.73.98c.47.22.9.5 1.28.87 1.08 1 1.03 1.55 2.66 1.29 1.91-.32 3.76 0 5.48.77l.06-.22Zm.73 9.17c.25-1.61-1.14-4.46-1.24-5.31-.08-.7-.05-1.41.07-2.1a8.47 8.47 0 0 0-3.8-.9c-.9.03-1.88.59-2.77.45-.54-.09-.8-.23-1.21-.64-.82-.8-1.28-1.57-2.23-2.05-2.41 3.34-5.48 7.9-6.04 11.97 2.16-.87 4.4-1.43 6.75-1.48 2.66-.05 8.38 2.17 10.47.06Zm.43-11.45c.8-1.24 1.78-2.4 2.8-3.47a26.35 26.35 0 0 1-7.33-4.83c-1.45 1.85-2.92 3.68-4.36 5.54 3.03.74 5.98 1.65 8.89 2.76Zm72.82-87.2a81.08 81.08 0 0 1-2.13-8.87c-.46-2.8-.64-5.61-.95-8.42-2.16 2.4-5.54 4.1-8.14 6.03a26.73 26.73 0 0 0 11.22 11.27Zm14.72-82.35c-.73.4-1.63.64-2.47.5-.24-.04-.52-.19-.79-.3-.28-.12-.55-.2-.82-.16-.83.18-.87 1.1-.33 1.6.48.44 1.2.57 1.8.62.05.02.1.04.16.04a6.98 6.98 0 0 1 2.44-2.3Zm-.77 22.95c.02-.23.1-.4.2-.56-.44-.62-.83-1.3-1.17-2.02-.1.35-.18.7-.3 1.02-.25.75-.66 1.4-1.1 1.85-.46.46-.98.69-1.34.72-.37.03-.56-.08-.56-.17 0-.2.64-.35 1.13-1.19.51-.78.86-2.22 1.04-3.82.05-.4.08-.81.1-1.2-.38-1.37-.65-2.8-.8-4.2-.06.74-.11 1.51-.2 2.34-.14 1.27-.39 2.5-.84 3.58a7.9 7.9 0 0 1-1.64 2.57c-1.28 1.25-2.46 1.37-2.49 1.21-.09-.2.84-.63 1.75-1.87.43-.61.86-1.41 1.18-2.38.32-.94.52-2.06.66-3.27.23-2.41.4-4.76 1.02-6.37.09-.25.19-.47.28-.68l.02-1.13c.04-1.43.29-2.64.68-3.68-.27-.05-.51-.12-.75-.22a21.05 21.05 0 0 0-1.78 6.11c-.2 1.61-.1 3.17-.6 4.74-1.18 3.77-4.13 5.7-4.51 9.89 1.2 0 2.39.02 3.59.11 1.68.15 6.3 1.38 6.43-1.38Zm-2 83.1c4.18-2.53 5.22-5.43 3.12-8.73-.5-.97-.98-1.93-1.49-2.89a30.3 30.3 0 0 1-1.97-5.33 67.23 67.23 0 0 1-1.47-7.58 9.84 9.84 0 0 1-.44-2.18c-.02-.32-.02-.66.02-1l-.47-3.56c-.6-4.3-1.1-8.62-1.33-12.96-.25-4.47.8-9.32.26-13.67-.01-.03 0-.05 0-.07-.78-.76-1.25-1.37-1.45-2.32-2.24-.94-3.05-2.89-2.86-4.94-.04-.7.1-1.59.63-2.41l.1-.11c1.11-2.35 3.37-4.26 5.99-4.19l.15.01c-.01-1.2-.01-2.43-.03-3.64-2.33-1.02-3.94-1.77-3.86-2.04.08-.25 1.64.01 3.86.72l-.03-2.29c-1.06-.07-2.12-.27-3.16-.35a42.44 42.44 0 0 0-4.63-.1c-.05.01-.1.06-.14.06-3.99.8-6.56 7.09-6.68 10.26-.12 3.52.52 7.1.82 10.6.3 3.3.77 6.2 1.61 9.37.46 1.7.74 3.47.26 5.2 1.16 6.19 1.32 12.59 3.03 18.75 1 3.7 2.16 7.37 2.8 11.15.45 2.65-.14 12.2 3.18 12.68.37-.2.82-.18 1.2.23.64.73 1.47 1.2 2.44 1.26.1 0 .19.04.27.06.1 0 .17-.02.28 0Zm5.43-107.06c.04-1.82-.1-3.62-.4-5.41-1.84.4-3.42 1.13-4.29 2.23.47-.1.9-.16 1.26-.2.86-.05 1.38.03 1.42.22.05.18-.42.45-1.2.75-.59.25-1.35.5-2.13.86-.03.35 0 .72.09 1.11.03.16.03.36.02.54.16.02.33.04.5.04 1.73.04 3.01-.94 3.3-.67.13.12-.02.59-.58 1.1-.12.1-.26.2-.42.3a9.77 9.77 0 0 1 2.43-.87Zm3.2 62c-1.15-1.37-2.27-2.76-3.4-4.12a62.2 62.2 0 0 0-6.73-6.73c-.02 2.59-.53 5.19-.5 7.76 0 .72.03 1.44.06 2.16 3.51.57 7.04.88 10.58.94Zm1.74 22.99c1-5.11 6.6-8.07 8.54-12.82a55.42 55.42 0 0 1-8.92-8.6c-3.98 0-7.92-.32-11.86-.92.12 2 .28 4.03.48 6.03.24 2.36.45 4.83.73 7.32 3.42-4.33 5.21-8.45 5.7-8.28.21.08.04 1.27-.66 3.04a25.74 25.74 0 0 1-3.74 6.42 7.85 7.85 0 0 0-1 1.55c.36 2.8.8 5.58 1.43 8.26 3.09.73 6.16.51 9.15-.59.01-.49.06-.97.15-1.41Zm5.43-69.74c.15-4.18 1.66-11.45-3.62-13.21-1.67-.22-4.11-.51-5.65-.1-4.48 1.23-5.35 3.78-5.37 8.1-.02 4.72.59 10.1 4.38 13.18 6.31 5.12 10.06-2.4 10.26-7.97Zm-.77-14.3a2.4 2.4 0 0 0 1.44-2.6c-.08-.02-.17-.02-.24-.06-.57.27-1.23.46-1.96.53a8.68 8.68 0 0 1-3.29-.38c-.79-.25-1.24-.52-1.21-.7.03-.2.55-.28 1.37-.28.8 0 1.88.06 3.01-.04.38-.04.74-.1 1.1-.18-.03-.08-.06-.16-.07-.25-.4-.17-.83-.34-1.3-.47-2.26-.61-4.23 0-4.38-.37-.07-.16.34-.57 1.2-.88.66-.23 1.6-.38 2.62-.27-1.1-.44-2.6-.71-4.18-.76a4.5 4.5 0 0 0-1.86 5.48c1.59-.14 3.3-.07 5.05.16.13-.02.28 0 .42.05.82.27 1.59.6 2.28 1.02Zm3.41 12.31c.04-.28.16-3.04-.35-2.92h-.12v.21c-.07 1.3-.02 2.63 0 3.94.14-.38.28-.73.44-1.05v-.01c0-.06.03-.1.03-.17Zm-4.3 37c7.49-2.17 7.09-10.9 6.97-17.86-.79.33-1.69.68-2.65 1.06-3.17 1.21-5.8 2.09-5.96 1.74-.15-.35 2.24-1.82 5.45-3.05 1.14-.44 2.22-.79 3.15-1.05v-1.89a5.66 5.66 0 0 1-.94-.47c-2.28-1.4-3.18-3.93-3.7-6.45-1.7 3.3-4.83 5.55-9.1 4.62a8.33 8.33 0 0 1-3.45-1.68c-.53 1.49-1.87 2.45-3.61 2.64h-.02c.02.94.02 1.88.02 2.83a40.44 40.44 0 0 1 4.14 1.77c-.14-1.98-.11-3.3.13-3.33.27-.05.75 1.73 1.22 4.32l.2 1.12-1.1-.47-3.03-1.29-1.54-.65.03 3.3c3.38 1.39 3.87 6.57 5.94 9.1a17.89 17.89 0 0 0 4.2 3.52c-.73-2.78-1.83-4.68-1.55-4.86.14-.12.76.43 1.49 1.54.11.17.23.4.34.6.12-.64.35-.98.46-.94.2.05.12.88.44 2.08.23.95.77 2.12 1.62 3.24l.85.5Zm9.68 5.93c.07-5.04-.2-9.42-1.58-14.4a.24.24 0 0 1-.02-.1c-.66 4.21-2.28 7.9-6.34 9.61 2.65 1.62 5.3 3.26 7.94 4.9Zm-.7-28.65c.5.1.98.16 1.48.2-1.78-2.4-2.4-5.38-2.67-8.3-.4-4.33 0-8.43-1.56-12.58v-.03c-.18-.27-1.85-3.71-2.89-6.1-.29.47-.66.87-1.13 1.2a6 6 0 0 1 1.78 3c.31 1.24.15 2.56 0 3.86 1.62-.1 1.92 1.68 1.92 3.14a9.66 9.66 0 0 1-.53 3.55c-.27.65-.57 1.14-.82 1.63-.04.64-.03 1.31.08 2a13 13 0 0 0 1.94 5c.76 1.2 1.35 1.88 1.22 2.03-.12.14-.96-.3-2-1.43-.29-.33-.6-.74-.92-1.2.64 1.92 1.77 3.54 4.1 4.03Zm12.9 21.4c.89-4.2 2.82-10.58.62-14.78-1.41-2.7-5.7-2.75-9-4.13-1.53-.14-3.1-.08-4.63-.3l-.03.97c.63-.1 1.02-.08 1.06.05.04.16-.36.44-1.06.79-.02 4.1.5 7.84 1.56 11.93.42-3.12 1.1-5.13 1.39-5.06.5.1-.17 5.12.05 11.31.11 3.82.53 7.18.71 9.23.78.82 1.4 1.64 1.82 2.35.66 1.14.86 1.95.67 2.07-.44.25-2.22-2.19-5.06-4.47a.8.8 0 0 1-.16-.07c-5.6-3.44-11.83-6.54-16.96-10.66a16.33 16.33 0 0 1-4.25-5.06c-1.57-2.88-2.34-7.7-6.8-4.31a5.2 5.2 0 0 0-1.33 1.54c.26-.1.51-.15.73-.15.52 0 .82.2.84.44 0 .48-.73.93-1.37 1.6-.3.3-.56.62-.8.87.13.54.43 1.02 1 1.38.62-.58 1.9-.33 1.85.74-.07 1.96 5.06 5.44 6.55 7.08 1.85 2.02 3.5 4.24 5.27 6.34 2.29 2.7 4.57 5.44 7.1 7.93 1.3 1.29 2.68 2.5 4.14 3.61 1.35 1.04 2.41 2.13 4.1 2.64 2.01.63 4.32.49 4.7-2.04.09-.6.18-1.04.38-1.07.18-.02.43.33.6 1.02.05.2.09.46.09.73.2-.22.43-.47.63-.76 2.2-2.9 3.36-6.83 4.42-10.28 1.16-3.77.34-7.6 1.16-11.49Zm4.09 133.78c.17.01.33.04.47.1a4.65 4.65 0 0 0-1-1.32c-.72-.65-1.93-.87-2.7-1.57a5.7 5.7 0 0 1-.54-.53c-.22 1.84.46 3.2 3.77 3.32Zm4.69-35.15c.9-7.9-2.28-13.82-6.48-20.35-3.7-5.73-7.73-11.55-12.49-16.44-4.06-4.17-8.99-7.4-11.96-12.58a31.1 31.1 0 0 1-2.24-4.8 5.85 5.85 0 0 1-2.39 2.09c-1.3.56-2.2.28-2.19.07-.02-.28.72-.47 1.57-1.14a7.14 7.14 0 0 0 2.14-3.16l-.25.16c-1.2.66-2.4.66-3.17.55-.77-.12-1.22-.33-1.23-.57-.01-.25.46-.47 1.16-.67.7-.21 1.6-.4 2.4-.85.32-.18.58-.38.79-.58-.07-.44-.14-.85-.18-1.26-2.87.98-5.85 1.2-8.82.64.25.92.52 1.81.8 2.68 1.5 4.38 6 9.53 3.77 14.5-1.23 2.72-3.73 3.82-6.54 3.3-.01 0-.01.02-.03.02a5.84 5.84 0 0 1-3.52-1.47h-.05a5.03 5.03 0 0 1-4.54-3.48c-.68-1.83-.31-4-.35-5.9a40.35 40.35 0 0 0-1.16-8.37 97.65 97.65 0 0 0-1.22-4.58 28.07 28.07 0 0 1-13.03-12.28c-.18.16-.35.32-.51.49-3.85 3.89-5.58 9.6-9.4 13.42-2.42 2.4-5.2 3.61-7.21 6.6-1.85 2.73-3.53 5.6-5.39 8.34-3.81 5.6-6.23 11.43-9 17.58-1 2.19-2.24 4.18-3.7 6 1.16-.35 1.92-.3 1.96-.1.06.25-.7.62-1.75 1.34a13.1 13.1 0 0 0-3.51 3.38A13.12 13.12 0 0 0 41 235.5c-.3 1.24-.39 2.09-.64 2.11-.23.03-.59-.8-.59-2.25 0-.74.11-1.65.4-2.59l-2.2 1.98c-5.85 5.18-10.88 8.94-13.5 16.6-.12.35-.32.61-.57.79a63.93 63.93 0 0 1-6.39 9.74 24.8 24.8 0 0 0 7.57 4.92l.46-.44c2.87-2.7 6.21-4.85 9.02-7.65a41.26 41.26 0 0 0 9.03-13.08c2.74-6.12 10.21-9.48 15.17-13.58 6.08-5.01 11.25-11.08 17.51-15.8 5.26-3.92 7.64-8.67 14.8-7.36 2.67.49 5.13 1.63 7.18 3.4 3.19 2.72 6.3 5.26 9.63 7.85 6.31 4.88 12.98 9 19.69 13.33 3.8 2.44 10.47 5.6 10.78 10.82.3 5.02-1.46 8.59.72 13.54 1.4 3.2 2.91 5.9 3.74 9.31v.03c2.87.5 5.64-.13 8.05-1.77a72.92 72.92 0 0 1-.21-16.96Zm.9 21.75c-.22-1.01-.35-2.04-.48-3.07-2.38 1.44-5.08 2-7.83 1.7.3 1.17.58 2.35.67 3.54 1.87-.7 3.9-.68 5.78.1.32-.97.93-1.73 1.85-2.27Zm8.92 15.2c-.5-1.36-1.5-2.77-2.15-3.83-1.53-2.52-3.62-4.6-5.18-7.07-.53-.85-.9-1.74-1.2-2.68-.5.44-.85 1.01-.93 1.77-.06.58-.62.98-1.17.67a6.35 6.35 0 0 0-5.97-.2c-.04.3-.08.57-.15.84-.26 1.08-.7 2.23-1.05 3.34 1.48 1.91 3.74 2.34 5.1 4.31.52.71.87 2.4 1.6 2.98.77.62 2.3.89 3.28 1.12 2.2.5 6.37 1.06 7.82-1.25Zm-3.09 3.75c1.97.07 3.46.7 3.42-1.75-2.88 2.4-8.87 1.15-11.78-.32-.57-.28-.96-.61-1.26-.94 1.26 3.3 6.78 2.9 9.62 3.01Zm-.09-14.42c2.6 3.71 7.88 9.39 6.83 14.5-1 4.8-7.92 3.23-11.39 2.82-3.76-.43-6.99-1.92-8.04-5.43-4.45-.5-6.68-2.85-5.55-7.72.53-2.24 1.55-4.13 1.5-6.44-.04-2-.64-4.17-1.19-6.12-1.2-4.17-4.15-7.65-4.8-12.04-.57-3.8 1.48-8.8-.6-12.3-1.57-2.63-6.27-4.65-8.74-6.27-6.71-4.42-13.3-8.58-19.7-13.44-2.8-2.1-5.47-3.94-8.02-6.33-3.76-3.51-9.02-6.03-13.5-2.22-5.82 4.94-11.33 10.14-17.03 15.22-5.64 5-12.3 9.06-17.76 14.17-3.3 3.07-3.95 7.75-6.62 11.32a59.45 59.45 0 0 1-7 7.53c-2.33 2.2-4.98 4.04-7.32 6.2-3.63 3.39-6.19 6.14-4.82 11.6.91 3.55.72 6.47-3.13 7.23-1.46 4.21-7.12 4.14-11.17 4.29-4 .14-9.3.83-9.22-4.47.24-15.06 16.98-25.62 22.33-38.64a.73.73 0 0 1 .05-.07c2.21-5.2 5.29-8.58 9.92-12.57 5.67-4.88 11.8-9.74 14.93-16.72 3.16-7.05 6.14-13.32 10.5-19.75 1.7-2.52 3.11-5.28 4.95-7.69 1.93-2.54 4.47-3.58 6.63-5.71 4.4-4.37 6.14-10.82 11.07-14.9 2.12-1.75 6.28-3.5 7.8-5.75 2.6-3.86.18-7.02-.21-10.85-.6-5.83-2.2-13.41-.8-19.19.78-3.28 4.08-7.83 7.5-9.27.02-1.51.1-3.07.74-4.46 1.07-2.3 2.92-3.63 3.75-6.12.88-2.61.33-5.31 1.12-7.91.31-1.04.88-1.93 1.39-2.85-.86-1.26-.36-2.95.84-4.06.1-.15.21-.3.34-.44-.3-9.15 18.6-10.84 21-3.47.77.2 1.42.58 1.95 1.4.85 1.3.01 2.43.42 3.46.63 1.65 2.14 2.95 2.77 4.9.73 2.26 1.4 4.4 1.6 6.77.24 2.84.02 5.69.44 8.52.86 5.75 3.14 6.61 8.65 7.84 4.02.9 5.68 3.17 6.37 7.21 1.1 6.32-1.73 11.65-1.76 17.8 0 2.43.46 4.28-.2 6.67-.51 1.89-1.27 3.8-1.95 5.63-1.3 3.43-2.86 7.46-6.01 9.6-4.01 2.73-5.54-.3-8.93-1.14a23.18 23.18 0 0 1-3.75 5.58c-1.47 1.67-3.16 3.06-3.82 5.27-.74 2.47.08 4.48.9 6.84 2.83 8.19 8.96 11.86 14.48 17.93 5.2 5.72 9.9 12.37 13.8 19.04 3.28 5.64 5.7 10.61 5.14 17.19-.76 8.94-2.09 20.1 3.32 27.81"/>
  <path fill="#8c6239" d="M160.81 287.39c.04 2.45-1.45 1.82-3.42 1.75-2.84-.1-8.36.3-9.62-3.01.3.33.7.66 1.26.94 2.91 1.47 8.9 2.72 11.78.32"/>
  <path fill="#f2f2f2" d="M158.33 281.56c.65 1.06 1.65 2.47 2.15 3.83-1.45 2.3-5.62 1.75-7.82 1.25-.98-.23-2.5-.5-3.28-1.12-.73-.59-1.08-2.27-1.6-2.98-1.36-1.97-3.62-2.4-5.1-4.3.36-1.12.8-2.27 1.05-3.35.07-.26.11-.55.15-.84a6.35 6.35 0 0 1 5.97.2c.55.3 1.11-.1 1.17-.67a2.6 2.6 0 0 1 .94-1.77c.28.94.66 1.83 1.2 2.68 1.55 2.46 3.64 4.55 5.17 7.07"/>
  <path fill="#eaa37d" d="M151.08 267.12c.13 1.03.26 2.06.47 3.07a4.04 4.04 0 0 0-1.85 2.26 7.81 7.81 0 0 0-5.78-.09c-.09-1.2-.37-2.37-.67-3.55 2.75.32 5.45-.25 7.83-1.69"/>
  <path fill="#333" d="M144.59 246.95c.3-.27-1.12-2.18-1.64-4.96-.57-2.75 0-5.06-.39-5.2-.17-.06-.56.46-.85 1.46-.3.99-.44 2.45-.12 4.02.3 1.57 1 2.87 1.65 3.66.66.8 1.22 1.14 1.35 1.02Zm-.41-18.86c4.2 6.53 7.37 12.45 6.48 20.35-.64 5.67-.47 11.3.2 16.96a10.78 10.78 0 0 1-8.03 1.77l-.01-.03c-.83-3.41-2.34-6.12-3.74-9.3-2.18-4.96-.42-8.53-.72-13.55-.3-5.22-6.99-8.38-10.78-10.82-6.7-4.32-13.38-8.45-19.69-13.33a244.27 244.27 0 0 1-9.63-7.86 15.12 15.12 0 0 0-7.18-3.4c-7.16-1.3-9.54 3.45-14.8 7.37-6.26 4.72-11.43 10.79-17.5 15.8-4.97 4.1-12.44 7.46-15.18 13.57a41.26 41.26 0 0 1-9.03 13.1c-2.8 2.8-6.15 4.95-9.02 7.64l-.46.44a24.8 24.8 0 0 1-7.57-4.92 63.93 63.93 0 0 0 6.39-9.74c.25-.18.45-.44.57-.78 2.62-7.67 7.65-11.43 13.5-16.6l2.2-1.99c-.29.94-.4 1.85-.4 2.59 0 1.44.36 2.28.59 2.25.25-.02.34-.87.64-2.11.29-1.25.85-2.93 1.93-4.48a13.1 13.1 0 0 1 3.51-3.38c1.06-.72 1.81-1.1 1.75-1.34-.04-.2-.8-.25-1.95.1a28.88 28.88 0 0 0 3.7-6c2.76-6.15 5.18-11.97 9-17.58 1.85-2.74 3.53-5.61 5.38-8.35 2-2.98 4.79-4.18 7.2-6.6 3.83-3.82 5.56-9.52 9.4-13.41l.52-.5a28.07 28.07 0 0 0 13.03 12.29c.44 1.52.86 3.04 1.22 4.58a40.35 40.35 0 0 1 1.16 8.38c.04 1.9-.33 4.06.35 5.9a5.03 5.03 0 0 0 4.54 3.47h.05c.98.87 2.2 1.38 3.52 1.47.02 0 .02-.02.03-.02 2.8.52 5.3-.58 6.54-3.3 2.22-4.97-2.28-10.12-3.77-14.5-.28-.87-.55-1.76-.8-2.68 2.97.56 5.95.34 8.82-.64.04.41.1.82.18 1.26-.21.2-.47.4-.79.58-.8.44-1.7.64-2.4.85-.7.2-1.17.42-1.16.67 0 .24.46.45 1.23.57.77.1 1.97.1 3.17-.55l.25-.16a7.14 7.14 0 0 1-2.14 3.16c-.85.67-1.59.86-1.57 1.14 0 .2.88.49 2.2-.07a5.85 5.85 0 0 0 2.38-2.09 31.1 31.1 0 0 0 2.24 4.8c2.97 5.18 7.9 8.4 11.96 12.58 4.76 4.89 8.8 10.7 12.49 16.44"/>
  <path fill="#8c6239" d="M146.44 283.68c-.14-.05-.3-.08-.47-.1-3.31-.1-4-1.47-3.77-3.3.16.18.34.35.53.52.78.7 2 .92 2.71 1.57.47.44.77.88 1 1.31"/>
  <path d="M142.95 242c.52 2.77 1.94 4.68 1.64 4.95-.13.12-.7-.21-1.35-1.02a8.54 8.54 0 0 1-1.65-3.66 8.54 8.54 0 0 1 .12-4.02c.29-1 .68-1.52.85-1.45.38.13-.19 2.44.4 5.2"/>
  <path fill="#eaa37d" d="M142.5 135.03c2.2 4.2.27 10.57-.63 14.77-.82 3.89 0 7.72-1.16 11.49-1.06 3.45-2.22 7.38-4.42 10.28-.2.3-.42.54-.63.76 0-.27-.04-.52-.08-.73-.18-.69-.43-1.04-.61-1.02-.2.03-.3.47-.38 1.07-.38 2.53-2.69 2.67-4.7 2.04-1.69-.51-2.75-1.6-4.1-2.64a42.72 42.72 0 0 1-4.15-3.6c-2.52-2.5-4.8-5.24-7.09-7.94-1.77-2.1-3.42-4.32-5.27-6.34-1.5-1.64-6.62-5.12-6.55-7.08.04-1.07-1.23-1.32-1.84-.74a2.14 2.14 0 0 1-1-1.38c.23-.25.49-.56.79-.86.64-.68 1.38-1.13 1.37-1.61-.02-.25-.32-.44-.84-.44-.22 0-.47.06-.73.15a5.2 5.2 0 0 1 1.32-1.54c4.47-3.4 5.24 1.43 6.81 4.31 1.1 2.02 2.45 3.6 4.25 5.06 5.13 4.12 11.37 7.22 16.96 10.66l.16.07c2.84 2.28 4.62 4.72 5.06 4.47.2-.12-.01-.93-.67-2.07-.42-.7-1.04-1.53-1.82-2.35-.18-2.05-.6-5.4-.71-9.23-.22-6.2.45-11.2-.05-11.3-.29-.08-.97 1.93-1.4 5.05a45.39 45.39 0 0 1-1.55-11.93c.7-.35 1.1-.63 1.06-.79-.04-.13-.43-.14-1.06-.05l.03-.98c1.52.23 3.1.17 4.64.31 3.29 1.38 7.58 1.43 8.99 4.13"/>
  <path fill="#7a5120" d="M130.46 128.61c-.5-.04-.98-.1-1.48-.2-2.33-.49-3.46-2.1-4.1-4.03.31.46.63.87.93 1.2 1.03 1.13 1.87 1.57 2 1.43.12-.15-.47-.83-1.23-2.04a13 13 0 0 1-1.94-5 8.84 8.84 0 0 1-.08-1.99c.25-.49.55-.98.81-1.63.46-1.11.53-2.36.54-3.55 0-1.46-.3-3.24-1.92-3.14.15-1.3.31-2.62 0-3.86a6 6 0 0 0-1.78-3c.47-.33.84-.73 1.13-1.2a113.75 113.75 0 0 0 2.89 6.13c1.55 4.15 1.15 8.25 1.56 12.57.28 2.93.89 5.91 2.67 8.31"/>
  <path fill="#b61503" d="M128.1 142.66c1.38 4.98 1.65 9.36 1.58 14.4-2.63-1.63-5.29-3.27-7.94-4.89 4.06-1.7 5.68-5.4 6.34-9.62 0 .04 0 .08.02.11"/>
  <path fill="#eaa37d" d="M126.97 133.27c.12 6.96.52 15.7-6.97 17.85l-.85-.5a9.01 9.01 0 0 1-1.62-3.24c-.32-1.2-.23-2.03-.44-2.08-.1-.04-.34.3-.46.94-.11-.2-.23-.43-.34-.6-.73-1.1-1.35-1.66-1.5-1.54-.27.18.83 2.08 1.57 4.86a17.89 17.89 0 0 1-4.21-3.52c-2.07-2.53-2.56-7.71-5.94-9.1l-.03-3.3c.5.2 1.02.43 1.54.65l3.03 1.29 1.1.47-.2-1.12c-.47-2.6-.95-4.37-1.22-4.32-.24.03-.27 1.35-.13 3.33-.64-.31-1.3-.63-2.03-.93-.72-.32-1.43-.59-2.1-.84-.01-.95-.01-1.89-.03-2.83h.02c1.74-.19 3.08-1.15 3.61-2.64.96.79 2.1 1.37 3.45 1.68 4.27.93 7.4-1.32 9.1-4.62.52 2.52 1.42 5.05 3.7 6.45.3.2.63.35.95.47-.02.6-.02 1.24 0 1.9-.94.25-2.02.6-3.16 1.04-3.2 1.23-5.6 2.7-5.45 3.05.17.35 2.79-.53 5.96-1.74.96-.38 1.86-.73 2.65-1.06M123.95 111.21c.5-.12.39 2.64.35 2.92 0 .07-.03.1-.03.17-.16.33-.3.68-.45 1.06 0-1.31-.06-2.63 0-3.94l.01-.2h.12"/>
  <path fill="#7a5120" d="M122.33 99.22a2.4 2.4 0 0 1-1.44 2.6c-.7-.42-1.46-.75-2.28-1.02a.94.94 0 0 0-.42-.05c-1.75-.23-3.46-.3-5.05-.16a4.5 4.5 0 0 1 1.86-5.48c1.59.05 3.08.32 4.18.77a5.94 5.94 0 0 0-2.62.26c-.86.3-1.27.72-1.2.88.15.37 2.12-.24 4.38.37.47.13.9.3 1.3.47.01.1.04.17.07.25-.36.07-.72.14-1.1.18-1.13.1-2.2.04-3.01.04-.82 0-1.34.08-1.37.27-.03.19.42.46 1.21.7.79.25 1.95.5 3.3.4a6.19 6.19 0 0 0 1.95-.54c.07.04.16.04.24.06"/>
  <path fill="#eaa37d" d="M114.38 117.72c.01-.2-.57-.3-1.18-.56-.29-.14-.6-.39-.63-.62-.09-.2.04-.7.16-1.37.4-2.58-.2-4.67-.56-4.6-.4.04-.47 2.02-.83 4.39-.05.3-.1.57-.13.92-.03.36-.02.78.17 1.17.4.78 1.08 1 1.57 1.07.98.06 1.42-.23 1.43-.4Zm3.66-14.81c5.28 1.76 3.77 9.03 3.62 13.21-.2 5.58-3.95 13.09-10.26 7.97-3.8-3.08-4.4-8.46-4.38-13.17.02-4.33.89-6.88 5.37-8.1 1.54-.42 3.98-.13 5.65.09M124.77 173.04c-1.93 4.75-7.55 7.7-8.54 12.82-.09.44-.14.92-.15 1.41a15.66 15.66 0 0 1-9.15.6 81.38 81.38 0 0 1-1.42-8.27c.21-.5.56-1 .99-1.55a25.74 25.74 0 0 0 3.74-6.42c.7-1.77.87-2.96.65-3.04-.48-.17-2.27 3.95-5.7 8.28-.27-2.5-.48-4.96-.72-7.32-.2-2-.36-4.02-.48-6.03 3.94.6 7.88.92 11.86.92a55.42 55.42 0 0 0 8.92 8.6"/>
  <path d="M113.2 117.16c.61.26 1.2.35 1.18.56 0 .17-.45.46-1.43.4a1.99 1.99 0 0 1-1.57-1.07c-.19-.39-.2-.81-.17-1.17.03-.35.08-.62.13-.92.36-2.37.44-4.35.83-4.4.37-.06.95 2.03.56 4.6-.12.68-.25 1.18-.16 1.38.04.23.34.48.63.62"/>
  <path fill="#b61503" d="M111.09 158.75c1.13 1.36 2.25 2.75 3.4 4.13a73.55 73.55 0 0 1-10.57-.94 66.2 66.2 0 0 1-.06-2.16c-.03-2.57.48-5.17.5-7.76a62.2 62.2 0 0 1 6.73 6.73"/>
  <path fill="#7a5120" d="M110.88 95.46c.31 1.79.45 3.59.41 5.41-.88.2-1.7.49-2.43.88.16-.1.3-.2.42-.32.56-.5.71-.97.58-1.09-.29-.27-1.57.7-3.3.67-.17 0-.34-.02-.5-.04.01-.18.01-.38-.02-.54-.1-.4-.12-.76-.1-1.11.79-.35 1.55-.61 2.13-.86.79-.3 1.26-.57 1.21-.75-.04-.2-.56-.27-1.42-.21-.35.03-.79.1-1.26.2.87-1.1 2.45-1.84 4.28-2.24"/>
  <path fill="#eaa37d" d="M108.98 199.2c2.1 3.3 1.06 6.2-3.11 8.72-.1-.02-.19 0-.28 0-.08-.02-.17-.06-.27-.06a3.52 3.52 0 0 1-2.44-1.26c-.38-.41-.83-.42-1.2-.23-3.32-.49-2.73-10.03-3.18-12.68-.64-3.78-1.8-7.45-2.8-11.15-1.7-6.16-1.87-12.56-3.03-18.76.48-1.72.2-3.5-.26-5.2a54.4 54.4 0 0 1-1.6-9.36c-.31-3.5-.95-7.08-.83-10.6.12-3.17 2.7-9.45 6.68-10.26.05 0 .1-.05.14-.06 1.55-.04 3.08-.03 4.63.1 1.04.08 2.1.28 3.16.35l.03 2.29c-2.22-.7-3.78-.97-3.86-.72-.08.27 1.53 1.02 3.86 2.04.02 1.21.02 2.44.03 3.64h-.15c-2.62-.08-4.88 1.83-6 4.18l-.09.1a4.01 4.01 0 0 0-.63 2.42c-.19 2.05.62 4 2.86 4.94.2.95.67 1.56 1.45 2.32 0 .02-.01.04 0 .07.53 4.34-.51 9.2-.26 13.67.23 4.34.74 8.65 1.33 12.96l.47 3.55c-.04.35-.04.69-.02 1 .07.85.25 1.56.44 2.19.38 2.57.81 5.12 1.47 7.58a30.3 30.3 0 0 0 1.97 5.33c.51.96 1 1.92 1.49 2.89"/>
  <path fill="#7a5120" d="M108.07 124.27c-.1.15-.2.33-.2.56-.15 2.76-4.76 1.53-6.44 1.38-1.2-.1-2.39-.11-3.59-.11.38-4.18 3.33-6.12 4.52-9.9.49-1.56.39-3.12.59-4.73.29-2.33.9-4.08 1.78-6.11.24.1.48.17.75.22-.4 1.04-.64 2.25-.68 3.68l-.02 1.13c-.1.2-.19.43-.28.68-.61 1.6-.79 3.96-1.02 6.37a15.7 15.7 0 0 1-.66 3.27 9.28 9.28 0 0 1-1.18 2.38c-.91 1.24-1.84 1.67-1.75 1.87.03.16 1.21.04 2.49-1.21a7.9 7.9 0 0 0 1.64-2.57c.45-1.07.7-2.31.84-3.58.09-.83.14-1.6.2-2.34.15 1.4.42 2.83.8 4.2-.02.39-.05.8-.1 1.2-.18 1.6-.53 3.04-1.04 3.82-.49.84-1.13.98-1.13 1.2 0 .08.19.19.56.16.36-.03.88-.26 1.34-.72.44-.45.85-1.1 1.1-1.85.12-.32.2-.67.3-1.02.34.73.73 1.4 1.18 2.02M106.16 102.38c.84.14 1.74-.1 2.47-.5a6.98 6.98 0 0 0-2.45 2.3c-.06 0-.1-.02-.16-.04-.6-.05-1.32-.18-1.8-.62-.54-.5-.5-1.42.33-1.6.27-.05.54.04.82.15.27.12.55.27.8.3"/>
  <path fill="#eaa37d" d="M91.78 175.36c.49 3 1.31 5.94 2.13 8.88a26.73 26.73 0 0 1-11.22-11.27c2.6-1.94 5.98-3.64 8.14-6.03.3 2.8.5 5.62.95 8.42M23.9 267.96a22.59 22.59 0 0 0-2.81 3.47 75.41 75.41 0 0 0-8.89-2.76c1.44-1.86 2.91-3.7 4.36-5.55a26.35 26.35 0 0 0 7.34 4.84"/>
  <path fill="#f2f2f2" d="M19.42 277.57c.1.85 1.49 3.7 1.24 5.31-2.09 2.11-7.81-.11-10.47-.06-2.35.05-4.6.61-6.75 1.48.56-4.08 3.63-8.63 6.04-11.97.95.48 1.4 1.25 2.23 2.05.4.4.67.55 1.2.64.9.14 1.88-.42 2.78-.44 1.35-.02 2.6.31 3.8.88-.11.7-.15 1.42-.07 2.1M20.32 272.8c-.14.3-.27.6-.39.91l-.06.22a9.47 9.47 0 0 0-5.48-.77c-1.63.26-1.58-.3-2.66-1.3-.39-.36-.8-.64-1.28-.86l.73-.98c3.1.73 6.15 1.66 9.14 2.78"/>
  <path fill="#8c6239" d="M17.67 285.45c-.02.07-.04.12-.04.2-.31 2.72-6.43 2.44-8.38 2.52-2.53.1-5.6.87-5.89-2.14 2.6-1.16 5.3-1.76 8.17-1.63 2.08.1 4.08.95 6.14 1.05"/>
  <path d="M373.04 286.16c-.77-4.18-4.22-7.9-6.38-11.4-3.31-5.4-4.42-10.55-6.09-16.52-1.57-5.63-3.91-11.15-5.85-16.67-1.82-5.14-5.79-8.82-7.72-13.89-3.87-10.11-6.45-20.3-9.04-30.8-1.2-4.93-4.17-8.55-7.45-12.25-1.72-1.93-4.12-3.92-5.12-6.38-1.07-2.63.68-4.68.41-7.38-.48-4.9-5.94-6.03-9-9.03-2.05-2.01-3.55-3.5-3.57-6.31 0-1.41.07-2.43-.25-3.68 1.8-1.28 2.8-3.43 3.25-5.64 2.37.04 4.6.85 7.08.57 2.74-.33 5.69-1.1 7.88-2.85 3.3-2.65 4.16-7.05.97-10.1-3.88-3.67-10.41-3.4-15.32-4.06-4.23-.55-7-1.65-10.72-3.63-1.93-1.03-4-1-5.96-1.41 2.98-3.66 3.19-10.03 2.77-14.3-.7-6.97-.53-14.25-8.97-15.62-1.94-.33-3.89-.38-5.75-.17.1-1.69-.3-3.39-1.66-4.54a3.95 3.95 0 0 0-5.08-.1c-2.32 1.78-4.66 6.57-1.9 8.62a13.28 13.28 0 0 0-2.81 4.52 10.58 10.58 0 0 0-.7 4.7c.12 1.44 1.28 2.86 1.38 4.11.2 2.56-1.06 4.42 1 6.89.45.5 1.27.77 1.58 1.29 1.91 3.3-3.12 5.03-5.16 5.83-3.68 1.43-8.21 1.53-11.4 3.93-7.08 5.3-1.52 14.36-4.56 21.12-1.16 2.58-3.02 4.54-3.8 7.49-1.4 5.43.56 10.86-3 15.77-1.7 2.35-4.98 4.63-5.56 7.67-.47 2.43 1.24 6.88 2.85 8.62 3.23 3.48 9.18-.65 10.05-4.24.6-2.51.45-4.68 2.1-6.92 1.3-1.79 2.46-3.56 3.67-5.43 1.4-2.14 2.21-4.1 3.3-6.4.24-.51.5-1.01.78-1.5a65.25 65.25 0 0 0 9.07 22.36c.68 1.06 3.6 4.04 3.66 5.05 0 .27-2.48 5.11-2.6 5.35-1.99 4.13-4.72 7.62-7.15 11.47-2.55 4.04-4.88 8.02-6.22 12.65-.55 1.88-.74 3.8-1.14 5.7-.55 2.65-1.66 4.53-3.15 6.76-2.48 3.7-3.37 8.12-4.1 12.47-.8 4.67.53 8.92.73 13.58.01.16.04.29.08.42.08 2.45.32 5.15-.23 7.37-.95 3.83-4 5.39-6.56 7.93-2.35 2.33-6.04 6.09-4.93 9.79 1.03 3.53 5.62 3.82 8.7 4.14 4.05.43 7.92-.37 10.68-3.47 2.35-.24 4.86-.88 5.68-3.41.43-1.33 0-2.47-.36-3.73-.8-2.72-1.06-4.9-.91-7.7.18-3.57.6-6.2 2.23-9.43.87-1.72 1.84-3.37 2.52-5.2 1.7-4.54.18-9.63 1.9-13.93 3.36-8.38 10.61-13.42 16.7-19.75 2.93-3.08 5.96-6.17 8.74-9.38 2.82-3.24 4.76-6.06 8.42-8.19 2.25 3.76 4.7 7.59 7.63 10.81a29.93 29.93 0 0 1 4.31 5.68c1.55 2.78 2.02 5.75 3.2 8.67a33.4 33.4 0 0 0 7.5 10.87c2.15 2.03 2.79 3.06 3.37 5.9.36 1.8.93 3.1 1.92 4.6 3.04 4.6 6.97 8.6 9.86 13.31 1.58 2.57 3.16 4.88 3.41 7.9.23 2.75-1.2 5.08-1 7.71.09 1.22.57 2.26 1.43 3.13.42.43 1.33.69 1.6 1.11.42.66.17 1.83.5 2.58 1.13 2.72 3.7 2.83 6.4 3.17 5.82.75 13.36 2.02 11.86-6.2"/>
  <path d="M261.87 283.45c.34-2.18-2.4-2.74-2.39-4.71a7.16 7.16 0 0 0-4.24-1.04c-2.03 1.69-4.7 4.08-5.33 6.3 3.3 1.2 7.09 1.84 10.4.56.28-.1.87-.39 1.6-.77a.75.75 0 0 1-.04-.34Zm2.04-9.6a3.55 3.55 0 0 0-.96-.72 4.17 4.17 0 0 0-3.07-.18c-.07.02-.14.01-.2.02a10.97 10.97 0 0 1-2.5 3.13l-.32.27c1.05.15 2.09.48 3.04 1 .96-1.53 3.17-1.85 4-3.51Zm1.59 11.08c2.34-.2 3.07-1.36 3.13-2.8-1.5 1.78-4.32 2.24-6.52 3.25-3.92 1.8-8.3 1.46-12.3.06.15.76.63 1.48 1.57 2.1 3.66 2.4 10.5.96 13.07-2.16.32-.37.7-.5 1.05-.45Zm2.77-5.33.02-.04c-.28-1.13-.61-2.22-.65-3.02l-.03-1.14c-.85.35-1.74.33-2.58-.4-.05-.02-.07-.06-.11-.1-.31.52-.7.92-1.24 1.3-1.22.87-3.63 1.52-2.2 3.62.49.73 1.21.94 1.58 1.83.19.48.24.94.22 1.41 2.24-1.23 4.89-2.85 4.99-3.46Zm.77-133.07c.91-6.15 2.8-12 5.46-17.58-2.45.71-4.97 1.17-7.35 2.04-5.8 2.13-5.04 8.4-4.51 13.25l.04.72c.4-.63.76-.93.89-.86.39.21-.9 3.04-.96 6.74-.15 3.69.98 6.59.57 6.78-.18.08-.72-.55-1.23-1.77-.34-.75-.62-1.75-.78-2.89-.62 1.29-1.55 1.88-2.4 3.45-2.12 3.9-1.05 8.35-1.63 12.55a14.72 14.72 0 0 1-3.06 7.25c-2.09 2.84-5.27 5.6-3.91 9.38.23-.8.58-1.54 1.06-2-.32-.82-.16-1.33-.03-1.33.18-.05.35.54.94 1.18l.2.24-.25.34a4.93 4.93 0 0 0-.71 2.45c-.07.58-.08 1.07.1 1.3.09.1.12.1.22.11.1 0 .3-.04.43-.16.26-.2.48-.74.64-1.31.16-.55.25-1.1.3-1.62l.14-1.49.87.9c.13.13.6.05.83-.25.28-.3.44-.74.58-1.1.27-.77.58-1.22.72-1.14.14.07.13.5.1 1.32-.06.41-.1.96-.46 1.59a2.1 2.1 0 0 1-1.44.96c-.03.4-.1.8-.18 1.21-.12.46-.25 1-.6 1.52.39-.13.8-.38 1.22-.74 2.4-2.08 1.45-4.25 2.5-6.8 1.03-2.47 3.3-4.83 4.74-7.02 1.91-2.91 3.1-5.99 4.76-9.04.52-.95 1.19-2.68 2.16-3.48-.81-2.72-.9-5.66-.7-8.57-.1-.9-.22-1.89-.38-2.92-.63-4.12-1.77-7.34-1.36-7.53.29-.16 1.55 1.84 2.38 4.88l.09-.56Zm2.43 113.42a21.7 21.7 0 0 0 1.4-3.4 15.14 15.14 0 0 1-12.16.17c.11.9.22 1.83.31 2.76.12.2.21.46.21.76-.1 3.83.24 7.42-.69 10.62a5.88 5.88 0 0 1 4.78 1.58c.81.78 1.2 1.5 2.35.7.06-1.13.15-2.26.25-3.34.32-3.7 1.93-6.6 3.55-9.85Zm9.23-148.12c.53-1.95.96-3.99.46-5.99-.28-1.1-.83-2.04-1.17-3.05l-.05.07c-.93 1.71-1.44 4.15-.9 6.06.01.06 1.01 1.65 1.09 2.2 0 .06 0 .1.02.15l.55.56Zm5.93-16.94a3.1 3.1 0 0 0-4.49-2.87c-1.73.8-3.1 4.12-1.15 5.36a13.68 13.68 0 0 1 5.64-2.49Zm1.83 46.44c0-.12-.02-.18-.16-.3-.3-.24-.84-.29-1.3-.25-.32.01-.58.07-.82.1-.15.26-.36.43-.54.57-.39.25-.69.37-1.05.54a7.42 7.42 0 0 1-2.42.62 9.5 9.5 0 0 0 4.14.58c.14-.06.28-.12.41-.2a6.37 6.37 0 0 0 1.5-1.13c.17-.2.24-.4.24-.53Zm1.22 6.26a8.24 8.24 0 0 0 2.47-1.55c-4.58.92-9.38 1.23-13.33-1.16 2.25 3.1 7.3 4.16 10.86 2.71Zm-.3-44.3c2.99-.4 7.3.1 8.96-3-2.61-3.33-8.3-3.83-12.15-2.67-2.04.6-3.85 1.94-5.17 3.62v.03l.04.2c0 .03.03.05.03.08l.07.5c1.01 3.37 6.14 1.52 8.23 1.23Zm5.36 38.1-1.32-.25c-1.27 2.65-4.63 4.06-7.9 4.16l-.01.05c2.65.1 5.4-.42 8.01-1.02.52-.87.9-1.85 1.22-2.93Zm2.54-14.7a.23.23 0 0 0-.07-.03 7.9 7.9 0 0 1-3.9 2.16c-4.8.9-8.33-1.4-10.69-4.93-.62 1.36-1.84 2.34-3.32 3.15-1.38 4.6-2.85 10.48-1.6 15.23.7.7 1.48 1.27 2.29 1.7-1.75-1.16-2.69-3.06-1.87-5.75 1.87-6.12 7.6-5.2 12.94-5.7 1.99-.17 3.98-.36 5.95-.54.03-1.77.12-3.54.27-5.3Zm2.91-19.82c-.15-1.57-.38-3.1-.7-4.33-.12-.34-.22-.67-.36-.97-.39.52-.83.95-1.31 1.3-.03 1.56 1.25 2.8 2.37 4Zm.21 6.85c.04-1.25.04-2.74-.03-4.27a16.36 16.36 0 0 0-2.24-2.88c-.82-.93-1.5-1.82-1.67-2.96-2.6 1.07-5.96.91-8.7 1.39-1.88.32-3.98.49-5.59-.14.28.7.51 1.42.56 2.21.13 2.06-.41 4.09-.96 6.06.2.63-.61 1.32-1.12.73l-.52-.6c.05 1.78.04 2.67 1.12 4.22.8 1.16 1.43 1.27 1.73 3.02 0 .05 0 .1.02.15 1.74 3.66 4.27 6.6 8.83 6.31 1.67-.1 3.17-1.01 4.46-2.34.11-.21.28-.4.5-.53a16.86 16.86 0 0 0 3.03-5.48c.4-1.76.54-3.56.58-4.89Zm.16 17.93v-4.3l-.27-.05c-.6-.1-1.13-.15-1.66-.25-.12 1.6-.2 3.2-.24 4.8l2.17-.2Zm1.38-.12 7.06-.66a15.8 15.8 0 0 1-1.9-.9 20.4 20.4 0 0 0-5.16-2.33v3.89Zm8.17 24.4c.15-1.4.47-2.84-.09-4.33a1.02 1.02 0 0 1-.06-.36 17.5 17.5 0 0 1-4.15-7.69l-.96-.2a28.59 28.59 0 0 0 5.26 12.58Zm3.54-10.86-6.33-1.23c.67 2.32 1.83 4.39 3.41 6.18l.25-.13c1.68-.67 2.45-3.13 2.67-4.82Zm8.62 29.3a5.9 5.9 0 0 0 .7-3.9c-.2-.17-.42-.3-.68-.4-.65-.25-1.58-.3-2.54-.48a51.12 51.12 0 0 1-16.71-5.75c-2.55-1.43-3.97-2.55-3.88-2.73.24-.4 6.46 3.2 14.87 5.6 2.1.6 4.12 1.08 5.98 1.46.38.1.78.16 1.18.25l-.19-.19c-.43-.44-1.93-1.1-2.3-1.36-2.8-1.88-6.31-4.73-8.1-7.66-.17-.3-.3-.6-.39-.9-3.67-4.34-6-9.51-6.8-15.23l-7.3-1.4c-.76 2.7-1.75 5.31-4.41 6.66a13.44 13.44 0 0 1-10.86.18c-7.2-3.37-5.11-13.96-3.21-20.69l-.59.25-.05.02c-.02.1-.04.2-.09.32a61.56 61.56 0 0 0-5.45 15.49c-.75 3.7-1.63 8.58-1.31 12.93.51 1.81 1.4 4.02 2.85 6.12a21.08 21.08 0 0 0 5.53 5.4c1.68 1.12 2.83 1.66 2.76 1.89-.07.18-1.38 0-3.3-.94a16.91 16.91 0 0 1-6.27-5.46c-.01-.04-.03-.08-.06-.1 1.6 10.14 6.54 19.4 12.25 27.81.4.57.6 1.07.72 1.53 8 .9 15.76-1.38 22.64-5.54a72.3 72.3 0 0 0 10.06-7.3 18.97 18.97 0 0 1-14.6 2.35c-2.34-.62-3.6-1.42-3.54-1.6.09-.22 1.5.2 3.75.51a23 23 0 0 0 8.8-.51c3.34-.9 6.09-2.52 7.9-3.93.84-.63 1.5-1.2 2-1.61a9.08 9.08 0 0 0 .64-1.1Zm8.64-34.3c2.98-6.38-8.37-6.76-11.9-7.2-1.51-.19-3.01-.35-4.5-.57l-20.8 1.93c-3.21.29-10.77-.2-12.92 2.76-1.1 1.52-1.26 2.78-.8 3.76.34.18.77.32 1.24.36.54.05 1.16-.02 1.81-.22.34-.1.67-.2 1-.32.3-.12.67-.25.83-.34l.22-.12c.03-.05-.01-.21-.09-.32a.29.29 0 0 0-.08-.08c-.71-.26-1.28-.52-1.75-.55-.35-.04-.65.03-.89.14.36.33.54.57.47.7-.09.17-.64.06-1.5-.25l-.39-.16.2-.52c.26-.75 1.15-1.31 2.14-1.33 1-.02 1.85.4 2.62.63 1.47.48 2.75.52 3.65.25.9-.24 1.4-.68 1.58-.55.17.1-.06.91-1.14 1.56-.19.12-.43.22-.67.3.38.29.72.77.74 1.32.03.36-.06.7-.2 1a4.06 4.06 0 0 0 2.02-2.25c.1-.27.27-.46.49-.56.21-.23.51-.39.9-.3l22.3 4.3c4.73-.28 12.68 2.56 15.42-3.36Zm22.74 106.42c-.97-2.94-2.01-5.88-3.56-8.44-.88-1.45-1.78-2.76-2.63-4.08.13.96.1 1.85-.05 2.52-.23 1.11-.64 1.7-.83 1.64-.43-.12.04-2.66-1-5.5-.96-2.86-2.92-4.54-2.65-4.9.1-.15.66 0 1.4.55-.17-.4-.34-.82-.48-1.25-1.53-4.39-3.37-8.44-4.42-12.96-1.1-4.83-2.7-9.47-3.68-14.35-1.07-5.34-3.63-9.12-7.2-13.13-2.1-2.37-4.7-4.73-5.99-7.71a21.94 21.94 0 0 1-3.93 6.92 22 22 0 0 1-6.22 5.15c-1.83.97-3.09 1.27-3.16 1.09-.21-.42 4.35-2.58 8.2-7.24a29.15 29.15 0 0 0 3.57-5.36c-2.88 2.99-6.64 5.53-9.02 7.26-8.09 5.9-17.57 9.37-27.56 8.3-.43 1.04-1.27 2.09-1.95 3.6a52.13 52.13 0 0 1-5.74 9.96c-3.02 4.13-5.91 8.76-7.56 13.62-.84 2.48-.98 5.15-1.53 7.67a8.54 8.54 0 0 1 1.7-2.6c.8-.8 1.45-1.09 1.59-.94.3.35-1.45 2.23-2.22 5.17-.85 2.91-.31 5.44-.75 5.56-.19.07-.6-.51-.87-1.61a8.49 8.49 0 0 1-.09-3.37c-.23.66-.53 1.29-.9 1.89-1.18 1.93-2.67 3.6-3.55 5.72a37.82 37.82 0 0 0-1.98 7.54 24.73 24.73 0 0 0-.13 7.25 13.23 13.23 0 0 0 12.92-.34l.07-.03c.2-1.05.3-2.12.34-3.26.07-1.99-.21-4.1.22-6.07.43-1.96 1.51-4.03 2.61-5.87a8.82 8.82 0 0 1-3 2.12c-1.33.52-2.25.4-2.27.21-.04-.23.73-.5 1.77-1.19 1.04-.68 2.31-1.86 3.35-3.45 1.04-1.6 1.74-3.26 2.28-4.47.55-1.2.96-1.93 1.17-1.87.2.06.16.9-.12 2.23-.2.89-.53 2.01-1.07 3.2 4.68-6.38 11.61-11.43 16.92-17.2 4.47-4.86 8.05-10.4 13.72-13.79-2.72-2.32-5.42-3.34-5.3-3.75.05-.2.92-.17 2.23.27 1.2.4 2.72 1.21 4.16 2.43a11.08 11.08 0 0 1-.09-4.33c.23-1.1.56-1.72.77-1.69.44.1.16 2.7.85 5.74.04.17.09.33.12.5.25.1.47.26.63.52 3 5.04 6.43 9.32 10.22 13.75.8.95 1.45 1.94 2.02 2.99a24.2 24.2 0 0 0 4.6 3.32c1.64.9 2.76 1.29 2.72 1.52-.04.19-1.3.19-3.18-.52-.84-.3-1.8-.78-2.78-1.4.66 1.65 1.2 3.36 1.75 5.09.96 2.97 2.5 5.36 4.29 7.87a22.82 22.82 0 0 0 2.89 3.23c-.15-.62-.22-1.2-.26-1.68-.06-1.12.06-1.81.27-1.83.22-.04.47.61.81 1.62.34 1 .76 2.36 1.56 3.62a6.97 6.97 0 0 0 2.74 2.47c.88.42 1.54.49 1.56.72.05.18-.67.56-1.88.34a4.34 4.34 0 0 1-.86-.26l.22.73c.35 1.22.25 2.59.64 3.78.26.76.61 1.37 1 1.93 5.02.94 9.72-1.01 12.58-5.17Zm3.23 38.46c.12-1.26-1.02-2.82-2.05-4.3.06.54.2 1.1.45 1.7.67 1.56 1.06 1.74 1.6 2.6Zm4.94-13.38a47.81 47.81 0 0 1-1.46-3.32c-1.93-5.09-2.68-10.55-4.64-15.68-.47-1.24-.9-2.54-1.34-3.84a14.05 14.05 0 0 1-11.63 5.07l.1.12c2.61 3.65 5.58 7.04 8 10.81 1.66 2.63 4.08 5.87 4.58 9.07a10.07 10.07 0 0 1 3.77-1.71c.8-.18 1.71-.43 2.62-.52Zm1.53 2.94c-.19-.34-.38-.67-.56-1.02-1.08-.19-3.35.53-3.97.72-1.13.36-2.1.88-2.86 1.7a6.08 6.08 0 0 1 2.84.34 8.6 8.6 0 0 1 4.55-1.74Zm4.26 6.8-1.26-1.9c-.76-1.17-1.5-2.34-2.2-3.52a6.94 6.94 0 0 0-4.07 1.13c.62.53.97 1.17 1.35 1.92 1.3 2.7 3.5 3.3 6.18 2.38Zm2.27 4.2c-.38-.99-.93-2.02-1.52-3-2.1.83-4.48 1.13-6.4-.3a5.47 5.47 0 0 1-1.6-2.18c-1.12-2.29-2.83-3.03-5.17-2.6l-.21 1.02c1.39 3 5 4.09 3.19 7.4a8.6 8.6 0 0 0 4.27 1.15c2.22-.1 2.03-.87 3.49-1.09.7-.1 3.53.32 3.95-.4Zm-2.93 4.49c2.82.08 3.6-1.12 3.4-2.79-1.25.7-3.44.04-4.74.35-3.18.73-5.2.9-8.09-.5 1.4 3.27 1.03 1.71 3.36 2.5 1.85.6 4.13.39 6.07.44Zm6.09-3.84c1.5 8.22-6.04 6.95-11.86 6.2-2.7-.34-5.27-.45-6.4-3.17-.33-.75-.08-1.92-.5-2.58-.27-.42-1.18-.68-1.6-1.11a4.85 4.85 0 0 1-1.43-3.13c-.2-2.63 1.23-4.96 1-7.7-.25-3.03-1.83-5.34-3.41-7.9-2.9-4.72-6.82-8.72-9.86-13.33-.99-1.5-1.56-2.8-1.92-4.58-.58-2.85-1.22-3.88-3.37-5.91a33.4 33.4 0 0 1-7.5-10.87c-1.18-2.92-1.65-5.89-3.2-8.67a29.93 29.93 0 0 0-4.31-5.68c-2.92-3.22-5.38-7.05-7.63-10.8-3.66 2.12-5.6 4.94-8.42 8.18-2.78 3.2-5.81 6.3-8.74 9.38-6.09 6.33-13.34 11.37-16.7 19.75-1.72 4.3-.2 9.39-1.9 13.93-.68 1.83-1.65 3.48-2.52 5.2-1.63 3.24-2.05 5.86-2.23 9.42-.15 2.8.1 4.99.9 7.71.38 1.26.8 2.4.37 3.73-.82 2.53-3.33 3.17-5.68 3.41-2.76 3.1-6.63 3.9-10.68 3.47-3.08-.32-7.67-.6-8.7-4.14-1.11-3.7 2.58-7.46 4.93-9.79 2.56-2.54 5.61-4.1 6.56-7.93.55-2.22.3-4.92.23-7.37a2.2 2.2 0 0 1-.08-.42c-.2-4.66-1.53-8.9-.73-13.58.73-4.35 1.62-8.77 4.1-12.47 1.49-2.23 2.6-4.1 3.15-6.76.4-1.9.6-3.82 1.14-5.7 1.34-4.63 3.67-8.6 6.22-12.65 2.43-3.85 5.16-7.34 7.15-11.47.12-.24 2.6-5.08 2.6-5.35-.07-1-2.98-4-3.66-5.05a65.25 65.25 0 0 1-9.07-22.36c-.27.49-.54.99-.78 1.5-1.09 2.3-1.9 4.26-3.3 6.4a119.14 119.14 0 0 1-3.67 5.43c-1.65 2.24-1.5 4.4-2.1 6.92-.87 3.59-6.82 7.72-10.05 4.24-1.6-1.74-3.32-6.19-2.85-8.62.58-3.04 3.86-5.31 5.57-7.67 3.55-4.91 1.6-10.34 3-15.77.77-2.95 2.63-4.91 3.79-7.49 3.04-6.76-2.52-15.82 4.56-21.12 3.19-2.4 7.72-2.5 11.4-3.93 2.04-.8 7.07-2.53 5.16-5.83-.3-.52-1.13-.78-1.58-1.3-2.06-2.45-.8-4.32-1-6.88-.1-1.25-1.26-2.67-1.39-4.1-.15-1.6.15-3.24.7-4.71a13.28 13.28 0 0 1 2.82-4.52c-2.76-2.05-.42-6.84 1.9-8.62a3.95 3.95 0 0 1 5.08.1c1.36 1.15 1.75 2.85 1.66 4.54 1.86-.21 3.81-.16 5.75.17 8.44 1.37 8.27 8.65 8.97 15.63.42 4.26.21 10.63-2.77 14.29 1.96.4 4.03.38 5.96 1.41 3.71 1.98 6.5 3.08 10.72 3.63 4.91.66 11.44.39 15.32 4.07 3.2 3.04 2.34 7.44-.97 10.09-2.19 1.75-5.15 2.52-7.88 2.85-2.48.28-4.71-.53-7.08-.57-.45 2.21-1.46 4.36-3.24 5.64.31 1.25.24 2.27.24 3.68.02 2.8 1.52 4.3 3.58 6.31 3.05 3 8.51 4.14 9 9.03.26 2.7-1.49 4.75-.42 7.38 1 2.46 3.4 4.45 5.12 6.38 3.28 3.7 6.25 7.32 7.45 12.25 2.6 10.5 5.17 20.69 9.04 30.8 1.93 5.07 5.9 8.75 7.72 13.9 1.94 5.51 4.28 11.03 5.86 16.66 1.66 5.97 2.77 11.12 6.08 16.52 2.16 3.5 5.61 7.22 6.38 11.4"/>
  <path fill="#f2f2f2" d="M370.35 287.21c.2 1.67-.58 2.87-3.4 2.79-1.94-.05-4.22.16-6.07-.45-2.33-.78-1.96.78-3.36-2.5 2.9 1.41 4.91 1.24 8.09.5 1.3-.3 3.5.37 4.74-.34M368.36 282.51c.59.98 1.14 2.01 1.52 3-.42.72-3.25.3-3.95.4-1.46.22-1.27.98-3.49 1.1a8.6 8.6 0 0 1-4.27-1.17c1.8-3.3-1.8-4.38-3.2-7.4l.22-1c2.34-.44 4.05.3 5.17 2.6.43.85.81 1.59 1.6 2.17 1.92 1.43 4.3 1.13 6.4.3"/>
  <path fill="#f2f2f2" d="M366.35 279.4c.35.53.8 1.19 1.26 1.92-2.67.91-4.87.33-6.18-2.38a5.76 5.76 0 0 0-1.35-1.92 6.94 6.94 0 0 1 4.06-1.13c.7 1.18 1.45 2.35 2.2 3.51M362.79 273.49c.18.35.37.68.56 1.02a8.6 8.6 0 0 0-4.55 1.74 6.08 6.08 0 0 0-2.84-.34 6.41 6.41 0 0 1 2.86-1.7c.62-.2 2.9-.9 3.97-.72"/>
  <path fill="#e2ab93" d="M360.36 268.25c.45 1.13.93 2.24 1.46 3.32-.9.09-1.82.34-2.62.52-1.4.34-2.7.88-3.77 1.71-.5-3.2-2.92-6.44-4.59-9.07-2.4-3.77-5.38-7.16-7.98-10.8l-.11-.13c4.51.23 8.72-1.6 11.63-5.07.44 1.3.87 2.6 1.34 3.84 1.96 5.13 2.7 10.59 4.64 15.68"/>
  <path fill="#f2f2f2" d="M354.83 280.66c1.03 1.47 2.17 3.03 2.05 4.3-.54-.87-.93-1.05-1.6-2.61a6.27 6.27 0 0 1-.45-1.7"/>
  <path fill="#662d91" d="M350.09 238.05c1.55 2.56 2.59 5.5 3.56 8.44a12.18 12.18 0 0 1-12.57 5.17 7.42 7.42 0 0 1-1-1.93c-.4-1.2-.3-2.56-.65-3.78-.07-.24-.14-.5-.22-.73.29.12.59.21.86.26 1.2.22 1.93-.16 1.88-.34-.02-.23-.68-.3-1.56-.72a6.97 6.97 0 0 1-2.74-2.47c-.8-1.26-1.22-2.63-1.56-3.62-.34-1-.6-1.66-.81-1.62-.21.02-.33.71-.27 1.83.04.48.1 1.06.26 1.68-1.02-.99-2.03-2-2.9-3.23-1.77-2.51-3.32-4.9-4.28-7.87-.56-1.73-1.1-3.44-1.75-5.1.98.63 1.94 1.1 2.78 1.41 1.88.7 3.14.7 3.18.52.04-.23-1.08-.61-2.73-1.52a24.2 24.2 0 0 1-4.59-3.32 17.36 17.36 0 0 0-2.02-2.99c-3.79-4.43-7.22-8.71-10.22-13.75a1.34 1.34 0 0 0-.63-.53l-.12-.49c-.69-3.04-.4-5.63-.85-5.74-.2-.03-.54.59-.77 1.7-.22 1.09-.26 2.65.1 4.31a13.4 13.4 0 0 0-4.17-2.42c-1.31-.44-2.18-.46-2.23-.27-.12.41 2.58 1.43 5.3 3.75-5.67 3.38-9.25 8.93-13.72 13.8-5.3 5.76-12.24 10.8-16.92 17.2.54-1.2.86-2.32 1.07-3.21.28-1.32.31-2.17.12-2.23-.21-.06-.62.67-1.17 1.87-.54 1.2-1.24 2.86-2.28 4.47a12.32 12.32 0 0 1-3.35 3.45c-1.04.68-1.81.96-1.77 1.2.02.18.94.3 2.27-.22a8.82 8.82 0 0 0 3-2.12c-1.1 1.84-2.18 3.9-2.61 5.87-.43 1.96-.15 4.08-.22 6.07a22.15 22.15 0 0 1-.34 3.26l-.07.03a13.23 13.23 0 0 1-12.92.34c-.24-2.37-.34-4.73.13-7.25.47-2.5 1-5.18 1.98-7.54.88-2.12 2.37-3.8 3.56-5.72.36-.6.66-1.23.9-1.89-.22 1.3-.14 2.51.08 3.37.26 1.1.68 1.68.87 1.61.44-.12-.1-2.65.75-5.56.77-2.94 2.51-4.82 2.22-5.17-.14-.15-.79.14-1.59.94a8.54 8.54 0 0 0-1.7 2.6c.55-2.52.69-5.19 1.53-7.67 1.65-4.86 4.54-9.49 7.56-13.62a52.13 52.13 0 0 0 5.74-9.96c.68-1.51 1.52-2.56 1.95-3.6 9.99 1.07 19.47-2.4 27.56-8.3 2.38-1.73 6.14-4.27 9.02-7.26-.84 1.6-2 3.5-3.58 5.36-3.84 4.66-8.4 6.82-8.19 7.24.07.18 1.33-.12 3.16-1.09a22 22 0 0 0 6.22-5.15c2.01-2.4 3.28-4.97 3.93-6.92 1.3 2.98 3.89 5.34 6 7.7 3.56 4.02 6.12 7.8 7.19 13.14.98 4.88 2.57 9.52 3.68 14.35 1.05 4.52 2.89 8.57 4.42 12.96.14.43.3.84.48 1.25-.74-.55-1.3-.7-1.4-.55-.27.36 1.7 2.04 2.65 4.9 1.04 2.84.57 5.38 1 5.5.2.06.6-.53.83-1.64.14-.67.18-1.56.05-2.52.85 1.32 1.75 2.63 2.63 4.08"/>
  <path fill="#e2ab93" d="M319 132.88c3.54.43 14.9.81 11.91 7.2-2.74 5.92-10.69 3.08-15.42 3.37l-22.3-4.31a.92.92 0 0 0-.9.3.95.95 0 0 0-.49.56 4.06 4.06 0 0 1-2.01 2.25c.13-.3.22-.64.19-1a1.79 1.79 0 0 0-.74-1.31c.24-.1.48-.2.67-.3 1.08-.66 1.31-1.47 1.14-1.57-.18-.13-.67.3-1.58.55-.9.27-2.18.23-3.65-.25-.77-.24-1.63-.65-2.62-.63-.99.02-1.88.58-2.14 1.33l-.2.52.4.16c.85.3 1.4.42 1.49.24.07-.12-.1-.36-.47-.69.24-.1.54-.18.89-.14.47.03 1.04.29 1.75.55.03.02.06.04.08.08.08.1.12.27.09.32l-.22.12c-.16.09-.53.22-.83.34-.33.12-.66.22-1 .32-.65.2-1.27.27-1.81.22-.47-.04-.9-.18-1.25-.36-.45-.98-.3-2.24.8-3.76 2.16-2.97 9.72-2.47 12.93-2.76l20.8-1.93c1.49.22 2.99.38 4.5.58"/>
  <path fill="#29abe2" d="M299.41 172.84c.13-.45-5.05-2.1-10.73-5.5-5.7-3.34-9.62-7.11-9.95-6.79-.14.15.66 1.29 2.24 2.85a36.82 36.82 0 0 0 6.92 5.3 36.72 36.72 0 0 0 7.95 3.53c2.14.64 3.51.8 3.57.6Zm12.14-.32c3.02.2 4.89-.05 4.88-.23 0-.24-1.85-.39-4.75-.87a55.18 55.18 0 0 1-11.07-3 58.65 58.65 0 0 1-10.16-5.31c-2.46-1.65-3.91-2.8-4.08-2.6-.13.13 1.08 1.57 3.43 3.48a38.79 38.79 0 0 0 10.25 5.87c2.16.85 4.29 1.46 6.25 1.9 1.95.4 3.74.66 5.25.76Zm11.41-2.05a5.9 5.9 0 0 1-.89 4.25c-.13.25-.28.5-.44.74-.5.41-1.16.98-2 1.61a22.77 22.77 0 0 1-7.9 3.93 23 23 0 0 1-8.8.51c-2.26-.3-3.66-.73-3.75-.51-.07.18 1.2.98 3.55 1.6a18.97 18.97 0 0 0 14.6-2.35 72.3 72.3 0 0 1-10.07 7.3c-6.88 4.16-14.63 6.45-22.64 5.54a4.66 4.66 0 0 0-.72-1.53c-5.71-8.4-10.65-17.67-12.25-27.82a16.91 16.91 0 0 0 6.32 5.57c1.93.94 3.24 1.12 3.3.94.08-.23-1.07-.77-2.75-1.9a21.08 21.08 0 0 1-5.53-5.39 20.98 20.98 0 0 1-2.85-6.12c-.32-4.35.56-9.24 1.3-12.93a61.56 61.56 0 0 1 5.46-15.5c.05-.1.07-.2.09-.31l.05-.02.59-.25c-1.9 6.73-3.99 17.32 3.2 20.7a13.44 13.44 0 0 0 10.87-.2c2.66-1.34 3.65-3.95 4.41-6.66l7.3 1.41a29.75 29.75 0 0 0 6.8 15.22c.1.3.22.61.4.91 1.78 2.93 5.28 5.78 8.1 7.66.36.25 1.86.92 2.3 1.36l.18.19c-.4-.09-.8-.15-1.18-.25a81.05 81.05 0 0 1-5.98-1.46c-8.4-2.4-14.63-6-14.87-5.6-.1.18 1.33 1.3 3.88 2.74a51.12 51.12 0 0 0 16.71 5.74c.96.18 1.89.23 2.54.47.26.1.48.24.67.4"/>
  <path d="M316.43 172.29c0 .18-1.86.43-4.88.23-1.5-.1-3.3-.36-5.25-.77a43.03 43.03 0 0 1-6.25-1.89 38.79 38.79 0 0 1-10.25-5.88c-2.35-1.9-3.56-3.34-3.43-3.48.17-.18 1.62.96 4.08 2.6 1.23.83 2.73 1.73 4.43 2.65 1.73.92 3.65 1.83 5.73 2.67a55.18 55.18 0 0 0 11.07 3c2.9.48 4.75.63 4.75.87"/>
  <path fill="#e2ab93" d="m307.32 143.84 6.33 1.23c-.22 1.69-.99 4.15-2.67 4.82l-.25.13a15.94 15.94 0 0 1-3.4-6.18"/>
  <path fill="#93278f" d="M310.02 151.6c.56 1.5.24 2.94.09 4.33a28.59 28.59 0 0 1-5.26-12.57l.96.2a17.5 17.5 0 0 0 4.15 7.68c0 .12.02.24.06.36"/>
  <path fill="#e2ab93" d="m309 130.87-7.06.66v-3.89a20.4 20.4 0 0 1 5.16 2.33c.62.35 1.26.64 1.9.9"/>
  <path fill="#29abe2" d="M300.56 127.35v4.3l-2.17.2c.04-1.6.12-3.2.24-4.8.53.1 1.07.16 1.66.25l.27.05"/>
  <path fill="#e2ab93" d="M293.49 119.12c.15-.32.12-.53.03-.58-.19-.09-.6.39-1.47.46-.43.05-.9-.02-1.46-.25a7.4 7.4 0 0 1-.88-.42l-.4-.24c.04-.08.1-.17.21-.31a4.98 4.98 0 0 0 1-3.15c-.07-1.2-.54-1.81-.72-1.74-.21.06-.17.73-.38 1.65a5 5 0 0 1-1.09 2.3c-.08.1-.26.28-.4.51-.14.22-.38.63-.22 1.19.06.26.24.5.4.62.15.13.28.2.38.25l.53.28c.37.18.75.33 1.13.44.77.2 1.6.19 2.19-.07.6-.22.98-.62 1.15-.94Zm6.88-9.67c.07 1.53.07 3.02.03 4.27-.04 1.33-.19 3.13-.58 4.89a16.86 16.86 0 0 1-3.03 5.48c-.22.13-.39.32-.5.53-1.29 1.33-2.8 2.24-4.46 2.34-4.56.3-7.09-2.65-8.83-6.31l-.02-.15c-.3-1.75-.93-1.86-1.73-3.02-1.08-1.55-1.07-2.44-1.12-4.21.17.19.35.38.52.59.51.59 1.33-.1 1.12-.73.55-1.97 1.1-4 .96-6.06a7.13 7.13 0 0 0-.56-2.21c1.6.63 3.71.46 5.6.14 2.73-.48 6.1-.32 8.7-1.4.16 1.15.84 2.04 1.66 2.97.84.92 1.66 1.85 2.24 2.88"/>
  <path fill="#443728" d="M299.48 102.54c.33 1.24.56 2.76.71 4.33-1.12-1.2-2.4-2.44-2.37-4a6.3 6.3 0 0 0 1.31-1.3c.14.3.25.63.35.97"/>
  <path d="M288.68 167.34c5.68 3.4 10.86 5.05 10.73 5.5-.06.19-1.43.03-3.57-.61a36.72 36.72 0 0 1-7.95-3.54 36.82 36.82 0 0 1-6.92-5.29c-1.58-1.56-2.38-2.7-2.24-2.85.33-.32 4.25 3.45 9.95 6.8"/>
  <path fill="#e2ab93" d="m297.21 126.66.07.02a74.66 74.66 0 0 0-.27 5.3c-1.97.18-3.96.37-5.95.54-5.34.5-11.07-.42-12.94 5.7-.82 2.69.12 4.6 1.87 5.74a9.72 9.72 0 0 1-2.3-1.69c-1.24-4.75.23-10.62 1.61-15.23 1.48-.8 2.7-1.79 3.32-3.15 2.36 3.52 5.89 5.82 10.7 4.93a7.9 7.9 0 0 0 3.9-2.16M293.42 141.14c.45.1.88.17 1.32.26-.31 1.08-.7 2.06-1.22 2.93-2.6.6-5.36 1.12-8.01 1.02v-.05c3.28-.1 6.64-1.5 7.91-4.16"/>
  <path fill="#443728" d="M298.34 100.29c-1.66 3.1-5.97 2.6-8.95 3-2.1.28-7.22 2.13-8.23-1.24l-.07-.5c0-.03-.02-.05-.03-.08a3.72 3.72 0 0 0-.04-.2v-.03a10.57 10.57 0 0 1 5.17-3.62c3.85-1.16 9.54-.66 12.15 2.67"/>
  <path d="M293.52 118.54c.1.05.12.26-.03.58-.17.32-.56.72-1.15.94-.6.26-1.42.28-2.19.06-.38-.1-.76-.25-1.13-.43-.17-.1-.35-.17-.53-.28-.1-.04-.23-.12-.38-.25a1.24 1.24 0 0 1-.4-.62c-.16-.56.08-.97.22-1.19.14-.23.32-.42.4-.52a5 5 0 0 0 1.09-2.3c.2-.91.17-1.58.38-1.64.18-.07.65.54.72 1.73a4.98 4.98 0 0 1-1 3.16l-.22.3c.13.1.28.17.41.25.32.17.6.31.88.42.57.23 1.04.3 1.46.25.86-.07 1.28-.55 1.47-.46"/>
  <path fill="#93278f" d="M292.15 146.04a8.24 8.24 0 0 1-2.47 1.55c-3.56 1.45-8.61.4-10.86-2.7 3.95 2.38 8.75 2.07 13.33 1.15"/>
  <path fill="#e2ab93" d="M288.3 141.03c.14.12.16.18.16.3 0 .13-.07.32-.24.53a6.37 6.37 0 0 1-1.5 1.13c-.13.08-.27.14-.4.2a9.5 9.5 0 0 1-4.15-.58 7.42 7.42 0 0 0 2.42-.63c.36-.16.66-.28 1.05-.53.18-.14.39-.3.54-.57.24-.03.5-.09.83-.1.45-.04.98.01 1.3.25"/>
  <path fill="#443728" d="M282.14 92.02a3.1 3.1 0 0 1 4.49 2.87c-2.08.42-4 1.23-5.64 2.5-1.96-1.25-.58-4.57 1.15-5.37M281.16 105.84c.5 2 .07 4.03-.46 6l-.55-.57-.02-.14c-.08-.56-1.08-2.15-1.1-2.21-.53-1.91-.02-4.35.91-6.06l.05-.07c.34 1.01.9 1.94 1.17 3.05"/>
  <path fill="#e2ab93" d="M272.87 256.55a21.7 21.7 0 0 1-1.4 3.4c-1.62 3.25-3.23 6.16-3.55 9.85-.1 1.08-.2 2.21-.25 3.34-1.15.8-1.54.08-2.35-.7a5.9 5.9 0 0 0-4.78-1.58c.93-3.2.6-6.79.69-10.62 0-.3-.09-.56-.21-.76l-.3-2.76a15.14 15.14 0 0 0 12.15-.17M274.5 128.95a62.24 62.24 0 0 0-5.46 17.58l-.09.56c-.83-3.04-2.1-5.04-2.38-4.88-.41.19.73 3.41 1.36 7.53.16 1.03.28 2.01.38 2.92-.2 2.9-.11 5.85.7 8.57-.97.8-1.63 2.53-2.16 3.48-1.65 3.05-2.85 6.13-4.76 9.04-1.43 2.2-3.7 4.55-4.74 7.03-1.05 2.54-.1 4.7-2.5 6.79-.42.36-.83.61-1.22.74.35-.52.48-1.06.6-1.52.09-.41.15-.82.18-1.21a2.1 2.1 0 0 0 1.44-.96c.36-.63.4-1.18.45-1.6.04-.82.05-1.24-.09-1.31-.14-.08-.45.37-.72 1.14-.14.36-.3.8-.58 1.1-.23.3-.7.38-.83.25l-.87-.9-.14 1.49a9.19 9.19 0 0 1-.3 1.62c-.16.57-.38 1.1-.65 1.31a.69.69 0 0 1-.42.16c-.1 0-.13 0-.22-.12-.18-.22-.17-.7-.1-1.3.1-1.1.33-1.92.71-2.44l.26-.34-.21-.24c-.59-.64-.76-1.23-.94-1.18-.13 0-.29.51.03 1.32-.48.47-.83 1.2-1.06 2-1.36-3.76 1.82-6.53 3.91-9.37a14.72 14.72 0 0 0 3.06-7.25c.58-4.2-.49-8.64 1.64-12.55.85-1.57 1.77-2.16 2.4-3.45.15 1.14.43 2.14.77 2.9.51 1.21 1.05 1.84 1.23 1.76.41-.2-.72-3.1-.57-6.78.07-3.7 1.35-6.53.96-6.74-.13-.07-.48.23-.9.86 0-.25 0-.48-.03-.72-.53-4.86-1.3-11.12 4.51-13.25 2.38-.87 4.9-1.33 7.35-2.04"/>
  <path fill="#f2f2f2" d="m268.29 279.56-.02.04c-.1.61-2.75 2.23-5 3.46.03-.47-.02-.93-.21-1.41-.37-.89-1.1-1.1-1.59-1.83-1.42-2.1 1-2.75 2.2-3.62.54-.38.94-.78 1.25-1.3.04.04.06.08.11.1.84.73 1.73.75 2.58.4l.03 1.14c.04.8.37 1.9.65 3.02M268.63 282.12c-.06 1.45-.79 2.6-3.13 2.81-.35-.04-.73.08-1.05.45-2.58 3.12-9.41 4.56-13.07 2.17-.94-.63-1.42-1.35-1.56-2.11 3.98 1.4 8.37 1.74 12.29-.06 2.2-1 5.01-1.47 6.52-3.26M262.95 273.13c.4.2.68.45.96.73-.84 1.66-3.05 1.98-4 3.52a8.67 8.67 0 0 0-3.05-1c.11-.11.23-.2.33-.28 1.11-.98 1.9-2.03 2.49-3.13.06 0 .13 0 .2-.02 1.01-.3 2.09-.3 3.07.18"/>
  <path fill="#f2f2f2" d="M259.48 278.74c-.02 1.97 2.73 2.53 2.4 4.71-.03.13 0 .24.02.34-.72.38-1.31.67-1.59.77-3.31 1.28-7.1.65-10.4-.56.64-2.22 3.3-4.61 5.33-6.3a7.16 7.16 0 0 1 4.24 1.04"/>
  <g clip-path="url(#a)">
    <path fill="#57bda9" d="M215.68 116.13a30.93 30.93 0 0 0-9.08-19.47 31.2 31.2 0 0 0-19.3-9v29c-.9-.34-1.94-.54-3.09-.6-2.78-.13-5.96.62-8.94 2.12a18.44 18.44 0 0 0-7.04 5.88c-1.8 2.67-2.17 5.36-1.05 7.57 1.12 2.21 3.5 3.52 6.73 3.67l.64.02c2.62 0 5.54-.75 8.3-2.13a18.46 18.46 0 0 0 7.04-5.89 8.8 8.8 0 0 0 1.68-4.92V99.14s19.65-1.39 24.1 17"/>
  </g>
  <g clip-path="url(#b)">
    <path fill="#ed166d" d="M228.67 137.2a26.19 26.19 0 0 0-14.74-10.41 26.3 26.3 0 0 0-17.81 1.42l.83 1.45.95 1.66 10.33 18c-.8.14-1.64.43-2.5.86a15.47 15.47 0 0 0-5.62 5.24 15.42 15.42 0 0 0-2.67 7.2c-.19 2.68.66 4.8 2.4 5.94 1.74 1.15 4.02 1.11 6.43-.1l.48-.26a15.86 15.86 0 0 0 5.15-4.99 15.34 15.34 0 0 0 2.66-7.2 7.4 7.4 0 0 0-.83-4.28l-9.71-16.92s13.73-9.15 24.65 2.39"/>
  </g>
  <g clip-path="url(#c)">
    <path fill="#f68c11" d="M244.79 87.18a19.35 19.35 0 0 0-18.8-6.42l.37 1.17.41 1.34 4.54 14.57c-.6-.03-1.25.04-1.93.22-1.67.42-3.4 1.44-4.88 2.87a11.32 11.32 0 0 0-3.07 4.75c-.57 1.89-.3 3.54.77 4.64 1.07 1.1 2.71 1.44 4.64.94l.38-.1a11.65 11.65 0 0 0 4.5-2.77 11.32 11.32 0 0 0 3.06-4.75 5.4 5.4 0 0 0 .1-3.2l-4.27-13.69s11.32-4.39 17.31 5.63a18.98 18.98 0 0 0-3.13-5.2"/>
  </g>
</svg>
