<svg xmlns="http://www.w3.org/2000/svg" xmlns:xlink="http://www.w3.org/1999/xlink" width="500" zoomAndPan="magnify" viewBox="0 0 375 374.999991" height="500" preserveAspectRatio="xMidYMid meet" version="1.0"><path fill="#ffffff" d="M 251.785156 182.007812 L 251.785156 158.371094 C 251.785156 152.878906 247.300781 148.324219 241.742188 148.324219 L 240.066406 148.324219 L 240.066406 3.347656 C 240.066406 1.472656 238.59375 0 236.71875 0 C 234.910156 0 233.371094 1.472656 233.371094 3.347656 L 233.371094 148.324219 L 216.761719 148.324219 L 216.761719 3.347656 C 216.761719 1.472656 215.222656 0 213.414062 0 C 211.539062 0 210.066406 1.472656 210.066406 3.347656 L 210.066406 148.324219 L 208.394531 148.324219 C 202.902344 148.324219 198.347656 152.878906 198.347656 158.371094 L 198.347656 182.007812 C 190.582031 184.621094 183.28125 188.371094 176.71875 193.125 L 176.71875 190.914062 C 176.71875 185.425781 172.164062 180.871094 166.675781 180.871094 L 165 180.871094 L 165 35.894531 C 165 34.019531 163.527344 32.542969 161.652344 32.542969 C 159.84375 32.542969 158.304688 34.019531 158.304688 35.894531 L 158.304688 180.871094 L 141.695312 180.871094 L 141.695312 35.894531 C 141.695312 34.019531 140.15625 32.542969 138.347656 32.542969 C 136.472656 32.542969 135 34.019531 135 35.894531 L 135 180.871094 L 133.324219 180.871094 C 127.769531 180.871094 123.28125 185.425781 123.28125 190.914062 L 123.28125 214.554688 C 90.601562 225.601562 66.964844 256.339844 66.964844 292.5 C 66.964844 337.96875 104.261719 375 150 375 C 177.054688 375 201.09375 361.941406 216.292969 341.988281 C 219.175781 342.253906 222.121094 342.457031 225.066406 342.457031 C 270.804688 342.457031 308.035156 305.425781 308.035156 259.957031 C 308.035156 223.792969 284.464844 193.058594 251.785156 182.007812 Z M 205.042969 158.371094 C 205.042969 156.5625 206.585938 155.023438 208.394531 155.023438 L 241.742188 155.023438 C 243.550781 155.023438 245.089844 156.5625 245.089844 158.371094 L 245.089844 180.066406 C 238.660156 178.460938 231.964844 177.523438 225.066406 177.523438 C 218.167969 177.523438 211.472656 178.460938 205.042969 180.066406 Z M 129.976562 190.914062 C 129.976562 189.105469 131.519531 187.566406 133.324219 187.566406 L 166.675781 187.566406 C 168.480469 187.566406 170.023438 189.105469 170.023438 190.914062 L 170.023438 212.613281 C 163.59375 211.003906 156.898438 210.066406 150 210.066406 C 143.101562 210.066406 136.40625 211.003906 129.976562 212.613281 Z M 150 368.304688 C 107.945312 368.304688 73.660156 334.285156 73.660156 292.5 C 73.660156 250.714844 107.945312 216.761719 150 216.761719 C 192.054688 216.761719 226.273438 250.714844 226.273438 292.5 C 226.273438 334.285156 192.054688 368.304688 150 368.304688 Z M 190.582031 220.648438 C 199.820312 212.679688 211.875 207.789062 225.066406 207.789062 C 254.0625 207.789062 277.632812 231.226562 277.632812 259.957031 C 277.632812 286.941406 257.007812 309.175781 230.558594 311.917969 C 232.097656 305.691406 232.96875 299.195312 232.96875 292.5 C 232.96875 261.695312 215.894531 234.84375 190.582031 220.648438 Z M 225.066406 335.757812 C 223.59375 335.757812 222.121094 335.625 220.648438 335.558594 C 223.929688 330.269531 226.605469 324.644531 228.617188 318.683594 C 259.6875 316.875 284.332031 291.292969 284.332031 259.957031 C 284.332031 227.542969 257.746094 201.09375 225.066406 201.09375 C 209.195312 201.09375 194.800781 207.320312 184.152344 217.433594 C 181.742188 216.363281 179.261719 215.425781 176.71875 214.554688 L 176.71875 201.429688 C 189.910156 190.714844 206.71875 184.21875 225.066406 184.21875 C 267.121094 184.21875 301.339844 218.238281 301.339844 259.957031 C 301.339844 301.742188 267.121094 335.757812 225.066406 335.757812 Z M 225.066406 335.757812 " fill-opacity="1" fill-rule="nonzero"/><path fill="#ffffff" d="M 150 233.636719 C 117.320312 233.636719 90.738281 260.023438 90.738281 292.5 C 90.738281 324.976562 117.320312 351.429688 150 351.429688 C 182.679688 351.429688 209.261719 324.976562 209.261719 292.5 C 209.261719 260.023438 182.679688 233.636719 150 233.636719 Z M 150 344.730469 C 121.003906 344.730469 97.433594 321.292969 97.433594 292.5 C 97.433594 265.582031 118.058594 243.347656 144.507812 240.601562 C 142.96875 246.832031 142.097656 253.324219 142.097656 259.957031 C 142.097656 290.824219 159.175781 317.679688 184.488281 331.808594 C 175.246094 339.84375 163.191406 344.730469 150 344.730469 Z M 189.441406 326.917969 C 165.269531 314.195312 148.792969 289.019531 148.792969 259.957031 C 148.792969 253.191406 149.730469 246.628906 151.472656 240.402344 C 157.300781 240.535156 162.925781 241.675781 168.148438 243.617188 C 166.675781 248.839844 165.804688 254.332031 165.804688 259.957031 C 165.804688 282.992188 179.128906 302.878906 198.550781 312.589844 C 196.273438 317.878906 193.191406 322.699219 189.441406 326.917969 Z M 172.5 259.957031 C 172.5 255.269531 173.167969 250.714844 174.375 246.292969 C 191.117188 255.066406 202.566406 272.476562 202.566406 292.5 C 202.566406 297.253906 201.898438 301.808594 200.691406 306.160156 C 183.949219 297.457031 172.5 280.042969 172.5 259.957031 Z M 172.5 259.957031 " fill-opacity="1" fill-rule="nonzero"/></svg>