<svg xmlns="http://www.w3.org/2000/svg" xmlns:xlink="http://www.w3.org/1999/xlink" width="500" zoomAndPan="magnify" viewBox="0 0 375 374.999991" height="500" preserveAspectRatio="xMidYMid meet" version="1.0"><defs><clipPath id="e1289cc4b9"><path d="M 3 26.25 L 343 26.25 L 343 348 L 3 348 Z M 3 26.25 " clip-rule="nonzero"/></clipPath></defs><g clip-path="url(#e1289cc4b9)"><path fill="#ffffff" d="M 339.636719 256.347656 C 329.175781 241.78125 316.746094 229.152344 302.34375 218.460938 C 264.1875 190.214844 216.734375 184.003906 174.304688 203.324219 C 171.320312 198.816406 167.96875 194.601562 164.25 190.671875 C 160.535156 186.746094 156.507812 183.167969 152.171875 179.9375 C 147.835938 176.710938 143.253906 173.878906 138.425781 171.441406 C 133.601562 169.007812 128.601562 167.003906 123.425781 165.433594 C 122.253906 160.054688 121.515625 154.617188 121.207031 149.117188 L 182.808594 149.117188 C 182.199219 160.644531 179.738281 171.761719 175.421875 182.46875 C 175.277344 182.820312 175.167969 183.183594 175.09375 183.558594 C 175.019531 183.933594 174.984375 184.3125 174.988281 184.695312 C 174.988281 185.078125 175.027344 185.457031 175.105469 185.832031 C 175.179688 186.207031 175.292969 186.570312 175.441406 186.921875 C 175.589844 187.273438 175.769531 187.609375 175.984375 187.925781 C 176.199219 188.242188 176.445312 188.535156 176.714844 188.800781 C 176.988281 189.070312 177.285156 189.308594 177.605469 189.519531 C 177.925781 189.726562 178.261719 189.90625 178.617188 190.046875 C 178.96875 190.191406 179.335938 190.296875 179.710938 190.367188 C 180.085938 190.4375 180.464844 190.472656 180.847656 190.46875 C 181.230469 190.460938 181.609375 190.421875 181.984375 190.339844 C 182.355469 190.261719 182.71875 190.148438 183.070312 189.996094 C 183.421875 189.84375 183.753906 189.660156 184.070312 189.445312 C 184.382812 189.226562 184.675781 188.980469 184.941406 188.707031 C 185.207031 188.433594 185.445312 188.136719 185.652344 187.8125 C 185.859375 187.492188 186.03125 187.15625 186.171875 186.796875 C 191.050781 174.707031 193.800781 162.152344 194.425781 149.128906 L 220.242188 149.128906 L 220.242188 181.089844 C 220.242188 181.472656 220.28125 181.847656 220.355469 182.222656 C 220.429688 182.59375 220.539062 182.957031 220.683594 183.308594 C 220.828125 183.660156 221.007812 183.992188 221.21875 184.308594 C 221.429688 184.625 221.671875 184.917969 221.941406 185.1875 C 222.210938 185.457031 222.5 185.699219 222.816406 185.910156 C 223.132812 186.121094 223.46875 186.300781 223.820312 186.445312 C 224.171875 186.589844 224.535156 186.699219 224.90625 186.773438 C 225.28125 186.847656 225.65625 186.886719 226.039062 186.886719 C 226.417969 186.886719 226.796875 186.847656 227.167969 186.773438 C 227.542969 186.699219 227.902344 186.589844 228.253906 186.445312 C 228.605469 186.300781 228.941406 186.121094 229.257812 185.910156 C 229.574219 185.699219 229.867188 185.457031 230.136719 185.1875 C 230.40625 184.917969 230.644531 184.625 230.855469 184.308594 C 231.066406 183.992188 231.246094 183.660156 231.390625 183.308594 C 231.539062 182.957031 231.648438 182.59375 231.722656 182.222656 C 231.796875 181.847656 231.832031 181.472656 231.832031 181.089844 L 231.832031 149.105469 L 256.335938 149.105469 C 256.960938 162.128906 259.707031 174.683594 264.585938 186.777344 C 264.726562 187.128906 264.902344 187.464844 265.109375 187.78125 C 265.320312 188.101562 265.554688 188.394531 265.824219 188.667969 C 266.089844 188.941406 266.378906 189.183594 266.695312 189.398438 C 267.007812 189.613281 267.339844 189.792969 267.691406 189.941406 C 268.039062 190.09375 268.402344 190.207031 268.773438 190.285156 C 269.148438 190.359375 269.523438 190.402344 269.902344 190.40625 C 270.285156 190.410156 270.660156 190.375 271.035156 190.304688 C 271.410156 190.234375 271.773438 190.128906 272.125 189.984375 C 272.480469 189.84375 272.816406 189.667969 273.132812 189.460938 C 273.453125 189.25 273.746094 189.015625 274.019531 188.746094 C 274.289062 188.480469 274.535156 188.191406 274.75 187.875 C 274.964844 187.5625 275.144531 187.230469 275.292969 186.878906 C 275.441406 186.53125 275.554688 186.167969 275.632812 185.796875 C 275.710938 185.421875 275.753906 185.046875 275.757812 184.667969 C 275.761719 184.285156 275.726562 183.910156 275.65625 183.535156 C 275.585938 183.160156 275.480469 182.796875 275.335938 182.445312 C 271.027344 171.742188 268.570312 160.628906 267.964844 149.105469 L 330.351562 149.105469 C 330.101562 153.855469 329.53125 158.5625 328.636719 163.234375 C 327.742188 167.902344 326.53125 172.488281 325.007812 176.992188 C 323.484375 181.496094 321.660156 185.875 319.535156 190.125 C 317.414062 194.378906 315.007812 198.46875 312.320312 202.390625 C 312.105469 202.703125 311.925781 203.035156 311.773438 203.386719 C 311.625 203.734375 311.511719 204.097656 311.433594 204.46875 C 311.355469 204.839844 311.3125 205.21875 311.308594 205.597656 C 311.304688 205.980469 311.335938 206.355469 311.40625 206.730469 C 311.476562 207.105469 311.582031 207.46875 311.722656 207.820312 C 311.867188 208.175781 312.039062 208.511719 312.25 208.828125 C 312.457031 209.148438 312.691406 209.441406 312.957031 209.714844 C 313.222656 209.988281 313.515625 210.230469 313.828125 210.445312 C 314.140625 210.660156 314.472656 210.84375 314.824219 210.992188 C 315.171875 211.140625 315.535156 211.257812 315.90625 211.335938 C 316.277344 211.414062 316.65625 211.457031 317.035156 211.460938 C 317.417969 211.464844 317.792969 211.433594 318.167969 211.363281 C 318.542969 211.292969 318.90625 211.1875 319.257812 211.046875 C 319.609375 210.902344 319.945312 210.730469 320.265625 210.523438 C 320.585938 210.3125 320.878906 210.078125 321.152344 209.8125 C 321.425781 209.546875 321.667969 209.253906 321.882812 208.941406 C 374.746094 133.199219 318.265625 26.152344 225.785156 26.972656 C 154.71875 26.296875 98.605469 92.730469 111.101562 162.652344 C 105.042969 161.6875 98.949219 161.332031 92.820312 161.574219 C 86.691406 161.816406 80.648438 162.660156 74.6875 164.097656 C 35.507812 173.050781 4.980469 209.757812 3.632812 249.984375 L 3.632812 250.027344 C 3.628906 250.054688 3.628906 250.085938 3.632812 250.113281 C 0.316406 302.054688 44.597656 348.535156 96.601562 347.707031 C 140.460938 348.464844 181.238281 314.300781 188.210938 271.164062 L 194.050781 271.164062 L 194.050781 284.425781 C 194.050781 284.804688 194.089844 285.179688 194.164062 285.554688 C 194.238281 285.925781 194.347656 286.289062 194.492188 286.640625 C 194.636719 286.992188 194.816406 287.328125 195.027344 287.644531 C 195.238281 287.960938 195.480469 288.253906 195.75 288.523438 C 196.019531 288.789062 196.3125 289.03125 196.625 289.242188 C 196.941406 289.453125 197.277344 289.632812 197.628906 289.777344 C 197.980469 289.921875 198.34375 290.035156 198.714844 290.109375 C 199.089844 290.183594 199.464844 290.21875 199.847656 290.21875 C 200.226562 290.21875 200.605469 290.183594 200.976562 290.109375 C 201.351562 290.035156 201.710938 289.921875 202.0625 289.777344 C 202.414062 289.632812 202.75 289.453125 203.066406 289.242188 C 203.382812 289.03125 203.675781 288.789062 203.945312 288.523438 C 204.214844 288.253906 204.453125 287.960938 204.664062 287.644531 C 204.875 287.328125 205.054688 286.992188 205.199219 286.640625 C 205.347656 286.289062 205.457031 285.925781 205.53125 285.554688 C 205.605469 285.179688 205.640625 284.804688 205.640625 284.425781 L 205.640625 271.164062 L 219.589844 271.164062 L 219.589844 284.425781 C 219.589844 284.804688 219.628906 285.179688 219.703125 285.554688 C 219.777344 285.925781 219.886719 286.289062 220.03125 286.640625 C 220.175781 286.992188 220.355469 287.328125 220.566406 287.644531 C 220.777344 287.960938 221.019531 288.253906 221.289062 288.523438 C 221.558594 288.789062 221.851562 289.03125 222.167969 289.242188 C 222.484375 289.453125 222.816406 289.632812 223.167969 289.777344 C 223.519531 289.921875 223.882812 290.035156 224.253906 290.109375 C 224.628906 290.183594 225.003906 290.21875 225.386719 290.21875 C 225.765625 290.21875 226.144531 290.183594 226.515625 290.109375 C 226.890625 290.035156 227.25 289.921875 227.601562 289.777344 C 227.953125 289.632812 228.289062 289.453125 228.605469 289.242188 C 228.921875 289.03125 229.214844 288.789062 229.484375 288.523438 C 229.753906 288.253906 229.992188 287.960938 230.203125 287.644531 C 230.414062 287.328125 230.59375 286.992188 230.738281 286.640625 C 230.886719 286.289062 230.996094 285.925781 231.070312 285.554688 C 231.144531 285.179688 231.179688 284.804688 231.179688 284.425781 L 231.179688 271.164062 L 245.128906 271.164062 L 245.128906 284.425781 C 245.128906 284.804688 245.167969 285.179688 245.242188 285.554688 C 245.316406 285.925781 245.425781 286.289062 245.570312 286.640625 C 245.714844 286.992188 245.894531 287.328125 246.105469 287.644531 C 246.316406 287.960938 246.558594 288.253906 246.828125 288.523438 C 247.097656 288.789062 247.390625 289.03125 247.707031 289.242188 C 248.023438 289.453125 248.355469 289.632812 248.707031 289.777344 C 249.058594 289.921875 249.421875 290.035156 249.792969 290.109375 C 250.167969 290.183594 250.542969 290.21875 250.925781 290.21875 C 251.304688 290.21875 251.683594 290.183594 252.054688 290.109375 C 252.429688 290.035156 252.792969 289.921875 253.144531 289.777344 C 253.496094 289.632812 253.828125 289.453125 254.144531 289.242188 C 254.460938 289.03125 254.753906 288.789062 255.023438 288.523438 C 255.292969 288.253906 255.53125 287.960938 255.742188 287.644531 C 255.953125 287.328125 256.132812 286.992188 256.277344 286.640625 C 256.425781 286.289062 256.535156 285.925781 256.609375 285.554688 C 256.683594 285.179688 256.71875 284.804688 256.71875 284.425781 L 256.71875 271.164062 L 293.371094 271.164062 L 293.371094 304.351562 C 260.605469 327.421875 222.132812 333.4375 185.660156 319.601562 C 185.304688 319.464844 184.9375 319.367188 184.5625 319.304688 C 184.1875 319.238281 183.808594 319.214844 183.429688 319.226562 C 183.050781 319.238281 182.675781 319.285156 182.304688 319.371094 C 181.933594 319.457031 181.574219 319.578125 181.226562 319.734375 C 180.878906 319.890625 180.550781 320.078125 180.242188 320.296875 C 179.929688 320.519531 179.644531 320.769531 179.382812 321.042969 C 179.125 321.320312 178.890625 321.621094 178.691406 321.945312 C 178.488281 322.265625 178.320312 322.605469 178.183594 322.960938 C 178.050781 323.316406 177.949219 323.683594 177.886719 324.058594 C 177.824219 324.433594 177.796875 324.8125 177.808594 325.191406 C 177.820312 325.570312 177.871094 325.949219 177.953125 326.320312 C 178.039062 326.691406 178.160156 327.046875 178.316406 327.394531 C 178.472656 327.742188 178.660156 328.070312 178.882812 328.382812 C 179.101562 328.691406 179.351562 328.976562 179.628906 329.238281 C 179.90625 329.5 180.207031 329.730469 180.527344 329.933594 C 180.851562 330.132812 181.191406 330.300781 181.546875 330.4375 C 222.65625 346.035156 265.8125 338.925781 302.066406 312.433594 C 302.527344 312.171875 302.945312 311.855469 303.316406 311.476562 C 317.273438 300.941406 329.378906 288.585938 339.621094 274.414062 C 340.078125 273.753906 340.480469 273.0625 340.832031 272.339844 C 341.183594 271.621094 341.476562 270.875 341.714844 270.109375 C 341.953125 269.34375 342.132812 268.566406 342.253906 267.773438 C 342.375 266.980469 342.4375 266.183594 342.4375 265.382812 C 342.4375 264.578125 342.378906 263.78125 342.257812 262.988281 C 342.140625 262.195312 341.960938 261.417969 341.722656 260.652344 C 341.484375 259.886719 341.191406 259.140625 340.84375 258.421875 C 340.492188 257.699219 340.089844 257.007812 339.636719 256.347656 Z M 168.554688 216.359375 C 171.132812 221.167969 173.195312 226.1875 174.742188 231.421875 C 176.289062 236.652344 177.292969 241.984375 177.75 247.421875 L 173.984375 250.824219 L 154.359375 239.503906 L 159.070312 217.351562 Z M 114.914062 181.519531 L 96.601562 194.824219 L 78.292969 181.519531 L 80.511719 174.703125 C 85.820312 173.621094 91.183594 173.082031 96.601562 173.082031 C 102.023438 173.082031 107.386719 173.621094 112.695312 174.703125 Z M 194.417969 137.515625 C 194.234375 133.96875 193.894531 130.4375 193.390625 126.917969 C 192.886719 123.402344 192.222656 119.914062 191.402344 116.460938 C 190.578125 113.003906 189.601562 109.59375 188.46875 106.226562 C 187.332031 102.859375 186.046875 99.550781 184.609375 96.300781 C 183.175781 93.050781 181.59375 89.875 179.863281 86.769531 C 178.136719 83.664062 176.273438 80.644531 174.269531 77.710938 C 172.265625 74.777344 170.132812 71.941406 167.871094 69.203125 C 165.609375 66.460938 163.226562 63.832031 160.722656 61.3125 C 164.945312 57.941406 169.40625 54.917969 174.097656 52.242188 C 178.792969 49.566406 183.664062 47.269531 188.714844 45.351562 C 193.765625 43.433594 198.933594 41.917969 204.21875 40.804688 C 209.507812 39.691406 214.847656 38.992188 220.242188 38.710938 L 220.242188 137.515625 Z M 231.832031 38.753906 C 237.136719 39.058594 242.382812 39.761719 247.578125 40.867188 C 252.773438 41.972656 257.851562 43.46875 262.820312 45.351562 C 267.785156 47.234375 272.578125 49.484375 277.199219 52.097656 C 281.824219 54.714844 286.21875 57.667969 290.390625 60.953125 C 287.859375 63.480469 285.453125 66.113281 283.167969 68.863281 C 280.882812 71.609375 278.726562 74.453125 276.703125 77.398438 C 274.675781 80.34375 272.792969 83.375 271.046875 86.492188 C 269.300781 89.613281 267.703125 92.804688 266.25 96.070312 C 264.800781 99.335938 263.5 102.660156 262.355469 106.046875 C 261.210938 109.429688 260.222656 112.859375 259.394531 116.335938 C 258.5625 119.8125 257.894531 123.320312 257.386719 126.855469 C 256.882812 130.394531 256.539062 133.949219 256.359375 137.515625 L 231.832031 137.515625 Z M 330.386719 137.515625 L 267.960938 137.515625 C 268.140625 134.296875 268.46875 131.089844 268.945312 127.898438 C 269.421875 124.710938 270.042969 121.546875 270.8125 118.414062 C 271.582031 115.28125 272.492188 112.191406 273.546875 109.140625 C 274.597656 106.089844 275.789062 103.097656 277.121094 100.160156 C 278.449219 97.21875 279.910156 94.347656 281.503906 91.542969 C 283.101562 88.738281 284.820312 86.015625 286.667969 83.367188 C 288.511719 80.722656 290.476562 78.167969 292.558594 75.703125 C 294.640625 73.238281 296.828125 70.875 299.128906 68.613281 C 301.4375 70.871094 303.636719 73.226562 305.726562 75.6875 C 307.816406 78.148438 309.785156 80.703125 311.640625 83.347656 C 313.492188 85.988281 315.21875 88.714844 316.816406 91.519531 C 318.417969 94.320312 319.886719 97.195312 321.21875 100.132812 C 322.550781 103.074219 323.746094 106.070312 324.800781 109.121094 C 325.859375 112.171875 326.769531 115.265625 327.539062 118.398438 C 328.308594 121.535156 328.929688 124.699219 329.40625 127.890625 C 329.882812 131.085938 330.207031 134.292969 330.386719 137.515625 Z M 152.035156 69 C 154.308594 71.257812 156.46875 73.617188 158.523438 76.074219 C 160.582031 78.53125 162.519531 81.074219 164.339844 83.710938 C 166.164062 86.34375 167.859375 89.054688 169.433594 91.84375 C 171.007812 94.632812 172.453125 97.488281 173.761719 100.410156 C 175.074219 103.332031 176.25 106.308594 177.292969 109.335938 C 178.332031 112.367188 179.230469 115.4375 179.988281 118.550781 C 180.75 121.660156 181.363281 124.800781 181.835938 127.96875 C 182.304688 131.136719 182.632812 134.320312 182.8125 137.515625 L 121.199219 137.515625 C 121.375 134.316406 121.695312 131.132812 122.164062 127.960938 C 122.632812 124.792969 123.25 121.648438 124.007812 118.535156 C 124.765625 115.421875 125.664062 112.351562 126.707031 109.320312 C 127.746094 106.289062 128.925781 103.3125 130.242188 100.390625 C 131.558594 97.46875 133.003906 94.609375 134.582031 91.820312 C 136.160156 89.03125 137.863281 86.320312 139.691406 83.691406 C 141.519531 81.058594 143.464844 78.515625 145.527344 76.0625 C 147.585938 73.609375 149.757812 71.253906 152.035156 69 Z M 15.507812 246.589844 C 16 241.3125 17.007812 236.132812 18.539062 231.058594 C 20.066406 225.980469 22.085938 221.109375 24.59375 216.4375 L 33.480469 217.367188 L 38.191406 239.511719 L 18.59375 250.8125 L 15.40625 247.945312 C 15.441406 247.496094 15.46875 247.046875 15.507812 246.589844 Z M 72.152344 332.328125 C 66.800781 330.65625 61.679688 328.449219 56.785156 325.707031 C 51.894531 322.960938 47.339844 319.742188 43.121094 316.046875 L 43.917969 311.253906 L 66.304688 307.851562 L 76.449219 328.082031 Z M 85.605469 335.347656 L 87.601562 333.378906 C 88.039062 332.949219 88.398438 332.460938 88.679688 331.917969 C 88.960938 331.375 89.152344 330.800781 89.253906 330.195312 C 89.351562 329.589844 89.355469 328.984375 89.265625 328.378906 C 89.171875 327.773438 88.988281 327.199219 88.714844 326.648438 L 74.777344 298.890625 C 74.503906 298.34375 74.152344 297.851562 73.722656 297.417969 C 73.292969 296.980469 72.804688 296.625 72.261719 296.34375 C 71.71875 296.0625 71.144531 295.871094 70.542969 295.769531 C 69.9375 295.671875 69.332031 295.667969 68.726562 295.757812 L 38.015625 300.425781 C 37.371094 300.523438 36.765625 300.722656 36.1875 301.027344 C 35.613281 301.328125 35.101562 301.714844 34.65625 302.1875 C 34.210938 302.660156 33.855469 303.191406 33.585938 303.78125 C 33.316406 304.375 33.152344 304.992188 33.089844 305.640625 C 30.660156 302.613281 28.460938 299.425781 26.484375 296.085938 C 24.511719 292.746094 22.78125 289.28125 21.300781 285.695312 C 19.816406 282.109375 18.597656 278.4375 17.636719 274.675781 C 16.675781 270.914062 15.988281 267.105469 15.570312 263.25 C 16.40625 263.617188 17.28125 263.773438 18.191406 263.722656 C 19.105469 263.671875 19.953125 263.417969 20.746094 262.957031 L 47.636719 247.425781 C 48.167969 247.121094 48.636719 246.742188 49.046875 246.285156 C 49.453125 245.832031 49.78125 245.324219 50.03125 244.765625 C 50.28125 244.207031 50.4375 243.621094 50.5 243.015625 C 50.5625 242.40625 50.53125 241.800781 50.402344 241.203125 L 43.941406 210.824219 C 43.816406 210.226562 43.597656 209.664062 43.292969 209.132812 C 42.984375 208.601562 42.605469 208.132812 42.152344 207.722656 C 41.695312 207.3125 41.1875 206.984375 40.628906 206.734375 C 40.070312 206.488281 39.488281 206.332031 38.878906 206.269531 L 31.5625 205.503906 C 36.125 199.480469 41.421875 194.191406 47.449219 189.632812 C 53.472656 185.074219 60.003906 181.417969 67.042969 178.664062 L 65.96875 181.957031 C 65.78125 182.539062 65.6875 183.136719 65.6875 183.746094 C 65.6875 184.359375 65.78125 184.957031 65.96875 185.539062 C 66.160156 186.121094 66.433594 186.660156 66.792969 187.152344 C 67.152344 187.648438 67.578125 188.074219 68.074219 188.4375 L 93.195312 206.691406 C 93.691406 207.050781 94.230469 207.324219 94.8125 207.515625 C 95.394531 207.703125 95.992188 207.796875 96.601562 207.796875 C 97.214844 207.796875 97.8125 207.703125 98.394531 207.515625 C 98.976562 207.324219 99.515625 207.050781 100.011719 206.691406 L 125.132812 188.4375 C 125.628906 188.074219 126.054688 187.648438 126.414062 187.152344 C 126.773438 186.660156 127.046875 186.121094 127.238281 185.539062 C 127.425781 184.957031 127.519531 184.359375 127.519531 183.746094 C 127.519531 183.136719 127.425781 182.539062 127.234375 181.957031 L 126.167969 178.664062 C 133.183594 181.414062 139.699219 185.0625 145.710938 189.609375 C 151.726562 194.15625 157.011719 199.433594 161.570312 205.4375 L 153.664062 206.261719 C 153.054688 206.324219 152.46875 206.480469 151.910156 206.730469 C 151.351562 206.980469 150.84375 207.308594 150.390625 207.71875 C 149.933594 208.128906 149.554688 208.597656 149.246094 209.125 C 148.941406 209.65625 148.722656 210.222656 148.597656 210.820312 L 142.136719 241.214844 C 142.007812 241.8125 141.976562 242.417969 142.039062 243.027344 C 142.105469 243.632812 142.261719 244.21875 142.507812 244.777344 C 142.757812 245.335938 143.085938 245.84375 143.496094 246.296875 C 143.90625 246.753906 144.375 247.132812 144.90625 247.4375 L 171.824219 262.96875 C 172.269531 263.226562 172.742188 263.421875 173.242188 263.554688 C 173.738281 263.683594 174.246094 263.75 174.761719 263.746094 C 175.277344 263.742188 175.78125 263.667969 176.277344 263.53125 C 176.773438 263.390625 177.242188 263.191406 177.6875 262.925781 C 176.960938 270.164062 175.289062 277.175781 172.671875 283.960938 C 170.050781 290.746094 166.582031 297.066406 162.257812 302.914062 C 161.816406 302.261719 161.261719 301.726562 160.601562 301.300781 C 159.9375 300.878906 159.21875 300.601562 158.441406 300.472656 L 127.757812 295.78125 C 127.152344 295.6875 126.546875 295.691406 125.945312 295.789062 C 125.339844 295.890625 124.765625 296.082031 124.222656 296.363281 C 123.679688 296.644531 123.191406 297 122.761719 297.4375 C 122.332031 297.871094 121.980469 298.363281 121.703125 298.910156 L 107.765625 326.695312 C 107.613281 327.058594 107.488281 327.429688 107.402344 327.8125 C 107.3125 328.195312 107.257812 328.585938 107.238281 328.976562 C 107.222656 329.371094 107.238281 329.761719 107.289062 330.152344 C 107.339844 330.542969 107.425781 330.925781 107.542969 331.296875 C 107.664062 331.671875 107.816406 332.035156 108 332.382812 C 108.183594 332.730469 108.398438 333.058594 108.640625 333.367188 C 108.882812 333.675781 109.152344 333.960938 109.449219 334.222656 C 109.742188 334.484375 110.058594 334.714844 110.394531 334.917969 C 102.152344 336.320312 93.886719 336.464844 85.605469 335.347656 Z M 151.921875 314.421875 C 147.828125 318.230469 143.382812 321.578125 138.585938 324.457031 C 133.792969 327.339844 128.75 329.691406 123.464844 331.519531 L 120.015625 328.113281 L 130.175781 307.855469 L 152.53125 311.277344 L 152.890625 313.488281 C 152.570312 313.800781 152.253906 314.117188 151.921875 314.421875 Z M 256.71875 259.574219 L 256.71875 246.320312 C 256.71875 245.941406 256.683594 245.5625 256.609375 245.191406 C 256.535156 244.816406 256.425781 244.453125 256.277344 244.101562 C 256.132812 243.75 255.953125 243.417969 255.742188 243.101562 C 255.53125 242.785156 255.292969 242.492188 255.023438 242.222656 C 254.753906 241.953125 254.460938 241.714844 254.144531 241.503906 C 253.828125 241.289062 253.496094 241.113281 253.144531 240.964844 C 252.792969 240.820312 252.429688 240.710938 252.054688 240.636719 C 251.683594 240.5625 251.304688 240.527344 250.925781 240.527344 C 250.542969 240.527344 250.167969 240.5625 249.792969 240.636719 C 249.421875 240.710938 249.058594 240.820312 248.707031 240.964844 C 248.355469 241.113281 248.023438 241.289062 247.707031 241.503906 C 247.390625 241.714844 247.097656 241.953125 246.828125 242.222656 C 246.558594 242.492188 246.316406 242.785156 246.105469 243.101562 C 245.894531 243.417969 245.714844 243.75 245.570312 244.101562 C 245.425781 244.453125 245.316406 244.816406 245.242188 245.191406 C 245.167969 245.5625 245.128906 245.941406 245.128906 246.320312 L 245.128906 259.574219 L 231.179688 259.574219 L 231.179688 246.320312 C 231.179688 245.941406 231.144531 245.5625 231.070312 245.191406 C 230.996094 244.816406 230.886719 244.453125 230.738281 244.101562 C 230.59375 243.75 230.414062 243.417969 230.203125 243.101562 C 229.992188 242.785156 229.753906 242.492188 229.484375 242.222656 C 229.214844 241.953125 228.921875 241.714844 228.605469 241.503906 C 228.289062 241.289062 227.953125 241.113281 227.601562 240.964844 C 227.25 240.820312 226.890625 240.710938 226.515625 240.636719 C 226.144531 240.5625 225.765625 240.527344 225.386719 240.527344 C 225.003906 240.527344 224.628906 240.5625 224.253906 240.636719 C 223.882812 240.710938 223.519531 240.820312 223.167969 240.964844 C 222.816406 241.113281 222.484375 241.289062 222.167969 241.503906 C 221.851562 241.714844 221.558594 241.953125 221.289062 242.222656 C 221.019531 242.492188 220.777344 242.785156 220.566406 243.101562 C 220.355469 243.417969 220.175781 243.75 220.03125 244.101562 C 219.886719 244.453125 219.777344 244.816406 219.703125 245.191406 C 219.628906 245.5625 219.589844 245.941406 219.589844 246.320312 L 219.589844 259.574219 L 205.640625 259.574219 L 205.640625 246.320312 C 205.640625 245.941406 205.605469 245.5625 205.53125 245.191406 C 205.457031 244.816406 205.347656 244.453125 205.199219 244.101562 C 205.054688 243.75 204.875 243.417969 204.664062 243.101562 C 204.453125 242.785156 204.214844 242.492188 203.945312 242.222656 C 203.675781 241.953125 203.382812 241.714844 203.066406 241.503906 C 202.75 241.289062 202.414062 241.113281 202.0625 240.964844 C 201.710938 240.820312 201.351562 240.710938 200.976562 240.636719 C 200.605469 240.5625 200.226562 240.527344 199.847656 240.527344 C 199.464844 240.527344 199.089844 240.5625 198.714844 240.636719 C 198.34375 240.710938 197.980469 240.820312 197.628906 240.964844 C 197.277344 241.113281 196.941406 241.289062 196.625 241.503906 C 196.3125 241.714844 196.019531 241.953125 195.75 242.222656 C 195.480469 242.492188 195.238281 242.785156 195.027344 243.101562 C 194.816406 243.417969 194.636719 243.75 194.492188 244.101562 C 194.347656 244.453125 194.238281 244.816406 194.164062 245.191406 C 194.089844 245.5625 194.050781 245.941406 194.050781 246.320312 L 194.050781 259.574219 L 189.5625 259.574219 C 189.761719 256.214844 189.761719 252.855469 189.5625 249.496094 C 189.222656 243.226562 188.253906 237.054688 186.65625 230.980469 C 185.058594 224.910156 182.863281 219.058594 180.074219 213.433594 C 217.679688 196.769531 259.203125 202.003906 293.367188 226.265625 L 293.367188 259.589844 Z M 330.28125 267.558594 C 322.882812 277.742188 314.441406 286.976562 304.960938 295.261719 L 304.960938 235.390625 C 314.441406 243.71875 322.882812 252.992188 330.289062 263.207031 C 330.65625 263.886719 330.835938 264.613281 330.835938 265.382812 C 330.835938 266.15625 330.648438 266.878906 330.28125 267.558594 Z M 330.28125 267.558594 " fill-opacity="1" fill-rule="nonzero"/></g><path fill="#ffffff" d="M 117.640625 280.65625 L 127.230469 251.101562 C 127.417969 250.519531 127.515625 249.921875 127.515625 249.3125 C 127.515625 248.699219 127.421875 248.101562 127.230469 247.519531 C 127.042969 246.9375 126.769531 246.398438 126.410156 245.90625 C 126.050781 245.410156 125.621094 244.984375 125.125 244.621094 L 100 226.367188 C 99.503906 226.007812 98.964844 225.734375 98.382812 225.542969 C 97.800781 225.355469 97.203125 225.261719 96.589844 225.261719 C 95.980469 225.261719 95.382812 225.355469 94.800781 225.542969 C 94.21875 225.734375 93.679688 226.007812 93.183594 226.367188 L 68.058594 244.621094 C 67.5625 244.980469 67.136719 245.410156 66.777344 245.90625 C 66.417969 246.398438 66.140625 246.9375 65.953125 247.519531 C 65.765625 248.101562 65.667969 248.699219 65.667969 249.3125 C 65.667969 249.921875 65.761719 250.519531 65.953125 251.101562 L 75.558594 280.65625 C 75.746094 281.238281 76.019531 281.777344 76.378906 282.269531 C 76.738281 282.765625 77.167969 283.191406 77.660156 283.550781 C 78.15625 283.910156 78.695312 284.183594 79.273438 284.375 C 79.855469 284.5625 80.453125 284.65625 81.0625 284.660156 L 112.132812 284.660156 C 112.742188 284.660156 113.339844 284.5625 113.921875 284.375 C 114.503906 284.1875 115.042969 283.914062 115.535156 283.554688 C 116.03125 283.195312 116.460938 282.765625 116.820312 282.273438 C 117.179688 281.777344 117.453125 281.238281 117.640625 280.65625 Z M 85.28125 273.0625 L 78.289062 251.535156 L 96.601562 238.226562 L 114.914062 251.535156 L 107.921875 273.0625 Z M 85.28125 273.0625 " fill-opacity="1" fill-rule="nonzero"/></svg>