<svg xmlns="http://www.w3.org/2000/svg" xmlns:xlink="http://www.w3.org/1999/xlink" width="500" zoomAndPan="magnify" viewBox="0 0 375 374.999991" height="500" preserveAspectRatio="xMidYMid meet" version="1.0"><defs><clipPath id="b33a382b48"><path d="M 0 79.921875 L 375 79.921875 L 375 295.171875 L 0 295.171875 Z M 0 79.921875 " clip-rule="nonzero"/></clipPath></defs><g clip-path="url(#b33a382b48)"><path fill="#ffffff" d="M 337.585938 191.625 C 317.644531 184.652344 290.128906 179.554688 255.945312 176.554688 L 255.945312 103.460938 C 255.945312 98.738281 259.84375 94.765625 264.640625 94.765625 C 269.4375 94.765625 273.261719 98.738281 273.261719 103.460938 L 273.261719 118.90625 C 273.261719 123.027344 276.5625 126.328125 280.683594 126.328125 C 284.808594 126.328125 288.105469 123.027344 288.105469 118.90625 L 288.105469 103.460938 C 288.179688 90.492188 277.609375 79.921875 264.640625 79.921875 C 251.671875 79.921875 241.101562 90.492188 241.101562 103.460938 L 241.101562 125.953125 L 201.292969 125.953125 L 201.292969 103.460938 C 201.292969 98.738281 205.191406 94.765625 209.988281 94.765625 C 214.789062 94.765625 218.6875 98.664062 218.6875 103.460938 L 218.6875 111.707031 C 218.6875 115.832031 221.984375 119.128906 226.109375 119.128906 C 230.230469 119.128906 233.53125 115.832031 233.53125 111.707031 L 233.53125 103.460938 C 233.53125 90.492188 222.960938 79.921875 209.988281 79.921875 C 197.019531 79.921875 186.449219 90.492188 186.449219 103.460938 L 186.449219 221.460938 C 186.375 225.582031 189.675781 228.882812 193.871094 228.882812 C 197.996094 228.882812 201.292969 225.582031 201.292969 221.460938 L 201.292969 213.214844 L 241.101562 213.214844 L 241.101562 228.65625 C 241.101562 232.78125 244.398438 236.078125 248.523438 236.078125 C 252.648438 236.078125 255.945312 232.78125 255.945312 228.65625 L 255.945312 191.472656 C 287.957031 194.398438 314.417969 199.269531 332.710938 205.71875 C 350.105469 211.789062 360.148438 219.359375 360.148438 226.40625 C 360.148438 229.40625 360.148438 235.628906 340.433594 239.828125 C 324.691406 243.199219 300.925781 244.175781 273.414062 245.375 C 267.039062 245.675781 260.367188 245.898438 253.472656 246.273438 C 237.054688 247.023438 221.984375 254.144531 210.964844 266.214844 C 202.867188 275.136719 191.324219 280.234375 179.253906 280.234375 L 179.027344 280.234375 C 128.574219 280.234375 85.84375 274.988281 55.40625 264.941406 C 29.769531 256.542969 15.074219 245.300781 15.074219 234.203125 C 15.074219 214.5625 61.703125 192.597656 150.914062 188.847656 C 155.039062 188.699219 158.1875 185.175781 158.039062 181.128906 C 157.886719 177.003906 154.363281 173.78125 150.316406 174.003906 C 57.582031 177.902344 0.0820312 200.992188 0.0820312 234.203125 C 0.0820312 247.097656 8.851562 265.316406 50.683594 279.035156 C 82.621094 289.53125 126.925781 295.078125 178.953125 295.078125 L 179.179688 295.078125 C 195.371094 295.078125 210.964844 288.179688 221.910156 276.1875 C 230.230469 267.039062 241.703125 261.644531 254.070312 261.117188 C 260.96875 260.816406 267.566406 260.519531 273.9375 260.21875 C 303.324219 258.945312 326.488281 257.96875 343.433594 254.371094 C 351.230469 252.722656 374.917969 247.625 374.917969 226.40625 C 374.917969 211.9375 362.324219 200.246094 337.585938 191.625 Z M 241.027344 198.296875 L 201.21875 198.296875 L 201.21875 177.003906 L 241.027344 177.003906 Z M 241.027344 162.160156 L 201.21875 162.160156 L 201.21875 140.871094 L 241.027344 140.871094 Z M 241.027344 162.160156 " fill-opacity="1" fill-rule="nonzero"/></g></svg>