<svg xmlns="http://www.w3.org/2000/svg" width="500" viewBox="0 0 375 375" height="500" version="1.0">
  <defs>
    <clipPath id="a">
      <path d="M3.05 111H362v59H3.05Zm0 0"/>
    </clipPath>
  </defs>
  <path fill="#e81d20" d="M235.52 153.58c-1.5-8.09-2.02-20.67-2.24-24.11-.1-1.43-.01-2.58-.1-3.62h-.76c-.44.02-.88.02-1.3.02a76.06 76.06 0 0 1-16.3-1.98c-2.81-.65-5.65-1.1-8.52-1.35-.5-.04-1.05-.05-1.6-.05-4.7 0-10.19 1.1-14.21 1.91-2.1.42-3.91.78-5.36.97-2.12.2-4.25.3-6.39.26-2.17 0-4.5-.05-6.55-.1h-.16c-1.9-.04-3.45-.07-4.65-.07h-.8c-1.33.03-4.23 1.5-6.99 3.16-.14 1-.34 1.97-.59 2.94-1.2 4.64-2.24 15.58-1.34 22.31.9 6.74 2.7 10.78 1.2 15.58-1.03 3.28.75 5.22 3.89 7.12-2.5 7.3-2.5 11.5-2.3 17.09.2 5.58.2 13.17-1.2 15.37-1.06 1.66-.97 2.64 1.4 3.71 0 6.37-.1 17.26.7 24.84.8 7.6 2.3 17.77 3.3 23.97.99 6.2 1.99 10.27 2.3 13.67.3 3.4 3.19 5.89 6.98 6.3a9 9 0 0 0 2.67-.04l.02.11c.2 2.62.6 4.91 2.7 6.3 2.09 1.4 5.29 2.7 8.58.4 3.3-2.29 5.3-8.38 6-11.77.69-3.4.1-6.4 0-9.18-.11-2.8-.1-2.2 1.69-5.5-.54 4.4-.47 8.8.2 13.18.8 4.49 2.3 8.18 1 10.98a75.12 75.12 0 0 0-4.9 13.38c-1.2 5.08 1 11.48 1.2 16.97.2 5.49 0 17.27 0 17.27-.45.3-.55.8-.6 2.84-.05 2.05-.07 4.46-.24 6.14-.05.45-.07.97-.08 1.5a9.02 9.02 0 0 0-1.28 3.94c-.14 1.85-1.59 3.3-1.8 4.34-.2 1.05-.04 2.75-.4 4.25-.34 1.5-.98 1.6-2.09 3.5-1.1 1.89-1.1 6.1-1.32 8.16-.57 1.85 1.18 5.15 5.61 5.86 5 .8 8.7-1.4 9.59-4.4.9-3 5.99-4.79 7.18-6.29.38-.53.61-1.12.7-1.78 1.03-1.32.75-4 .46-6.1-.3-2.1-1.8-4.1-2.1-5.24-.3-1.15 0-2.7 0-4.05a7.28 7.28 0 0 0-.85-2.88c.04-1.06.14-2.11.3-3.16.3-1.5 1.25-4.07 1-4.84 0 0 2.59-9.38 4.38-17.17 1.8-7.78 3.6-17.37 4.17-22.36.78-6.98.85-13.97.23-20.96-.8-6.99.6-9.39 3-14.18 2.4-4.8 6.98-18.57 7.98-27.15 1-8.58 1.6-19.16 1.8-24.75 1.46-.07 2.49-.52 1.7-2.9-1.1-3.3-.5-11.28-.7-14.38-.2-3.1-.1-8.18-1.2-11.38-.37-1.05-.8-2.63-1.23-4.29 1.2-.62 2.36-1.28 3.43-1.95 4.34-2.7 6.29-12.28 4.79-20.36Zm-43.13 86.6a4.06 4.06 0 0 0-1.34-.44c.15-.43.3-.85.5-1.26.66-1.42 1.2-2.89 1.6-4.4.26 2.38.56 4.9.85 7.2a10.7 10.7 0 0 0-1.6-1.1ZM352.32 19.56c-1.42.68-2.24 2.47-3.82 3.37-1.57.9-2.88.45-2.24-1.27.64-1.72 4.71-6.52 6.06-8.23 1.36-1.73 2.44-4.16.94-4.76-1.5-.6-4.38 3.48-5.46 4.76a19.56 19.56 0 0 1-2.82 3.06c-.97.71-.52-1.53.98-4.23 1.5-2.69 3.33-5.65 3.97-7.11.63-1.46-.45-3.03-1.91-2.29-1.47.75-3.59 3.9-4.42 5.18-.83 1.27-2.47 3.96-3.1 5.01-.64 1.05-1.73 1.2-1.43-.64.3-1.84 2.02-6.25 2.59-8.12.56-1.88.22-3.71-.94-4-1.16-.31-3.18.7-4.72 5.87a55.44 55.44 0 0 1-3.44 9.4c-.67 1.23-2.02 3.51-4.23 3.25-2.2-.27-4.27-2.66-5.5-4.04-1.24-1.39-3.3-3-5.74-2.2-2.45.8-1.5 2 .8 3.79 2.29 1.8 3.49 4.7 4.14 8.04.65 3.35.9 7.28-.05 8.64-.94 1.35-8.99 7.18-13.49 9.38-4.5 2.2-10.98 5.49-14.77 6.69-3.8 1.2-8.58 4.89-10.68 7.39a26.08 26.08 0 0 1-10.98 7.18c-5 1.8-12.78 4.8-16.47 7.2-3.7 2.39-7.69 2.69-14.08 2.49-6.4-.2-11.47 3.6-13.87 4.39-.56.18-1.2.43-1.86.7-.46-.89-1.36-1.27-3.14-1.05a7.4 7.4 0 0 1-5.39-1.2 2.2 2.2 0 0 0-2.07-.17l-.02-.02-.03-.04-.02-.02-.01-.02-.62-.9s.26-6.1.41-8.96a26.76 26.76 0 0 0 1.39-3.92 2.61 2.61 0 0 0 2.67.52c2.1-.8 3.1-4.29 3.3-6.48.14-1.6-.89-3.05-2.56-2.97 1.55-6.75 1.5-11.3.75-15.3a16.43 16.43 0 0 0-7.08-10.58c-3.4-2.1-11.18-1.3-11.18-1.3-2.7 0-7.8 2.2-9.89 3.9a21.22 21.22 0 0 0-4.95 6.58 17.7 17.7 0 0 0-2.13 7.49c-.17 1.86-.07 3.7.29 5.54a1.91 1.91 0 0 0-2 1.05c-1.29 2-.4 7.19 1.2 8.58 1.07.94 2.95.62 4.09.3.03 4.7.26 12.76 0 15.12l-.12 1.08c-.49.1-2.56.51-4.98.97-.23-.49-.5-.95-.8-1.4a8.6 8.6 0 0 1-5.02.9c-2.77-.37-2.55.07-2.94 1.8-2.7 0-6.8-2.3-10.49-2.2-3.69.11-9.28 1.4-12.78 2.2-3.5.8-8.23.45-13.47-.45-5.25-.9-11.3-.15-14-1.27-2.7-1.13-10.96-7.16-17.25-8.86-6.29-1.7-11.08-1.8-16.67-3.6-5.59-1.8-10.68-3.1-12.48-5.69-1.8-2.59-2.89-5.29-2.89-7.88 0-2.6-1.6-6.1-1.8-7.69-.19-2.31-.19-4.63 0-6.95.17-1.86-1.25-1.94-2.67-1.11-1.42.82-1.8 4.19-1.57 6.74.23 2.54-.52 4.19-2.84 4.26-2.32.08-7.04-2.84-10.33-5.99-3.3-3.14-5.4-5.01-7.19-5.99-1.8-.98-4.57 0-3.14 2.4 1.42 2.4 6.36 5.69 8.45 7.63 2.1 1.94 2.4 3.6.9 3.6s-4.8-3-7.41-4.57a94.62 94.62 0 0 0-5.46-3.07c-1.43-.74-3.6-.15-3 1.94.6 2.1 5.16 4.5 7.34 5.62 2.17 1.12 4.12 1.8 4.34 2.47.22.67-3 .53-6.14-.6-3.15-1.12-4.54-1.57-5.65-1.5-1.1.08-1.69 1.5 1.68 3.22 3.38 1.72 7.34 2.55 9.06 3.38 1.72.82 3 2.17.53 2.17-2.47 0-5.32-1.05-7.04-.98-1.73.07-3.45 2.32 3.89 3.67 7.33 1.35 9.65 3.52 13.17 4.57 3.52 1.05 8.01 2.7 11.6 5.4 3.6 2.69 14.31 9.87 20.75 12.72 6.44 2.85 14.67 6.89 16.77 8.24 2.1 1.34 9.13 1.5 12.57 2.1 3.45.6 10.04 1.49 16.33 3.14 6.3 1.65 13.92.9 16.92 2.24 2.99 1.35 4.34 5.85 5.39 9.29.17.54.34 1.15.5 1.82 0 1.16-.13 2.31-.4 3.44a36.83 36.83 0 0 1 8.4-1.04c.88 0 1.75.04 2.57.12 4.14.39 10.53.65 16.28.65 4.42.06 8.82-.16 13.22-.64 3.8-.52 7.63-.78 11.48-.8 3.62 0 7.21.27 10.79.8 2.61.41 7 .98 11.7 1.48.54-1.57 1.08-3.15 1.67-4.93 1.8-5.4 2.55-10.19 8.69-13.63 6.14-3.44 16.62-7.19 23.36-10.93 6.74-3.74 12.88-6.14 17.22-6.89 4.35-.75 10.93-5.1 15.57-9.43 4.64-4.34 17.38-13.88 23.37-18.87 5.98-5 7.63-8.16 12.57-11.3a75.4 75.4 0 0 0 11.3-8.69c2.33-2.25 4.43-3.9 5.48-6.14 1.04-2.24-.37-2.7-1.8-2.03Zm0 0"/>
  <path fill="#ffcf1b" d="M84.16 129.87c-3.56-2.24-8.14-1.78-12.13-2.28a12.4 12.4 0 0 1-4.49-1.36c-.78-.43-.7-.22-.7-1.17-.02-.76 0-1.5 0-2.27a19.2 19.2 0 0 1 0-2.72c.24-.77.58-1.5 1.03-2.18.4-.82.74-1.68 1.03-2.55.3-.92.35-2.84.9-3.51.61-.74 1.19-.69 1.64-1.76.33-.8.48-1.7.82-2.5.7-1.7 2.1-3.5 1.94-5.44-.02-.54-.22-1-.6-1.38-.2-.19-.87-.32-1-.48-.42-.56-.04-2.59-.08-3.5a16.57 16.57 0 0 0-1.54-6.5A13.26 13.26 0 0 0 62 83.02c-4.77-1.19-9.68-.32-13.13 3.33-3.42 3.64-5.36 8.79-4.35 13.77-3.41-.15-1.92 4.71-1 6.3-3.21 1.11-6.16 2.49-8.34 5.18-1.18 1.45-1.97 3.66-3.85 4.35-1.48.56-2.66-.12-3.93-.8-1.42-.77-1.21.22-.28 1.07 2.86 2.6 5.74 1.27 8.64-.36-1.71 3.42-1.84 8.81-6.6 9.5-.4.07-1.3-.15-1.2.58.13.81 2.27 1.05 2.9 1.08a6.22 6.22 0 0 0 5.17-2.87c-.04 1.26.1 2.89-.4 4.06-.02 0-.69 1.07-.7 1.07.18.61.9.41 1.37.27 2.02-.58 2.57-2.62 3.2-4.37.16.6.89 2.44.6 3.01-.17.32-1.25.78-1.58.95a25.73 25.73 0 0 0-6.06 4c-4.5 4.22-5.35 9.69-5.9 15.56-.29 3-.43 6.02-.84 9l-.22 1.42c3.4 1.23 6.9 1.83 10.5 1.8 3.62 0 10.38-.62 15-4.7 6.63-5.85 17.66-6.53 26.54-7.07 2.29-.14 4.48-.28 6.36-.49.92-2.46 1.17-5.17 2.25-7.6 1.82-4.13 2.36-8.43-2-11.18Zm27.55 52.5c-.12-1.12-1.01-1.92-1.71-2.73a69.54 69.54 0 0 0-3.14-3.47c-2.5-2.53-5.05-5.01-7.56-7.53-3.05-3.05-6.17-5.88-8.98-9.19-.36-.42-.71-.86-1.06-1.3-1.22.15-2.47.26-3.74.33-2.21.12-4.65.13-7.24.13-6.38.01-14.32.03-18.03 2.2-1.34.76-2.92 1.79-4.6 2.87-5.79 3.76-13 8.43-19.08 8.64a29.81 29.81 0 0 1-12.59-2.35c-.36 4.73-.15 9.43.65 14.1.53 2.91 1.65 6.28 4.82 7.22 3.05.91 5.16-2.26 7.75-3.26.2 1.18.43 2.36.61 3.54.42 2.84-.15 4.82-1.42 7.39-2.22 4.51-4.56 9.1-6.09 13.9-1.6 5.03-1.73 10.35-1.93 15.6-.19 4.99.7 9.51 1.87 14.34 1.4 5.8 2.82 11.68 5.08 17.22.98 2.4 1.98 4.8 2.76 7.27.41 1.27.7 2.57.89 3.9.07.59.13 1.18.23 1.76a2.1 2.1 0 0 1-.41 2.04c-2.75 4.7 1.43 10.8 4.12 14.5.55.76 2 2.2 2.15 3.1.08.44-.26 1.05-.25 1.53.05.51.06 1.03.04 1.54a86.85 86.85 0 0 0-.23 4.41c-.2 5.53-.16 11.87 2.64 16.81 1.4 2.47 4.23 5.25 7.33 4.75 3-.48 4.37-4.07 4.86-6.67.73 4.42 1.6 8.83 2.05 13.28a42.02 42.02 0 0 1-.36 10.92c-.25 1.43-.45.96-1.7 1.55-2.25 1.08-1.21 3.22-1.08 5.2a7.95 7.95 0 0 1-1.22 4.72c-1.72 3.28-7.21 6.62-2.75 10.42 2.19 1.86 6.15 2.25 8.86 2.67 1.8.28 4.58.79 5.86-.9 1.16-1.52 1.06-3.82 1.04-5.62-.02-3.06-.28-6.25.19-9.27.21-.9.3-1.8.26-2.72-.1-.85-.47-1.63-.6-2.45a21.1 21.1 0 0 1 .33-7.74c1.62-8.27 4.19-16.3 5.76-24.56.84-4.68.99-9.39.43-14.1-.57-5.4-1.88-10.63-2.55-15.99a34.92 34.92 0 0 1 1.2-14.92c1.68-5.22 4.22-10.11 5.93-15.32 2.84-8.65 5.71-18.07 4.9-27.25-.5-5.53-2.05-10.68-3.71-15.93-.7-2.22-1.9-4.35-2.5-6.55a31.48 31.48 0 0 1-1.26-8.22c.01-3.04.51-6.07.7-9.11.07-1.27-.1-2.53-.06-3.78.05-1.4.45-2.82.53-4.25.19-2.68.6-5.33 1.27-7.93 5.03 2.53 9.87 5.39 14.53 8.56a6.5 6.5 0 0 1 1.51 1.07c.22.3.19 1.05.28 1.41.31 1.2.95 2.2 1.9 3 1.9 1.78 4.21 2.64 5.16 5.15-.86-.54-.78-.22-1.16-1.13-.07-.3-.17-.6-.3-.88-.55-.86-1.48-.95-1.94-.02-1.14 2.27 2.06 5.76 4.1 6.23 1.31.3 4.95.5 5.82-.59.7-.88.49-2.41.54-3.44.06-1.34.45-2.74.3-4.1Zm-55.45 76.85c.08-2.35.74-4.66 1-6.99.18-1.46.31-2.94.38-4.41 1 6.18-.06 12.57-.53 18.75-.38-2.44-.95-4.86-.85-7.34Zm2.9 37.3c-.31 2.55-.64 5.11-.71 7.7-.52-1.48-1.22-2.86-1.82-4.3-.76-1.85-.49-3.74-.24-5.68.35-1.85.51-3.72.5-5.6-.16-2.29-1.43-3.53-3.23-4.78 2.07-1.13 3.1-4.45 3.47-6.64.51 3.1 1.6 6.1 2.08 9.19.45 3.37.43 6.74-.06 10.1Zm0 0"/>
  <path fill="#04246e" d="M339.55 126.38a7.33 7.33 0 0 1-5.43-1.15c.34.79.66 1.6 1.05 2.36-1.3.14-2.63.23-4.03.3l-.12-.1.02.12c-1.72.08-3.54.12-5.48.12-2.74 0-5.37-.08-7.92-.16h-.03c-2.39-.07-4.65-.15-6.82-.15-3.43-.08-6.84.23-10.2.94.1-.1.2-.22.27-.34.73-1.1-.09-5.55-.14-7.08-.67.24-4.55.58-4.79-.73-.18-.98.93-.62 1.62-.88-1.26-.22-4.64-1.65-4.9-3.18-.28-1.67 1.9.12 2.37.28 1.52.56 3.91.65 3.21-1.32a48.66 48.66 0 0 0-1.3-1.55 13.9 13.9 0 0 1-1-2.8c-.4-1.04-.71-2.11-.94-3.21-.24-1.88.69-1.76.96-2.98.32-1.45-.61-3.88-.44-5.51.21-2.26.84-4.4 1.89-6.42 4-7.26 14.59-8.9 20.97-4.06a14.08 14.08 0 0 1 5.35 7.66c.28 1.02.44 2.06.49 3.12.04 1.72-.74 4.56-.2 5.86.31.78 1.07.95 1.16 2.07a5.66 5.66 0 0 1-.76 2.7c3.64.38 5.82 2.34 8.88 3.91 1.98 1.01 3.71.7 5.28-.98.22-.22 1.41-2.54 1.99-1.18.4.94-1.11 2.8-1.64 3.35-2.15 2.26-4.85 1.85-7.65 1.45 1.66 1.56 2.8 3.62 4.48 5.13a6.98 6.98 0 0 0 3.34 1.67c.6.13 3.04-.42 3.3-.26 1.69.97-1.68 2.72-2.84 3ZM358.32 209.59c-1.37 3.4 1.67 6.8 1 10.46-.55 3.01-1.6 4.28-4.55 5.02-2.16.55-3.9.83-5.9 1.84-3.44 1.75-4.17.02-4.43-3.32-.14-1.86.07-3.77-.05-5.67-.14-2.32.04-4.7 1.62-6.59 1.11-1.32 2.18-2.13 3.09-3.74 1.36-2.41 2.66-5 3.8-7.52 2.4-5.24 2.66-10.46 3.98-15.9.36-1.52 2.28-4.9 1.64-6.53-.55-1.43-4.22-3.01-5.38-4.14a95.2 95.2 0 0 1-11.87-14.48c.18 8.77-.13 17.6-2.84 26.02-1.4 4.3-3.98 8.3-2.5 12.85 1.02 3.08 1.5 6.15 2.32 9.26.87 3.35 2.88 6.56 3.13 10.04.25 3.57.75 7.22.07 10.75a18.5 18.5 0 0 0-.56 5.84c.15 1.24.78 2.36.84 3.59.07 1.22-.45 2.3-.34 3.52.16.87.36 1.73.61 2.57.45 2.13 0 2.52-.3 4.36-.29 1.74.12 3.91.12 5.72 0 3.26-.1 6.52-.3 9.78-.2 3.52-.84 6.9-1.21 10.38-.4 3.78.46 7.6.09 11.4-.32 3.29-2.73 5.4-3.23 8.56-.49 3.16-1.4 4.69-4.73 5.9-4.3 1.56-8.07-.24-9.85-4.34-1.13-2.6-2.76-5.22-3.65-7.9-.76-2.27-.51-4.78-.82-7.12-.26-1.93-.84-3.8-1.16-5.72-.52-2.78-.3-5.5.68-8.14 1.96-5.77-.97-10.89-2.43-16.42-.2 3.35-1.33 7.2-.98 10.56.42 4.07 2.1 7.65 2.16 11.86.06 3.72.84 7.32.86 11.02.03 3.8-1.1 7.25-1.62 10.96-.93 6.86 2.81 13.14 2.3 19.98-.4 5.02-1.77 10.08-2.43 15.1-.68 5.19-1.33 10.8.25 15.9a48.3 48.3 0 0 1 1.63 5.67c.42 2.38-.84 3.67-1.48 5.78-.63 2.06.47 4.65-.86 6.5-1.02 1.43-3 1.8-4.63 2.03-3.22.45-15.57.42-10.58-6.1 2.08-2.73 4.21-3.02 4.44-6.77.1-1.64 1.1-3.18 1.24-4.67.09-1.02-.43-2.06-.38-3.12.06-1.57.66-3.03.57-4.64a22.07 22.07 0 0 0-.83-4.08c-.6-2.33-1.29-4.64-1.96-6.95-2.96-10.13-6.5-19.95-4.34-30.65.53-2.65 1.5-4.8 1.43-7.5-.2-3.37-.6-6.7-1.25-10-.58-3.7-.85-6.98-2.41-10.42-1.5-3.1-2.84-6.25-4.02-9.49-3.6-10.84-6.36-23.6-5.83-35.07.1-2.3-.78-3.91-.97-6.08-.18-2.06.95-4.74 1.08-6.9.2-3.42 1.34-6.5 2.51-9.66.78-2.1 1.18-4.38 2.22-6.4 1.66-3.23 2.88-5.83 2.5-9.58-.3-3.12-.97-6.15-2-9.1-1.12-3.1-2.65-5.9-2.62-9.31.03-3.37.06-5.83-1.72-8.9-.95 3.88-3.3 7.2-4.2 11.16a38.3 38.3 0 0 1-4.44 10.97c-3.95 6.99-10.31 12.57-15.32 18.85-.56.7-1.67 1.64-2.01 2.5-.3.77-.14 1.84-.47 2.68-.89 2.37-2.51 2.95-4.23 4.44-.86.73-1.09.58-1.36 1.97-.16.8.15 1.08-.28 2.1a5.13 5.13 0 0 1-1.66 2.1c-.7.53-1.54.84-2.26 1.34-.1.06-.17.12-.26.19-.29.24-.6.45-.93.61-.43.08-.82-.01-1.16-.28-1.27-.71-3.35-3.32-3.97-4.52-1.05-2.05.06-6.2 1.53-7.94 1.5-1.78 4.4-2.6 6.46-3.69 3.55-1.86 4.77-3.65 5.9-7.51a90.98 90.98 0 0 1 3.99-11.89c1.7-3.8 4.16-6.8 6.42-10.24 2.2-3.35 3.64-7.27 4.99-11.02 2.16-6.05.67-12.8 4-18.45.25-.44.53-.86.82-1.26a35.5 35.5 0 0 0 8.66 1 62.5 62.5 0 0 0 18.82-3.27 20.95 20.95 0 0 1 7.06-1.12c2.19 0 4.51.25 7.2.52l.14.01c2.6.27 5.53.56 8.98.7.58.03 1.17.05 1.75.05 4.3-.05 8.52-.64 12.67-1.78 3.56 3.1 5.41 6.63 7.49 11.3 1.83 4.1 6.03 6.83 8.46 10.61 1.78 2.77 3.39 5.65 5.13 8.45 1.45 2.36 3.22 4.67 4.13 7.32 2.15 6.1-2.65 15.25-5.19 20.67-2.03 4.33-4.23 8.67-6.03 13.13Zm0 0"/>
  <path fill="#436db6" d="m146.43 143.29.02.04.19-.21-.2.17ZM146.67 143.1l.37-.4Zm0 0"/>
  <g clip-path="url(#a)">
    <path fill="#436db6" d="M356.73 131.53c-1.1.34-2.4.8-3.89 1.34-5.86 2.1-13.87 5-22.82 4.6-3.44-.14-6.38-.44-8.98-.7-5.87-.6-10.11-1.04-15.27.71a59.94 59.94 0 0 1-18.06 3.13c-5.04 0-10.27-.9-14.53-3.65a27.4 27.4 0 0 1-9.25-5.9l-.36-.35c-4.84-4.6-20.03-7.46-31.2-7.22-6.96.14-12.34-.95-17.08-1.92a64.35 64.35 0 0 0-8.84-1.4c-5.26-.33-11.72.96-16.42 1.9-2.07.42-3.84.77-5.19.94-3.02.37-8.41.25-12.76.15-2.26-.05-4.22-.1-5.54-.07-3.88.08-13.99 7.06-15.05 8.5-.32.41-.67.8-1.04 1.16-1.1 1.13-2.21 2.28-1.95 4.5a6.9 6.9 0 0 1-1.3 5.24l-.15.18c0 .01 0 .02-.02.03l-.37.39-.03.02-.2.17a3.3 3.3 0 0 1-2.1.63c-1.67 0-3.86-.79-6.85-1.86-1.58-.57-3.36-1.21-5.44-1.87-7.79-2.5-16.14 2.02-17.07 2.55-1.38 1.89-5.14 5.12-8.84 7.59-3.8 2.52-12.14 5.33-20.74 5.79-2.15.12-4.57.12-7.12.13-7 .01-14.95.03-19.23 2.5-1.38.81-2.99 1.85-4.68 2.95-5.55 3.6-12.45 8.08-17.9 8.26-.32.02-.63.02-.94.02a28.83 28.83 0 0 1-11.57-2.56c-.7-.29-1.32-.53-1.88-.72-2.7-.9-7.16 1-9.46 2.62-2.67 1.9-8.42-1.73-8.66-1.88l-.63-.4.64-.4 1.75-1.13c5.19-3.35 11.65-7.53 17.98-4.59 6.84 3.18 21.06 3.97 28.88-2.93 6.02-5.3 16.61-5.95 25.12-6.47 3.09-.2 6-.37 8.31-.75 8.19-1.34 19.16-4.85 23.34-8.73 2.97-2.74 5.78-3.62 8.27-4.4.97-.27 1.92-.61 2.84-1.02l.09-.05a21.04 21.04 0 0 1 7.32-2.56l.88-.12c4.98-.73 10.63-1.55 14.1-.16.5.22 1.01.37 1.55.45a31.69 31.69 0 0 1-.87-8.1c.13-2.73 2.15-3.92 4.27-5.18 1.24-.68 2.4-1.48 3.46-2.41 3.3-3.05 12.54-5.93 19.95-5.22 7.37.7 22.36 1.03 30.03 0a75.02 75.02 0 0 1 21.6 0c5.94.92 20.97 2.64 28.5 2.64 7.49 0 13.35 3.7 16.5 10.4 4.88 4.29 22.03 8.5 31.23 5.27 5-1.75 11.26-1.55 18.5-1.33 6.59.2 14.05.44 21.89-.81 8.96-1.43 14.3-2.73 17.31-4.19l.19-.09a1.8 1.8 0 0 0 .76-1.72 2.7 2.7 0 0 0-1.43-2.35c-1.81-.8-7.28-1.5-7.34-1.5l-1.36-.18 1.18-.7c1.34-.81 1.17-3.87.61-6.25l-.21-.9.85.36c.02 0 2.06.85 5.04 2.26a11.4 11.4 0 0 1 4.04 3.47 11.12 11.12 0 0 1 2 5.06v.02l.02.1.01.1c.2 1.24.8 7.03-4.39 8.61Zm0 0"/>
  </g>
</svg>
