<svg xmlns="http://www.w3.org/2000/svg" width="500" viewBox="0 0 375 375" height="500" version="1.0">
  <defs>
    <clipPath id="a">
      <path d="M182 3.28h36V39h-36Zm0 0"/>
    </clipPath>
  </defs>
  <path fill="#ffcf1b" d="M26.4 358.02s3.97 5.51.14 9.11c-3.82 3.6-7.79 1.1-14.11 2.8-6.25 1.69-11.7 1.17-11.47-3.68.22-4.85-.96-6.98 5.07-10.88 6.03-3.9 3.82-3.9 6.47-7.06 2.72-3.1 2.94-1.4 3.9-3.02.95-1.69 7.72-16.02 9.78-20 1.98-3.97 12.35-25.14 19.78-33.45 7.42-8.3 16.54-18.97 18-22.65 1.48-3.75.23-3.46.08-3.67-.22-.23-2.57-4.56-2.2-5.08.37-.51-.3.3.59-.88.88-1.18 7.79-5.3 8.53-7.87.73-2.57 1.1-4.04 1.76-5.44.74-1.4 9.26-13.82 14.63-16.7 5.37-2.86 6.03.3 6.03-3.96 0-4.27.08-6.55 2.14-8.6 2.13-2.06 6.9-2.06 7.42-3.46.44-1.32.37-3.46 1.4-5.74 1.03-2.27 3.6-9.04 3.68-10.58.07-1.62-1.11-5.44-1.48-6.62-.36-1.25-3.38-5.88-3.38-5.88s-5.73 12.79-7.57 17.57c-1.84 4.78-2.28 6.25-8.82 9.04-6.55 2.72-17.06 5.3-17.43 5.15-.37-.07-8.82 1.76-8.82 1.76l-26.04-3.38s-.66-3.82.81-4.4c1.48-.6 1.84-.08 3.31-1.77 1.47-1.7 2.65-3.9 4.2-3.97 1.54-.08 1.76.36 3.3-1.03 1.47-1.4 1.84 1.54 3.97 1.4 2.14-.15.89-1.26 3.53-.3 2.65.95 4.78 3.45 6.1 3.75 1.33.37 2.21 1.84 5.37-.44 3.16-2.28 14.64-9.78 17.95-13.38 3.38-3.6-.15-11.55 6.25-19.05 0 0 .07-9.26 2.42-17.5 2.35-8.23 10.22-11.03 13.31-11.91 3.09-.88 2.8-2.06 2.8-2.06s3.23-.37 3.82-2.8c.66-2.35-.15-6.1-.15-6.1s-2.5.23-2.87-3.08c-.37-3.31-.14-6.62 1.33-6.7 1.47-.07 1.76-1.1 1.76-1.1s-1.54-4.78 1.54-9.56c3.1-4.78 10.81-6.17 16.92-4.56 6.17 1.62 9.19 9.05 8.75 13.39-.37 4.34-1.92 6.76-1.92 6.76s1.4.22.89 1.77a18.63 18.63 0 0 0-.96 4.33c-.14 1.18-2.94 2.73-3.01 3.75 0 1.03-.22 1.77-.22 1.77s10.66 5.15 16.03 8.9c5.36 3.75 7.94 6.25 9.77 14.48 1.92 8.24 6.48 20 6.48 23.83 0 3.82 2.13 12.27 2.2 14.63.07 2.42.22 6.69.22 8.75 0 2.13 1.91 4.26 2.35 6.32.37 2.06 1.84 10.07-1.32 12.5-3.09 2.5-12.35 3.46-12.28 9.7.08 6.26 2.87 3.83 1.25 11.33-1.61 7.5-1.4 6.1-1.4 6.1s2.29-.3 3.61 1.4c1.32 1.7 6.7 6.18 6.32 8.46-.37 2.27-5.88 8.23-5.88 8.23s.74 2.43-.07 5.3c-.81 2.86-7.87 6.32-9.93 6.24-2.13-.07-2.87-2.2-3.82-2.2-.89-.07-5.37 7.2-8.68 8.16-3.31.88-3.24-2.35-3.9.22-.73 2.57-.88 4.27-5 7.36-4.11 3.08-9.78 9.04-14.04 11.32-4.34 2.28-17.13 7.13-17.72 7.5-.59.37-5.44.37-7.5-6.84-1.99-7.2.07-6.98 1.54-10.66 1.47-3.6 6.7-15.74 7.2-17.57.52-1.84 1.4-12.73 1.4-12.73s-10 3.68-12.35 6.62c-2.35 2.94-2.28-1.1-4.34 1.18-2.05 2.28-17.94 14.56-21.17 17.06-3.31 2.5-8.31 17.06-11.92 20.22-3.6 3.09-10.8 11.1-13.89 15.15-3.09 4.04-8.97 10.8-8.97 14.85.07 4.04 1.61 5.95-1.47 10.15Zm0 0" fill-rule="evenodd"/>
  <path fill="#ffcf1b" d="M65.96 229.7a21.82 21.82 0 0 1-23.98 21.74 21.69 21.69 0 0 1-14.74-7.88 20.18 20.18 0 0 1-2.38-3.56 20.9 20.9 0 0 1-1.64-3.95 22.51 22.51 0 0 1-.94-6.34 23.03 23.03 0 0 1 .42-4.26 22.13 22.13 0 0 1 3.26-7.88 20.24 20.24 0 0 1 2.72-3.3 21.28 21.28 0 0 1 7.08-4.74 21.72 21.72 0 0 1 16.72 0 22.45 22.45 0 0 1 5.5 3.3 21.28 21.28 0 0 1 3.02 3.02 22.06 22.06 0 0 1 4.54 9.6 21.7 21.7 0 0 1 .42 4.26Zm0 0"/>
  <path fill="#e81d20" d="M184.93 354.78s-2.87 5-1.77 8.75 9.41 2.43 15.22-.51c5.89-2.87 2.65-5.6 4.64-7.21 1.98-1.7 8.08-2.58 5.88-8.68s-3.02-10.44-4.93-13.16c-1.84-2.72-3.45-4.78-3.24-5.59.23-.8 3.98-5.44 4.93-7.79 1.03-2.28-.88-4.2-.88-4.2s-.15-2.5 1.69-4.62c1.84-2.14 1.69-2.21 6.18-6.4 4.48-4.2 7.64-8.46 11.47-17.58 3.82-9.11 5.59-19.48 6.25-23.9.66-4.33 1.1-5.66 1.1-5.66s1.99-1.1 1.99-4.77c.07-3.68.07-5.81.07-5.81s.74-2.13 2.28-3.9c1.54-1.77 2.57-3.3.15-4.63-2.43-1.33-1.48-5.3-1.48-6.7 0-1.39-.58-33.08-.58-34.85 0-1.76-1.84-4.63-1.84-4.63v-7.06s1.98-1.84 2.35-3.3c.37-1.48-.51-3.24.3-4.05.88-.74 2.86-3.01 6.1-10.22 3.23-7.2 4.34-6.25 4.12-11.91-.3-5.67 0-6.47 2.05-8.46 2.06-2.06 7.29-8.75 10.37-5.96 3.1 2.8 11.77 8.68 18.24 10.74 6.47 2.06 8.97 4.49 10 5.88 1.03 1.33 14.26 6.1 23.68 7.43 9.33 1.25 21.9 1.76 21.9 1.76s2.5 2.36 6.18 3.31c3.68.96 8.17 1.1 9.63 4.2 1.48 3.08 2.43 7.35 4.64 6.54 0 0 .36-.15.44-.37 0 0 1.1.3 1.47-.44.3-.74.44-5.88.44-5.88s1.25.73 1.84-.15c.59-.88-2.8-7.28-5.6-10.3-2.78-3-3.37-4.04-6.53-4.04s-5.81-.22-11.99-1.76c-6.25-1.55-15.96-4.05-21.9-7.72-6.04-3.6-10.52-5.52-17.88-6.91-7.35-1.4-12.28-6.77-17.35-8.39 0 0-5.44-20-26.99-20.22 0 0-2.42.66-4.48-1.25-2.13-1.91-3.38-2.2-3.38-3.01 0-.81.66-4.12 2.2-4.63 1.55-.52 2.13.73 3.53-2.06 1.4-2.87.81-4.12-.22-4.64 0 0 .51-6.17-2.65-10.88-3.16-4.7-9.34-8.97-15.51-4.92 0 0-3.1 1.54-4.2 5.44-1.1 3.9-3.3 4.19-3.82 8-.5 3.83-.66 5.38.15 8.47.81 3.09-.66 4.41-.66 4.41s-6.91-1.18-7.28-3.9c-.37-2.72-7.65-7.8-12.57-9.34-4.93-1.54-4.12-6.69-8.97-12.94-4.78-6.32-4.86-5.73-4.86-5.73s8.24-20.08 11.33-24.41c3.01-4.34 4.41-5.96 7.86-7.5 3.46-1.62 11.62-5.81 13.6-7.5 2-1.62-.87-2.8-2.64-2.14-1.77.66-6.7 3.46-6.98 2.58-.3-.89 2.71-4.42 5.51-8.83 2.87-4.34-17.5-3.38-20.81 7.87-3.31 11.25-1.84 7.65-7.65 13.9-5.8 6.25-8.67 12.35-12.13 17.06-3.46 4.7-5.59 3.16-3.67 10.58 1.83 7.43 5.14 15.52 7.2 20.08 2.06 4.56 13.6 14.85 13.6 14.85s-2.94 7.5-4.78 23.97c-1.83 16.47-4.11 28.68-6.17 33.31-2.06 4.56.88 4.63.95 7.2.08 2.58-5.51 4.78-6.1 13.6-.59 8.83-1.91 32.5-1.18 37.66.74 5.14 3.31 13.08 3.98 20.44.66 7.35-1.18 19.63 0 30.95 1.17 11.33 6.1 23.97 6.1 23.97s3.45 13.24 4.19 15.45c.73 2.2.88 4.85-.15 7.5-1.03 2.64-3.01 7.35-2.28 10.95.74 3.6 3.02 8.01.44 14.56Zm13.01-51.99s-1.54-.22-1.69-1.32c-.07-1.1-.15-5.51.22-8.97.37-3.53-.44-10.3-1.84-13.75-1.32-3.46-2.13-4.56-1.4-7.35.74-2.8 4.34-13.97 4.34-19.34.08-5.37.96-6.33 1.18-2.87.22 3.46.3 4.85 1.18 5.88a3.57 3.57 0 0 0 2.05 1.18s.96 8.6 3.46 14.48c2.5 5.89 2.43 5.89 1.1 8.02-1.4 2.13-3.3 2.72-3.52 9.27-.23 6.54-1.84 5.44-5.08 14.85Zm0 0" fill-rule="evenodd"/>
  <g clip-path="url(#a)">
    <path fill="#e81d20" d="M217.43 20.88a17.93 17.93 0 0 1-.76 5.08 16.57 16.57 0 0 1-1.31 3.17 17.07 17.07 0 0 1-3.06 4.13 17.83 17.83 0 0 1-7.3 4.37 17.64 17.64 0 0 1-10.15 0 17.66 17.66 0 0 1-8.45-5.65 17.73 17.73 0 0 1-3.64-7.68 17.81 17.81 0 0 1 .42-8.5 18.53 18.53 0 0 1 1.31-3.17 18.12 18.12 0 0 1 3.06-4.12 17.74 17.74 0 0 1 7.3-4.37 17.27 17.27 0 0 1 8.49-.42 17.64 17.64 0 0 1 8.96 4.79 16.94 16.94 0 0 1 3.06 4.12 17.56 17.56 0 0 1 2.07 8.25Zm0 0"/>
  </g>
  <path fill="#04246e" d="M343.3 365.73s5.38-4.33 6.92-5.36c1.47-1.03 16.55-5.37 11.03-18.02 0 0-1.84-4.26-5.96-3.08-4.19 1.17-11.02 6.25-13 4.63-1.92-1.55-3.83-10.15-4.42-11.92-.66-1.76-1.55-4.63-3.24-4.63-1.69.08-1.54-19.56-3.09-26.25-1.61-6.69-2.2-9.63-4.11-17.87-1.91-8.23-4.64-15.73-8.09-21.39-3.53-5.66-3.53-9.05-4.49-12.36-.95-3.3-3.23-7.5-5.22-9.4a9.04 9.04 0 0 1-2.57-5.37c0-.89.3-2.36.15-3.1-.15-.73.14-2.34-.96-3.9-1.18-1.53-3.75-3-4.04-3.96-.23-.96 1.32-1.98.58-3.38-.73-1.33-5-.89-6.54-3.09-1.54-2.2-1.25-3.68-2.06-4.56-.8-.88-.3-3.16.15-3.6.44-.52 1.76-6.03 1.62-8.24-.15-2.2.66-4.7.88-5.15.3-.44 3.9-7.57 4.41-8.3.52-.74 1.18-.22 1.91 1.03.74 1.25 8.46 17.64 9.86 19.7 1.39 2.06 1.39 2.5 6.54 5.3 5.15 2.79 20.88 7.06 20.88 7.06l10.3-9.27s-7.65-3.46-12.8-6.7c-5.15-3.23-12.57-5.43-13.97-6.76-1.32-1.4-.37-1.69-1.84-8.38-1.47-6.7-3.82-7.35-4.34-8.6-.5-1.25-.5-5.96-1.25-13.1-.73-7.12-3.9-9.55-5.95-10.5-2.06-.96-4.56-1.48-6.99-3.68-2.5-2.2-5.07-5.51-5.07-5.51s3.97-3.68 4.26-8.68c.3-5 1.33-8.53.96-13.82-.37-5.3-.88-11.48-4.56-15a14.11 14.11 0 0 0-15.8-2.14c-5.45 2.87-7.29 6.03-7.29 11.4l.37 4.19s-1.32.81-.22 4.26c1.1 3.46 1.54 3.98 2.5 5 .96 1.04.96 1.84 1.25 3.1.3 1.17.37 2.05-.52 3.15-.88 1.11-.8 1.77-1.61 2.14-.89.36-3.75.95-4.93 2.42-1.17 1.48-6.9 3.6-11.1 5.74-4.2 2.13-7.72 6.91-9.2 13.9-1.46 6.98-1.54 5.36-3.67 11.61a70.06 70.06 0 0 0-3.45 15.96c-.3 3.68-2.21 6.7-1.25 13.09.88 6.4.21 10.88-.37 13.3-.6 2.43-3.02 7.29-3.24 9.42-.22 2.13-1.03 16.54 1.91 25.96 2.95 9.4 5.81 18.16 5.37 19.55-.44 1.4-1.98 3.16-.88 3.75 1.1.59 1.32-.14-1.18 1.47-2.5 1.62-4.34 4.78-4.19 8.68.15 3.9 1.18 11.47-.96 14.7-2.13 3.31-3.3 10 .74 17.95 4.12 7.94 9.34 6.4 11.32 4.41 1.92-1.99 3.98-15.22 3.98-15.22s5.66 3.97 10.73 6.4c5 2.35 8.82 2.72 11.32-1.48 2.43-4.26 3.02-3.45 3.02-5.36 0-1.91-1.91-20.81-1.91-20.81s-.89-8.75-.74-9.85c.15-1.18 2.35-7.8 2.35-7.8s-.22-5.3-.29-5.8c-.07-.52.59-1.18 4.27 2.42 3.75 3.68 6.9 4.63 7.94 5.81 1.02 1.25 5.36 4.34 5.36 4.34s13.16 12.94 13.09 16.76c-.07 3.83 1.77 13.1 4.2 19.78 2.35 6.69 5.07 11.4 5.87 13.82.81 2.36 1.25 4.93.89 6.03-.37 1.18 0 5.74 1.25 8.24 1.25 2.42 2.35 2.65 2.65 5.22.29 2.57 1.54 6.25 1.61 8.97.08 2.72-.15 7.8.22 9.48.3 1.7 7.58 5.15 14.93 1.4ZM372.94 218.3s2.06 3.47 1.47 4.13c-.59.66-1.47.66-1.47.66s.88 2.72 1.1 4.2c.23 1.46-1.98.87-1.98.87l-1.7 3.3s1.18 1.56.08 2.44c-1.1.88-2.42-1.1-2.42-1.1l4.92-14.42Zm0 0" fill-rule="evenodd"/>
  <path fill="#04246e" d="M374.34 220a19.88 19.88 0 0 1-4.48 12.5 18.75 18.75 0 0 1-2.73 2.73 21.25 21.25 0 0 1-3.2 2.15 20.45 20.45 0 0 1-5.45 1.95 19.65 19.65 0 0 1-11.39-1.12 20.95 20.95 0 0 1-3.4-1.82 20.44 20.44 0 0 1-4.3-3.89 19.44 19.44 0 0 1-4.09-8.66 20.93 20.93 0 0 1-.37-3.84 19.88 19.88 0 0 1 2.32-9.29 20.92 20.92 0 0 1 2.15-3.21 19.66 19.66 0 0 1 13.3-7.1 18.85 18.85 0 0 1 5.78.27 19.36 19.36 0 0 1 5.44 1.95 20.92 20.92 0 0 1 3.21 2.15 19.66 19.66 0 0 1 7.11 13.3c.06.64.1 1.29.1 1.93Zm0 0"/>
</svg>
