<svg xmlns="http://www.w3.org/2000/svg" width="500" viewBox="0 0 375 375" height="500" version="1.0">
  <defs>
    <clipPath id="a">
      <path d="M291 294h54.41v55H291Zm0 0"/>
    </clipPath>
  </defs>
  <path fill="#ffcf1b" d="M261.12 136.63c-.33.85 0 2-1.2 2.03-.98 0-1.26-.9-1.56-1.64-.63-1.52-1.2-3.06-1.9-4.53-.33-.73-.89-1.46-1.9-1.19-1 .28-.59 1.24-.58 1.9 0 1.76.15 3.54.25 5.3.07 1.2-.43 2.08-1.62 2.2-1.2.12-1.44-.85-1.57-1.76-.31-1.74-.55-3.5-.91-5.23-.15-.7-.4-1.67-1.34-1.57-.93.1-.49 1.1-.54 1.7-.07.96-.04 1.91-.05 2.87 0 .63-.04 1.27-.78 1.5-.16.07-.33.1-.5.1a1.3 1.3 0 0 1-1.22-.82c-.46-1.2-1.38-1.2-2.43-1.32-2.8-.3-5.04-1.98-7.41-3.28-1.02-.55-.89-1.65-.7-2.58.52-2.76-.48-4.53-3.14-5.58a29.35 29.35 0 0 0-5.36-1.91 12.64 12.64 0 0 1-7.04-4.26c-3.02-3.35-7.04-5.24-10.62-7.82-1.98-1.43-4.16-2.6-5.94-4.31-.38-.38-.83-1.02-1.34-.78-1.8 1-2.52-.4-3.44-1.4-2.35-2.5-5.62-3.58-8.24-5.62-4.13.74-8.8-1.31-12.36 2.04-1.68 1.57-1.83 4.04-1.85 6.26-.07 6.9-.25 13.8-1.37 20.6-.65 3.95.38 7.7.3 11.55 0 1.34 1.03 2.35 1.64 3.48a2.84 2.84 0 0 1-.56 3.84c-1.77 1.77-1.72 2.06.24 3.45.74.53.96 1.09.45 1.89-.85 1.32-.58 2.54.21 3.8.8 1.27 1.57 2.76.56 4.39a1.88 1.88 0 0 0 .24 1.94c.69 1.33 1.42 2.64 2.14 3.95.22.42.71.86.67 1.24-.32 2.77 1.95 5.08 1.56 7.69-.47 3.05.6 5.76.88 8.6.35 3.5 1.13 7.04.43 10.8-.78 4-.43 8.22-.58 12.34-.04 1.21.83 1.82 1.65 2.43 1.25.94 1.35 1.6-.2 2.46-2.59 1.43-2.29 1.56-.86 4.1 2.08 3.78 5.2 6.12 8.83 8.17 1.97 1.1 3.55 2.95 5.26 4.51 3.72 3.32 7.65 6.36 11.8 9.11a65.77 65.77 0 0 1 9.87 7.93c1.63 1.68 3.85 2.58 5.88 3.68 4.03 2.17 6.83 5.15 7.04 10 .05.61.23 1.19.57 1.71 1.24 2.16 1.99 4.48 2.24 6.96a28.48 28.48 0 0 0 2.44 7.68c1.7 3.77 2.97 7.83 2.79 12.17a6.43 6.43 0 0 0 1.73 4.49c3.73 4.3 5.9 9.46 8.3 14.5 1.98 4.2 3.95 8.39 6 12.52a6.22 6.22 0 0 1 .25 5.7c-.63 1.34-.28 2.4.41 3.61 1.83 3.19 4 5.97 7.18 7.94 1.53.96 2.83 2.16 3.91 3.61a15.17 15.17 0 0 0 7.47 4.99c.41.08.8.03 1.18-.17.3-.09.85-.38.92-.07.65 3.48 2.21.6 3.32.43.3.38-.05.51-.13.73-.2.47-1 .64-.78 1.3.15.42.66.48 1.06.42.78-.1 1.07-.7 1.36-1.35.15-.34-.85-1.25.39-.98.7.15.59.89.2 1.32-1.21 1.33.06 1.65.83 2.12 3.82 2.29 7.78 4.2 12.37 4.38 1.03.1 2.03.3 3.01.57 4.16.9 5.4 2.38 5.48 6.5 0 .7-.35 1.27-1.06 1.26a1.7 1.7 0 0 0-.66.06 1.74 1.74 0 0 0-1.25 1.4 1.64 1.64 0 0 1-1.24 1.23 1.48 1.48 0 0 0-1 .64 1.4 1.4 0 0 0-.22.57c-.03.2-.02.4.03.6.2 1.73-.87 2.52-2.34 2.62-1.22.08-1.9.13-1.7 1.7.2 1.59-1.02 1.25-1.93.9-1.87-.72-2.77-.26-3.01 1.71-.07.6-.12 1.19-.73 1.31-1.84.4-3.72 1.02-5.6.16-2.22-1.04-4.33-2.48-6.66-3.02-1.76-.42-4.11-1-5.47 1.44-.4.7-1.2.43-1.79-.06a26.17 26.17 0 0 0-5.83-3.74 4.88 4.88 0 0 1-2.48-2.88c-1.63-4.11-4.14-7.82-5.85-11.84-3.46-8.04-9.24-14.15-15.14-20.13-4.29-4.34-8.85-8.44-13.21-12.73l-1.88-1.88c-7.04-7.04-10.95-15.34-11.16-25.53a39.14 39.14 0 0 0-1.74-11.2c-.3-.9-.83-1.66-1.56-2.27-8.92-8.36-19.56-13.8-30.9-18-1.3-.39-2.57-.89-3.79-1.49-1.38-.78-1.84-.2-2.35 1-2.55 6.08-6 11.73-7.91 18.15-1.33 4.47-4.52 7.69-8.3 10.33a9.14 9.14 0 0 1-5.83 1.5c-2.92-.06-5.9-.69-8.74.27-5.88 2-12.13 1.45-18.1 2.79a5 5 0 0 0-1.2.22c-6.02 3.28-12.82 2.8-19.27 3.97-3.81.7-7.83.54-11.55 1.46-3.48.86-7.13.12-10.55 1.8-3.23 1.57-6.56 3-9.7 4.8a48.72 48.72 0 0 1-6.9 3.46 10.26 10.26 0 0 0-4.17 3.13 31.08 31.08 0 0 1-8.87 6.83 21.33 21.33 0 0 0-9.18 9.29 41 41 0 0 1-2.98 4.89c-2.02 2.83-3.92 2.65-6.36.28-1.74-1.67-1.26-3.65-1.75-5.48-.1-.41-.08-.65-.55-.87-1.48-.72-1.3-1.95-.59-3.04 1.56-2.42 1.56-2.44-.45-4.3-1-.88-.89-1.65.31-2.34 2.1-1.27 2.19-2.5.38-4a2.02 2.02 0 0 1-.78-1.3 2.03 2.03 0 0 1 .7-1.84c.14-.1.29-.2.44-.27 1.27-.57 1.5-1.3.69-2.34-.5-.66-.66-1.29.26-1.61 2.69-.94 4.3-3.07 5.58-5.35 1.27-2.28 2.76-4.7 2.69-7.53.02-.53.22-.98.6-1.35a2.24 2.24 0 0 0-.15-3.27c-1.48-1.57-1.31-1.73.84-2.4 1.94-.55 3.66-1.49 5.18-2.82a4.79 4.79 0 0 1 4.88-1.19c1.48.29 2.88.8 4.2 1.52a13.75 13.75 0 0 0 6.35 2.08c1.11.04 2.13.37 3.06 1 1.23.88 2.68.54 3.9.1a36.44 36.44 0 0 0 12.52-6.74c.58-.48 1.2-.9 1.86-1.26 4.34-2.26 8.56-4.74 12.65-7.43a44.46 44.46 0 0 1 20.82-7.33c4.76-.54 9.52-.57 14.28-.1 2.1.24 3.23-.36 3.66-2.64.47-2.55.63-5.12.47-7.71-.2-3.53-.87-6.99-1.14-10.5-.08-.7-.37-1.3-.84-1.8-1.03-1.28-2.12-2.52-3.03-3.87-.78-1.12-1.48-1.96-3.05-1.93-1.57.03-1.87-1.27-1.86-2.48a5.74 5.74 0 0 0-2.07-4.45 7.67 7.67 0 0 1-2.6-5.8 12.43 12.43 0 0 0-1.75-6.26 11.64 11.64 0 0 1-1.61-8.06c.25-.8.25-1.6 0-2.4-1.33-2.35-1.17-4.66-.43-7.05.12-.4.09-.8-.08-1.2-1.9-4.05-1.78-8.45-2.25-12.74-.08-.48-.28-.9-.6-1.28-2.34-3.4-3.04-7.04-1-10.77 1.56-2.83 1.2-5.14-.48-7.88a64.24 64.24 0 0 1-5.07-11.13c-.2-.43-.34-.89-.4-1.37-.16-6.34-1.73-12.6-2.34-18.91 0-.2.07-.48 0-.6-2.87-3.24-.84-7.54-2.4-11.08s-3.13-6.98-4.37-10.57a6.22 6.22 0 0 0-3.89-3.89 6.26 6.26 0 0 0-4.19.1c-.44.17-.86.39-1.25.66-.28.18-.61.3-.91.46-4.7 2.49-9.46 4.65-14.98 4.82-3.33.1-3.55.7-3.61 4.07-.15 7.57-.46 15.13-1.1 22.69-.6 6.9.63 13.59 2.12 20.25.14.53.23 1.07.28 1.6.32 4.31 2.05 7.7 6.07 9.73 2.02 1.03 3.37 2.94 5.1 4.36a1.7 1.7 0 0 1 .6 2.01c-.84 3.01-1 6.17-2.24 9.11-.69 1.62-.33 3.5-.08 5.27.05.4.23.78.26 1.19.06.78.27 1.8-.68 2.16-.94.35-1.68-.41-2.12-1.2a19.46 19.46 0 0 1-2.43-6.68c-.07-.52.11-1.12-.54-1.57-.78.33-.78 1.05-.78 1.78.07 2.83.44 5.56 1.9 8.06.55.95.97 1.95 1.26 3 .1.4.05.76-.12 1.12a1.6 1.6 0 0 1-.8.77c-.78.42-1.3-.06-1.74-.61-.48-.58-.92-1.19-1.31-1.83-.58-.97-1.04-1.56-2.51-1.32-1.87.3-2.75-1.7-4.05-2.76-4.06-3.32-4.99-8.4-7.22-12.74-1.5-2.9-1.25-6.1-.13-9.17a6.07 6.07 0 0 0-.16-5.12c-1.09-2.22-1.03-4.77-1.57-7.16-2.1-8.89-4.87-17.61-6.12-26.7-1.07-7.76-.9-15.51-.43-23.28.18-2.95 2.34-4.99 4.02-7.18 3.2-4.35 7.15-8.02 10.84-11.93 3.07-3.2 5.93-6.8 9.92-9.06a4.47 4.47 0 0 0 1.38-1.48c.25-.34.44-.85.79-.95 2.7-.78 3.86-3.6 6.25-4.69a40.7 40.7 0 0 0 6.87-3.59c1.05-.72 2.22-.55 3.36-.46 1.03.07 1.84 0 1.41-1.38-.34-1.1.17-1.8 1.04-2.4 3.24-2.25 6.65-3.7 10.7-2.6.26.09.52.09.78 0 4.6-1.82 9.61-2.34 14-5.11a18.36 18.36 0 0 0 5.43-4.89c1-1.38 2.1-2.73 4.07-2.7.85 0 .9-.72 1.05-1.3a26 26 0 0 0 .79-7.09c.03-.34-.02-.67-.16-.98a1.84 1.84 0 0 0-.63-.77c-2.05-1.26-2.77-3.25-3.03-5.48-.18-1.62-.49-3.23-.66-4.86-.17-1.63-.37-3.07 1.74-3.53.88-.19.51-1 .51-1.56 0-2.66-.1-5.32-.11-7.98 0-2.82 1.44-5.12 2.55-7.59 1.79-4.02 5.82-5.92 8.33-9.24 1.57.78 2.2-1.49 3.63-1.18.14.05.27.04.4-.01a.54.54 0 0 0 .3-.28c.78-1.94 2.1-.94 3.34-.7 1.42.27 2.8-.5 4.36.22 2.72 1.26 5.6 2.1 8.36 3.4 3.13 1.49 3.8 4.64 5.87 6.8.64.65 1 1.83 1.75 2.42a5.91 5.91 0 0 1 2.35 4.98c-.08 3.84.5 7.74-.69 11.51a18.27 18.27 0 0 0-.86 6.26c.12 4.61-.9 9.07-2.22 13.45-.29.98 0 1.2.78 1.62 1.7.8 3.46 1 5.3.58 4.68-.68 7.86 1.32 8 6.26-.03.4.05.78.25 1.13.2.35.49.61.86.78 1.85 1.02 3.66 2.12 5.53 3.09a32.03 32.03 0 0 1 10.13 8.46 13.4 13.4 0 0 1 2.83 6.26 7.62 7.62 0 0 0 4.42 5.9c3.67 1.78 6.86 4.32 10.06 6.92 2.57 2.08 4.32 4.85 6.91 6.83 7.28 5.7 13.81 12.14 19.6 19.35 2.58 3.13 6.18 4.7 9.74 6.37 3.86 1.84 7.17 4.44 8.51 8.83.25.78.61 1.56.79 2.35.17.78.93 1.41.3 2.08-.8.82-1.42-.25-2.3-.46Zm0 0"/>
  <g clip-path="url(#a)">
    <path fill="#ffcf1b" d="M318.38 294.5a26.77 26.77 0 0 1 2.55 53.38 26.76 26.76 0 1 1-2.56-53.39Zm0 0"/>
  </g>
</svg>
