<svg xmlns="http://www.w3.org/2000/svg" width="500" viewBox="0 0 375 375" height="500" version="1.0">
  <defs>
    <clipPath id="a">
      <path d="M0 16.17h375v342.75H0Zm0 0"/>
    </clipPath>
  </defs>
  <g clip-path="url(#a)">
    <path fill="#04246e" d="m194.24 143.26-.28 1.99-.06.35c-1.1 3.65-4.52 7.24-6.67 9.85a241.5 241.5 0 0 1-12.04 13.86 366.48 366.48 0 0 1-13.46 13.2c-1.5 1.42-3.02 2.95-4.64 4.38l.03.12-.33.15c-2.15 1.87-4.46 3.53-7.08 4.5-1.6 1.35-2.98 3-3.34 5.09-.27 1.52-.17 3.17-.2 4.71-.03 1.4-.44 3.35 0 4.7.21.68.65 1.12 1.2 1.38-.31.4-.62.78-.95 1.16-1.43 1.64-2.85 3.27-4.24 4.94-1.61 1.93-3.38 3.94-4.72 6.14a8.56 8.56 0 0 0-1.68-3.2 5.21 5.21 0 0 0-2.4-1.37c-.65-.22-1.32-.32-1.93-.64a3 3 0 0 1-.9-.73c-.36-1.61-.6-3.25-.85-4.88a236.7 236.7 0 0 0-2.54-13.92c-.98-4.61-2.12-9.19-3.41-13.72-.92-3.21-1.66-7.42-3.41-10.5-.5-3.41-1.52-6.84-2.29-9.87a239.7 239.7 0 0 1-3.39-15.35.89.89 0 0 0 .3-.23c.7-.83.87-1.8 1.24-2.79.07-.18.14-.35.23-.5l.94-.53.3-.14c-1.28-1.77-2.54-3.55-3.84-5.3-3.42-4.59-7.92-8.28-11.1-13.05-.03-.03.03-.08.06-.05 4.12 4.73 8.93 8.63 12.82 13.6 2.7 3.46 5.54 6.86 8 10.5l1.41 1.28a194.18 194.18 0 0 0 21.1 16.86c1.6 1.1 3.22 2.18 4.84 3.23 1.05.68 2.1 1.53 3.25 2.1.44 5.15 1.43 10.31 2.65 15.34 1.72-1.47 3.39-3.01 5.08-4.6 4.09-3.86 8.15-7.75 12.06-11.8 4.03-4.16 7.8-8.55 11.48-13.02 1.9-2.29 3.84-4.55 5.47-7.03.58-.9 1.01-1.85 1.43-2.81a.66.66 0 0 1-.14-.17 258.8 258.8 0 0 1-12.09-25.52c-1.4-3.43-2.99-6.82-2.91-10.6.05-2.83 0-5.27-1.14-7.91-.96-2.2-2.37-4.26-3.64-6.3-.09-.14.1-.27.21-.14 2.54 2.82 4.99 5.97 5.59 9.84.38 2.39-.21 4.81.21 7.2.41 2.28 1.46 4.48 2.32 6.62 3.55 8.8 7.6 17.39 12.1 25.76.35-.83.72-1.66 1.16-2.46.05-.08.19-.07.2.04l-.01.24Zm-55.42 92.6c-2.69.26-4.27-2.38-5.18-4.47a19.56 19.56 0 0 0-3.28-5.45c-.3-.34-.57-.67-.85-1.01a.94.94 0 0 0 .22-.27c.92 1.01 1.9 1.98 2.68 3.13 1.39 2.07 1.72 4.83 3.67 6.5 2.46 2.12 5.44-.24 4.77-3.1-.34-1.48-1.27-2.76-2-4.06-.45-.8-.8-1.61-1.06-2.43l.6 1.01c.36.56.7 1.22 1.2 1.6l.51.92a9.49 9.49 0 0 1 1.4 3.56c.2 1.83-.64 3.85-2.68 4.06Zm232.96 49.52c-.78-2.24-1.5-4.83-2.98-6.73-1.34-1.74-3.54-2-5.26-3.21-.65-1.55-1.43-3.06-1.53-4.7-.1-1.54.88-2.84 1.02-4.34a7.52 7.52 0 0 0-.55-3.27c-1.05-2.86-2.84-5.62-4.46-8.2-1.14-1.8-2.38-3.8-3.94-5.36.05-.39-.11-.78-.58-.91-.2-.05-.41-.1-.6-.13-.1-.06-.19-.07-.26-.04-2.72-.41-5.4.52-7.88 1.69-3.08 1.45-6.04 2.85-9.35 3.71-1.66.43-10.34 1.07-10.64 4.13-7.29-1.2-14.65-1.9-22-2.77-4.43-.52-8.83-1.18-13.23-1.84-2.11-.32-5.47-1.34-8.07-.97-5.43-.06-10.85.06-16.27.38-2.11.14-6.51-.02-8.33 1.88-.78-.91-1.58-1.8-2.25-2.69a93.21 93.21 0 0 1-4.77-7.08 126.14 126.14 0 0 1-8.63-17.09 241.91 241.91 0 0 1-6.54-17.8c-1.75-5.29-2.93-11.3-5.6-16.25 1.3-1.49 2.46-3.2 3.6-4.58a63.01 63.01 0 0 1 8.1-8.2c2.8-2.35 5.1-5.15 7.86-7.52 1.2-1.03 2.83-2.83 2.73-4.56a34.78 34.78 0 0 0 .99-12.77c-.26-2.5-.86-4.95-1.18-7.43a25.6 25.6 0 0 1 .03-5.56c.84-.82 1.42-1.76 1.33-2.68-.12-1.1-1.41-1.85-1.92-2.71-.88-1.51-1.04-3.36-1.51-5.03-.95-3.34-3.32-5.36-5.25-8.13-1.96-2.81-3.41-5.47-6.26-7.51-5.9-4.25-13.45-4.93-19.58-8.73-3.2-1.99-6.02-4.6-9.56-6-2.15-.87-4.45-1.3-6.7-1.84 1.53-2.28 2.97-4.62 4.38-6.99.94-1.6.86-2-.46-3.28-2.2-2.11-4.45-4.16-6.67-6.25-4.12-3.86-8.04-8-12.76-11.13-3.51-2.33-7.88-5.07-12.16-6.11-2.2-1.57-5.99-1.61-8.55-1.87a80.04 80.04 0 0 0-10.82-.4c-1.56.05-3.31.43-4.86.3-1.7-.14-2.87-1.26-4.49-1.56a7.24 7.24 0 0 0-3.64.35c.4-.65.7-1.37.91-2.17.66-2.5 1.15-5.07 1.59-7.62.32-1.89.1-2.75-.81-4.14.26-2.2.33-4.46.38-6.42.1-3.83-.26-7.7-1.52-11.32-1.77-5.08-6.14-11.71-12-12.46-.01-.12 0-.24.02-.35-5.95-2.34-12.74-2.96-18.89-1-5.49 1.76-10.53 5.65-13.31 10.74a22.32 22.32 0 0 0-2.46 8.21 55.9 55.9 0 0 0-.27 11.82c-.9.3-1.32.6-1.56 2.01a20.24 20.24 0 0 0 .75 9.15c.02-.02.06-.03.09 0a11.56 11.56 0 0 0 6.01 3.64c.16.04.33.2.32.38-.36 5.18 2.12 9.68 5.2 13.66 1.48 1.93 3.08 4.13 4.98 5.66 2.29 1.85 5.34 2.27 8.2 2.32 5.46.11 10.08-5.34 13.12-9.43a16.87 16.87 0 0 0 3.4-8.96c.46-.8.85-1.62 1.17-2.48.2 5.49-2.4 10.7-6.1 14.72-2.05 2.21-4.33 4.87-7.08 6.23-2.73 1.36-6.1 1.03-8.98.39-3.13-.68-5.07-2.58-7.09-4.94-2.22-2.58-4.38-5.26-5.92-8.31a17.8 17.8 0 0 1-1.64-4.64c-.17-.88.2-2.75-.17-3.47-.46-.9-2.19-1.28-3.03-1.88a8.27 8.27 0 0 1-2.4-2.63c.22.63.48 1.22.79 1.73-1.9 1.8-3.54 4-4.36 6.46-1.46 4.36-.51 8.76-3.62 12.55-1.99 2.42-3.1 4.55-3.27 7.75-.22 4.2.8 8.3-1 12.3-.11.27.28.47.47.3.69-.63 1.3-1.28 1.79-2-.1 1.08-.22 2.17-.51 3.23-.33 1.2-.91 2.33-1.15 3.56-.27 1.39-.04 2.66 1 3.65.16.15.48.12.53-.13.6-2.96 2.3-4.66 4.7-6.06a6.45 6.45 0 0 0 3.8-2.1c.58-.71 1.1-1.48 1.58-2.27l.67-.8 6.18-6.95c1.02-1.15 2.08-2.27 3.05-3.46.36-.44.67-.91.97-1.38l.08-.07c-.53.65-1.33 2.63-1.7 3.18-.45.67-.93 1.34-1.41 2.02l-3.95 4.36c-3.64 4.05-6.65 7.89-8.69 12.82.14.37.34.73.63 1.06-.43-.02-.83.15-1.19.42l-.16.43c-.03.09-.15.07-.14-.03 0-.06.02-.12.04-.18a5.15 5.15 0 0 0-1.47 3.05c-.17 2.27.24 4.66.43 6.91.23 2.76.5 5.53.88 8.28.73 5.35 2.05 10.52 3.59 15.7.41 1.42 1.51 4.06 3 3.76.12 2.9.87 5.97 1.46 8.53.98 4.25 2.91 8.3 3.55 12.6.65 4.29-.34 8.65.69 12.92.19.76.43 1.49.7 2.2.65 3.2 2.25 6.48 3.4 9.37 1.5 3.77 3.14 7.48 4.95 11.12 1.91 3.83 3.98 7.59 6.2 11.25 1.29 2.14 2.65 4.89 4.35 7.12-.68 2-1.3 4.01-1.84 6.04-.42.59-.84 1.19-1.19 1.83-.75.69-1.06 1.8-1.25 2.83-.46 2.58-.44 5.3-.45 7.9 0 .2.11.31.25.38.07.1.16.2.27.28 3.31-3.8 6.77-7.46 10.23-11.11-.88 1.08-1.57 2.48-2.27 3.48a273.84 273.84 0 0 1-9.87 9.95c-2 2.42-3.84 5.02-5.76 7.4-3.14 3.87-6.32 7.72-9.42 11.63-2.95 3.73-5.93 7.5-8.71 11.35a58.94 58.94 0 0 0-3.63 5.63c-.53.95-1.04 1.93-1.44 2.95-.28-.76-.55-1.53-.7-2.37-.36-2.16-.24-4.36-.32-6.55-.1-2.91-1.6-4.84-3.93-6.58-.15-.12-.41-.16-.57-.03-.58.5-.56.43-.78.76-2.93.04-3.47 4.04-3.83 6.38-.78 5.1-1.28 10.4.04 15.46.93 3.58 2.72 7 5.56 9.43 2.38 2.02 5.91 3.34 8.44 1.11.24.08.51.02.69-.26 6.02-9.3 11.35-19 17.53-28.19 6.4-9.47 13.35-18.54 20.3-27.61.16-.02.33-.1.47-.28.27-.34.54-.7.78-1.07 1.81 0 4.03-1.31 5.4-2.14.79-.47 1.75-1 2.32-1.75.5-.65.33-1.74.5-2.48 1.88-1.44 4.11-3.6 4.9-5.62.72-1.9 0-4.12-.2-6.17 1.51-1.7 2.82-3.68 4.17-5.38 1.55-1.96 3.12-3.89 4.7-5.8a2.7 2.7 0 0 0 2.07 1.36c.7.07 1.41-.17 2.06-.38.74-.25 2.19-.55 2.78-1.03.3-.25.51-.67.66-1.15.5-.5.95-1.23 1.24-1.6.38-.47.74-.97 1.1-1.46.82.33 1.41 1 2.36 1.12.81.1 1.69-.17 2.47-.36 1.82-.43 4.3-.83 5.63-2.3 1.03-1.14 1.25-2.63 1.2-4.1a67.49 67.49 0 0 0-.52-6.03c.08.04.18.06.27.09-.36-4.3 4.26-8.63 7.3-11.32 5.8-5.15 11.78-10.1 17.36-15.51 5.39-5.24 11.22-11.23 14.57-18.05 2.13-4.34.03-9.88-1.31-14.23-1.23-4-2.72-7.9-4.2-11.79l-9.33-24.46c-.2-.53.63-.8.84-.27 3.45 9.06 6.94 18.1 10.35 27.16a133.8 133.8 0 0 1 3.85 11.4c.87 3.12 2.18 6.95 1.47 10.22-.65 3-2.89 5.79-4.65 8.23a84.8 84.8 0 0 1-6.96 8.33c-5.02 5.33-10.57 10.11-16.1 14.9-3.72 3.21-13.17 9.52-12.7 15.56.95.31 1.94.55 2.92.76.24.09.48.16.72.22.48.46 1.18.69 1.83.86.22.06.49-.12.57-.32.1-.26.23-.52.33-.8l.75-1.64c2.4-5.05 5.56-9.67 8.9-14.15l.21-.2 1.26-1.17c-3.2 4.75-6.28 9.56-8.83 14.68a54.06 54.06 0 0 0-3.98 10.27 36.22 36.22 0 0 0-.65 3.05l-.05.52c-.28 2.56-.3 5.14-.17 7.71.07 1.63 0 3.39.45 4.97-.95.58-1.48 1.79-1.63 3.1-.19 1.6.01 3.27-.09 4.9a40.75 40.75 0 0 1-1.01 6.3c-1.73 7.87-3.58 15.53-4.55 23.54-1.79 14.63-3 30.75-11.06 43.57-2.27.48-3.47 4.86-4.17 6.46-.94 2.15-1.79 4.38-2.96 6.41-1.37 2.38-3.5 3.76-5.52 5.5-1.49 1.29-2.63 2.88-4.02 4.25-2.42 2.4-5.7 2.7-8.84 3.46-3.02.72-5.86 2.05-7.31 4.91a.42.42 0 0 0-.03.35c-.97 2-1.83 4.7-1.13 6.45.96 2.37 5.88 2.12 7.82 2.34 4.37.51 8.8.7 13.2.6 3.27-.07 6.89-.02 10.23-.52 1.52.54 2.83.34 4.34-.25 1.23-.48 2.34-1.23 3.7-1.39 1.45-.18 3.06.27 4.49.54 3.99.75 8.06 1.66 11.8-.31.84.03 1.68.07 2.52.13.7-.28 1.32-.68 1.77-1.32a6.56 6.56 0 0 0 1.13-3.53c.74-3.12-1.16-8.06-1.35-10.37-.31-3.67.39-8.05-1.03-11.58.19-.08.31-.29.25-.5l-.01-.02a1.2 1.2 0 0 1-.45-.38 5.44 5.44 0 0 1-.89-1.98l-.1-.15-.14.1c-.22-.28-.44-.59-.62-.95-.88-1.73.25-3.6.88-5.38 1.14-3.24 2.19-6.51 3.37-9.74a124.9 124.9 0 0 1 8.59-18.86c3.24-5.72 5-11.62 6.75-17.91 1.18-4.27 2.62-8.9 3.4-13.5l.09.14c.32-2.45.57-4.9.69-7.39.13-2.73.18-5.47.2-8.2.02-1.57.73-7.05-2-7.04-.23 0-.53-.17-.51-.44.22-5.63 4-10.69 7.4-14.93a93.11 93.11 0 0 1 13.56-13.5c.05-.04.11.04.07.08-4.23 4.56-8.77 8.81-12.68 13.66a48 48 0 0 0-5.82 8.78c-.48.98-2.24 4.35-1.58 5.4.1.14.97.34 1.18.53 1.24 1.03 1.35 3.04 1.36 4.5.02 3.21-.05 6.44-.18 9.65a103.1 103.1 0 0 1-.8 10.36c1.17 1.89 2.46 3.71 3.64 5.53 2.34 3.6 4.68 7.33 7.56 10.53a53.3 53.3 0 0 0 6.4 5.9c1.18 1.76 2.8 3.3 4.23 4.77 1.78 1.8 3.5 3.74 5.4 5.44.3.08.57.17.86.26 5.12 4.74 12.4 4.54 19.12 2.78 2.72-.7 4.64-.62 7.38-.22 1.99.28 3.93.3 5.92.18 4.6-.24 9.2-.73 13.77-1.31 9.18-1.16 18.32-2.77 27.56-3.42 4.62-.32 9.2.01 13.8-.13 1.24-.03 2.93-.31 4.02-1.12 1.93.68 3.93 1.1 5.94 1.5l-.36 2.19c-.09.52.33 1.08.9 1 3.29-.42 4.8 2.22 6.71 4.24a12.25 12.25 0 0 0 4.22 2.81c3.98 1.84 5.74 5.5 8.12 9 2.37 3.5 4.85 6.94 7.24 10.44 1.53 2.24 3.29 4.35 5.75 4.42 2.32 1.12 6.46.3 7.9-1.25 1.17-1.26 1.56-3.76 1.9-5.35.47-2.3.67-4.67.64-7.02-.08-5.34-1.37-10.63-3.11-15.66Zm-360 50.08a11.67 11.67 0 1 0 0 23.35 11.67 11.67 0 0 0 0-23.35"/>
  </g>
</svg>
