<svg xmlns="http://www.w3.org/2000/svg" width="500" viewBox="0 0 375 375" height="500" version="1.0">
  <defs>
    <clipPath id="a">
      <path d="M125 120h16v17h-16Zm0 0"/>
    </clipPath>
    <clipPath id="b">
      <path d="M0 95.05h135V313H0Zm0 0"/>
    </clipPath>
    <clipPath id="c">
      <path d="M256 56.26h117v262.5H256Zm0 0"/>
    </clipPath>
  </defs>
  <g clip-path="url(#a)">
    <path fill="#04246e" d="M133.24 120.94a7.96 7.96 0 0 0-7.92 7.91 7.96 7.96 0 0 0 7.92 7.92 7.96 7.96 0 0 0 7.91-7.92 7.96 7.96 0 0 0-7.91-7.91Zm0 0"/>
  </g>
  <g clip-path="url(#b)">
    <path fill="#04246e" d="M134.43 294.29c-.32-1.74-1.3-2.6-1.63-2.93a5.1 5.1 0 0 0-3.68-2.16c-.76-.11-1.4-.88-2.06-1.41-.76-.55-1.3-1.2-2.06-1.85-2.17-2.06-4.45-4.12-6.61-6.29-1.96-1.95-3.7-4.22-5.64-6.18-2.5-2.6-5.64-3.79-9.32-3.68-.66 0-1.63-.33-1.96-.87-2.49-3.8-3.25-8.02-3.25-12.58 0-1.51-.1-3.03-.22-4.66 1.2-1.4 2.28-2.93 2.17-3.8-.1-1.73-3.8-12.24-6.4-17.77 0-.76.22-1.52.77-2.28.1-.1 0-.32 0-.54-.33-3.25-.66-6.4-.98-9.65a5.62 5.62 0 0 0-.76-2.38c-1.62-2.6-3.36-5.1-4.99-7.7-.97-1.52-1.95-2.93-2.6-4.55-1.73-4.01-3.03-8.13-4.88-12.04-2.38-5.31-5.1-10.51-7.7-15.72-.75-1.52-1.4-3.03-2.16-4.77 1.19.11 3.36.65 5.74.65 1.41.44 2.93.76 3.69.44 1.63-.44 2.7-1.09 3.36-1.3.76-.22 2.82-1.63 4.66-3.15a181.4 181.4 0 0 0 8.9-8.46c.32-.21 1.5-.75 2.05-1.3.43-.43 1.3-1.3 1.63-1.4 2.93-1.2 3.68-1.41 6.29-2.71.65-.33 1.08-.77 1.08-1.41.1-1.2.87-1.96 1.52-2.82.22-.33.54-.76.65-1.09.32-.76.54-1.52-.11-2.16.32-.55.76-.87.87-1.41.1-.33 0-.87-.22-1.09-.1-.22-.65-.22-.97-.1-.22 0-.44.32-.55.43-.86.86-1.73 1.73-2.6 2.49-.76.54-1.52.98-2.39 1.52 1.52-1.52 3.04-2.93 4.56-4.34.43-.43.76-.87.21-1.4-.43-.44-.86-.44-1.51.1-1.3 1.08-2.6 2.06-3.9 3.14a8.91 8.91 0 0 1-3.7 1.74c-1.3.22-1.84-.44-1.4-1.63.33-.76.65-1.4.97-2.17.22-.43.33-.97.22-1.51 0-.65-.76-.98-1.08-.54-.65.86-1.41 1.73-1.95 2.6-1.2 2.27-1.74 4.77-2.17 7.37 0 .21-.1.54-.22.65-.87.54-1.73 1.08-2.6 1.52-.32.21-.65.32-.98.54-2.06.97-16.26 4.44-16.26 4.44h-.54c-.43-.86-7.92-2.92-10.84-2.5-.65-.2-1.2-.64-1.74-1.07-1.62-.98-3.14-2.39-4.87-3.04-3.15-1.08-6.4-1.84-9.54-2.6-1.3-.33-2.17-.87-2.5-2.06-.32-1.52-.43-3.04-.76-4.55-.54-2.39-.97-4.67-1.73-7.05-.76-2.5-1.41-4.99-2.5-7.27a7.56 7.56 0 0 0-2.81-2.7 13.2 13.2 0 0 0-9.11-.87c-.54.1-.98.1-1.73.22.1-1.1.1-1.96.21-2.83.43-6.82-.43-13.55-4.12-19.4-2.82-4.23-6.29-6.94-11.16-6.61-5.1.32-8.9 4.12-9.87 9.43a43.3 43.3 0 0 0-.65 5.1V115.3c0 .22 0 .54.1.76v.22c0 .21 0 .54.12.76v.31l.32 1.96c0 .22.11.44.11.65v.22c0 .21.1.54.1.76v.22c.12.43.23.64.23.97 0 .1 0 .1.1.22.11.21.11.43.22.76 0 .1 0 .1.11.21.11.22.11.44.22.76 0 .11 0 .11.1.22.11.22.11.43.22.76 0 .1 0 .1.1.21.12.22.23.44.23.77.21.64.54 1.4.76 2.05l.21.44c0 .1.1.1.1.21l.34.65c0 .11.1.11.1.22l.33.65c0 .22 0 .22.1.33.12.21.23.43.33.65 0 .1.11.1.11.21 0 .11.11.11.11.22.1.22.22.33.22.54 0 .11.1.11.1.22.11.1.22.22.33.43.1.22.33.55.44.76 0 .11.1.22.1.22 0 .1.11.1.11.21 2.06 3.8 4.12 7.49 4.88 11.82.98 5.31 1.62 10.74 2.17 16.16.22 1.73.54 3.9-2.5 4.77.33.21.55.43.76.75.11.76.55 5.75.76 6.07l.54.77s.11.75.22.86c.1 0 .33.1.76.1.11.12.32.23.43.23.76.1 1.52.1 2.17.21 0-.1-.1-.21-.1-.32h.32c.1 0 .65.76 1.2 1.73.53.98 1.5.98 3.35 1.74.22.1.65.22.98.43.1.11.21.11.21.22 2.28 1.41 4.88 2.17 7.38 3.25a24261 24261 0 0 0 9.76 4.23c.32.11.75.54.86.87 1.63 3.25 4.01 6.4 4.66 9.97.98 4.99 5 7.8 6.73 12.14.21.54.32 1.09.53 1.63-.53.1-4.77 4.88-6.07 5.85-1.62 1.3-3.57 2.28-5.2 3.69-3.58 3.14-7.05 6.5-10.62 9.87-2.06 1.95-3.69 4.33-6.07 5.85-2.93 1.84-3.58 4.23-3.47 7.26l.32 12.25c.11 3.47 0 7.05.54 10.4 1.2 6.84 2.72 13.56 4.13 20.4.32 1.4.32 2.92.53 4.55-2.7-.76-2.7-.66-3.14 1.95-1.08.1-2.27.32-3.36.43v.65h3.47c1.84.1 2.5.76 1.73 2.28-1.84 3.36-4.11 6.6-6.18 9.86-.21.33-.97.33-1.19.76-.54.65-1.08 1.52-1.08 2.28v1.08c.1.65.22 1.3.97 1.41.98.22 5.2.33 6.3.33.97-.11 6.71-.11 7.25-.33.55-.1.66-.32 1.52-.43.87-.1 1.3 0 2.5 0s2.27-.65 4-.54h.44c0-.65-.1-1.3-.32-1.96-.55-1.73-.22-3.68-.55-5.52-.21-1.52-.64-3.04-.97-4.45-.1-.32-.22-.87-.54-.98-1.85-.64-1.41-2.27-1.52-3.68-.22-5.42-.65-10.73-.76-16.15 0-1.74.11-3.69.76-5.2 1.84-4.45 1.19-9 .98-13.56-.11-2.28-.55-4.66-.87-6.94-.33-2.5.54-4 3.03-4.98 2.28-.98 4.77-1.63 7.05-2.5a9.9 9.9 0 0 0 2.6-1.2c.22 1.1.76 2.07.87 2.5 1.52 3.58 3.58 2.17 6.29-.54 1.95-2.06 4.01-4.01 6.07-5.96.43-.44.87-.76 1.3-.98 2.6-1.63 2.82-1.63 4.77.76 4.12 4.99 13.88 21.36 14.31 23.1 1.2 3.9 2.38 7.69 4 11.38 1.85 4.12 5.32 6.17 9.55 7.37 2.28.65 4.45 1.62 6.61 2.5 2.39.86 4.67 1.73 7.05 2.7 2.38.98 4.77 1.96 7.05 3.15 1.19.65 2.06 1.84 2.82 3.03.86 1.3 1.51 2.82 2.06 4.34.21.76-.22 1.62-.44 2.49.33.1 1.2.22 1.41.76.33.54.43 1.52.22 2.06-.54 1.63-1.09 3.25-1.95 4.66a12.38 12.38 0 0 0-1.41 4.12c.32.44.54.76.97.98.55.21 4.01.21 5.97 0 1.95-.22 4.11 0 5.52-.76 1.41-.76 1.3-.76 2.28-2.28.22-.33.44-.54.65-.76.11-1.73.22-5.2 0-8.56.65-2.82.44-4.45.11-6.18ZM23.42 119.75v.43l-.22-.54h.22v.1Zm-.55 3.68-.21-.76.43-.1c0 .21-.1.54-.1.75Zm.11.22s0 .1 0 0Zm-3.03 3.58-.22-.76.98-.22.21.76Zm.76 0c-.22.21-.44.43-.55.75l-.1-.54Zm-2.93 6.61-.22-.76.55-.1v.32c0 .22-.11.32-.11.54Zm.1.21v.11Zm-1.08 1.1-.21-.77.97-.22.11.44c-.1.1-.1.32-.22.43Zm.55 0a.87.87 0 0 1-.44.42l-.1-.32Zm-11.06-33.3.21.77-1.08.21-.1-.76Zm-1.09.11-.21-.75.97-.22.22.76Zm11.06 31.23-.21-.76.97-.22.22.76Zm1.09 0 .21.76-.97.21-.22-.75Zm-1.52-1.85-.22-.75.98-.22.21.76Zm1.08 0 .22.77-.98.21-.32-.76Zm-1.62-1.84-.22-.76.98-.21.21.76Zm1.08-.1.22.75-.98.22-.22-.76ZM7.8 107.5l.22.75-.97.22-.22-.76Zm-1.08.1-.22-.76.98-.21.22.76Zm9.76 16.48-.22-.76.98-.21.21.75Zm1.08 0 .22.76-1.08.22-.22-.76Zm-7.26-12.25.22.76-.98.22-.22-.76Zm-1.09.11-.21-.76 1.08-.22.22.76Zm1.3.87.22.76-.97.21-.22-.65Zm5.2 8.45-.2-.76.97-.21.22.76Zm1.1 0 .21.76-.97.22-.22-.76Zm-1.3-.87-.22-.75.97-.22.22.76Zm-.33-.97-.11-.76.98-.21.21.75Zm-.22-.97-.22-.76.98-.22.22.76Zm-.43-.66.21.76-.97.22-.22-.76Zm-1.09.11-.21-.76.97-.21.22.76Zm1.41.87.22.76-1.09.22-.21-.76Zm-.1-1.2-.22-.75.97-.22.22.76Zm-.33-.97-.22-.76.98-.22.21.77Zm-.22-.97-.22-.65.98-.22.22.76Zm-.1.32.2.76-.96.22-.22-.76Zm-1.1 0-.2-.65.97-.22.21.76Zm-.43-.65.22.76-.97.22-.22-.76Zm-1.08.11-.22-.76.98-.22.22.76Zm1.3.87.22.76-.97.21-.22-.76Zm-.1-1.2-.22-.76.97-.21.22.76Zm-.22-.97-.22-.76.98-.22.21.76Zm-.22-.98-.21-.75.97-.22.22.75Zm-.21.33.21.75-.98.22-.21-.75Zm-1.1 0-.2-.65.97-.22.22.76Zm-.2-.87-.22-.76.97-.22.22.77Zm.1 1.2.22.75-.98.22-.21-.76Zm.22.86.21.76-.97.22-.22-.76Zm.21.97.22.77-.97.21-.22-.76Zm.33.98.22.76-1.09.22-.21-.76Zm.22.87.22.76-1.1.32-.2-.76Zm.22.98.21.75-.98.22-.21-.76Zm.21-.22-.21-.76.97-.22.22.76Zm1.09-.1.21.75-.98.21-.21-.75Zm.21.96.22.77-.98.21-.22-.76Zm.32.87.11.76-.97.22-.22-.76Zm.22.98.22.76-.97.21-.22-.75Zm.11-.22-.22-.76.98-.21.22.75Zm1.09-.1.21.75-.97.22-.22-.76Zm.32.97.22.76-.98.21-.32-.76Zm.22.97.22.76-.98.22-.22-.76Zm.22.87.21.76-.97.22-.22-.65Zm.32.98.22.76-.98.21-.22-.75Zm-.1-1.2-.22-.75.97-.22.22.65Zm.97-1.3-.22-.75.98-.22.21.76Zm-.33-.97-.21-.76.97-.22.22.76Zm-.21-.87-.22-.76.97-.22.22.77Zm-.22-.98-.22-.75.98-.22.21.76Zm-.33-.97-.1-.65.97-.22.22.76Zm-.21-.87-.22-.76.98-.21.21.76Zm-.22-.97-.22-.76.98-.22.22.76Zm-.33-.98-.21-.76.97-.22.22.76Zm-.21-.87-.22-.75.98-.22.21.75Zm-.22-.97-.22-.76.98-.22.22.76Zm-.22.32.22.76-.98.22-.21-.76Zm-1.08 0-.22-.76.98-.21.22.76Zm-.22-.97-.21-.76.97-.22.22.76Zm-.21-.87-.22-.76.97-.22.22.76Zm-.33-.98-.22-.75.98-.22.21.76Zm-.1.33.2.76-.96.22-.22-.76Zm-1.1 0-.2-.76.97-.22.21.76Zm-.2-.98-.23-.76.98-.21.22.76Zm-.23.33.22.76-.97.21-.22-.75Zm-1.08 0-.22-.76.98-.22.22.76Zm-.22-.87-.21-.76.97-.21.22.75Zm-.21.22.21.76-.97.21-.22-.75Zm-1.09.1-.1-.75.97-.22.22.76Zm-.21-.97-.22-.76.97-.22.33.66Zm-.11.22.22.76-1.09.32-.22-.76Zm.22.97.21.76-.98.22-.21-.76Zm.21.98.22.76-.98.22-.22-.76Zm.33.87.21.75-.97.22-.22-.75Zm.21.97.22.76-.97.22-.22-.76Zm.22.98.22.76-.98.21-.21-.76Zm.33.87.21.75-.97.22-.33-.65Zm.21.97.22.76-.98.22-.21-.76Zm.22.98.22.76-.98.21-.22-.76Zm.32.86.22.76-.97.22-.22-.76Zm.22.98.22.76-.98.22-.21-.76Zm.22.98.21.75-.97.22-.22-.76Zm.32.86.22.76-.97.22-.22-.76Zm.11-.22-.22-.75.98-.22.22.76Zm1.08-.1.22.76-.97.21-.22-.76Zm.22.97.22.76-.97.22-.22-.65Zm.33.98.22.76-.98.21-.22-.75Zm.22.87.21.75-.98.22-.21-.76Zm.21-.22-.21-.76.97-.22.22.76Zm1.09-.1.21.75-.97.22-.22-.76Zm.21.97.22.76-1.09.21-.21-.76Zm.22.97.22.76-.98.22-.22-.76Zm.32.87.22.76-.97.21-.22-.75Zm.22.97.22.77-.98.21-.21-.76Zm.1-.21-.2-.76.97-.22.22.76Zm1.1-.11.21.76-.97.22-.22-.76Zm.21-.21-.22-.77.98-.21.22.76Zm.98-1.3-.22-.77.97-.21.22.76Zm-.33-.98-.22-.76.98-.22.22.76Zm-.22-.87-.21-.76.97-.22.22.76Zm.98-1.3-.22-.76.98-.22.22.76Zm-.22-.87-.21-.76.97-.21.22.75Zm-.32-.97-.22-.76.98-.22.21.76Zm-.22-.98-.22-.76.98-.22.22.76Zm-.22-.87-.21-.76.97-.21.22.76Zm-.32-.97-.22-.76.98-.22.22.76Zm-.22-.98-.21-.76.97-.21.22.75Zm-.21-.87-.22-.76.97-.21.22.76Zm-.33-.97-.22-.76 1.09-.22.21.76Zm-.22-.98-.21-.75.97-.22.22.75Zm-.21-.86-.22-.76.98-.22.21.76Zm-.33-.98-.22-.76.98-.22.22.76Zm-.1.22.2.76-.97.21-.21-.76Zm-1.1.1-.2-.75.97-.22.21.76Zm-.2-.97-.23-.76.98-.22.22.76Zm-.34-.98-.21-.75.98-.22.21.76Zm-.21-.86-.22-.76.98-.22.22.76Zm-.1.21.21.76-.98.22-.22-.76Zm-1.1.11-.21-.76.98-.22.21.77Zm-.32-.98-.21-.75.97-.22.22.76Zm-.1.33.21.76-.98.22-.21-.76Zm-1.1 0-.2-.76.97-.21.22.75Zm-.2-.97-.22-.77.97-.21.22.76Zm-.22.32.21.76-.97.22-.22-.76Zm-1.09 0-.22-.76.98-.22.22.76Zm-.22-.87L9 106.2l.97-.22.22.65Zm-.21.22.21.76-.97.21-.22-.75Zm-1.09.1-.1-.75.97-.22.22.76Zm.11 1.2.22.76-.98.22-.21-.76Zm-.97 1.2.21.75-.97.22-.22-.76Zm.32.97.11.76-.98.21-.21-.75Zm.22.97.21.77-.97.21-.22-.76Zm.21.87.22.76-.97.22-.22-.76Zm.33.98.1.75-.97.22-.21-.75Zm.22.97.22.65-1.09.33-.22-.76Zm-.98 1.2.22.76-.98.21-.22-.76Zm.22.97.21.76-.97.22-.22-.76Zm.21-.21-.21-.77.98-.32.21.76Zm1.1-.11.2.76-.97.21-.22-.76Zm.2.97.22.76-.97.22-.22-.76Zm.22.87.22.76-.97.32-.22-.75Zm.33.97.22.77-.98.21-.32-.76Zm.22.98.21.65-.97.22-.22-.76Zm.21.87.22.76-.98.21-.21-.75Zm.33.97.21.76-1.08.22-.22-.76Zm.21.98.22.76-.97.21-.22-.75Zm.11-.33-.21-.76.97-.21.22.76Zm1.09 0 .22.76-.98.22-.22-.76Zm.32.87.22.76-.98.22-.21-.76Zm.22.98.21.76-.97.21-.22-.75Zm.21.97.22.76-.97.22-.22-.76Zm.22-.32-.22-.76.98-.22.22.76Zm1.09 0 .21.76-.97.22-.22-.77Zm.21.87.22.75-.97.22-.22-.76Zm.22.97.22.76-.98.22-.21-.65Zm.33.97.21.77-.97.21-.22-.76Zm.21.87.22.76-1.09.33-.21-.76Zm.22-.21-.22-.76.98-.22.22.76Zm1.2-.33-.22-.76.97-.21.22.75Zm.97-1.3-.22-.76.98-.21.21.75Zm.97-1.2-.21-.75.97-.22.22.76Zm.98-1.3-.22-.75.98-.22.21.76Zm-.22-.86-.22-.76.98-.22.22.76Zm-.32-.98-.11-.76.98-.21.21.76Zm1.08-1.3-.21-.76.97-.21.22.76Zm-.32-.87-.22-.75.97-.22.22.76Zm-.22-.97-.22-.76.98-.21.21.75Zm-.22-.97-.22-.76.98-.22.22.76Zm-.32-.87-.22-.76.98-.22.21.76Zm-.22-.98-.22-.76.98-.22.22.77Zm-.22-.97-.21-.76.97-.22.22.76Zm-.32-.87-.22-.76.98-.22.21.76Zm-.22-.98-.22-.76.98-.21.22.76Zm-.22-.97-.21-.76.97-.22.22.76Zm-.32-.87-.22-.76.98-.22.22.76Zm-.22-.98-.21-.75.97-.22.22.76Zm-.21-.97-.22-.76.97-.22.22.76Zm-.33-.87-.22-.76.98-.22.22.77Zm-.1.22.21.76-.98.21-.21-.76Zm-1.1 0-.2-.76.97-.22.21.76Zm-.32-.87-.1-.76.97-.21.22.75Zm-.21-.97-.22-.77.97-.21.22.76Zm-.22-.98-.22-.76.98-.22.21.76Zm-.22.32.22.76-.98.22-.21-.76Zm-1.08 0-.22-.75 1.08-.22.22.76Zm-.22-.86-.22-.76.98-.22.32.65Zm-.1.22.2.75-.96.22-.22-.76Zm-1.1.1-.2-.76.97-.21.21.76Zm-.32-.97-.21-.76.97-.22.22.76Zm-.1.32.21.76-1.08.22-.22-.76Zm-1.09 0-.22-.76.98-.21.22.75Zm-.22-.97-.21-.65.97-.33.22.76Zm-.21.32.21.76-.97.22-.22-.76Zm-1.09 0-.21-.65.97-.22.22.76Zm-.1.33.21.76-1.08.21-.22-.76Zm-1.09 0-.22-.65.98-.22.22.76Zm-.22-.87-.21-.76.97-.33.22.76Zm-.21.22.21.75-1.08.22-.11-.76Zm.21.97.22.65-.98.33-.21-.76Zm-.97 1.2.21.75-.97.22-.22-.65Zm.32.97.22.76-1.08.22-.22-.76Zm.22.98.22.75-.98.22-.21-.76Zm-.97 1.19.21.76-1.08.21-.22-.75Zm.21.97.22.76-.98.22-.22-.76Zm.32.98.22.76-.97.21-.33-.75Zm.22.87.22.76-.97.21-.33-.65Zm.22.97.22.76-.98.22-.21-.76Zm.33.98.21.76-.98.21-.21-.75Zm-.98 1.19.21.76-1.08.22-.22-.76Zm.21.98.22.76-.97.21-.33-.76Zm.22.97.22.65-.97.22-.22-.76Zm.33.87.22.76-.98.22-.22-.76Zm.1-.22-.21-.76.97-.21.22.76Zm1.1-.1.2.75-.97.22-.21-.76Zm.2.97.23.76-.98.21-.22-.75Zm.33.97.22.77-.98.21-.21-.76Zm.22.87.22.76-.98.22-.22-.76Zm.22.98.21.76-.97.21-.22-.75Zm.32.97.22.76-1.08.22-.22-.76Zm.22.87.22.76-1.09.22-.21-.65Zm.22.98.21.76-.97.22-.22-.77Zm.21-.22-.21-.76.97-.22.22.77Zm1.09-.1.21.75-.97.22-.22-.76Zm.21.97.22.76-.97.21-.22-.75Zm.22.86.22.77-.98.21-.21-.76Zm.33.98.21.76-.97.22-.22-.76Zm.1-.21-.21-.77.97-.21.22.76Zm1.09-.11.22.75-.98.22-.22-.76Zm.22.97.21.76-.98.22-.21-.76Zm.32.87.21.76-.97.21-.33-.65Zm.21.97.22.76-.97.22-.22-.65Zm.22.98.22.76-.97.22-.22-.76Zm.22-.32-.22-.76.98-.22.22.76Zm1.08 0 .22.75-.97.22-.22-.76Zm.22.86.22.76-1.09.33-.21-.76Zm1.2-1.52-.22-.65.97-.21.22.76Zm-.33-.86-.22-.76.98-.22.21.76Zm.97-1.3-.21-.76.97-.22.22.76Zm.98-1.3-.11-.65.98-.22.22.76Zm.98-1.2-.22-.75.97-.22.33.65Zm1.08-1.3-.22-.76.98-.21.21.75Zm-.33-.87-.21-.75.97-.22.22.76Zm-.21-.97-.22-.76.98-.22.21.76Zm.97-1.3-.21-.76.97-.22.22.76Zm-.21-.87-.22-.76.97-.22.22.77Zm-.33-.98-.22-.75.98-.22.22.76Zm-.22-.97-.21-.65.97-.22.22.76Zm-.21-.87-.22-.76.98-.21.21.76Zm-.33-.97-.21-.76 1.08-.22.22.76Zm-.21-.98-.22-.76.97-.22.22.76Zm-.22-.87-.22-.75.98-.22.21.75Zm-.33-.97-.21-.76.97-.22.22.76Zm-.21-.98-.22-.76.98-.21.21.76Zm-.22-.87-.22-.75.98-.22.22.76Zm-.32-.97-.22-.76.97-.22.22.76Zm-.22-.98-.22-.75.98-.22.21.76Zm-.22-.86-.22-.76.98-.22.22.76Zm-.32-.98-.22-.76.98-.22.21.76Zm-.22-.98-.22-.75.98-.22.22.76Zm-.11.33.22.76-1.09.21-.21-.75Zm-1.08 0-.22-.76.98-.21.21.75Zm-.33-.87-.22-.76.98-.21.22.76Zm-.22-.97-.21-.76.97-.22.22.76Zm-.21-.98-.22-.76.98-.22.21.76Zm-.22.33.22.75-.98.22-.22-.76Zm-1.09 0-.21-.76.98-.22.32.76Zm-.21-.98-.22-.76.98-.21.22.75Zm-.22.33.22.76-.98.21-.21-.76Zm-1.08 0-.11-.66.98-.21.21.76Zm-.22-.87-.21-.76.97-.22.22.76Zm-.1.22.21.75-.98.22-.21-.76Zm-1.1.1-.2-.75.97-.22.22.76Zm-.31-.97-.11-.76.97-.22.22.76Zm-.11.32.21.65-1.08.33-.22-.76Zm-1.09 0-.22-.76.98-.21.22.76Zm-.1.22.2.76-1.07.32-.22-.75Zm-1.1.11-.2-.76.97-.22.21.76Zm-.32-.98-.21-.65 1.08-.32.22.75Zm-.1.33.21.76-1.08.21-.22-.75Zm-1.09 0-.22-.65.98-.33.22.76Zm-.22.32.22.76-.97.22-.22-.76Zm.33.87.22.76-1.09.33-.21-.76Zm-.97 1.3.21.76-1.08.22-.22-.76Zm.21.98.22.65-.98.21-.22-.64Zm-.98 1.19.22.76-1.08.21-.22-.75Zm.22.97.22.77-.98.21-.21-.76Zm.33.98.22.76-.98.22-.22-.76Zm-.98 1.2.22.75-.98.22-.21-.76Zm.22.97.21.76-.97.22-.22-.76Zm.21.98.22.64-.97.22-.22-.75Zm.33.86.22.76-.98.22-.21-.76Zm.22.98.22.76-.98.21-.22-.76Zm.22.97.21.76-.98.22-.21-.76Zm-.98 1.2.21.76-.97.21-.22-.76Zm.21.97.22.76-.97.22-.22-.76Zm.33.98.22.76-.98.21-.21-.75Zm.22.86.22.77-.98.21-.22-.76Zm.22.98.21.76-.98.22-.21-.76Zm.32.98.21.65-1.08.32-.22-.76Zm.1-.33-.21-.76.98-.21.21.75Zm1.1 0 .21.76-.98.22-.22-.76Zm.32.87.21.76-.97.21-.22-.76Zm.21.97.22.76-.97.22-.22-.76Zm.22.98.22.76-.98.22-.21-.76Zm.33.87.1.76-.97.21-.22-.75Zm.21.97.22.76-.98.22-.21-.76Zm.22.98.22.76-.98.22-.22-.77Zm.32.87.22.75-.97.22-.22-.76Zm.11-.22-.21-.76.97-.21.22.75Zm1.09-.1.21.75-.97.22-.33-.65Zm.21.97.22.76-.97.21-.22-.76Zm.33.97.22.76-.98.22-.22-.76Zm.22.87.21.76-.97.22-.22-.76Zm.1-.22-.21-.76.98-.21.21.76Zm1.09-.1.21.75-.97.33-.22-.76Zm.32.97.22.76-1.08.21-.22-.75Zm.22.97.22.77-.98.21-.21-.76Zm.22.87.22.76-.98.22-.22-.76Zm.32.98.22.76-.98.21-.21-.75Zm.11-.22-.21-.76.97-.21.22.75Zm1.09-.1.21.75-.97.22-.22-.76Zm.21.97.22.76-.98.22-.21-.77Zm.22-.32-.22-.77.98-.21.22.76Zm1.08 0 .22.75-.98.22-.32-.76Zm1.09-1.52-.22-.76.98-.22.21.76Zm-.22-.98-.22-.76.98-.22.22.76Zm.98-1.3-.22-.76.97-.22.22.76Zm-.22-.87-.22-.76.98-.22.21.77Zm.97-1.3-.21-.76.98-.22.21.77Zm.98-1.2-.21-.75.97-.22.22.76Zm.98-1.3-.22-.75.97-.22.22.76Zm.97-1.3-.22-.75.98-.22.22.76Zm-.22-.86-.21-.76.97-.22.22.76Zm-.32-.98-.22-.75.98-.22.22.76Zm.98-1.3-.22-.75.98-.22.21.75Zm-.22-.86-.22-.76.98-.22.21.76Zm-.22-.98-.22-.76.98-.22.22.76Zm-.32-.98-.22-.75.98-.22.21.76Zm-.22-.86-.22-.76.98-.22.22.76Zm-.22-.98-.21-.76.97-.21.22.75Zm-.32-.97-.11-.66.97-.21.22.76Zm-.22-.87-.22-.76.98-.22.22.76Zm-.22-.98-.21-.75.97-.22.22.75Zm.98-1.3-.22-.76.98-.21.22.75Zm-.32-.87-.22-.75.97-.22.22.76Zm-.11.22.21.76-.97.22-.22-.76Zm-1.09.1-.21-.75.97-.22.22.76Zm-.21-.97-.22-.76.97-.21.22.76Zm-.33-.97-.22-.76.98-.22.21.76Zm-.22-.87-.21-.76.97-.21.22.75Zm-.21-.97-.22-.77.98-.21.21.76Zm-.33-.98-.21-.76 1.08-.22.22.76Zm-.21-.87-.22-.76.97-.21.22.75Zm-.22-.97-.22-.76.98-.22.21.76Zm-.22.21.22.76-.98.22-.21-.76Zm-1.08.11-.22-.76.98-.21.21.76Zm-.22-.97-.22-.66 1.09-.32.21.76Zm-.22-.87-.21-.76.97-.22.22.76Zm-.32-.98-.22-.75 1.09-.22.21.75Zm-.11.22.22.76-.98.22-.22-.76Zm-1.08.1-.22-.75.97-.22.22.76Zm-.22-.97-.22-.76.98-.22.21.77Zm-.22.33.22.76-.98.21-.21-.76Zm-1.08 0-.22-.76 1.08-.22.22.76Zm-.22-.98-.22-.76.98-.21.21.75Zm-.22.33.22.75-.97.22-.22-.75Zm-1.08 0-.22-.76.98-.22.21.76Zm-.22-.87-.21-.76.97-.22.22.76Zm-.1.21.21.77-1.08.21-.22-.65Zm-1.09.11-.22-.75.98-.22.22.76Zm-.22.22.22.76-.98.22-.21-.65ZM8.9 101l-.22-.76.98-.21.22.75Zm-.22-.97-.21-.77 1.08-.21.1.76Zm-.1.21.21.76-1.08.33-.22-.77Zm-1.09.11-.22-.76.98-.22.22.76Zm-.22.21.22.77-.98.32-.21-.76Zm-1.95 2.61.22.76-1.08.21-.11-.75Zm.22.87.22.76-.98.21-.22-.65Zm-.98 1.3.22.76-.98.21-.21-.76Zm.33.97.21.76-.97.22-.33-.76Zm-.98 1.2.22.75-.98.22-.21-.76Zm.22.97.22.76-.98.22-.22-.76Zm.22.98.21.76-.97.21-.22-.76Zm-.98 1.2.22.75-.98.21-.21-.65Zm.22.96.21.77-.97.21-.22-.76Zm.32.98.22.76-.98.22-.21-.76Zm.22.87.22.75-.98.22-.22-.65Zm.22.97.21.76-.97.22-.22-.76Zm.32.98.22.76-1.09.22-.21-.77Zm-.97 1.2.21.75-.97.22-.22-.76Zm.21.97.22.76-1.08.21-.22-.76Zm.22.87.22.75-.98.22-.22-.65Zm.33.97.21.76-.97.21-.22-.75Zm.21.97.22.77-.98.21-.21-.76Zm.22.87.21.76-.97.22-.22-.76Zm.32.98.22.76-.97.21-.22-.75Zm.22.97.22.76-.98.22-.21-.76Zm.1-.32-.2-.76 1.07-.22.22.76Zm1.1 0 .2.76-.96.21-.22-.75Zm.32.97.22.77-.98.21-.22-.76Zm.22.87.21.76-.98.22-.21-.65Zm.21.98.22.76-.98.21-.22-.75Zm.33.97.21.76-.97.22-.22-.76Zm.21.87.22.76-.97.22-.22-.76Zm.22.98.22.76-.98.21-.21-.76Zm.33.97.21.76-1.08.22-.22-.76Zm.1-.32-.21-.76.97-.22.33.76Zm1.09 0 .22.76-.98.21-.22-.76Zm.32.86.22.76-.98.22-.21-.76Zm.22.98.22.76-.98.22-.22-.76Zm.22.98.21.65-.97.32-.22-.76Zm.21-.33-.21-.76.97-.21.22.75Zm1.09 0 .22.76-1.09.22-.21-.76Zm.22.87.21.76-.97.22-.22-.77Zm.21.98.22.75-.98.22-.21-.76Zm.33.97.21.76-.97.21-.22-.75Zm.21.87.22.76h-.22c-.32-.11-.54-.33-.86-.55Zm.11-.22-.22-.76.98-.22.22.76Zm1.09-.1.21.75-.97.22-.22-.65Zm.32.97.1.54c-.43 0-.75-.1-1.18-.33Zm.1-.22-.2-.76.97-.21.22.75Zm1.1-.1.2.75-.75.22h-.32l-.22-.65Zm.1-.23-.21-.75.97-.22.22.76Zm1.09-.1.1.43c-.21.22-.54.33-.75.54h-.22l-.22-.76Zm.97-2.5-.21-.75.97-.22v.1c-.1.22-.1.44-.21.76Zm.76-1.95.43-.1c-.1.21-.21.53-.21.75Zm-.1-.21-.22-.76.97-.22v.1c-.1.22-.22.44-.32.77Zm.86-1.96.76-.21c-.22.32-.32.65-.54.86h-.11Zm-.1-.21-.23-.76.98-.22.22.76Zm1.94-2.5-.21-.76.97-.21.22.76Zm1.09-.1-.33.32c-.22.22-.43.32-.54.54l-.22-.65Zm0-.98.76-.22c-.11.33-.22.65-.44.87h-.1Zm-.11-.22-.22-.76.98-.21.1.54c0 .1 0 .22-.1.22Zm.76-2.17-.22-.76.76-.21c0 .21 0 .54-.11.76Zm-.22-.97-.22-.76.98-.22.1.22v.54Zm.87-2.28-.22.11-.21-.76.32-.1c.1.21.1.53.1.75Zm0-.97-.43.1-.22-.75.54-.11c.1.21.1.54.1.76Zm-.11-.98-.54.1-.22-.75.76-.22v.87Zm-.11-.97-.76.21-.21-.76.86-.22c.11.22.11.55.11.77Zm-.1-.98-.87.22-.22-.76.98-.22c.1.22.1.54.1.76Zm-.11-.98-.98.33-.22-.76.98-.22Zm-1.3-.65-.22-.76.97-.21.22.76Zm.86-2.06v.22Zm-1.08 1.09-.22-.76.98-.22.21.76Zm.86-1.95c.11.21.11.54.22.75Zm-.32-.98c.1.22.1.43.22.76Zm-.22-.97c.1.21.1.43.22.75Zm-.1-.22v-.22.22Zm-.12.32.22.76-.97.22-.22-.76Zm-.1-.21-.98.21-.22-.76.98-.21Zm-.22-.98-.98.22-.21-.76.97-.22Zm-.32-1.3.1.43-.97.22-.22-.76.98-.21c0 .1 0 .21.1.32Zm-.33-.54-.97.22-.11-.66.75-.21.33.65Zm-.44-.87-.75.22-.22-.76.65-.1.32.64Zm-.43-.87-.54.11-.22-.76.33-.1c.22.32.33.54.43.75Zm-.87-1.62c.11.21.33.43.44.65l-.33.1Zm-.1.86-.98.22-.22-.76.98-.21Zm-.44-1.52.11.55-.97.22-.22-.77.98-.21c0 .1.1.21.1.21Zm-.21-.32-.87.22-.22-.76.54-.1c.22.2.33.43.55.64Zm-1.3-1.41.65.65-.44.11Zm-.11.76-.98.22-.22-.76.98-.22Zm-.22-1.08-.98.32-.21-.76.54-.1c.22.21.43.43.65.54Zm-.98-.66-.32.11-.1-.32c.2.1.32.1.42.21Zm-.21 1.09-.98.21-.22-.75.98-.22Zm-.44-1.41.11.54-.97.22-.22-.76.76-.22c.1.11.22.11.32.22Zm-.65-.32-.54.1-.1-.32c.32.1.43.1.64.22Zm-.43 1.08-.98.22-.21-.76.97-.11Zm-.43-1.4.1.42-.97.33-.22-.76.54-.1c.22 0 .44.1.55.1Zm-.98-.23h-.1.1Zm-.1 1.09-.98.21-.22-.75.98-.22Zm-.22-1.09v.11l-.98.22-.22-.44c.44 0 .76 0 1.2.11Zm-.98 1.41-1.08.22-.11-.76.97-.22Zm-.43-1.4.1.43-.97.21-.11-.54c.33-.1.65-.1.98-.1Zm-1.2.1.22.65-1.08.22-.22-.54c.33-.11.65-.22 1.08-.33Zm-1.3.44.11.54-.97.21-.11-.32c.32-.22.65-.33.97-.43Zm-1.2.54.12.32-.87.22c.22-.22.54-.44.76-.54Zm.23.54.21.76-1.08.21-.22-.75Zm-1.3.33.21.75L5 101v-.1c.21-.34.43-.66.76-.87Zm-1.09 1.3.33.64-.76.22c.1-.32.32-.65.43-.86Zm-.54 1.08.97-.22.22.76-1.08.22-.1-.76c-.12.1 0 .1 0 0Zm-.22.43.11.44H3.8c0-.11.11-.33.11-.44Zm-.21.76.43-.1.1.64-.86.22c.1-.22.22-.54.33-.76Zm-.33 1.09.98-.22.21.76-1.08.1Zm-.1.43.1.32h-.22c0-.1 0-.21.11-.32Zm-.22.65.21-.1.22.75-.54.11c0-.22.1-.54.1-.76Zm-.22.97.76-.1.21.76-.97.21v-.87Zm-.22 1.2.22.65-.22.1v-.75Zm-.1.98.32-.11.22.75-.65.22c.1-.32.1-.65.1-.86Zm-.11.97.75-.1.22.75-.97.22v-.87Zm-.11 1.63v.21h-.11c.1-.1.1-.1.1-.21Zm0 .43h.1l.22.76-.32.1v-.86Zm0 .97.43-.1.22.76-.54.1c-.11-.21-.11-.43-.11-.76Zm0 1.09.65-.22.21.76-.75.22c-.11-.33-.11-.55-.11-.76Zm0 .98.86-.22.22.76-.97.21c-.11-.21-.11-.54-.11-.75Zm1.08.64.22.77-.98.21-.21-.76Zm-.87 1.63.11.44c0-.11-.1-.22-.1-.44Zm.11.65.22.76h-.1c0-.21-.12-.54-.12-.76Zm.33 1.74c0-.22-.11-.55-.11-.76h.22l.1.65Zm0 .22.21-.11.22.75h-.22c-.1-.21-.1-.43-.21-.64Zm.21.86h.33l.22.76-.33.11c-.1-.33-.1-.54-.22-.87Zm.44 1.74c-.11-.22-.11-.44-.22-.76l.33-.11.21.76Zm.1.21.22-.1.22.75-.22.11c-.1-.32-.1-.54-.21-.76Zm.33.87h.22l.22.76h-.22c-.1-.22-.22-.44-.22-.76Zm.54 1.63c-.1-.22-.21-.44-.21-.76h.1Zm.11.21.22.44c-.11-.11-.22-.22-.22-.44Zm0-.97.98-.22.22.76-.98.22Zm.22.97 1.08-.32.22.76-.98.22Zm.43 1.63-.22-.76.98-.21.32.75Zm.44.86-.33-.64.97-.22.22.76Zm.1.22.87-.22.22.77-.76.21c-.11-.32-.22-.54-.32-.76Zm.44.87.65-.22.22.76-.55.1c-.1-.1-.22-.31-.32-.64Zm.43.98.44-.11.21.65-.21.1c-.11-.2-.33-.43-.44-.64Zm.98 1.51c-.11-.21-.22-.43-.44-.65h.22Zm0-.75.97-.22.22.76-.98.21Zm.32 1.4-.1-.54.97-.22.22.77-.98.21c0-.1 0-.1-.1-.21Zm.33.44.86-.22.22.76-.54.1a2.85 2.85 0 0 1-.54-.64Zm1.3 1.4L9 133.3l.43-.11Zm0-.75.97-.22.22.76-.97.22Zm.32 1.08v-.1l.98-.22.22.76-.65.1c-.22-.21-.33-.43-.55-.54Zm.76.65.44-.1.1.54c-.1-.22-.32-.33-.54-.44Zm4.23 13.12h-.43c-1.09-3.25-2.17-6.61-3.26-9.86h5.75c-.65 3.14-1.41 6.5-2.06 9.86Zm19.73 27.97c-2.81-.65-5.74-1.19-8.67-1.62-2.06-.33-3.25-1.63-4.12-3.37-.44-.97-.87-1.95-1.08-2.92-.33-1.52-.98-2.71-2.39-3.47-.54-.33-1.08-1.3-1.2-1.95-.1-5.32-.21-10.63 0-15.94.12-2.06.98-4.12 1.52-6.18h.77c.86 2.6 2.05 5.2 2.7 7.92A13.14 13.14 0 0 0 27 156.5c.32.21.64.54.97.54 3.8.54 4.77 3.69 6.07 6.5.44.87.76 1.63 1.09 2.5.21.87.32 1.73.43 2.5.1.64.32 1.4.43 2.05.22 1.09.55 2.28.65 3.47.54 2.17.22 2.39-1.95 1.95Zm0 0"/>
  </g>
  <g clip-path="url(#c)">
    <path fill="#e81d20" d="M365.92 80.71c-6.83-4.41-15.42-2.03-20.15 6.88-4.73 8.9-1.25 19.48-1.17 21.5.08 2.02-1.28 10.4-2.04 12.35-.54 1.32-1.3 2.9-1.85 3.58-.26.27-.69.1-.69.1l-3.97 7c-.93-.14-2.57-.1-3.06.34-.57.52-.73 1.5-.73 1.5s-.9.33-1.1.9c-.2.57-.25 1.25-.25 1.25s-.68.12-.89.78c-.2.68-.25 1.46-.25 1.46s-.57.9-.64 1.97c-.05 1.1.32 2.2.32 2.2s2.5 2.55 3.08 2.6c.36.03.83.16 1.1.24l.4.43.07-.12c.14.22.33.65.44 1.5.21 1.57-.04 2.19-.04 2.5 0 .32-1.62 10.21-2.5 13.03-.89 2.8-2.23 7.19-3.28 9.52-1.05 2.35-1.26 3.08-1.26 3.08s-5.22-2.36-6.67-3.2c.05-.51.07-1 .08-1.51l.22-1.43c.21-1.43.43-2.97.58-4.46.12-1.5.17-2.96.1-4.21l-.06-.6c-.04-.2-.07-.4-.14-.62.32-.45.88-1.29 1.04-1.88.2-.84.09-.94.52-1.78.4-.82.2-2.49.2-2.49l-.4-1.05s1.91-1.46 2.64-4.68c.73-3.23.64-6.72-1.08-9.6-1.73-2.85-4.63-3.54-4.63-3.54l-.37-.2-.52-.32s-4.27-1.14-4.9-1.41c-.63-.26-1.53-2.48-2.52-4.73-.98-2.27-1.06-4.72-2.12-4.2-1.07.53-3.13 2.85-3.47 3.7-.33.86-.36 4.52-.03 5.5.34.98 1.35 2.97 1.11 3.02-.24.04-1.59-.21-2.62-.45-1.05-.24-1.7-1.22-1.98.98-.03.21-.3-.93-.3-.93s-1.76-15.09-2.39-18.2c-.58-3.13-.61-6.56-.77-8.7a291.7 291.7 0 0 0-1.46-14.11c-.69-5-.69-9.17-.69-9.17s.42-.36.46-1.62c.05-1.25-.57-2.87-.57-2.87s-.93-1.99-.32-4.48c.62-2.5.78-4.95.78-4.95s1.59-4.43 1.99-5.83c.4-1.42.65-2.6.28-2.92-.36-.32-.73-.13-.73-.13s.5-2.43.13-3.02c-.37-.6-.81-.78-1.13-.54-.32.24-1.35 3.78-1.63 4.53-.29.76-.94 2.24-.94 2.1 0-.12.46-4.21.62-5.25.16-1.03.52-3.17.1-3.5-.4-.34-1.4-.26-1.83.44-.45.7-.56 1.27-.56 1.27s-.52-.29-1.03.32c-.5.62-1.84 4-2.2 6.16-.37 2.16-.64 3.49-1.15 4.47-.51.99-.84 1.43-1.06 1.51-.21.08-.56.02-.56.02s-1-1.2-1.89-1.76c-.87-.56-1.55-.59-2.05-.62-.49-.03-.84.1-1.01.46-.16.35.18.94.42 1.11.23.16.37-.06 1.24.52.88.6 3.13 4.56 3.7 6.02.59 1.46 1.37 2.32 1.46 2.48a7 7 0 0 1 .97 3.62l-.17.1s-.03.87.01.96c.05.08.4.26.4.26s.46 1.1.53 3.82c.06 2.74-.07 13.1-.07 15.57 0 2.47.38 4.16.52 5.33.13 1.18.53 3.72.07 9.37-.46 5.67.71 13.27.59 18.16-.13 4.88.12 5.8-.47 7.36-.58 1.55-1.3 2.86-2.07 5.27-.78 2.41-1.64 5.73-1.64 5.73s-1.68 2.54-3.78 4.88c-2.08 2.35-4.18 5.73-5.14 7.16-1 1.42-.72 4.1-.46 6.5.25 2.42 1.24 4.5 1.24 4.5s.71 3.26.46 4.56c-.26 1.3-.72 8.46-.72 10.42 0 1.95.25 4.16.25 5.08v2.35c0 .77-.12 1.95-.12 1.95s-.72 4.37-1.64 5.67c-.9 1.3-1.5 3.32-1.76 4.29-.26.98-.46 2.53-.46 2.53s-1.64 7.04-3.2 11.34c-1.55 4.29-2.2 8.34-2.2 8.34s-5.46 6.38-8.73 11.99c-3.26 5.6-4.44 10.29-5.21 12.5-.78 2.2.13 3.78 1.7 6.25 1.55 2.48 2.08 3.13 4.55 5.6 2.48 2.48 8.86 7.17 16.4 12.63 7.55 5.48 14.08 12.76 14.33 13.42.2.52.59 1.98.59 3.24a4.52 4.52 0 0 0-1.72 0c-.3-.04-.58-.05-.87-.05-.86-.03-3-.38-3.69.35-.63.68.39 1.17.97 1.16 1.05 0 2.24-.57 3.39-.83.53.06 1.1.11 1.63.15l-.01.06c-1.46.65-5.21 2.4-4.15 3.5.92.94 2.59-.36 3.27-.96.18-.14.34-.32.5-.48-.04.18-.12.34-.18.5-1.48 1.47-3.5 2.31-5.5 2.9-.4.13-.23.76.18.64 1.62-.48 3.2-1.12 4.57-2.07-.3.38-.68.81-1.24 1.3-.38.35-.77.68-1.17 1l-.14.08c-.08.03-.11.1-.15.15-1.6 1.24-3.04 2.1-3.35 2.28-.4.26-1.05.84-1.05 1.43s1.3 1.11 1.3 1.11-2.66 1.5-3.18 2.74c-.53 1.23.52 2.79 3.06 3.46 2.54.65 7.87-.27 9.05-.99 1.18-.71 14.85-5.67 18.63-6.32 3.76-.65 7.94-3.13 7.94-4.29 0-1.17-3.07-6.32-4.23-7.87-1.17-1.56-2.27-2.08-3.25-2.08-.97 0-1.43-.2-1.43-.2s-8.99-9.82-11.13-13.6c-2.15-3.78-5.46-9.05-8.53-12.3-3.07-3.26-10.94-8.86-11.07-9.31-.12-.46-1.17-2.14-.4-5.8.78-3.65 4.44-9.5 4.44-9.5s11.32-11.47 12.76-13.09a20.58 20.58 0 0 1 1.68-1.83s7.82-3.19 8.15-4.03c.34-.84 2.6-8.99.65-16.02-1.95-7.04-1.55-7.42-2.85-10.02-1.3-2.6-1.7-9.12-1.7-9.12s-.13-2.8.33-3.9c.46-1.12.65-.99 1.89-2.42a23.12 23.12 0 0 0 1.95-2.41c.59-.84 1.05-.98 1.75-1.3.22-.1.55-.16.9-.2-.03.05-.05.12-.08.15.03-.05.07-.1.08-.14.1-.02.2-.02.29-.02-.14.27-.3.53-.45.76a8.24 8.24 0 0 1-1.35 1.75c.35-.22.91-.84 1.48-1.7l.07-.05a9.23 9.23 0 0 1-1.64 2.12 8.67 8.67 0 0 0 2.05-2.51l.02-.04c.09-.09.18-.2.28-.33h.03v.03a10.45 10.45 0 0 1-1.74 2.48c.28-.2.71-.67 1.17-1.32.16-.22.32-.46.47-.71a18.56 18.56 0 0 1-1.42 3.17c.32-.38.8-1.32 1.33-2.52l-.01.06c-.34.86-.66 1.62-.94 2.18-.14.12-.26.22-.37.28.1-.04.21-.12.32-.22l-.2.38c-.12.08-.21.16-.3.2a.93.93 0 0 0 .25-.15l-.1.16a.9.9 0 0 0 .14-.2c.21-.13.43-.33.67-.56l-.03.1c-.2.31-.4.53-.56.66.13-.08.28-.23.43-.41l.32-.26-.03.05c-.29.45-.57.78-.8.95.21-.13.48-.38.75-.76l-.08.27.14-.33.02-.04c.1-.1.17-.25.27-.4l-.03.09.06-.15c.16-.17.35-.4.53-.63a5.9 5.9 0 0 1-1.07 1.6c.29-.2.65-.67 1.04-1.33.1-.2.22-.41.33-.65a3.93 3.93 0 0 1-.24 1.14c-.03.02-.08.02-.11.03l.1-.01c-.02.06-.02.14-.05.22l-.48.11c.12 0 .28-.03.48-.08-.12.35-.24.69-.37.97-.27.6-.59 1.03-.86 1.29.32-.26.75-.81 1.08-1.64.08-.2.18-.41.24-.65l.07-.02c-.05.2-.13.4-.2.59l-.08.08.08-.06-.12.31a.86.86 0 0 0-.08.16l-.08.07.08-.05-.26.38.23-.27c-.18.36-.37.68-.56.95-.24.32-.47.54-.68.68.19-.12.42-.31.68-.61.24-.29.47-.67.68-1.12l.08-.14.18-.16c-.24.46-.45.81-.6 1.03.15-.15.34-.44.58-.8-.2.46-.43.82-.63 1.06.2-.2.42-.54.63-.97-.13.5-.27.97-.41 1.41-.4 1.2-.84 2.13-1.14 2.56.4-.47 1.03-1.73 1.53-3.37-.25.9-.52 1.7-.8 2.35a7.15 7.15 0 0 1-.78 1.46 9.81 9.81 0 0 0 1.16-2.1l.22-.17a7.8 7.8 0 0 1-.78 1.63c.25-.33.59-.93.92-1.75.2-.16.38-.35.59-.6.13-.13.25-.3.38-.45-.08.22-.2.41-.28.6-.18.2-.34.35-.47.45.11-.07.24-.18.38-.3-.18.31-.4.57-.57.74.21-.17.45-.48.69-.85l.31-.34c-.17.37-.36.7-.55.98-.27.39-.57.66-.81.83.24-.14.52-.38.8-.73.28-.33.53-.78.75-1.28.11-.15.23-.3.34-.48-.23.68-.51 1.22-.77 1.57.24-.29.51-.73.75-1.33l.16-.45a15.02 15.02 0 0 0 1.6-3.4 16.9 16.9 0 0 0 5.5 1.35c4.56.28 11.32-.38 11.84-1.17.53-.78 3.13-3.38 3.78-10.16.66-6.77 1.42-17 1.83-20.58.41-3.6-.05-9.12-.2-11.3-.17-2.2.45-2.98.04-4.44l-.08-.25 4.57-8.21c-.07-.32-.31-.43-.19-.78.34-1 1.46-2.7 1.99-3.27 2.3-2.43 8.2-8.32 10.2-8.51 1.47-.13 9.38-1.77 14.1-11.18 4.87-9.42 2.88-19.44-3.93-23.79Zm-44.56 84.22c-.09 1.34-.28 2.81-.45 4.24v-.54c.17-1.22.34-2.47.45-3.7Zm-31.55 135.39c-.28.06-1.82.19-1.06.03.5-.11 1-.15 1.5-.15-.13.04-.28.09-.44.12Zm3.39 1.6a7.17 7.17 0 0 1-1.64 1.4c-.13.08-1.41.47-1.36.25.14-.65 1.7-1.28 2.22-1.55.43-.24.86-.45 1.28-.66-.17.2-.33.39-.5.56Zm19.18-117.74c-.02.03-.03.05-.03.08l-.42.47c.16-.3.34-.65.53-1.06l.04-.03-.12.54Zm1.08 2.54c.13-.38.24-.78.33-1.2.07-.09.13-.2.19-.3-.06.28-.12.56-.2.85l-.1.36c-.02.02-.03.03-.05.03l.05-.03-.08.29-.16.1c0-.05 0-.09.02-.1Zm-.42 1.19.39-1.1.16-.08-.3.96-.25.22Zm1.34-1.37a6.6 6.6 0 0 1-1.1 1.38l.05-.12.06-.18a8.43 8.43 0 0 0 1.02-1.22l-.03.14Zm.17-.58-.05.1c-.34.6-.71 1.07-1.03 1.44.1-.27.2-.56.29-.86a3 3 0 0 0 .83-.8l-.04.12Zm.08-.3c-.19.28-.4.54-.6.71-.08.08-.17.14-.26.2.04-.09.05-.18.09-.28.26-.19.58-.5.85-.95l-.08.32Zm.11-.54a3.45 3.45 0 0 1-.89 1.17l.4-1.5c.2-.09.38-.18.6-.33l-.1.66Zm.26-2.04-.02.02c0-.02 0-.02.02-.02l-.07.72c-.1.1-.22.19-.34.27l.19-.54.22-.51v.06Zm.01-20.67c-.12.17-.27.4-.4.63-.12.23-.4.86-.7 1.75l-.53.35s-.73-.41-1.42-.89c-.68-.46-.68-.41-1.14-.73-.46-.32-.98-2.08-1.3-2.56-.32-.46 0-1.3 0-1.3s1.1-.98 2.08-1.94c1-.93 1.52-1.61 1.52-1.61s1.67.16 2.13.16c0 0 .78 1.34.94 2.34l.08.62-.57 1.4c-.2.46-.41.98-.6 1.56-.04.1-.05.15-.09.22Zm.53 22.6c-.15.31-.3.6-.46.88.05-.16.1-.33.12-.5.37-.67.69-1.42.97-2.18l.15-.19c-.23.68-.5 1.37-.78 1.98Zm4.28-16.05c-.01-.09-.01-.18-.04-.28.1-.5.19-1.03.28-1.59l-.12 1.45-.12.42Zm.26 2.56a.27.27 0 0 1-.08-.06V171l.06-.52c.03-.3.06-.6.12-.9v1.05c-.02.32-.07.62-.1.9Zm50.27-78.93-.31.62-.02.03-.04-.01-1.22-.97-.03-.02.02-.03.52-1.08.02-.03.03.01.98.78c.04.22.05.46.05.7Zm-18.96 7.2h-.03l.01-.04.45-.86.02-.03.03.02.83.68.03.02-.03.03-.45.85-.02.04-.01-.05Zm.76.85-.01.03-.41.88-.02.03-.03-.02-.83-.65-.03-.02.02-.03.44-.86.02-.03.03.02Zm7.58-6.18.03.02-.01.03-.42.87-.04.02-.04-.03-.8-.65-.02-.02.01-.03.45-.86.01-.03.02.05Zm-.77-.82.02-.03.45-.86.01-.04.03.02.85.65.03.02-.02.03-.44.86-.02.03-.03-.02-.82-.65Zm-3.23 3.52-.03-.01.01-.04.45-.85.01-.03.03.01.84.65.04.02-.02.03-.44.86-.02.03-.03-.03Zm.79.86h-.05l-.41.89-.02.03-.03-.01-.82-.69-.03-.01.01-.03.45-.86.01-.04.03.02.81.68Zm-.22-1.95-.03-.02.01-.03.45-.86.01-.03.03.01.8.67.03.02-.01.03-.42.87-.05.02-.01-.05Zm1.06.79.43-.82.02-.04.03.02.82.65.04.02-.05.01-.42.87-.01.04-.03-.02-.83-.63-.01-.05Zm.54-1.03-.03-.02v-.03l.45-.85.01-.04.03.02.83.65.03.05-.02.03-.42.82-.02.04-.03-.02Zm.76-2.16-.43.83-.01.03-.03-.02-.84-.65.01-.03.41-.9.02-.02.03.01.83.65.01.05Zm-.54 1.03.04.02-.02.03-.44.86-.02.03-.03-.02-.83-.68-.03-.01.01-.04.43-.82.02-.03.03.01Zm-1.1-.8-.39.85-.01.06-.02-.04-.84-.66-.03-.01.01-.03.45-.86.01-.03.03.01.8.65.03.02Zm-.53 1.03.03.01v.03l-.44.86-.02.03-.03-.02-.8-.61-.01-.05.41-.9.02-.02.03.01Zm-.54 1.1.03.02-.46.92-.05-.01-.8-.69-.04-.01.02-.03.44-.86.02-.03.03.01Zm-.56 1.07.04.01-.02.04-.41.87-.05.02-.02-.02-.8-.62-.04-.01.02-.04.44-.85.02-.04.03.02Zm-.53 1.13.03.01-.02.03-.44.86-.02.03-.03-.01-.83-.69-.03-.01.02-.03.44-.86.02-.03.03.04Zm-.53 1.07.01.06-.04.01-.4.86-.01.03-.04-.02-.84-.65-.03-.01.02-.04.44-.85.02-.03.03.03Zm-.24 1.07.45-.86.01-.03.03.05.83.65.03.02-.01.03-.45.86-.02.03-.03-.02-.8-.68-.04-.02Zm.57-1.01-.03-.02.02-.04.4-.88.02-.03.04.01.84.65.01.05-.44.86-.02.03-.03-.02Zm1.07.79.44-.86.02-.03.03.01.8.67.02.02-.01.03-.41.87-.05.02-.03-.02-.8-.65-.03-.01Zm.54-1.03-.04-.02.02-.03.45-.86.01-.03.03.02.83.65.03.01-.01.03-.45.86-.01.03-.04-.01Zm.57-1.1-.02-.02v-.03l.41-.89.02-.03.07.05.79.65.03.02-.01.03-.45.86-.02.03-.03-.05Zm1.5-.03v-.03l.04.01.8.62.02.02-.01.03-.41.89-.05.01-.03-.01-.8-.62-.01-.05Zm.1-.2-.03-.02.02-.04.44-.85.02-.04.03.02.83.68.03.02-.02.03-.43.83-.01.06-.02-.05Zm.58-1.1-.04-.02v-.03l.41-.84.02-.07.05.07.8.62.03.03-.02.03-.45.86-.01.03-.03-.02Zm.52-1.08-.03-.02.01-.03.44-.86.02-.03.04.02.84.65.01.04-.03.02-.4.86-.01.03-.04-.02Zm.54-1.11-.03-.02.46-.92.03.01.82.69.03.01-.01.03-.45.86-.01.04-.03-.02Zm.55-1.07-.03-.03.02-.03.44-.86.02-.03.03.02.8.61.02.03-.01.04-.41.87-.05.02-.03-.02Zm.54-1.11-.03-.02.02-.03.44-.86.02-.03.03.02.83.68.03.02-.02.03-.44.86-.02.03-.03-.05Zm.2-1.1-.4.88-.02.03-.03-.02-.84-.65-.02-.05.45-.85.01-.03.03.01.81.62.03.02Zm-.55 1.07.04.01-.02.04-.45.85-.01.04-.03-.02-.8-.65-.03-.02.02-.03.4-.87.02-.03.04.01Zm-1.04-.81-.45.86-.01.03-.03-.02-.83-.65-.03-.03.01-.03.45-.86.01-.03.03.01.83.65.03.04Zm-.6 1.03.04.02-.02.03-.4.87-.02.03-.04-.01-.8-.68-.04-.02.02-.04.44-.85.02-.03.03.05Zm-1.06-.8-.42.83-.02.03-.03-.01-.8-.62-.03-.02.02-.03.41-.89.05-.02.03.02.81.64.02.04Zm-.53 1.04.03.02-.02.03-.44.85-.02.03-.03-.01-.83-.68-.03-.02.02-.03.43-.83.03-.06.01.05Zm-1.1-.81-.4.86-.01.03-.04-.02-.82-.65-.03-.02.01-.03.45-.85.01-.04.04.02.82.68.03.02Zm-.56 1.03.03.02-.01.03-.43.86-.02.03-.03-.02-.79-.62-.02-.04.02-.04.4-.84.05-.01.03.01Zm-.52 1.11.03.02-.01.03-.45.86-.02.03-.03-.02-.82-.68-.04-.03.02-.03.45-.86.01-.03.03.01Zm-.55 1.06.06.06-.05.01-.41.89-.02.03-.03-.02-.83-.65-.03-.01.02-.03.44-.86.02-.03.03.03Zm-.55 1.12.03.01-.01.03-.44.86-.02.04-.03-.02-.8-.67-.01-.01.01-.04.42-.87.01-.03.03.01Zm-.52 1.08.01.05-.01.04-.43.83-.02.03-.03-.02-.82-.64-.05-.02.02-.04.44-.85.02-.03.03.01Zm-.57 1.1h.03l-.02.04-.41.9h-.08l-.8-.63v-.08l.44-.83.01-.03.04.02Zm-.73 2.17.4-.84.01-.04.03.02.84.65h.02l-.02.03-.44.86-.02.03-.03-.01-.8-.62-.02-.05Zm1.06.87.45-.86.01-.03.03.02.8.65.03.02-.01.03-.4.84-.05.01-.03-.01-.81-.62-.03-.02Zm1.08.84.43-.82.01-.04.04.02.82.65.03.03h-.04l-.4.88-.02.03-.03-.02-.82-.68-.03-.01Zm.54-1.03-.03-.01.05-.02.41-.87.02-.03.03.01.84.65.01.05-.01.03-.43.83-.02.03-.03-.02Zm1.1.81.41-.87h.05l.03.01.8.65.03.02-.02.03-.44.86-.02.03-.03-.01-.8-.66-.03-.01Zm.53-1.03-.03-.02.02-.03.43-.86.01-.03.04.02.84.65.03.02-.03.01-.41.87-.02.03-.03-.01Zm.55-1.11-.03-.02.04-.01.41-.88.02-.03.03.02.81.68.03.01-.01.04-.45.86-.01.03-.03-.02Zm1.08.84.41-.87.05-.02.03.02.8.63.03.02-.02.03-.44.85-.02.04-.04-.02-.8-.62-.04-.01Zm.55-1.07-.03-.01.01-.03.45-.86.02-.03.03.01.83.69.03.01-.05.02-.41.89-.02.03-.02-.05Zm.54-1.1-.03-.02.05-.02.4-.84v-.03l.04.01.84.66.04.01-.02.03-.45.86-.01.03-.03-.02Zm.56-1.07-.03-.02.01-.03.45-.85.01-.04.03.02.8.62.01.04-.01.04-.4.84-.02.03-.06-.05Zm.54-1.11-.03-.02v-.03l.44-.86.02-.03.03.02.82.68.03.02-.01.03-.43.85-.01.04-.04-.02Zm.55-1.07-.03-.01.02-.03.41-.88.05-.01.03.01.8.62.03.02v.03l-.45.86-.01.03-.04-.02Zm.54-1.1-.03-.02.02-.03.44-.86.02-.03.03.01.83.69.03.01-.05.02-.41.87-.02.03-.03-.01Zm.53-1.09-.02-.05.02-.03.42-.82.02-.03.02.01.84.65.03.02-.02.03-.44.86-.02.03-.03-.02Zm.57-1.1h-.03l.01-.04.45-.86.01-.03.04.02.79.65.03.01-.02.03-.4.86-.04.02-.03-.02ZM363 91l-.44.86v.03l-.03-.02-.8-.61-.01-.05.02-.03.4-.84v-.04l.04.02.83.65.03.01Zm-1.08-.84-.44.86-.01.03-.02-.05-.84-.65-.03-.01.01-.04.45-.85.01-.04.03.02.83.68.03.02Zm-1.06-.87-.44.85v.04l-.04-.02-.82-.65-.02-.05.02-.03.43-.82.02-.04.03.02.82.65.03.01Zm-.58 1.05.03.01-.02.03-.44.86-.02.03-.03-.01-.8-.65-.03-.02.02-.03.41-.88.05-.01.03.01Zm-1.06-.83-.44.86-.01.03-.04-.02-.84-.65-.03-.02.05-.01.41-.87.02-.04.03.02.84.65.03.02Zm-.55 1.06.03.02-.05.02-.4.88-.01.04-.03-.02-.83-.68-.03-.02.02-.03.44-.86.02-.03.03.02Zm-1.08-.84-.41.88v.03l-.06-.05-.82-.62-.03-.02v-.03l.45-.85.01-.04.03.02.8.62.03.01Zm-.56 1.07.04.01-.02.03-.44.86v.03l-.03-.02-.83-.67-.03-.02.04-.02.4-.84.03-.06.02.04Zm-1.06-.78-.44.82-.02.03-.03-.01-.84-.65-.03-.02v-.03l.44-.86.01-.03.04.02.84.65.01.04Zm-.57 1 .03.02-.01.03-.42.87-.05.01-.03-.01-.79-.62-.01-.05.01-.03.43-.83.01-.03.04.02Zm-.54 1.1.03.02-.01.04-.45.86-.01.03-.02-.05-.84-.65-.03-.02.04-.01.42-.88.01-.03.03.02Zm-.53 1.09.04.02-.02.03-.44.85-.02.03-.03-.01-.83-.65-.03-.02.02-.03.44-.86.02-.03.03.02Zm-.57 1.1.03.01-.01.03-.45.86-.01.03-.03-.01-.8-.66-.03-.01.02-.03.41-.88.05-.01.03.01Zm-.52 1.07.02.05-.02.03-.43.83v.03l-.03-.02-.84-.64-.04-.02v-.03l.45-.86.01-.03.04.01Zm-.57 1.1.03.03-.01.03-.42.88-.01.03-.04-.02-.8-.68-.04-.02.02-.03.43-.83.01-.03.03.02Zm-.54 1.11.03.02-.02.03-.42.82-.03.07-.02-.05-.8-.62-.03-.02.02-.03.41-.88.02-.04.03.02Zm-.53 1.08.03.02-.01.03-.44.86-.02.03h-.02l-.84-.65-.01-.05.01-.03.43-.83.02-.03.03.02Zm-.57 1.1.03.01-.01.04-.45.85v.05l-.03-.02-.8-.65-.02-.01.01-.04.45-.85.01-.03.04.01Zm-.52 1.1h.03l-.01.04-.45.86-.02.03-.03-.01-.83-.66-.03-.01.02-.03.44-.86.02-.03.03.01Zm-.2 1.07.4-.87.02-.03.06.05.8.64.03.02-.02.04-.44.85v.03l-.03-.01-.8-.66-.03-.01Zm1.06.88.44-.86.02-.03.03.03.8.63.03.02-.02.03-.41.88-.05.01-.02-.03-.8-.62-.02-.02Zm.55-1.07-.03-.03.01-.03.45-.86.01-.03.04.02.82.68.04.01-.02.04-.45.85v.03l-.03-.04Zm1.1.81.4-.86.01-.03.03.02.83.65.03.02-.02.03-.44.86-.02.03-.03-.02-.82-.65-.04-.05Zm1.06.87.41-.87.05-.01.02.01.8.65.02.02-.01.03-.43.83-.03.06-.02-.05-.8-.62-.03-.02Zm1.08.85.43-.83.02-.03.03.01.8.64.02.02-.01.03-.42.87-.01.03-.07-.03-.8-.63-.02-.05Zm.54-1.03-.03-.02v-.03l.44-.86.02-.03.03.01.83.64.01.06-.01.03-.43.83-.02.03-.03-.02Zm1.1.8.4-.87.02-.03.04.05.82.65.04.01-.02.03-.45.86-.01.04-.03-.02-.8-.65-.03-.02Zm.55-1.03-.03-.01.02-.04.44-.85v-.03l.03.01.81.62.03.01-.01.06-.42.87-.01.03-.03-.02Zm.53-1.11-.03-.02.01-.03.45-.86.01-.03.03.02.83.68.03.02-.02.03-.44.86v.03l-.03-.02Zm1.07.84.42-.89.01-.03.04.02.84.65.03.02-.01.03-.45.85-.02.03-.03-.01-.81-.63h-.02Zm.56-1.06-.03-.02.02-.03.44-.86.01-.03.04.02.8.65.02.03-.01.03-.42.88-.01.03-.05-.08Zm.53-1.08-.02-.05v-.03l.43-.83.02-.03.03.02.82.65.03.02-.01.03-.43.85-.02.04-.03-.02Zm.57-1.1-.03-.01.01-.04.42-.89.04-.01.03.01.81.63.02.04-.02.03-.42.83-.02.03-.03-.01Zm.54-1.1-.04-.02.02-.03.45-.86.01-.04.02.05.83.65.03.02-.02.03-.44.86-.02.03-.03-.01Zm.52-1.09-.03-.02.05-.01.4-.87.02-.04.04.02.82.65.04.02-.02.03-.45.86-.01.03-.03-.02Zm.57-1.1h-.03l.02-.04.44-.86.02-.03.03.01.8.66.02.01-.01.03-.42.88-.04.01-.03-.01Zm.53-1.08-.03-.04.01-.03.43-.83.02-.03.03.02.84.64.03.02v.04l-.44.85-.02.03-.03-.01Zm.57-1.09-.03-.01.01-.04.42-.89.01-.03.06.03.8.66.03.01-.01.03-.43.83-.03.06-.02-.05Zm.54-1.11-.03-.02.01-.03.43-.82.02-.07.03.05.83.65.03.01-.05.02-.41.88-.02.03-.03-.02Zm.52-1.08-.03-.02.02-.03.44-.86.02-.03.03.02.84.65.02.05-.45.86-.01.03-.04-.02Zm.24-1.06-.44.85-.02.03-.03-.01-.83-.69-.01-.03v-.03l.44-.85.02-.03.01.04.85.65.03.02Zm-1.11-.88-.4.84-.01.04-.04-.02-.82-.65-.03-.02.01-.03.45-.86.01-.03.04.02.79.62.03.05Zm-1.06-.87-.45.86-.01.03-.04-.02-.8-.65-.02-.02v-.03l.43-.82.01-.03.03.01.8.62.03.02Zm-1.09-.84-.42.82-.04.07-.01-.05-.84-.65.01-.03.42-.88.01-.03.03.02.83.68.03.02Zm-1.06-.88-.44.86-.02.03-.03-.01-.84-.66-.02-.04.02-.03.43-.83.01-.03.03.02.83.65.03.01Zm-.58 1.05.03.02-.02.03-.41.87-.02.04-.04-.09-.8-.61-.03-.02.01-.03.45-.86.01-.03.03.01Zm-1.05-.83-.45.86-.02.04-.03-.02-.79-.62-.03-.02.01-.03.42-.89.05-.01.03.02.79.63.03.01Zm-.57 1.07.03.02-.02.03-.44.85-.02.04-.03-.02-.83-.68-.03-.02.01-.03.45-.86.02-.03.03.03Zm-1.09-.84-.4.89-.02.03-.03-.02-.83-.65-.03-.01.01-.04.45-.85.01-.04.03.04.83.65.03.01Zm-.55 1.06.03.02-.02.03-.44.86-.02.03-.03-.02-.8-.66-.02-.02.01-.03.42-.87.01-.04.05.07Zm-1.05-.8-.43.83-.01.04-.04-.02-.83-.65-.04-.02.05-.01.41-.88.02-.03.03.02.83.65.01.05Zm-.55 1.04.03.02-.03.01-.42.87-.01.04-.03-.02-.82-.68-.03-.02.02-.03.43-.82.01-.07.02.05Zm-.56 1.1.03.01-.02.03-.44.86-.01.03-.02-.04-.8-.62-.03-.02.02-.03.41-.9h.07Zm-.54 1.08.03.01-.02.03-.44.86-.02.03-.03-.01-.84-.65-.01-.05.44-.86.02-.03.03.02Zm-.57 1.1h.03l-.02.04-.41.87-.05.02-.03-.02-.8-.65-.03-.01.02-.04.44-.86.02-.03.04.02Zm-.5 1.07.02.02-.01.03-.45.86-.01.03-.04-.02-.84-.63-.03-.02.03-.02.41-.88.02-.03.03.01Zm-.55 1.11.03.02-.05.01-.4.9-.02.03-.03-.02-.83-.68-.03-.02.01-.03.45-.86.01-.03.02.05Zm-.57 1.1.03.03v.03l-.45.83v.03l-.03-.02-.8-.63-.02-.02.01-.03.42-.87.04-.02.04.02Zm-.53 1.08.04.01-.02.04-.45.86-.01.03-.03-.02-.83-.65-.01-.05v-.03l.42-.83.02-.03.02.02Zm-.57 1.1h.04l-.02.04-.41.89-.02.03-.03-.01-.83-.69-.03-.01.01-.03.45-.86.02-.03.03.01Zm-.52 1.07.03.02-.01.03-.45.86-.01.03-.04-.01-.8-.62-.02-.04.01-.03.42-.87.01-.03.03.01Zm-.54 1.11.03.02-.02.03-.44.86-.01.03-.04-.01-.8-.69-.04-.01.02-.03.44-.86.02-.04.01.06Zm-.56 1.07.02.05-.02.03-.4.84-.03.01-.04-.01-.8-.62-.03-.01.02-.04.44-.86.02-.03.03.02Zm-.2 1.1.44-.86.02-.03.01.04.83.65.03.02-.05.01-.4.88-.02.03-.04-.02-.82-.68-.04-.01Zm1.06.87.44-.86.02-.03.03.01.83.66.03.01-.02.03-.44.86-.02.03-.03-.01-.84-.65-.03-.02Zm1.11.85.42-.87.01-.03.03.02.81.68.03.01-.01.04-.43.85-.01.03-.04-.01-.82-.68-.04-.02Zm1.06.88.42-.88.05-.01.03.01.8.63.02.01-.01.03-.45.86-.01.03-.03-.01-.8-.62-.03-.02Zm.56-1.07-.01-.01v-.03l.44-.86.02-.03.03.02.82.67.03.02-.04.02-.42.87-.01.03-.03-.04Zm1.5-.03.01-.03.03.02.83.65.03.01-.01.04-.45.85-.02.04-.03-.02-.82-.65-.02-.05Zm.66 1.72.41-.89.02-.03.03.01.83.68.03.02-.02.03-.44.86-.02.03-.01-.05-.8-.61-.06-.04Zm1.08.84.4-.84.05-.02.03.02.79.62.03.01-.01.03-.43.86-.02.04-.03-.02-.8-.64v-.04Zm.56-1.03-.04-.02.02-.03.45-.86.01-.03.03.02.83.68.03.02-.01.03-.43.82-.02.03-.03-.01Zm1.05.8.42-.84.03-.06.02.05.84.65.03.02-.01.03-.45.86-.01.03-.03-.02-.81-.68-.03-.02Zm.58-1.02-.03-.02.02-.03.41-.88.05-.01.03.01.8.62.02.05-.01.03-.43.83-.02.03-.03-.02Zm.53-1.12-.04-.01.02-.03.45-.86.01-.03.03.01.83.69.03.01-.46.92-.03-.01Zm1.04.83.45-.86.01-.03.03.02.83.65.03.01-.01.04-.45.85-.01.03-.03-.01-.85-.65-.03-.02Zm.6-1.05-.02-.02.01-.03.41-.89.05-.01.03.01.8.66.03.01-.02.03-.44.86-.02.03-.03-.01Zm.52-1.08-.02-.04.02-.04.43-.82.01-.03.03.01.84.65.03.02-.01.03-.44.86-.02.03-.03-.02Zm.54-1.11.01-.03.41-.87v-.04l.04.02.82.68.04.02v.03l-.43.83-.02.03-.03-.02Zm.57-1.1-.04-.01.02-.03.44-.86.02-.03.03.06.8.62.03.02-.02.03-.41.89-.02.03-.03-.02Zm.54-1.08-.03-.01.01-.03.44-.86.02-.03.03.02.84.64.04.02-.02.03-.44.86-.02.03-.03-.01Zm.55-1.09-.03-.02.02-.03.41-.87.05-.02.03.02.8.65.02.02-.01.03-.45.85-.01.04-.03-.02Zm.53-1.08-.02-.05.43-.85.02-.04.03.02.82.65.04.01-.02.04-.43.85-.01.04-.04-.02Zm.54-1.11-.04-.02.05-.01.42-.9.01-.02.03.01.83.68.03.02-.01.03-.45.86-.02.03-.01-.05Zm.57-1.1-.03-.02.01-.03.43-.82.02-.03.03.01.8.62.02.02-.01.03-.41.89-.04.01-.03-.01Zm.52-1.08-.03-.01.02-.03.44-.86.02-.03.03.01.84.65.02.05-.02.03-.43.83-.02.03-.03-.03Zm.57-1.1-.03-.01.02-.03.41-.89.05-.01.03.01.8.67.02.01-.01.04-.44.85-.02.03-.03-.01Zm.53-1.07-.03-.02.01-.03.45-.86.01-.03.02.01.84.66.03.01h-.04l-.42.88-.01.03-.04-.02Zm.2-1.1-.41.89-.05.02-.03-.02-.8-.65-.02-.02v-.03l.44-.86.02-.03.01.02.8.65.03.02Zm-1.06-.87-.44.89-.04-.02-.8-.62-.04-.01.02-.03.41-.88.02-.03.03.01.83.66.03.01Zm-1.08-.84-.44.85-.02.03-.03-.01-.83-.68-.03-.02.02-.03.44-.86.02-.03.01.05.83.65.03.01Zm-1.08-.85-.43.83-.01.03-.04-.01-.82-.64-.03-.01.01-.04.45-.85.01-.04.04.02.82.65.02.05Zm-1.1-.89-.4.9-.02.03-.07-.05-.8-.65-.02-.02.01-.03.45-.86.01-.03.02.05.8.62.02.01Zm-1.07-.84-.43.83-.02.03-.03-.02-.8-.63-.03-.01.02-.04.41-.89.05-.01.03.01.8.66.03.01Zm-1.07-.87-.44.86-.02.03-.03-.02-.83-.65-.01-.05.01-.03.43-.82.02-.03.03.01.84.64.03.01Zm-.57 1.07.03.03h-.05l-.4.85-.02.07-.02-.05-.84-.65-.03-.02.01-.03.45-.86.01-.03.03.02Zm-1.08-.85-.41.9h-.08l-.81-.64-.04-.05.02-.03.43-.83.02-.03.03.02.8.61.04.02Zm-.54 1.07.03.01-.01.03-.45.86-.01.04-.04-.02-.82-.68-.03-.03.04-.02.42-.88.01-.03.03.02Zm-1.06-.83-.45.86-.01.03-.04-.02-.84-.65-.03-.01.02-.03.44-.86.02-.03.03.01.84.65.03.02Zm-.6 1.05.04.02-.02.03-.4.87-.06.01-.03-.01-.79-.65-.03-.02.01-.03.45-.86.01-.03.04.03Zm-1.04-.8-.43.83-.01.03-.03-.01-.8-.62-.03-.02.01-.03.42-.9.01-.02.07.05.8.62v.04Zm-.56 1.04.04.01-.02.04-.44.85-.02.03-.03-.01-.83-.68-.03-.02.02-.03.43-.83.03-.06.01.05Zm-.57 1.1h.03l-.01.04-.4.84-.05.02-.03-.02-.79-.62-.03-.03.01-.03.45-.86.01-.03.04.01Zm-.52 1.07.03.02-.01.03-.45.86-.02.03-.03-.02-.84-.65-.02-.05.04-.01.4-.84v-.03l.04.01Zm-.52 1.11.03.02-.05.02-.41.87-.02.03-.03-.01-.83-.69-.03-.01.02-.03.44-.86.02-.04.01.02Zm-.58 1.07.04.01-.02.04-.44.85-.02.03-.03-.01-.8-.62-.03-.03.02-.04.41-.87.02-.03.06.03Zm-.54 1.11.03.02-.01.03-.44.86-.02.03-.03-.02-.83-.68-.03-.02.02-.03.44-.86.02-.03.03.05Zm-.55 1.06.01.05-.01.03-.4.84-.02.04-.06-.05-.8-.62-.02-.02.01-.03.45-.85.01-.04.04.02Zm-.54 1.12.03.01-.01.03-.45.86-.02.03-.03-.01-.84-.65-.02-.05.05-.02.4-.84.01-.03.04.01Zm-.52 1.1.03.02-.05.02-.41.87v.03l-.02-.04-.84-.66-.03-.01.01-.03.45-.86v-.03l.03.02Zm-.56 1.07.03.02-.02.03-.44.85-.01.04-.04-.02-.8-.62-.04-.01.02-.03.41-.88.05-.02.03.02Zm-.54 1.11.03.02-.02.03-.44.86-.02.03-.03-.02-.82-.68-.03-.02.01-.03.45-.85.01-.04.03.02Zm-.56 1.07.04.01-.02.03-.41.88-.02.03-.06-.05-.8-.62-.03-.01.02-.03.44-.86.02-.04.03.02Zm-.54 1.1.04.02-.02.03-.44.86-.02.03-.03-.01-.83-.69.02-.03.4-.84.03-.06.03.05Zm-.54 1.12.04.02-.02.03-.64 1.28-.04.02-.03-.03-.8-.62-.03-.02.01-.03.66-1.32.01-.03.03.02Zm-.44 1.5.63-1.3.02-.03.03.02.83.65.03.03-.02.03-.65 1.32-.01.03-.02-.04-.84-.66-.03-.01Zm1.1.83.63-1.28.02-.03.03.01.82.68.03.02-.01.03-.64 1.29-.01.03-.03-.02-.85-.65-.01-.05Zm1.1.9.64-1.32.02-.04.01.05.8.62.03.03-.02.03-.63 1.29-.02.06-.01-.04-.84-.66-.04-.01Zm1.05.85.64-1.29.02-.03.03.02.84.65.01.05-.03.01-.65 1.29-.02.03-.03-.02-.79-.66-.03-.02Zm1.08.86.65-1.32.02-.03.02.05.84.64.03.02-.01.03-.64 1.3-.02.02-.03-.01-.84-.66-.03-.01Zm1.08.85.64-1.28.01-.03.04.01.84.65.03.02-.02.03-.65 1.32-.01.03-.04-.02-.82-.68-.03-.01Zm.78-1.47-.03-.02.02-.03.44-.86.02-.03.03.02.8.65.02.01-.01.04-.41.87-.02.03-.07-.05Zm1.05.82.44-.86.02-.03.03.02.84.65.04.02-.02.03-.45.86-.01.03-.03-.02-.85-.65-.03-.01Zm1.08.84.44-.85.02-.03.03.01.83.67.03.01-.02.04-.44.85-.02.03-.03-.01-.82-.68-.04-.02Zm1.11.86.4-.84.01-.03.07.05.8.62.04.03-.02.03-.44.86-.02.03-.03-.02-.8-.62-.03-.04Zm.55-1.03-.03-.02.02-.03.44-.85.02-.04.03.02.8.65.03.02v.03l-.4.86-.03.06-.02-.05Zm1.06.8.43-.83.03-.07.01.05.83.65.03.02-.02.03-.44.86-.02.03-.03-.01-.82-.69-.04-.01Zm.58-1.02-.03-.02.02-.03.41-.87.02-.03.03.01.84.65.02.05-.02.03-.44.83-.02.03-.04-.02Zm.54-1.11-.03-.03.01-.04.45-.86.02-.03.03.02.78.65.03.03-.02.03-.41.88-.02.03-.03-.02Zm1.05.82.44-.85.02-.04.03.02.84.65.03.02-.01.03-.45.85-.01.04-.03-.02-.83-.65-.03-.01Zm.59-1.05-.03-.01.01-.03.42-.88.01-.03.03.02.83.68.03.02-.02.03-.44.86-.02.03-.03-.02Zm.52-1.07-.01-.05.01-.04.43-.82.02-.03.03.01.79.62.04.02-.02.03-.41.89-.02.03-.03-.02Zm.54-1.12-.03-.01.01-.03.45-.86.01-.04.04.02.82.68.04.02-.02.03-.43.83-.03.06-.02-.05Zm.56-1.1h-.03l.01-.04.4-.84.06-.05.02.05.8.62.04.01-.02.04-.41.87-.05.01-.03-.01Zm.52-1.07-.03-.02.02-.03.43-.86.01-.03.03.02.83.65.03.01-.03.07-.43.82-.02.03-.03-.01Zm.54-1.11.02-.03.41-.9.02-.03.03.02.82.68.04.02-.02.03-.44.86-.02.03-.04-.02Zm.56-1.07-.04-.01.02-.04.45-.85.01-.03.03.01.8.62.03.02-.02.03-.41.89-.02.03-.03-.02Zm.54-1.1-.04-.02.02-.04.44-.85.02-.04.03.02.83.68.03.02-.02.03-.44.86-.02.03-.01-.07Zm.55-1.07-.01-.05.01-.03.4-.86.05-.01.03.01.8.62.04.01-.02.04-.44.85-.02.04-.03-.02Zm.54-1.11-.03-.02.02-.03.44-.86.02-.03.03.01.82.69.03.01-.04.02-.4.84-.01.03-.04-.01Zm.54-1.12-.03-.01.05-.02.41-.87.02-.03.01.05.83.64.03.02-.01.03-.43.86-.02.03-.03-.03Zm.56-1.06-.04-.02.02-.03.45-.86.01-.03.03.02.81.63.04.02-.02.03-.41.88-.02.03-.06-.03Zm.54-1.11-.03-.02.01-.03.44-.86.02-.03.04.02.82.66.03.02-.01.03-.45.86-.02.03-.03-.02Zm.55-1.07-.01-.01.01-.03.54-1.12.02-.03.03.02.83.68.01.02-.01.03-.56 1.07-.02.03-.03-.02Zm.32-1.28-.55 1.06-.02.03-.03-.01-.83-.68-.03-.02.01-.03.56-1.07.02-.03.03.02.82.65.02.05Zm-1.1-.9-.52 1.07-.01.04-.04-.02-.84-.65-.03-.02.02-.03.57-1.1.01-.03.02.05.81.62.02.02Zm-1.08-.85-.52 1.08-.01.03-.04-.01-.82-.69-.03-.01.01-.03.53-1.08.01-.03.07.04.79.64.01.05Zm-1.06-.87-.55 1.06-.02.04-.03-.02-.8-.62-.03-.02.02-.03.52-1.08.02-.06.03.06.83.64.03.01Zm-1.08-.83-.56 1.07-.01.03-.03-.02-.83-.68-.03-.02.05-.01.52-1.08.02-.03.03.01.83.67.03.02Zm-1.1-.9-.52 1.08-.01.03-.03-.02-.83-.65-.03-.01.01-.03.56-1.07.02-.03.03.01.79.62.03.02Zm-1.07-.84-.53 1.08-.01.03-.04-.02-.82-.67-.03-.01.01-.03.53-1.08.04-.02.04.03.8.66.02.01Zm-1.08-.86-.53 1.08-.03.02-.03-.02-.8-.62-.04-.02.02-.03.52-1.08.01-.03.04.01.84.66.03.01Zm-1.07-.86-.55 1.07-.02.03-.03-.02-.78-.65-.03-.02.01-.03.53-1.08.01-.03.04.02.82.68.03.02Zm-.68 1.27.03.02-.01.03-.43.82-.04.07-.03-.05-.82-.65-.03-.02.46-.92.03.03Zm-1.08-.84-.4.89-.01.03-.03-.03-.85-.65-.01-.05v-.03l.43-.83.01-.03.03.02.8.63.03.02Zm-.56 1.06.04.02-.02.03-.43.86-.01.03-.02-.05-.81-.63-.03-.02.01-.03.42-.87.01-.03.03.01ZM356 83.9l-.45.86-.01.03-.04-.02-.84-.65-.03-.02.02-.03.44-.85.02-.04.03.02.84.65.03.02Zm-.59 1.05.03.01-.01.03-.42.88v.03l-.03-.02-.82-.68-.04-.03.02-.03.44-.86.02-.03.03.01Zm-1.05-.83-.41.87-.03.02-.03-.02-.82-.62-.03-.01v-.03l.42-.87.03-.02.03.02.8.61.02.02Zm-.56 1.07.04.01-.02.03-.44.86v.03l-.04-.02-.82-.68-.03-.01v-.04l.44-.85.02-.03.01.04Zm-.57 1.09.04.02-.02.03-.4.84-.01.03-.04-.01-.84-.66-.03-.01.02-.03.44-.86.02-.03.03.01Zm-.52 1.08.03.02-.01.03-.45.85-.01.04-.04-.02-.79-.62-.03-.04.01-.04.4-.84.02-.03.03.01Zm-.54 1.11.03.03v.02l-.44.86-.02.03-.01-.05-.83-.65-.03-.02.01-.03.45-.86.01-.03.04.02Zm-.56 1.06.03.02-.01.03-.41.9h-.05l-.03-.02-.81-.62-.03-.02v-.03l.44-.86.02-.03.03.02Zm-.54 1.12.04.03-.02.03-.45.86v.03l-.03-.03-.82-.69-.03-.01.01-.03.45-.86.01-.03.02.04Zm-.5 1.07.01.06-.04.01-.4.84-.02.03-.03-.01-.82-.66-.04-.01.02-.03.43-.86.01-.03.04.02Zm-.59 1.1.03.02-.01.03-.45.86-.01.03-.04-.02-.8-.65-.02-.01.01-.03.4-.85.05-.01.03.01Zm-.53 1.11.04.02-.02.03-.44.87-.02.03-.01-.04-.85-.65-.03-.02.02-.03.44-.86.02-.03.03.02ZM348.9 95l.03.01-.02.04-.4.87-.03.03-.06-.05-.8-.62-.02-.01.46-.92.03.01Zm-.54 1.1.03.02-.01.04-.43.85-.02.04-.03-.02-.83-.68-.03-.02.05-.02.41-.87.02-.03.03.02Zm-.54 1.09.03.03h-.05l-.4.9-.02.02-.04-.01-.84-.66-.03-.01.01-.03.45-.86.02-.03.03.01Zm-.56 1.1h.04l-.02.04-.44.86-.02.03-.03-.01-.8-.66-.03-.01.02-.03.41-.9.05-.01.01.05Zm-.54 1.1.03.02-.01.03-.43.83-.02.03-.03-.02-.82-.64-.03-.02.01-.03.45-.86.01-.03.03.01Zm-.55 1.07.03.01-.02.04-.65 1.32-.01.03-.04-.02-.1-.11c-.09-.56-.13-1.13-.17-1.72l.12-.17.01-.03.04.02Zm-.54 1.75.01-.04.04.02.82.68.03.03-.01.04-.64 1.25c-.14-.57-.3-1.13-.4-1.7Zm1.06.87.02-.03.06.05.8.61.03.02-.02.03-1.1 2.21c-.19-.48-.34-.97-.49-1.44Zm1.11.86.02-.04.03.02.8.65.03.02-.02.03-1.43 2.87c-.2-.41-.41-.8-.62-1.25Zm1.08.87.02-.03.03.02.84.65.03.01-.03.02-1.66 3.35c-.23-.35-.47-.68-.69-1.07Zm1.08.84.02-.03.03.02.83.68.03.01-.02.04-1.8 3.62c-.28-.3-.51-.62-.8-.94Zm1.07.88.01-.04.03.02.84.65.04.02-.02.03-1.82 3.71-.1-.06c-.25-.19-.5-.44-.78-.68Zm1.08.84.04-.02.04.02.79.66.03.02-.01.03-1.78 3.59a5.7 5.7 0 0 1-.94-.59Zm1.1.89.02-.07.02.05.8.64.02.01-.01.03-1.63 3.32c-.36-.14-.67-.25-1-.43Zm.1-.2-.03-.01.02-.03.65-1.32.05-.01.03.01.79.67.04.01-.02.04-.64 1.28-.01.03-.03-.01Zm1.1.82.63-1.3.02-.02.03.01.84.65-.01.04-.65 1.31-.02.04-.03-.02-.8-.65-.03-.02Zm1.06.87.65-1.32.02-.03.03.02.83.68.03.02-.02.03-.63 1.28-.05.02-.03-.02-.81-.62-.03-.01Zm1.08.84.64-1.29.01-.03.03.02.85.65.03.02-.02.03-.65 1.32-.01.03-.04-.02-.82-.68-.03-.02Zm.8-1.47-.03-.02.01-.04.44-.85.02-.03.03.01.8.65.03.02-.02.03-.41.87-.05.02-.01-.05Zm1.04.79.43-.83.02-.03.03.01.84.66.04.01-.05.02-.41.87-.02.03-.04-.01-.84-.65-.03-.05Zm.56-1.03-.03-.02.01-.03.45-.86.01-.03.04.02.82.64.02.05-.02.04-.41.82-.02.03-.03-.01Zm.57-1.1-.03-.02.02-.03.44-.86.01-.03.04.07.8.62.02.01v.03l-.41.9h-.08Zm1.05.82.43-.85.02-.03.03.01 1.24.97.03.02-.02.03-.44.86-.02.03-.03-.02-1.24-.98-.03-.02Zm.56-1.06-.04-.01h.05l.41-.9.02-.03.03.02 1.24 1.02.03.01-.01.04-.43.82v.03l-.04-.01Zm.55-1.06-.03-.02.01-.03.45-.86.01-.03.04.02 1.22.97.03.01-.02.03-.42.86-.02.03-.03-.01Zm.54-1.11-.03-.02.02-.03.44-.86.01-.03.04.03 1.22.97.03.02-.01.03-.42.87-.01.03-.06-.03Zm.57-1.1-.03-.01.02-.04.4-.84.01-.03.06.03 1.23.97.03.03-.02.03-.44.86-.02.03-.03-.01Zm.53-1.08-.03-.02.01-.03.45-.85.01-.04.03.02 1.23.97.03.03-.02.03-.44.86-.02.03-.03-.03Zm.52-1.11-.03-.02.01-.03.45-.86.02-.03.03.02 1.25 1.03.03.02-.03.01-.41.88-.02.03-.01-.05Zm.57-1.07-.03-.01.02-.03.4-.87.06-.02.03.02 1.24.98.03.02-.02.03-.44.85v.03l-.05-.01Zm.53-1.1-.03-.02.01-.03.45-.86.01-.03.03.01 1.24.97.02.05-.02.03-.4.84-.04.02-.03-.02Zm.57-1.07-.02-.05.02-.03.4-.84.01-.03.03.01 1.26 1 .03.02-.02.03-.44.86-.02.03-.03-.01Zm.52-1.11-.03-.02.02-.03.44-.86.02-.03.03.02 1.22.97.03.01-.01.03-.45.86-.01.03-.04-.01Zm.54-1.11-.03-.02v-.03l.44-.83.02-.06.02.05 1.25 1 .03.01-.05.02-.4.88-.02.03-.04-.02Zm.56-1.07-.03-.01.01-.03.41-.9.05-.01.04.02 1.23.96.04.02-.02.03-.45.86-.01.03-.03-.01Zm.54-1.1-.03-.03.01-.03.45-.85.01-.03.03.01 1.21 1 .05.02-.02.03-.4.84-.04.05-.02-.05Zm.52-1.09-.03-.01.05-.02.41-.87.02-.04.03.02 1.25 1 .03.02-.01.03-.45.86-.01.03-.03-.02Zm2.08-1.71-.84-.7-.03-.02v-.03l.52-1.08c.13.59.27 1.19.35 1.83Zm-.46-2.18-.63 1.25-.02.04-.03-.02-.8-.62-.03-.03.02-.03 1.02-2.1c.17.5.34 1 .47 1.51Zm-.59-1.82-1.12 2.23-.02.04-.03-.02-.81-.68-.03-.02.04-.01 1.37-2.8c.24.4.42.81.6 1.26Zm-.74-1.55-1.46 2.93-.04-.02-.82-.65-.03-.01.01-.04 1.69-3.3c.22.35.42.73.65 1.1Zm-1.8-2.4.05.04c.32.33.62.68.9 1.05l-1.66 3.38-.02.03-.03-.01-.83-.69-.03-.01.02-.03 1.76-3.56-.13-.16c0-.02-.01-.03-.03-.05l-1.79 3.6-.05.02-.03-.01-.8-.62-.03-.02.02-.03 1.82-3.72c.3.22.6.5.86.78Zm-1.03-.96-1.86 3.68-.01.04-.03-.02-.8-.65-.03-.02.02-.03 1.8-3.65c.3.2.6.38.91.65Zm-1.14-.8-1.8 3.62-.01.04-.04-.02-.84-.63-.03-.02.02-.03 1.73-3.43c.33.14.67.32.97.47Zm-1.22-.58-1.66 3.35-.01.03-.02-.02-.82-.66-.03-.02.01-.03 1.48-2.98c.35.09.7.2 1.05.33Zm-1.27-.42-1.45 2.9-.02.06-.04-.08-.8-.62-.03-.02.02-.03 1.19-2.4c.35.02.71.1 1.13.2Zm-2.63-.23c.4-.02.8 0 1.2 0l-1.13 2.27-.02.03-.03-.02-.8-.62-.02-.04.01-.03Zm-1.87.73.27-.57a12 12 0 0 1 1.32-.15l-.73 1.43-.02.03-.01-.05-.85-.65-.03-.01Zm-.11.2.03.02.83.65.03.02-.05.01-.52 1.08-.02.04-.03-.02-.84-.64-.04-.01.02-.03.56-1.07Zm-1.65.23.27-.5a5 5 0 0 1 .73-.23l.4.33.03.01-.02.04-.52 1.08-.02.03-.03-.02-.83-.65-.03-.05Zm-.08.22.03.01.8.67.01.02v.03l-.41.87-.05.02-.02-.05-.8-.62-.04-.01.02-.04.41-.89Zm-.5-.38.26.19.03.01-.01.03-.45.86-.01.03-.04-.01-.79-.62c.35-.19.7-.35 1.02-.5Zm-1.14.6.03.02.82.68.03.02-.02.03-.44.85-.02.04-.03-.02-.83-.68-.03-.02.02-.03.44-.86Zm-.38.16-.25.59-.02.03-.03-.02-.29-.22c.23-.11.43-.25.6-.38Zm-.73.47.34.3h.03l-.02.04-.44.86-.02.03-.03-.02-.7-.57c.29-.2.57-.43.84-.64Zm-.98.75.8.62v.08l-.44.83-.01.03-.03-.02-1.12-.86.8-.68Zm-.9.8 1.12.92.03.01-.01.04-.45.85-.01.03-.03-.01-1.39-1.11c.26-.24.48-.5.73-.73Zm-.87.88 1.45 1.15.03.01-.02.03-.44.86-.01.04-.02-.05-1.63-1.27c.22-.26.44-.51.64-.77Zm-.73.91 1.62 1.3.04.02-.02.03-.41.87-.02.03-.03-.01-1.81-1.43c.2-.3.41-.56.63-.81Zm-.71.95 1.8 1.46.03.02-.02.03-.44.86-.02.03-.03-.01-1.9-1.53c.2-.3.4-.57.58-.86Zm-.92 1.48c.1-.15.16-.3.25-.46l1.93 1.54.03.03-.02.03-.44.86v.03l-.03-.02-1.97-1.55.25-.46Zm-.3.62 1.93 1.54.04.02-.02.03-.41.87-.05.02-.03-.02-1.94-1.54c.16-.29.29-.63.48-.92Zm-.54 1.11 1.93 1.54.04.01-.02.04-.43.82-.03.07-.02-.05-1.88-1.46c.14-.35.25-.67.4-.97Zm-.46 1.13 1.86 1.5h.03l-.05.02-.41.9-.02.02-.03-.01-1.75-1.38c.11-.39.23-.7.37-1.05Zm-.43 1.22 1.71 1.36.04.02-.02.04-.44.85-.02.03-.03-.01-1.53-1.24c.11-.33.2-.7.29-1.05Zm-.34 1.24 1.55 1.2.03.02-.02.03-.44.86-.02.03-.03-.01-1.29-1.02.22-1.11Zm-.27 1.33 1.24.99.03.01-.01.03-.41.9-.02.02-.06-.03-.92-.74.15-1.18Zm-.19 1.37.9.68.02.05-.01.03-.43.82-.02.04-.03-.02-.49-.4.02.26.4.33.03.02-.05.01-.42.9-.01.56c-.03-1.07 0-2.17.1-3.28Zm-.65 25.14c.84-4.39 1.75-8.06 1.83-11.47 3.38 3.95 6.2 4.54 6.2 4.54-3.04 1.9-5.9 5.24-8.03 6.93Zm8.04-9.53 1.6-3.22.02-.04.03.02.84.65.02.05-.02.03-1.41 2.8a8.42 8.42 0 0 1-1.08-.3Zm1.35.33 1.33-2.73.02-.03.01.05.84.65.04.01-.02.03-1.06 2.11c-.42 0-.78-.04-1.16-.09Zm1.41.13.99-1.97.03-.02.04.02.8.62.02.04-.02.04-.6 1.16c-.4.06-.81.1-1.26.1Zm1.6-.13.48-.98.02-.04.03.05.8.62.02.02c-.44.15-.92.25-1.35.33Zm1.46-.5h-.03l-.84-.66-.03-.03.02-.03.65-1.32.05-.01.03.03.8.65.02.01-.01.04-.64 1.28Zm.28.05.6-1.19.01-.03.04.02.8.62c-.5.25-.96.43-1.45.58Zm2.42-1.28-.1.25c-.23.13-.48.24-.69.39l-.92-.75-.03-.02.01-.03.45-.86.01-.03.03.02 1.24.97.04.01Zm.12-.18-.03-.01-1.21-1-.03-.02.01-.03.4-.84.03-.06.05.06 1.24.97.03.02-.02.03-.47.85Zm.2.18.03-.06.4-.85.02-.03.03.02.41.3c-.3.2-.57.43-.89.62Zm1.03-.73-.46-.36-.03-.02.02-.03.44-.86.02-.03.03.01.82.69c-.3.2-.55.4-.84.6Zm.96-.76-.9-.72-.02-.01.01-.03.43-.83.03-.06.02.04 1.2.92c-.25.27-.52.45-.77.69Zm.9-.8-1.23-.96-.04-.02.02-.03.41-.88.05-.01.03.01 1.43 1.15c-.19.25-.44.5-.67.74Zm.81-.9-1.5-1.2h-.04l.02-.04.44-.86.02-.03.03.02 1.69 1.35c-.23.28-.45.54-.66.76Zm.78-.9-1.75-1.37.02-.03.41-.9.02-.02.03.01 1.88 1.5-.61.82Zm.68-.98-1.86-1.49-.03-.01.02-.04.44-.86.02-.03.03.02 1.97 1.56-.59.85Zm1.07-1.63c-.13.24-.27.41-.41.65l-2-1.57v-.08l.44-.83.01-.03.03.02 2.07 1.62a.44.44 0 0 0-.14.22Zm.19-.43-2.02-1.6-.03-.02.02-.03.4-.87.06-.02.03.02 2.01 1.63c-.17.29-.31.59-.47.9Zm.55-1.07-2.04-1.64-.04-.02.02-.03.44-.86v-.03l.02.05 2 1.59c-.11.3-.25.6-.4.94Zm.48-1.15-2-1.58-.03-.01.04-.02.42-.87.01-.03.04.02 1.9 1.52c-.13.3-.25.62-.38.97Zm.41-1.2-1.84-1.47-.03-.03.01-.03.45-.86.01-.03.04.01 1.68 1.35c-.11.38-.2.72-.32 1.07Zm.39-1.22-1.69-1.35-.03-.01.03-.07.43-.82.01-.03.04.01 1.48 1.18-.27 1.1Zm.28-1.3-1.4-1.13-.03-.01.02-.03.41-.88.02-.03.06.05 1.13.92c-.08.33-.15.71-.2 1.11Zm.22-1.35-1.1-.89-.03-.01.02-.04.43-.82.03-.06.02.04.74.59-.1 1.2Zm-.57-1.97-.03-.03.04-.01.42-.88.01-.03.04.02.23.19c0 .43.02.82-.03 1.28Zm0 0"/>
  </g>
</svg>
