<svg xmlns="http://www.w3.org/2000/svg" width="500" viewBox="0 0 375 375" height="500" version="1.0">
  <defs>
    <clipPath id="a">
      <path d="M9 84.84h364V290H9Zm0 0"/>
    </clipPath>
  </defs>
  <g clip-path="url(#a)">
    <path fill="#e81d20" d="M370.02 115.93c-1.78-.2-14.97 2.24-23.86 7.86-8.89 5.63-13.43 8-18.07 9.19-4.64 1.18-12.54 6.51-12.34 10.16.2 3.66 7.67 10.7 8.66 12.15.98 1.45 2.43 3.69 2.43 3.69s-10.2 28.55-12.87 39.36c-2.67 10.8-4 18.36-4 18.36s-12.29-8.88-23.54-16.59c-11.26-7.7-21.92-17.18-27.85-22.21-5.92-5.04-7.1-5.04-7.1-5.04s19.7-13.32 23.1-18.95c3.4-5.63 6.51-11.55 10.37-13.48 3.85-1.93 12.24-12.98 15.3-18.51 3.06-5.53 8.1-7.11 8.1-7.11s.82 1.68 2.5 1.41c1.67-.26 3.26-3.49 5.92-3.98 2.67-.5 7.82-1.08 11.52-.79 3.7.3 6.71-.4 7.7-1.13.99-.75 1.78-2.32-1.08-7.5-2.87-5.2-5.78-6.28-7.56-9.83-1.78-3.56-5.48-8.15-6.9-8.1-1.44.05-2.87 2.03-3.81 2.52-.94.5-5.33 3.3-6.17 4.1-.84.79-.94 2.27-.94 2.27s-4.44 2.96-5.92 4.74c-1.49 1.78-2.22 3.3-2.22 3.3s-15.95 7.07-22.37 11.5c-6.41 4.45-12.14 11.07-16 16.3-3.84 5.23-8.68 10.56-18.36 13.72-9.67 3.16-13.92 3.66-21.32 7.9-7.41 4.25-15.9 8.3-15.9 8.3s-7.8-7.11-13.53-4.94c-5.72 2.17-15.1 6.61-22.11 9.08-7.01 2.47-9.87 2.87-13.63 2.37-3.75-.5-13.33-.3-16.49.99a12.87 12.87 0 0 0-4.73 3.16s6.41-13.63-6.92-24.1c0 0 .84 0 .84-1.42 0 0 7.16-4 10.32 2.41 3.16 6.42 6.02 9.19 11.36 9.19 5.33 0 10.36-4.45 10.36-4.45s-9.08 2.27-12.34-5.13-11.55-10.96-20.63-5.73c0 0-3.6-1.54-4.05.56 0 0-9.03-2.88-19.1.97-10.08 3.86-10.23 12-10.23 12s-.69 4.01-2.33 5.66c-1.65 1.64-.33 3.62 0 5.46.32 1.84.52 8.75.52 8.75s-6.25 6.72-6.52 7.64c-.26.92.14 2.04.14 2.04s-4.55 7.97-8.69 12.8c-4.15 4.84-11.16 12.94-17.38 17.09-6.22 4.14-16.98 18.36-22.6 24.38-5.64 6.03-17.68 19.55-20.25 22.12-2.57 2.57-5.92 5.53-7.9 7.4-1.97 1.88-2.17 3.07-2.07 6.03.1 2.96 1.38 6.32 1.38 7.3 0 .99.6 2.18.89 2.97.3.79 2.96 2.56 2.96 2.56s-.5 2.96.3 3.16c.79.2 2.67-2.66 2.67-2.66s3.84-.99 4.44-.99c.6 0 1.97 1.88 3.25 1.18 1.29-.69 2.87-1.77 3.36-1.77.5 0 1.88-.9 2.77-2.08.89-1.18 1.68-3.35 2.46-7 .8-3.66.7-4.65.7-4.65s12.54-9.38 23.3-15a576.81 576.81 0 0 0 22.8-12.54c.7-.5 14.03-9.48 17.09-11.26 3.06-1.78 22.01-10.27 24.48-11.45 2.47-1.19 3.26-1.98 3.26-1.98s8.98.8 9.68.99c.69.2 2.76-1.88 2.76-1.88s9.77 2.67 14.42 1.78c4.64-.89 20.34-3.35 25.07-4.25 4.74-.88 31.1-.98 37.43-.59 6.32.4 17.47 1.29 20.63 2.27 3.16 1 15.7 7.5 23.5 12.15 7.8 4.64 27.74 16.78 45.02 20.34 17.28 3.55 26.56.59 30.31-9.09 3.75-9.67 4.74-30.6 5.33-47.59.6-16.98 1.63-29.52 3.85-36.33 0 0 3.8 1.24 4.64-.44.84-1.68 3.26-11.8 5.54-16.4 2.27-4.58 11.58-12.32 16.38-15.8 4.8-3.5 1.65-8.7-.13-8.9Zm-256.31 85.63c-.66 1-4.28 4.87-6.12 6.19a80.84 80.84 0 0 1-11.85 6.91c-5.13 2.37-17.24 8.3-17.24 8.3s6.97-7.7 8.75-10.4c1.77-2.7 7.57-9.15 10.66-12.44 3.1-3.3 7.64-7.05 8.1-7.11.46-.07 1.05.2 1.64 1.12.6.92 6.12 3.35 6.12 3.35l.73 1.98s-.13 1.12-.8 2.1Zm0 0"/>
  </g>
  <path fill="#e81d20" d="M45.02 218.93a23.13 23.13 0 0 1-.97 6.53 23.09 23.09 0 0 1-4.14 7.75 23.56 23.56 0 0 1-3.12 3.12 22.4 22.4 0 0 1-7.74 4.14 23.89 23.89 0 0 1-4.33.86 23.13 23.13 0 0 1-6.6-.33 23.56 23.56 0 0 1-4.23-1.28 22.69 22.69 0 0 1-10.1-8.29 21.5 21.5 0 0 1-2.08-3.9 21.95 21.95 0 0 1-1.6-6.4 21.91 21.91 0 0 1 .32-6.6 22.34 22.34 0 0 1 7.8-13 22.4 22.4 0 0 1 16.49-5 21.63 21.63 0 0 1 4.33.85 21.95 21.95 0 0 1 5.97 2.83 22.46 22.46 0 0 1 10 18.72Zm0 0"/>
</svg>
