<svg id="Capa_2" data-name="Capa 2" xmlns="http://www.w3.org/2000/svg" viewBox="0 0 744.5 912.75">
  <defs>
    <style>
      .cls-2{fill:#ff1515}
    </style>
  </defs>
  <g id="Capa_1-2" data-name="Capa 1">
    <path d="M744.5 240a848 848 0 0 1-.75 13.32s-4.2 64.11-19.4 128.71c-27.48 116.75-80.6 223.6-154.53 322.44-49.57 66.26-106.06 126.18-166.87 182.13-8.95 8.23-18.09 16.25-27.06 24.47-1.97 1.81-3.22 2.5-5.68.32-78.3-69.37-150.46-144.35-210.99-230.01-55.6-78.68-98.9-163.45-126.25-256.06A792.66 792.66 0 0 1 3.33 268.18 863.73 863.73 0 0 1 .47 221.3c0-.22-.23-2.41-.16-2.42l.02.04-.15-10.6c.12-4.09.11-7.42.07-9.68-.07-4.35-.25-6.7-.25-12.31a187.19 187.19 0 0 1 .39-12.21l.03-8.83-.02.05c-.07 0 .05-3.08.1-4.06.8-17.97 2.19-35.89 3.39-53.83.39-5.91 2.74-6.77 7.74-6.94 44.78-1.47 89.38-5.02 133.67-12.06 62.08-9.86 121.17-28.61 176.59-58.47 16.95-9.13 33.78-18.48 49.52-29.66.3-.13.84-.32 1.54-.32.66 0 1.17.19 1.46.32.75.57 2.08 1.73 3.91 2.94 90.04 59.63 190.34 86.84 296.99 94.05 20.43 1.38 40.86 2.82 61.33 3.35 3.47.09 4.82 1.02 4.96 4.77.28 7.97.97 15.96 1.94 23.88.34 2.72.06.98.35 8.38.29 7.23.49 13.18.61 17.28v85.04ZM373.24 139H48.39c-1.33 0-2.68.12-4-.02-2.39-.26-3.18.77-3.25 3.09-.22 6.99-.65 13.97-.93 20.96a781.46 781.46 0 0 0 14.65 186.29c18.44 91.76 53.39 177.01 102.17 256.72 58.12 94.99 131.69 176.89 213.18 252.11 2.4 2.22 3.58 1.6 5.58-.24 62.1-57.28 119.71-118.63 169.56-187.01 57.89-79.4 102.92-165.26 130.42-259.92a763.1 763.1 0 0 0 27.77-151.9 865.68 865.68 0 0 0 1.42-114.34c-.24-4.72-1.65-5.87-6.37-5.86-108.45.16-216.9.12-325.35.12Z" style="fill:#003792"/>
    <path d="M373.25 139c108.45 0 216.9.04 325.35-.12 4.72 0 6.12 1.14 6.37 5.86a867.4 867.4 0 0 1-1.42 114.34 761.55 761.55 0 0 1-27.77 151.9c-27.5 94.65-72.52 180.51-130.42 259.92C495.5 739.28 437.9 800.63 375.8 857.91c-2 1.85-3.17 2.46-5.58.24-81.49-75.22-155.07-157.13-213.18-252.11-48.78-79.72-83.73-164.96-102.17-256.72a781.46 781.46 0 0 1-14.65-186.29c.28-6.99.72-13.97.93-20.96.07-2.32.86-3.35 3.25-3.09 1.32.14 2.66.02 4 .02h324.85ZM133.22 428.25c-.19 10.67.91 23.91 3.13 37.08 8.89 52.63 32.36 97.83 70.9 134.54 50.49 48.09 111.03 70.62 180.86 67.44 36.15-1.65 70.07-11.48 102.03-28.37 3.11-1.64 3.52-2.98 1.76-6.02a1230.91 1230.91 0 0 1-19.73-35.3c-1.81-3.38-3.22-3.46-6.44-1.75-34.16 18.12-70.54 25.22-109.03 21.48-45.29-4.4-84.49-22.44-116.57-54.48-42.31-42.26-61.45-93.73-56.78-153.55 3.5-44.8 20.55-84.22 52.04-116.06 56.84-57.47 124.86-73.35 202.11-50.2 2.91.87 3.96.5 4.96-2.35 4.46-12.71 9-25.4 13.83-37.97 1.48-3.86.89-5.32-3.19-6.67-43.89-14.54-88.4-16.99-133.35-6.26C209.62 216.09 133.2 312.9 133.2 428.26Zm201.59-158.22c-.36 1.37-.57 1.81-.57 2.25-.02 71.64 0 143.28-.09 214.91 0 3.16 1.15 3.92 4.09 3.9 13.33-.12 26.66-.21 39.98.04 4.07.08 5.36-.91 5.33-5.18-.19-30.32-.1-60.64-.1-90.96v-6.22c2.17 2.07 3.49 3.28 4.75 4.54l44.55 44.51c4.62 4.61 4.58 4.58 8.69-.6 30.22-38.09 60.45-76.18 90.7-114.25 3.68-4.64 3.8-4.65 6.83.31 28.06 46 36.05 95.37 23.78 147.74-9.2 39.24-29.52 72.12-59.62 98.89-2.61 2.32-2.68 3.63-.38 6.26 8.67 9.9 17.23 19.9 25.44 30.17 2.97 3.71 4.83 3.43 8 .44 69.37-65.43 94.85-144.91 74.47-238.04-10.61-48.5-36.08-89.12-72.82-122.58-4.51-4.11-4.47-4.19-8.29.62-31.15 39.27-62.33 78.52-93.38 117.86-2.41 3.06-3.67 3.35-6.57.42-21.9-22.16-44-44.11-66.03-66.15-9.42-9.42-18.8-18.87-28.77-28.89ZM300.59 407h.57c0-32.3-.06-64.61.08-96.91.02-3.9-.98-5.12-4.99-5.05-13.32.25-26.65.23-39.96 0-3.74-.06-4.77.99-4.77 4.74.04 80.94 0 161.88-.2 242.82-.01 4.2 1.47 4.82 5.14 4.83 19.31 0 38.62.34 57.94.41 40.47.16 80.93.19 121.4.39 3.31.02 4.66-.63 4.6-4.31-.22-13.49-.2-26.98 0-40.47.05-3.5-1-4.5-4.48-4.5-17.48 0-34.96-.32-52.44-.41a9204.1 9204.1 0 0 0-77.94-.15c-3.88.01-5.05-.98-5.03-4.98.16-32.14.09-64.29.09-96.43Z" style="fill:#ffd300"/>
    <path class="cls-2" d="M133.22 428.25c0-115.36 76.43-212.17 186.55-238.45 44.94-10.72 89.46-8.28 133.35 6.26 4.08 1.35 4.67 2.81 3.19 6.67a1388.15 1388.15 0 0 0-13.83 37.97c-1 2.85-2.05 3.22-4.96 2.35-77.25-23.15-145.27-7.27-202.11 50.2-31.49 31.84-48.55 71.26-52.04 116.06-4.67 59.82 14.47 111.29 56.78 153.55 32.08 32.04 71.28 50.08 116.57 54.48 38.49 3.74 74.87-3.36 109.03-21.48 3.22-1.71 4.63-1.63 6.44 1.75a1281.42 1281.42 0 0 0 19.73 35.3c1.76 3.04 1.34 4.38-1.76 6.02-31.96 16.89-65.87 26.72-102.03 28.37-69.83 3.19-130.37-19.35-180.86-67.44-38.54-36.71-62.02-81.91-70.9-134.54-2.22-13.17-3.32-26.41-3.13-37.08Z"/>
    <path class="cls-2" d="M334.81 270.03c9.97 10.01 19.35 19.47 28.77 28.89 22.02 22.03 44.13 43.99 66.03 66.15 2.9 2.93 4.15 2.64 6.57-.42 31.05-39.35 62.23-78.6 93.38-117.86 3.81-4.81 3.77-4.73 8.29-.62 36.74 33.46 62.2 74.08 72.82 122.58 20.38 93.12-5.11 172.61-74.47 238.04-3.17 2.99-5.03 3.27-8-.44a891.28 891.28 0 0 0-25.44-30.17c-2.3-2.63-2.23-3.93.38-6.26 30.1-26.77 50.42-59.64 59.62-98.89 12.28-52.37 4.29-101.74-23.78-147.74-3.02-4.95-3.14-4.94-6.83-.31a252432.1 252432.1 0 0 0-90.7 114.25c-4.11 5.18-4.07 5.21-8.69.6-14.85-14.84-29.69-29.68-44.55-44.51-1.27-1.26-2.58-2.47-4.75-4.54V395c0 30.32-.09 60.64.1 90.96.03 4.27-1.27 5.26-5.33 5.18-13.32-.25-26.65-.16-39.98-.04-2.94.03-4.09-.73-4.09-3.9.08-71.64.07-143.28.09-214.91 0-.44.22-.89.57-2.25Z"/>
    <path class="cls-2" d="M300.59 407c0 32.14.07 64.29-.09 96.43-.02 4 1.15 4.99 5.03 4.98 25.98-.09 51.96.02 77.94.15 17.48.09 34.96.41 52.44.41 3.49 0 4.53 1 4.48 4.5-.19 13.49-.21 26.98 0 40.47.06 3.69-1.29 4.33-4.6 4.31-40.47-.2-80.93-.24-121.4-.39-19.31-.07-38.62-.4-57.94-.41-3.66 0-5.15-.63-5.14-4.83.2-80.94.25-161.88.2-242.82 0-3.75 1.03-4.81 4.77-4.74 13.32.22 26.65.24 39.96 0 4-.07 5 1.15 4.99 5.05-.15 32.3-.08 64.61-.08 96.91h-.57Z"/>
  </g>
</svg>
