<svg xmlns="http://www.w3.org/2000/svg" xmlns:xlink="http://www.w3.org/1999/xlink" width="500" zoomAndPan="magnify" viewBox="0 0 375 374.999991" height="500" preserveAspectRatio="xMidYMid meet" version="1.0"><defs><clipPath id="477ae7031d"><path d="M 4 3 L 372.84375 3 L 372.84375 372 L 4 372 Z M 4 3 " clip-rule="nonzero"/></clipPath></defs><g clip-path="url(#477ae7031d)"><path fill="#04246e" d="M 362.1875 187.335938 C 362.09375 223.394531 350.894531 258.621094 330.007812 288.035156 C 309.125 317.445312 281.113281 338.34375 248.578125 350.222656 C 214.226562 362.75 176.296875 364.199219 141.117188 354.195312 C 105.9375 344.195312 77.21875 324.65625 54.847656 297.707031 C 32.242188 270.464844 18.371094 236.09375 15.742188 200.796875 C 13.113281 165.503906 21.515625 128.511719 40.238281 97.582031 C 58.304688 67.734375 85.285156 43.835938 116.988281 29.308594 C 149.910156 14.226562 187.773438 10.050781 223.234375 17.28125 C 258.695312 24.511719 289.785156 42.003906 314.210938 67.566406 C 338.613281 93.089844 354.691406 125.792969 360.183594 160.65625 C 361.578125 169.472656 362.167969 178.410156 362.1875 187.328125 C 362.210938 193.953125 372.507812 193.96875 372.488281 187.328125 C 372.382812 149.445312 360.683594 111.9375 338.640625 81.0625 C 317.019531 50.792969 286.667969 27.511719 251.742188 14.664062 C 215.667969 1.394531 175.328125 0.0195312 138.375 10.53125 C 102.792969 20.652344 70.484375 41.769531 46.988281 70.367188 C 23.0625 99.496094 8.511719 135.335938 5.511719 172.917969 C 2.476562 210.933594 11.589844 249.65625 31.339844 282.285156 C 51.09375 314.917969 79.03125 339.441406 112.617188 354.628906 C 147.878906 370.570312 187.5625 375.042969 225.507812 367.40625 C 261.9375 360.074219 295.824219 341.234375 321.488281 314.382812 C 347.25 287.4375 364.640625 252.703125 370.253906 215.8125 C 371.691406 206.378906 372.460938 196.878906 372.488281 187.328125 C 372.507812 180.703125 362.210938 180.6875 362.1875 187.328125 Z M 362.1875 187.335938 " fill-opacity="1" fill-rule="nonzero"/></g><path fill="#04246e" d="M 263.949219 268 C 263.941406 268.40625 263.8125 269.316406 263.96875 268.417969 C 263.878906 268.941406 263.734375 269.449219 263.5625 269.957031 C 263.496094 270.15625 263.761719 269.652344 263.335938 270.449219 C 263.023438 271.035156 262.683594 271.605469 262.292969 272.140625 C 261.566406 273.140625 259.117188 275.332031 257.46875 276.4375 C 251.554688 280.398438 244.753906 282.828125 237.949219 284.75 C 217.976562 290.386719 196.6875 291.589844 176.042969 290.457031 C 158.566406 289.496094 139.207031 287.105469 123.582031 278.613281 C 121.199219 277.316406 118.925781 275.910156 117.046875 274.15625 C 116.566406 273.703125 116.097656 273.238281 115.652344 272.75 C 115.15625 272.207031 115.238281 272.304688 115.121094 272.140625 C 114.78125 271.664062 114.476562 271.171875 114.1875 270.664062 C 114.070312 270.457031 113.960938 270.238281 113.859375 270.023438 C 113.515625 269.289062 114.09375 270.710938 113.84375 269.957031 C 113.679688 269.453125 113.535156 268.941406 113.441406 268.417969 C 113.597656 269.324219 113.453125 268.40625 113.460938 268 C 113.460938 267.765625 113.476562 267.53125 113.488281 267.300781 C 113.542969 266.480469 113.324219 268.074219 113.503906 267.277344 C 113.625 266.734375 113.769531 266.199219 113.96875 265.679688 C 113.660156 266.460938 114.296875 265.117188 114.4375 264.894531 C 114.59375 264.636719 115.128906 263.824219 115.082031 263.886719 C 115.554688 263.261719 116.820312 262 117.699219 261.242188 C 123.558594 256.21875 131.59375 253.507812 138.90625 251.410156 C 150.109375 248.191406 161.679688 246.539062 173.289062 245.71875 L 168.839844 243.171875 C 173.976562 252.683594 179.109375 262.191406 184.246094 271.699219 C 186.050781 275.050781 191.332031 275.050781 193.136719 271.699219 C 198.265625 262.191406 203.394531 252.683594 208.523438 243.171875 L 204.074219 245.71875 C 218.746094 246.75 233.699219 249.015625 247.457031 254.425781 C 251.726562 256.109375 256.183594 258.25 259.679688 261.242188 C 261.203125 262.546875 262.148438 263.570312 262.945312 264.894531 C 263.742188 266.222656 263.902344 266.96875 263.921875 268 C 264.078125 274.617188 274.378906 274.636719 274.21875 268 C 273.957031 256.816406 262.996094 249.984375 253.847656 246.007812 C 238.214844 239.21875 220.964844 236.609375 204.074219 235.421875 C 202.34375 235.296875 200.433594 236.472656 199.625 237.96875 C 194.496094 247.476562 189.367188 256.988281 184.238281 266.496094 L 193.128906 266.496094 C 187.996094 256.988281 182.859375 247.476562 177.722656 237.96875 C 176.914062 236.472656 175.003906 235.296875 173.273438 235.421875 C 161.445312 236.253906 149.574219 237.84375 138.109375 240.933594 C 129.683594 243.207031 120.917969 246.234375 113.757812 251.34375 C 108.457031 255.121094 103.671875 260.253906 103.191406 267.066406 C 102.765625 273.167969 106.347656 278.640625 110.851562 282.425781 C 125.0625 294.347656 146.15625 297.753906 163.964844 299.753906 C 187.71875 302.417969 212.558594 301.558594 235.847656 295.933594 C 245.164062 293.683594 254.90625 290.59375 262.898438 285.144531 C 268.796875 281.121094 274.035156 275.53125 274.199219 268 C 274.351562 261.367188 264.050781 261.375 263.902344 268 Z M 263.949219 268 " fill-opacity="1" fill-rule="nonzero"/><path fill="#04246e" d="M 188.714844 73.570312 C 164.355469 73.765625 141.507812 87.441406 130.199219 109.117188 C 120.4375 127.824219 119.503906 151.75 129.644531 170.535156 C 142.433594 194.222656 155.226562 217.90625 168.015625 241.59375 C 173.433594 251.632812 178.855469 261.664062 184.273438 271.699219 C 186.078125 275.050781 191.359375 275.050781 193.164062 271.699219 C 203.96875 251.667969 214.777344 231.632812 225.582031 211.605469 C 232.585938 198.621094 239.589844 185.640625 246.59375 172.664062 C 255.632812 155.90625 257.613281 135.9375 251.070312 117.882812 C 241.558594 91.648438 216.679688 73.796875 188.722656 73.585938 C 182.097656 73.53125 182.089844 83.828125 188.722656 83.882812 C 211.097656 84.054688 231.671875 97.699219 240.304688 118.4375 C 246.929688 134.367188 245.835938 152.382812 237.703125 167.464844 C 225.183594 190.671875 212.667969 213.878906 200.144531 237.082031 C 194.851562 246.894531 189.566406 256.707031 184.273438 266.507812 L 193.164062 266.507812 C 182.996094 247.675781 172.820312 228.84375 162.652344 210.003906 C 155.527344 196.804688 148.394531 183.601562 141.265625 170.398438 C 139.96875 168 138.582031 165.632812 137.429688 163.160156 C 132.109375 151.757812 131.457031 138 134.648438 125.914062 C 141.109375 101.433594 163.429688 84.078125 188.722656 83.882812 C 195.347656 83.828125 195.359375 73.53125 188.722656 73.585938 Z M 188.714844 73.570312 " fill-opacity="1" fill-rule="nonzero"/><path fill="#04246e" d="M 188.714844 167.464844 C 176.925781 167.300781 166.046875 159.84375 162.191406 148.558594 C 158.339844 137.269531 161.636719 124.6875 170.746094 116.949219 C 179.859375 109.210938 193.289062 108.351562 203.429688 114.609375 C 213.570312 120.863281 218.613281 132.761719 216.410156 144.121094 C 213.824219 157.511719 202.363281 167.265625 188.707031 167.460938 C 182.089844 167.554688 182.070312 177.855469 188.707031 177.757812 C 204.980469 177.53125 219.199219 167.375 224.855469 152.140625 C 230.429688 137.140625 225.597656 119.261719 213.273438 109.085938 C 200.777344 98.769531 182.707031 97.128906 168.792969 105.710938 C 154.875 114.292969 147.953125 130.871094 151.070312 146.855469 C 154.558594 164.707031 170.734375 177.496094 188.703125 177.75 C 195.332031 177.847656 195.332031 167.546875 188.703125 167.453125 Z M 188.714844 167.464844 " fill-opacity="1" fill-rule="nonzero"/></svg>