<svg xmlns="http://www.w3.org/2000/svg" xmlns:xlink="http://www.w3.org/1999/xlink" width="500" zoomAndPan="magnify" viewBox="0 0 375 374.999991" height="500" preserveAspectRatio="xMidYMid meet" version="1.0"><path fill="#04246e" d="M 274.050781 271.785156 C 267.351562 278.492188 256.191406 284.929688 249.671875 285.851562 C 242.496094 286.867188 235.308594 286.992188 228.265625 286.234375 C 212.527344 284.535156 196.953125 278.464844 180.660156 267.652344 C 168.617188 259.671875 156.15625 249.105469 141.453125 234.402344 C 138.65625 231.601562 135.753906 228.59375 132.816406 225.40625 C 112.667969 203.648438 80.171875 161.863281 88.902344 126.535156 C 90.65625 119.453125 94.019531 112.792969 98.976562 106.667969 C 100.378906 104.890625 101.96875 103.125 103.683594 101.410156 L 116.335938 88.605469 L 140.632812 112.910156 C 143.089844 115.359375 144.441406 118.648438 144.441406 122.160156 C 144.433594 125.675781 143.082031 128.96875 140.617188 131.429688 L 135.46875 136.578125 C 124.667969 147.386719 122.921875 164.394531 131.320312 177.023438 C 150.242188 205.460938 173.527344 228.257812 202.507812 246.738281 C 212.65625 253.191406 227.304688 251.554688 235.882812 242.976562 L 244.03125 234.828125 C 244.949219 233.914062 246.011719 233.128906 247.15625 232.515625 C 252.207031 229.863281 258.542969 230.820312 262.558594 234.835938 L 286.785156 259.0625 Z M 301.355469 248.578125 L 275.089844 222.3125 C 265.636719 212.867188 250.761719 210.601562 238.882812 216.859375 C 236.144531 218.3125 233.65625 220.140625 231.5 222.3125 L 223.351562 230.453125 C 220.660156 233.144531 215.15625 233.789062 212.023438 231.796875 C 185.167969 214.679688 163.59375 193.558594 146.070312 167.214844 C 142.324219 161.578125 143.128906 153.96875 147.992188 149.101562 L 153.140625 143.953125 C 158.949219 138.152344 162.152344 130.421875 162.152344 122.167969 C 162.152344 113.917969 158.964844 106.179688 153.15625 100.378906 L 126.882812 74.105469 C 125.496094 72.71875 122.992188 70.964844 118.980469 70.484375 C 113.769531 69.839844 108.265625 71.78125 104.371094 75.65625 L 91.160156 88.878906 C 88.964844 91.074219 86.925781 93.359375 85.140625 95.601562 C 78.613281 103.691406 74.082031 112.667969 71.703125 122.285156 C 61.519531 163.507812 92.25 207.664062 119.804688 237.425781 C 122.898438 240.785156 125.960938 243.953125 128.921875 246.917969 C 144.496094 262.488281 157.824219 273.769531 170.875 282.417969 C 189.585938 294.824219 207.742188 301.835938 226.359375 303.84375 C 230.011719 304.238281 233.703125 304.441406 237.402344 304.441406 C 242.3125 304.441406 247.25 304.09375 252.152344 303.394531 C 263.890625 301.734375 278.355469 292.539062 286.582031 284.308594 L 299.804688 271.089844 C 303.679688 267.210938 305.621094 261.742188 304.96875 256.488281 C 304.582031 253.261719 303.371094 250.609375 301.355469 248.578125 " fill-opacity="1" fill-rule="nonzero"/><path fill="#04246e" d="M 187.402344 17.941406 C 93.957031 17.941406 17.941406 93.957031 17.941406 187.402344 C 17.941406 280.84375 93.957031 356.863281 187.402344 356.863281 C 280.84375 356.863281 356.863281 280.84375 356.863281 187.402344 C 356.863281 93.957031 280.84375 17.941406 187.402344 17.941406 Z M 187.402344 374.859375 C 84.03125 374.859375 -0.0585938 290.769531 -0.0585938 187.402344 C -0.0585938 84.03125 84.03125 -0.0585938 187.402344 -0.0585938 C 290.769531 -0.0585938 374.859375 84.03125 374.859375 187.402344 C 374.859375 290.769531 290.769531 374.859375 187.402344 374.859375 " fill-opacity="1" fill-rule="nonzero"/></svg>