<svg xmlns="http://www.w3.org/2000/svg" xmlns:xlink="http://www.w3.org/1999/xlink" width="500" zoomAndPan="magnify" viewBox="0 0 375 374.999991" height="500" preserveAspectRatio="xMidYMid meet" version="1.0"><path fill="#2ea100" d="M 187.601562 0 C 291.085938 0 374.976562 83.890625 374.976562 187.386719 C 374.976562 290.878906 291.085938 374.769531 187.601562 374.769531 C 153.53125 374.769531 121.574219 365.671875 94.054688 349.785156 L 80.316406 353.46875 L 0 374.976562 L 21.523438 294.675781 L 25.203125 280.9375 C 9.304688 253.402344 0.21875 221.457031 0.21875 187.386719 C 0.21875 83.890625 84.109375 0 187.601562 0 Z M 187.601562 0 " fill-opacity="1" fill-rule="evenodd"/><path fill="#fefefe" d="M 135.074219 166.539062 C 142.59375 194.378906 180.597656 232.394531 208.449219 239.902344 L 225.171875 223.183594 C 229.160156 219.195312 235.023438 218.050781 240.222656 220.269531 C 241.332031 220.738281 242.488281 221.136719 243.605469 221.605469 C 255.984375 226.828125 268.433594 231.890625 280.878906 236.957031 C 284.707031 238.519531 287.484375 241.503906 288.753906 245.445312 C 290.011719 249.367188 289.496094 253.460938 287.3125 256.945312 C 249.183594 317.566406 172.503906 281.199219 133.484375 242.179688 C 133.371094 242.0625 133.257812 241.949219 133.128906 241.824219 C 133.027344 241.722656 132.914062 241.605469 132.796875 241.492188 C 93.777344 202.472656 57.421875 125.792969 118.042969 87.675781 C 121.527344 85.480469 125.609375 84.964844 129.53125 86.234375 C 133.472656 87.503906 136.46875 90.269531 138.023438 94.109375 C 143.097656 106.546875 148.148438 119.003906 153.371094 131.382812 C 153.851562 132.5 154.25 133.644531 154.71875 134.765625 C 156.9375 139.964844 155.804688 145.816406 151.804688 149.804688 Z M 135.074219 166.539062 " fill-opacity="1" fill-rule="evenodd"/></svg>